<?xml version="1.0" encoding="utf-8" standalone="no"?>
<!DOCTYPE svg PUBLIC "-//W3C//DTD SVG 1.1//EN"
  "http://www.w3.org/Graphics/SVG/1.1/DTD/svg11.dtd">
<!-- Created with matplotlib (https://matplotlib.org/) -->
<svg height="98.966929pt" version="1.1" viewBox="0 0 280.856693 98.966929" width="280.856693pt" xmlns="http://www.w3.org/2000/svg" xmlns:xlink="http://www.w3.org/1999/xlink">
 <metadata>
  <rdf:RDF xmlns:cc="http://creativecommons.org/ns#" xmlns:dc="http://purl.org/dc/elements/1.1/" xmlns:rdf="http://www.w3.org/1999/02/22-rdf-syntax-ns#">
   <cc:Work>
    <dc:type rdf:resource="http://purl.org/dc/dcmitype/StillImage"/>
    <dc:date>2021-02-20T10:39:51.836388</dc:date>
    <dc:format>image/svg+xml</dc:format>
    <dc:creator>
     <cc:Agent>
      <dc:title>Matplotlib v3.3.3, https://matplotlib.org/</dc:title>
     </cc:Agent>
    </dc:creator>
   </cc:Work>
  </rdf:RDF>
 </metadata>
 <defs>
  <style type="text/css">*{stroke-linecap:butt;stroke-linejoin:round;}</style>
 </defs>
 <g id="figure_1">
  <g id="patch_1">
   <path d="M 0 98.966929 
L 280.856693 98.966929 
L 280.856693 0 
L 0 0 
z
" style="fill:#f0f0f0;"/>
  </g>
  <g id="axes_1">
   <g id="matplotlib.axis_1"/>
   <g id="matplotlib.axis_2"/>
   <g id="patch_2">
    <path clip-path="url(#p7a8ddc020d)" d="M 69.562205 27.04252 
L 62.475591 25.625197 
L 62.475591 27.04252 
L 41.215748 27.04252 
L 41.215748 27.04252 
L 62.475591 27.04252 
L 62.475591 28.459843 
z
" style="stroke:#000000;stroke-linejoin:miter;"/>
   </g>
   <g id="patch_3">
    <path clip-path="url(#p7a8ddc020d)" d="M 211.294488 27.04252 
L 218.381102 28.459843 
L 218.381102 27.04252 
L 239.640945 27.04252 
L 239.640945 27.04252 
L 218.381102 27.04252 
L 218.381102 25.625197 
z
" style="stroke:#000000;stroke-linejoin:miter;"/>
   </g>
   <g id="patch_4">
    <path clip-path="url(#p7a8ddc020d)" d="M 187.099274 37.064506 
L 181.086082 41.0733 
L 182.088281 42.075498 
L 142.098677 82.065102 
L 142.098677 82.065102 
L 182.088281 42.075498 
L 183.09048 43.077697 
z
" style="stroke:#000000;stroke-linejoin:miter;"/>
   </g>
   <g id="patch_5">
    <path clip-path="url(#p7a8ddc020d)" d="M 93.757419 37.064506 
L 97.766213 43.077697 
L 98.768412 42.075498 
L 138.758015 82.065102 
L 138.758015 82.065102 
L 98.768412 42.075498 
L 99.77061 41.0733 
z
" style="stroke:#000000;stroke-linejoin:miter;"/>
   </g>
   <g id="patch_6">
    <path clip-path="url(#p7a8ddc020d)" d="M 27.04252 12.869291 
C 30.801304 12.869291 34.406644 14.362672 37.064506 17.020534 
C 39.722367 19.678396 41.215748 23.283736 41.215748 27.04252 
C 41.215748 30.801304 39.722367 34.406644 37.064506 37.064506 
C 34.406644 39.722367 30.801304 41.215748 27.04252 41.215748 
C 23.283736 41.215748 19.678396 39.722367 17.020534 37.064506 
C 14.362672 34.406644 12.869291 30.801304 12.869291 27.04252 
C 12.869291 23.283736 14.362672 19.678396 17.020534 17.020534 
C 19.678396 14.362672 23.283736 12.869291 27.04252 12.869291 
z
" style="fill:none;stroke:#000000;stroke-linejoin:miter;"/>
   </g>
   <g id="patch_7">
    <path clip-path="url(#p7a8ddc020d)" d="M 83.735433 12.869291 
C 87.494217 12.869291 91.099557 14.362672 93.757419 17.020534 
C 96.415281 19.678396 97.908661 23.283736 97.908661 27.04252 
C 97.908661 30.801304 96.415281 34.406644 93.757419 37.064506 
C 91.099557 39.722367 87.494217 41.215748 83.735433 41.215748 
C 79.976649 41.215748 76.371309 39.722367 73.713447 37.064506 
C 71.055585 34.406644 69.562205 30.801304 69.562205 27.04252 
C 69.562205 23.283736 71.055585 19.678396 73.713447 17.020534 
C 76.371309 14.362672 79.976649 12.869291 83.735433 12.869291 
z
" style="fill:none;stroke:#000000;stroke-linejoin:miter;"/>
   </g>
   <g id="patch_8">
    <path clip-path="url(#p7a8ddc020d)" d="M 197.12126 12.869291 
C 200.880044 12.869291 204.485384 14.362672 207.143246 17.020534 
C 209.801107 19.678396 211.294488 23.283736 211.294488 27.04252 
C 211.294488 30.801304 209.801107 34.406644 207.143246 37.064506 
C 204.485384 39.722367 200.880044 41.215748 197.12126 41.215748 
C 193.362476 41.215748 189.757136 39.722367 187.099274 37.064506 
C 184.441412 34.406644 182.948031 30.801304 182.948031 27.04252 
C 182.948031 23.283736 184.441412 19.678396 187.099274 17.020534 
C 189.757136 14.362672 193.362476 12.869291 197.12126 12.869291 
z
" style="fill:none;stroke:#000000;stroke-linejoin:miter;"/>
   </g>
   <g id="patch_9">
    <path clip-path="url(#p7a8ddc020d)" d="M 253.814173 12.869291 
C 257.572957 12.869291 261.178297 14.362672 263.836159 17.020534 
C 266.494021 19.678396 267.987402 23.283736 267.987402 27.04252 
C 267.987402 30.801304 266.494021 34.406644 263.836159 37.064506 
C 261.178297 39.722367 257.572957 41.215748 253.814173 41.215748 
C 250.055389 41.215748 246.450049 39.722367 243.792187 37.064506 
C 241.134326 34.406644 239.640945 30.801304 239.640945 27.04252 
C 239.640945 23.283736 241.134326 19.678396 243.792187 17.020534 
C 246.450049 14.362672 250.055389 12.869291 253.814173 12.869291 
z
" style="fill:none;stroke:#000000;stroke-linejoin:miter;"/>
   </g>
   <g id="patch_10">
    <path clip-path="url(#p7a8ddc020d)" d="M 140.428346 81.373228 
C 141.05481 81.373228 141.6557 81.622125 142.098677 82.065102 
C 142.541654 82.508079 142.790551 83.108969 142.790551 83.735433 
C 142.790551 84.361897 142.541654 84.962787 142.098677 85.405764 
C 141.6557 85.848741 141.05481 86.097638 140.428346 86.097638 
C 139.801882 86.097638 139.200992 85.848741 138.758015 85.405764 
C 138.315039 84.962787 138.066142 84.361897 138.066142 83.735433 
C 138.066142 83.108969 138.315039 82.508079 138.758015 82.065102 
C 139.200992 81.622125 139.801882 81.373228 140.428346 81.373228 
z
" style="stroke:#000000;stroke-linejoin:miter;"/>
   </g>
   <g id="text_1">
    <!-- H0 -->
    <g transform="translate(17.324551 30.905645)scale(0.14 -0.14)">
     <defs>
      <path d="M 9.8125 72.90625 
L 19.671875 72.90625 
L 19.671875 43.015625 
L 55.515625 43.015625 
L 55.515625 72.90625 
L 65.375 72.90625 
L 65.375 0 
L 55.515625 0 
L 55.515625 34.71875 
L 19.671875 34.71875 
L 19.671875 0 
L 9.8125 0 
z
" id="DejaVuSans-72"/>
      <path d="M 31.78125 66.40625 
Q 24.171875 66.40625 20.328125 58.90625 
Q 16.5 51.421875 16.5 36.375 
Q 16.5 21.390625 20.328125 13.890625 
Q 24.171875 6.390625 31.78125 6.390625 
Q 39.453125 6.390625 43.28125 13.890625 
Q 47.125 21.390625 47.125 36.375 
Q 47.125 51.421875 43.28125 58.90625 
Q 39.453125 66.40625 31.78125 66.40625 
z
M 31.78125 74.21875 
Q 44.046875 74.21875 50.515625 64.515625 
Q 56.984375 54.828125 56.984375 36.375 
Q 56.984375 17.96875 50.515625 8.265625 
Q 44.046875 -1.421875 31.78125 -1.421875 
Q 19.53125 -1.421875 13.0625 8.265625 
Q 6.59375 17.96875 6.59375 36.375 
Q 6.59375 54.828125 13.0625 64.515625 
Q 19.53125 74.21875 31.78125 74.21875 
z
" id="DejaVuSans-48"/>
     </defs>
     <use xlink:href="#DejaVuSans-72"/>
     <use x="75.195312" xlink:href="#DejaVuSans-48"/>
    </g>
   </g>
   <g id="text_2">
    <!-- H1 -->
    <g transform="translate(74.017464 30.905645)scale(0.14 -0.14)">
     <defs>
      <path d="M 12.40625 8.296875 
L 28.515625 8.296875 
L 28.515625 63.921875 
L 10.984375 60.40625 
L 10.984375 69.390625 
L 28.421875 72.90625 
L 38.28125 72.90625 
L 38.28125 8.296875 
L 54.390625 8.296875 
L 54.390625 0 
L 12.40625 0 
z
" id="DejaVuSans-49"/>
     </defs>
     <use xlink:href="#DejaVuSans-72"/>
     <use x="75.195312" xlink:href="#DejaVuSans-49"/>
    </g>
   </g>
   <g id="text_3">
    <!-- F -->
    <g transform="translate(193.095166 30.905645)scale(0.14 -0.14)">
     <defs>
      <path d="M 9.8125 72.90625 
L 51.703125 72.90625 
L 51.703125 64.59375 
L 19.671875 64.59375 
L 19.671875 43.109375 
L 48.578125 43.109375 
L 48.578125 34.8125 
L 19.671875 34.8125 
L 19.671875 0 
L 9.8125 0 
z
" id="DejaVuSans-70"/>
     </defs>
     <use xlink:href="#DejaVuSans-70"/>
    </g>
   </g>
   <g id="text_4">
    <!-- T -->
    <g transform="translate(249.538704 30.905645)scale(0.14 -0.14)">
     <defs>
      <path d="M -0.296875 72.90625 
L 61.375 72.90625 
L 61.375 64.59375 
L 35.5 64.59375 
L 35.5 0 
L 25.59375 0 
L 25.59375 64.59375 
L -0.296875 64.59375 
z
" id="DejaVuSans-84"/>
     </defs>
     <use xlink:href="#DejaVuSans-84"/>
    </g>
   </g>
   <g id="text_5">
    <!-- M -->
    <g transform="translate(134.388659 78.235433)scale(0.14 -0.14)">
     <defs>
      <path d="M 9.8125 72.90625 
L 24.515625 72.90625 
L 43.109375 23.296875 
L 61.8125 72.90625 
L 76.515625 72.90625 
L 76.515625 0 
L 66.890625 0 
L 66.890625 64.015625 
L 48.09375 14.015625 
L 38.1875 14.015625 
L 19.390625 64.015625 
L 19.390625 0 
L 9.8125 0 
z
" id="DejaVuSans-77"/>
     </defs>
     <use xlink:href="#DejaVuSans-77"/>
    </g>
   </g>
  </g>
 </g>
 <defs>
  <clipPath id="p7a8ddc020d">
   <rect height="84.566929" width="266.456693" x="7.2" y="7.2"/>
  </clipPath>
 </defs>
</svg>
