<?xml version="1.0" encoding="utf-8" standalone="no"?>
<!DOCTYPE svg PUBLIC "-//W3C//DTD SVG 1.1//EN"
  "http://www.w3.org/Graphics/SVG/1.1/DTD/svg11.dtd">
<!-- Created with matplotlib (https://matplotlib.org/) -->
<svg height="110.777953pt" version="1.1" viewBox="0 0 167.470866 110.777953" width="167.470866pt" xmlns="http://www.w3.org/2000/svg" xmlns:xlink="http://www.w3.org/1999/xlink">
 <metadata>
  <rdf:RDF xmlns:cc="http://creativecommons.org/ns#" xmlns:dc="http://purl.org/dc/elements/1.1/" xmlns:rdf="http://www.w3.org/1999/02/22-rdf-syntax-ns#">
   <cc:Work>
    <dc:type rdf:resource="http://purl.org/dc/dcmitype/StillImage"/>
    <dc:date>2021-02-20T19:00:42.613868</dc:date>
    <dc:format>image/svg+xml</dc:format>
    <dc:creator>
     <cc:Agent>
      <dc:title>Matplotlib v3.3.3, https://matplotlib.org/</dc:title>
     </cc:Agent>
    </dc:creator>
   </cc:Work>
  </rdf:RDF>
 </metadata>
 <defs>
  <style type="text/css">*{stroke-linecap:butt;stroke-linejoin:round;}</style>
 </defs>
 <g id="figure_1">
  <g id="patch_1">
   <path d="M 0 110.777953 
L 167.470866 110.777953 
L 167.470866 0 
L 0 0 
z
" style="fill:#f0f0f0;"/>
  </g>
  <g id="axes_1">
   <g id="matplotlib.axis_1"/>
   <g id="matplotlib.axis_2"/>
   <g id="patch_2">
    <path clip-path="url(#p0836ff2921)" d="M 126.255118 83.735433 
L 119.168504 85.152756 
L 119.168504 83.735433 
L 41.215748 83.735433 
L 41.215748 83.735433 
L 119.168504 83.735433 
L 119.168504 82.31811 
z
" style="stroke:#000000;stroke-linejoin:miter;"/>
   </g>
   <g id="patch_3">
    <path clip-path="url(#p0836ff2921)" d="M 37.064506 73.713447 
L 41.0733 67.700256 
L 42.075498 68.702454 
L 73.713447 37.064506 
L 73.713447 37.064506 
L 42.075498 68.702454 
L 43.077697 69.704653 
z
" style="stroke:#000000;stroke-linejoin:miter;"/>
   </g>
   <g id="patch_4">
    <path clip-path="url(#p0836ff2921)" d="M 130.406361 73.713447 
L 124.393169 69.704653 
L 125.395368 68.702454 
L 93.757419 37.064506 
L 93.757419 37.064506 
L 125.395368 68.702454 
L 126.397566 67.700256 
z
" style="stroke:#000000;stroke-linejoin:miter;"/>
   </g>
   <g id="patch_5">
    <path clip-path="url(#p0836ff2921)" d="M 27.04252 97.908661 
C 30.801304 97.908661 34.406644 96.415281 37.064506 93.757419 
C 39.722367 91.099557 41.215748 87.494217 41.215748 83.735433 
C 41.215748 79.976649 39.722367 76.371309 37.064506 73.713447 
C 34.406644 71.055585 30.801304 69.562205 27.04252 69.562205 
C 23.283736 69.562205 19.678396 71.055585 17.020534 73.713447 
C 14.362672 76.371309 12.869291 79.976649 12.869291 83.735433 
C 12.869291 87.494217 14.362672 91.099557 17.020534 93.757419 
C 19.678396 96.415281 23.283736 97.908661 27.04252 97.908661 
z
" style="fill:none;stroke:#000000;stroke-linejoin:miter;"/>
   </g>
   <g id="patch_6">
    <path clip-path="url(#p0836ff2921)" d="M 140.428346 97.908661 
C 144.187131 97.908661 147.792471 96.415281 150.450332 93.757419 
C 153.108194 91.099557 154.601575 87.494217 154.601575 83.735433 
C 154.601575 79.976649 153.108194 76.371309 150.450332 73.713447 
C 147.792471 71.055585 144.187131 69.562205 140.428346 69.562205 
C 136.669562 69.562205 133.064222 71.055585 130.406361 73.713447 
C 127.748499 76.371309 126.255118 79.976649 126.255118 83.735433 
C 126.255118 87.494217 127.748499 91.099557 130.406361 93.757419 
C 133.064222 96.415281 136.669562 97.908661 140.428346 97.908661 
z
" style="fill:none;stroke:#000000;stroke-linejoin:miter;"/>
   </g>
   <g id="patch_7">
    <path clip-path="url(#p0836ff2921)" d="M 83.735433 41.215748 
C 87.494217 41.215748 91.099557 39.722367 93.757419 37.064506 
C 96.415281 34.406644 97.908661 30.801304 97.908661 27.04252 
C 97.908661 23.283736 96.415281 19.678396 93.757419 17.020534 
C 91.099557 14.362672 87.494217 12.869291 83.735433 12.869291 
C 79.976649 12.869291 76.371309 14.362672 73.713447 17.020534 
C 71.055585 19.678396 69.562205 23.283736 69.562205 27.04252 
C 69.562205 30.801304 71.055585 34.406644 73.713447 37.064506 
C 76.371309 39.722367 79.976649 41.215748 83.735433 41.215748 
z
" style="fill:none;stroke:#000000;stroke-linejoin:miter;"/>
   </g>
   <g id="text_1">
    <!-- E -->
    <g transform="translate(22.619395 87.598558)scale(0.14 -0.14)">
     <defs>
      <path d="M 9.8125 72.90625 
L 55.90625 72.90625 
L 55.90625 64.59375 
L 19.671875 64.59375 
L 19.671875 43.015625 
L 54.390625 43.015625 
L 54.390625 34.71875 
L 19.671875 34.71875 
L 19.671875 8.296875 
L 56.78125 8.296875 
L 56.78125 0 
L 9.8125 0 
z
" id="DejaVuSans-69"/>
     </defs>
     <use xlink:href="#DejaVuSans-69"/>
    </g>
   </g>
   <g id="text_2">
    <!-- W -->
    <g transform="translate(133.507096 87.598558)scale(0.14 -0.14)">
     <defs>
      <path d="M 3.328125 72.90625 
L 13.28125 72.90625 
L 28.609375 11.28125 
L 43.890625 72.90625 
L 54.984375 72.90625 
L 70.3125 11.28125 
L 85.59375 72.90625 
L 95.609375 72.90625 
L 77.296875 0 
L 64.890625 0 
L 49.515625 63.28125 
L 33.984375 0 
L 21.578125 0 
z
" id="DejaVuSans-87"/>
     </defs>
     <use xlink:href="#DejaVuSans-87"/>
    </g>
   </g>
   <g id="text_3">
    <!-- U -->
    <g transform="translate(78.612308 30.905645)scale(0.14 -0.14)">
     <defs>
      <path d="M 8.6875 72.90625 
L 18.609375 72.90625 
L 18.609375 28.609375 
Q 18.609375 16.890625 22.84375 11.734375 
Q 27.09375 6.59375 36.625 6.59375 
Q 46.09375 6.59375 50.34375 11.734375 
Q 54.59375 16.890625 54.59375 28.609375 
L 54.59375 72.90625 
L 64.5 72.90625 
L 64.5 27.390625 
Q 64.5 13.140625 57.4375 5.859375 
Q 50.390625 -1.421875 36.625 -1.421875 
Q 22.796875 -1.421875 15.734375 5.859375 
Q 8.6875 13.140625 8.6875 27.390625 
z
" id="DejaVuSans-85"/>
     </defs>
     <use xlink:href="#DejaVuSans-85"/>
    </g>
   </g>
  </g>
 </g>
 <defs>
  <clipPath id="p0836ff2921">
   <rect height="96.377953" width="153.070866" x="7.2" y="7.2"/>
  </clipPath>
 </defs>
</svg>
