<?xml version="1.0" encoding="utf-8" standalone="no"?>
<!DOCTYPE svg PUBLIC "-//W3C//DTD SVG 1.1//EN"
  "http://www.w3.org/Graphics/SVG/1.1/DTD/svg11.dtd">
<!-- Created with matplotlib (https://matplotlib.org/) -->
<svg height="54.085039pt" version="1.1" viewBox="0 0 280.856693 54.085039" width="280.856693pt" xmlns="http://www.w3.org/2000/svg" xmlns:xlink="http://www.w3.org/1999/xlink">
 <metadata>
  <rdf:RDF xmlns:cc="http://creativecommons.org/ns#" xmlns:dc="http://purl.org/dc/elements/1.1/" xmlns:rdf="http://www.w3.org/1999/02/22-rdf-syntax-ns#">
   <cc:Work>
    <dc:type rdf:resource="http://purl.org/dc/dcmitype/StillImage"/>
    <dc:date>2021-02-20T09:51:04.147700</dc:date>
    <dc:format>image/svg+xml</dc:format>
    <dc:creator>
     <cc:Agent>
      <dc:title>Matplotlib v3.3.3, https://matplotlib.org/</dc:title>
     </cc:Agent>
    </dc:creator>
   </cc:Work>
  </rdf:RDF>
 </metadata>
 <defs>
  <style type="text/css">*{stroke-linecap:butt;stroke-linejoin:round;}</style>
 </defs>
 <g id="figure_1">
  <g id="patch_1">
   <path d="M 0 54.085039 
L 280.856693 54.085039 
L 280.856693 -0 
L 0 -0 
z
" style="fill:#f0f0f0;"/>
  </g>
  <g id="axes_1">
   <g id="matplotlib.axis_1"/>
   <g id="matplotlib.axis_2"/>
   <g id="patch_2">
    <path clip-path="url(#p083a362bcc)" d="M 126.255118 27.04252 
L 119.168504 28.459843 
L 119.168504 27.04252 
L 41.215748 27.04252 
L 41.215748 27.04252 
L 119.168504 27.04252 
L 119.168504 25.625197 
z
" style="stroke:#000000;stroke-linejoin:miter;"/>
   </g>
   <g id="patch_3">
    <path clip-path="url(#p083a362bcc)" d="M 154.601575 27.04252 
L 161.688189 25.625197 
L 161.688189 27.04252 
L 182.948031 27.04252 
L 182.948031 27.04252 
L 161.688189 27.04252 
L 161.688189 28.459843 
z
" style="stroke:#000000;stroke-linejoin:miter;"/>
   </g>
   <g id="patch_4">
    <path clip-path="url(#p083a362bcc)" d="M 211.294488 27.04252 
L 218.381102 25.625197 
L 218.381102 27.04252 
L 239.640945 27.04252 
L 239.640945 27.04252 
L 218.381102 27.04252 
L 218.381102 28.459843 
z
" style="stroke:#000000;stroke-linejoin:miter;"/>
   </g>
   <g id="patch_5">
    <path clip-path="url(#p083a362bcc)" d="M 27.04252 41.215748 
C 30.801304 41.215748 34.406644 39.722367 37.064506 37.064506 
C 39.722367 34.406644 41.215748 30.801304 41.215748 27.04252 
C 41.215748 23.283736 39.722367 19.678396 37.064506 17.020534 
C 34.406644 14.362672 30.801304 12.869291 27.04252 12.869291 
C 23.283736 12.869291 19.678396 14.362672 17.020534 17.020534 
C 14.362672 19.678396 12.869291 23.283736 12.869291 27.04252 
C 12.869291 30.801304 14.362672 34.406644 17.020534 37.064506 
C 19.678396 39.722367 23.283736 41.215748 27.04252 41.215748 
z
" style="fill:none;stroke:#000000;stroke-linejoin:miter;"/>
   </g>
   <g id="patch_6">
    <path clip-path="url(#p083a362bcc)" d="M 140.428346 41.215748 
C 144.187131 41.215748 147.792471 39.722367 150.450332 37.064506 
C 153.108194 34.406644 154.601575 30.801304 154.601575 27.04252 
C 154.601575 23.283736 153.108194 19.678396 150.450332 17.020534 
C 147.792471 14.362672 144.187131 12.869291 140.428346 12.869291 
C 136.669562 12.869291 133.064222 14.362672 130.406361 17.020534 
C 127.748499 19.678396 126.255118 23.283736 126.255118 27.04252 
C 126.255118 30.801304 127.748499 34.406644 130.406361 37.064506 
C 133.064222 39.722367 136.669562 41.215748 140.428346 41.215748 
z
" style="fill:none;stroke:#000000;stroke-linejoin:miter;"/>
   </g>
   <g id="patch_7">
    <path clip-path="url(#p083a362bcc)" d="M 197.12126 41.215748 
C 200.880044 41.215748 204.485384 39.722367 207.143246 37.064506 
C 209.801107 34.406644 211.294488 30.801304 211.294488 27.04252 
C 211.294488 23.283736 209.801107 19.678396 207.143246 17.020534 
C 204.485384 14.362672 200.880044 12.869291 197.12126 12.869291 
C 193.362476 12.869291 189.757136 14.362672 187.099274 17.020534 
C 184.441412 19.678396 182.948031 23.283736 182.948031 27.04252 
C 182.948031 30.801304 184.441412 34.406644 187.099274 37.064506 
C 189.757136 39.722367 193.362476 41.215748 197.12126 41.215748 
z
" style="fill:none;stroke:#000000;stroke-linejoin:miter;"/>
   </g>
   <g id="patch_8">
    <path clip-path="url(#p083a362bcc)" d="M 253.814173 41.215748 
C 257.572957 41.215748 261.178297 39.722367 263.836159 37.064506 
C 266.494021 34.406644 267.987402 30.801304 267.987402 27.04252 
C 267.987402 23.283736 266.494021 19.678396 263.836159 17.020534 
C 261.178297 14.362672 257.572957 12.869291 253.814173 12.869291 
C 250.055389 12.869291 246.450049 14.362672 243.792187 17.020534 
C 241.134326 19.678396 239.640945 23.283736 239.640945 27.04252 
C 239.640945 30.801304 241.134326 34.406644 243.792187 37.064506 
C 246.450049 39.722367 250.055389 41.215748 253.814173 41.215748 
z
" style="fill:none;stroke:#000000;stroke-linejoin:miter;"/>
   </g>
   <g id="text_1">
    <!-- H0 -->
    <g transform="translate(17.324551 30.905645)scale(0.14 -0.14)">
     <defs>
      <path d="M 9.8125 72.90625 
L 19.671875 72.90625 
L 19.671875 43.015625 
L 55.515625 43.015625 
L 55.515625 72.90625 
L 65.375 72.90625 
L 65.375 0 
L 55.515625 0 
L 55.515625 34.71875 
L 19.671875 34.71875 
L 19.671875 0 
L 9.8125 0 
z
" id="DejaVuSans-72"/>
      <path d="M 31.78125 66.40625 
Q 24.171875 66.40625 20.328125 58.90625 
Q 16.5 51.421875 16.5 36.375 
Q 16.5 21.390625 20.328125 13.890625 
Q 24.171875 6.390625 31.78125 6.390625 
Q 39.453125 6.390625 43.28125 13.890625 
Q 47.125 21.390625 47.125 36.375 
Q 47.125 51.421875 43.28125 58.90625 
Q 39.453125 66.40625 31.78125 66.40625 
z
M 31.78125 74.21875 
Q 44.046875 74.21875 50.515625 64.515625 
Q 56.984375 54.828125 56.984375 36.375 
Q 56.984375 17.96875 50.515625 8.265625 
Q 44.046875 -1.421875 31.78125 -1.421875 
Q 19.53125 -1.421875 13.0625 8.265625 
Q 6.59375 17.96875 6.59375 36.375 
Q 6.59375 54.828125 13.0625 64.515625 
Q 19.53125 74.21875 31.78125 74.21875 
z
" id="DejaVuSans-48"/>
     </defs>
     <use xlink:href="#DejaVuSans-72"/>
     <use x="75.195312" xlink:href="#DejaVuSans-48"/>
    </g>
   </g>
   <g id="text_2">
    <!-- H1 -->
    <g transform="translate(130.710378 30.905645)scale(0.14 -0.14)">
     <defs>
      <path d="M 12.40625 8.296875 
L 28.515625 8.296875 
L 28.515625 63.921875 
L 10.984375 60.40625 
L 10.984375 69.390625 
L 28.421875 72.90625 
L 38.28125 72.90625 
L 38.28125 8.296875 
L 54.390625 8.296875 
L 54.390625 0 
L 12.40625 0 
z
" id="DejaVuSans-49"/>
     </defs>
     <use xlink:href="#DejaVuSans-72"/>
     <use x="75.195312" xlink:href="#DejaVuSans-49"/>
    </g>
   </g>
   <g id="text_3">
    <!-- F -->
    <g transform="translate(193.095166 30.905645)scale(0.14 -0.14)">
     <defs>
      <path d="M 9.8125 72.90625 
L 51.703125 72.90625 
L 51.703125 64.59375 
L 19.671875 64.59375 
L 19.671875 43.109375 
L 48.578125 43.109375 
L 48.578125 34.8125 
L 19.671875 34.8125 
L 19.671875 0 
L 9.8125 0 
z
" id="DejaVuSans-70"/>
     </defs>
     <use xlink:href="#DejaVuSans-70"/>
    </g>
   </g>
   <g id="text_4">
    <!-- T -->
    <g transform="translate(249.538704 30.905645)scale(0.14 -0.14)">
     <defs>
      <path d="M -0.296875 72.90625 
L 61.375 72.90625 
L 61.375 64.59375 
L 35.5 64.59375 
L 35.5 0 
L 25.59375 0 
L 25.59375 64.59375 
L -0.296875 64.59375 
z
" id="DejaVuSans-84"/>
     </defs>
     <use xlink:href="#DejaVuSans-84"/>
    </g>
   </g>
  </g>
 </g>
 <defs>
  <clipPath id="p083a362bcc">
   <rect height="39.685039" width="266.456693" x="7.2" y="7.2"/>
  </clipPath>
 </defs>
</svg>
