<?xml version="1.0" encoding="utf-8" standalone="no"?>
<!DOCTYPE svg PUBLIC "-//W3C//DTD SVG 1.1//EN"
  "http://www.w3.org/Graphics/SVG/1.1/DTD/svg11.dtd">
<!-- Created with matplotlib (https://matplotlib.org/) -->
<svg height="167.470866pt" version="1.1" viewBox="0 0 224.16378 167.470866" width="224.16378pt" xmlns="http://www.w3.org/2000/svg" xmlns:xlink="http://www.w3.org/1999/xlink">
 <metadata>
  <rdf:RDF xmlns:cc="http://creativecommons.org/ns#" xmlns:dc="http://purl.org/dc/elements/1.1/" xmlns:rdf="http://www.w3.org/1999/02/22-rdf-syntax-ns#">
   <cc:Work>
    <dc:type rdf:resource="http://purl.org/dc/dcmitype/StillImage"/>
    <dc:date>2021-02-21T11:32:25.095813</dc:date>
    <dc:format>image/svg+xml</dc:format>
    <dc:creator>
     <cc:Agent>
      <dc:title>Matplotlib v3.3.3, https://matplotlib.org/</dc:title>
     </cc:Agent>
    </dc:creator>
   </cc:Work>
  </rdf:RDF>
 </metadata>
 <defs>
  <style type="text/css">*{stroke-linecap:butt;stroke-linejoin:round;}</style>
 </defs>
 <g id="figure_1">
  <g id="patch_1">
   <path d="M 0 167.470866 
L 224.16378 167.470866 
L 224.16378 -0 
L 0 -0 
z
" style="fill:#f0f0f0;"/>
  </g>
  <g id="axes_1">
   <g id="matplotlib.axis_1"/>
   <g id="matplotlib.axis_2"/>
   <g id="patch_2">
    <path clip-path="url(#pcd356ca6a3)" d="M 182.948031 27.04252 
L 175.861417 25.625197 
L 175.861417 27.04252 
L 41.215748 27.04252 
L 41.215748 27.04252 
L 175.861417 27.04252 
L 175.861417 28.459843 
z
" style="stroke:#000000;stroke-linejoin:miter;"/>
   </g>
   <g id="patch_3">
    <path clip-path="url(#pcd356ca6a3)" d="M 100.289051 75.873541 
L 95.178821 70.76331 
L 94.392632 71.942594 
L 38.835359 34.904412 
L 38.835359 34.904412 
L 94.392632 71.942594 
L 93.606442 73.121878 
z
" style="stroke:#000000;stroke-linejoin:miter;"/>
   </g>
   <g id="patch_4">
    <path clip-path="url(#pcd356ca6a3)" d="M 27.04252 126.255118 
L 28.459843 119.168504 
L 27.04252 119.168504 
L 27.04252 41.215748 
L 27.04252 41.215748 
L 27.04252 119.168504 
L 25.625197 119.168504 
z
" style="stroke:#000000;stroke-linejoin:miter;"/>
   </g>
   <g id="patch_5">
    <path clip-path="url(#pcd356ca6a3)" d="M 197.12126 126.255118 
L 198.538583 119.168504 
L 197.12126 119.168504 
L 197.12126 41.215748 
L 197.12126 41.215748 
L 197.12126 119.168504 
L 195.703937 119.168504 
z
" style="stroke:#000000;stroke-linejoin:miter;"/>
   </g>
   <g id="patch_6">
    <path clip-path="url(#pcd356ca6a3)" d="M 100.289051 91.597326 
L 93.606442 94.348988 
L 94.392632 95.528272 
L 38.835359 132.566454 
L 38.835359 132.566454 
L 94.392632 95.528272 
L 95.178821 96.707556 
z
" style="stroke:#000000;stroke-linejoin:miter;"/>
   </g>
   <g id="patch_7">
    <path clip-path="url(#pcd356ca6a3)" d="M 182.948031 140.428346 
L 175.861417 139.011024 
L 175.861417 140.428346 
L 41.215748 140.428346 
L 41.215748 140.428346 
L 175.861417 140.428346 
L 175.861417 141.845669 
z
" style="stroke:#000000;stroke-linejoin:miter;"/>
   </g>
   <g id="patch_8">
    <path clip-path="url(#pcd356ca6a3)" d="M 185.328421 132.566454 
L 180.218191 127.456224 
L 179.432002 128.635508 
L 123.874729 91.597326 
L 123.874729 91.597326 
L 179.432002 128.635508 
L 178.645812 129.814792 
z
" style="stroke:#000000;stroke-linejoin:miter;"/>
   </g>
   <g id="patch_9">
    <path clip-path="url(#pcd356ca6a3)" d="M 27.04252 12.869291 
C 30.801304 12.869291 34.406644 14.362672 37.064506 17.020534 
C 39.722367 19.678396 41.215748 23.283736 41.215748 27.04252 
C 41.215748 30.801304 39.722367 34.406644 37.064506 37.064506 
C 34.406644 39.722367 30.801304 41.215748 27.04252 41.215748 
C 23.283736 41.215748 19.678396 39.722367 17.020534 37.064506 
C 14.362672 34.406644 12.869291 30.801304 12.869291 27.04252 
C 12.869291 23.283736 14.362672 19.678396 17.020534 17.020534 
C 19.678396 14.362672 23.283736 12.869291 27.04252 12.869291 
z
" style="fill:none;stroke:#000000;stroke-linejoin:miter;"/>
   </g>
   <g id="patch_10">
    <path clip-path="url(#pcd356ca6a3)" d="M 197.12126 12.869291 
C 200.880044 12.869291 204.485384 14.362672 207.143246 17.020534 
C 209.801107 19.678396 211.294488 23.283736 211.294488 27.04252 
C 211.294488 30.801304 209.801107 34.406644 207.143246 37.064506 
C 204.485384 39.722367 200.880044 41.215748 197.12126 41.215748 
C 193.362476 41.215748 189.757136 39.722367 187.099274 37.064506 
C 184.441412 34.406644 182.948031 30.801304 182.948031 27.04252 
C 182.948031 23.283736 184.441412 19.678396 187.099274 17.020534 
C 189.757136 14.362672 193.362476 12.869291 197.12126 12.869291 
z
" style="fill:none;stroke:#000000;stroke-linejoin:miter;"/>
   </g>
   <g id="patch_11">
    <path clip-path="url(#pcd356ca6a3)" d="M 197.12126 126.255118 
C 200.880044 126.255118 204.485384 127.748499 207.143246 130.406361 
C 209.801107 133.064222 211.294488 136.669562 211.294488 140.428346 
C 211.294488 144.187131 209.801107 147.792471 207.143246 150.450332 
C 204.485384 153.108194 200.880044 154.601575 197.12126 154.601575 
C 193.362476 154.601575 189.757136 153.108194 187.099274 150.450332 
C 184.441412 147.792471 182.948031 144.187131 182.948031 140.428346 
C 182.948031 136.669562 184.441412 133.064222 187.099274 130.406361 
C 189.757136 127.748499 193.362476 126.255118 197.12126 126.255118 
z
" style="fill:none;stroke:#000000;stroke-linejoin:miter;"/>
   </g>
   <g id="patch_12">
    <path clip-path="url(#pcd356ca6a3)" d="M 27.04252 126.255118 
C 30.801304 126.255118 34.406644 127.748499 37.064506 130.406361 
C 39.722367 133.064222 41.215748 136.669562 41.215748 140.428346 
C 41.215748 144.187131 39.722367 147.792471 37.064506 150.450332 
C 34.406644 153.108194 30.801304 154.601575 27.04252 154.601575 
C 23.283736 154.601575 19.678396 153.108194 17.020534 150.450332 
C 14.362672 147.792471 12.869291 144.187131 12.869291 140.428346 
C 12.869291 136.669562 14.362672 133.064222 17.020534 130.406361 
C 19.678396 127.748499 23.283736 126.255118 27.04252 126.255118 
z
" style="fill:none;stroke:#000000;stroke-linejoin:miter;"/>
   </g>
   <g id="patch_13">
    <path clip-path="url(#pcd356ca6a3)" d="M 112.08189 69.562205 
C 115.840674 69.562205 119.446014 71.055585 122.103876 73.713447 
C 124.761737 76.371309 126.255118 79.976649 126.255118 83.735433 
C 126.255118 87.494217 124.761737 91.099557 122.103876 93.757419 
C 119.446014 96.415281 115.840674 97.908661 112.08189 97.908661 
C 108.323106 97.908661 104.717766 96.415281 102.059904 93.757419 
C 99.402042 91.099557 97.908661 87.494217 97.908661 83.735433 
C 97.908661 79.976649 99.402042 76.371309 102.059904 73.713447 
C 104.717766 71.055585 108.323106 69.562205 112.08189 69.562205 
z
" style="fill:none;stroke:#000000;stroke-linejoin:miter;"/>
   </g>
   <g id="text_1">
    <!-- S -->
    <g transform="translate(22.598613 30.905645)scale(0.14 -0.14)">
     <defs>
      <path d="M 53.515625 70.515625 
L 53.515625 60.890625 
Q 47.90625 63.578125 42.921875 64.890625 
Q 37.9375 66.21875 33.296875 66.21875 
Q 25.25 66.21875 20.875 63.09375 
Q 16.5 59.96875 16.5 54.203125 
Q 16.5 49.359375 19.40625 46.890625 
Q 22.3125 44.4375 30.421875 42.921875 
L 36.375 41.703125 
Q 47.40625 39.59375 52.65625 34.296875 
Q 57.90625 29 57.90625 20.125 
Q 57.90625 9.515625 50.796875 4.046875 
Q 43.703125 -1.421875 29.984375 -1.421875 
Q 24.8125 -1.421875 18.96875 -0.25 
Q 13.140625 0.921875 6.890625 3.21875 
L 6.890625 13.375 
Q 12.890625 10.015625 18.65625 8.296875 
Q 24.421875 6.59375 29.984375 6.59375 
Q 38.421875 6.59375 43.015625 9.90625 
Q 47.609375 13.234375 47.609375 19.390625 
Q 47.609375 24.75 44.3125 27.78125 
Q 41.015625 30.8125 33.5 32.328125 
L 27.484375 33.5 
Q 16.453125 35.6875 11.515625 40.375 
Q 6.59375 45.0625 6.59375 53.421875 
Q 6.59375 63.09375 13.40625 68.65625 
Q 20.21875 74.21875 32.171875 74.21875 
Q 37.3125 74.21875 42.625 73.28125 
Q 47.953125 72.359375 53.515625 70.515625 
z
" id="DejaVuSans-83"/>
     </defs>
     <use xlink:href="#DejaVuSans-83"/>
    </g>
   </g>
   <g id="text_2">
    <!-- W -->
    <g transform="translate(190.20001 30.905645)scale(0.14 -0.14)">
     <defs>
      <path d="M 3.328125 72.90625 
L 13.28125 72.90625 
L 28.609375 11.28125 
L 43.890625 72.90625 
L 54.984375 72.90625 
L 70.3125 11.28125 
L 85.59375 72.90625 
L 95.609375 72.90625 
L 77.296875 0 
L 64.890625 0 
L 49.515625 63.28125 
L 33.984375 0 
L 21.578125 0 
z
" id="DejaVuSans-87"/>
     </defs>
     <use xlink:href="#DejaVuSans-87"/>
    </g>
   </g>
   <g id="text_3">
    <!-- D -->
    <g transform="translate(191.73126 144.291471)scale(0.14 -0.14)">
     <defs>
      <path d="M 19.671875 64.796875 
L 19.671875 8.109375 
L 31.59375 8.109375 
Q 46.6875 8.109375 53.6875 14.9375 
Q 60.6875 21.78125 60.6875 36.53125 
Q 60.6875 51.171875 53.6875 57.984375 
Q 46.6875 64.796875 31.59375 64.796875 
z
M 9.8125 72.90625 
L 30.078125 72.90625 
Q 51.265625 72.90625 61.171875 64.09375 
Q 71.09375 55.28125 71.09375 36.53125 
Q 71.09375 17.671875 61.125 8.828125 
Q 51.171875 0 30.078125 0 
L 9.8125 0 
z
" id="DejaVuSans-68"/>
     </defs>
     <use xlink:href="#DejaVuSans-68"/>
    </g>
   </g>
   <g id="text_4">
    <!-- A -->
    <g transform="translate(22.254082 144.291471)scale(0.14 -0.14)">
     <defs>
      <path d="M 34.1875 63.1875 
L 20.796875 26.90625 
L 47.609375 26.90625 
z
M 28.609375 72.90625 
L 39.796875 72.90625 
L 67.578125 0 
L 57.328125 0 
L 50.6875 18.703125 
L 17.828125 18.703125 
L 11.1875 0 
L 0.78125 0 
z
" id="DejaVuSans-65"/>
     </defs>
     <use xlink:href="#DejaVuSans-65"/>
    </g>
   </g>
   <g id="text_5">
    <!-- M -->
    <g transform="translate(106.042202 87.598558)scale(0.14 -0.14)">
     <defs>
      <path d="M 9.8125 72.90625 
L 24.515625 72.90625 
L 43.109375 23.296875 
L 61.8125 72.90625 
L 76.515625 72.90625 
L 76.515625 0 
L 66.890625 0 
L 66.890625 64.015625 
L 48.09375 14.015625 
L 38.1875 14.015625 
L 19.390625 64.015625 
L 19.390625 0 
L 9.8125 0 
z
" id="DejaVuSans-77"/>
     </defs>
     <use xlink:href="#DejaVuSans-77"/>
    </g>
   </g>
  </g>
 </g>
 <defs>
  <clipPath id="pcd356ca6a3">
   <rect height="153.070866" width="209.76378" x="7.2" y="7.2"/>
  </clipPath>
 </defs>
</svg>
