<?xml version="1.0" encoding="utf-8" standalone="no"?>
<!DOCTYPE svg PUBLIC "-//W3C//DTD SVG 1.1//EN"
  "http://www.w3.org/Graphics/SVG/1.1/DTD/svg11.dtd">
<!-- Created with matplotlib (https://matplotlib.org/) -->
<svg height="110.777953pt" version="1.1" viewBox="0 0 167.470866 110.777953" width="167.470866pt" xmlns="http://www.w3.org/2000/svg" xmlns:xlink="http://www.w3.org/1999/xlink">
 <metadata>
  <rdf:RDF xmlns:cc="http://creativecommons.org/ns#" xmlns:dc="http://purl.org/dc/elements/1.1/" xmlns:rdf="http://www.w3.org/1999/02/22-rdf-syntax-ns#">
   <cc:Work>
    <dc:type rdf:resource="http://purl.org/dc/dcmitype/StillImage"/>
    <dc:date>2021-02-18T14:51:29.125384</dc:date>
    <dc:format>image/svg+xml</dc:format>
    <dc:creator>
     <cc:Agent>
      <dc:title>Matplotlib v3.3.3, https://matplotlib.org/</dc:title>
     </cc:Agent>
    </dc:creator>
   </cc:Work>
  </rdf:RDF>
 </metadata>
 <defs>
  <style type="text/css">*{stroke-linecap:butt;stroke-linejoin:round;}</style>
 </defs>
 <g id="figure_1">
  <g id="patch_1">
   <path d="M 0 110.777953 
L 167.470866 110.777953 
L 167.470866 0 
L 0 0 
z
" style="fill:#f0f0f0;"/>
  </g>
  <g id="axes_1">
   <g id="matplotlib.axis_1"/>
   <g id="matplotlib.axis_2"/>
   <g id="patch_2">
    <path clip-path="url(#pf45485dba2)" d="M 73.713447 73.713447 
L 69.704653 67.700256 
L 68.702454 68.702454 
L 37.064506 37.064506 
L 37.064506 37.064506 
L 68.702454 68.702454 
L 67.700256 69.704653 
z
" style="stroke:#000000;stroke-linejoin:miter;"/>
   </g>
   <g id="patch_3">
    <path clip-path="url(#pf45485dba2)" d="M 41.215748 27.04252 
L 48.302362 28.459843 
L 48.302362 27.04252 
L 81.373228 27.04252 
L 81.373228 27.04252 
L 48.302362 27.04252 
L 48.302362 25.625197 
z
" style="stroke:#000000;stroke-linejoin:miter;"/>
   </g>
   <g id="patch_4">
    <path clip-path="url(#pf45485dba2)" d="M 126.255118 27.04252 
L 119.168504 25.625197 
L 119.168504 27.04252 
L 86.097638 27.04252 
L 86.097638 27.04252 
L 119.168504 27.04252 
L 119.168504 28.459843 
z
" style="stroke:#000000;stroke-linejoin:miter;"/>
   </g>
   <g id="patch_5">
    <path clip-path="url(#pf45485dba2)" d="M 93.757419 73.713447 
L 99.77061 69.704653 
L 98.768412 68.702454 
L 130.406361 37.064506 
L 130.406361 37.064506 
L 98.768412 68.702454 
L 97.766213 67.700256 
z
" style="stroke:#000000;stroke-linejoin:miter;"/>
   </g>
   <g id="patch_6">
    <path clip-path="url(#pf45485dba2)" d="M 27.04252 12.869291 
C 30.801304 12.869291 34.406644 14.362672 37.064506 17.020534 
C 39.722367 19.678396 41.215748 23.283736 41.215748 27.04252 
C 41.215748 30.801304 39.722367 34.406644 37.064506 37.064506 
C 34.406644 39.722367 30.801304 41.215748 27.04252 41.215748 
C 23.283736 41.215748 19.678396 39.722367 17.020534 37.064506 
C 14.362672 34.406644 12.869291 30.801304 12.869291 27.04252 
C 12.869291 23.283736 14.362672 19.678396 17.020534 17.020534 
C 19.678396 14.362672 23.283736 12.869291 27.04252 12.869291 
z
" style="fill:none;stroke:#000000;stroke-linejoin:miter;"/>
   </g>
   <g id="patch_7">
    <path clip-path="url(#pf45485dba2)" d="M 83.735433 24.680315 
C 84.361897 24.680315 84.962787 24.929212 85.405764 25.372189 
C 85.848741 25.815166 86.097638 26.416056 86.097638 27.04252 
C 86.097638 27.668984 85.848741 28.269874 85.405764 28.712851 
C 84.962787 29.155828 84.361897 29.404724 83.735433 29.404724 
C 83.108969 29.404724 82.508079 29.155828 82.065102 28.712851 
C 81.622125 28.269874 81.373228 27.668984 81.373228 27.04252 
C 81.373228 26.416056 81.622125 25.815166 82.065102 25.372189 
C 82.508079 24.929212 83.108969 24.680315 83.735433 24.680315 
z
" style="stroke:#000000;stroke-linejoin:miter;"/>
   </g>
   <g id="patch_8">
    <path clip-path="url(#pf45485dba2)" d="M 140.428346 12.869291 
C 144.187131 12.869291 147.792471 14.362672 150.450332 17.020534 
C 153.108194 19.678396 154.601575 23.283736 154.601575 27.04252 
C 154.601575 30.801304 153.108194 34.406644 150.450332 37.064506 
C 147.792471 39.722367 144.187131 41.215748 140.428346 41.215748 
C 136.669562 41.215748 133.064222 39.722367 130.406361 37.064506 
C 127.748499 34.406644 126.255118 30.801304 126.255118 27.04252 
C 126.255118 23.283736 127.748499 19.678396 130.406361 17.020534 
C 133.064222 14.362672 136.669562 12.869291 140.428346 12.869291 
z
" style="fill:none;stroke:#000000;stroke-linejoin:miter;"/>
   </g>
   <g id="patch_9">
    <path clip-path="url(#pf45485dba2)" d="M 83.735433 69.562205 
C 87.494217 69.562205 91.099557 71.055585 93.757419 73.713447 
C 96.415281 76.371309 97.908661 79.976649 97.908661 83.735433 
C 97.908661 87.494217 96.415281 91.099557 93.757419 93.757419 
C 91.099557 96.415281 87.494217 97.908661 83.735433 97.908661 
C 79.976649 97.908661 76.371309 96.415281 73.713447 93.757419 
C 71.055585 91.099557 69.562205 87.494217 69.562205 83.735433 
C 69.562205 79.976649 71.055585 76.371309 73.713447 73.713447 
C 76.371309 71.055585 79.976649 69.562205 83.735433 69.562205 
z
" style="fill:none;stroke:#000000;stroke-linejoin:miter;"/>
   </g>
   <g id="text_1">
    <!-- L -->
    <g transform="translate(23.142207 30.905645)scale(0.14 -0.14)">
     <defs>
      <path d="M 9.8125 72.90625 
L 19.671875 72.90625 
L 19.671875 8.296875 
L 55.171875 8.296875 
L 55.171875 0 
L 9.8125 0 
z
" id="DejaVuSans-76"/>
     </defs>
     <use xlink:href="#DejaVuSans-76"/>
    </g>
   </g>
   <g id="text_2">
    <!-- D -->
    <g transform="translate(78.345433 21.54252)scale(0.14 -0.14)">
     <defs>
      <path d="M 19.671875 64.796875 
L 19.671875 8.109375 
L 31.59375 8.109375 
Q 46.6875 8.109375 53.6875 14.9375 
Q 60.6875 21.78125 60.6875 36.53125 
Q 60.6875 51.171875 53.6875 57.984375 
Q 46.6875 64.796875 31.59375 64.796875 
z
M 9.8125 72.90625 
L 30.078125 72.90625 
Q 51.265625 72.90625 61.171875 64.09375 
Q 71.09375 55.28125 71.09375 36.53125 
Q 71.09375 17.671875 61.125 8.828125 
Q 51.171875 0 30.078125 0 
L 9.8125 0 
z
" id="DejaVuSans-68"/>
     </defs>
     <use xlink:href="#DejaVuSans-68"/>
    </g>
   </g>
   <g id="text_3">
    <!-- F -->
    <g transform="translate(136.402253 30.905645)scale(0.14 -0.14)">
     <defs>
      <path d="M 9.8125 72.90625 
L 51.703125 72.90625 
L 51.703125 64.59375 
L 19.671875 64.59375 
L 19.671875 43.109375 
L 48.578125 43.109375 
L 48.578125 34.8125 
L 19.671875 34.8125 
L 19.671875 0 
L 9.8125 0 
z
" id="DejaVuSans-70"/>
     </defs>
     <use xlink:href="#DejaVuSans-70"/>
    </g>
   </g>
   <g id="text_4">
    <!-- K -->
    <g transform="translate(79.144964 87.598558)scale(0.14 -0.14)">
     <defs>
      <path d="M 9.8125 72.90625 
L 19.671875 72.90625 
L 19.671875 42.09375 
L 52.390625 72.90625 
L 65.09375 72.90625 
L 28.90625 38.921875 
L 67.671875 0 
L 54.6875 0 
L 19.671875 35.109375 
L 19.671875 0 
L 9.8125 0 
z
" id="DejaVuSans-75"/>
     </defs>
     <use xlink:href="#DejaVuSans-75"/>
    </g>
   </g>
  </g>
 </g>
 <defs>
  <clipPath id="pf45485dba2">
   <rect height="96.377953" width="153.070866" x="7.2" y="7.2"/>
  </clipPath>
 </defs>
</svg>
