<?xml version="1.0" encoding="utf-8" standalone="no"?>
<!DOCTYPE svg PUBLIC "-//W3C//DTD SVG 1.1//EN"
  "http://www.w3.org/Graphics/SVG/1.1/DTD/svg11.dtd">
<!-- Created with matplotlib (https://matplotlib.org/) -->
<svg height="224.16378pt" version="1.1" viewBox="0 0 280.856693 224.16378" width="280.856693pt" xmlns="http://www.w3.org/2000/svg" xmlns:xlink="http://www.w3.org/1999/xlink">
 <metadata>
  <rdf:RDF xmlns:cc="http://creativecommons.org/ns#" xmlns:dc="http://purl.org/dc/elements/1.1/" xmlns:rdf="http://www.w3.org/1999/02/22-rdf-syntax-ns#">
   <cc:Work>
    <dc:type rdf:resource="http://purl.org/dc/dcmitype/StillImage"/>
    <dc:date>2021-02-20T22:08:15.500940</dc:date>
    <dc:format>image/svg+xml</dc:format>
    <dc:creator>
     <cc:Agent>
      <dc:title>Matplotlib v3.3.3, https://matplotlib.org/</dc:title>
     </cc:Agent>
    </dc:creator>
   </cc:Work>
  </rdf:RDF>
 </metadata>
 <defs>
  <style type="text/css">*{stroke-linecap:butt;stroke-linejoin:round;}</style>
 </defs>
 <g id="figure_1">
  <g id="patch_1">
   <path d="M 0 224.16378 
L 280.856693 224.16378 
L 280.856693 0 
L 0 0 
z
" style="fill:#f0f0f0;"/>
  </g>
  <g id="axes_1">
   <g id="matplotlib.axis_1"/>
   <g id="matplotlib.axis_2"/>
   <g id="patch_2">
    <path clip-path="url(#p5f29bd2c38)" d="M 241.137252 77.396973 
L 235.432638 72.96005 
L 234.798792 74.227742 
L 153.105267 33.38098 
L 153.105267 33.38098 
L 234.798792 74.227742 
L 234.164946 75.495435 
z
" style="stroke:#000000;stroke-linejoin:miter;"/>
   </g>
   <g id="patch_3">
    <path clip-path="url(#p5f29bd2c38)" d="M 29.15534 82.679023 
L 36.127646 80.777485 
L 35.4938 79.509793 
L 127.751426 33.38098 
L 127.751426 33.38098 
L 35.4938 79.509793 
L 34.859954 78.242101 
z
" style="stroke:#000000;stroke-linejoin:miter;"/>
   </g>
   <g id="patch_4">
    <path clip-path="url(#p5f29bd2c38)" d="M 153.105267 134.089886 
L 160.077574 132.188348 
L 159.443728 130.920656 
L 241.137252 90.073893 
L 241.137252 90.073893 
L 159.443728 130.920656 
L 158.809882 129.652964 
z
" style="stroke:#000000;stroke-linejoin:miter;"/>
   </g>
   <g id="patch_5">
    <path clip-path="url(#p5f29bd2c38)" d="M 253.814173 182.948031 
L 255.231496 175.861417 
L 253.814173 175.861417 
L 253.814173 97.908661 
L 253.814173 97.908661 
L 253.814173 175.861417 
L 252.39685 175.861417 
z
" style="stroke:#000000;stroke-linejoin:miter;"/>
   </g>
   <g id="patch_6">
    <path clip-path="url(#p5f29bd2c38)" d="M 239.640945 197.12126 
L 232.554331 195.703937 
L 232.554331 197.12126 
L 41.215748 197.12126 
L 41.215748 197.12126 
L 232.554331 197.12126 
L 232.554331 198.538583 
z
" style="stroke:#000000;stroke-linejoin:miter;"/>
   </g>
   <g id="patch_7">
    <path clip-path="url(#p5f29bd2c38)" d="M 127.751426 134.089886 
L 122.046811 129.652964 
L 121.412965 130.920656 
L 29.15534 84.791843 
L 29.15534 84.791843 
L 121.412965 130.920656 
L 120.779119 132.188348 
z
" style="stroke:#000000;stroke-linejoin:miter;"/>
   </g>
   <g id="patch_8">
    <path clip-path="url(#p5f29bd2c38)" d="M 27.04252 182.948031 
L 28.459843 175.861417 
L 27.04252 175.861417 
L 27.04252 86.097638 
L 27.04252 86.097638 
L 27.04252 175.861417 
L 25.625197 175.861417 
z
" style="stroke:#000000;stroke-linejoin:miter;"/>
   </g>
   <g id="patch_9">
    <path clip-path="url(#p5f29bd2c38)" d="M 140.428346 12.869291 
C 144.187131 12.869291 147.792471 14.362672 150.450332 17.020534 
C 153.108194 19.678396 154.601575 23.283736 154.601575 27.04252 
C 154.601575 30.801304 153.108194 34.406644 150.450332 37.064506 
C 147.792471 39.722367 144.187131 41.215748 140.428346 41.215748 
C 136.669562 41.215748 133.064222 39.722367 130.406361 37.064506 
C 127.748499 34.406644 126.255118 30.801304 126.255118 27.04252 
C 126.255118 23.283736 127.748499 19.678396 130.406361 17.020534 
C 133.064222 14.362672 136.669562 12.869291 140.428346 12.869291 
z
" style="fill:none;stroke:#000000;stroke-linejoin:miter;"/>
   </g>
   <g id="patch_10">
    <path clip-path="url(#p5f29bd2c38)" d="M 140.428346 126.255118 
C 144.187131 126.255118 147.792471 127.748499 150.450332 130.406361 
C 153.108194 133.064222 154.601575 136.669562 154.601575 140.428346 
C 154.601575 144.187131 153.108194 147.792471 150.450332 150.450332 
C 147.792471 153.108194 144.187131 154.601575 140.428346 154.601575 
C 136.669562 154.601575 133.064222 153.108194 130.406361 150.450332 
C 127.748499 147.792471 126.255118 144.187131 126.255118 140.428346 
C 126.255118 136.669562 127.748499 133.064222 130.406361 130.406361 
C 133.064222 127.748499 136.669562 126.255118 140.428346 126.255118 
z
" style="fill:none;stroke:#000000;stroke-linejoin:miter;"/>
   </g>
   <g id="patch_11">
    <path clip-path="url(#p5f29bd2c38)" d="M 253.814173 69.562205 
C 257.572957 69.562205 261.178297 71.055585 263.836159 73.713447 
C 266.494021 76.371309 267.987402 79.976649 267.987402 83.735433 
C 267.987402 87.494217 266.494021 91.099557 263.836159 93.757419 
C 261.178297 96.415281 257.572957 97.908661 253.814173 97.908661 
C 250.055389 97.908661 246.450049 96.415281 243.792187 93.757419 
C 241.134326 91.099557 239.640945 87.494217 239.640945 83.735433 
C 239.640945 79.976649 241.134326 76.371309 243.792187 73.713447 
C 246.450049 71.055585 250.055389 69.562205 253.814173 69.562205 
z
" style="fill:none;stroke:#000000;stroke-linejoin:miter;"/>
   </g>
   <g id="patch_12">
    <path clip-path="url(#p5f29bd2c38)" d="M 27.04252 182.948031 
C 30.801304 182.948031 34.406644 184.441412 37.064506 187.099274 
C 39.722367 189.757136 41.215748 193.362476 41.215748 197.12126 
C 41.215748 200.880044 39.722367 204.485384 37.064506 207.143246 
C 34.406644 209.801107 30.801304 211.294488 27.04252 211.294488 
C 23.283736 211.294488 19.678396 209.801107 17.020534 207.143246 
C 14.362672 204.485384 12.869291 200.880044 12.869291 197.12126 
C 12.869291 193.362476 14.362672 189.757136 17.020534 187.099274 
C 19.678396 184.441412 23.283736 182.948031 27.04252 182.948031 
z
" style="fill:none;stroke:#000000;stroke-linejoin:miter;"/>
   </g>
   <g id="patch_13">
    <path clip-path="url(#p5f29bd2c38)" d="M 253.814173 182.948031 
C 257.572957 182.948031 261.178297 184.441412 263.836159 187.099274 
C 266.494021 189.757136 267.987402 193.362476 267.987402 197.12126 
C 267.987402 200.880044 266.494021 204.485384 263.836159 207.143246 
C 261.178297 209.801107 257.572957 211.294488 253.814173 211.294488 
C 250.055389 211.294488 246.450049 209.801107 243.792187 207.143246 
C 241.134326 204.485384 239.640945 200.880044 239.640945 197.12126 
C 239.640945 193.362476 241.134326 189.757136 243.792187 187.099274 
C 246.450049 184.441412 250.055389 182.948031 253.814173 182.948031 
z
" style="fill:none;stroke:#000000;stroke-linejoin:miter;"/>
   </g>
   <g id="patch_14">
    <path clip-path="url(#p5f29bd2c38)" d="M 27.04252 81.373228 
C 27.668984 81.373228 28.269874 81.622125 28.712851 82.065102 
C 29.155828 82.508079 29.404724 83.108969 29.404724 83.735433 
C 29.404724 84.361897 29.155828 84.962787 28.712851 85.405764 
C 28.269874 85.848741 27.668984 86.097638 27.04252 86.097638 
C 26.416056 86.097638 25.815166 85.848741 25.372189 85.405764 
C 24.929212 84.962787 24.680315 84.361897 24.680315 83.735433 
C 24.680315 83.108969 24.929212 82.508079 25.372189 82.065102 
C 25.815166 81.622125 26.416056 81.373228 27.04252 81.373228 
z
" style="stroke:#000000;stroke-linejoin:miter;"/>
   </g>
   <g id="text_1">
    <!-- A -->
    <g transform="translate(135.639909 30.905645)scale(0.14 -0.14)">
     <defs>
      <path d="M 34.1875 63.1875 
L 20.796875 26.90625 
L 47.609375 26.90625 
z
M 28.609375 72.90625 
L 39.796875 72.90625 
L 67.578125 0 
L 57.328125 0 
L 50.6875 18.703125 
L 17.828125 18.703125 
L 11.1875 0 
L 0.78125 0 
z
" id="DejaVuSans-65"/>
     </defs>
     <use xlink:href="#DejaVuSans-65"/>
    </g>
   </g>
   <g id="text_2">
    <!-- B -->
    <g transform="translate(135.62569 144.291471)scale(0.14 -0.14)">
     <defs>
      <path d="M 19.671875 34.8125 
L 19.671875 8.109375 
L 35.5 8.109375 
Q 43.453125 8.109375 47.28125 11.40625 
Q 51.125 14.703125 51.125 21.484375 
Q 51.125 28.328125 47.28125 31.5625 
Q 43.453125 34.8125 35.5 34.8125 
z
M 19.671875 64.796875 
L 19.671875 42.828125 
L 34.28125 42.828125 
Q 41.5 42.828125 45.03125 45.53125 
Q 48.578125 48.25 48.578125 53.8125 
Q 48.578125 59.328125 45.03125 62.0625 
Q 41.5 64.796875 34.28125 64.796875 
z
M 9.8125 72.90625 
L 35.015625 72.90625 
Q 46.296875 72.90625 52.390625 68.21875 
Q 58.5 63.53125 58.5 54.890625 
Q 58.5 48.1875 55.375 44.234375 
Q 52.25 40.28125 46.1875 39.3125 
Q 53.46875 37.75 57.5 32.78125 
Q 61.53125 27.828125 61.53125 20.40625 
Q 61.53125 10.640625 54.890625 5.3125 
Q 48.25 0 35.984375 0 
L 9.8125 0 
z
" id="DejaVuSans-66"/>
     </defs>
     <use xlink:href="#DejaVuSans-66"/>
    </g>
   </g>
   <g id="text_3">
    <!-- C -->
    <g transform="translate(248.926204 87.598558)scale(0.14 -0.14)">
     <defs>
      <path d="M 64.40625 67.28125 
L 64.40625 56.890625 
Q 59.421875 61.53125 53.78125 63.8125 
Q 48.140625 66.109375 41.796875 66.109375 
Q 29.296875 66.109375 22.65625 58.46875 
Q 16.015625 50.828125 16.015625 36.375 
Q 16.015625 21.96875 22.65625 14.328125 
Q 29.296875 6.6875 41.796875 6.6875 
Q 48.140625 6.6875 53.78125 8.984375 
Q 59.421875 11.28125 64.40625 15.921875 
L 64.40625 5.609375 
Q 59.234375 2.09375 53.4375 0.328125 
Q 47.65625 -1.421875 41.21875 -1.421875 
Q 24.65625 -1.421875 15.125 8.703125 
Q 5.609375 18.84375 5.609375 36.375 
Q 5.609375 53.953125 15.125 64.078125 
Q 24.65625 74.21875 41.21875 74.21875 
Q 47.75 74.21875 53.53125 72.484375 
Q 59.328125 70.75 64.40625 67.28125 
z
" id="DejaVuSans-67"/>
     </defs>
     <use xlink:href="#DejaVuSans-67"/>
    </g>
   </g>
   <g id="text_4">
    <!-- X -->
    <g transform="translate(22.24752 200.984385)scale(0.14 -0.14)">
     <defs>
      <path d="M 6.296875 72.90625 
L 16.890625 72.90625 
L 35.015625 45.796875 
L 53.21875 72.90625 
L 63.8125 72.90625 
L 40.375 37.890625 
L 65.375 0 
L 54.78125 0 
L 34.28125 31 
L 13.625 0 
L 2.984375 0 
L 29 38.921875 
z
" id="DejaVuSans-88"/>
     </defs>
     <use xlink:href="#DejaVuSans-88"/>
    </g>
   </g>
   <g id="text_5">
    <!-- Y -->
    <g transform="translate(249.538704 200.984385)scale(0.14 -0.14)">
     <defs>
      <path d="M -0.203125 72.90625 
L 10.40625 72.90625 
L 30.609375 42.921875 
L 50.6875 72.90625 
L 61.28125 72.90625 
L 35.5 34.71875 
L 35.5 0 
L 25.59375 0 
L 25.59375 34.71875 
z
" id="DejaVuSans-89"/>
     </defs>
     <use xlink:href="#DejaVuSans-89"/>
    </g>
   </g>
   <g id="text_6">
    <!-- U -->
    <g transform="translate(21.919395 78.235433)scale(0.14 -0.14)">
     <defs>
      <path d="M 8.6875 72.90625 
L 18.609375 72.90625 
L 18.609375 28.609375 
Q 18.609375 16.890625 22.84375 11.734375 
Q 27.09375 6.59375 36.625 6.59375 
Q 46.09375 6.59375 50.34375 11.734375 
Q 54.59375 16.890625 54.59375 28.609375 
L 54.59375 72.90625 
L 64.5 72.90625 
L 64.5 27.390625 
Q 64.5 13.140625 57.4375 5.859375 
Q 50.390625 -1.421875 36.625 -1.421875 
Q 22.796875 -1.421875 15.734375 5.859375 
Q 8.6875 13.140625 8.6875 27.390625 
z
" id="DejaVuSans-85"/>
     </defs>
     <use xlink:href="#DejaVuSans-85"/>
    </g>
   </g>
  </g>
 </g>
 <defs>
  <clipPath id="p5f29bd2c38">
   <rect height="209.76378" width="266.456693" x="7.2" y="7.2"/>
  </clipPath>
 </defs>
</svg>
