<?xml version="1.0" encoding="utf-8" standalone="no"?>
<!DOCTYPE svg PUBLIC "-//W3C//DTD SVG 1.1//EN"
  "http://www.w3.org/Graphics/SVG/1.1/DTD/svg11.dtd">
<!-- Created with matplotlib (https://matplotlib.org/) -->
<svg height="224.16378pt" version="1.1" viewBox="0 0 337.549606 224.16378" width="337.549606pt" xmlns="http://www.w3.org/2000/svg" xmlns:xlink="http://www.w3.org/1999/xlink">
 <metadata>
  <rdf:RDF xmlns:cc="http://creativecommons.org/ns#" xmlns:dc="http://purl.org/dc/elements/1.1/" xmlns:rdf="http://www.w3.org/1999/02/22-rdf-syntax-ns#">
   <cc:Work>
    <dc:type rdf:resource="http://purl.org/dc/dcmitype/StillImage"/>
    <dc:date>2021-02-21T12:37:59.965561</dc:date>
    <dc:format>image/svg+xml</dc:format>
    <dc:creator>
     <cc:Agent>
      <dc:title>Matplotlib v3.3.3, https://matplotlib.org/</dc:title>
     </cc:Agent>
    </dc:creator>
   </cc:Work>
  </rdf:RDF>
 </metadata>
 <defs>
  <style type="text/css">*{stroke-linecap:butt;stroke-linejoin:round;}</style>
 </defs>
 <g id="figure_1">
  <g id="patch_1">
   <path d="M 0 224.16378 
L 337.549606 224.16378 
L 337.549606 0 
L 0 0 
z
" style="fill:#f0f0f0;"/>
  </g>
  <g id="axes_1">
   <g id="matplotlib.axis_1"/>
   <g id="matplotlib.axis_2"/>
   <g id="patch_2">
    <path clip-path="url(#p75b2e197a0)" d="M 126.255118 83.735433 
L 119.168504 82.31811 
L 119.168504 83.735433 
L 41.215748 83.735433 
L 41.215748 83.735433 
L 119.168504 83.735433 
L 119.168504 85.152756 
z
" style="stroke:#000000;stroke-linejoin:miter;"/>
   </g>
   <g id="patch_3">
    <path clip-path="url(#p75b2e197a0)" d="M 37.064506 73.713447 
L 43.077697 69.704653 
L 42.075498 68.702454 
L 73.713447 37.064506 
L 73.713447 37.064506 
L 42.075498 68.702454 
L 41.0733 67.700256 
z
" style="stroke:#000000;stroke-linejoin:miter;"/>
   </g>
   <g id="patch_4">
    <path clip-path="url(#p75b2e197a0)" d="M 130.406361 73.713447 
L 126.397566 67.700256 
L 125.395368 68.702454 
L 93.757419 37.064506 
L 93.757419 37.064506 
L 125.395368 68.702454 
L 124.393169 69.704653 
z
" style="stroke:#000000;stroke-linejoin:miter;"/>
   </g>
   <g id="patch_5">
    <path clip-path="url(#p75b2e197a0)" d="M 97.908661 27.04252 
L 104.995276 28.459843 
L 104.995276 27.04252 
L 126.255118 27.04252 
L 126.255118 27.04252 
L 104.995276 27.04252 
L 104.995276 25.625197 
z
" style="stroke:#000000;stroke-linejoin:miter;"/>
   </g>
   <g id="patch_6">
    <path clip-path="url(#p75b2e197a0)" d="M 140.428346 69.562205 
L 141.845669 62.475591 
L 140.428346 62.475591 
L 140.428346 41.215748 
L 140.428346 41.215748 
L 140.428346 62.475591 
L 139.011024 62.475591 
z
" style="stroke:#000000;stroke-linejoin:miter;"/>
   </g>
   <g id="patch_7">
    <path clip-path="url(#p75b2e197a0)" d="M 243.792187 37.064506 
L 237.778996 41.0733 
L 238.781194 42.075498 
L 207.143246 73.713447 
L 207.143246 73.713447 
L 238.781194 42.075498 
L 239.783393 43.077697 
z
" style="stroke:#000000;stroke-linejoin:miter;"/>
   </g>
   <g id="patch_8">
    <path clip-path="url(#p75b2e197a0)" d="M 296.333858 83.735433 
L 289.247244 82.31811 
L 289.247244 83.735433 
L 211.294488 83.735433 
L 211.294488 83.735433 
L 289.247244 83.735433 
L 289.247244 85.152756 
z
" style="stroke:#000000;stroke-linejoin:miter;"/>
   </g>
   <g id="patch_9">
    <path clip-path="url(#p75b2e197a0)" d="M 300.485101 73.713447 
L 296.476306 67.700256 
L 295.474108 68.702454 
L 263.836159 37.064506 
L 263.836159 37.064506 
L 295.474108 68.702454 
L 294.471909 69.704653 
z
" style="stroke:#000000;stroke-linejoin:miter;"/>
   </g>
   <g id="patch_10">
    <path clip-path="url(#p75b2e197a0)" d="M 267.987402 27.04252 
L 275.074016 28.459843 
L 275.074016 27.04252 
L 296.333858 27.04252 
L 296.333858 27.04252 
L 275.074016 27.04252 
L 275.074016 25.625197 
z
" style="stroke:#000000;stroke-linejoin:miter;"/>
   </g>
   <g id="patch_11">
    <path clip-path="url(#p75b2e197a0)" d="M 310.507087 69.562205 
L 311.924409 62.475591 
L 310.507087 62.475591 
L 310.507087 41.215748 
L 310.507087 41.215748 
L 310.507087 62.475591 
L 309.089764 62.475591 
z
" style="stroke:#000000;stroke-linejoin:miter;"/>
   </g>
   <g id="patch_12">
    <path clip-path="url(#p75b2e197a0)" d="M 73.713447 150.450332 
L 67.700256 154.459127 
L 68.702454 155.461325 
L 37.064506 187.099274 
L 37.064506 187.099274 
L 68.702454 155.461325 
L 69.704653 156.463524 
z
" style="stroke:#000000;stroke-linejoin:miter;"/>
   </g>
   <g id="patch_13">
    <path clip-path="url(#p75b2e197a0)" d="M 126.255118 197.12126 
L 119.168504 195.703937 
L 119.168504 197.12126 
L 41.215748 197.12126 
L 41.215748 197.12126 
L 119.168504 197.12126 
L 119.168504 198.538583 
z
" style="stroke:#000000;stroke-linejoin:miter;"/>
   </g>
   <g id="patch_14">
    <path clip-path="url(#p75b2e197a0)" d="M 93.757419 150.450332 
L 97.766213 156.463524 
L 98.768412 155.461325 
L 130.406361 187.099274 
L 130.406361 187.099274 
L 98.768412 155.461325 
L 99.77061 154.459127 
z
" style="stroke:#000000;stroke-linejoin:miter;"/>
   </g>
   <g id="patch_15">
    <path clip-path="url(#p75b2e197a0)" d="M 69.562205 140.428346 
L 62.475591 139.011024 
L 62.475591 140.428346 
L 41.215748 140.428346 
L 41.215748 140.428346 
L 62.475591 140.428346 
L 62.475591 141.845669 
z
" style="stroke:#000000;stroke-linejoin:miter;"/>
   </g>
   <g id="patch_16">
    <path clip-path="url(#p75b2e197a0)" d="M 27.04252 182.948031 
L 28.459843 175.861417 
L 27.04252 175.861417 
L 27.04252 154.601575 
L 27.04252 154.601575 
L 27.04252 175.861417 
L 25.625197 175.861417 
z
" style="stroke:#000000;stroke-linejoin:miter;"/>
   </g>
   <g id="patch_17">
    <path clip-path="url(#p75b2e197a0)" d="M 243.792187 150.450332 
L 237.778996 154.459127 
L 238.781194 155.461325 
L 207.143246 187.099274 
L 207.143246 187.099274 
L 238.781194 155.461325 
L 239.783393 156.463524 
z
" style="stroke:#000000;stroke-linejoin:miter;"/>
   </g>
   <g id="patch_18">
    <path clip-path="url(#p75b2e197a0)" d="M 296.333858 197.12126 
L 289.247244 195.703937 
L 289.247244 197.12126 
L 211.294488 197.12126 
L 211.294488 197.12126 
L 289.247244 197.12126 
L 289.247244 198.538583 
z
" style="stroke:#000000;stroke-linejoin:miter;"/>
   </g>
   <g id="patch_19">
    <path clip-path="url(#p75b2e197a0)" d="M 300.485101 187.099274 
L 296.476306 181.086082 
L 295.474108 182.088281 
L 263.836159 150.450332 
L 263.836159 150.450332 
L 295.474108 182.088281 
L 294.471909 183.09048 
z
" style="stroke:#000000;stroke-linejoin:miter;"/>
   </g>
   <g id="patch_20">
    <path clip-path="url(#p75b2e197a0)" d="M 239.640945 140.428346 
L 232.554331 139.011024 
L 232.554331 140.428346 
L 211.294488 140.428346 
L 211.294488 140.428346 
L 232.554331 140.428346 
L 232.554331 141.845669 
z
" style="stroke:#000000;stroke-linejoin:miter;"/>
   </g>
   <g id="patch_21">
    <path clip-path="url(#p75b2e197a0)" d="M 197.12126 182.948031 
L 198.538583 175.861417 
L 197.12126 175.861417 
L 197.12126 154.601575 
L 197.12126 154.601575 
L 197.12126 175.861417 
L 195.703937 175.861417 
z
" style="stroke:#000000;stroke-linejoin:miter;"/>
   </g>
   <g id="patch_22">
    <path clip-path="url(#p75b2e197a0)" d="M 27.04252 69.562205 
C 30.801304 69.562205 34.406644 71.055585 37.064506 73.713447 
C 39.722367 76.371309 41.215748 79.976649 41.215748 83.735433 
C 41.215748 87.494217 39.722367 91.099557 37.064506 93.757419 
C 34.406644 96.415281 30.801304 97.908661 27.04252 97.908661 
C 23.283736 97.908661 19.678396 96.415281 17.020534 93.757419 
C 14.362672 91.099557 12.869291 87.494217 12.869291 83.735433 
C 12.869291 79.976649 14.362672 76.371309 17.020534 73.713447 
C 19.678396 71.055585 23.283736 69.562205 27.04252 69.562205 
z
" style="fill:none;stroke:#000000;stroke-linejoin:miter;"/>
   </g>
   <g id="patch_23">
    <path clip-path="url(#p75b2e197a0)" d="M 140.428346 69.562205 
C 144.187131 69.562205 147.792471 71.055585 150.450332 73.713447 
C 153.108194 76.371309 154.601575 79.976649 154.601575 83.735433 
C 154.601575 87.494217 153.108194 91.099557 150.450332 93.757419 
C 147.792471 96.415281 144.187131 97.908661 140.428346 97.908661 
C 136.669562 97.908661 133.064222 96.415281 130.406361 93.757419 
C 127.748499 91.099557 126.255118 87.494217 126.255118 83.735433 
C 126.255118 79.976649 127.748499 76.371309 130.406361 73.713447 
C 133.064222 71.055585 136.669562 69.562205 140.428346 69.562205 
z
" style="fill:none;stroke:#000000;stroke-linejoin:miter;"/>
   </g>
   <g id="patch_24">
    <path clip-path="url(#p75b2e197a0)" d="M 83.735433 12.869291 
C 87.494217 12.869291 91.099557 14.362672 93.757419 17.020534 
C 96.415281 19.678396 97.908661 23.283736 97.908661 27.04252 
C 97.908661 30.801304 96.415281 34.406644 93.757419 37.064506 
C 91.099557 39.722367 87.494217 41.215748 83.735433 41.215748 
C 79.976649 41.215748 76.371309 39.722367 73.713447 37.064506 
C 71.055585 34.406644 69.562205 30.801304 69.562205 27.04252 
C 69.562205 23.283736 71.055585 19.678396 73.713447 17.020534 
C 76.371309 14.362672 79.976649 12.869291 83.735433 12.869291 
z
" style="fill:none;stroke:#000000;stroke-linejoin:miter;"/>
   </g>
   <g id="patch_25">
    <path clip-path="url(#p75b2e197a0)" d="M 140.428346 12.869291 
C 144.187131 12.869291 147.792471 14.362672 150.450332 17.020534 
C 153.108194 19.678396 154.601575 23.283736 154.601575 27.04252 
C 154.601575 30.801304 153.108194 34.406644 150.450332 37.064506 
C 147.792471 39.722367 144.187131 41.215748 140.428346 41.215748 
C 136.669562 41.215748 133.064222 39.722367 130.406361 37.064506 
C 127.748499 34.406644 126.255118 30.801304 126.255118 27.04252 
C 126.255118 23.283736 127.748499 19.678396 130.406361 17.020534 
C 133.064222 14.362672 136.669562 12.869291 140.428346 12.869291 
z
" style="fill:none;stroke:#000000;stroke-linejoin:miter;"/>
   </g>
   <g id="patch_26">
    <path clip-path="url(#p75b2e197a0)" d="M 197.12126 69.562205 
C 200.880044 69.562205 204.485384 71.055585 207.143246 73.713447 
C 209.801107 76.371309 211.294488 79.976649 211.294488 83.735433 
C 211.294488 87.494217 209.801107 91.099557 207.143246 93.757419 
C 204.485384 96.415281 200.880044 97.908661 197.12126 97.908661 
C 193.362476 97.908661 189.757136 96.415281 187.099274 93.757419 
C 184.441412 91.099557 182.948031 87.494217 182.948031 83.735433 
C 182.948031 79.976649 184.441412 76.371309 187.099274 73.713447 
C 189.757136 71.055585 193.362476 69.562205 197.12126 69.562205 
z
" style="fill:none;stroke:#000000;stroke-linejoin:miter;"/>
   </g>
   <g id="patch_27">
    <path clip-path="url(#p75b2e197a0)" d="M 310.507087 69.562205 
C 314.265871 69.562205 317.871211 71.055585 320.529072 73.713447 
C 323.186934 76.371309 324.680315 79.976649 324.680315 83.735433 
C 324.680315 87.494217 323.186934 91.099557 320.529072 93.757419 
C 317.871211 96.415281 314.265871 97.908661 310.507087 97.908661 
C 306.748303 97.908661 303.142962 96.415281 300.485101 93.757419 
C 297.827239 91.099557 296.333858 87.494217 296.333858 83.735433 
C 296.333858 79.976649 297.827239 76.371309 300.485101 73.713447 
C 303.142962 71.055585 306.748303 69.562205 310.507087 69.562205 
z
" style="fill:none;stroke:#000000;stroke-linejoin:miter;"/>
   </g>
   <g id="patch_28">
    <path clip-path="url(#p75b2e197a0)" d="M 253.814173 12.869291 
C 257.572957 12.869291 261.178297 14.362672 263.836159 17.020534 
C 266.494021 19.678396 267.987402 23.283736 267.987402 27.04252 
C 267.987402 30.801304 266.494021 34.406644 263.836159 37.064506 
C 261.178297 39.722367 257.572957 41.215748 253.814173 41.215748 
C 250.055389 41.215748 246.450049 39.722367 243.792187 37.064506 
C 241.134326 34.406644 239.640945 30.801304 239.640945 27.04252 
C 239.640945 23.283736 241.134326 19.678396 243.792187 17.020534 
C 246.450049 14.362672 250.055389 12.869291 253.814173 12.869291 
z
" style="fill:none;stroke:#000000;stroke-linejoin:miter;"/>
   </g>
   <g id="patch_29">
    <path clip-path="url(#p75b2e197a0)" d="M 310.507087 12.869291 
C 314.265871 12.869291 317.871211 14.362672 320.529072 17.020534 
C 323.186934 19.678396 324.680315 23.283736 324.680315 27.04252 
C 324.680315 30.801304 323.186934 34.406644 320.529072 37.064506 
C 317.871211 39.722367 314.265871 41.215748 310.507087 41.215748 
C 306.748303 41.215748 303.142962 39.722367 300.485101 37.064506 
C 297.827239 34.406644 296.333858 30.801304 296.333858 27.04252 
C 296.333858 23.283736 297.827239 19.678396 300.485101 17.020534 
C 303.142962 14.362672 306.748303 12.869291 310.507087 12.869291 
z
" style="fill:none;stroke:#000000;stroke-linejoin:miter;"/>
   </g>
   <g id="patch_30">
    <path clip-path="url(#p75b2e197a0)" d="M 27.04252 182.948031 
C 30.801304 182.948031 34.406644 184.441412 37.064506 187.099274 
C 39.722367 189.757136 41.215748 193.362476 41.215748 197.12126 
C 41.215748 200.880044 39.722367 204.485384 37.064506 207.143246 
C 34.406644 209.801107 30.801304 211.294488 27.04252 211.294488 
C 23.283736 211.294488 19.678396 209.801107 17.020534 207.143246 
C 14.362672 204.485384 12.869291 200.880044 12.869291 197.12126 
C 12.869291 193.362476 14.362672 189.757136 17.020534 187.099274 
C 19.678396 184.441412 23.283736 182.948031 27.04252 182.948031 
z
" style="fill:none;stroke:#000000;stroke-linejoin:miter;"/>
   </g>
   <g id="patch_31">
    <path clip-path="url(#p75b2e197a0)" d="M 140.428346 182.948031 
C 144.187131 182.948031 147.792471 184.441412 150.450332 187.099274 
C 153.108194 189.757136 154.601575 193.362476 154.601575 197.12126 
C 154.601575 200.880044 153.108194 204.485384 150.450332 207.143246 
C 147.792471 209.801107 144.187131 211.294488 140.428346 211.294488 
C 136.669562 211.294488 133.064222 209.801107 130.406361 207.143246 
C 127.748499 204.485384 126.255118 200.880044 126.255118 197.12126 
C 126.255118 193.362476 127.748499 189.757136 130.406361 187.099274 
C 133.064222 184.441412 136.669562 182.948031 140.428346 182.948031 
z
" style="fill:none;stroke:#000000;stroke-linejoin:miter;"/>
   </g>
   <g id="patch_32">
    <path clip-path="url(#p75b2e197a0)" d="M 83.735433 126.255118 
C 87.494217 126.255118 91.099557 127.748499 93.757419 130.406361 
C 96.415281 133.064222 97.908661 136.669562 97.908661 140.428346 
C 97.908661 144.187131 96.415281 147.792471 93.757419 150.450332 
C 91.099557 153.108194 87.494217 154.601575 83.735433 154.601575 
C 79.976649 154.601575 76.371309 153.108194 73.713447 150.450332 
C 71.055585 147.792471 69.562205 144.187131 69.562205 140.428346 
C 69.562205 136.669562 71.055585 133.064222 73.713447 130.406361 
C 76.371309 127.748499 79.976649 126.255118 83.735433 126.255118 
z
" style="fill:none;stroke:#000000;stroke-linejoin:miter;"/>
   </g>
   <g id="patch_33">
    <path clip-path="url(#p75b2e197a0)" d="M 27.04252 126.255118 
C 30.801304 126.255118 34.406644 127.748499 37.064506 130.406361 
C 39.722367 133.064222 41.215748 136.669562 41.215748 140.428346 
C 41.215748 144.187131 39.722367 147.792471 37.064506 150.450332 
C 34.406644 153.108194 30.801304 154.601575 27.04252 154.601575 
C 23.283736 154.601575 19.678396 153.108194 17.020534 150.450332 
C 14.362672 147.792471 12.869291 144.187131 12.869291 140.428346 
C 12.869291 136.669562 14.362672 133.064222 17.020534 130.406361 
C 19.678396 127.748499 23.283736 126.255118 27.04252 126.255118 
z
" style="fill:none;stroke:#000000;stroke-linejoin:miter;"/>
   </g>
   <g id="patch_34">
    <path clip-path="url(#p75b2e197a0)" d="M 197.12126 182.948031 
C 200.880044 182.948031 204.485384 184.441412 207.143246 187.099274 
C 209.801107 189.757136 211.294488 193.362476 211.294488 197.12126 
C 211.294488 200.880044 209.801107 204.485384 207.143246 207.143246 
C 204.485384 209.801107 200.880044 211.294488 197.12126 211.294488 
C 193.362476 211.294488 189.757136 209.801107 187.099274 207.143246 
C 184.441412 204.485384 182.948031 200.880044 182.948031 197.12126 
C 182.948031 193.362476 184.441412 189.757136 187.099274 187.099274 
C 189.757136 184.441412 193.362476 182.948031 197.12126 182.948031 
z
" style="fill:none;stroke:#000000;stroke-linejoin:miter;"/>
   </g>
   <g id="patch_35">
    <path clip-path="url(#p75b2e197a0)" d="M 310.507087 182.948031 
C 314.265871 182.948031 317.871211 184.441412 320.529072 187.099274 
C 323.186934 189.757136 324.680315 193.362476 324.680315 197.12126 
C 324.680315 200.880044 323.186934 204.485384 320.529072 207.143246 
C 317.871211 209.801107 314.265871 211.294488 310.507087 211.294488 
C 306.748303 211.294488 303.142962 209.801107 300.485101 207.143246 
C 297.827239 204.485384 296.333858 200.880044 296.333858 197.12126 
C 296.333858 193.362476 297.827239 189.757136 300.485101 187.099274 
C 303.142962 184.441412 306.748303 182.948031 310.507087 182.948031 
z
" style="fill:none;stroke:#000000;stroke-linejoin:miter;"/>
   </g>
   <g id="patch_36">
    <path clip-path="url(#p75b2e197a0)" d="M 253.814173 126.255118 
C 257.572957 126.255118 261.178297 127.748499 263.836159 130.406361 
C 266.494021 133.064222 267.987402 136.669562 267.987402 140.428346 
C 267.987402 144.187131 266.494021 147.792471 263.836159 150.450332 
C 261.178297 153.108194 257.572957 154.601575 253.814173 154.601575 
C 250.055389 154.601575 246.450049 153.108194 243.792187 150.450332 
C 241.134326 147.792471 239.640945 144.187131 239.640945 140.428346 
C 239.640945 136.669562 241.134326 133.064222 243.792187 130.406361 
C 246.450049 127.748499 250.055389 126.255118 253.814173 126.255118 
z
" style="fill:none;stroke:#000000;stroke-linejoin:miter;"/>
   </g>
   <g id="patch_37">
    <path clip-path="url(#p75b2e197a0)" d="M 197.12126 126.255118 
C 200.880044 126.255118 204.485384 127.748499 207.143246 130.406361 
C 209.801107 133.064222 211.294488 136.669562 211.294488 140.428346 
C 211.294488 144.187131 209.801107 147.792471 207.143246 150.450332 
C 204.485384 153.108194 200.880044 154.601575 197.12126 154.601575 
C 193.362476 154.601575 189.757136 153.108194 187.099274 150.450332 
C 184.441412 147.792471 182.948031 144.187131 182.948031 140.428346 
C 182.948031 136.669562 184.441412 133.064222 187.099274 130.406361 
C 189.757136 127.748499 193.362476 126.255118 197.12126 126.255118 
z
" style="fill:none;stroke:#000000;stroke-linejoin:miter;"/>
   </g>
   <g id="text_1">
    <!-- X -->
    <g transform="translate(22.24752 87.598558)scale(0.14 -0.14)">
     <defs>
      <path d="M 6.296875 72.90625 
L 16.890625 72.90625 
L 35.015625 45.796875 
L 53.21875 72.90625 
L 63.8125 72.90625 
L 40.375 37.890625 
L 65.375 0 
L 54.78125 0 
L 34.28125 31 
L 13.625 0 
L 2.984375 0 
L 29 38.921875 
z
" id="DejaVuSans-88"/>
     </defs>
     <use xlink:href="#DejaVuSans-88"/>
    </g>
   </g>
   <g id="text_2">
    <!-- Y -->
    <g transform="translate(136.152878 87.598558)scale(0.14 -0.14)">
     <defs>
      <path d="M -0.203125 72.90625 
L 10.40625 72.90625 
L 30.609375 42.921875 
L 50.6875 72.90625 
L 61.28125 72.90625 
L 35.5 34.71875 
L 35.5 0 
L 25.59375 0 
L 25.59375 34.71875 
z
" id="DejaVuSans-89"/>
     </defs>
     <use xlink:href="#DejaVuSans-89"/>
    </g>
   </g>
   <g id="text_3">
    <!-- Z -->
    <g transform="translate(78.940433 30.905645)scale(0.14 -0.14)">
     <defs>
      <path d="M 5.609375 72.90625 
L 62.890625 72.90625 
L 62.890625 65.375 
L 16.796875 8.296875 
L 64.015625 8.296875 
L 64.015625 0 
L 4.5 0 
L 4.5 7.515625 
L 50.59375 64.59375 
L 5.609375 64.59375 
z
" id="DejaVuSans-90"/>
     </defs>
     <use xlink:href="#DejaVuSans-90"/>
    </g>
   </g>
   <g id="text_4">
    <!-- A -->
    <g transform="translate(135.639909 30.905645)scale(0.14 -0.14)">
     <defs>
      <path d="M 34.1875 63.1875 
L 20.796875 26.90625 
L 47.609375 26.90625 
z
M 28.609375 72.90625 
L 39.796875 72.90625 
L 67.578125 0 
L 57.328125 0 
L 50.6875 18.703125 
L 17.828125 18.703125 
L 11.1875 0 
L 0.78125 0 
z
" id="DejaVuSans-65"/>
     </defs>
     <use xlink:href="#DejaVuSans-65"/>
    </g>
   </g>
   <g id="text_5">
    <!-- X -->
    <g transform="translate(192.32626 87.598558)scale(0.14 -0.14)">
     <use xlink:href="#DejaVuSans-88"/>
    </g>
   </g>
   <g id="text_6">
    <!-- Y -->
    <g transform="translate(306.231618 87.598558)scale(0.14 -0.14)">
     <use xlink:href="#DejaVuSans-89"/>
    </g>
   </g>
   <g id="text_7">
    <!-- Z -->
    <g transform="translate(249.019173 30.905645)scale(0.14 -0.14)">
     <use xlink:href="#DejaVuSans-90"/>
    </g>
   </g>
   <g id="text_8">
    <!-- A -->
    <g transform="translate(305.718649 30.905645)scale(0.14 -0.14)">
     <use xlink:href="#DejaVuSans-65"/>
    </g>
   </g>
   <g id="text_9">
    <!-- X -->
    <g transform="translate(22.24752 200.984385)scale(0.14 -0.14)">
     <use xlink:href="#DejaVuSans-88"/>
    </g>
   </g>
   <g id="text_10">
    <!-- Y -->
    <g transform="translate(136.152878 200.984385)scale(0.14 -0.14)">
     <use xlink:href="#DejaVuSans-89"/>
    </g>
   </g>
   <g id="text_11">
    <!-- Z -->
    <g transform="translate(78.940433 144.291471)scale(0.14 -0.14)">
     <use xlink:href="#DejaVuSans-90"/>
    </g>
   </g>
   <g id="text_12">
    <!-- A -->
    <g transform="translate(22.254082 144.291471)scale(0.14 -0.14)">
     <use xlink:href="#DejaVuSans-65"/>
    </g>
   </g>
   <g id="text_13">
    <!-- X -->
    <g transform="translate(192.32626 200.984385)scale(0.14 -0.14)">
     <use xlink:href="#DejaVuSans-88"/>
    </g>
   </g>
   <g id="text_14">
    <!-- Y -->
    <g transform="translate(306.231618 200.984385)scale(0.14 -0.14)">
     <use xlink:href="#DejaVuSans-89"/>
    </g>
   </g>
   <g id="text_15">
    <!-- Z -->
    <g transform="translate(249.019173 144.291471)scale(0.14 -0.14)">
     <use xlink:href="#DejaVuSans-90"/>
    </g>
   </g>
   <g id="text_16">
    <!-- A -->
    <g transform="translate(192.332822 144.291471)scale(0.14 -0.14)">
     <use xlink:href="#DejaVuSans-65"/>
    </g>
   </g>
  </g>
 </g>
 <defs>
  <clipPath id="p75b2e197a0">
   <rect height="209.76378" width="323.149606" x="7.2" y="7.2"/>
  </clipPath>
 </defs>
</svg>
