<?xml version="1.0" encoding="utf-8" standalone="no"?>
<!DOCTYPE svg PUBLIC "-//W3C//DTD SVG 1.1//EN"
  "http://www.w3.org/Graphics/SVG/1.1/DTD/svg11.dtd">
<!-- Created with matplotlib (https://matplotlib.org/) -->
<svg height="108.346996pt" version="1.1" viewBox="0 0 167.470866 108.346996" width="167.470866pt" xmlns="http://www.w3.org/2000/svg" xmlns:xlink="http://www.w3.org/1999/xlink">
 <metadata>
  <rdf:RDF xmlns:cc="http://creativecommons.org/ns#" xmlns:dc="http://purl.org/dc/elements/1.1/" xmlns:rdf="http://www.w3.org/1999/02/22-rdf-syntax-ns#">
   <cc:Work>
    <dc:type rdf:resource="http://purl.org/dc/dcmitype/StillImage"/>
    <dc:date>2021-03-01T13:07:55.472735</dc:date>
    <dc:format>image/svg+xml</dc:format>
    <dc:creator>
     <cc:Agent>
      <dc:title>Matplotlib v3.3.3, https://matplotlib.org/</dc:title>
     </cc:Agent>
    </dc:creator>
   </cc:Work>
  </rdf:RDF>
 </metadata>
 <defs>
  <style type="text/css">*{stroke-linecap:butt;stroke-linejoin:round;}</style>
 </defs>
 <g id="figure_1">
  <g id="patch_1">
   <path d="M 0 108.346996 
L 167.470866 108.346996 
L 167.470866 -0 
L 0 -0 
z
" style="fill:#f0f0f0;"/>
  </g>
  <g id="axes_1">
   <g id="matplotlib.axis_1"/>
   <g id="matplotlib.axis_2"/>
   <g id="patch_2">
    <path clip-path="url(#p64f7473653)" d="M 83.735433 41.215748 
L 82.31811 48.302362 
L 83.735433 48.302362 
L 83.735433 81.373228 
L 83.735433 81.373228 
L 83.735433 48.302362 
L 85.152756 48.302362 
z
" style="stroke:#000000;stroke-linejoin:miter;"/>
   </g>
   <g id="patch_3">
    <path clip-path="url(#p64f7473653)" d="M 37.064506 37.064506 
L 41.0733 43.077697 
L 42.075498 42.075498 
L 82.065102 82.065102 
L 82.065102 82.065102 
L 42.075498 42.075498 
L 43.077697 41.0733 
z
" style="stroke:#000000;stroke-linejoin:miter;"/>
   </g>
   <g id="patch_4">
    <path clip-path="url(#p64f7473653)" d="M 69.562205 27.04252 
L 62.475591 25.625197 
L 62.475591 27.04252 
L 41.215748 27.04252 
L 41.215748 27.04252 
L 62.475591 27.04252 
L 62.475591 28.459843 
z
" style="stroke:#000000;stroke-linejoin:miter;"/>
   </g>
   <g id="patch_5">
    <path clip-path="url(#p64f7473653)" d="M 97.908661 27.04252 
L 104.995276 28.459843 
L 104.995276 27.04252 
L 126.255118 27.04252 
L 126.255118 27.04252 
L 104.995276 27.04252 
L 104.995276 25.625197 
z
" style="stroke:#000000;stroke-linejoin:miter;"/>
   </g>
   <g id="patch_6">
    <path clip-path="url(#p64f7473653)" d="M 83.735433 12.869291 
C 87.494217 12.869291 91.099557 14.362672 93.757419 17.020534 
C 96.415281 19.678396 97.908661 23.283736 97.908661 27.04252 
C 97.908661 30.801304 96.415281 34.406644 93.757419 37.064506 
C 91.099557 39.722367 87.494217 41.215748 83.735433 41.215748 
C 79.976649 41.215748 76.371309 39.722367 73.713447 37.064506 
C 71.055585 34.406644 69.562205 30.801304 69.562205 27.04252 
C 69.562205 23.283736 71.055585 19.678396 73.713447 17.020534 
C 76.371309 14.362672 79.976649 12.869291 83.735433 12.869291 
z
" style="fill:none;stroke:#000000;stroke-linejoin:miter;"/>
   </g>
   <g id="patch_7">
    <path clip-path="url(#p64f7473653)" d="M 140.428346 12.869291 
C 144.187131 12.869291 147.792471 14.362672 150.450332 17.020534 
C 153.108194 19.678396 154.601575 23.283736 154.601575 27.04252 
C 154.601575 30.801304 153.108194 34.406644 150.450332 37.064506 
C 147.792471 39.722367 144.187131 41.215748 140.428346 41.215748 
C 136.669562 41.215748 133.064222 39.722367 130.406361 37.064506 
C 127.748499 34.406644 126.255118 30.801304 126.255118 27.04252 
C 126.255118 23.283736 127.748499 19.678396 130.406361 17.020534 
C 133.064222 14.362672 136.669562 12.869291 140.428346 12.869291 
z
" style="fill:none;stroke:#000000;stroke-linejoin:miter;"/>
   </g>
   <g id="patch_8">
    <path clip-path="url(#p64f7473653)" d="M 27.04252 12.869291 
C 30.801304 12.869291 34.406644 14.362672 37.064506 17.020534 
C 39.722367 19.678396 41.215748 23.283736 41.215748 27.04252 
C 41.215748 30.801304 39.722367 34.406644 37.064506 37.064506 
C 34.406644 39.722367 30.801304 41.215748 27.04252 41.215748 
C 23.283736 41.215748 19.678396 39.722367 17.020534 37.064506 
C 14.362672 34.406644 12.869291 30.801304 12.869291 27.04252 
C 12.869291 23.283736 14.362672 19.678396 17.020534 17.020534 
C 19.678396 14.362672 23.283736 12.869291 27.04252 12.869291 
z
" style="fill:none;stroke:#000000;stroke-linejoin:miter;"/>
   </g>
   <g id="patch_9">
    <path clip-path="url(#p64f7473653)" d="M 83.735433 81.373228 
C 84.361897 81.373228 84.962787 81.622125 85.405764 82.065102 
C 85.848741 82.508079 86.097638 83.108969 86.097638 83.735433 
C 86.097638 84.361897 85.848741 84.962787 85.405764 85.405764 
C 84.962787 85.848741 84.361897 86.097638 83.735433 86.097638 
C 83.108969 86.097638 82.508079 85.848741 82.065102 85.405764 
C 81.622125 84.962787 81.373228 84.361897 81.373228 83.735433 
C 81.373228 83.108969 81.622125 82.508079 82.065102 82.065102 
C 82.508079 81.622125 83.108969 81.373228 83.735433 81.373228 
z
" style="stroke:#000000;stroke-linejoin:miter;"/>
   </g>
   <g id="text_1">
    <!-- G -->
    <g transform="translate(78.311527 30.905645)scale(0.14 -0.14)">
     <defs>
      <path d="M 59.515625 10.40625 
L 59.515625 29.984375 
L 43.40625 29.984375 
L 43.40625 38.09375 
L 69.28125 38.09375 
L 69.28125 6.78125 
Q 63.578125 2.734375 56.6875 0.65625 
Q 49.8125 -1.421875 42 -1.421875 
Q 24.90625 -1.421875 15.25 8.5625 
Q 5.609375 18.5625 5.609375 36.375 
Q 5.609375 54.25 15.25 64.234375 
Q 24.90625 74.21875 42 74.21875 
Q 49.125 74.21875 55.546875 72.453125 
Q 61.96875 70.703125 67.390625 67.28125 
L 67.390625 56.78125 
Q 61.921875 61.421875 55.765625 63.765625 
Q 49.609375 66.109375 42.828125 66.109375 
Q 29.4375 66.109375 22.71875 58.640625 
Q 16.015625 51.171875 16.015625 36.375 
Q 16.015625 21.625 22.71875 14.15625 
Q 29.4375 6.6875 42.828125 6.6875 
Q 48.046875 6.6875 52.140625 7.59375 
Q 56.25 8.5 59.515625 10.40625 
z
" id="DejaVuSans-71"/>
     </defs>
     <use xlink:href="#DejaVuSans-71"/>
    </g>
   </g>
   <g id="text_2">
    <!-- C -->
    <g transform="translate(135.540378 30.905645)scale(0.14 -0.14)">
     <defs>
      <path d="M 64.40625 67.28125 
L 64.40625 56.890625 
Q 59.421875 61.53125 53.78125 63.8125 
Q 48.140625 66.109375 41.796875 66.109375 
Q 29.296875 66.109375 22.65625 58.46875 
Q 16.015625 50.828125 16.015625 36.375 
Q 16.015625 21.96875 22.65625 14.328125 
Q 29.296875 6.6875 41.796875 6.6875 
Q 48.140625 6.6875 53.78125 8.984375 
Q 59.421875 11.28125 64.40625 15.921875 
L 64.40625 5.609375 
Q 59.234375 2.09375 53.4375 0.328125 
Q 47.65625 -1.421875 41.21875 -1.421875 
Q 24.65625 -1.421875 15.125 8.703125 
Q 5.609375 18.84375 5.609375 36.375 
Q 5.609375 53.953125 15.125 64.078125 
Q 24.65625 74.21875 41.21875 74.21875 
Q 47.75 74.21875 53.53125 72.484375 
Q 59.328125 70.75 64.40625 67.28125 
z
" id="DejaVuSans-67"/>
     </defs>
     <use xlink:href="#DejaVuSans-67"/>
    </g>
   </g>
   <g id="text_3">
    <!-- R -->
    <g transform="translate(22.178613 30.905645)scale(0.14 -0.14)">
     <defs>
      <path d="M 44.390625 34.1875 
Q 47.5625 33.109375 50.5625 29.59375 
Q 53.5625 26.078125 56.59375 19.921875 
L 66.609375 0 
L 56 0 
L 46.6875 18.703125 
Q 43.0625 26.03125 39.671875 28.421875 
Q 36.28125 30.8125 30.421875 30.8125 
L 19.671875 30.8125 
L 19.671875 0 
L 9.8125 0 
L 9.8125 72.90625 
L 32.078125 72.90625 
Q 44.578125 72.90625 50.734375 67.671875 
Q 56.890625 62.453125 56.890625 51.90625 
Q 56.890625 45.015625 53.6875 40.46875 
Q 50.484375 35.9375 44.390625 34.1875 
z
M 19.671875 64.796875 
L 19.671875 38.921875 
L 32.078125 38.921875 
Q 39.203125 38.921875 42.84375 42.21875 
Q 46.484375 45.515625 46.484375 51.90625 
Q 46.484375 58.296875 42.84375 61.546875 
Q 39.203125 64.796875 32.078125 64.796875 
z
" id="DejaVuSans-82"/>
     </defs>
     <use xlink:href="#DejaVuSans-82"/>
    </g>
   </g>
   <g id="text_4">
    <!-- U -->
    <g transform="translate(78.612308 98.235433)scale(0.14 -0.14)">
     <defs>
      <path d="M 8.6875 72.90625 
L 18.609375 72.90625 
L 18.609375 28.609375 
Q 18.609375 16.890625 22.84375 11.734375 
Q 27.09375 6.59375 36.625 6.59375 
Q 46.09375 6.59375 50.34375 11.734375 
Q 54.59375 16.890625 54.59375 28.609375 
L 54.59375 72.90625 
L 64.5 72.90625 
L 64.5 27.390625 
Q 64.5 13.140625 57.4375 5.859375 
Q 50.390625 -1.421875 36.625 -1.421875 
Q 22.796875 -1.421875 15.734375 5.859375 
Q 8.6875 13.140625 8.6875 27.390625 
z
" id="DejaVuSans-85"/>
     </defs>
     <use xlink:href="#DejaVuSans-85"/>
    </g>
   </g>
  </g>
 </g>
 <defs>
  <clipPath id="p64f7473653">
   <rect height="84.566929" width="153.070866" x="7.2" y="7.2"/>
  </clipPath>
 </defs>
</svg>
