<?xml version="1.0" encoding="utf-8" standalone="no"?>
<!DOCTYPE svg PUBLIC "-//W3C//DTD SVG 1.1//EN"
  "http://www.w3.org/Graphics/SVG/1.1/DTD/svg11.dtd">
<!-- Created with matplotlib (https://matplotlib.org/) -->
<svg height="54.085039pt" version="1.1" viewBox="0 0 280.856693 54.085039" width="280.856693pt" xmlns="http://www.w3.org/2000/svg" xmlns:xlink="http://www.w3.org/1999/xlink">
 <metadata>
  <rdf:RDF xmlns:cc="http://creativecommons.org/ns#" xmlns:dc="http://purl.org/dc/elements/1.1/" xmlns:rdf="http://www.w3.org/1999/02/22-rdf-syntax-ns#">
   <cc:Work>
    <dc:type rdf:resource="http://purl.org/dc/dcmitype/StillImage"/>
    <dc:date>2021-02-20T16:36:47.027241</dc:date>
    <dc:format>image/svg+xml</dc:format>
    <dc:creator>
     <cc:Agent>
      <dc:title>Matplotlib v3.3.3, https://matplotlib.org/</dc:title>
     </cc:Agent>
    </dc:creator>
   </cc:Work>
  </rdf:RDF>
 </metadata>
 <defs>
  <style type="text/css">*{stroke-linecap:butt;stroke-linejoin:round;}</style>
 </defs>
 <g id="figure_1">
  <g id="patch_1">
   <path d="M 0 54.085039 
L 280.856693 54.085039 
L 280.856693 -0 
L 0 -0 
z
" style="fill:#f0f0f0;"/>
  </g>
  <g id="axes_1">
   <g id="matplotlib.axis_1"/>
   <g id="matplotlib.axis_2"/>
   <g id="patch_2">
    <path clip-path="url(#pcda9d7c5c3)" d="M 126.255118 27.04252 
L 119.168504 25.625197 
L 119.168504 27.04252 
L 41.215748 27.04252 
L 41.215748 27.04252 
L 119.168504 27.04252 
L 119.168504 28.459843 
z
" style="stroke:#000000;stroke-linejoin:miter;"/>
   </g>
   <g id="patch_3">
    <path clip-path="url(#pcda9d7c5c3)" d="M 154.601575 27.04252 
L 161.688189 28.459843 
L 161.688189 27.04252 
L 239.640945 27.04252 
L 239.640945 27.04252 
L 161.688189 27.04252 
L 161.688189 25.625197 
z
" style="stroke:#000000;stroke-linejoin:miter;"/>
   </g>
   <g id="patch_4">
    <path clip-path="url(#pcda9d7c5c3)" d="M 27.04252 12.869291 
C 30.801304 12.869291 34.406644 14.362672 37.064506 17.020534 
C 39.722367 19.678396 41.215748 23.283736 41.215748 27.04252 
C 41.215748 30.801304 39.722367 34.406644 37.064506 37.064506 
C 34.406644 39.722367 30.801304 41.215748 27.04252 41.215748 
C 23.283736 41.215748 19.678396 39.722367 17.020534 37.064506 
C 14.362672 34.406644 12.869291 30.801304 12.869291 27.04252 
C 12.869291 23.283736 14.362672 19.678396 17.020534 17.020534 
C 19.678396 14.362672 23.283736 12.869291 27.04252 12.869291 
z
" style="fill:none;stroke:#000000;stroke-linejoin:miter;"/>
   </g>
   <g id="patch_5">
    <path clip-path="url(#pcda9d7c5c3)" d="M 140.428346 12.869291 
C 144.187131 12.869291 147.792471 14.362672 150.450332 17.020534 
C 153.108194 19.678396 154.601575 23.283736 154.601575 27.04252 
C 154.601575 30.801304 153.108194 34.406644 150.450332 37.064506 
C 147.792471 39.722367 144.187131 41.215748 140.428346 41.215748 
C 136.669562 41.215748 133.064222 39.722367 130.406361 37.064506 
C 127.748499 34.406644 126.255118 30.801304 126.255118 27.04252 
C 126.255118 23.283736 127.748499 19.678396 130.406361 17.020534 
C 133.064222 14.362672 136.669562 12.869291 140.428346 12.869291 
z
" style="fill:none;stroke:#000000;stroke-linejoin:miter;"/>
   </g>
   <g id="patch_6">
    <path clip-path="url(#pcda9d7c5c3)" d="M 253.814173 12.869291 
C 257.572957 12.869291 261.178297 14.362672 263.836159 17.020534 
C 266.494021 19.678396 267.987402 23.283736 267.987402 27.04252 
C 267.987402 30.801304 266.494021 34.406644 263.836159 37.064506 
C 261.178297 39.722367 257.572957 41.215748 253.814173 41.215748 
C 250.055389 41.215748 246.450049 39.722367 243.792187 37.064506 
C 241.134326 34.406644 239.640945 30.801304 239.640945 27.04252 
C 239.640945 23.283736 241.134326 19.678396 243.792187 17.020534 
C 246.450049 14.362672 250.055389 12.869291 253.814173 12.869291 
z
" style="fill:none;stroke:#000000;stroke-linejoin:miter;"/>
   </g>
   <g id="text_1">
    <!-- H -->
    <g transform="translate(21.778301 30.905645)scale(0.14 -0.14)">
     <defs>
      <path d="M 9.8125 72.90625 
L 19.671875 72.90625 
L 19.671875 43.015625 
L 55.515625 43.015625 
L 55.515625 72.90625 
L 65.375 72.90625 
L 65.375 0 
L 55.515625 0 
L 55.515625 34.71875 
L 19.671875 34.71875 
L 19.671875 0 
L 9.8125 0 
z
" id="DejaVuSans-72"/>
     </defs>
     <use xlink:href="#DejaVuSans-72"/>
    </g>
   </g>
   <g id="text_2">
    <!-- M -->
    <g transform="translate(134.388659 30.905645)scale(0.14 -0.14)">
     <defs>
      <path d="M 9.8125 72.90625 
L 24.515625 72.90625 
L 43.109375 23.296875 
L 61.8125 72.90625 
L 76.515625 72.90625 
L 76.515625 0 
L 66.890625 0 
L 66.890625 64.015625 
L 48.09375 14.015625 
L 38.1875 14.015625 
L 19.390625 64.015625 
L 19.390625 0 
L 9.8125 0 
z
" id="DejaVuSans-77"/>
     </defs>
     <use xlink:href="#DejaVuSans-77"/>
    </g>
   </g>
   <g id="text_3">
    <!-- A -->
    <g transform="translate(249.025736 30.905645)scale(0.14 -0.14)">
     <defs>
      <path d="M 34.1875 63.1875 
L 20.796875 26.90625 
L 47.609375 26.90625 
z
M 28.609375 72.90625 
L 39.796875 72.90625 
L 67.578125 0 
L 57.328125 0 
L 50.6875 18.703125 
L 17.828125 18.703125 
L 11.1875 0 
L 0.78125 0 
z
" id="DejaVuSans-65"/>
     </defs>
     <use xlink:href="#DejaVuSans-65"/>
    </g>
   </g>
  </g>
 </g>
 <defs>
  <clipPath id="pcda9d7c5c3">
   <rect height="39.685039" width="266.456693" x="7.2" y="7.2"/>
  </clipPath>
 </defs>
</svg>
