<?xml version="1.0" encoding="utf-8" standalone="no"?>
<!DOCTYPE svg PUBLIC "-//W3C//DTD SVG 1.1//EN"
  "http://www.w3.org/Graphics/SVG/1.1/DTD/svg11.dtd">
<!-- Created with matplotlib (https://matplotlib.org/) -->
<svg height="165.039909pt" version="1.1" viewBox="0 0 224.16378 165.039909" width="224.16378pt" xmlns="http://www.w3.org/2000/svg" xmlns:xlink="http://www.w3.org/1999/xlink">
 <metadata>
  <rdf:RDF xmlns:cc="http://creativecommons.org/ns#" xmlns:dc="http://purl.org/dc/elements/1.1/" xmlns:rdf="http://www.w3.org/1999/02/22-rdf-syntax-ns#">
   <cc:Work>
    <dc:type rdf:resource="http://purl.org/dc/dcmitype/StillImage"/>
    <dc:date>2021-03-04T16:42:37.993639</dc:date>
    <dc:format>image/svg+xml</dc:format>
    <dc:creator>
     <cc:Agent>
      <dc:title>Matplotlib v3.3.4, https://matplotlib.org/</dc:title>
     </cc:Agent>
    </dc:creator>
   </cc:Work>
  </rdf:RDF>
 </metadata>
 <defs>
  <style type="text/css">*{stroke-linecap:butt;stroke-linejoin:round;}</style>
 </defs>
 <g id="figure_1">
  <g id="patch_1">
   <path d="M 0 165.039909 
L 224.16378 165.039909 
L 224.16378 0 
L 0 0 
z
" style="fill:#f0f0f0;"/>
  </g>
  <g id="axes_1">
   <g id="matplotlib.axis_1"/>
   <g id="matplotlib.axis_2"/>
   <g id="patch_2">
    <path clip-path="url(#p45612250af)" d="M 27.04252 41.215748 
L 25.625197 48.302362 
L 27.04252 48.302362 
L 27.04252 138.066142 
L 27.04252 138.066142 
L 27.04252 48.302362 
L 28.459843 48.302362 
z
" style="stroke:#000000;stroke-linejoin:miter;"/>
   </g>
   <g id="patch_3">
    <path clip-path="url(#p45612250af)" d="M 73.713447 93.757419 
L 67.700256 97.766213 
L 68.702454 98.768412 
L 28.712851 138.758015 
L 28.712851 138.758015 
L 68.702454 98.768412 
L 69.704653 99.77061 
z
" style="stroke:#000000;stroke-linejoin:miter;"/>
   </g>
   <g id="patch_4">
    <path clip-path="url(#p45612250af)" d="M 37.064506 37.064506 
L 41.0733 43.077697 
L 42.075498 42.075498 
L 73.713447 73.713447 
L 73.713447 73.713447 
L 42.075498 42.075498 
L 43.077697 41.0733 
z
" style="stroke:#000000;stroke-linejoin:miter;"/>
   </g>
   <g id="patch_5">
    <path clip-path="url(#p45612250af)" d="M 126.255118 83.735433 
L 119.168504 82.31811 
L 119.168504 83.735433 
L 97.908661 83.735433 
L 97.908661 83.735433 
L 119.168504 83.735433 
L 119.168504 85.152756 
z
" style="stroke:#000000;stroke-linejoin:miter;"/>
   </g>
   <g id="patch_6">
    <path clip-path="url(#p45612250af)" d="M 154.601575 83.735433 
L 161.688189 85.152756 
L 161.688189 83.735433 
L 182.948031 83.735433 
L 182.948031 83.735433 
L 161.688189 83.735433 
L 161.688189 82.31811 
z
" style="stroke:#000000;stroke-linejoin:miter;"/>
   </g>
   <g id="patch_7">
    <path clip-path="url(#p45612250af)" d="M 127.751426 90.073893 
L 120.779119 91.975432 
L 121.412965 93.243124 
L 29.15534 139.371936 
L 29.15534 139.371936 
L 121.412965 93.243124 
L 122.046811 94.510816 
z
" style="stroke:#000000;stroke-linejoin:miter;"/>
   </g>
   <g id="patch_8">
    <path clip-path="url(#p45612250af)" d="M 39.719441 33.38098 
L 45.424055 37.817902 
L 46.057901 36.55021 
L 127.751426 77.396973 
L 127.751426 77.396973 
L 46.057901 36.55021 
L 46.691747 35.282518 
z
" style="stroke:#000000;stroke-linejoin:miter;"/>
   </g>
   <g id="patch_9">
    <path clip-path="url(#p45612250af)" d="M 27.04252 12.869291 
C 30.801304 12.869291 34.406644 14.362672 37.064506 17.020534 
C 39.722367 19.678396 41.215748 23.283736 41.215748 27.04252 
C 41.215748 30.801304 39.722367 34.406644 37.064506 37.064506 
C 34.406644 39.722367 30.801304 41.215748 27.04252 41.215748 
C 23.283736 41.215748 19.678396 39.722367 17.020534 37.064506 
C 14.362672 34.406644 12.869291 30.801304 12.869291 27.04252 
C 12.869291 23.283736 14.362672 19.678396 17.020534 17.020534 
C 19.678396 14.362672 23.283736 12.869291 27.04252 12.869291 
z
" style="fill:none;stroke:#000000;stroke-linejoin:miter;"/>
   </g>
   <g id="patch_10">
    <path clip-path="url(#p45612250af)" d="M 197.12126 69.562205 
C 200.880044 69.562205 204.485384 71.055585 207.143246 73.713447 
C 209.801107 76.371309 211.294488 79.976649 211.294488 83.735433 
C 211.294488 87.494217 209.801107 91.099557 207.143246 93.757419 
C 204.485384 96.415281 200.880044 97.908661 197.12126 97.908661 
C 193.362476 97.908661 189.757136 96.415281 187.099274 93.757419 
C 184.441412 91.099557 182.948031 87.494217 182.948031 83.735433 
C 182.948031 79.976649 184.441412 76.371309 187.099274 73.713447 
C 189.757136 71.055585 193.362476 69.562205 197.12126 69.562205 
z
" style="fill:none;stroke:#000000;stroke-linejoin:miter;"/>
   </g>
   <g id="patch_11">
    <path clip-path="url(#p45612250af)" d="M 83.735433 69.562205 
C 87.494217 69.562205 91.099557 71.055585 93.757419 73.713447 
C 96.415281 76.371309 97.908661 79.976649 97.908661 83.735433 
C 97.908661 87.494217 96.415281 91.099557 93.757419 93.757419 
C 91.099557 96.415281 87.494217 97.908661 83.735433 97.908661 
C 79.976649 97.908661 76.371309 96.415281 73.713447 93.757419 
C 71.055585 91.099557 69.562205 87.494217 69.562205 83.735433 
C 69.562205 79.976649 71.055585 76.371309 73.713447 73.713447 
C 76.371309 71.055585 79.976649 69.562205 83.735433 69.562205 
z
" style="fill:none;stroke:#000000;stroke-linejoin:miter;"/>
   </g>
   <g id="patch_12">
    <path clip-path="url(#p45612250af)" d="M 27.04252 138.066142 
C 27.668984 138.066142 28.269874 138.315039 28.712851 138.758015 
C 29.155828 139.200992 29.404724 139.801882 29.404724 140.428346 
C 29.404724 141.05481 29.155828 141.6557 28.712851 142.098677 
C 28.269874 142.541654 27.668984 142.790551 27.04252 142.790551 
C 26.416056 142.790551 25.815166 142.541654 25.372189 142.098677 
C 24.929212 141.6557 24.680315 141.05481 24.680315 140.428346 
C 24.680315 139.801882 24.929212 139.200992 25.372189 138.758015 
C 25.815166 138.315039 26.416056 138.066142 27.04252 138.066142 
z
" style="stroke:#000000;stroke-linejoin:miter;"/>
   </g>
   <g id="patch_13">
    <path clip-path="url(#p45612250af)" d="M 140.428346 69.562205 
C 144.187131 69.562205 147.792471 71.055585 150.450332 73.713447 
C 153.108194 76.371309 154.601575 79.976649 154.601575 83.735433 
C 154.601575 87.494217 153.108194 91.099557 150.450332 93.757419 
C 147.792471 96.415281 144.187131 97.908661 140.428346 97.908661 
C 136.669562 97.908661 133.064222 96.415281 130.406361 93.757419 
C 127.748499 91.099557 126.255118 87.494217 126.255118 83.735433 
C 126.255118 79.976649 127.748499 76.371309 130.406361 73.713447 
C 133.064222 71.055585 136.669562 69.562205 140.428346 69.562205 
z
" style="fill:none;stroke:#000000;stroke-linejoin:miter;"/>
   </g>
   <g id="text_1">
    <!-- G -->
    <g transform="translate(21.618613 30.905645)scale(0.14 -0.14)">
     <defs>
      <path d="M 59.515625 10.40625 
L 59.515625 29.984375 
L 43.40625 29.984375 
L 43.40625 38.09375 
L 69.28125 38.09375 
L 69.28125 6.78125 
Q 63.578125 2.734375 56.6875 0.65625 
Q 49.8125 -1.421875 42 -1.421875 
Q 24.90625 -1.421875 15.25 8.5625 
Q 5.609375 18.5625 5.609375 36.375 
Q 5.609375 54.25 15.25 64.234375 
Q 24.90625 74.21875 42 74.21875 
Q 49.125 74.21875 55.546875 72.453125 
Q 61.96875 70.703125 67.390625 67.28125 
L 67.390625 56.78125 
Q 61.921875 61.421875 55.765625 63.765625 
Q 49.609375 66.109375 42.828125 66.109375 
Q 29.4375 66.109375 22.71875 58.640625 
Q 16.015625 51.171875 16.015625 36.375 
Q 16.015625 21.625 22.71875 14.15625 
Q 29.4375 6.6875 42.828125 6.6875 
Q 48.046875 6.6875 52.140625 7.59375 
Q 56.25 8.5 59.515625 10.40625 
z
" id="DejaVuSans-71"/>
     </defs>
     <use xlink:href="#DejaVuSans-71"/>
    </g>
   </g>
   <g id="text_2">
    <!-- C -->
    <g transform="translate(192.233291 87.598558)scale(0.14 -0.14)">
     <defs>
      <path d="M 64.40625 67.28125 
L 64.40625 56.890625 
Q 59.421875 61.53125 53.78125 63.8125 
Q 48.140625 66.109375 41.796875 66.109375 
Q 29.296875 66.109375 22.65625 58.46875 
Q 16.015625 50.828125 16.015625 36.375 
Q 16.015625 21.96875 22.65625 14.328125 
Q 29.296875 6.6875 41.796875 6.6875 
Q 48.140625 6.6875 53.78125 8.984375 
Q 59.421875 11.28125 64.40625 15.921875 
L 64.40625 5.609375 
Q 59.234375 2.09375 53.4375 0.328125 
Q 47.65625 -1.421875 41.21875 -1.421875 
Q 24.65625 -1.421875 15.125 8.703125 
Q 5.609375 18.84375 5.609375 36.375 
Q 5.609375 53.953125 15.125 64.078125 
Q 24.65625 74.21875 41.21875 74.21875 
Q 47.75 74.21875 53.53125 72.484375 
Q 59.328125 70.75 64.40625 67.28125 
z
" id="DejaVuSans-67"/>
     </defs>
     <use xlink:href="#DejaVuSans-67"/>
    </g>
   </g>
   <g id="text_3">
    <!-- R -->
    <g transform="translate(78.871527 87.598558)scale(0.14 -0.14)">
     <defs>
      <path d="M 44.390625 34.1875 
Q 47.5625 33.109375 50.5625 29.59375 
Q 53.5625 26.078125 56.59375 19.921875 
L 66.609375 0 
L 56 0 
L 46.6875 18.703125 
Q 43.0625 26.03125 39.671875 28.421875 
Q 36.28125 30.8125 30.421875 30.8125 
L 19.671875 30.8125 
L 19.671875 0 
L 9.8125 0 
L 9.8125 72.90625 
L 32.078125 72.90625 
Q 44.578125 72.90625 50.734375 67.671875 
Q 56.890625 62.453125 56.890625 51.90625 
Q 56.890625 45.015625 53.6875 40.46875 
Q 50.484375 35.9375 44.390625 34.1875 
z
M 19.671875 64.796875 
L 19.671875 38.921875 
L 32.078125 38.921875 
Q 39.203125 38.921875 42.84375 42.21875 
Q 46.484375 45.515625 46.484375 51.90625 
Q 46.484375 58.296875 42.84375 61.546875 
Q 39.203125 64.796875 32.078125 64.796875 
z
" id="DejaVuSans-82"/>
     </defs>
     <use xlink:href="#DejaVuSans-82"/>
    </g>
   </g>
   <g id="text_4">
    <!-- U -->
    <g transform="translate(21.919395 154.928346)scale(0.14 -0.14)">
     <defs>
      <path d="M 8.6875 72.90625 
L 18.609375 72.90625 
L 18.609375 28.609375 
Q 18.609375 16.890625 22.84375 11.734375 
Q 27.09375 6.59375 36.625 6.59375 
Q 46.09375 6.59375 50.34375 11.734375 
Q 54.59375 16.890625 54.59375 28.609375 
L 54.59375 72.90625 
L 64.5 72.90625 
L 64.5 27.390625 
Q 64.5 13.140625 57.4375 5.859375 
Q 50.390625 -1.421875 36.625 -1.421875 
Q 22.796875 -1.421875 15.734375 5.859375 
Q 8.6875 13.140625 8.6875 27.390625 
z
" id="DejaVuSans-85"/>
     </defs>
     <use xlink:href="#DejaVuSans-85"/>
    </g>
   </g>
   <g id="text_5">
    <!-- H -->
    <g transform="translate(135.164128 87.598558)scale(0.14 -0.14)">
     <defs>
      <path d="M 9.8125 72.90625 
L 19.671875 72.90625 
L 19.671875 43.015625 
L 55.515625 43.015625 
L 55.515625 72.90625 
L 65.375 72.90625 
L 65.375 0 
L 55.515625 0 
L 55.515625 34.71875 
L 19.671875 34.71875 
L 19.671875 0 
L 9.8125 0 
z
" id="DejaVuSans-72"/>
     </defs>
     <use xlink:href="#DejaVuSans-72"/>
    </g>
   </g>
  </g>
 </g>
 <defs>
  <clipPath id="p45612250af">
   <rect height="141.259843" width="209.76378" x="7.2" y="7.2"/>
  </clipPath>
 </defs>
</svg>
