<?xml version="1.0" encoding="utf-8" standalone="no"?>
<!DOCTYPE svg PUBLIC "-//W3C//DTD SVG 1.1//EN"
  "http://www.w3.org/Graphics/SVG/1.1/DTD/svg11.dtd">
<!-- Created with matplotlib (https://matplotlib.org/) -->
<svg height="110.777953pt" version="1.1" viewBox="0 0 507.628346 110.777953" width="507.628346pt" xmlns="http://www.w3.org/2000/svg" xmlns:xlink="http://www.w3.org/1999/xlink">
 <metadata>
  <rdf:RDF xmlns:cc="http://creativecommons.org/ns#" xmlns:dc="http://purl.org/dc/elements/1.1/" xmlns:rdf="http://www.w3.org/1999/02/22-rdf-syntax-ns#">
   <cc:Work>
    <dc:type rdf:resource="http://purl.org/dc/dcmitype/StillImage"/>
    <dc:date>2021-02-15T18:01:29.027692</dc:date>
    <dc:format>image/svg+xml</dc:format>
    <dc:creator>
     <cc:Agent>
      <dc:title>Matplotlib v3.3.3, https://matplotlib.org/</dc:title>
     </cc:Agent>
    </dc:creator>
   </cc:Work>
  </rdf:RDF>
 </metadata>
 <defs>
  <style type="text/css">*{stroke-linecap:butt;stroke-linejoin:round;}</style>
 </defs>
 <g id="figure_1">
  <g id="patch_1">
   <path d="M 0 110.777953 
L 507.628346 110.777953 
L 507.628346 0 
L 0 0 
z
" style="fill:#f0f0f0;"/>
  </g>
  <g id="axes_1">
   <g id="matplotlib.axis_1"/>
   <g id="matplotlib.axis_2"/>
   <g id="patch_2">
    <path clip-path="url(#p584ef34e35)" d="M 126.255118 27.04252 
L 119.168504 25.625197 
L 119.168504 27.04252 
L 41.215748 27.04252 
L 41.215748 27.04252 
L 119.168504 27.04252 
L 119.168504 28.459843 
z
" style="stroke:#000000;stroke-linejoin:miter;"/>
   </g>
   <g id="patch_3">
    <path clip-path="url(#p584ef34e35)" d="M 73.713447 73.713447 
L 69.704653 67.700256 
L 68.702454 68.702454 
L 37.064506 37.064506 
L 37.064506 37.064506 
L 68.702454 68.702454 
L 67.700256 69.704653 
z
" style="stroke:#000000;stroke-linejoin:miter;"/>
   </g>
   <g id="patch_4">
    <path clip-path="url(#p584ef34e35)" d="M 93.757419 73.713447 
L 99.77061 69.704653 
L 98.768412 68.702454 
L 130.406361 37.064506 
L 130.406361 37.064506 
L 98.768412 68.702454 
L 97.766213 67.700256 
z
" style="stroke:#000000;stroke-linejoin:miter;"/>
   </g>
   <g id="patch_5">
    <path clip-path="url(#p584ef34e35)" d="M 243.792187 73.713447 
L 239.783393 67.700256 
L 238.781194 68.702454 
L 207.143246 37.064506 
L 207.143246 37.064506 
L 238.781194 68.702454 
L 237.778996 69.704653 
z
" style="stroke:#000000;stroke-linejoin:miter;"/>
   </g>
   <g id="patch_6">
    <path clip-path="url(#p584ef34e35)" d="M 263.836159 73.713447 
L 269.849351 69.704653 
L 268.847152 68.702454 
L 300.485101 37.064506 
L 300.485101 37.064506 
L 268.847152 68.702454 
L 267.844953 67.700256 
z
" style="stroke:#000000;stroke-linejoin:miter;"/>
   </g>
   <g id="patch_7">
    <path clip-path="url(#p584ef34e35)" d="M 211.294488 27.04252 
L 218.381102 28.459843 
L 218.381102 27.04252 
L 296.333858 27.04252 
L 296.333858 27.04252 
L 218.381102 27.04252 
L 218.381102 25.625197 
z
" style="stroke:#000000;stroke-linejoin:miter;"/>
   </g>
   <g id="patch_8">
    <path clip-path="url(#p584ef34e35)" d="M 413.870928 73.713447 
L 409.862133 67.700256 
L 408.859935 68.702454 
L 377.221986 37.064506 
L 377.221986 37.064506 
L 408.859935 68.702454 
L 407.857736 69.704653 
z
" style="stroke:#000000;stroke-linejoin:miter;"/>
   </g>
   <g id="patch_9">
    <path clip-path="url(#p584ef34e35)" d="M 433.914899 73.713447 
L 439.928091 69.704653 
L 438.925892 68.702454 
L 470.563841 37.064506 
L 470.563841 37.064506 
L 438.925892 68.702454 
L 437.923694 67.700256 
z
" style="stroke:#000000;stroke-linejoin:miter;"/>
   </g>
   <g id="patch_10">
    <path clip-path="url(#p584ef34e35)" d="M 381.373228 27.04252 
L 388.459843 28.459843 
L 388.459843 27.04252 
L 421.530709 27.04252 
L 421.530709 27.04252 
L 388.459843 27.04252 
L 388.459843 25.625197 
z
" style="stroke:#000000;stroke-linejoin:miter;"/>
   </g>
   <g id="patch_11">
    <path clip-path="url(#p584ef34e35)" d="M 466.412598 27.04252 
L 459.325984 25.625197 
L 459.325984 27.04252 
L 426.255118 27.04252 
L 426.255118 27.04252 
L 459.325984 27.04252 
L 459.325984 28.459843 
z
" style="stroke:#000000;stroke-linejoin:miter;"/>
   </g>
   <g id="patch_12">
    <path clip-path="url(#p584ef34e35)" d="M 27.04252 12.869291 
C 30.801304 12.869291 34.406644 14.362672 37.064506 17.020534 
C 39.722367 19.678396 41.215748 23.283736 41.215748 27.04252 
C 41.215748 30.801304 39.722367 34.406644 37.064506 37.064506 
C 34.406644 39.722367 30.801304 41.215748 27.04252 41.215748 
C 23.283736 41.215748 19.678396 39.722367 17.020534 37.064506 
C 14.362672 34.406644 12.869291 30.801304 12.869291 27.04252 
C 12.869291 23.283736 14.362672 19.678396 17.020534 17.020534 
C 19.678396 14.362672 23.283736 12.869291 27.04252 12.869291 
z
" style="fill:none;stroke:#000000;stroke-linejoin:miter;"/>
   </g>
   <g id="patch_13">
    <path clip-path="url(#p584ef34e35)" d="M 140.428346 12.869291 
C 144.187131 12.869291 147.792471 14.362672 150.450332 17.020534 
C 153.108194 19.678396 154.601575 23.283736 154.601575 27.04252 
C 154.601575 30.801304 153.108194 34.406644 150.450332 37.064506 
C 147.792471 39.722367 144.187131 41.215748 140.428346 41.215748 
C 136.669562 41.215748 133.064222 39.722367 130.406361 37.064506 
C 127.748499 34.406644 126.255118 30.801304 126.255118 27.04252 
C 126.255118 23.283736 127.748499 19.678396 130.406361 17.020534 
C 133.064222 14.362672 136.669562 12.869291 140.428346 12.869291 
z
" style="fill:none;stroke:#000000;stroke-linejoin:miter;"/>
   </g>
   <g id="patch_14">
    <path clip-path="url(#p584ef34e35)" d="M 83.735433 69.562205 
C 87.494217 69.562205 91.099557 71.055585 93.757419 73.713447 
C 96.415281 76.371309 97.908661 79.976649 97.908661 83.735433 
C 97.908661 87.494217 96.415281 91.099557 93.757419 93.757419 
C 91.099557 96.415281 87.494217 97.908661 83.735433 97.908661 
C 79.976649 97.908661 76.371309 96.415281 73.713447 93.757419 
C 71.055585 91.099557 69.562205 87.494217 69.562205 83.735433 
C 69.562205 79.976649 71.055585 76.371309 73.713447 73.713447 
C 76.371309 71.055585 79.976649 69.562205 83.735433 69.562205 
z
" style="fill:none;stroke:#000000;stroke-linejoin:miter;"/>
   </g>
   <g id="patch_15">
    <path clip-path="url(#p584ef34e35)" d="M 197.12126 12.869291 
C 200.880044 12.869291 204.485384 14.362672 207.143246 17.020534 
C 209.801107 19.678396 211.294488 23.283736 211.294488 27.04252 
C 211.294488 30.801304 209.801107 34.406644 207.143246 37.064506 
C 204.485384 39.722367 200.880044 41.215748 197.12126 41.215748 
C 193.362476 41.215748 189.757136 39.722367 187.099274 37.064506 
C 184.441412 34.406644 182.948031 30.801304 182.948031 27.04252 
C 182.948031 23.283736 184.441412 19.678396 187.099274 17.020534 
C 189.757136 14.362672 193.362476 12.869291 197.12126 12.869291 
z
" style="fill:none;stroke:#000000;stroke-linejoin:miter;"/>
   </g>
   <g id="patch_16">
    <path clip-path="url(#p584ef34e35)" d="M 310.507087 12.869291 
C 314.265871 12.869291 317.871211 14.362672 320.529072 17.020534 
C 323.186934 19.678396 324.680315 23.283736 324.680315 27.04252 
C 324.680315 30.801304 323.186934 34.406644 320.529072 37.064506 
C 317.871211 39.722367 314.265871 41.215748 310.507087 41.215748 
C 306.748303 41.215748 303.142962 39.722367 300.485101 37.064506 
C 297.827239 34.406644 296.333858 30.801304 296.333858 27.04252 
C 296.333858 23.283736 297.827239 19.678396 300.485101 17.020534 
C 303.142962 14.362672 306.748303 12.869291 310.507087 12.869291 
z
" style="fill:none;stroke:#000000;stroke-linejoin:miter;"/>
   </g>
   <g id="patch_17">
    <path clip-path="url(#p584ef34e35)" d="M 253.814173 69.562205 
C 257.572957 69.562205 261.178297 71.055585 263.836159 73.713447 
C 266.494021 76.371309 267.987402 79.976649 267.987402 83.735433 
C 267.987402 87.494217 266.494021 91.099557 263.836159 93.757419 
C 261.178297 96.415281 257.572957 97.908661 253.814173 97.908661 
C 250.055389 97.908661 246.450049 96.415281 243.792187 93.757419 
C 241.134326 91.099557 239.640945 87.494217 239.640945 83.735433 
C 239.640945 79.976649 241.134326 76.371309 243.792187 73.713447 
C 246.450049 71.055585 250.055389 69.562205 253.814173 69.562205 
z
" style="fill:none;stroke:#000000;stroke-linejoin:miter;"/>
   </g>
   <g id="patch_18">
    <path clip-path="url(#p584ef34e35)" d="M 367.2 12.869291 
C 370.958784 12.869291 374.564124 14.362672 377.221986 17.020534 
C 379.879848 19.678396 381.373228 23.283736 381.373228 27.04252 
C 381.373228 30.801304 379.879848 34.406644 377.221986 37.064506 
C 374.564124 39.722367 370.958784 41.215748 367.2 41.215748 
C 363.441216 41.215748 359.835876 39.722367 357.178014 37.064506 
C 354.520152 34.406644 353.026772 30.801304 353.026772 27.04252 
C 353.026772 23.283736 354.520152 19.678396 357.178014 17.020534 
C 359.835876 14.362672 363.441216 12.869291 367.2 12.869291 
z
" style="fill:none;stroke:#000000;stroke-linejoin:miter;"/>
   </g>
   <g id="patch_19">
    <path clip-path="url(#p584ef34e35)" d="M 480.585827 12.869291 
C 484.344611 12.869291 487.949951 14.362672 490.607813 17.020534 
C 493.265674 19.678396 494.759055 23.283736 494.759055 27.04252 
C 494.759055 30.801304 493.265674 34.406644 490.607813 37.064506 
C 487.949951 39.722367 484.344611 41.215748 480.585827 41.215748 
C 476.827043 41.215748 473.221703 39.722367 470.563841 37.064506 
C 467.905979 34.406644 466.412598 30.801304 466.412598 27.04252 
C 466.412598 23.283736 467.905979 19.678396 470.563841 17.020534 
C 473.221703 14.362672 476.827043 12.869291 480.585827 12.869291 
z
" style="fill:none;stroke:#000000;stroke-linejoin:miter;"/>
   </g>
   <g id="patch_20">
    <path clip-path="url(#p584ef34e35)" d="M 423.892913 69.562205 
C 427.651697 69.562205 431.257038 71.055585 433.914899 73.713447 
C 436.572761 76.371309 438.066142 79.976649 438.066142 83.735433 
C 438.066142 87.494217 436.572761 91.099557 433.914899 93.757419 
C 431.257038 96.415281 427.651697 97.908661 423.892913 97.908661 
C 420.134129 97.908661 416.528789 96.415281 413.870928 93.757419 
C 411.213066 91.099557 409.719685 87.494217 409.719685 83.735433 
C 409.719685 79.976649 411.213066 76.371309 413.870928 73.713447 
C 416.528789 71.055585 420.134129 69.562205 423.892913 69.562205 
z
" style="fill:none;stroke:#000000;stroke-linejoin:miter;"/>
   </g>
   <g id="patch_21">
    <path clip-path="url(#p584ef34e35)" d="M 423.892913 24.680315 
C 424.519377 24.680315 425.120267 24.929212 425.563244 25.372189 
C 426.006221 25.815166 426.255118 26.416056 426.255118 27.04252 
C 426.255118 27.668984 426.006221 28.269874 425.563244 28.712851 
C 425.120267 29.155828 424.519377 29.404724 423.892913 29.404724 
C 423.266449 29.404724 422.665559 29.155828 422.222582 28.712851 
C 421.779605 28.269874 421.530709 27.668984 421.530709 27.04252 
C 421.530709 26.416056 421.779605 25.815166 422.222582 25.372189 
C 422.665559 24.929212 423.266449 24.680315 423.892913 24.680315 
z
" style="stroke:#000000;stroke-linejoin:miter;"/>
   </g>
   <g id="text_1">
    <!-- M -->
    <g transform="translate(21.002832 30.905645)scale(0.14 -0.14)">
     <defs>
      <path d="M 9.8125 72.90625 
L 24.515625 72.90625 
L 43.109375 23.296875 
L 61.8125 72.90625 
L 76.515625 72.90625 
L 76.515625 0 
L 66.890625 0 
L 66.890625 64.015625 
L 48.09375 14.015625 
L 38.1875 14.015625 
L 19.390625 64.015625 
L 19.390625 0 
L 9.8125 0 
z
" id="DejaVuSans-77"/>
     </defs>
     <use xlink:href="#DejaVuSans-77"/>
    </g>
   </g>
   <g id="text_2">
    <!-- N -->
    <g transform="translate(135.191471 30.905645)scale(0.14 -0.14)">
     <defs>
      <path d="M 9.8125 72.90625 
L 23.09375 72.90625 
L 55.421875 11.921875 
L 55.421875 72.90625 
L 64.984375 72.90625 
L 64.984375 0 
L 51.703125 0 
L 19.390625 60.984375 
L 19.390625 0 
L 9.8125 0 
z
" id="DejaVuSans-78"/>
     </defs>
     <use xlink:href="#DejaVuSans-78"/>
    </g>
   </g>
   <g id="text_3">
    <!-- K -->
    <g transform="translate(79.144964 87.598558)scale(0.14 -0.14)">
     <defs>
      <path d="M 9.8125 72.90625 
L 19.671875 72.90625 
L 19.671875 42.09375 
L 52.390625 72.90625 
L 65.09375 72.90625 
L 28.90625 38.921875 
L 67.671875 0 
L 54.6875 0 
L 19.671875 35.109375 
L 19.671875 0 
L 9.8125 0 
z
" id="DejaVuSans-75"/>
     </defs>
     <use xlink:href="#DejaVuSans-75"/>
    </g>
   </g>
   <g id="text_4">
    <!-- M -->
    <g transform="translate(191.081572 30.905645)scale(0.14 -0.14)">
     <use xlink:href="#DejaVuSans-77"/>
    </g>
   </g>
   <g id="text_5">
    <!-- N -->
    <g transform="translate(305.270212 30.905645)scale(0.14 -0.14)">
     <use xlink:href="#DejaVuSans-78"/>
    </g>
   </g>
   <g id="text_6">
    <!-- K -->
    <g transform="translate(249.223704 87.598558)scale(0.14 -0.14)">
     <use xlink:href="#DejaVuSans-75"/>
    </g>
   </g>
   <g id="text_7">
    <!-- M -->
    <g transform="translate(361.160312 30.905645)scale(0.14 -0.14)">
     <use xlink:href="#DejaVuSans-77"/>
    </g>
   </g>
   <g id="text_8">
    <!-- N -->
    <g transform="translate(475.348952 30.905645)scale(0.14 -0.14)">
     <use xlink:href="#DejaVuSans-78"/>
    </g>
   </g>
   <g id="text_9">
    <!-- K -->
    <g transform="translate(419.302445 87.598558)scale(0.14 -0.14)">
     <use xlink:href="#DejaVuSans-75"/>
    </g>
   </g>
   <g id="text_10">
    <!-- U -->
    <g transform="translate(418.769788 21.54252)scale(0.14 -0.14)">
     <defs>
      <path d="M 8.6875 72.90625 
L 18.609375 72.90625 
L 18.609375 28.609375 
Q 18.609375 16.890625 22.84375 11.734375 
Q 27.09375 6.59375 36.625 6.59375 
Q 46.09375 6.59375 50.34375 11.734375 
Q 54.59375 16.890625 54.59375 28.609375 
L 54.59375 72.90625 
L 64.5 72.90625 
L 64.5 27.390625 
Q 64.5 13.140625 57.4375 5.859375 
Q 50.390625 -1.421875 36.625 -1.421875 
Q 22.796875 -1.421875 15.734375 5.859375 
Q 8.6875 13.140625 8.6875 27.390625 
z
" id="DejaVuSans-85"/>
     </defs>
     <use xlink:href="#DejaVuSans-85"/>
    </g>
   </g>
  </g>
 </g>
 <defs>
  <clipPath id="p584ef34e35">
   <rect height="96.377953" width="493.228346" x="7.2" y="7.2"/>
  </clipPath>
 </defs>
</svg>
