<?xml version="1.0" encoding="utf-8" standalone="no"?>
<!DOCTYPE svg PUBLIC "-//W3C//DTD SVG 1.1//EN"
  "http://www.w3.org/Graphics/SVG/1.1/DTD/svg11.dtd">
<!-- Created with matplotlib (https://matplotlib.org/) -->
<svg height="283.246563pt" version="1.1" viewBox="0 0 438.979687 283.246563" width="438.979687pt" xmlns="http://www.w3.org/2000/svg" xmlns:xlink="http://www.w3.org/1999/xlink">
 <metadata>
  <rdf:RDF xmlns:cc="http://creativecommons.org/ns#" xmlns:dc="http://purl.org/dc/elements/1.1/" xmlns:rdf="http://www.w3.org/1999/02/22-rdf-syntax-ns#">
   <cc:Work>
    <dc:type rdf:resource="http://purl.org/dc/dcmitype/StillImage"/>
    <dc:date>2021-02-01T13:41:25.757083</dc:date>
    <dc:format>image/svg+xml</dc:format>
    <dc:creator>
     <cc:Agent>
      <dc:title>Matplotlib v3.3.3, https://matplotlib.org/</dc:title>
     </cc:Agent>
    </dc:creator>
   </cc:Work>
  </rdf:RDF>
 </metadata>
 <defs>
  <style type="text/css">*{stroke-linecap:butt;stroke-linejoin:round;}</style>
 </defs>
 <g id="figure_1">
  <g id="patch_1">
   <path d="M 0 283.246563 
L 438.979687 283.246563 
L 438.979687 0 
L 0 0 
z
" style="fill:#f0f0f0;"/>
  </g>
  <g id="axes_1">
   <g id="patch_2">
    <path d="M 55.939688 240.48 
L 431.779687 240.48 
L 431.779687 7.2 
L 55.939688 7.2 
z
" style="fill:#f0f0f0;"/>
   </g>
   <g id="matplotlib.axis_1">
    <g id="xtick_1">
     <g id="line2d_1">
      <path clip-path="url(#p7221d9a9bf)" d="M 61.5593 240.48 
L 61.5593 7.2 
" style="fill:none;stroke:#cbcbcb;"/>
     </g>
     <g id="line2d_2"/>
     <g id="text_1">
      <!-- 30 -->
      <g transform="translate(52.6518 254.617813)scale(0.14 -0.14)">
       <defs>
        <path d="M 40.578125 39.3125 
Q 47.65625 37.796875 51.625 33 
Q 55.609375 28.21875 55.609375 21.1875 
Q 55.609375 10.40625 48.1875 4.484375 
Q 40.765625 -1.421875 27.09375 -1.421875 
Q 22.515625 -1.421875 17.65625 -0.515625 
Q 12.796875 0.390625 7.625 2.203125 
L 7.625 11.71875 
Q 11.71875 9.328125 16.59375 8.109375 
Q 21.484375 6.890625 26.8125 6.890625 
Q 36.078125 6.890625 40.9375 10.546875 
Q 45.796875 14.203125 45.796875 21.1875 
Q 45.796875 27.640625 41.28125 31.265625 
Q 36.765625 34.90625 28.71875 34.90625 
L 20.21875 34.90625 
L 20.21875 43.015625 
L 29.109375 43.015625 
Q 36.375 43.015625 40.234375 45.921875 
Q 44.09375 48.828125 44.09375 54.296875 
Q 44.09375 59.90625 40.109375 62.90625 
Q 36.140625 65.921875 28.71875 65.921875 
Q 24.65625 65.921875 20.015625 65.03125 
Q 15.375 64.15625 9.8125 62.3125 
L 9.8125 71.09375 
Q 15.4375 72.65625 20.34375 73.4375 
Q 25.25 74.21875 29.59375 74.21875 
Q 40.828125 74.21875 47.359375 69.109375 
Q 53.90625 64.015625 53.90625 55.328125 
Q 53.90625 49.265625 50.4375 45.09375 
Q 46.96875 40.921875 40.578125 39.3125 
z
" id="DejaVuSans-51"/>
        <path d="M 31.78125 66.40625 
Q 24.171875 66.40625 20.328125 58.90625 
Q 16.5 51.421875 16.5 36.375 
Q 16.5 21.390625 20.328125 13.890625 
Q 24.171875 6.390625 31.78125 6.390625 
Q 39.453125 6.390625 43.28125 13.890625 
Q 47.125 21.390625 47.125 36.375 
Q 47.125 51.421875 43.28125 58.90625 
Q 39.453125 66.40625 31.78125 66.40625 
z
M 31.78125 74.21875 
Q 44.046875 74.21875 50.515625 64.515625 
Q 56.984375 54.828125 56.984375 36.375 
Q 56.984375 17.96875 50.515625 8.265625 
Q 44.046875 -1.421875 31.78125 -1.421875 
Q 19.53125 -1.421875 13.0625 8.265625 
Q 6.59375 17.96875 6.59375 36.375 
Q 6.59375 54.828125 13.0625 64.515625 
Q 19.53125 74.21875 31.78125 74.21875 
z
" id="DejaVuSans-48"/>
       </defs>
       <use xlink:href="#DejaVuSans-51"/>
       <use x="63.623047" xlink:href="#DejaVuSans-48"/>
      </g>
     </g>
    </g>
    <g id="xtick_2">
     <g id="line2d_3">
      <path clip-path="url(#p7221d9a9bf)" d="M 115.076887 240.48 
L 115.076887 7.2 
" style="fill:none;stroke:#cbcbcb;"/>
     </g>
     <g id="line2d_4"/>
     <g id="text_2">
      <!-- 35 -->
      <g transform="translate(106.169387 254.617813)scale(0.14 -0.14)">
       <defs>
        <path d="M 10.796875 72.90625 
L 49.515625 72.90625 
L 49.515625 64.59375 
L 19.828125 64.59375 
L 19.828125 46.734375 
Q 21.96875 47.46875 24.109375 47.828125 
Q 26.265625 48.1875 28.421875 48.1875 
Q 40.625 48.1875 47.75 41.5 
Q 54.890625 34.8125 54.890625 23.390625 
Q 54.890625 11.625 47.5625 5.09375 
Q 40.234375 -1.421875 26.90625 -1.421875 
Q 22.3125 -1.421875 17.546875 -0.640625 
Q 12.796875 0.140625 7.71875 1.703125 
L 7.71875 11.625 
Q 12.109375 9.234375 16.796875 8.0625 
Q 21.484375 6.890625 26.703125 6.890625 
Q 35.15625 6.890625 40.078125 11.328125 
Q 45.015625 15.765625 45.015625 23.390625 
Q 45.015625 31 40.078125 35.4375 
Q 35.15625 39.890625 26.703125 39.890625 
Q 22.75 39.890625 18.8125 39.015625 
Q 14.890625 38.140625 10.796875 36.28125 
z
" id="DejaVuSans-53"/>
       </defs>
       <use xlink:href="#DejaVuSans-51"/>
       <use x="63.623047" xlink:href="#DejaVuSans-53"/>
      </g>
     </g>
    </g>
    <g id="xtick_3">
     <g id="line2d_5">
      <path clip-path="url(#p7221d9a9bf)" d="M 168.594474 240.48 
L 168.594474 7.2 
" style="fill:none;stroke:#cbcbcb;"/>
     </g>
     <g id="line2d_6"/>
     <g id="text_3">
      <!-- 40 -->
      <g transform="translate(159.686974 254.617813)scale(0.14 -0.14)">
       <defs>
        <path d="M 37.796875 64.3125 
L 12.890625 25.390625 
L 37.796875 25.390625 
z
M 35.203125 72.90625 
L 47.609375 72.90625 
L 47.609375 25.390625 
L 58.015625 25.390625 
L 58.015625 17.1875 
L 47.609375 17.1875 
L 47.609375 0 
L 37.796875 0 
L 37.796875 17.1875 
L 4.890625 17.1875 
L 4.890625 26.703125 
z
" id="DejaVuSans-52"/>
       </defs>
       <use xlink:href="#DejaVuSans-52"/>
       <use x="63.623047" xlink:href="#DejaVuSans-48"/>
      </g>
     </g>
    </g>
    <g id="xtick_4">
     <g id="line2d_7">
      <path clip-path="url(#p7221d9a9bf)" d="M 222.112061 240.48 
L 222.112061 7.2 
" style="fill:none;stroke:#cbcbcb;"/>
     </g>
     <g id="line2d_8"/>
     <g id="text_4">
      <!-- 45 -->
      <g transform="translate(213.204561 254.617813)scale(0.14 -0.14)">
       <use xlink:href="#DejaVuSans-52"/>
       <use x="63.623047" xlink:href="#DejaVuSans-53"/>
      </g>
     </g>
    </g>
    <g id="xtick_5">
     <g id="line2d_9">
      <path clip-path="url(#p7221d9a9bf)" d="M 275.629648 240.48 
L 275.629648 7.2 
" style="fill:none;stroke:#cbcbcb;"/>
     </g>
     <g id="line2d_10"/>
     <g id="text_5">
      <!-- 50 -->
      <g transform="translate(266.722148 254.617813)scale(0.14 -0.14)">
       <use xlink:href="#DejaVuSans-53"/>
       <use x="63.623047" xlink:href="#DejaVuSans-48"/>
      </g>
     </g>
    </g>
    <g id="xtick_6">
     <g id="line2d_11">
      <path clip-path="url(#p7221d9a9bf)" d="M 329.147236 240.48 
L 329.147236 7.2 
" style="fill:none;stroke:#cbcbcb;"/>
     </g>
     <g id="line2d_12"/>
     <g id="text_6">
      <!-- 55 -->
      <g transform="translate(320.239736 254.617813)scale(0.14 -0.14)">
       <use xlink:href="#DejaVuSans-53"/>
       <use x="63.623047" xlink:href="#DejaVuSans-53"/>
      </g>
     </g>
    </g>
    <g id="xtick_7">
     <g id="line2d_13">
      <path clip-path="url(#p7221d9a9bf)" d="M 382.664823 240.48 
L 382.664823 7.2 
" style="fill:none;stroke:#cbcbcb;"/>
     </g>
     <g id="line2d_14"/>
     <g id="text_7">
      <!-- 60 -->
      <g transform="translate(373.757323 254.617813)scale(0.14 -0.14)">
       <defs>
        <path d="M 33.015625 40.375 
Q 26.375 40.375 22.484375 35.828125 
Q 18.609375 31.296875 18.609375 23.390625 
Q 18.609375 15.53125 22.484375 10.953125 
Q 26.375 6.390625 33.015625 6.390625 
Q 39.65625 6.390625 43.53125 10.953125 
Q 47.40625 15.53125 47.40625 23.390625 
Q 47.40625 31.296875 43.53125 35.828125 
Q 39.65625 40.375 33.015625 40.375 
z
M 52.59375 71.296875 
L 52.59375 62.3125 
Q 48.875 64.0625 45.09375 64.984375 
Q 41.3125 65.921875 37.59375 65.921875 
Q 27.828125 65.921875 22.671875 59.328125 
Q 17.53125 52.734375 16.796875 39.40625 
Q 19.671875 43.65625 24.015625 45.921875 
Q 28.375 48.1875 33.59375 48.1875 
Q 44.578125 48.1875 50.953125 41.515625 
Q 57.328125 34.859375 57.328125 23.390625 
Q 57.328125 12.15625 50.6875 5.359375 
Q 44.046875 -1.421875 33.015625 -1.421875 
Q 20.359375 -1.421875 13.671875 8.265625 
Q 6.984375 17.96875 6.984375 36.375 
Q 6.984375 53.65625 15.1875 63.9375 
Q 23.390625 74.21875 37.203125 74.21875 
Q 40.921875 74.21875 44.703125 73.484375 
Q 48.484375 72.75 52.59375 71.296875 
z
" id="DejaVuSans-54"/>
       </defs>
       <use xlink:href="#DejaVuSans-54"/>
       <use x="63.623047" xlink:href="#DejaVuSans-48"/>
      </g>
     </g>
    </g>
    <g id="text_8">
     <!-- trọng lượng -->
     <g transform="translate(200.408906 272.927031)scale(0.15 -0.15)">
      <defs>
       <path d="M 18.3125 70.21875 
L 18.3125 54.6875 
L 36.8125 54.6875 
L 36.8125 47.703125 
L 18.3125 47.703125 
L 18.3125 18.015625 
Q 18.3125 11.328125 20.140625 9.421875 
Q 21.96875 7.515625 27.59375 7.515625 
L 36.8125 7.515625 
L 36.8125 0 
L 27.59375 0 
Q 17.1875 0 13.234375 3.875 
Q 9.28125 7.765625 9.28125 18.015625 
L 9.28125 47.703125 
L 2.6875 47.703125 
L 2.6875 54.6875 
L 9.28125 54.6875 
L 9.28125 70.21875 
z
" id="DejaVuSans-116"/>
       <path d="M 41.109375 46.296875 
Q 39.59375 47.171875 37.8125 47.578125 
Q 36.03125 48 33.890625 48 
Q 26.265625 48 22.1875 43.046875 
Q 18.109375 38.09375 18.109375 28.8125 
L 18.109375 0 
L 9.078125 0 
L 9.078125 54.6875 
L 18.109375 54.6875 
L 18.109375 46.1875 
Q 20.953125 51.171875 25.484375 53.578125 
Q 30.03125 56 36.53125 56 
Q 37.453125 56 38.578125 55.875 
Q 39.703125 55.765625 41.0625 55.515625 
z
" id="DejaVuSans-114"/>
       <path d="M 30.609375 48.390625 
Q 23.390625 48.390625 19.1875 42.75 
Q 14.984375 37.109375 14.984375 27.296875 
Q 14.984375 17.484375 19.15625 11.84375 
Q 23.34375 6.203125 30.609375 6.203125 
Q 37.796875 6.203125 41.984375 11.859375 
Q 46.1875 17.53125 46.1875 27.296875 
Q 46.1875 37.015625 41.984375 42.703125 
Q 37.796875 48.390625 30.609375 48.390625 
z
M 30.609375 56 
Q 42.328125 56 49.015625 48.375 
Q 55.71875 40.765625 55.71875 27.296875 
Q 55.71875 13.875 49.015625 6.21875 
Q 42.328125 -1.421875 30.609375 -1.421875 
Q 18.84375 -1.421875 12.171875 6.21875 
Q 5.515625 13.875 5.515625 27.296875 
Q 5.515625 40.765625 12.171875 48.375 
Q 18.84375 56 30.609375 56 
z
M 26.03125 -6.890625 
L 35.015625 -6.890625 
L 35.015625 -18.3125 
L 26.03125 -18.3125 
z
" id="DejaVuSans-7885"/>
       <path d="M 54.890625 33.015625 
L 54.890625 0 
L 45.90625 0 
L 45.90625 32.71875 
Q 45.90625 40.484375 42.875 44.328125 
Q 39.84375 48.1875 33.796875 48.1875 
Q 26.515625 48.1875 22.3125 43.546875 
Q 18.109375 38.921875 18.109375 30.90625 
L 18.109375 0 
L 9.078125 0 
L 9.078125 54.6875 
L 18.109375 54.6875 
L 18.109375 46.1875 
Q 21.34375 51.125 25.703125 53.5625 
Q 30.078125 56 35.796875 56 
Q 45.21875 56 50.046875 50.171875 
Q 54.890625 44.34375 54.890625 33.015625 
z
" id="DejaVuSans-110"/>
       <path d="M 45.40625 27.984375 
Q 45.40625 37.75 41.375 43.109375 
Q 37.359375 48.484375 30.078125 48.484375 
Q 22.859375 48.484375 18.828125 43.109375 
Q 14.796875 37.75 14.796875 27.984375 
Q 14.796875 18.265625 18.828125 12.890625 
Q 22.859375 7.515625 30.078125 7.515625 
Q 37.359375 7.515625 41.375 12.890625 
Q 45.40625 18.265625 45.40625 27.984375 
z
M 54.390625 6.78125 
Q 54.390625 -7.171875 48.1875 -13.984375 
Q 42 -20.796875 29.203125 -20.796875 
Q 24.46875 -20.796875 20.265625 -20.09375 
Q 16.0625 -19.390625 12.109375 -17.921875 
L 12.109375 -9.1875 
Q 16.0625 -11.328125 19.921875 -12.34375 
Q 23.78125 -13.375 27.78125 -13.375 
Q 36.625 -13.375 41.015625 -8.765625 
Q 45.40625 -4.15625 45.40625 5.171875 
L 45.40625 9.625 
Q 42.625 4.78125 38.28125 2.390625 
Q 33.9375 0 27.875 0 
Q 17.828125 0 11.671875 7.65625 
Q 5.515625 15.328125 5.515625 27.984375 
Q 5.515625 40.671875 11.671875 48.328125 
Q 17.828125 56 27.875 56 
Q 33.9375 56 38.28125 53.609375 
Q 42.625 51.21875 45.40625 46.390625 
L 45.40625 54.6875 
L 54.390625 54.6875 
z
" id="DejaVuSans-103"/>
       <path id="DejaVuSans-32"/>
       <path d="M 9.421875 75.984375 
L 18.40625 75.984375 
L 18.40625 0 
L 9.421875 0 
z
" id="DejaVuSans-108"/>
       <path d="M 48.34375 48.53125 
L 48.34375 54.34375 
Q 51.3125 52.140625 53.453125 51.09375 
Q 55.609375 50.046875 57.125 50.046875 
Q 59.375 50.046875 60.5 51.390625 
Q 61.625 52.734375 61.625 55.359375 
Q 61.625 56.921875 61.25 58.4375 
Q 60.890625 59.953125 60.15625 61.46875 
L 66.65625 61.46875 
Q 67.140625 59.609375 67.375 57.953125 
Q 67.625 56.296875 67.625 54.828125 
Q 67.625 48.875 65.5 46.0625 
Q 63.375 43.25 58.84375 43.25 
Q 56.5 43.25 53.9375 44.546875 
Q 51.375 45.84375 48.34375 48.53125 
z
M 8.59375 21.578125 
L 8.59375 54.6875 
L 17.578125 54.6875 
L 17.578125 21.921875 
Q 17.578125 14.15625 20.609375 10.265625 
Q 23.640625 6.390625 29.6875 6.390625 
Q 36.96875 6.390625 41.1875 11.03125 
Q 45.40625 15.671875 45.40625 23.6875 
L 45.40625 54.6875 
L 54.390625 54.6875 
L 54.390625 0 
L 45.40625 0 
L 45.40625 8.40625 
Q 42.140625 3.421875 37.8125 1 
Q 33.5 -1.421875 27.78125 -1.421875 
Q 18.359375 -1.421875 13.46875 4.4375 
Q 8.59375 10.296875 8.59375 21.578125 
z
M 31.203125 56 
z
" id="DejaVuSans-432"/>
       <path d="M 41.015625 48.53125 
L 41.015625 54.34375 
Q 44 52.140625 46.140625 51.09375 
Q 48.296875 50.046875 49.8125 50.046875 
Q 52.046875 50.046875 53.171875 51.390625 
Q 54.296875 52.734375 54.296875 55.359375 
Q 54.296875 56.921875 53.921875 58.4375 
Q 53.5625 59.953125 52.828125 61.46875 
L 59.328125 61.46875 
Q 59.8125 59.609375 60.046875 57.953125 
Q 60.296875 56.296875 60.296875 54.828125 
Q 60.296875 48.875 58.171875 46.0625 
Q 56.0625 43.25 51.515625 43.25 
Q 49.171875 43.25 46.609375 44.546875 
Q 44.046875 45.84375 41.015625 48.53125 
z
M 30.859375 48.390625 
Q 23.640625 48.390625 19.4375 42.75 
Q 15.234375 37.109375 15.234375 27.296875 
Q 15.234375 17.484375 19.40625 11.84375 
Q 23.578125 6.203125 30.859375 6.203125 
Q 38.03125 6.203125 42.234375 11.859375 
Q 46.4375 17.53125 46.4375 27.296875 
Q 46.4375 37.015625 42.234375 42.703125 
Q 38.03125 48.390625 30.859375 48.390625 
z
M 30.859375 56 
Q 42.578125 56 49.265625 48.375 
Q 55.953125 40.765625 55.953125 27.296875 
Q 55.953125 13.875 49.265625 6.21875 
Q 42.578125 -1.421875 30.859375 -1.421875 
Q 19.09375 -1.421875 12.421875 6.21875 
Q 5.765625 13.875 5.765625 27.296875 
Q 5.765625 40.765625 12.421875 48.375 
Q 19.09375 56 30.859375 56 
z
M 26.03125 -6.890625 
L 35.015625 -6.890625 
L 35.015625 -18.3125 
L 26.03125 -18.3125 
z
" id="DejaVuSans-7907"/>
      </defs>
      <use xlink:href="#DejaVuSans-116"/>
      <use x="39.208984" xlink:href="#DejaVuSans-114"/>
      <use x="80.322266" xlink:href="#DejaVuSans-7885"/>
      <use x="141.503906" xlink:href="#DejaVuSans-110"/>
      <use x="204.882812" xlink:href="#DejaVuSans-103"/>
      <use x="268.359375" xlink:href="#DejaVuSans-32"/>
      <use x="300.146484" xlink:href="#DejaVuSans-108"/>
      <use x="327.929688" xlink:href="#DejaVuSans-432"/>
      <use x="391.308594" xlink:href="#DejaVuSans-7907"/>
      <use x="452.490234" xlink:href="#DejaVuSans-110"/>
      <use x="515.869141" xlink:href="#DejaVuSans-103"/>
     </g>
    </g>
   </g>
   <g id="matplotlib.axis_2">
    <g id="ytick_1">
     <g id="line2d_15">
      <path clip-path="url(#p7221d9a9bf)" d="M 55.939688 212.55464 
L 431.779687 212.55464 
" style="fill:none;stroke:#cbcbcb;"/>
     </g>
     <g id="line2d_16"/>
     <g id="text_9">
      <!-- 140 -->
      <g transform="translate(25.717188 217.873546)scale(0.14 -0.14)">
       <defs>
        <path d="M 12.40625 8.296875 
L 28.515625 8.296875 
L 28.515625 63.921875 
L 10.984375 60.40625 
L 10.984375 69.390625 
L 28.421875 72.90625 
L 38.28125 72.90625 
L 38.28125 8.296875 
L 54.390625 8.296875 
L 54.390625 0 
L 12.40625 0 
z
" id="DejaVuSans-49"/>
       </defs>
       <use xlink:href="#DejaVuSans-49"/>
       <use x="63.623047" xlink:href="#DejaVuSans-52"/>
       <use x="127.246094" xlink:href="#DejaVuSans-48"/>
      </g>
     </g>
    </g>
    <g id="ytick_2">
     <g id="line2d_17">
      <path clip-path="url(#p7221d9a9bf)" d="M 55.939688 162.707954 
L 431.779687 162.707954 
" style="fill:none;stroke:#cbcbcb;"/>
     </g>
     <g id="line2d_18"/>
     <g id="text_10">
      <!-- 150 -->
      <g transform="translate(25.717188 168.02686)scale(0.14 -0.14)">
       <use xlink:href="#DejaVuSans-49"/>
       <use x="63.623047" xlink:href="#DejaVuSans-53"/>
       <use x="127.246094" xlink:href="#DejaVuSans-48"/>
      </g>
     </g>
    </g>
    <g id="ytick_3">
     <g id="line2d_19">
      <path clip-path="url(#p7221d9a9bf)" d="M 55.939688 112.861267 
L 431.779687 112.861267 
" style="fill:none;stroke:#cbcbcb;"/>
     </g>
     <g id="line2d_20"/>
     <g id="text_11">
      <!-- 160 -->
      <g transform="translate(25.717188 118.180174)scale(0.14 -0.14)">
       <use xlink:href="#DejaVuSans-49"/>
       <use x="63.623047" xlink:href="#DejaVuSans-54"/>
       <use x="127.246094" xlink:href="#DejaVuSans-48"/>
      </g>
     </g>
    </g>
    <g id="ytick_4">
     <g id="line2d_21">
      <path clip-path="url(#p7221d9a9bf)" d="M 55.939688 63.014581 
L 431.779687 63.014581 
" style="fill:none;stroke:#cbcbcb;"/>
     </g>
     <g id="line2d_22"/>
     <g id="text_12">
      <!-- 170 -->
      <g transform="translate(25.717188 68.333487)scale(0.14 -0.14)">
       <defs>
        <path d="M 8.203125 72.90625 
L 55.078125 72.90625 
L 55.078125 68.703125 
L 28.609375 0 
L 18.3125 0 
L 43.21875 64.59375 
L 8.203125 64.59375 
z
" id="DejaVuSans-55"/>
       </defs>
       <use xlink:href="#DejaVuSans-49"/>
       <use x="63.623047" xlink:href="#DejaVuSans-55"/>
       <use x="127.246094" xlink:href="#DejaVuSans-48"/>
      </g>
     </g>
    </g>
    <g id="ytick_5">
     <g id="line2d_23">
      <path clip-path="url(#p7221d9a9bf)" d="M 55.939688 13.167895 
L 431.779687 13.167895 
" style="fill:none;stroke:#cbcbcb;"/>
     </g>
     <g id="line2d_24"/>
     <g id="text_13">
      <!-- 180 -->
      <g transform="translate(25.717188 18.486801)scale(0.14 -0.14)">
       <defs>
        <path d="M 31.78125 34.625 
Q 24.75 34.625 20.71875 30.859375 
Q 16.703125 27.09375 16.703125 20.515625 
Q 16.703125 13.921875 20.71875 10.15625 
Q 24.75 6.390625 31.78125 6.390625 
Q 38.8125 6.390625 42.859375 10.171875 
Q 46.921875 13.96875 46.921875 20.515625 
Q 46.921875 27.09375 42.890625 30.859375 
Q 38.875 34.625 31.78125 34.625 
z
M 21.921875 38.8125 
Q 15.578125 40.375 12.03125 44.71875 
Q 8.5 49.078125 8.5 55.328125 
Q 8.5 64.0625 14.71875 69.140625 
Q 20.953125 74.21875 31.78125 74.21875 
Q 42.671875 74.21875 48.875 69.140625 
Q 55.078125 64.0625 55.078125 55.328125 
Q 55.078125 49.078125 51.53125 44.71875 
Q 48 40.375 41.703125 38.8125 
Q 48.828125 37.15625 52.796875 32.3125 
Q 56.78125 27.484375 56.78125 20.515625 
Q 56.78125 9.90625 50.3125 4.234375 
Q 43.84375 -1.421875 31.78125 -1.421875 
Q 19.734375 -1.421875 13.25 4.234375 
Q 6.78125 9.90625 6.78125 20.515625 
Q 6.78125 27.484375 10.78125 32.3125 
Q 14.796875 37.15625 21.921875 38.8125 
z
M 18.3125 54.390625 
Q 18.3125 48.734375 21.84375 45.5625 
Q 25.390625 42.390625 31.78125 42.390625 
Q 38.140625 42.390625 41.71875 45.5625 
Q 45.3125 48.734375 45.3125 54.390625 
Q 45.3125 60.0625 41.71875 63.234375 
Q 38.140625 66.40625 31.78125 66.40625 
Q 25.390625 66.40625 21.84375 63.234375 
Q 18.3125 60.0625 18.3125 54.390625 
z
" id="DejaVuSans-56"/>
       </defs>
       <use xlink:href="#DejaVuSans-49"/>
       <use x="63.623047" xlink:href="#DejaVuSans-56"/>
       <use x="127.246094" xlink:href="#DejaVuSans-48"/>
      </g>
     </g>
    </g>
    <g id="text_14">
     <!-- chiều cao -->
     <g transform="translate(18.597656 159.861094)rotate(-90)scale(0.15 -0.15)">
      <defs>
       <path d="M 48.78125 52.59375 
L 48.78125 44.1875 
Q 44.96875 46.296875 41.140625 47.34375 
Q 37.3125 48.390625 33.40625 48.390625 
Q 24.65625 48.390625 19.8125 42.84375 
Q 14.984375 37.3125 14.984375 27.296875 
Q 14.984375 17.28125 19.8125 11.734375 
Q 24.65625 6.203125 33.40625 6.203125 
Q 37.3125 6.203125 41.140625 7.25 
Q 44.96875 8.296875 48.78125 10.40625 
L 48.78125 2.09375 
Q 45.015625 0.34375 40.984375 -0.53125 
Q 36.96875 -1.421875 32.421875 -1.421875 
Q 20.0625 -1.421875 12.78125 6.34375 
Q 5.515625 14.109375 5.515625 27.296875 
Q 5.515625 40.671875 12.859375 48.328125 
Q 20.21875 56 33.015625 56 
Q 37.15625 56 41.109375 55.140625 
Q 45.0625 54.296875 48.78125 52.59375 
z
" id="DejaVuSans-99"/>
       <path d="M 54.890625 33.015625 
L 54.890625 0 
L 45.90625 0 
L 45.90625 32.71875 
Q 45.90625 40.484375 42.875 44.328125 
Q 39.84375 48.1875 33.796875 48.1875 
Q 26.515625 48.1875 22.3125 43.546875 
Q 18.109375 38.921875 18.109375 30.90625 
L 18.109375 0 
L 9.078125 0 
L 9.078125 75.984375 
L 18.109375 75.984375 
L 18.109375 46.1875 
Q 21.34375 51.125 25.703125 53.5625 
Q 30.078125 56 35.796875 56 
Q 45.21875 56 50.046875 50.171875 
Q 54.890625 44.34375 54.890625 33.015625 
z
" id="DejaVuSans-104"/>
       <path d="M 9.421875 54.6875 
L 18.40625 54.6875 
L 18.40625 0 
L 9.421875 0 
z
M 9.421875 75.984375 
L 18.40625 75.984375 
L 18.40625 64.59375 
L 9.421875 64.59375 
z
" id="DejaVuSans-105"/>
       <path d="M 43.40625 84.671875 
L 52.984375 71.78125 
L 45.515625 71.78125 
L 34.28125 84.671875 
z
M 27.25 74.65625 
L 36.421875 74.65625 
L 46.734375 61.671875 
L 39.9375 61.671875 
L 31.84375 70.359375 
L 23.734375 61.671875 
L 16.9375 61.671875 
z
M 56.203125 29.59375 
L 56.203125 25.203125 
L 14.890625 25.203125 
Q 15.484375 15.921875 20.484375 11.0625 
Q 25.484375 6.203125 34.421875 6.203125 
Q 39.59375 6.203125 44.453125 7.46875 
Q 49.3125 8.734375 54.109375 11.28125 
L 54.109375 2.78125 
Q 49.265625 0.734375 44.1875 -0.34375 
Q 39.109375 -1.421875 33.890625 -1.421875 
Q 20.796875 -1.421875 13.15625 6.1875 
Q 5.515625 13.8125 5.515625 26.8125 
Q 5.515625 40.234375 12.765625 48.109375 
Q 20.015625 56 32.328125 56 
Q 43.359375 56 49.78125 48.890625 
Q 56.203125 41.796875 56.203125 29.59375 
z
M 47.21875 32.234375 
Q 47.125 39.59375 43.09375 43.984375 
Q 39.0625 48.390625 32.421875 48.390625 
Q 24.90625 48.390625 20.390625 44.140625 
Q 15.875 39.890625 15.1875 32.171875 
z
" id="DejaVuSans-7873"/>
       <path d="M 8.5 21.578125 
L 8.5 54.6875 
L 17.484375 54.6875 
L 17.484375 21.921875 
Q 17.484375 14.15625 20.5 10.265625 
Q 23.53125 6.390625 29.59375 6.390625 
Q 36.859375 6.390625 41.078125 11.03125 
Q 45.3125 15.671875 45.3125 23.6875 
L 45.3125 54.6875 
L 54.296875 54.6875 
L 54.296875 0 
L 45.3125 0 
L 45.3125 8.40625 
Q 42.046875 3.421875 37.71875 1 
Q 33.40625 -1.421875 27.6875 -1.421875 
Q 18.265625 -1.421875 13.375 4.4375 
Q 8.5 10.296875 8.5 21.578125 
z
M 31.109375 56 
z
" id="DejaVuSans-117"/>
       <path d="M 34.28125 27.484375 
Q 23.390625 27.484375 19.1875 25 
Q 14.984375 22.515625 14.984375 16.5 
Q 14.984375 11.71875 18.140625 8.90625 
Q 21.296875 6.109375 26.703125 6.109375 
Q 34.1875 6.109375 38.703125 11.40625 
Q 43.21875 16.703125 43.21875 25.484375 
L 43.21875 27.484375 
z
M 52.203125 31.203125 
L 52.203125 0 
L 43.21875 0 
L 43.21875 8.296875 
Q 40.140625 3.328125 35.546875 0.953125 
Q 30.953125 -1.421875 24.3125 -1.421875 
Q 15.921875 -1.421875 10.953125 3.296875 
Q 6 8.015625 6 15.921875 
Q 6 25.140625 12.171875 29.828125 
Q 18.359375 34.515625 30.609375 34.515625 
L 43.21875 34.515625 
L 43.21875 35.40625 
Q 43.21875 41.609375 39.140625 45 
Q 35.0625 48.390625 27.6875 48.390625 
Q 23 48.390625 18.546875 47.265625 
Q 14.109375 46.140625 10.015625 43.890625 
L 10.015625 52.203125 
Q 14.9375 54.109375 19.578125 55.046875 
Q 24.21875 56 28.609375 56 
Q 40.484375 56 46.34375 49.84375 
Q 52.203125 43.703125 52.203125 31.203125 
z
" id="DejaVuSans-97"/>
       <path d="M 30.609375 48.390625 
Q 23.390625 48.390625 19.1875 42.75 
Q 14.984375 37.109375 14.984375 27.296875 
Q 14.984375 17.484375 19.15625 11.84375 
Q 23.34375 6.203125 30.609375 6.203125 
Q 37.796875 6.203125 41.984375 11.859375 
Q 46.1875 17.53125 46.1875 27.296875 
Q 46.1875 37.015625 41.984375 42.703125 
Q 37.796875 48.390625 30.609375 48.390625 
z
M 30.609375 56 
Q 42.328125 56 49.015625 48.375 
Q 55.71875 40.765625 55.71875 27.296875 
Q 55.71875 13.875 49.015625 6.21875 
Q 42.328125 -1.421875 30.609375 -1.421875 
Q 18.84375 -1.421875 12.171875 6.21875 
Q 5.515625 13.875 5.515625 27.296875 
Q 5.515625 40.765625 12.171875 48.375 
Q 18.84375 56 30.609375 56 
z
" id="DejaVuSans-111"/>
      </defs>
      <use xlink:href="#DejaVuSans-99"/>
      <use x="54.980469" xlink:href="#DejaVuSans-104"/>
      <use x="118.359375" xlink:href="#DejaVuSans-105"/>
      <use x="146.142578" xlink:href="#DejaVuSans-7873"/>
      <use x="207.666016" xlink:href="#DejaVuSans-117"/>
      <use x="271.044922" xlink:href="#DejaVuSans-32"/>
      <use x="302.832031" xlink:href="#DejaVuSans-99"/>
      <use x="357.8125" xlink:href="#DejaVuSans-97"/>
      <use x="419.091797" xlink:href="#DejaVuSans-111"/>
     </g>
    </g>
   </g>
   <g id="line2d_25">
    <path clip-path="url(#p7221d9a9bf)" d="M 252.35599 153.910014 
L 130.980243 214.050041 
L 81.519626 229.876364 
L 308.188833 128.587897 
L 182.261496 185.562659 
L 414.696051 93.769986 
L 149.793484 166.571072 
L 334.284619 68.44787 
L 113.684199 172.901601 
L 323.664241 87.439457 
L 274.507064 141.248955 
L 181.654617 157.075278 
L 126.125213 188.727924 
L 251.011558 163.206421 
L 102.760382 160.240543 
L 260.245413 96.935251 
L 193.488753 125.422632 
L 151.007241 192.906073 
L 264.797004 106.431045 
L 197.736904 131.753161 
L 120.359865 180.652761 
L 146.152211 169.736336 
L 120.056426 176.066866 
L 171.944558 172.901601 
L 330.339907 103.26578 
L 141.90406 182.397395 
L 152.524438 182.397395 
L 239.308097 149.225422 
L 156.16571 198.223718 
L 121.270183 198.223718 
L 247.804399 172.901601 
L 252.962869 109.596309 
L 269.348594 153.910014 
L 269.045155 98.581189 
L 345.815315 55.786811 
L 159.200104 176.066866 
L 274.507064 172.901601 
L 181.958057 141.248955 
L 153.131317 195.058453 
L 194.282916 179.15736 
L 218.370781 125.422632 
L 367.662949 84.274193 
L 240.521854 150.744749 
L 213.81919 204.554247 
L 285.262814 118.84287 
L 321.843605 134.918426 
L 231.722113 90.604722 
L 254.480065 153.910014 
L 299.389092 106.431045 
L 250.231914 141.248955 
L 228.991159 185.562659 
L 194.399071 185.562659 
L 130.980243 150.744749 
L 339.139649 93.769986 
L 138.566227 191.893189 
L 257.514459 144.41422 
L 140.083424 198.223718 
L 245.376884 77.943664 
L 246.590642 120.738041 
L 356.435693 84.274193 
L 146.455651 163.405807 
L 245.680324 138.083691 
L 202.895373 108.076982 
L 278.451775 103.26578 
L 161.931058 172.901601 
L 283.004372 115.926839 
L 162.537937 169.736336 
L 128.856167 229.876364 
L 235.666825 122.257368 
L 192.881874 188.727924 
L 250.231914 128.587897 
L 336.712134 17.803636 
L 260.245413 62.117341 
L 198.647222 182.397395 
L 115.808275 176.066866 
L 347.93939 100.100516 
L 289.072153 150.744749 
L 245.983763 112.761574 
L 178.620224 163.405807 
L 90.622807 198.223718 
L 351.277223 77.943664 
L 200.467858 115.926839 
L 167.999846 138.083691 
L 232.328992 100.100516 
L 180.44086 150.744749 
L 249.928475 62.117341 
L 141.90406 182.397395 
L 222.315492 115.926839 
L 192.881874 157.075278 
L 327.608953 109.596309 
L 313.347303 65.282605 
L 299.085652 119.092103 
L 194.399071 163.405807 
L 271.169231 147.579484 
L 187.116526 103.26578 
L 340.049967 100.100516 
L 191.668116 166.571072 
L 308.795712 96.935251 
L 278.148336 103.26578 
L 195.612828 185.562659 
L 266.010761 96.935251 
L 152.524438 157.075278 
L 273.596745 160.240543 
L 380.103963 58.952076 
L 253.569747 125.422632 
L 161.02074 150.744749 
L 135.228394 176.066866 
L 191.364677 185.562659 
L 217.460463 125.422632 
L 252.659429 141.248955 
L 331.250225 77.943664 
L 93.657201 198.223718 
L 178.013345 150.744749 
L 288.473869 112.861267 
L 265.403883 115.926839 
L 312.436984 163.405807 
L 319.41609 109.596309 
L 333.070861 109.596309 
L 192.578434 166.571072 
L 178.620224 207.719512 
L 272.382988 138.083691 
L 215.032948 204.554247 
L 232.328992 112.761574 
L 189.544041 161.88648 
L 291.499668 134.918426 
L 212.605433 131.753161 
L 85.160899 147.579484 
L 347.93939 77.943664 
L 304.244122 163.405807 
L 130.980243 172.901601 
L 263.279807 115.926839 
L 350.063466 103.26578 
L 191.061238 134.918426 
L 277.541457 115.926839 
L 238.701218 179.23213 
L 401.951598 49.456282 
L 264.797004 81.108928 
L 77.878354 204.554247 
L 118.23579 153.910014 
L 228.991159 128.587897 
L 210.177918 169.736336 
L 228.08084 125.422632 
L 157.986347 163.405807 
L 181.047739 172.901601 
L 224.743007 147.579484 
L 314.56106 109.596309 
L 300.29941 166.571072 
L 158.896665 220.38057 
L 229.598037 100.100516 
L 172.854876 166.571072 
L 291.499668 119.092103 
L 154.345074 163.405807 
L 160.413862 122.257368 
L 215.032948 131.753161 
L 163.448255 169.736336 
L 73.023324 195.058453 
L 241.128733 141.248955 
L 175.282391 125.422632 
L 277.541457 125.422632 
L 182.261496 141.248955 
L 324.865829 71.613134 
L 222.012053 185.562659 
L 123.697698 166.571072 
L 224.439568 138.083691 
L 255.390383 100.100516 
L 229.294598 128.587897 
L 258.728216 107.823761 
L 181.351178 188.727924 
L 151.61412 195.058453 
L 191.364677 166.571072 
L 149.793484 163.405807 
L 257.817898 84.274193 
L 157.076029 191.893189 
L 168.910164 125.422632 
L 277.844897 141.248955 
L 321.540165 93.769986 
L 228.534172 131.753161 
L 162.537937 191.893189 
L 202.895373 100.100516 
L 81.519626 182.397395 
L 226.867083 138.083691 
L 147.669408 188.727924 
L 126.732092 179.23213 
L 178.013345 150.744749 
L 253.266308 93.769986 
L 251.142232 84.274193 
L 236.880582 131.753161 
L 181.047739 150.744749 
L 132.194 210.884776 
L 255.693823 96.935251 
L 133.407758 157.075278 
L 345.815315 57.432749 
L 154.648514 163.405807 
L 248.714717 93.769986 
L 127.945849 204.554247 
L 182.261496 166.571072 
L 219.584538 182.397395 
L 280.272412 106.431045 
L 332.160543 100.100516 
L 146.455651 185.562659 
L 366.145752 58.952076 
L 215.943266 115.926839 
L 215.689951 115.852069 
L 217.460463 144.41422 
L 218.067341 112.761574 
L 173.765194 160.240543 
L 212.301993 166.571072 
L 108.829169 198.223718 
L 91.229686 202.022035 
L 125.214895 176.066866 
L 270.865513 100.100516 
L 309.70603 90.604722 
L 137.35247 112.761574 
L 174.068633 144.41422 
L 282.093048 77.943664 
L 211.088236 157.075278 
L 274.452262 147.579484 
L 100.029428 217.215305 
L 209.874478 150.744749 
L 255.693823 138.083691 
L 198.040343 172.901601 
L 103.367261 191.893189 
L 165.572331 134.918426 
L 125.214895 160.240543 
L 285.430881 134.918426 
L 230.204916 141.248955 
L 267.224519 125.422632 
L 370.090464 68.44787 
L 205.626327 160.240543 
L 296.658137 112.761574 
L 283.003366 74.778399 
L 107.008533 191.893189 
L 161.931058 185.562659 
L 377.979888 112.761574 
L 298.782213 90.604722 
L 168.303285 147.579484 
L 210.784796 166.571072 
L 324.877998 112.761574 
L 222.922371 166.571072 
L 182.868375 144.41422 
L 188.937162 160.240543 
L 195.610152 153.910014 
L 202.288494 122.257368 
L 177.406466 166.571072 
L 199.254101 153.910014 
L 235.059946 138.083691 
L 252.659429 106.431045 
L 195.612828 169.736336 
L 259.638535 109.596309 
L 231.418673 125.422632 
L 306.671636 77.943664 
L 249.625035 125.422632 
L 206.536645 150.744749 
L 205.322888 150.744749 
L 310.00947 103.26578 
L 218.67422 150.744749 
L 245.680324 115.926839 
L 79.395551 201.388982 
L 344.601557 68.44787 
L 337.622452 112.761574 
L 248.714717 122.257368 
L 223.832689 150.744749 
L 227.777401 134.918426 
L 263.583246 141.248955 
L 239.004658 128.587897 
L 210.177918 131.753161 
L 340.353406 71.613134 
L 169.517043 172.901601 
L 284.217123 125.422632 
L 236.026634 109.371999 
L 268.741716 106.431045 
L 212.605433 160.240543 
L 286.644638 96.935251 
L 176.799587 169.736336 
L 142.510939 169.736336 
L 292.713426 103.26578 
L 220.191417 144.41422 
L 205.019449 157.075278 
L 240.521854 93.769986 
L 163.751695 147.579484 
L 112.773881 153.910014 
L 161.02074 131.753161 
L 141.297181 210.884776 
L 261.459171 119.092103 
L 121.573623 198.223718 
L 208.357282 153.023739 
L 256.300702 106.431045 
L 286.03776 107.950372 
L 211.391675 188.727924 
L 256.300702 112.761574 
L 240.218415 107.950372 
L 344.298118 83.008087 
L 260.548853 122.890421 
L 256.604141 138.083691 
L 248.714717 109.596309 
L 120.966744 176.066866 
L 132.202515 179.15736 
L 264.493564 176.066866 
L 289.072153 48.063566 
L 238.397779 122.257368 
L 136.138712 176.066866 
L 261.155731 83.008087 
L 147.669408 163.405807 
L 246.590642 103.26578 
L 333.374301 93.769986 
L 320.629847 112.761574 
L 259.335095 138.083691 
L 201.378176 150.744749 
L 106.401654 182.397395 
L 275.113942 152.770518 
L 215.032948 153.910014 
L 98.512231 188.727924 
L 246.590642 109.596309 
L 234.149628 157.075278 
L 247.804399 144.41422 
L 177.709905 176.066866 
L 279.362093 214.050041 
L 223.52925 125.422632 
L 192.578434 138.083691 
L 186.206208 195.058453 
L 224.439568 122.257368 
L 289.072153 176.066866 
L 267.831397 112.761574 
L 288.465274 87.439457 
L 209.874478 138.083691 
L 120.663304 144.41422 
L 199.478618 204.554247 
L 241.128733 93.769986 
L 188.633723 106.431045 
L 149.328143 138.283077 
L 203.916082 106.381198 
L 314.56106 62.117341 
L 200.467858 163.405807 
L 166.17921 109.596309 
L 204.41257 138.083691 
L 304.244122 81.108928 
L 151.917559 171.255664 
L 198.647222 153.910014 
L 124.608016 169.736336 
L 213.81919 144.41422 
L 147.972848 179.23213 
L 212.605433 138.083691 
L 211.695115 131.753161 
L 252.962869 109.596309 
L 162.234498 182.397395 
L 179.833981 131.753161 
L 177.406466 150.744749 
L 243.859688 100.100516 
L 107.008533 198.223718 
L 298.782213 100.100516 
L 319.112651 131.753161 
L 302.726925 119.092103 
L 302.726925 119.092103 
" style="fill:none;"/>
    <defs>
     <path d="M 0 1.5 
C 0.397805 1.5 0.77937 1.341951 1.06066 1.06066 
C 1.341951 0.77937 1.5 0.397805 1.5 0 
C 1.5 -0.397805 1.341951 -0.77937 1.06066 -1.06066 
C 0.77937 -1.341951 0.397805 -1.5 0 -1.5 
C -0.397805 -1.5 -0.77937 -1.341951 -1.06066 -1.06066 
C -1.341951 -0.77937 -1.5 -0.397805 -1.5 0 
C -1.5 0.397805 -1.341951 0.77937 -1.06066 1.06066 
C -0.77937 1.341951 -0.397805 1.5 0 1.5 
z
" id="m23cf250985" style="stroke:#008fd5;"/>
    </defs>
    <g clip-path="url(#p7221d9a9bf)">
     <use style="fill:#008fd5;stroke:#008fd5;" x="252.35599" xlink:href="#m23cf250985" y="153.910014"/>
     <use style="fill:#008fd5;stroke:#008fd5;" x="130.980243" xlink:href="#m23cf250985" y="214.050041"/>
     <use style="fill:#008fd5;stroke:#008fd5;" x="81.519626" xlink:href="#m23cf250985" y="229.876364"/>
     <use style="fill:#008fd5;stroke:#008fd5;" x="308.188833" xlink:href="#m23cf250985" y="128.587897"/>
     <use style="fill:#008fd5;stroke:#008fd5;" x="182.261496" xlink:href="#m23cf250985" y="185.562659"/>
     <use style="fill:#008fd5;stroke:#008fd5;" x="414.696051" xlink:href="#m23cf250985" y="93.769986"/>
     <use style="fill:#008fd5;stroke:#008fd5;" x="149.793484" xlink:href="#m23cf250985" y="166.571072"/>
     <use style="fill:#008fd5;stroke:#008fd5;" x="334.284619" xlink:href="#m23cf250985" y="68.44787"/>
     <use style="fill:#008fd5;stroke:#008fd5;" x="113.684199" xlink:href="#m23cf250985" y="172.901601"/>
     <use style="fill:#008fd5;stroke:#008fd5;" x="323.664241" xlink:href="#m23cf250985" y="87.439457"/>
     <use style="fill:#008fd5;stroke:#008fd5;" x="274.507064" xlink:href="#m23cf250985" y="141.248955"/>
     <use style="fill:#008fd5;stroke:#008fd5;" x="181.654617" xlink:href="#m23cf250985" y="157.075278"/>
     <use style="fill:#008fd5;stroke:#008fd5;" x="126.125213" xlink:href="#m23cf250985" y="188.727924"/>
     <use style="fill:#008fd5;stroke:#008fd5;" x="251.011558" xlink:href="#m23cf250985" y="163.206421"/>
     <use style="fill:#008fd5;stroke:#008fd5;" x="102.760382" xlink:href="#m23cf250985" y="160.240543"/>
     <use style="fill:#008fd5;stroke:#008fd5;" x="260.245413" xlink:href="#m23cf250985" y="96.935251"/>
     <use style="fill:#008fd5;stroke:#008fd5;" x="193.488753" xlink:href="#m23cf250985" y="125.422632"/>
     <use style="fill:#008fd5;stroke:#008fd5;" x="151.007241" xlink:href="#m23cf250985" y="192.906073"/>
     <use style="fill:#008fd5;stroke:#008fd5;" x="264.797004" xlink:href="#m23cf250985" y="106.431045"/>
     <use style="fill:#008fd5;stroke:#008fd5;" x="197.736904" xlink:href="#m23cf250985" y="131.753161"/>
     <use style="fill:#008fd5;stroke:#008fd5;" x="120.359865" xlink:href="#m23cf250985" y="180.652761"/>
     <use style="fill:#008fd5;stroke:#008fd5;" x="146.152211" xlink:href="#m23cf250985" y="169.736336"/>
     <use style="fill:#008fd5;stroke:#008fd5;" x="120.056426" xlink:href="#m23cf250985" y="176.066866"/>
     <use style="fill:#008fd5;stroke:#008fd5;" x="171.944558" xlink:href="#m23cf250985" y="172.901601"/>
     <use style="fill:#008fd5;stroke:#008fd5;" x="330.339907" xlink:href="#m23cf250985" y="103.26578"/>
     <use style="fill:#008fd5;stroke:#008fd5;" x="141.90406" xlink:href="#m23cf250985" y="182.397395"/>
     <use style="fill:#008fd5;stroke:#008fd5;" x="152.524438" xlink:href="#m23cf250985" y="182.397395"/>
     <use style="fill:#008fd5;stroke:#008fd5;" x="239.308097" xlink:href="#m23cf250985" y="149.225422"/>
     <use style="fill:#008fd5;stroke:#008fd5;" x="156.16571" xlink:href="#m23cf250985" y="198.223718"/>
     <use style="fill:#008fd5;stroke:#008fd5;" x="121.270183" xlink:href="#m23cf250985" y="198.223718"/>
     <use style="fill:#008fd5;stroke:#008fd5;" x="247.804399" xlink:href="#m23cf250985" y="172.901601"/>
     <use style="fill:#008fd5;stroke:#008fd5;" x="252.962869" xlink:href="#m23cf250985" y="109.596309"/>
     <use style="fill:#008fd5;stroke:#008fd5;" x="269.348594" xlink:href="#m23cf250985" y="153.910014"/>
     <use style="fill:#008fd5;stroke:#008fd5;" x="269.045155" xlink:href="#m23cf250985" y="98.581189"/>
     <use style="fill:#008fd5;stroke:#008fd5;" x="345.815315" xlink:href="#m23cf250985" y="55.786811"/>
     <use style="fill:#008fd5;stroke:#008fd5;" x="159.200104" xlink:href="#m23cf250985" y="176.066866"/>
     <use style="fill:#008fd5;stroke:#008fd5;" x="274.507064" xlink:href="#m23cf250985" y="172.901601"/>
     <use style="fill:#008fd5;stroke:#008fd5;" x="181.958057" xlink:href="#m23cf250985" y="141.248955"/>
     <use style="fill:#008fd5;stroke:#008fd5;" x="153.131317" xlink:href="#m23cf250985" y="195.058453"/>
     <use style="fill:#008fd5;stroke:#008fd5;" x="194.282916" xlink:href="#m23cf250985" y="179.15736"/>
     <use style="fill:#008fd5;stroke:#008fd5;" x="218.370781" xlink:href="#m23cf250985" y="125.422632"/>
     <use style="fill:#008fd5;stroke:#008fd5;" x="367.662949" xlink:href="#m23cf250985" y="84.274193"/>
     <use style="fill:#008fd5;stroke:#008fd5;" x="240.521854" xlink:href="#m23cf250985" y="150.744749"/>
     <use style="fill:#008fd5;stroke:#008fd5;" x="213.81919" xlink:href="#m23cf250985" y="204.554247"/>
     <use style="fill:#008fd5;stroke:#008fd5;" x="285.262814" xlink:href="#m23cf250985" y="118.84287"/>
     <use style="fill:#008fd5;stroke:#008fd5;" x="321.843605" xlink:href="#m23cf250985" y="134.918426"/>
     <use style="fill:#008fd5;stroke:#008fd5;" x="231.722113" xlink:href="#m23cf250985" y="90.604722"/>
     <use style="fill:#008fd5;stroke:#008fd5;" x="254.480065" xlink:href="#m23cf250985" y="153.910014"/>
     <use style="fill:#008fd5;stroke:#008fd5;" x="299.389092" xlink:href="#m23cf250985" y="106.431045"/>
     <use style="fill:#008fd5;stroke:#008fd5;" x="250.231914" xlink:href="#m23cf250985" y="141.248955"/>
     <use style="fill:#008fd5;stroke:#008fd5;" x="228.991159" xlink:href="#m23cf250985" y="185.562659"/>
     <use style="fill:#008fd5;stroke:#008fd5;" x="194.399071" xlink:href="#m23cf250985" y="185.562659"/>
     <use style="fill:#008fd5;stroke:#008fd5;" x="130.980243" xlink:href="#m23cf250985" y="150.744749"/>
     <use style="fill:#008fd5;stroke:#008fd5;" x="339.139649" xlink:href="#m23cf250985" y="93.769986"/>
     <use style="fill:#008fd5;stroke:#008fd5;" x="138.566227" xlink:href="#m23cf250985" y="191.893189"/>
     <use style="fill:#008fd5;stroke:#008fd5;" x="257.514459" xlink:href="#m23cf250985" y="144.41422"/>
     <use style="fill:#008fd5;stroke:#008fd5;" x="140.083424" xlink:href="#m23cf250985" y="198.223718"/>
     <use style="fill:#008fd5;stroke:#008fd5;" x="245.376884" xlink:href="#m23cf250985" y="77.943664"/>
     <use style="fill:#008fd5;stroke:#008fd5;" x="246.590642" xlink:href="#m23cf250985" y="120.738041"/>
     <use style="fill:#008fd5;stroke:#008fd5;" x="356.435693" xlink:href="#m23cf250985" y="84.274193"/>
     <use style="fill:#008fd5;stroke:#008fd5;" x="146.455651" xlink:href="#m23cf250985" y="163.405807"/>
     <use style="fill:#008fd5;stroke:#008fd5;" x="245.680324" xlink:href="#m23cf250985" y="138.083691"/>
     <use style="fill:#008fd5;stroke:#008fd5;" x="202.895373" xlink:href="#m23cf250985" y="108.076982"/>
     <use style="fill:#008fd5;stroke:#008fd5;" x="278.451775" xlink:href="#m23cf250985" y="103.26578"/>
     <use style="fill:#008fd5;stroke:#008fd5;" x="161.931058" xlink:href="#m23cf250985" y="172.901601"/>
     <use style="fill:#008fd5;stroke:#008fd5;" x="283.004372" xlink:href="#m23cf250985" y="115.926839"/>
     <use style="fill:#008fd5;stroke:#008fd5;" x="162.537937" xlink:href="#m23cf250985" y="169.736336"/>
     <use style="fill:#008fd5;stroke:#008fd5;" x="128.856167" xlink:href="#m23cf250985" y="229.876364"/>
     <use style="fill:#008fd5;stroke:#008fd5;" x="235.666825" xlink:href="#m23cf250985" y="122.257368"/>
     <use style="fill:#008fd5;stroke:#008fd5;" x="192.881874" xlink:href="#m23cf250985" y="188.727924"/>
     <use style="fill:#008fd5;stroke:#008fd5;" x="250.231914" xlink:href="#m23cf250985" y="128.587897"/>
     <use style="fill:#008fd5;stroke:#008fd5;" x="336.712134" xlink:href="#m23cf250985" y="17.803636"/>
     <use style="fill:#008fd5;stroke:#008fd5;" x="260.245413" xlink:href="#m23cf250985" y="62.117341"/>
     <use style="fill:#008fd5;stroke:#008fd5;" x="198.647222" xlink:href="#m23cf250985" y="182.397395"/>
     <use style="fill:#008fd5;stroke:#008fd5;" x="115.808275" xlink:href="#m23cf250985" y="176.066866"/>
     <use style="fill:#008fd5;stroke:#008fd5;" x="347.93939" xlink:href="#m23cf250985" y="100.100516"/>
     <use style="fill:#008fd5;stroke:#008fd5;" x="289.072153" xlink:href="#m23cf250985" y="150.744749"/>
     <use style="fill:#008fd5;stroke:#008fd5;" x="245.983763" xlink:href="#m23cf250985" y="112.761574"/>
     <use style="fill:#008fd5;stroke:#008fd5;" x="178.620224" xlink:href="#m23cf250985" y="163.405807"/>
     <use style="fill:#008fd5;stroke:#008fd5;" x="90.622807" xlink:href="#m23cf250985" y="198.223718"/>
     <use style="fill:#008fd5;stroke:#008fd5;" x="351.277223" xlink:href="#m23cf250985" y="77.943664"/>
     <use style="fill:#008fd5;stroke:#008fd5;" x="200.467858" xlink:href="#m23cf250985" y="115.926839"/>
     <use style="fill:#008fd5;stroke:#008fd5;" x="167.999846" xlink:href="#m23cf250985" y="138.083691"/>
     <use style="fill:#008fd5;stroke:#008fd5;" x="232.328992" xlink:href="#m23cf250985" y="100.100516"/>
     <use style="fill:#008fd5;stroke:#008fd5;" x="180.44086" xlink:href="#m23cf250985" y="150.744749"/>
     <use style="fill:#008fd5;stroke:#008fd5;" x="249.928475" xlink:href="#m23cf250985" y="62.117341"/>
     <use style="fill:#008fd5;stroke:#008fd5;" x="141.90406" xlink:href="#m23cf250985" y="182.397395"/>
     <use style="fill:#008fd5;stroke:#008fd5;" x="222.315492" xlink:href="#m23cf250985" y="115.926839"/>
     <use style="fill:#008fd5;stroke:#008fd5;" x="192.881874" xlink:href="#m23cf250985" y="157.075278"/>
     <use style="fill:#008fd5;stroke:#008fd5;" x="327.608953" xlink:href="#m23cf250985" y="109.596309"/>
     <use style="fill:#008fd5;stroke:#008fd5;" x="313.347303" xlink:href="#m23cf250985" y="65.282605"/>
     <use style="fill:#008fd5;stroke:#008fd5;" x="299.085652" xlink:href="#m23cf250985" y="119.092103"/>
     <use style="fill:#008fd5;stroke:#008fd5;" x="194.399071" xlink:href="#m23cf250985" y="163.405807"/>
     <use style="fill:#008fd5;stroke:#008fd5;" x="271.169231" xlink:href="#m23cf250985" y="147.579484"/>
     <use style="fill:#008fd5;stroke:#008fd5;" x="187.116526" xlink:href="#m23cf250985" y="103.26578"/>
     <use style="fill:#008fd5;stroke:#008fd5;" x="340.049967" xlink:href="#m23cf250985" y="100.100516"/>
     <use style="fill:#008fd5;stroke:#008fd5;" x="191.668116" xlink:href="#m23cf250985" y="166.571072"/>
     <use style="fill:#008fd5;stroke:#008fd5;" x="308.795712" xlink:href="#m23cf250985" y="96.935251"/>
     <use style="fill:#008fd5;stroke:#008fd5;" x="278.148336" xlink:href="#m23cf250985" y="103.26578"/>
     <use style="fill:#008fd5;stroke:#008fd5;" x="195.612828" xlink:href="#m23cf250985" y="185.562659"/>
     <use style="fill:#008fd5;stroke:#008fd5;" x="266.010761" xlink:href="#m23cf250985" y="96.935251"/>
     <use style="fill:#008fd5;stroke:#008fd5;" x="152.524438" xlink:href="#m23cf250985" y="157.075278"/>
     <use style="fill:#008fd5;stroke:#008fd5;" x="273.596745" xlink:href="#m23cf250985" y="160.240543"/>
     <use style="fill:#008fd5;stroke:#008fd5;" x="380.103963" xlink:href="#m23cf250985" y="58.952076"/>
     <use style="fill:#008fd5;stroke:#008fd5;" x="253.569747" xlink:href="#m23cf250985" y="125.422632"/>
     <use style="fill:#008fd5;stroke:#008fd5;" x="161.02074" xlink:href="#m23cf250985" y="150.744749"/>
     <use style="fill:#008fd5;stroke:#008fd5;" x="135.228394" xlink:href="#m23cf250985" y="176.066866"/>
     <use style="fill:#008fd5;stroke:#008fd5;" x="191.364677" xlink:href="#m23cf250985" y="185.562659"/>
     <use style="fill:#008fd5;stroke:#008fd5;" x="217.460463" xlink:href="#m23cf250985" y="125.422632"/>
     <use style="fill:#008fd5;stroke:#008fd5;" x="252.659429" xlink:href="#m23cf250985" y="141.248955"/>
     <use style="fill:#008fd5;stroke:#008fd5;" x="331.250225" xlink:href="#m23cf250985" y="77.943664"/>
     <use style="fill:#008fd5;stroke:#008fd5;" x="93.657201" xlink:href="#m23cf250985" y="198.223718"/>
     <use style="fill:#008fd5;stroke:#008fd5;" x="178.013345" xlink:href="#m23cf250985" y="150.744749"/>
     <use style="fill:#008fd5;stroke:#008fd5;" x="288.473869" xlink:href="#m23cf250985" y="112.861267"/>
     <use style="fill:#008fd5;stroke:#008fd5;" x="265.403883" xlink:href="#m23cf250985" y="115.926839"/>
     <use style="fill:#008fd5;stroke:#008fd5;" x="312.436984" xlink:href="#m23cf250985" y="163.405807"/>
     <use style="fill:#008fd5;stroke:#008fd5;" x="319.41609" xlink:href="#m23cf250985" y="109.596309"/>
     <use style="fill:#008fd5;stroke:#008fd5;" x="333.070861" xlink:href="#m23cf250985" y="109.596309"/>
     <use style="fill:#008fd5;stroke:#008fd5;" x="192.578434" xlink:href="#m23cf250985" y="166.571072"/>
     <use style="fill:#008fd5;stroke:#008fd5;" x="178.620224" xlink:href="#m23cf250985" y="207.719512"/>
     <use style="fill:#008fd5;stroke:#008fd5;" x="272.382988" xlink:href="#m23cf250985" y="138.083691"/>
     <use style="fill:#008fd5;stroke:#008fd5;" x="215.032948" xlink:href="#m23cf250985" y="204.554247"/>
     <use style="fill:#008fd5;stroke:#008fd5;" x="232.328992" xlink:href="#m23cf250985" y="112.761574"/>
     <use style="fill:#008fd5;stroke:#008fd5;" x="189.544041" xlink:href="#m23cf250985" y="161.88648"/>
     <use style="fill:#008fd5;stroke:#008fd5;" x="291.499668" xlink:href="#m23cf250985" y="134.918426"/>
     <use style="fill:#008fd5;stroke:#008fd5;" x="212.605433" xlink:href="#m23cf250985" y="131.753161"/>
     <use style="fill:#008fd5;stroke:#008fd5;" x="85.160899" xlink:href="#m23cf250985" y="147.579484"/>
     <use style="fill:#008fd5;stroke:#008fd5;" x="347.93939" xlink:href="#m23cf250985" y="77.943664"/>
     <use style="fill:#008fd5;stroke:#008fd5;" x="304.244122" xlink:href="#m23cf250985" y="163.405807"/>
     <use style="fill:#008fd5;stroke:#008fd5;" x="130.980243" xlink:href="#m23cf250985" y="172.901601"/>
     <use style="fill:#008fd5;stroke:#008fd5;" x="263.279807" xlink:href="#m23cf250985" y="115.926839"/>
     <use style="fill:#008fd5;stroke:#008fd5;" x="350.063466" xlink:href="#m23cf250985" y="103.26578"/>
     <use style="fill:#008fd5;stroke:#008fd5;" x="191.061238" xlink:href="#m23cf250985" y="134.918426"/>
     <use style="fill:#008fd5;stroke:#008fd5;" x="277.541457" xlink:href="#m23cf250985" y="115.926839"/>
     <use style="fill:#008fd5;stroke:#008fd5;" x="238.701218" xlink:href="#m23cf250985" y="179.23213"/>
     <use style="fill:#008fd5;stroke:#008fd5;" x="401.951598" xlink:href="#m23cf250985" y="49.456282"/>
     <use style="fill:#008fd5;stroke:#008fd5;" x="264.797004" xlink:href="#m23cf250985" y="81.108928"/>
     <use style="fill:#008fd5;stroke:#008fd5;" x="77.878354" xlink:href="#m23cf250985" y="204.554247"/>
     <use style="fill:#008fd5;stroke:#008fd5;" x="118.23579" xlink:href="#m23cf250985" y="153.910014"/>
     <use style="fill:#008fd5;stroke:#008fd5;" x="228.991159" xlink:href="#m23cf250985" y="128.587897"/>
     <use style="fill:#008fd5;stroke:#008fd5;" x="210.177918" xlink:href="#m23cf250985" y="169.736336"/>
     <use style="fill:#008fd5;stroke:#008fd5;" x="228.08084" xlink:href="#m23cf250985" y="125.422632"/>
     <use style="fill:#008fd5;stroke:#008fd5;" x="157.986347" xlink:href="#m23cf250985" y="163.405807"/>
     <use style="fill:#008fd5;stroke:#008fd5;" x="181.047739" xlink:href="#m23cf250985" y="172.901601"/>
     <use style="fill:#008fd5;stroke:#008fd5;" x="224.743007" xlink:href="#m23cf250985" y="147.579484"/>
     <use style="fill:#008fd5;stroke:#008fd5;" x="314.56106" xlink:href="#m23cf250985" y="109.596309"/>
     <use style="fill:#008fd5;stroke:#008fd5;" x="300.29941" xlink:href="#m23cf250985" y="166.571072"/>
     <use style="fill:#008fd5;stroke:#008fd5;" x="158.896665" xlink:href="#m23cf250985" y="220.38057"/>
     <use style="fill:#008fd5;stroke:#008fd5;" x="229.598037" xlink:href="#m23cf250985" y="100.100516"/>
     <use style="fill:#008fd5;stroke:#008fd5;" x="172.854876" xlink:href="#m23cf250985" y="166.571072"/>
     <use style="fill:#008fd5;stroke:#008fd5;" x="291.499668" xlink:href="#m23cf250985" y="119.092103"/>
     <use style="fill:#008fd5;stroke:#008fd5;" x="154.345074" xlink:href="#m23cf250985" y="163.405807"/>
     <use style="fill:#008fd5;stroke:#008fd5;" x="160.413862" xlink:href="#m23cf250985" y="122.257368"/>
     <use style="fill:#008fd5;stroke:#008fd5;" x="215.032948" xlink:href="#m23cf250985" y="131.753161"/>
     <use style="fill:#008fd5;stroke:#008fd5;" x="163.448255" xlink:href="#m23cf250985" y="169.736336"/>
     <use style="fill:#008fd5;stroke:#008fd5;" x="73.023324" xlink:href="#m23cf250985" y="195.058453"/>
     <use style="fill:#008fd5;stroke:#008fd5;" x="241.128733" xlink:href="#m23cf250985" y="141.248955"/>
     <use style="fill:#008fd5;stroke:#008fd5;" x="175.282391" xlink:href="#m23cf250985" y="125.422632"/>
     <use style="fill:#008fd5;stroke:#008fd5;" x="277.541457" xlink:href="#m23cf250985" y="125.422632"/>
     <use style="fill:#008fd5;stroke:#008fd5;" x="182.261496" xlink:href="#m23cf250985" y="141.248955"/>
     <use style="fill:#008fd5;stroke:#008fd5;" x="324.865829" xlink:href="#m23cf250985" y="71.613134"/>
     <use style="fill:#008fd5;stroke:#008fd5;" x="222.012053" xlink:href="#m23cf250985" y="185.562659"/>
     <use style="fill:#008fd5;stroke:#008fd5;" x="123.697698" xlink:href="#m23cf250985" y="166.571072"/>
     <use style="fill:#008fd5;stroke:#008fd5;" x="224.439568" xlink:href="#m23cf250985" y="138.083691"/>
     <use style="fill:#008fd5;stroke:#008fd5;" x="255.390383" xlink:href="#m23cf250985" y="100.100516"/>
     <use style="fill:#008fd5;stroke:#008fd5;" x="229.294598" xlink:href="#m23cf250985" y="128.587897"/>
     <use style="fill:#008fd5;stroke:#008fd5;" x="258.728216" xlink:href="#m23cf250985" y="107.823761"/>
     <use style="fill:#008fd5;stroke:#008fd5;" x="181.351178" xlink:href="#m23cf250985" y="188.727924"/>
     <use style="fill:#008fd5;stroke:#008fd5;" x="151.61412" xlink:href="#m23cf250985" y="195.058453"/>
     <use style="fill:#008fd5;stroke:#008fd5;" x="191.364677" xlink:href="#m23cf250985" y="166.571072"/>
     <use style="fill:#008fd5;stroke:#008fd5;" x="149.793484" xlink:href="#m23cf250985" y="163.405807"/>
     <use style="fill:#008fd5;stroke:#008fd5;" x="257.817898" xlink:href="#m23cf250985" y="84.274193"/>
     <use style="fill:#008fd5;stroke:#008fd5;" x="157.076029" xlink:href="#m23cf250985" y="191.893189"/>
     <use style="fill:#008fd5;stroke:#008fd5;" x="168.910164" xlink:href="#m23cf250985" y="125.422632"/>
     <use style="fill:#008fd5;stroke:#008fd5;" x="277.844897" xlink:href="#m23cf250985" y="141.248955"/>
     <use style="fill:#008fd5;stroke:#008fd5;" x="321.540165" xlink:href="#m23cf250985" y="93.769986"/>
     <use style="fill:#008fd5;stroke:#008fd5;" x="228.534172" xlink:href="#m23cf250985" y="131.753161"/>
     <use style="fill:#008fd5;stroke:#008fd5;" x="162.537937" xlink:href="#m23cf250985" y="191.893189"/>
     <use style="fill:#008fd5;stroke:#008fd5;" x="202.895373" xlink:href="#m23cf250985" y="100.100516"/>
     <use style="fill:#008fd5;stroke:#008fd5;" x="81.519626" xlink:href="#m23cf250985" y="182.397395"/>
     <use style="fill:#008fd5;stroke:#008fd5;" x="226.867083" xlink:href="#m23cf250985" y="138.083691"/>
     <use style="fill:#008fd5;stroke:#008fd5;" x="147.669408" xlink:href="#m23cf250985" y="188.727924"/>
     <use style="fill:#008fd5;stroke:#008fd5;" x="126.732092" xlink:href="#m23cf250985" y="179.23213"/>
     <use style="fill:#008fd5;stroke:#008fd5;" x="178.013345" xlink:href="#m23cf250985" y="150.744749"/>
     <use style="fill:#008fd5;stroke:#008fd5;" x="253.266308" xlink:href="#m23cf250985" y="93.769986"/>
     <use style="fill:#008fd5;stroke:#008fd5;" x="251.142232" xlink:href="#m23cf250985" y="84.274193"/>
     <use style="fill:#008fd5;stroke:#008fd5;" x="236.880582" xlink:href="#m23cf250985" y="131.753161"/>
     <use style="fill:#008fd5;stroke:#008fd5;" x="181.047739" xlink:href="#m23cf250985" y="150.744749"/>
     <use style="fill:#008fd5;stroke:#008fd5;" x="132.194" xlink:href="#m23cf250985" y="210.884776"/>
     <use style="fill:#008fd5;stroke:#008fd5;" x="255.693823" xlink:href="#m23cf250985" y="96.935251"/>
     <use style="fill:#008fd5;stroke:#008fd5;" x="133.407758" xlink:href="#m23cf250985" y="157.075278"/>
     <use style="fill:#008fd5;stroke:#008fd5;" x="345.815315" xlink:href="#m23cf250985" y="57.432749"/>
     <use style="fill:#008fd5;stroke:#008fd5;" x="154.648514" xlink:href="#m23cf250985" y="163.405807"/>
     <use style="fill:#008fd5;stroke:#008fd5;" x="248.714717" xlink:href="#m23cf250985" y="93.769986"/>
     <use style="fill:#008fd5;stroke:#008fd5;" x="127.945849" xlink:href="#m23cf250985" y="204.554247"/>
     <use style="fill:#008fd5;stroke:#008fd5;" x="182.261496" xlink:href="#m23cf250985" y="166.571072"/>
     <use style="fill:#008fd5;stroke:#008fd5;" x="219.584538" xlink:href="#m23cf250985" y="182.397395"/>
     <use style="fill:#008fd5;stroke:#008fd5;" x="280.272412" xlink:href="#m23cf250985" y="106.431045"/>
     <use style="fill:#008fd5;stroke:#008fd5;" x="332.160543" xlink:href="#m23cf250985" y="100.100516"/>
     <use style="fill:#008fd5;stroke:#008fd5;" x="146.455651" xlink:href="#m23cf250985" y="185.562659"/>
     <use style="fill:#008fd5;stroke:#008fd5;" x="366.145752" xlink:href="#m23cf250985" y="58.952076"/>
     <use style="fill:#008fd5;stroke:#008fd5;" x="215.943266" xlink:href="#m23cf250985" y="115.926839"/>
     <use style="fill:#008fd5;stroke:#008fd5;" x="215.689951" xlink:href="#m23cf250985" y="115.852069"/>
     <use style="fill:#008fd5;stroke:#008fd5;" x="217.460463" xlink:href="#m23cf250985" y="144.41422"/>
     <use style="fill:#008fd5;stroke:#008fd5;" x="218.067341" xlink:href="#m23cf250985" y="112.761574"/>
     <use style="fill:#008fd5;stroke:#008fd5;" x="173.765194" xlink:href="#m23cf250985" y="160.240543"/>
     <use style="fill:#008fd5;stroke:#008fd5;" x="212.301993" xlink:href="#m23cf250985" y="166.571072"/>
     <use style="fill:#008fd5;stroke:#008fd5;" x="108.829169" xlink:href="#m23cf250985" y="198.223718"/>
     <use style="fill:#008fd5;stroke:#008fd5;" x="91.229686" xlink:href="#m23cf250985" y="202.022035"/>
     <use style="fill:#008fd5;stroke:#008fd5;" x="125.214895" xlink:href="#m23cf250985" y="176.066866"/>
     <use style="fill:#008fd5;stroke:#008fd5;" x="270.865513" xlink:href="#m23cf250985" y="100.100516"/>
     <use style="fill:#008fd5;stroke:#008fd5;" x="309.70603" xlink:href="#m23cf250985" y="90.604722"/>
     <use style="fill:#008fd5;stroke:#008fd5;" x="137.35247" xlink:href="#m23cf250985" y="112.761574"/>
     <use style="fill:#008fd5;stroke:#008fd5;" x="174.068633" xlink:href="#m23cf250985" y="144.41422"/>
     <use style="fill:#008fd5;stroke:#008fd5;" x="282.093048" xlink:href="#m23cf250985" y="77.943664"/>
     <use style="fill:#008fd5;stroke:#008fd5;" x="211.088236" xlink:href="#m23cf250985" y="157.075278"/>
     <use style="fill:#008fd5;stroke:#008fd5;" x="274.452262" xlink:href="#m23cf250985" y="147.579484"/>
     <use style="fill:#008fd5;stroke:#008fd5;" x="100.029428" xlink:href="#m23cf250985" y="217.215305"/>
     <use style="fill:#008fd5;stroke:#008fd5;" x="209.874478" xlink:href="#m23cf250985" y="150.744749"/>
     <use style="fill:#008fd5;stroke:#008fd5;" x="255.693823" xlink:href="#m23cf250985" y="138.083691"/>
     <use style="fill:#008fd5;stroke:#008fd5;" x="198.040343" xlink:href="#m23cf250985" y="172.901601"/>
     <use style="fill:#008fd5;stroke:#008fd5;" x="103.367261" xlink:href="#m23cf250985" y="191.893189"/>
     <use style="fill:#008fd5;stroke:#008fd5;" x="165.572331" xlink:href="#m23cf250985" y="134.918426"/>
     <use style="fill:#008fd5;stroke:#008fd5;" x="125.214895" xlink:href="#m23cf250985" y="160.240543"/>
     <use style="fill:#008fd5;stroke:#008fd5;" x="285.430881" xlink:href="#m23cf250985" y="134.918426"/>
     <use style="fill:#008fd5;stroke:#008fd5;" x="230.204916" xlink:href="#m23cf250985" y="141.248955"/>
     <use style="fill:#008fd5;stroke:#008fd5;" x="267.224519" xlink:href="#m23cf250985" y="125.422632"/>
     <use style="fill:#008fd5;stroke:#008fd5;" x="370.090464" xlink:href="#m23cf250985" y="68.44787"/>
     <use style="fill:#008fd5;stroke:#008fd5;" x="205.626327" xlink:href="#m23cf250985" y="160.240543"/>
     <use style="fill:#008fd5;stroke:#008fd5;" x="296.658137" xlink:href="#m23cf250985" y="112.761574"/>
     <use style="fill:#008fd5;stroke:#008fd5;" x="283.003366" xlink:href="#m23cf250985" y="74.778399"/>
     <use style="fill:#008fd5;stroke:#008fd5;" x="107.008533" xlink:href="#m23cf250985" y="191.893189"/>
     <use style="fill:#008fd5;stroke:#008fd5;" x="161.931058" xlink:href="#m23cf250985" y="185.562659"/>
     <use style="fill:#008fd5;stroke:#008fd5;" x="377.979888" xlink:href="#m23cf250985" y="112.761574"/>
     <use style="fill:#008fd5;stroke:#008fd5;" x="298.782213" xlink:href="#m23cf250985" y="90.604722"/>
     <use style="fill:#008fd5;stroke:#008fd5;" x="168.303285" xlink:href="#m23cf250985" y="147.579484"/>
     <use style="fill:#008fd5;stroke:#008fd5;" x="210.784796" xlink:href="#m23cf250985" y="166.571072"/>
     <use style="fill:#008fd5;stroke:#008fd5;" x="324.877998" xlink:href="#m23cf250985" y="112.761574"/>
     <use style="fill:#008fd5;stroke:#008fd5;" x="222.922371" xlink:href="#m23cf250985" y="166.571072"/>
     <use style="fill:#008fd5;stroke:#008fd5;" x="182.868375" xlink:href="#m23cf250985" y="144.41422"/>
     <use style="fill:#008fd5;stroke:#008fd5;" x="188.937162" xlink:href="#m23cf250985" y="160.240543"/>
     <use style="fill:#008fd5;stroke:#008fd5;" x="195.610152" xlink:href="#m23cf250985" y="153.910014"/>
     <use style="fill:#008fd5;stroke:#008fd5;" x="202.288494" xlink:href="#m23cf250985" y="122.257368"/>
     <use style="fill:#008fd5;stroke:#008fd5;" x="177.406466" xlink:href="#m23cf250985" y="166.571072"/>
     <use style="fill:#008fd5;stroke:#008fd5;" x="199.254101" xlink:href="#m23cf250985" y="153.910014"/>
     <use style="fill:#008fd5;stroke:#008fd5;" x="235.059946" xlink:href="#m23cf250985" y="138.083691"/>
     <use style="fill:#008fd5;stroke:#008fd5;" x="252.659429" xlink:href="#m23cf250985" y="106.431045"/>
     <use style="fill:#008fd5;stroke:#008fd5;" x="195.612828" xlink:href="#m23cf250985" y="169.736336"/>
     <use style="fill:#008fd5;stroke:#008fd5;" x="259.638535" xlink:href="#m23cf250985" y="109.596309"/>
     <use style="fill:#008fd5;stroke:#008fd5;" x="231.418673" xlink:href="#m23cf250985" y="125.422632"/>
     <use style="fill:#008fd5;stroke:#008fd5;" x="306.671636" xlink:href="#m23cf250985" y="77.943664"/>
     <use style="fill:#008fd5;stroke:#008fd5;" x="249.625035" xlink:href="#m23cf250985" y="125.422632"/>
     <use style="fill:#008fd5;stroke:#008fd5;" x="206.536645" xlink:href="#m23cf250985" y="150.744749"/>
     <use style="fill:#008fd5;stroke:#008fd5;" x="205.322888" xlink:href="#m23cf250985" y="150.744749"/>
     <use style="fill:#008fd5;stroke:#008fd5;" x="310.00947" xlink:href="#m23cf250985" y="103.26578"/>
     <use style="fill:#008fd5;stroke:#008fd5;" x="218.67422" xlink:href="#m23cf250985" y="150.744749"/>
     <use style="fill:#008fd5;stroke:#008fd5;" x="245.680324" xlink:href="#m23cf250985" y="115.926839"/>
     <use style="fill:#008fd5;stroke:#008fd5;" x="79.395551" xlink:href="#m23cf250985" y="201.388982"/>
     <use style="fill:#008fd5;stroke:#008fd5;" x="344.601557" xlink:href="#m23cf250985" y="68.44787"/>
     <use style="fill:#008fd5;stroke:#008fd5;" x="337.622452" xlink:href="#m23cf250985" y="112.761574"/>
     <use style="fill:#008fd5;stroke:#008fd5;" x="248.714717" xlink:href="#m23cf250985" y="122.257368"/>
     <use style="fill:#008fd5;stroke:#008fd5;" x="223.832689" xlink:href="#m23cf250985" y="150.744749"/>
     <use style="fill:#008fd5;stroke:#008fd5;" x="227.777401" xlink:href="#m23cf250985" y="134.918426"/>
     <use style="fill:#008fd5;stroke:#008fd5;" x="263.583246" xlink:href="#m23cf250985" y="141.248955"/>
     <use style="fill:#008fd5;stroke:#008fd5;" x="239.004658" xlink:href="#m23cf250985" y="128.587897"/>
     <use style="fill:#008fd5;stroke:#008fd5;" x="210.177918" xlink:href="#m23cf250985" y="131.753161"/>
     <use style="fill:#008fd5;stroke:#008fd5;" x="340.353406" xlink:href="#m23cf250985" y="71.613134"/>
     <use style="fill:#008fd5;stroke:#008fd5;" x="169.517043" xlink:href="#m23cf250985" y="172.901601"/>
     <use style="fill:#008fd5;stroke:#008fd5;" x="284.217123" xlink:href="#m23cf250985" y="125.422632"/>
     <use style="fill:#008fd5;stroke:#008fd5;" x="236.026634" xlink:href="#m23cf250985" y="109.371999"/>
     <use style="fill:#008fd5;stroke:#008fd5;" x="268.741716" xlink:href="#m23cf250985" y="106.431045"/>
     <use style="fill:#008fd5;stroke:#008fd5;" x="212.605433" xlink:href="#m23cf250985" y="160.240543"/>
     <use style="fill:#008fd5;stroke:#008fd5;" x="286.644638" xlink:href="#m23cf250985" y="96.935251"/>
     <use style="fill:#008fd5;stroke:#008fd5;" x="176.799587" xlink:href="#m23cf250985" y="169.736336"/>
     <use style="fill:#008fd5;stroke:#008fd5;" x="142.510939" xlink:href="#m23cf250985" y="169.736336"/>
     <use style="fill:#008fd5;stroke:#008fd5;" x="292.713426" xlink:href="#m23cf250985" y="103.26578"/>
     <use style="fill:#008fd5;stroke:#008fd5;" x="220.191417" xlink:href="#m23cf250985" y="144.41422"/>
     <use style="fill:#008fd5;stroke:#008fd5;" x="205.019449" xlink:href="#m23cf250985" y="157.075278"/>
     <use style="fill:#008fd5;stroke:#008fd5;" x="240.521854" xlink:href="#m23cf250985" y="93.769986"/>
     <use style="fill:#008fd5;stroke:#008fd5;" x="163.751695" xlink:href="#m23cf250985" y="147.579484"/>
     <use style="fill:#008fd5;stroke:#008fd5;" x="112.773881" xlink:href="#m23cf250985" y="153.910014"/>
     <use style="fill:#008fd5;stroke:#008fd5;" x="161.02074" xlink:href="#m23cf250985" y="131.753161"/>
     <use style="fill:#008fd5;stroke:#008fd5;" x="141.297181" xlink:href="#m23cf250985" y="210.884776"/>
     <use style="fill:#008fd5;stroke:#008fd5;" x="261.459171" xlink:href="#m23cf250985" y="119.092103"/>
     <use style="fill:#008fd5;stroke:#008fd5;" x="121.573623" xlink:href="#m23cf250985" y="198.223718"/>
     <use style="fill:#008fd5;stroke:#008fd5;" x="208.357282" xlink:href="#m23cf250985" y="153.023739"/>
     <use style="fill:#008fd5;stroke:#008fd5;" x="256.300702" xlink:href="#m23cf250985" y="106.431045"/>
     <use style="fill:#008fd5;stroke:#008fd5;" x="286.03776" xlink:href="#m23cf250985" y="107.950372"/>
     <use style="fill:#008fd5;stroke:#008fd5;" x="211.391675" xlink:href="#m23cf250985" y="188.727924"/>
     <use style="fill:#008fd5;stroke:#008fd5;" x="256.300702" xlink:href="#m23cf250985" y="112.761574"/>
     <use style="fill:#008fd5;stroke:#008fd5;" x="240.218415" xlink:href="#m23cf250985" y="107.950372"/>
     <use style="fill:#008fd5;stroke:#008fd5;" x="344.298118" xlink:href="#m23cf250985" y="83.008087"/>
     <use style="fill:#008fd5;stroke:#008fd5;" x="260.548853" xlink:href="#m23cf250985" y="122.890421"/>
     <use style="fill:#008fd5;stroke:#008fd5;" x="256.604141" xlink:href="#m23cf250985" y="138.083691"/>
     <use style="fill:#008fd5;stroke:#008fd5;" x="248.714717" xlink:href="#m23cf250985" y="109.596309"/>
     <use style="fill:#008fd5;stroke:#008fd5;" x="120.966744" xlink:href="#m23cf250985" y="176.066866"/>
     <use style="fill:#008fd5;stroke:#008fd5;" x="132.202515" xlink:href="#m23cf250985" y="179.15736"/>
     <use style="fill:#008fd5;stroke:#008fd5;" x="264.493564" xlink:href="#m23cf250985" y="176.066866"/>
     <use style="fill:#008fd5;stroke:#008fd5;" x="289.072153" xlink:href="#m23cf250985" y="48.063566"/>
     <use style="fill:#008fd5;stroke:#008fd5;" x="238.397779" xlink:href="#m23cf250985" y="122.257368"/>
     <use style="fill:#008fd5;stroke:#008fd5;" x="136.138712" xlink:href="#m23cf250985" y="176.066866"/>
     <use style="fill:#008fd5;stroke:#008fd5;" x="261.155731" xlink:href="#m23cf250985" y="83.008087"/>
     <use style="fill:#008fd5;stroke:#008fd5;" x="147.669408" xlink:href="#m23cf250985" y="163.405807"/>
     <use style="fill:#008fd5;stroke:#008fd5;" x="246.590642" xlink:href="#m23cf250985" y="103.26578"/>
     <use style="fill:#008fd5;stroke:#008fd5;" x="333.374301" xlink:href="#m23cf250985" y="93.769986"/>
     <use style="fill:#008fd5;stroke:#008fd5;" x="320.629847" xlink:href="#m23cf250985" y="112.761574"/>
     <use style="fill:#008fd5;stroke:#008fd5;" x="259.335095" xlink:href="#m23cf250985" y="138.083691"/>
     <use style="fill:#008fd5;stroke:#008fd5;" x="201.378176" xlink:href="#m23cf250985" y="150.744749"/>
     <use style="fill:#008fd5;stroke:#008fd5;" x="106.401654" xlink:href="#m23cf250985" y="182.397395"/>
     <use style="fill:#008fd5;stroke:#008fd5;" x="275.113942" xlink:href="#m23cf250985" y="152.770518"/>
     <use style="fill:#008fd5;stroke:#008fd5;" x="215.032948" xlink:href="#m23cf250985" y="153.910014"/>
     <use style="fill:#008fd5;stroke:#008fd5;" x="98.512231" xlink:href="#m23cf250985" y="188.727924"/>
     <use style="fill:#008fd5;stroke:#008fd5;" x="246.590642" xlink:href="#m23cf250985" y="109.596309"/>
     <use style="fill:#008fd5;stroke:#008fd5;" x="234.149628" xlink:href="#m23cf250985" y="157.075278"/>
     <use style="fill:#008fd5;stroke:#008fd5;" x="247.804399" xlink:href="#m23cf250985" y="144.41422"/>
     <use style="fill:#008fd5;stroke:#008fd5;" x="177.709905" xlink:href="#m23cf250985" y="176.066866"/>
     <use style="fill:#008fd5;stroke:#008fd5;" x="279.362093" xlink:href="#m23cf250985" y="214.050041"/>
     <use style="fill:#008fd5;stroke:#008fd5;" x="223.52925" xlink:href="#m23cf250985" y="125.422632"/>
     <use style="fill:#008fd5;stroke:#008fd5;" x="192.578434" xlink:href="#m23cf250985" y="138.083691"/>
     <use style="fill:#008fd5;stroke:#008fd5;" x="186.206208" xlink:href="#m23cf250985" y="195.058453"/>
     <use style="fill:#008fd5;stroke:#008fd5;" x="224.439568" xlink:href="#m23cf250985" y="122.257368"/>
     <use style="fill:#008fd5;stroke:#008fd5;" x="289.072153" xlink:href="#m23cf250985" y="176.066866"/>
     <use style="fill:#008fd5;stroke:#008fd5;" x="267.831397" xlink:href="#m23cf250985" y="112.761574"/>
     <use style="fill:#008fd5;stroke:#008fd5;" x="288.465274" xlink:href="#m23cf250985" y="87.439457"/>
     <use style="fill:#008fd5;stroke:#008fd5;" x="209.874478" xlink:href="#m23cf250985" y="138.083691"/>
     <use style="fill:#008fd5;stroke:#008fd5;" x="120.663304" xlink:href="#m23cf250985" y="144.41422"/>
     <use style="fill:#008fd5;stroke:#008fd5;" x="199.478618" xlink:href="#m23cf250985" y="204.554247"/>
     <use style="fill:#008fd5;stroke:#008fd5;" x="241.128733" xlink:href="#m23cf250985" y="93.769986"/>
     <use style="fill:#008fd5;stroke:#008fd5;" x="188.633723" xlink:href="#m23cf250985" y="106.431045"/>
     <use style="fill:#008fd5;stroke:#008fd5;" x="149.328143" xlink:href="#m23cf250985" y="138.283077"/>
     <use style="fill:#008fd5;stroke:#008fd5;" x="203.916082" xlink:href="#m23cf250985" y="106.381198"/>
     <use style="fill:#008fd5;stroke:#008fd5;" x="314.56106" xlink:href="#m23cf250985" y="62.117341"/>
     <use style="fill:#008fd5;stroke:#008fd5;" x="200.467858" xlink:href="#m23cf250985" y="163.405807"/>
     <use style="fill:#008fd5;stroke:#008fd5;" x="166.17921" xlink:href="#m23cf250985" y="109.596309"/>
     <use style="fill:#008fd5;stroke:#008fd5;" x="204.41257" xlink:href="#m23cf250985" y="138.083691"/>
     <use style="fill:#008fd5;stroke:#008fd5;" x="304.244122" xlink:href="#m23cf250985" y="81.108928"/>
     <use style="fill:#008fd5;stroke:#008fd5;" x="151.917559" xlink:href="#m23cf250985" y="171.255664"/>
     <use style="fill:#008fd5;stroke:#008fd5;" x="198.647222" xlink:href="#m23cf250985" y="153.910014"/>
     <use style="fill:#008fd5;stroke:#008fd5;" x="124.608016" xlink:href="#m23cf250985" y="169.736336"/>
     <use style="fill:#008fd5;stroke:#008fd5;" x="213.81919" xlink:href="#m23cf250985" y="144.41422"/>
     <use style="fill:#008fd5;stroke:#008fd5;" x="147.972848" xlink:href="#m23cf250985" y="179.23213"/>
     <use style="fill:#008fd5;stroke:#008fd5;" x="212.605433" xlink:href="#m23cf250985" y="138.083691"/>
     <use style="fill:#008fd5;stroke:#008fd5;" x="211.695115" xlink:href="#m23cf250985" y="131.753161"/>
     <use style="fill:#008fd5;stroke:#008fd5;" x="252.962869" xlink:href="#m23cf250985" y="109.596309"/>
     <use style="fill:#008fd5;stroke:#008fd5;" x="162.234498" xlink:href="#m23cf250985" y="182.397395"/>
     <use style="fill:#008fd5;stroke:#008fd5;" x="179.833981" xlink:href="#m23cf250985" y="131.753161"/>
     <use style="fill:#008fd5;stroke:#008fd5;" x="177.406466" xlink:href="#m23cf250985" y="150.744749"/>
     <use style="fill:#008fd5;stroke:#008fd5;" x="243.859688" xlink:href="#m23cf250985" y="100.100516"/>
     <use style="fill:#008fd5;stroke:#008fd5;" x="107.008533" xlink:href="#m23cf250985" y="198.223718"/>
     <use style="fill:#008fd5;stroke:#008fd5;" x="298.782213" xlink:href="#m23cf250985" y="100.100516"/>
     <use style="fill:#008fd5;stroke:#008fd5;" x="319.112651" xlink:href="#m23cf250985" y="131.753161"/>
     <use style="fill:#008fd5;stroke:#008fd5;" x="302.726925" xlink:href="#m23cf250985" y="119.092103"/>
    </g>
   </g>
   <g id="line2d_26">
    <path clip-path="url(#p7221d9a9bf)" d="M 73.023324 202.523542 
L 76.440051 201.082357 
L 79.856778 199.641172 
L 83.273506 198.200063 
L 86.690233 196.758878 
L 90.10696 195.317769 
L 93.523687 193.876584 
L 96.940415 192.435399 
L 100.357142 190.99429 
L 103.773869 189.553105 
L 107.190597 188.11192 
L 110.607324 186.670811 
L 114.024051 185.229626 
L 117.440778 183.788441 
L 120.857506 182.347332 
L 124.274233 180.906147 
L 127.69096 179.464962 
L 131.107687 178.023853 
L 134.524415 176.582668 
L 137.941142 175.141559 
L 141.357869 173.700374 
L 144.774597 172.259189 
L 148.191324 170.81808 
L 151.608051 169.376895 
L 155.024778 167.93571 
L 158.441506 166.494601 
L 161.858233 165.053416 
L 165.27496 163.612231 
L 168.691687 162.171122 
L 172.108415 160.729937 
L 175.525142 159.288752 
L 178.941869 157.847643 
L 182.358597 156.406458 
L 185.775324 154.965349 
L 189.192051 153.524164 
L 192.608778 152.082979 
L 196.025506 150.64187 
L 199.442233 149.200685 
L 202.85896 147.7595 
L 206.275687 146.318391 
L 209.692415 144.877206 
L 213.109142 143.436021 
L 216.525869 141.994912 
L 219.942597 140.553727 
L 223.359324 139.112542 
L 226.776051 137.671433 
L 230.192778 136.230248 
L 233.609506 134.789139 
L 237.026233 133.347954 
L 240.44296 131.906769 
L 243.859688 130.46566 
L 247.276415 129.024475 
L 250.693142 127.58329 
L 254.109869 126.142181 
L 257.526597 124.700996 
L 260.943324 123.259811 
L 264.360051 121.818702 
L 267.776778 120.377517 
L 271.193506 118.936332 
L 274.610233 117.495223 
L 278.02696 116.054038 
L 281.443688 114.612929 
L 284.860415 113.171744 
L 288.277142 111.730559 
L 291.693869 110.28945 
L 295.110597 108.848265 
L 298.527324 107.40708 
L 301.944051 105.965971 
L 305.360778 104.524786 
L 308.777506 103.083601 
L 312.194233 101.642492 
L 315.61096 100.201307 
L 319.027687 98.760198 
L 322.444415 97.319013 
L 325.861142 95.877828 
L 329.277869 94.436719 
L 332.694597 92.995534 
L 336.111324 91.554349 
L 339.528051 90.11324 
L 342.944778 88.672055 
L 346.361506 87.23087 
L 349.778233 85.789761 
L 353.19496 84.348576 
L 356.611687 82.907391 
L 360.028415 81.466282 
L 363.445142 80.025097 
L 366.861869 78.583912 
L 370.278597 77.142803 
L 373.695324 75.701618 
L 377.112051 74.260509 
L 380.528778 72.819324 
L 383.945506 71.378139 
L 387.362233 69.93703 
L 390.77896 68.495845 
L 394.195687 67.05466 
L 397.612415 65.613551 
L 401.029142 64.172366 
L 404.445869 62.731181 
L 407.862597 61.290072 
L 411.279324 59.848887 
L 414.696051 58.407778 
" style="fill:none;stroke:#fc4f30;stroke-width:4;"/>
   </g>
   <g id="patch_3">
    <path d="M 55.939688 240.48 
L 55.939688 7.2 
" style="fill:none;stroke:#f0f0f0;stroke-linecap:square;stroke-linejoin:miter;stroke-width:3;"/>
   </g>
   <g id="patch_4">
    <path d="M 431.779687 240.48 
L 431.779687 7.2 
" style="fill:none;stroke:#f0f0f0;stroke-linecap:square;stroke-linejoin:miter;stroke-width:3;"/>
   </g>
   <g id="patch_5">
    <path d="M 55.939687 240.48 
L 431.779687 240.48 
" style="fill:none;stroke:#f0f0f0;stroke-linecap:square;stroke-linejoin:miter;stroke-width:3;"/>
   </g>
   <g id="patch_6">
    <path d="M 55.939687 7.2 
L 431.779687 7.2 
" style="fill:none;stroke:#f0f0f0;stroke-linecap:square;stroke-linejoin:miter;stroke-width:3;"/>
   </g>
  </g>
 </g>
 <defs>
  <clipPath id="p7221d9a9bf">
   <rect height="233.28" width="375.84" x="55.939688" y="7.2"/>
  </clipPath>
 </defs>
</svg>
