<?xml version="1.0" encoding="utf-8" standalone="no"?>
<!DOCTYPE svg PUBLIC "-//W3C//DTD SVG 1.1//EN"
  "http://www.w3.org/Graphics/SVG/1.1/DTD/svg11.dtd">
<!-- Created with matplotlib (https://matplotlib.org/) -->
<svg height="270.552205pt" version="1.1" viewBox="0 0 619.290188 270.552205" width="619.290188pt" xmlns="http://www.w3.org/2000/svg" xmlns:xlink="http://www.w3.org/1999/xlink">
 <metadata>
  <rdf:RDF xmlns:cc="http://creativecommons.org/ns#" xmlns:dc="http://purl.org/dc/elements/1.1/" xmlns:rdf="http://www.w3.org/1999/02/22-rdf-syntax-ns#">
   <cc:Work>
    <dc:type rdf:resource="http://purl.org/dc/dcmitype/StillImage"/>
    <dc:date>2021-03-15T18:15:47.739574</dc:date>
    <dc:format>image/svg+xml</dc:format>
    <dc:creator>
     <cc:Agent>
      <dc:title>Matplotlib v3.3.4, https://matplotlib.org/</dc:title>
     </cc:Agent>
    </dc:creator>
   </cc:Work>
  </rdf:RDF>
 </metadata>
 <defs>
  <style type="text/css">*{stroke-linecap:butt;stroke-linejoin:round;}</style>
 </defs>
 <g id="figure_1">
  <g id="patch_1">
   <path d="M 0 270.552205 
L 619.290188 270.552205 
L 619.290188 0 
L 0 0 
z
" style="fill:#f0f0f0;"/>
  </g>
  <g id="axes_1">
   <g id="patch_2">
    <path d="M 64.955188 226.04358 
L 295.650188 226.04358 
L 295.650188 53.18358 
L 64.955188 53.18358 
z
" style="fill:#f0f0f0;"/>
   </g>
   <g id="matplotlib.axis_1">
    <g id="xtick_1">
     <g id="line2d_1">
      <path clip-path="url(#p9679a14e8f)" d="M 103.404354 226.04358 
L 103.404354 53.18358 
" style="fill:none;stroke:#cbcbcb;"/>
     </g>
     <g id="line2d_2"/>
     <g id="text_1">
      <!-- −1 -->
      <g transform="translate(93.084823 240.181393)scale(0.14 -0.14)">
       <defs>
        <path d="M 10.59375 35.5 
L 73.1875 35.5 
L 73.1875 27.203125 
L 10.59375 27.203125 
z
" id="DejaVuSans-8722"/>
        <path d="M 12.40625 8.296875 
L 28.515625 8.296875 
L 28.515625 63.921875 
L 10.984375 60.40625 
L 10.984375 69.390625 
L 28.421875 72.90625 
L 38.28125 72.90625 
L 38.28125 8.296875 
L 54.390625 8.296875 
L 54.390625 0 
L 12.40625 0 
z
" id="DejaVuSans-49"/>
       </defs>
       <use xlink:href="#DejaVuSans-8722"/>
       <use x="83.789062" xlink:href="#DejaVuSans-49"/>
      </g>
     </g>
    </g>
    <g id="xtick_2">
     <g id="line2d_3">
      <path clip-path="url(#p9679a14e8f)" d="M 180.302687 226.04358 
L 180.302687 53.18358 
" style="fill:none;stroke:#cbcbcb;"/>
     </g>
     <g id="line2d_4"/>
     <g id="text_2">
      <!-- 0 -->
      <g transform="translate(175.848937 240.181393)scale(0.14 -0.14)">
       <defs>
        <path d="M 31.78125 66.40625 
Q 24.171875 66.40625 20.328125 58.90625 
Q 16.5 51.421875 16.5 36.375 
Q 16.5 21.390625 20.328125 13.890625 
Q 24.171875 6.390625 31.78125 6.390625 
Q 39.453125 6.390625 43.28125 13.890625 
Q 47.125 21.390625 47.125 36.375 
Q 47.125 51.421875 43.28125 58.90625 
Q 39.453125 66.40625 31.78125 66.40625 
z
M 31.78125 74.21875 
Q 44.046875 74.21875 50.515625 64.515625 
Q 56.984375 54.828125 56.984375 36.375 
Q 56.984375 17.96875 50.515625 8.265625 
Q 44.046875 -1.421875 31.78125 -1.421875 
Q 19.53125 -1.421875 13.0625 8.265625 
Q 6.59375 17.96875 6.59375 36.375 
Q 6.59375 54.828125 13.0625 64.515625 
Q 19.53125 74.21875 31.78125 74.21875 
z
" id="DejaVuSans-48"/>
       </defs>
       <use xlink:href="#DejaVuSans-48"/>
      </g>
     </g>
    </g>
    <g id="xtick_3">
     <g id="line2d_5">
      <path clip-path="url(#p9679a14e8f)" d="M 257.201021 226.04358 
L 257.201021 53.18358 
" style="fill:none;stroke:#cbcbcb;"/>
     </g>
     <g id="line2d_6"/>
     <g id="text_3">
      <!-- 1 -->
      <g transform="translate(252.747271 240.181393)scale(0.14 -0.14)">
       <use xlink:href="#DejaVuSans-49"/>
      </g>
     </g>
    </g>
    <g id="text_4">
     <!-- a1 -->
     <g transform="translate(169.810563 259.85833)scale(0.168 -0.168)">
      <defs>
       <path d="M 34.28125 27.484375 
Q 23.390625 27.484375 19.1875 25 
Q 14.984375 22.515625 14.984375 16.5 
Q 14.984375 11.71875 18.140625 8.90625 
Q 21.296875 6.109375 26.703125 6.109375 
Q 34.1875 6.109375 38.703125 11.40625 
Q 43.21875 16.703125 43.21875 25.484375 
L 43.21875 27.484375 
z
M 52.203125 31.203125 
L 52.203125 0 
L 43.21875 0 
L 43.21875 8.296875 
Q 40.140625 3.328125 35.546875 0.953125 
Q 30.953125 -1.421875 24.3125 -1.421875 
Q 15.921875 -1.421875 10.953125 3.296875 
Q 6 8.015625 6 15.921875 
Q 6 25.140625 12.171875 29.828125 
Q 18.359375 34.515625 30.609375 34.515625 
L 43.21875 34.515625 
L 43.21875 35.40625 
Q 43.21875 41.609375 39.140625 45 
Q 35.0625 48.390625 27.6875 48.390625 
Q 23 48.390625 18.546875 47.265625 
Q 14.109375 46.140625 10.015625 43.890625 
L 10.015625 52.203125 
Q 14.9375 54.109375 19.578125 55.046875 
Q 24.21875 56 28.609375 56 
Q 40.484375 56 46.34375 49.84375 
Q 52.203125 43.703125 52.203125 31.203125 
z
" id="DejaVuSans-97"/>
      </defs>
      <use xlink:href="#DejaVuSans-97"/>
      <use x="61.279297" xlink:href="#DejaVuSans-49"/>
     </g>
    </g>
   </g>
   <g id="matplotlib.axis_2">
    <g id="ytick_1">
     <g id="line2d_7">
      <path clip-path="url(#p9679a14e8f)" d="M 64.955188 226.04358 
L 295.650188 226.04358 
" style="fill:none;stroke:#cbcbcb;"/>
     </g>
     <g id="line2d_8"/>
     <g id="text_5">
      <!-- −1.5 -->
      <g transform="translate(27.45925 231.362486)scale(0.14 -0.14)">
       <defs>
        <path d="M 10.6875 12.40625 
L 21 12.40625 
L 21 0 
L 10.6875 0 
z
" id="DejaVuSans-46"/>
        <path d="M 10.796875 72.90625 
L 49.515625 72.90625 
L 49.515625 64.59375 
L 19.828125 64.59375 
L 19.828125 46.734375 
Q 21.96875 47.46875 24.109375 47.828125 
Q 26.265625 48.1875 28.421875 48.1875 
Q 40.625 48.1875 47.75 41.5 
Q 54.890625 34.8125 54.890625 23.390625 
Q 54.890625 11.625 47.5625 5.09375 
Q 40.234375 -1.421875 26.90625 -1.421875 
Q 22.3125 -1.421875 17.546875 -0.640625 
Q 12.796875 0.140625 7.71875 1.703125 
L 7.71875 11.625 
Q 12.109375 9.234375 16.796875 8.0625 
Q 21.484375 6.890625 26.703125 6.890625 
Q 35.15625 6.890625 40.078125 11.328125 
Q 45.015625 15.765625 45.015625 23.390625 
Q 45.015625 31 40.078125 35.4375 
Q 35.15625 39.890625 26.703125 39.890625 
Q 22.75 39.890625 18.8125 39.015625 
Q 14.890625 38.140625 10.796875 36.28125 
z
" id="DejaVuSans-53"/>
       </defs>
       <use xlink:href="#DejaVuSans-8722"/>
       <use x="83.789062" xlink:href="#DejaVuSans-49"/>
       <use x="147.412109" xlink:href="#DejaVuSans-46"/>
       <use x="179.199219" xlink:href="#DejaVuSans-53"/>
      </g>
     </g>
    </g>
    <g id="ytick_2">
     <g id="line2d_9">
      <path clip-path="url(#p9679a14e8f)" d="M 64.955188 197.23358 
L 295.650188 197.23358 
" style="fill:none;stroke:#cbcbcb;"/>
     </g>
     <g id="line2d_10"/>
     <g id="text_6">
      <!-- −1.0 -->
      <g transform="translate(27.45925 202.552486)scale(0.14 -0.14)">
       <use xlink:href="#DejaVuSans-8722"/>
       <use x="83.789062" xlink:href="#DejaVuSans-49"/>
       <use x="147.412109" xlink:href="#DejaVuSans-46"/>
       <use x="179.199219" xlink:href="#DejaVuSans-48"/>
      </g>
     </g>
    </g>
    <g id="ytick_3">
     <g id="line2d_11">
      <path clip-path="url(#p9679a14e8f)" d="M 64.955188 168.42358 
L 295.650188 168.42358 
" style="fill:none;stroke:#cbcbcb;"/>
     </g>
     <g id="line2d_12"/>
     <g id="text_7">
      <!-- −0.5 -->
      <g transform="translate(27.45925 173.742486)scale(0.14 -0.14)">
       <use xlink:href="#DejaVuSans-8722"/>
       <use x="83.789062" xlink:href="#DejaVuSans-48"/>
       <use x="147.412109" xlink:href="#DejaVuSans-46"/>
       <use x="179.199219" xlink:href="#DejaVuSans-53"/>
      </g>
     </g>
    </g>
    <g id="ytick_4">
     <g id="line2d_13">
      <path clip-path="url(#p9679a14e8f)" d="M 64.955188 139.61358 
L 295.650188 139.61358 
" style="fill:none;stroke:#cbcbcb;"/>
     </g>
     <g id="line2d_14"/>
     <g id="text_8">
      <!-- 0.0 -->
      <g transform="translate(39.190813 144.932486)scale(0.14 -0.14)">
       <use xlink:href="#DejaVuSans-48"/>
       <use x="63.623047" xlink:href="#DejaVuSans-46"/>
       <use x="95.410156" xlink:href="#DejaVuSans-48"/>
      </g>
     </g>
    </g>
    <g id="ytick_5">
     <g id="line2d_15">
      <path clip-path="url(#p9679a14e8f)" d="M 64.955188 110.80358 
L 295.650188 110.80358 
" style="fill:none;stroke:#cbcbcb;"/>
     </g>
     <g id="line2d_16"/>
     <g id="text_9">
      <!-- 0.5 -->
      <g transform="translate(39.190813 116.122486)scale(0.14 -0.14)">
       <use xlink:href="#DejaVuSans-48"/>
       <use x="63.623047" xlink:href="#DejaVuSans-46"/>
       <use x="95.410156" xlink:href="#DejaVuSans-53"/>
      </g>
     </g>
    </g>
    <g id="ytick_6">
     <g id="line2d_17">
      <path clip-path="url(#p9679a14e8f)" d="M 64.955188 81.99358 
L 295.650188 81.99358 
" style="fill:none;stroke:#cbcbcb;"/>
     </g>
     <g id="line2d_18"/>
     <g id="text_10">
      <!-- 1.0 -->
      <g transform="translate(39.190813 87.312486)scale(0.14 -0.14)">
       <use xlink:href="#DejaVuSans-49"/>
       <use x="63.623047" xlink:href="#DejaVuSans-46"/>
       <use x="95.410156" xlink:href="#DejaVuSans-48"/>
      </g>
     </g>
    </g>
    <g id="ytick_7">
     <g id="line2d_19">
      <path clip-path="url(#p9679a14e8f)" d="M 64.955188 53.18358 
L 295.650188 53.18358 
" style="fill:none;stroke:#cbcbcb;"/>
     </g>
     <g id="line2d_20"/>
     <g id="text_11">
      <!-- 1.5 -->
      <g transform="translate(39.190813 58.502486)scale(0.14 -0.14)">
       <use xlink:href="#DejaVuSans-49"/>
       <use x="63.623047" xlink:href="#DejaVuSans-46"/>
       <use x="95.410156" xlink:href="#DejaVuSans-53"/>
      </g>
     </g>
    </g>
    <g id="text_12">
     <!-- a2 -->
     <g transform="translate(19.965375 150.105705)rotate(-90)scale(0.168 -0.168)">
      <defs>
       <path d="M 19.1875 8.296875 
L 53.609375 8.296875 
L 53.609375 0 
L 7.328125 0 
L 7.328125 8.296875 
Q 12.9375 14.109375 22.625 23.890625 
Q 32.328125 33.6875 34.8125 36.53125 
Q 39.546875 41.84375 41.421875 45.53125 
Q 43.3125 49.21875 43.3125 52.78125 
Q 43.3125 58.59375 39.234375 62.25 
Q 35.15625 65.921875 28.609375 65.921875 
Q 23.96875 65.921875 18.8125 64.3125 
Q 13.671875 62.703125 7.8125 59.421875 
L 7.8125 69.390625 
Q 13.765625 71.78125 18.9375 73 
Q 24.125 74.21875 28.421875 74.21875 
Q 39.75 74.21875 46.484375 68.546875 
Q 53.21875 62.890625 53.21875 53.421875 
Q 53.21875 48.921875 51.53125 44.890625 
Q 49.859375 40.875 45.40625 35.40625 
Q 44.1875 33.984375 37.640625 27.21875 
Q 31.109375 20.453125 19.1875 8.296875 
z
" id="DejaVuSans-50"/>
      </defs>
      <use xlink:href="#DejaVuSans-97"/>
      <use x="61.279297" xlink:href="#DejaVuSans-50"/>
     </g>
    </g>
   </g>
   <g id="PathCollection_1">
    <defs>
     <path d="M -4.472136 4.472136 
L 4.472136 -4.472136 
M -4.472136 -4.472136 
L 4.472136 4.472136 
" id="m22b46a49c9" style="stroke:#000000;stroke-width:4;"/>
    </defs>
    <g clip-path="url(#p9679a14e8f)">
     <use style="stroke:#000000;stroke-width:4;" x="141.853521" xlink:href="#m22b46a49c9" y="110.80358"/>
    </g>
   </g>
   <g id="PathCollection_2">
    <defs>
     <path d="M 0 3 
C 0.795609 3 1.55874 2.683901 2.12132 2.12132 
C 2.683901 1.55874 3 0.795609 3 0 
C 3 -0.795609 2.683901 -1.55874 2.12132 -2.12132 
C 1.55874 -2.683901 0.795609 -3 0 -3 
C -0.795609 -3 -1.55874 -2.683901 -2.12132 -2.12132 
C -2.683901 -1.55874 -3 -0.795609 -3 0 
C -3 0.795609 -2.683901 1.55874 -2.12132 2.12132 
C -1.55874 2.683901 -0.795609 3 0 3 
z
" id="m96f5523732" style="stroke:#ffffff;stroke-opacity:0.7;stroke-width:0.48;"/>
    </defs>
    <g clip-path="url(#p9679a14e8f)">
     <use style="fill:#008fd5;fill-opacity:0.7;stroke:#ffffff;stroke-opacity:0.7;stroke-width:0.48;" x="141.853521" xlink:href="#m96f5523732" y="110.80358"/>
     <use style="fill:#008fd5;fill-opacity:0.7;stroke:#ffffff;stroke-opacity:0.7;stroke-width:0.48;" x="134.93468" xlink:href="#m96f5523732" y="112.595313"/>
     <use style="fill:#008fd5;fill-opacity:0.7;stroke:#ffffff;stroke-opacity:0.7;stroke-width:0.48;" x="141.914023" xlink:href="#m96f5523732" y="110.014124"/>
     <use style="fill:#008fd5;fill-opacity:0.7;stroke:#ffffff;stroke-opacity:0.7;stroke-width:0.48;" x="139.899897" xlink:href="#m96f5523732" y="105.690742"/>
     <use style="fill:#008fd5;fill-opacity:0.7;stroke:#ffffff;stroke-opacity:0.7;stroke-width:0.48;" x="151.140556" xlink:href="#m96f5523732" y="101.30517"/>
     <use style="fill:#008fd5;fill-opacity:0.7;stroke:#ffffff;stroke-opacity:0.7;stroke-width:0.48;" x="141.080528" xlink:href="#m96f5523732" y="100.849732"/>
     <use style="fill:#008fd5;fill-opacity:0.7;stroke:#ffffff;stroke-opacity:0.7;stroke-width:0.48;" x="137.390294" xlink:href="#m96f5523732" y="95.749966"/>
     <use style="fill:#008fd5;fill-opacity:0.7;stroke:#ffffff;stroke-opacity:0.7;stroke-width:0.48;" x="126.104512" xlink:href="#m96f5523732" y="97.250244"/>
     <use style="fill:#008fd5;fill-opacity:0.7;stroke:#ffffff;stroke-opacity:0.7;stroke-width:0.48;" x="112.01407" xlink:href="#m96f5523732" y="103.347792"/>
     <use style="fill:#008fd5;fill-opacity:0.7;stroke:#ffffff;stroke-opacity:0.7;stroke-width:0.48;" x="124.195912" xlink:href="#m96f5523732" y="95.067114"/>
     <use style="fill:#008fd5;fill-opacity:0.7;stroke:#ffffff;stroke-opacity:0.7;stroke-width:0.48;" x="124.705482" xlink:href="#m96f5523732" y="86.685718"/>
     <use style="fill:#008fd5;fill-opacity:0.7;stroke:#ffffff;stroke-opacity:0.7;stroke-width:0.48;" x="137.287944" xlink:href="#m96f5523732" y="93.085632"/>
     <use style="fill:#008fd5;fill-opacity:0.7;stroke:#ffffff;stroke-opacity:0.7;stroke-width:0.48;" x="137.015428" xlink:href="#m96f5523732" y="87.326107"/>
     <use style="fill:#008fd5;fill-opacity:0.7;stroke:#ffffff;stroke-opacity:0.7;stroke-width:0.48;" x="141.137033" xlink:href="#m96f5523732" y="80.547772"/>
     <use style="fill:#008fd5;fill-opacity:0.7;stroke:#ffffff;stroke-opacity:0.7;stroke-width:0.48;" x="148.79807" xlink:href="#m96f5523732" y="87.090599"/>
     <use style="fill:#008fd5;fill-opacity:0.7;stroke:#ffffff;stroke-opacity:0.7;stroke-width:0.48;" x="147.508932" xlink:href="#m96f5523732" y="85.551041"/>
     <use style="fill:#008fd5;fill-opacity:0.7;stroke:#ffffff;stroke-opacity:0.7;stroke-width:0.48;" x="152.726549" xlink:href="#m96f5523732" y="85.72676"/>
     <use style="fill:#008fd5;fill-opacity:0.7;stroke:#ffffff;stroke-opacity:0.7;stroke-width:0.48;" x="146.413964" xlink:href="#m96f5523732" y="85.871679"/>
     <use style="fill:#008fd5;fill-opacity:0.7;stroke:#ffffff;stroke-opacity:0.7;stroke-width:0.48;" x="142.216795" xlink:href="#m96f5523732" y="100.593068"/>
     <use style="fill:#008fd5;fill-opacity:0.7;stroke:#ffffff;stroke-opacity:0.7;stroke-width:0.48;" x="145.945283" xlink:href="#m96f5523732" y="100.999205"/>
     <use style="fill:#008fd5;fill-opacity:0.7;stroke:#ffffff;stroke-opacity:0.7;stroke-width:0.48;" x="151.875004" xlink:href="#m96f5523732" y="96.576012"/>
     <use style="fill:#008fd5;fill-opacity:0.7;stroke:#ffffff;stroke-opacity:0.7;stroke-width:0.48;" x="144.393198" xlink:href="#m96f5523732" y="99.666578"/>
     <use style="fill:#008fd5;fill-opacity:0.7;stroke:#ffffff;stroke-opacity:0.7;stroke-width:0.48;" x="149.60502" xlink:href="#m96f5523732" y="102.565822"/>
     <use style="fill:#008fd5;fill-opacity:0.7;stroke:#ffffff;stroke-opacity:0.7;stroke-width:0.48;" x="151.264132" xlink:href="#m96f5523732" y="105.590468"/>
     <use style="fill:#008fd5;fill-opacity:0.7;stroke:#ffffff;stroke-opacity:0.7;stroke-width:0.48;" x="150.443573" xlink:href="#m96f5523732" y="103.268735"/>
     <use style="fill:#008fd5;fill-opacity:0.7;stroke:#ffffff;stroke-opacity:0.7;stroke-width:0.48;" x="147.997512" xlink:href="#m96f5523732" y="116.307859"/>
     <use style="fill:#008fd5;fill-opacity:0.7;stroke:#ffffff;stroke-opacity:0.7;stroke-width:0.48;" x="157.17367" xlink:href="#m96f5523732" y="122.882178"/>
     <use style="fill:#008fd5;fill-opacity:0.7;stroke:#ffffff;stroke-opacity:0.7;stroke-width:0.48;" x="155.250084" xlink:href="#m96f5523732" y="122.159174"/>
     <use style="fill:#008fd5;fill-opacity:0.7;stroke:#ffffff;stroke-opacity:0.7;stroke-width:0.48;" x="159.106639" xlink:href="#m96f5523732" y="119.150583"/>
     <use style="fill:#008fd5;fill-opacity:0.7;stroke:#ffffff;stroke-opacity:0.7;stroke-width:0.48;" x="159.781472" xlink:href="#m96f5523732" y="115.809229"/>
     <use style="fill:#008fd5;fill-opacity:0.7;stroke:#ffffff;stroke-opacity:0.7;stroke-width:0.48;" x="154.2455" xlink:href="#m96f5523732" y="122.581098"/>
     <use style="fill:#008fd5;fill-opacity:0.7;stroke:#ffffff;stroke-opacity:0.7;stroke-width:0.48;" x="150.618129" xlink:href="#m96f5523732" y="120.989933"/>
     <use style="fill:#008fd5;fill-opacity:0.7;stroke:#ffffff;stroke-opacity:0.7;stroke-width:0.48;" x="137.5569" xlink:href="#m96f5523732" y="119.211627"/>
     <use style="fill:#008fd5;fill-opacity:0.7;stroke:#ffffff;stroke-opacity:0.7;stroke-width:0.48;" x="140.092889" xlink:href="#m96f5523732" y="118.836962"/>
     <use style="fill:#008fd5;fill-opacity:0.7;stroke:#ffffff;stroke-opacity:0.7;stroke-width:0.48;" x="149.571389" xlink:href="#m96f5523732" y="123.201919"/>
     <use style="fill:#008fd5;fill-opacity:0.7;stroke:#ffffff;stroke-opacity:0.7;stroke-width:0.48;" x="149.220171" xlink:href="#m96f5523732" y="133.225973"/>
     <use style="fill:#008fd5;fill-opacity:0.7;stroke:#ffffff;stroke-opacity:0.7;stroke-width:0.48;" x="155.800119" xlink:href="#m96f5523732" y="147.52772"/>
     <use style="fill:#008fd5;fill-opacity:0.7;stroke:#ffffff;stroke-opacity:0.7;stroke-width:0.48;" x="167.063058" xlink:href="#m96f5523732" y="149.158655"/>
     <use style="fill:#008fd5;fill-opacity:0.7;stroke:#ffffff;stroke-opacity:0.7;stroke-width:0.48;" x="173.682708" xlink:href="#m96f5523732" y="153.284371"/>
    </g>
   </g>
   <g id="PathCollection_3">
    <defs>
     <path d="M 0 3 
C 0.795609 3 1.55874 2.683901 2.12132 2.12132 
C 2.683901 1.55874 3 0.795609 3 0 
C 3 -0.795609 2.683901 -1.55874 2.12132 -2.12132 
C 1.55874 -2.683901 0.795609 -3 0 -3 
C -0.795609 -3 -1.55874 -2.683901 -2.12132 -2.12132 
C -2.683901 -1.55874 -3 -0.795609 -3 0 
C -3 0.795609 -2.683901 1.55874 -2.12132 2.12132 
C -1.55874 2.683901 -0.795609 3 0 3 
z
" id="m8085881ba8" style="stroke:#ffffff;stroke-opacity:0.7;stroke-width:0.48;"/>
    </defs>
    <g clip-path="url(#p9679a14e8f)">
     <use style="fill:#fc4f30;fill-opacity:0.7;stroke:#ffffff;stroke-opacity:0.7;stroke-width:0.48;" x="134.93468" xlink:href="#m8085881ba8" y="112.595313"/>
     <use style="fill:#fc4f30;fill-opacity:0.7;stroke:#ffffff;stroke-opacity:0.7;stroke-width:0.48;" x="151.140556" xlink:href="#m8085881ba8" y="101.30517"/>
     <use style="fill:#fc4f30;fill-opacity:0.7;stroke:#ffffff;stroke-opacity:0.7;stroke-width:0.48;" x="141.080528" xlink:href="#m8085881ba8" y="100.849732"/>
     <use style="fill:#fc4f30;fill-opacity:0.7;stroke:#ffffff;stroke-opacity:0.7;stroke-width:0.48;" x="137.287944" xlink:href="#m8085881ba8" y="93.085632"/>
     <use style="fill:#fc4f30;fill-opacity:0.7;stroke:#ffffff;stroke-opacity:0.7;stroke-width:0.48;" x="147.508932" xlink:href="#m8085881ba8" y="85.551041"/>
     <use style="fill:#fc4f30;fill-opacity:0.7;stroke:#ffffff;stroke-opacity:0.7;stroke-width:0.48;" x="147.508932" xlink:href="#m8085881ba8" y="85.551041"/>
     <use style="fill:#fc4f30;fill-opacity:0.7;stroke:#ffffff;stroke-opacity:0.7;stroke-width:0.48;" x="151.264132" xlink:href="#m8085881ba8" y="105.590468"/>
     <use style="fill:#fc4f30;fill-opacity:0.7;stroke:#ffffff;stroke-opacity:0.7;stroke-width:0.48;" x="150.443573" xlink:href="#m8085881ba8" y="103.268735"/>
     <use style="fill:#fc4f30;fill-opacity:0.7;stroke:#ffffff;stroke-opacity:0.7;stroke-width:0.48;" x="137.5569" xlink:href="#m8085881ba8" y="119.211627"/>
     <use style="fill:#fc4f30;fill-opacity:0.7;stroke:#ffffff;stroke-opacity:0.7;stroke-width:0.48;" x="140.092889" xlink:href="#m8085881ba8" y="118.836962"/>
     <use style="fill:#fc4f30;fill-opacity:0.7;stroke:#ffffff;stroke-opacity:0.7;stroke-width:0.48;" x="140.092889" xlink:href="#m8085881ba8" y="118.836962"/>
    </g>
   </g>
   <g id="LineCollection_1">
    <path clip-path="url(#p9679a14e8f)" d="M 301.808431 245.131217 
L 304.316219 245.729288 
L 306.824006 245.992561 
L 309.331794 245.690661 
L 311.894325 244.341155 
L 313.453088 242.549968 
L 314.497213 240.758781 
L 315.281478 238.967594 
L 315.844399 237.176407 
L 316.093665 235.38522 
L 316.001399 233.594033 
L 315.639429 231.802846 
L 315.090095 230.011659 
L 310.135214 217.473349 
L 308.230167 213.890975 
L 305.807422 210.308601 
L 303.222742 206.726227 
L 301.808431 204.722109 
L 300.919958 203.143853 
L 300.042487 201.352666 
L 299.300643 199.0402 
L 298.750397 195.979105 
L 298.205089 194.187918 
L 297.337373 192.39673 
L 294.285068 188.213092 
L 293.33446 187.023169 
L 286.472591 179.858421 
L 277.484313 170.902486 
L 269.207192 163.171246 
L 265.731994 160.155364 
L 259.069761 154.781802 
L 234.098165 135.265011 
L 221.243628 124.331622 
L 208.372071 113.5845 
L 203.601355 110.002126 
L 196.481351 104.992325 
L 173.911262 89.498897 
L 161.372324 80.80482 
L 151.027925 74.178385 
L 143.817811 69.739473 
L 131.278872 62.553696 
L 123.755509 58.719697 
L 116.232147 55.388247 
L 108.708784 52.590772 
L 103.693208 50.934533 
L 88.646483 46.644935 
L 71.091969 42.28322 
L 63.568606 40.598985 
L 58.553031 39.793107 
L 56.045244 39.617363 
L 53.537456 39.784931 
L 52.52683 40.145831 
L 51.374177 41.937018 
L 51.636542 43.728205 
L 52.824154 47.310579 
L 53.537456 49.526694 
L 53.820342 50.892953 
L 53.796769 52.68414 
L 53.537456 53.433675 
L 52.97019 54.475327 
L 51.605009 56.266514 
L 50.948195 58.057701 
L 51.04494 59.848888 
L 51.512068 61.640076 
L 53.334642 67.013637 
L 53.537456 69.197935 
L 52.930635 72.387198 
L 53.124195 74.178385 
L 53.85977 75.969572 
L 54.929674 77.760759 
L 57.698391 81.343133 
L 64.580806 88.507881 
L 68.584182 92.22781 
L 72.21628 95.67263 
L 76.155287 99.255004 
L 86.138695 109.035971 
L 91.957103 115.375687 
L 93.662058 117.284427 
L 98.00258 122.540435 
L 101.185421 126.168314 
L 104.558777 129.705184 
L 108.708784 133.454907 
L 113.011836 136.869932 
L 116.232147 139.184556 
L 121.247722 142.476693 
L 129.31739 147.617054 
L 134.532344 151.199428 
L 139.36257 154.781802 
L 153.848961 165.849816 
L 158.864536 169.187106 
L 164.627978 172.693673 
L 168.895687 175.107656 
L 176.41905 179.297969 
L 183.942413 183.713544 
L 189.183064 187.023169 
L 197.144412 192.39673 
L 207.283034 199.561479 
L 219.051439 207.880952 
L 226.574802 212.867659 
L 234.227263 217.473349 
L 239.11374 220.173914 
L 244.599255 222.84691 
L 249.144891 224.830196 
L 254.160466 226.685353 
L 269.299237 231.802846 
L 271.714979 232.79454 
L 274.222767 233.658166 
L 279.238342 235.735983 
L 286.837813 238.967594 
L 291.77728 241.233725 
L 296.792856 243.364898 
L 301.808431 245.131217 
L 301.808431 245.131217 
" style="fill:none;stroke:#008fd5;stroke-opacity:0.2;stroke-width:4;"/>
   </g>
   <g id="LineCollection_2">
    <path clip-path="url(#p9679a14e8f)" d="M 274.222767 219.303782 
L 276.730555 220.052748 
L 279.238342 220.632828 
L 281.74613 220.878851 
L 284.253918 220.144347 
L 285.232484 219.264536 
L 286.761705 216.704794 
L 287.314893 215.682162 
L 288.077686 213.890975 
L 288.331816 212.099788 
L 288.106449 210.308601 
L 287.563443 208.517414 
L 286.761705 206.663329 
L 284.677845 203.143853 
L 281.74613 199.107287 
L 273.8905 188.814356 
L 272.875574 187.023169 
L 272.02475 185.231982 
L 271.437998 183.440795 
L 270.434494 179.858421 
L 269.624949 178.067234 
L 267.169315 174.48486 
L 263.868689 170.902486 
L 260.016758 167.320112 
L 253.487554 161.946551 
L 234.098165 146.984519 
L 229.08259 142.669719 
L 226.574802 140.370678 
L 213.787471 127.913997 
L 209.020289 123.738583 
L 204.004714 119.64169 
L 198.989138 115.777964 
L 193.629485 111.793313 
L 166.387899 91.99284 
L 161.021719 88.507881 
L 156.356749 85.669148 
L 148.53818 81.343133 
L 138.802235 76.222455 
L 123.755509 68.562524 
L 118.739934 66.361838 
L 113.724359 64.54487 
L 109.626115 63.431263 
L 108.708784 63.194279 
L 103.693208 62.263174 
L 91.15427 60.513612 
L 83.630907 59.563853 
L 81.12312 59.43567 
L 78.615332 59.69039 
L 78.210985 59.848888 
L 76.091117 61.640076 
L 75.738356 63.431263 
L 75.77503 65.22245 
L 76.524967 70.596011 
L 76.847943 72.387198 
L 77.308845 74.178385 
L 77.956042 75.969572 
L 79.662945 79.551946 
L 82.546438 84.925507 
L 83.630907 87.297005 
L 84.062004 88.507881 
L 85.646127 93.881443 
L 86.425653 95.67263 
L 87.448419 97.463817 
L 88.646483 99.26205 
L 91.495121 102.837378 
L 94.743186 106.419752 
L 100.135172 111.793313 
L 104.040872 115.375687 
L 110.318453 120.749248 
L 116.232147 125.456432 
L 131.278872 137.163966 
L 148.411666 151.199428 
L 155.499344 156.572989 
L 161.372324 160.717959 
L 168.895687 165.747455 
L 184.754339 176.276047 
L 193.973563 182.358336 
L 204.004714 188.533682 
L 207.780547 190.605543 
L 209.020289 191.309007 
L 214.035864 193.704875 
L 224.067015 197.356794 
L 226.574802 198.269585 
L 231.590377 200.314153 
L 234.098165 201.352666 
L 254.160466 211.050747 
L 264.782326 215.682162 
L 269.207192 217.473941 
L 274.222767 219.303782 
L 274.222767 219.303782 
" style="fill:none;stroke:#008fd5;stroke-opacity:0.2;stroke-width:4;"/>
   </g>
   <g id="LineCollection_3">
    <path clip-path="url(#p9679a14e8f)" d="M 259.176041 207.334583 
L 261.683829 207.861175 
L 264.191617 207.998273 
L 266.614153 206.726227 
L 266.699404 206.484449 
L 267.070744 204.93504 
L 267.329423 201.352666 
L 267.554156 199.561479 
L 267.619901 197.770292 
L 267.312008 195.979105 
L 266.670607 194.187918 
L 264.6068 190.605543 
L 259.891559 183.440795 
L 258.848595 181.649608 
L 257.94904 179.858421 
L 256.668254 176.667813 
L 255.274395 172.693673 
L 254.160466 170.605476 
L 253.185459 169.111299 
L 251.652678 167.21971 
L 249.144891 164.639519 
L 248.251077 163.737738 
L 244.129316 160.119145 
L 239.11374 156.07446 
L 231.590377 150.256104 
L 221.291686 142.243493 
L 216.543652 138.332699 
L 210.747616 133.287558 
L 203.018571 126.122809 
L 196.481351 120.263725 
L 191.465775 116.016486 
L 188.534794 113.5845 
L 177.307298 104.628565 
L 170.089323 99.255004 
L 166.387899 96.684628 
L 161.372324 93.465068 
L 155.923357 90.299068 
L 148.833386 86.511365 
L 128.771085 76.236896 
L 123.755509 74.03702 
L 119.035155 72.387198 
L 118.739934 72.287988 
L 116.232147 71.626013 
L 113.724359 71.10616 
L 109.952022 70.596011 
L 108.708784 70.467955 
L 106.200996 70.347809 
L 96.169846 70.290673 
L 93.662058 70.158542 
L 91.15427 70.216655 
L 89.766791 70.596011 
L 88.646483 71.27302 
L 88.029201 72.387198 
L 87.909901 74.178385 
L 88.221775 75.969572 
L 88.781975 77.760759 
L 90.271553 81.343133 
L 93.082874 86.716694 
L 96.053553 92.090255 
L 96.942547 93.881443 
L 99.408905 99.255004 
L 100.234288 101.046191 
L 102.219117 104.628565 
L 103.693208 106.70642 
L 104.841496 108.210939 
L 108.087113 111.793313 
L 111.841549 115.375687 
L 116.232147 119.132623 
L 122.724626 124.331622 
L 131.861019 131.496371 
L 138.802235 137.210419 
L 153.848961 149.944433 
L 158.864536 153.861491 
L 163.880112 157.578219 
L 169.986371 161.946551 
L 185.645829 172.693673 
L 191.209655 176.276047 
L 194.12593 178.067234 
L 198.989138 180.915652 
L 206.512501 184.750856 
L 216.543652 189.067853 
L 226.574802 193.360863 
L 232.304862 195.979105 
L 244.129316 201.566968 
L 251.652678 204.799739 
L 257.02524 206.726227 
L 259.176041 207.334583 
L 259.176041 207.334583 
" style="fill:none;stroke:#008fd5;stroke-opacity:0.2;stroke-width:4;"/>
   </g>
   <g id="LineCollection_4">
    <path clip-path="url(#p9679a14e8f)" d="M 249.144891 197.802031 
L 249.269842 197.770292 
L 251.160192 195.979105 
L 251.354937 194.187918 
L 251.476037 190.605543 
L 251.611951 188.814356 
L 251.60718 187.023169 
L 251.362403 185.231982 
L 250.908389 183.440795 
L 249.61129 179.858421 
L 246.594272 172.693673 
L 245.133728 169.111299 
L 244.129316 167.193517 
L 243.146176 165.528925 
L 241.621528 163.523111 
L 240.292847 161.946551 
L 236.605953 158.303539 
L 232.578876 154.781802 
L 221.246361 145.825867 
L 201.496926 130.645387 
L 198.103276 127.913997 
L 191.908015 122.540435 
L 178.234715 110.002126 
L 173.911262 106.419752 
L 168.895687 102.631313 
L 163.880112 99.209716 
L 158.011082 95.67263 
L 151.341173 92.040431 
L 136.294448 84.343881 
L 131.278872 81.978494 
L 126.263297 79.941934 
L 123.755509 79.107384 
L 121.247722 78.433083 
L 118.739934 77.933106 
L 116.232147 77.659867 
L 112.738751 77.760759 
L 106.200996 78.435062 
L 101.185421 78.544626 
L 98.555092 79.551946 
L 98.10631 81.343133 
L 98.386581 83.13432 
L 99.023205 84.925507 
L 101.185421 89.535129 
L 107.16194 101.046191 
L 109.206248 104.628565 
L 111.216571 107.655822 
L 111.595281 108.210939 
L 113.724359 110.871579 
L 114.490105 111.793313 
L 117.939665 115.375687 
L 121.857795 118.958061 
L 128.771085 124.702424 
L 143.817811 136.917261 
L 162.806647 152.990615 
L 173.911262 161.472739 
L 178.926837 165.110518 
L 184.669305 169.111299 
L 190.128328 172.693673 
L 193.973563 175.068195 
L 199.310854 178.067234 
L 204.004714 180.485308 
L 211.528076 183.885896 
L 240.673197 195.979105 
L 241.621528 196.327534 
L 246.637103 197.70235 
L 249.144891 197.802031 
L 249.144891 197.802031 
" style="fill:none;stroke:#008fd5;stroke-opacity:0.2;stroke-width:4;"/>
   </g>
   <g id="LineCollection_5">
    <path clip-path="url(#p9679a14e8f)" d="M 229.08259 187.338641 
L 231.590377 187.79475 
L 234.098165 187.770837 
L 235.554086 187.023169 
L 236.746272 185.231982 
L 238.347473 183.440795 
L 239.11374 182.906108 
L 240.425299 181.649608 
L 241.55458 179.858421 
L 241.761985 178.067234 
L 241.546643 176.276047 
L 241.075783 174.48486 
L 239.76809 170.902486 
L 238.104595 167.320112 
L 236.026287 163.737738 
L 234.098165 161.120542 
L 233.367978 160.155364 
L 230.048161 156.572989 
L 224.067015 151.195441 
L 219.051439 147.129347 
L 212.660161 142.243493 
L 202.827156 135.078745 
L 190.703587 126.122809 
L 183.942413 120.735128 
L 168.895687 107.76701 
L 164.707841 104.628565 
L 161.372324 102.36964 
L 156.30669 99.255004 
L 149.926063 95.67263 
L 143.10079 92.090255 
L 138.802235 89.951843 
L 133.78666 87.702976 
L 131.278872 86.716694 
L 128.771085 85.918614 
L 126.263297 85.311964 
L 123.755509 84.999438 
L 121.247722 85.172327 
L 111.216571 87.787618 
L 110.31065 88.507881 
L 109.826553 90.299068 
L 110.075473 92.090255 
L 111.216571 96.074047 
L 113.214245 101.046191 
L 114.077031 102.837378 
L 116.232147 106.611372 
L 118.739934 110.161843 
L 121.629496 113.5845 
L 125.145568 117.166874 
L 129.089795 120.749248 
L 135.51964 126.122809 
L 146.447629 135.078745 
L 153.848961 141.508952 
L 162.735071 149.408241 
L 171.403474 156.632966 
L 178.250777 161.946551 
L 183.942413 166.06162 
L 188.957988 169.446825 
L 194.209398 172.693673 
L 198.989138 175.377847 
L 204.412202 178.067234 
L 209.020289 180.120606 
L 216.543652 183.100088 
L 224.067015 185.800719 
L 229.08259 187.338641 
L 229.08259 187.338641 
" style="fill:none;stroke:#008fd5;stroke-opacity:0.2;stroke-width:4;"/>
   </g>
   <g id="LineCollection_6">
    <path clip-path="url(#p9679a14e8f)" d="M 219.051439 180.050857 
L 221.775129 179.858421 
L 224.067015 178.067234 
L 226.574802 176.768237 
L 231.590377 176.000472 
L 234.098165 174.797264 
L 234.34813 174.48486 
L 234.87771 172.693673 
L 234.746194 170.902486 
L 234.098165 168.706188 
L 233.545221 167.320112 
L 232.68594 165.528925 
L 230.531156 161.946551 
L 227.805856 158.364176 
L 224.067015 154.391429 
L 220.660898 151.199428 
L 216.394546 147.617054 
L 211.528076 143.819458 
L 204.004714 138.294193 
L 188.957988 127.438973 
L 180.158415 120.749248 
L 168.895687 112.022909 
L 161.099872 106.419752 
L 156.356749 103.330807 
L 149.306821 99.255004 
L 145.87845 97.463817 
L 141.310023 95.289392 
L 137.616675 93.881443 
L 136.294448 93.425876 
L 133.78666 92.882575 
L 131.278872 92.857635 
L 129.062982 93.881443 
L 128.771085 94.299521 
L 128.07075 95.67263 
L 127.809308 97.463817 
L 127.767102 99.255004 
L 127.388638 101.046191 
L 126.263297 102.100802 
L 123.755509 103.414521 
L 123.05001 104.628565 
L 122.974813 106.419752 
L 123.467851 108.210939 
L 124.444177 110.002126 
L 126.263297 112.637463 
L 128.771085 115.607625 
L 132.152796 118.958061 
L 136.294448 122.687678 
L 152.939102 136.869932 
L 156.817765 140.452306 
L 166.387899 149.409859 
L 172.504879 154.781802 
L 179.146599 160.155364 
L 183.951043 163.737738 
L 189.195743 167.320112 
L 193.973563 170.269286 
L 198.989138 173.030877 
L 204.004714 175.392996 
L 206.512501 176.464988 
L 211.528076 178.284458 
L 216.543652 179.664036 
L 219.051439 180.050857 
L 219.051439 180.050857 
" style="fill:none;stroke:#008fd5;stroke-opacity:0.2;stroke-width:4;"/>
   </g>
   <g id="LineCollection_7">
    <path clip-path="url(#p9679a14e8f)" d="M 206.512501 173.024982 
L 209.020289 173.371552 
L 211.528076 173.132744 
L 212.516409 172.693673 
L 214.035864 171.731098 
L 215.64919 170.902486 
L 216.543652 170.656961 
L 219.051439 170.473172 
L 224.067015 170.688153 
L 226.574802 170.47824 
L 228.567591 169.111299 
L 228.883088 167.320112 
L 228.446314 165.528925 
L 227.709542 163.737738 
L 226.574802 161.67083 
L 225.590867 160.155364 
L 224.067015 158.11777 
L 221.559227 155.21819 
L 221.171468 154.781802 
L 217.521213 151.199428 
L 213.386456 147.617054 
L 208.872135 144.03468 
L 201.496926 138.568676 
L 183.942413 125.782429 
L 168.895687 114.720289 
L 161.372324 109.64793 
L 155.995024 106.419752 
L 151.341173 103.928732 
L 148.833386 102.75466 
L 146.325598 101.812786 
L 143.817811 101.073597 
L 141.310023 101.046191 
L 140.084813 102.837378 
L 140.251219 104.628565 
L 140.801465 106.419752 
L 142.185767 110.002126 
L 142.76194 111.793313 
L 143.149339 113.5845 
L 142.922192 115.375687 
L 141.310023 117.366154 
L 140.856149 118.958061 
L 141.799581 120.749248 
L 143.817811 123.079762 
L 146.762606 126.122809 
L 158.864536 138.023549 
L 166.402398 145.825867 
L 171.957781 151.199428 
L 176.41905 155.189249 
L 181.434625 159.280754 
L 186.4502 162.984151 
L 191.465775 166.271366 
L 196.481351 169.14249 
L 201.496926 171.405909 
L 205.31056 172.693673 
L 206.512501 173.024982 
L 206.512501 173.024982 
" style="fill:none;stroke:#008fd5;stroke-opacity:0.2;stroke-width:4;"/>
   </g>
   <g id="LineCollection_8">
    <path clip-path="url(#p9679a14e8f)" d="M 196.481351 164.66506 
L 198.989138 165.31499 
L 201.496926 165.357972 
L 204.004714 164.834037 
L 206.512501 164.32428 
L 209.020289 164.189914 
L 211.528076 164.361223 
L 214.035864 164.671323 
L 216.543652 164.985741 
L 219.051439 165.116606 
L 221.559227 164.295008 
L 221.952333 163.737738 
L 221.972373 161.946551 
L 221.559227 160.829636 
L 221.304231 160.155364 
L 220.236531 158.364176 
L 219.051439 156.640949 
L 219.004342 156.572989 
L 217.495517 154.781802 
L 216.543652 153.74741 
L 215.849707 152.990615 
L 214.076413 151.199428 
L 214.035864 151.162603 
L 212.126756 149.408241 
L 211.528076 148.891942 
L 210.064517 147.617054 
L 209.020289 146.756419 
L 207.902943 145.825867 
L 206.512501 144.722608 
L 205.656424 144.03468 
L 204.004714 142.762789 
L 203.341126 142.243493 
L 201.496926 140.853852 
L 200.974522 140.452306 
L 198.989138 138.976871 
L 198.573902 138.661119 
L 196.481351 137.117097 
L 196.154478 136.869932 
L 193.973563 135.264054 
L 193.727802 135.078745 
L 191.465775 133.411508 
L 191.300996 133.287558 
L 188.957988 131.557181 
L 188.876816 131.496371 
L 186.454146 129.705184 
L 186.4502 129.702285 
L 184.026164 127.913997 
L 183.942413 127.852186 
L 181.587448 126.122809 
L 181.434625 126.009781 
L 179.129177 124.331622 
L 178.926837 124.182162 
L 176.640837 122.540435 
L 176.41905 122.377469 
L 174.109895 120.749248 
L 173.911262 120.604699 
L 171.521122 118.958061 
L 171.403474 118.873669 
L 168.895687 117.195402 
L 168.848543 117.166874 
L 166.387899 115.58374 
L 166.025394 115.375687 
L 163.880112 114.052894 
L 163.014596 113.5845 
L 161.372324 112.620501 
L 159.741751 111.793313 
L 158.864536 111.306649 
L 156.356749 110.16176 
L 155.815806 110.002126 
L 153.848961 109.346042 
L 151.341173 109.172413 
L 150.267038 110.002126 
L 150.095428 111.793313 
L 150.537865 113.5845 
L 151.234195 115.375687 
L 151.341173 115.597328 
L 152.047229 117.166874 
L 152.904593 118.958061 
L 153.848961 120.656235 
L 153.896693 120.749248 
L 154.810203 122.540435 
L 155.869178 124.331622 
L 156.356749 125.083842 
L 156.959106 126.122809 
L 158.118576 127.913997 
L 158.864536 128.94749 
L 159.361762 129.705184 
L 160.638431 131.496371 
L 161.372324 132.463698 
L 161.956975 133.287558 
L 163.304184 135.078745 
L 163.880112 135.832284 
L 164.645838 136.869932 
L 166.012837 138.661119 
L 166.387899 139.144177 
L 167.395511 140.452306 
L 168.785247 142.243493 
L 168.895687 142.377583 
L 170.276548 144.03468 
L 171.403474 145.392119 
L 171.772942 145.825867 
L 173.381821 147.617054 
L 173.911262 148.188016 
L 175.085699 149.408241 
L 176.41905 150.789137 
L 176.836656 151.199428 
L 178.708811 152.990615 
L 178.926837 153.190383 
L 180.759524 154.781802 
L 181.434625 155.36484 
L 182.932295 156.572989 
L 183.942413 157.385171 
L 185.265936 158.364176 
L 186.4502 159.239121 
L 187.819194 160.155364 
L 188.957988 160.917731 
L 190.679755 161.946551 
L 191.465775 162.416523 
L 193.973563 163.737738 
L 196.481351 164.66506 
" style="fill:none;stroke:#008fd5;stroke-opacity:0.2;stroke-width:4;"/>
   </g>
   <g id="LineCollection_9">
    <path clip-path="url(#p9679a14e8f)" d="M 204.004714 157.120303 
L 206.512501 157.644245 
L 209.020289 158.079418 
L 211.528076 158.100437 
L 212.760527 156.572989 
L 212.198222 154.781802 
L 211.528076 153.747929 
L 211.018097 152.990615 
L 209.511926 151.199428 
L 209.020289 150.697263 
L 207.741716 149.408241 
L 206.512501 148.236212 
L 205.858207 147.617054 
L 204.004714 145.947011 
L 203.870209 145.825867 
L 201.731245 144.03468 
L 201.496926 143.848754 
L 199.506384 142.243493 
L 198.989138 141.841378 
L 197.239136 140.452306 
L 196.481351 139.870413 
L 194.942828 138.661119 
L 193.973563 137.921618 
L 192.626456 136.869932 
L 191.465775 135.987247 
L 190.294103 135.078745 
L 188.957988 134.065402 
L 187.945115 133.287558 
L 186.4502 132.159028 
L 185.574573 131.496371 
L 183.942413 130.274719 
L 183.173613 129.705184 
L 181.434625 128.421591 
L 180.729213 127.913997 
L 178.926837 126.610452 
L 178.223228 126.122809 
L 176.41905 124.853425 
L 175.630362 124.331622 
L 173.911262 123.164051 
L 172.914688 122.540435 
L 171.403474 121.557857 
L 170.023877 120.749248 
L 168.895687 120.053318 
L 166.879672 118.958061 
L 166.387899 118.673135 
L 163.880112 117.556647 
L 162.462427 117.166874 
L 161.372324 116.834676 
L 159.845575 117.166874 
L 159.239783 118.958061 
L 159.849901 120.749248 
L 160.712185 122.540435 
L 161.372324 123.625232 
L 161.806565 124.331622 
L 163.024541 126.122809 
L 163.880112 127.261158 
L 164.374881 127.913997 
L 165.797771 129.705184 
L 166.387899 130.407927 
L 167.314261 131.496371 
L 168.895687 133.287558 
L 170.492322 135.078745 
L 171.403474 136.091036 
L 172.138053 136.869932 
L 173.794049 138.661119 
L 173.911262 138.79554 
L 175.444425 140.452306 
L 176.41905 141.532714 
L 177.114806 142.243493 
L 178.801354 144.03468 
L 178.926837 144.174816 
L 180.555927 145.825867 
L 181.434625 146.725859 
L 182.418489 147.617054 
L 183.942413 149.000842 
L 184.464927 149.408241 
L 186.4502 150.944186 
L 186.848388 151.199428 
L 188.957988 152.52813 
L 189.886212 152.990615 
L 191.465775 153.758403 
L 193.973563 154.672568 
L 194.338855 154.781802 
L 196.481351 155.393806 
L 198.989138 155.989985 
L 201.496926 156.551846 
L 201.583912 156.572989 
L 204.004714 157.120303 
" style="fill:none;stroke:#008fd5;stroke-opacity:0.2;stroke-width:4;"/>
   </g>
   <g id="LineCollection_10"/>
   <g id="patch_3">
    <path d="M 64.955188 226.04358 
L 64.955188 53.18358 
" style="fill:none;stroke:#f0f0f0;stroke-linecap:square;stroke-linejoin:miter;stroke-width:3;"/>
   </g>
   <g id="patch_4">
    <path d="M 295.650188 226.04358 
L 295.650188 53.18358 
" style="fill:none;stroke:#f0f0f0;stroke-linecap:square;stroke-linejoin:miter;stroke-width:3;"/>
   </g>
   <g id="patch_5">
    <path d="M 64.955187 226.04358 
L 295.650188 226.04358 
" style="fill:none;stroke:#f0f0f0;stroke-linecap:square;stroke-linejoin:miter;stroke-width:3;"/>
   </g>
   <g id="patch_6">
    <path d="M 64.955187 53.18358 
L 295.650188 53.18358 
" style="fill:none;stroke:#f0f0f0;stroke-linecap:square;stroke-linejoin:miter;stroke-width:3;"/>
   </g>
   <g id="text_13">
    <!-- chiều dài bước: 0.1 -->
    <g transform="translate(84.070187 22.51845)scale(0.2016 -0.2016)">
     <defs>
      <path d="M 48.78125 52.59375 
L 48.78125 44.1875 
Q 44.96875 46.296875 41.140625 47.34375 
Q 37.3125 48.390625 33.40625 48.390625 
Q 24.65625 48.390625 19.8125 42.84375 
Q 14.984375 37.3125 14.984375 27.296875 
Q 14.984375 17.28125 19.8125 11.734375 
Q 24.65625 6.203125 33.40625 6.203125 
Q 37.3125 6.203125 41.140625 7.25 
Q 44.96875 8.296875 48.78125 10.40625 
L 48.78125 2.09375 
Q 45.015625 0.34375 40.984375 -0.53125 
Q 36.96875 -1.421875 32.421875 -1.421875 
Q 20.0625 -1.421875 12.78125 6.34375 
Q 5.515625 14.109375 5.515625 27.296875 
Q 5.515625 40.671875 12.859375 48.328125 
Q 20.21875 56 33.015625 56 
Q 37.15625 56 41.109375 55.140625 
Q 45.0625 54.296875 48.78125 52.59375 
z
" id="DejaVuSans-99"/>
      <path d="M 54.890625 33.015625 
L 54.890625 0 
L 45.90625 0 
L 45.90625 32.71875 
Q 45.90625 40.484375 42.875 44.328125 
Q 39.84375 48.1875 33.796875 48.1875 
Q 26.515625 48.1875 22.3125 43.546875 
Q 18.109375 38.921875 18.109375 30.90625 
L 18.109375 0 
L 9.078125 0 
L 9.078125 75.984375 
L 18.109375 75.984375 
L 18.109375 46.1875 
Q 21.34375 51.125 25.703125 53.5625 
Q 30.078125 56 35.796875 56 
Q 45.21875 56 50.046875 50.171875 
Q 54.890625 44.34375 54.890625 33.015625 
z
" id="DejaVuSans-104"/>
      <path d="M 9.421875 54.6875 
L 18.40625 54.6875 
L 18.40625 0 
L 9.421875 0 
z
M 9.421875 75.984375 
L 18.40625 75.984375 
L 18.40625 64.59375 
L 9.421875 64.59375 
z
" id="DejaVuSans-105"/>
      <path d="M 43.40625 84.671875 
L 52.984375 71.78125 
L 45.515625 71.78125 
L 34.28125 84.671875 
z
M 27.25 74.65625 
L 36.421875 74.65625 
L 46.734375 61.671875 
L 39.9375 61.671875 
L 31.84375 70.359375 
L 23.734375 61.671875 
L 16.9375 61.671875 
z
M 56.203125 29.59375 
L 56.203125 25.203125 
L 14.890625 25.203125 
Q 15.484375 15.921875 20.484375 11.0625 
Q 25.484375 6.203125 34.421875 6.203125 
Q 39.59375 6.203125 44.453125 7.46875 
Q 49.3125 8.734375 54.109375 11.28125 
L 54.109375 2.78125 
Q 49.265625 0.734375 44.1875 -0.34375 
Q 39.109375 -1.421875 33.890625 -1.421875 
Q 20.796875 -1.421875 13.15625 6.1875 
Q 5.515625 13.8125 5.515625 26.8125 
Q 5.515625 40.234375 12.765625 48.109375 
Q 20.015625 56 32.328125 56 
Q 43.359375 56 49.78125 48.890625 
Q 56.203125 41.796875 56.203125 29.59375 
z
M 47.21875 32.234375 
Q 47.125 39.59375 43.09375 43.984375 
Q 39.0625 48.390625 32.421875 48.390625 
Q 24.90625 48.390625 20.390625 44.140625 
Q 15.875 39.890625 15.1875 32.171875 
z
" id="DejaVuSans-7873"/>
      <path d="M 8.5 21.578125 
L 8.5 54.6875 
L 17.484375 54.6875 
L 17.484375 21.921875 
Q 17.484375 14.15625 20.5 10.265625 
Q 23.53125 6.390625 29.59375 6.390625 
Q 36.859375 6.390625 41.078125 11.03125 
Q 45.3125 15.671875 45.3125 23.6875 
L 45.3125 54.6875 
L 54.296875 54.6875 
L 54.296875 0 
L 45.3125 0 
L 45.3125 8.40625 
Q 42.046875 3.421875 37.71875 1 
Q 33.40625 -1.421875 27.6875 -1.421875 
Q 18.265625 -1.421875 13.375 4.4375 
Q 8.5 10.296875 8.5 21.578125 
z
M 31.109375 56 
z
" id="DejaVuSans-117"/>
      <path id="DejaVuSans-32"/>
      <path d="M 45.40625 46.390625 
L 45.40625 75.984375 
L 54.390625 75.984375 
L 54.390625 0 
L 45.40625 0 
L 45.40625 8.203125 
Q 42.578125 3.328125 38.25 0.953125 
Q 33.9375 -1.421875 27.875 -1.421875 
Q 17.96875 -1.421875 11.734375 6.484375 
Q 5.515625 14.40625 5.515625 27.296875 
Q 5.515625 40.1875 11.734375 48.09375 
Q 17.96875 56 27.875 56 
Q 33.9375 56 38.25 53.625 
Q 42.578125 51.265625 45.40625 46.390625 
z
M 14.796875 27.296875 
Q 14.796875 17.390625 18.875 11.75 
Q 22.953125 6.109375 30.078125 6.109375 
Q 37.203125 6.109375 41.296875 11.75 
Q 45.40625 17.390625 45.40625 27.296875 
Q 45.40625 37.203125 41.296875 42.84375 
Q 37.203125 48.484375 30.078125 48.484375 
Q 22.953125 48.484375 18.875 42.84375 
Q 14.796875 37.203125 14.796875 27.296875 
z
" id="DejaVuSans-100"/>
      <path d="M 34.28125 27.484375 
Q 23.390625 27.484375 19.1875 25 
Q 14.984375 22.515625 14.984375 16.5 
Q 14.984375 11.71875 18.140625 8.90625 
Q 21.296875 6.109375 26.703125 6.109375 
Q 34.1875 6.109375 38.703125 11.40625 
Q 43.21875 16.703125 43.21875 25.484375 
L 43.21875 27.484375 
z
M 52.203125 31.203125 
L 52.203125 0 
L 43.21875 0 
L 43.21875 8.296875 
Q 40.140625 3.328125 35.546875 0.953125 
Q 30.953125 -1.421875 24.3125 -1.421875 
Q 15.921875 -1.421875 10.953125 3.296875 
Q 6 8.015625 6 15.921875 
Q 6 25.140625 12.171875 29.828125 
Q 18.359375 34.515625 30.609375 34.515625 
L 43.21875 34.515625 
L 43.21875 35.40625 
Q 43.21875 41.609375 39.140625 45 
Q 35.0625 48.390625 27.6875 48.390625 
Q 23 48.390625 18.546875 47.265625 
Q 14.109375 46.140625 10.015625 43.890625 
L 10.015625 52.203125 
Q 14.9375 54.109375 19.578125 55.046875 
Q 24.21875 56 28.609375 56 
Q 40.484375 56 46.34375 49.84375 
Q 52.203125 43.703125 52.203125 31.203125 
z
M 21.921875 79.984375 
L 35.6875 61.71875 
L 28.21875 61.71875 
L 12.3125 79.984375 
z
" id="DejaVuSans-224"/>
      <path d="M 48.6875 27.296875 
Q 48.6875 37.203125 44.609375 42.84375 
Q 40.53125 48.484375 33.40625 48.484375 
Q 26.265625 48.484375 22.1875 42.84375 
Q 18.109375 37.203125 18.109375 27.296875 
Q 18.109375 17.390625 22.1875 11.75 
Q 26.265625 6.109375 33.40625 6.109375 
Q 40.53125 6.109375 44.609375 11.75 
Q 48.6875 17.390625 48.6875 27.296875 
z
M 18.109375 46.390625 
Q 20.953125 51.265625 25.265625 53.625 
Q 29.59375 56 35.59375 56 
Q 45.5625 56 51.78125 48.09375 
Q 58.015625 40.1875 58.015625 27.296875 
Q 58.015625 14.40625 51.78125 6.484375 
Q 45.5625 -1.421875 35.59375 -1.421875 
Q 29.59375 -1.421875 25.265625 0.953125 
Q 20.953125 3.328125 18.109375 8.203125 
L 18.109375 0 
L 9.078125 0 
L 9.078125 75.984375 
L 18.109375 75.984375 
z
" id="DejaVuSans-98"/>
      <path d="M 48.34375 48.53125 
L 48.34375 54.34375 
Q 51.3125 52.140625 53.453125 51.09375 
Q 55.609375 50.046875 57.125 50.046875 
Q 59.375 50.046875 60.5 51.390625 
Q 61.625 52.734375 61.625 55.359375 
Q 61.625 56.921875 61.25 58.4375 
Q 60.890625 59.953125 60.15625 61.46875 
L 66.65625 61.46875 
Q 67.140625 59.609375 67.375 57.953125 
Q 67.625 56.296875 67.625 54.828125 
Q 67.625 48.875 65.5 46.0625 
Q 63.375 43.25 58.84375 43.25 
Q 56.5 43.25 53.9375 44.546875 
Q 51.375 45.84375 48.34375 48.53125 
z
M 8.59375 21.578125 
L 8.59375 54.6875 
L 17.578125 54.6875 
L 17.578125 21.921875 
Q 17.578125 14.15625 20.609375 10.265625 
Q 23.640625 6.390625 29.6875 6.390625 
Q 36.96875 6.390625 41.1875 11.03125 
Q 45.40625 15.671875 45.40625 23.6875 
L 45.40625 54.6875 
L 54.390625 54.6875 
L 54.390625 0 
L 45.40625 0 
L 45.40625 8.40625 
Q 42.140625 3.421875 37.8125 1 
Q 33.5 -1.421875 27.78125 -1.421875 
Q 18.359375 -1.421875 13.46875 4.4375 
Q 8.59375 10.296875 8.59375 21.578125 
z
M 31.203125 56 
z
" id="DejaVuSans-432"/>
      <path d="M 37.40625 79.984375 
L 47.125 79.984375 
L 31.203125 61.625 
L 23.734375 61.625 
z
M 41.015625 48.53125 
L 41.015625 54.34375 
Q 44 52.140625 46.140625 51.09375 
Q 48.296875 50.046875 49.8125 50.046875 
Q 52.046875 50.046875 53.171875 51.390625 
Q 54.296875 52.734375 54.296875 55.359375 
Q 54.296875 56.921875 53.921875 58.4375 
Q 53.5625 59.953125 52.828125 61.46875 
L 59.328125 61.46875 
Q 59.8125 59.609375 60.046875 57.953125 
Q 60.296875 56.296875 60.296875 54.828125 
Q 60.296875 48.875 58.171875 46.0625 
Q 56.0625 43.25 51.515625 43.25 
Q 49.171875 43.25 46.609375 44.546875 
Q 44.046875 45.84375 41.015625 48.53125 
z
M 30.859375 48.390625 
Q 23.640625 48.390625 19.4375 42.75 
Q 15.234375 37.109375 15.234375 27.296875 
Q 15.234375 17.484375 19.40625 11.84375 
Q 23.578125 6.203125 30.859375 6.203125 
Q 38.03125 6.203125 42.234375 11.859375 
Q 46.4375 17.53125 46.4375 27.296875 
Q 46.4375 37.015625 42.234375 42.703125 
Q 38.03125 48.390625 30.859375 48.390625 
z
M 30.859375 56 
Q 42.578125 56 49.265625 48.375 
Q 55.953125 40.765625 55.953125 27.296875 
Q 55.953125 13.875 49.265625 6.21875 
Q 42.578125 -1.421875 30.859375 -1.421875 
Q 19.09375 -1.421875 12.421875 6.21875 
Q 5.765625 13.875 5.765625 27.296875 
Q 5.765625 40.765625 12.421875 48.375 
Q 19.09375 56 30.859375 56 
z
" id="DejaVuSans-7899"/>
      <path d="M 11.71875 12.40625 
L 22.015625 12.40625 
L 22.015625 0 
L 11.71875 0 
z
M 11.71875 51.703125 
L 22.015625 51.703125 
L 22.015625 39.3125 
L 11.71875 39.3125 
z
" id="DejaVuSans-58"/>
     </defs>
     <use xlink:href="#DejaVuSans-99"/>
     <use x="54.980469" xlink:href="#DejaVuSans-104"/>
     <use x="118.359375" xlink:href="#DejaVuSans-105"/>
     <use x="146.142578" xlink:href="#DejaVuSans-7873"/>
     <use x="207.666016" xlink:href="#DejaVuSans-117"/>
     <use x="271.044922" xlink:href="#DejaVuSans-32"/>
     <use x="302.832031" xlink:href="#DejaVuSans-100"/>
     <use x="366.308594" xlink:href="#DejaVuSans-224"/>
     <use x="427.587891" xlink:href="#DejaVuSans-105"/>
     <use x="455.371094" xlink:href="#DejaVuSans-32"/>
     <use x="487.158203" xlink:href="#DejaVuSans-98"/>
     <use x="550.634766" xlink:href="#DejaVuSans-432"/>
     <use x="614.013672" xlink:href="#DejaVuSans-7899"/>
     <use x="675.195312" xlink:href="#DejaVuSans-99"/>
     <use x="730.175781" xlink:href="#DejaVuSans-58"/>
     <use x="763.867188" xlink:href="#DejaVuSans-32"/>
     <use x="795.654297" xlink:href="#DejaVuSans-48"/>
     <use x="859.277344" xlink:href="#DejaVuSans-46"/>
     <use x="891.064453" xlink:href="#DejaVuSans-49"/>
    </g>
    <!-- tỉ lệ chấp nhận: 0.78 -->
    <g transform="translate(76.045562 47.18358)scale(0.2016 -0.2016)">
     <defs>
      <path d="M 18.3125 70.21875 
L 18.3125 54.6875 
L 36.8125 54.6875 
L 36.8125 47.703125 
L 18.3125 47.703125 
L 18.3125 18.015625 
Q 18.3125 11.328125 20.140625 9.421875 
Q 21.96875 7.515625 27.59375 7.515625 
L 36.8125 7.515625 
L 36.8125 0 
L 27.59375 0 
Q 17.1875 0 13.234375 3.875 
Q 9.28125 7.765625 9.28125 18.015625 
L 9.28125 47.703125 
L 2.6875 47.703125 
L 2.6875 54.6875 
L 9.28125 54.6875 
L 9.28125 70.21875 
z
" id="DejaVuSans-116"/>
      <path d="M 9.421875 54.6875 
L 18.40625 54.6875 
L 18.40625 0 
L 9.421875 0 
z
M 13.921875 56 
z
M 3.328125 78.5625 
Q 8.796875 81.046875 13.921875 81.046875 
Q 19 81.046875 22.09375 78.96875 
Q 25.203125 76.90625 25.203125 73.625 
Q 25.203125 70.65625 20.90625 67.484375 
L 18.75 65.921875 
Q 17.046875 64.640625 16.84375 64.203125 
Q 16.5 63.421875 16.5 61.859375 
L 10.6875 61.859375 
L 10.6875 62.453125 
Q 10.6875 64.40625 11.421875 65.71875 
Q 12.15625 67.046875 14.65625 68.84375 
L 16.84375 70.5 
Q 19.09375 72.171875 19.09375 74.125 
Q 19.09375 75.140625 17.578125 76.015625 
Q 16.0625 76.90625 12.59375 76.90625 
Q 8.203125 76.90625 3.328125 74.359375 
z
" id="DejaVuSans-7881"/>
      <path d="M 9.421875 75.984375 
L 18.40625 75.984375 
L 18.40625 0 
L 9.421875 0 
z
" id="DejaVuSans-108"/>
      <path d="M 27.203125 -6.890625 
L 36.1875 -6.890625 
L 36.1875 -18.3125 
L 27.203125 -18.3125 
z
M 56.203125 29.59375 
L 56.203125 25.203125 
L 14.890625 25.203125 
Q 15.484375 15.921875 20.484375 11.0625 
Q 25.484375 6.203125 34.421875 6.203125 
Q 39.59375 6.203125 44.453125 7.46875 
Q 49.3125 8.734375 54.109375 11.28125 
L 54.109375 2.78125 
Q 49.265625 0.734375 44.1875 -0.34375 
Q 39.109375 -1.421875 33.890625 -1.421875 
Q 20.796875 -1.421875 13.15625 6.1875 
Q 5.515625 13.8125 5.515625 26.8125 
Q 5.515625 40.234375 12.765625 48.109375 
Q 20.015625 56 32.328125 56 
Q 43.359375 56 49.78125 48.890625 
Q 56.203125 41.796875 56.203125 29.59375 
z
M 47.21875 32.234375 
Q 47.125 39.59375 43.09375 43.984375 
Q 39.0625 48.390625 32.421875 48.390625 
Q 24.90625 48.390625 20.390625 44.140625 
Q 15.875 39.890625 15.1875 32.171875 
z
M 27.203125 -6.890625 
L 36.1875 -6.890625 
L 36.1875 -18.3125 
L 27.203125 -18.3125 
z
M 28.171875 79.984375 
L 35.40625 79.984375 
L 47.359375 61.625 
L 40.578125 61.625 
L 31.78125 73.578125 
L 23 61.625 
L 16.21875 61.625 
z
" id="DejaVuSans-7879"/>
      <path d="M 24.46875 74.609375 
L 33.640625 74.609375 
L 43.953125 61.625 
L 37.15625 61.625 
L 29.046875 70.3125 
L 20.953125 61.625 
L 14.15625 61.625 
z
M 49.515625 84.625 
L 58.546875 84.625 
L 47.40625 71.734375 
L 39.9375 71.734375 
z
M 34.28125 27.484375 
Q 23.390625 27.484375 19.1875 25 
Q 14.984375 22.515625 14.984375 16.5 
Q 14.984375 11.71875 18.140625 8.90625 
Q 21.296875 6.109375 26.703125 6.109375 
Q 34.1875 6.109375 38.703125 11.40625 
Q 43.21875 16.703125 43.21875 25.484375 
L 43.21875 27.484375 
z
M 52.203125 31.203125 
L 52.203125 0 
L 43.21875 0 
L 43.21875 8.296875 
Q 40.140625 3.328125 35.546875 0.953125 
Q 30.953125 -1.421875 24.3125 -1.421875 
Q 15.921875 -1.421875 10.953125 3.296875 
Q 6 8.015625 6 15.921875 
Q 6 25.140625 12.171875 29.828125 
Q 18.359375 34.515625 30.609375 34.515625 
L 43.21875 34.515625 
L 43.21875 35.40625 
Q 43.21875 41.609375 39.140625 45 
Q 35.0625 48.390625 27.6875 48.390625 
Q 23 48.390625 18.546875 47.265625 
Q 14.109375 46.140625 10.015625 43.890625 
L 10.015625 52.203125 
Q 14.9375 54.109375 19.578125 55.046875 
Q 24.21875 56 28.609375 56 
Q 40.484375 56 46.34375 49.84375 
Q 52.203125 43.703125 52.203125 31.203125 
z
" id="DejaVuSans-7845"/>
      <path d="M 18.109375 8.203125 
L 18.109375 -20.796875 
L 9.078125 -20.796875 
L 9.078125 54.6875 
L 18.109375 54.6875 
L 18.109375 46.390625 
Q 20.953125 51.265625 25.265625 53.625 
Q 29.59375 56 35.59375 56 
Q 45.5625 56 51.78125 48.09375 
Q 58.015625 40.1875 58.015625 27.296875 
Q 58.015625 14.40625 51.78125 6.484375 
Q 45.5625 -1.421875 35.59375 -1.421875 
Q 29.59375 -1.421875 25.265625 0.953125 
Q 20.953125 3.328125 18.109375 8.203125 
z
M 48.6875 27.296875 
Q 48.6875 37.203125 44.609375 42.84375 
Q 40.53125 48.484375 33.40625 48.484375 
Q 26.265625 48.484375 22.1875 42.84375 
Q 18.109375 37.203125 18.109375 27.296875 
Q 18.109375 17.390625 22.1875 11.75 
Q 26.265625 6.109375 33.40625 6.109375 
Q 40.53125 6.109375 44.609375 11.75 
Q 48.6875 17.390625 48.6875 27.296875 
z
" id="DejaVuSans-112"/>
      <path d="M 54.890625 33.015625 
L 54.890625 0 
L 45.90625 0 
L 45.90625 32.71875 
Q 45.90625 40.484375 42.875 44.328125 
Q 39.84375 48.1875 33.796875 48.1875 
Q 26.515625 48.1875 22.3125 43.546875 
Q 18.109375 38.921875 18.109375 30.90625 
L 18.109375 0 
L 9.078125 0 
L 9.078125 54.6875 
L 18.109375 54.6875 
L 18.109375 46.1875 
Q 21.34375 51.125 25.703125 53.5625 
Q 30.078125 56 35.796875 56 
Q 45.21875 56 50.046875 50.171875 
Q 54.890625 44.34375 54.890625 33.015625 
z
" id="DejaVuSans-110"/>
      <path d="M 34.28125 27.484375 
Q 23.390625 27.484375 19.1875 25 
Q 14.984375 22.515625 14.984375 16.5 
Q 14.984375 11.71875 18.140625 8.90625 
Q 21.296875 6.109375 26.703125 6.109375 
Q 34.1875 6.109375 38.703125 11.40625 
Q 43.21875 16.703125 43.21875 25.484375 
L 43.21875 27.484375 
z
M 52.203125 31.203125 
L 52.203125 0 
L 43.21875 0 
L 43.21875 8.296875 
Q 40.140625 3.328125 35.546875 0.953125 
Q 30.953125 -1.421875 24.3125 -1.421875 
Q 15.921875 -1.421875 10.953125 3.296875 
Q 6 8.015625 6 15.921875 
Q 6 25.140625 12.171875 29.828125 
Q 18.359375 34.515625 30.609375 34.515625 
L 43.21875 34.515625 
L 43.21875 35.40625 
Q 43.21875 41.609375 39.140625 45 
Q 35.0625 48.390625 27.6875 48.390625 
Q 23 48.390625 18.546875 47.265625 
Q 14.109375 46.140625 10.015625 43.890625 
L 10.015625 52.203125 
Q 14.9375 54.109375 19.578125 55.046875 
Q 24.21875 56 28.609375 56 
Q 40.484375 56 46.34375 49.84375 
Q 52.203125 43.703125 52.203125 31.203125 
z
M 25.390625 79.984375 
L 32.625 79.984375 
L 44.578125 61.625 
L 37.796875 61.625 
L 29 73.578125 
L 20.21875 61.625 
L 13.421875 61.625 
z
M 22.078125 -6.890625 
L 31.0625 -6.890625 
L 31.0625 -18.3125 
L 22.078125 -18.3125 
z
" id="DejaVuSans-7853"/>
      <path d="M 8.203125 72.90625 
L 55.078125 72.90625 
L 55.078125 68.703125 
L 28.609375 0 
L 18.3125 0 
L 43.21875 64.59375 
L 8.203125 64.59375 
z
" id="DejaVuSans-55"/>
      <path d="M 31.78125 34.625 
Q 24.75 34.625 20.71875 30.859375 
Q 16.703125 27.09375 16.703125 20.515625 
Q 16.703125 13.921875 20.71875 10.15625 
Q 24.75 6.390625 31.78125 6.390625 
Q 38.8125 6.390625 42.859375 10.171875 
Q 46.921875 13.96875 46.921875 20.515625 
Q 46.921875 27.09375 42.890625 30.859375 
Q 38.875 34.625 31.78125 34.625 
z
M 21.921875 38.8125 
Q 15.578125 40.375 12.03125 44.71875 
Q 8.5 49.078125 8.5 55.328125 
Q 8.5 64.0625 14.71875 69.140625 
Q 20.953125 74.21875 31.78125 74.21875 
Q 42.671875 74.21875 48.875 69.140625 
Q 55.078125 64.0625 55.078125 55.328125 
Q 55.078125 49.078125 51.53125 44.71875 
Q 48 40.375 41.703125 38.8125 
Q 48.828125 37.15625 52.796875 32.3125 
Q 56.78125 27.484375 56.78125 20.515625 
Q 56.78125 9.90625 50.3125 4.234375 
Q 43.84375 -1.421875 31.78125 -1.421875 
Q 19.734375 -1.421875 13.25 4.234375 
Q 6.78125 9.90625 6.78125 20.515625 
Q 6.78125 27.484375 10.78125 32.3125 
Q 14.796875 37.15625 21.921875 38.8125 
z
M 18.3125 54.390625 
Q 18.3125 48.734375 21.84375 45.5625 
Q 25.390625 42.390625 31.78125 42.390625 
Q 38.140625 42.390625 41.71875 45.5625 
Q 45.3125 48.734375 45.3125 54.390625 
Q 45.3125 60.0625 41.71875 63.234375 
Q 38.140625 66.40625 31.78125 66.40625 
Q 25.390625 66.40625 21.84375 63.234375 
Q 18.3125 60.0625 18.3125 54.390625 
z
" id="DejaVuSans-56"/>
     </defs>
     <use xlink:href="#DejaVuSans-116"/>
     <use x="39.208984" xlink:href="#DejaVuSans-7881"/>
     <use x="66.992188" xlink:href="#DejaVuSans-32"/>
     <use x="98.779297" xlink:href="#DejaVuSans-108"/>
     <use x="126.5625" xlink:href="#DejaVuSans-7879"/>
     <use x="188.085938" xlink:href="#DejaVuSans-32"/>
     <use x="219.873047" xlink:href="#DejaVuSans-99"/>
     <use x="274.853516" xlink:href="#DejaVuSans-104"/>
     <use x="338.232422" xlink:href="#DejaVuSans-7845"/>
     <use x="399.511719" xlink:href="#DejaVuSans-112"/>
     <use x="462.988281" xlink:href="#DejaVuSans-32"/>
     <use x="494.775391" xlink:href="#DejaVuSans-110"/>
     <use x="558.154297" xlink:href="#DejaVuSans-104"/>
     <use x="621.533203" xlink:href="#DejaVuSans-7853"/>
     <use x="682.8125" xlink:href="#DejaVuSans-110"/>
     <use x="746.191406" xlink:href="#DejaVuSans-58"/>
     <use x="779.882812" xlink:href="#DejaVuSans-32"/>
     <use x="811.669922" xlink:href="#DejaVuSans-48"/>
     <use x="875.292969" xlink:href="#DejaVuSans-46"/>
     <use x="907.080078" xlink:href="#DejaVuSans-55"/>
     <use x="970.703125" xlink:href="#DejaVuSans-56"/>
    </g>
   </g>
  </g>
  <g id="axes_2">
   <g id="patch_7">
    <path d="M 381.395188 226.04358 
L 612.090188 226.04358 
L 612.090188 53.18358 
L 381.395188 53.18358 
z
" style="fill:#f0f0f0;"/>
   </g>
   <g id="matplotlib.axis_3">
    <g id="xtick_4">
     <g id="line2d_21">
      <path clip-path="url(#p5a3cf6d07f)" d="M 419.844354 226.04358 
L 419.844354 53.18358 
" style="fill:none;stroke:#cbcbcb;"/>
     </g>
     <g id="line2d_22"/>
     <g id="text_14">
      <!-- −1 -->
      <g transform="translate(409.524823 240.181393)scale(0.14 -0.14)">
       <use xlink:href="#DejaVuSans-8722"/>
       <use x="83.789062" xlink:href="#DejaVuSans-49"/>
      </g>
     </g>
    </g>
    <g id="xtick_5">
     <g id="line2d_23">
      <path clip-path="url(#p5a3cf6d07f)" d="M 496.742688 226.04358 
L 496.742688 53.18358 
" style="fill:none;stroke:#cbcbcb;"/>
     </g>
     <g id="line2d_24"/>
     <g id="text_15">
      <!-- 0 -->
      <g transform="translate(492.288938 240.181393)scale(0.14 -0.14)">
       <use xlink:href="#DejaVuSans-48"/>
      </g>
     </g>
    </g>
    <g id="xtick_6">
     <g id="line2d_25">
      <path clip-path="url(#p5a3cf6d07f)" d="M 573.641021 226.04358 
L 573.641021 53.18358 
" style="fill:none;stroke:#cbcbcb;"/>
     </g>
     <g id="line2d_26"/>
     <g id="text_16">
      <!-- 1 -->
      <g transform="translate(569.187271 240.181393)scale(0.14 -0.14)">
       <use xlink:href="#DejaVuSans-49"/>
      </g>
     </g>
    </g>
    <g id="text_17">
     <!-- a1 -->
     <g transform="translate(486.250563 259.85833)scale(0.168 -0.168)">
      <use xlink:href="#DejaVuSans-97"/>
      <use x="61.279297" xlink:href="#DejaVuSans-49"/>
     </g>
    </g>
   </g>
   <g id="matplotlib.axis_4">
    <g id="ytick_8">
     <g id="line2d_27">
      <path clip-path="url(#p5a3cf6d07f)" d="M 381.395188 226.04358 
L 612.090188 226.04358 
" style="fill:none;stroke:#cbcbcb;"/>
     </g>
     <g id="line2d_28"/>
     <g id="text_18">
      <!-- −1.5 -->
      <g transform="translate(343.89925 231.362486)scale(0.14 -0.14)">
       <use xlink:href="#DejaVuSans-8722"/>
       <use x="83.789062" xlink:href="#DejaVuSans-49"/>
       <use x="147.412109" xlink:href="#DejaVuSans-46"/>
       <use x="179.199219" xlink:href="#DejaVuSans-53"/>
      </g>
     </g>
    </g>
    <g id="ytick_9">
     <g id="line2d_29">
      <path clip-path="url(#p5a3cf6d07f)" d="M 381.395188 197.23358 
L 612.090188 197.23358 
" style="fill:none;stroke:#cbcbcb;"/>
     </g>
     <g id="line2d_30"/>
     <g id="text_19">
      <!-- −1.0 -->
      <g transform="translate(343.89925 202.552486)scale(0.14 -0.14)">
       <use xlink:href="#DejaVuSans-8722"/>
       <use x="83.789062" xlink:href="#DejaVuSans-49"/>
       <use x="147.412109" xlink:href="#DejaVuSans-46"/>
       <use x="179.199219" xlink:href="#DejaVuSans-48"/>
      </g>
     </g>
    </g>
    <g id="ytick_10">
     <g id="line2d_31">
      <path clip-path="url(#p5a3cf6d07f)" d="M 381.395188 168.42358 
L 612.090188 168.42358 
" style="fill:none;stroke:#cbcbcb;"/>
     </g>
     <g id="line2d_32"/>
     <g id="text_20">
      <!-- −0.5 -->
      <g transform="translate(343.89925 173.742486)scale(0.14 -0.14)">
       <use xlink:href="#DejaVuSans-8722"/>
       <use x="83.789062" xlink:href="#DejaVuSans-48"/>
       <use x="147.412109" xlink:href="#DejaVuSans-46"/>
       <use x="179.199219" xlink:href="#DejaVuSans-53"/>
      </g>
     </g>
    </g>
    <g id="ytick_11">
     <g id="line2d_33">
      <path clip-path="url(#p5a3cf6d07f)" d="M 381.395188 139.61358 
L 612.090188 139.61358 
" style="fill:none;stroke:#cbcbcb;"/>
     </g>
     <g id="line2d_34"/>
     <g id="text_21">
      <!-- 0.0 -->
      <g transform="translate(355.630813 144.932486)scale(0.14 -0.14)">
       <use xlink:href="#DejaVuSans-48"/>
       <use x="63.623047" xlink:href="#DejaVuSans-46"/>
       <use x="95.410156" xlink:href="#DejaVuSans-48"/>
      </g>
     </g>
    </g>
    <g id="ytick_12">
     <g id="line2d_35">
      <path clip-path="url(#p5a3cf6d07f)" d="M 381.395188 110.80358 
L 612.090188 110.80358 
" style="fill:none;stroke:#cbcbcb;"/>
     </g>
     <g id="line2d_36"/>
     <g id="text_22">
      <!-- 0.5 -->
      <g transform="translate(355.630813 116.122486)scale(0.14 -0.14)">
       <use xlink:href="#DejaVuSans-48"/>
       <use x="63.623047" xlink:href="#DejaVuSans-46"/>
       <use x="95.410156" xlink:href="#DejaVuSans-53"/>
      </g>
     </g>
    </g>
    <g id="ytick_13">
     <g id="line2d_37">
      <path clip-path="url(#p5a3cf6d07f)" d="M 381.395188 81.99358 
L 612.090188 81.99358 
" style="fill:none;stroke:#cbcbcb;"/>
     </g>
     <g id="line2d_38"/>
     <g id="text_23">
      <!-- 1.0 -->
      <g transform="translate(355.630813 87.312486)scale(0.14 -0.14)">
       <use xlink:href="#DejaVuSans-49"/>
       <use x="63.623047" xlink:href="#DejaVuSans-46"/>
       <use x="95.410156" xlink:href="#DejaVuSans-48"/>
      </g>
     </g>
    </g>
    <g id="ytick_14">
     <g id="line2d_39">
      <path clip-path="url(#p5a3cf6d07f)" d="M 381.395188 53.18358 
L 612.090188 53.18358 
" style="fill:none;stroke:#cbcbcb;"/>
     </g>
     <g id="line2d_40"/>
     <g id="text_24">
      <!-- 1.5 -->
      <g transform="translate(355.630813 58.502486)scale(0.14 -0.14)">
       <use xlink:href="#DejaVuSans-49"/>
       <use x="63.623047" xlink:href="#DejaVuSans-46"/>
       <use x="95.410156" xlink:href="#DejaVuSans-53"/>
      </g>
     </g>
    </g>
    <g id="text_25">
     <!-- a2 -->
     <g transform="translate(336.405375 150.105705)rotate(-90)scale(0.168 -0.168)">
      <use xlink:href="#DejaVuSans-97"/>
      <use x="61.279297" xlink:href="#DejaVuSans-50"/>
     </g>
    </g>
   </g>
   <g id="PathCollection_4">
    <g clip-path="url(#p5a3cf6d07f)">
     <use style="stroke:#000000;stroke-width:4;" x="458.293521" xlink:href="#m22b46a49c9" y="110.80358"/>
    </g>
   </g>
   <g id="PathCollection_5">
    <g clip-path="url(#p5a3cf6d07f)">
     <use style="fill:#008fd5;fill-opacity:0.7;stroke:#ffffff;stroke-opacity:0.7;stroke-width:0.48;" x="458.293521" xlink:href="#m96f5523732" y="110.80358"/>
     <use style="fill:#008fd5;fill-opacity:0.7;stroke:#ffffff;stroke-opacity:0.7;stroke-width:0.48;" x="440.996422" xlink:href="#m96f5523732" y="115.282915"/>
     <use style="fill:#008fd5;fill-opacity:0.7;stroke:#ffffff;stroke-opacity:0.7;stroke-width:0.48;" x="458.444779" xlink:href="#m96f5523732" y="108.829943"/>
     <use style="fill:#008fd5;fill-opacity:0.7;stroke:#ffffff;stroke-opacity:0.7;stroke-width:0.48;" x="453.409465" xlink:href="#m96f5523732" y="98.021488"/>
     <use style="fill:#008fd5;fill-opacity:0.7;stroke:#ffffff;stroke-opacity:0.7;stroke-width:0.48;" x="428.2594" xlink:href="#m96f5523732" y="96.882895"/>
     <use style="fill:#008fd5;fill-opacity:0.7;stroke:#ffffff;stroke-opacity:0.7;stroke-width:0.48;" x="419.033808" xlink:href="#m96f5523732" y="84.133481"/>
     <use style="fill:#008fd5;fill-opacity:0.7;stroke:#ffffff;stroke-opacity:0.7;stroke-width:0.48;" x="450.48996" xlink:href="#m96f5523732" y="100.133261"/>
     <use style="fill:#008fd5;fill-opacity:0.7;stroke:#ffffff;stroke-opacity:0.7;stroke-width:0.48;" x="469.64255" xlink:href="#m96f5523732" y="116.490323"/>
     <use style="fill:#008fd5;fill-opacity:0.7;stroke:#ffffff;stroke-opacity:0.7;stroke-width:0.48;" x="466.419703" xlink:href="#m96f5523732" y="112.641429"/>
     <use style="fill:#008fd5;fill-opacity:0.7;stroke:#ffffff;stroke-opacity:0.7;stroke-width:0.48;" x="479.463744" xlink:href="#m96f5523732" y="113.080727"/>
     <use style="fill:#008fd5;fill-opacity:0.7;stroke:#ffffff;stroke-opacity:0.7;stroke-width:0.48;" x="463.682282" xlink:href="#m96f5523732" y="113.443024"/>
     <use style="fill:#008fd5;fill-opacity:0.7;stroke:#ffffff;stroke-opacity:0.7;stroke-width:0.48;" x="473.003501" xlink:href="#m96f5523732" y="114.458369"/>
     <use style="fill:#008fd5;fill-opacity:0.7;stroke:#ffffff;stroke-opacity:0.7;stroke-width:0.48;" x="487.827803" xlink:href="#m96f5523732" y="103.40039"/>
     <use style="fill:#008fd5;fill-opacity:0.7;stroke:#ffffff;stroke-opacity:0.7;stroke-width:0.48;" x="469.123288" xlink:href="#m96f5523732" y="111.126804"/>
     <use style="fill:#008fd5;fill-opacity:0.7;stroke:#ffffff;stroke-opacity:0.7;stroke-width:0.48;" x="482.152841" xlink:href="#m96f5523732" y="118.374914"/>
     <use style="fill:#008fd5;fill-opacity:0.7;stroke:#ffffff;stroke-opacity:0.7;stroke-width:0.48;" x="486.300621" xlink:href="#m96f5523732" y="125.936523"/>
     <use style="fill:#008fd5;fill-opacity:0.7;stroke:#ffffff;stroke-opacity:0.7;stroke-width:0.48;" x="509.241016" xlink:href="#m96f5523732" y="142.372321"/>
     <use style="fill:#008fd5;fill-opacity:0.7;stroke:#ffffff;stroke-opacity:0.7;stroke-width:0.48;" x="504.432053" xlink:href="#m96f5523732" y="140.564813"/>
     <use style="fill:#008fd5;fill-opacity:0.7;stroke:#ffffff;stroke-opacity:0.7;stroke-width:0.48;" x="514.073438" xlink:href="#m96f5523732" y="133.043335"/>
     <use style="fill:#008fd5;fill-opacity:0.7;stroke:#ffffff;stroke-opacity:0.7;stroke-width:0.48;" x="500.233508" xlink:href="#m96f5523732" y="149.973005"/>
     <use style="fill:#008fd5;fill-opacity:0.7;stroke:#ffffff;stroke-opacity:0.7;stroke-width:0.48;" x="491.16508" xlink:href="#m96f5523732" y="145.995094"/>
     <use style="fill:#008fd5;fill-opacity:0.7;stroke:#ffffff;stroke-opacity:0.7;stroke-width:0.48;" x="497.505049" xlink:href="#m96f5523732" y="145.058432"/>
     <use style="fill:#008fd5;fill-opacity:0.7;stroke:#ffffff;stroke-opacity:0.7;stroke-width:0.48;" x="521.201295" xlink:href="#m96f5523732" y="155.970824"/>
     <use style="fill:#008fd5;fill-opacity:0.7;stroke:#ffffff;stroke-opacity:0.7;stroke-width:0.48;" x="537.750422" xlink:href="#m96f5523732" y="166.285115"/>
    </g>
   </g>
   <g id="PathCollection_6">
    <g clip-path="url(#p5a3cf6d07f)">
     <use style="fill:#fc4f30;fill-opacity:0.7;stroke:#ffffff;stroke-opacity:0.7;stroke-width:0.48;" x="440.996422" xlink:href="#m8085881ba8" y="115.282915"/>
     <use style="fill:#fc4f30;fill-opacity:0.7;stroke:#ffffff;stroke-opacity:0.7;stroke-width:0.48;" x="453.409465" xlink:href="#m8085881ba8" y="98.021488"/>
     <use style="fill:#fc4f30;fill-opacity:0.7;stroke:#ffffff;stroke-opacity:0.7;stroke-width:0.48;" x="453.409465" xlink:href="#m8085881ba8" y="98.021488"/>
     <use style="fill:#fc4f30;fill-opacity:0.7;stroke:#ffffff;stroke-opacity:0.7;stroke-width:0.48;" x="428.2594" xlink:href="#m8085881ba8" y="96.882895"/>
     <use style="fill:#fc4f30;fill-opacity:0.7;stroke:#ffffff;stroke-opacity:0.7;stroke-width:0.48;" x="419.033808" xlink:href="#m8085881ba8" y="84.133481"/>
     <use style="fill:#fc4f30;fill-opacity:0.7;stroke:#ffffff;stroke-opacity:0.7;stroke-width:0.48;" x="419.033808" xlink:href="#m8085881ba8" y="84.133481"/>
     <use style="fill:#fc4f30;fill-opacity:0.7;stroke:#ffffff;stroke-opacity:0.7;stroke-width:0.48;" x="419.033808" xlink:href="#m8085881ba8" y="84.133481"/>
     <use style="fill:#fc4f30;fill-opacity:0.7;stroke:#ffffff;stroke-opacity:0.7;stroke-width:0.48;" x="419.033808" xlink:href="#m8085881ba8" y="84.133481"/>
     <use style="fill:#fc4f30;fill-opacity:0.7;stroke:#ffffff;stroke-opacity:0.7;stroke-width:0.48;" x="450.48996" xlink:href="#m8085881ba8" y="100.133261"/>
     <use style="fill:#fc4f30;fill-opacity:0.7;stroke:#ffffff;stroke-opacity:0.7;stroke-width:0.48;" x="450.48996" xlink:href="#m8085881ba8" y="100.133261"/>
     <use style="fill:#fc4f30;fill-opacity:0.7;stroke:#ffffff;stroke-opacity:0.7;stroke-width:0.48;" x="450.48996" xlink:href="#m8085881ba8" y="100.133261"/>
     <use style="fill:#fc4f30;fill-opacity:0.7;stroke:#ffffff;stroke-opacity:0.7;stroke-width:0.48;" x="466.419703" xlink:href="#m8085881ba8" y="112.641429"/>
     <use style="fill:#fc4f30;fill-opacity:0.7;stroke:#ffffff;stroke-opacity:0.7;stroke-width:0.48;" x="466.419703" xlink:href="#m8085881ba8" y="112.641429"/>
     <use style="fill:#fc4f30;fill-opacity:0.7;stroke:#ffffff;stroke-opacity:0.7;stroke-width:0.48;" x="463.682282" xlink:href="#m8085881ba8" y="113.443024"/>
     <use style="fill:#fc4f30;fill-opacity:0.7;stroke:#ffffff;stroke-opacity:0.7;stroke-width:0.48;" x="486.300621" xlink:href="#m8085881ba8" y="125.936523"/>
     <use style="fill:#fc4f30;fill-opacity:0.7;stroke:#ffffff;stroke-opacity:0.7;stroke-width:0.48;" x="486.300621" xlink:href="#m8085881ba8" y="125.936523"/>
     <use style="fill:#fc4f30;fill-opacity:0.7;stroke:#ffffff;stroke-opacity:0.7;stroke-width:0.48;" x="486.300621" xlink:href="#m8085881ba8" y="125.936523"/>
     <use style="fill:#fc4f30;fill-opacity:0.7;stroke:#ffffff;stroke-opacity:0.7;stroke-width:0.48;" x="486.300621" xlink:href="#m8085881ba8" y="125.936523"/>
     <use style="fill:#fc4f30;fill-opacity:0.7;stroke:#ffffff;stroke-opacity:0.7;stroke-width:0.48;" x="514.073438" xlink:href="#m8085881ba8" y="133.043335"/>
     <use style="fill:#fc4f30;fill-opacity:0.7;stroke:#ffffff;stroke-opacity:0.7;stroke-width:0.48;" x="491.16508" xlink:href="#m8085881ba8" y="145.995094"/>
     <use style="fill:#fc4f30;fill-opacity:0.7;stroke:#ffffff;stroke-opacity:0.7;stroke-width:0.48;" x="491.16508" xlink:href="#m8085881ba8" y="145.995094"/>
     <use style="fill:#fc4f30;fill-opacity:0.7;stroke:#ffffff;stroke-opacity:0.7;stroke-width:0.48;" x="497.505049" xlink:href="#m8085881ba8" y="145.058432"/>
     <use style="fill:#fc4f30;fill-opacity:0.7;stroke:#ffffff;stroke-opacity:0.7;stroke-width:0.48;" x="497.505049" xlink:href="#m8085881ba8" y="145.058432"/>
     <use style="fill:#fc4f30;fill-opacity:0.7;stroke:#ffffff;stroke-opacity:0.7;stroke-width:0.48;" x="521.201295" xlink:href="#m8085881ba8" y="155.970824"/>
     <use style="fill:#fc4f30;fill-opacity:0.7;stroke:#ffffff;stroke-opacity:0.7;stroke-width:0.48;" x="521.201295" xlink:href="#m8085881ba8" y="155.970824"/>
     <use style="fill:#fc4f30;fill-opacity:0.7;stroke:#ffffff;stroke-opacity:0.7;stroke-width:0.48;" x="521.201295" xlink:href="#m8085881ba8" y="155.970824"/>
    </g>
   </g>
   <g id="LineCollection_11">
    <path clip-path="url(#p5a3cf6d07f)" d="M 618.248431 245.131217 
L 620.290188 245.618146 
M 620.290188 207.650597 
L 617.359958 203.143853 
L 616.482487 201.352666 
L 615.740643 199.0402 
L 615.190397 195.979105 
L 614.645089 194.187918 
L 613.777373 192.39673 
L 610.725068 188.213092 
L 609.77446 187.023169 
L 602.912591 179.858421 
L 593.924313 170.902486 
L 585.647192 163.171246 
L 582.171994 160.155364 
L 575.509761 154.781802 
L 550.538165 135.265011 
L 537.683628 124.331622 
L 524.812071 113.5845 
L 520.041355 110.002126 
L 512.921351 104.992325 
L 490.351262 89.498897 
L 477.812324 80.80482 
L 467.467925 74.178385 
L 460.257811 69.739473 
L 447.718872 62.553696 
L 440.195509 58.719697 
L 432.672147 55.388247 
L 425.148784 52.590772 
L 420.133208 50.934533 
L 405.086483 46.644935 
L 387.531969 42.28322 
L 380.008606 40.598985 
L 374.993031 39.793107 
L 372.485244 39.617363 
L 369.977456 39.784931 
L 368.96683 40.145831 
L 367.814177 41.937018 
L 368.076542 43.728205 
L 369.264154 47.310579 
L 369.977456 49.526694 
L 370.260342 50.892953 
L 370.236769 52.68414 
L 369.977456 53.433675 
L 369.41019 54.475327 
L 368.045009 56.266514 
L 367.388195 58.057701 
L 367.48494 59.848888 
L 367.952068 61.640076 
L 369.774642 67.013637 
L 369.977456 69.197935 
L 369.370635 72.387198 
L 369.564195 74.178385 
L 370.29977 75.969572 
L 371.369674 77.760759 
L 374.138391 81.343133 
L 381.020806 88.507881 
L 385.024182 92.22781 
L 388.65628 95.67263 
L 392.595287 99.255004 
L 402.578695 109.035971 
L 408.397103 115.375687 
L 410.102058 117.284427 
L 414.44258 122.540435 
L 417.625421 126.168314 
L 420.998777 129.705184 
L 425.148784 133.454907 
L 429.451836 136.869932 
L 432.672147 139.184556 
L 437.687722 142.476693 
L 445.75739 147.617054 
L 450.972344 151.199428 
L 455.80257 154.781802 
L 470.288961 165.849816 
L 475.304536 169.187106 
L 481.067978 172.693673 
L 485.335687 175.107656 
L 492.85905 179.297969 
L 500.382413 183.713544 
L 505.623064 187.023169 
L 513.584412 192.39673 
L 523.723034 199.561479 
L 535.491439 207.880952 
L 543.014802 212.867659 
L 550.667263 217.473349 
L 555.55374 220.173914 
L 561.039255 222.84691 
L 565.584891 224.830196 
L 570.600466 226.685353 
L 585.739237 231.802846 
L 588.154979 232.79454 
L 590.662767 233.658166 
L 595.678342 235.735983 
L 603.277813 238.967594 
L 608.21728 241.233725 
L 613.232856 243.364898 
L 618.248431 245.131217 
L 618.248431 245.131217 
" style="fill:none;stroke:#008fd5;stroke-opacity:0.2;stroke-width:4;"/>
   </g>
   <g id="LineCollection_12">
    <path clip-path="url(#p5a3cf6d07f)" d="M 590.662767 219.303782 
L 593.170555 220.052748 
L 595.678342 220.632828 
L 598.18613 220.878851 
L 600.693918 220.144347 
L 601.672484 219.264536 
L 603.201705 216.704794 
L 603.754893 215.682162 
L 604.517686 213.890975 
L 604.771816 212.099788 
L 604.546449 210.308601 
L 604.003443 208.517414 
L 603.201705 206.663329 
L 601.117845 203.143853 
L 598.18613 199.107287 
L 590.3305 188.814356 
L 589.315574 187.023169 
L 588.46475 185.231982 
L 587.877998 183.440795 
L 586.874494 179.858421 
L 586.064949 178.067234 
L 583.609315 174.48486 
L 580.308689 170.902486 
L 576.456758 167.320112 
L 569.927554 161.946551 
L 550.538165 146.984519 
L 545.52259 142.669719 
L 543.014802 140.370678 
L 530.227471 127.913997 
L 525.460289 123.738583 
L 520.444714 119.64169 
L 515.429138 115.777964 
L 510.069485 111.793313 
L 482.827899 91.99284 
L 477.461719 88.507881 
L 472.796749 85.669148 
L 464.97818 81.343133 
L 455.242235 76.222455 
L 440.195509 68.562524 
L 435.179934 66.361838 
L 430.164359 64.54487 
L 426.066115 63.431263 
L 425.148784 63.194279 
L 420.133208 62.263174 
L 407.59427 60.513612 
L 400.070907 59.563853 
L 397.56312 59.43567 
L 395.055332 59.69039 
L 394.650985 59.848888 
L 392.531117 61.640076 
L 392.178356 63.431263 
L 392.21503 65.22245 
L 392.964967 70.596011 
L 393.287943 72.387198 
L 393.748845 74.178385 
L 394.396042 75.969572 
L 396.102945 79.551946 
L 398.986438 84.925507 
L 400.070907 87.297005 
L 400.502004 88.507881 
L 402.086127 93.881443 
L 402.865653 95.67263 
L 403.888419 97.463817 
L 405.086483 99.26205 
L 407.935121 102.837378 
L 411.183186 106.419752 
L 416.575172 111.793313 
L 420.480872 115.375687 
L 426.758453 120.749248 
L 432.672147 125.456432 
L 447.718872 137.163966 
L 464.851666 151.199428 
L 471.939344 156.572989 
L 477.812324 160.717959 
L 485.335687 165.747455 
L 501.194339 176.276047 
L 510.413563 182.358336 
L 520.444714 188.533682 
L 524.220547 190.605543 
L 525.460289 191.309007 
L 530.475864 193.704875 
L 540.507015 197.356794 
L 543.014802 198.269585 
L 548.030377 200.314153 
L 550.538165 201.352666 
L 570.600466 211.050747 
L 581.222326 215.682162 
L 585.647192 217.473941 
L 590.662767 219.303782 
L 590.662767 219.303782 
" style="fill:none;stroke:#008fd5;stroke-opacity:0.2;stroke-width:4;"/>
   </g>
   <g id="LineCollection_13">
    <path clip-path="url(#p5a3cf6d07f)" d="M 575.616041 207.334583 
L 578.123829 207.861175 
L 580.631617 207.998273 
L 583.054153 206.726227 
L 583.139404 206.484449 
L 583.510744 204.93504 
L 583.769423 201.352666 
L 583.994156 199.561479 
L 584.059901 197.770292 
L 583.752008 195.979105 
L 583.110607 194.187918 
L 581.0468 190.605543 
L 576.331559 183.440795 
L 575.288595 181.649608 
L 574.38904 179.858421 
L 573.108254 176.667813 
L 571.714395 172.693673 
L 570.600466 170.605476 
L 569.625459 169.111299 
L 568.092678 167.21971 
L 565.584891 164.639519 
L 564.691077 163.737738 
L 560.569316 160.119145 
L 555.55374 156.07446 
L 548.030377 150.256104 
L 537.731686 142.243493 
L 532.983652 138.332699 
L 527.187616 133.287558 
L 519.458571 126.122809 
L 512.921351 120.263725 
L 507.905775 116.016486 
L 504.974794 113.5845 
L 493.747298 104.628565 
L 486.529323 99.255004 
L 482.827899 96.684628 
L 477.812324 93.465068 
L 472.363357 90.299068 
L 465.273386 86.511365 
L 445.211085 76.236896 
L 440.195509 74.03702 
L 435.475155 72.387198 
L 435.179934 72.287988 
L 432.672147 71.626013 
L 430.164359 71.10616 
L 426.392022 70.596011 
L 425.148784 70.467955 
L 422.640996 70.347809 
L 412.609846 70.290673 
L 410.102058 70.158542 
L 407.59427 70.216655 
L 406.206791 70.596011 
L 405.086483 71.27302 
L 404.469201 72.387198 
L 404.349901 74.178385 
L 404.661775 75.969572 
L 405.221975 77.760759 
L 406.711553 81.343133 
L 409.522874 86.716694 
L 412.493553 92.090255 
L 413.382547 93.881443 
L 415.848905 99.255004 
L 416.674288 101.046191 
L 418.659117 104.628565 
L 420.133208 106.70642 
L 421.281496 108.210939 
L 424.527113 111.793313 
L 428.281549 115.375687 
L 432.672147 119.132623 
L 439.164626 124.331622 
L 448.301019 131.496371 
L 455.242235 137.210419 
L 470.288961 149.944433 
L 475.304536 153.861491 
L 480.320112 157.578219 
L 486.426371 161.946551 
L 502.085829 172.693673 
L 507.649655 176.276047 
L 510.56593 178.067234 
L 515.429138 180.915652 
L 522.952501 184.750856 
L 532.983652 189.067853 
L 543.014802 193.360863 
L 548.744862 195.979105 
L 560.569316 201.566968 
L 568.092678 204.799739 
L 573.46524 206.726227 
L 575.616041 207.334583 
L 575.616041 207.334583 
" style="fill:none;stroke:#008fd5;stroke-opacity:0.2;stroke-width:4;"/>
   </g>
   <g id="LineCollection_14">
    <path clip-path="url(#p5a3cf6d07f)" d="M 565.584891 197.802031 
L 565.709842 197.770292 
L 567.600192 195.979105 
L 567.794937 194.187918 
L 567.916037 190.605543 
L 568.051951 188.814356 
L 568.04718 187.023169 
L 567.802403 185.231982 
L 567.348389 183.440795 
L 566.05129 179.858421 
L 563.034272 172.693673 
L 561.573728 169.111299 
L 560.569316 167.193517 
L 559.586176 165.528925 
L 558.061528 163.523111 
L 556.732847 161.946551 
L 553.045953 158.303539 
L 549.018876 154.781802 
L 537.686361 145.825867 
L 517.936926 130.645387 
L 514.543276 127.913997 
L 508.348015 122.540435 
L 494.674715 110.002126 
L 490.351262 106.419752 
L 485.335687 102.631313 
L 480.320112 99.209716 
L 474.451082 95.67263 
L 467.781173 92.040431 
L 452.734448 84.343881 
L 447.718872 81.978494 
L 442.703297 79.941934 
L 440.195509 79.107384 
L 437.687722 78.433083 
L 435.179934 77.933106 
L 432.672147 77.659867 
L 429.178751 77.760759 
L 422.640996 78.435062 
L 417.625421 78.544626 
L 414.995092 79.551946 
L 414.54631 81.343133 
L 414.826581 83.13432 
L 415.463205 84.925507 
L 417.625421 89.535129 
L 423.60194 101.046191 
L 425.646248 104.628565 
L 427.656571 107.655822 
L 428.035281 108.210939 
L 430.164359 110.871579 
L 430.930105 111.793313 
L 434.379665 115.375687 
L 438.297795 118.958061 
L 445.211085 124.702424 
L 460.257811 136.917261 
L 479.246647 152.990615 
L 490.351262 161.472739 
L 495.366837 165.110518 
L 501.109305 169.111299 
L 506.568328 172.693673 
L 510.413563 175.068195 
L 515.750854 178.067234 
L 520.444714 180.485308 
L 527.968076 183.885896 
L 557.113197 195.979105 
L 558.061528 196.327534 
L 563.077103 197.70235 
L 565.584891 197.802031 
L 565.584891 197.802031 
" style="fill:none;stroke:#008fd5;stroke-opacity:0.2;stroke-width:4;"/>
   </g>
   <g id="LineCollection_15">
    <path clip-path="url(#p5a3cf6d07f)" d="M 545.52259 187.338641 
L 548.030377 187.79475 
L 550.538165 187.770837 
L 551.994086 187.023169 
L 553.186272 185.231982 
L 554.787473 183.440795 
L 555.55374 182.906108 
L 556.865299 181.649608 
L 557.99458 179.858421 
L 558.201985 178.067234 
L 557.986643 176.276047 
L 557.515783 174.48486 
L 556.20809 170.902486 
L 554.544595 167.320112 
L 552.466287 163.737738 
L 550.538165 161.120542 
L 549.807978 160.155364 
L 546.488161 156.572989 
L 540.507015 151.195441 
L 535.491439 147.129347 
L 529.100161 142.243493 
L 519.267156 135.078745 
L 507.143587 126.122809 
L 500.382413 120.735128 
L 485.335687 107.76701 
L 481.147841 104.628565 
L 477.812324 102.36964 
L 472.74669 99.255004 
L 466.366063 95.67263 
L 459.54079 92.090255 
L 455.242235 89.951843 
L 450.22666 87.702976 
L 447.718872 86.716694 
L 445.211085 85.918614 
L 442.703297 85.311964 
L 440.195509 84.999438 
L 437.687722 85.172327 
L 427.656571 87.787618 
L 426.75065 88.507881 
L 426.266553 90.299068 
L 426.515473 92.090255 
L 427.656571 96.074047 
L 429.654245 101.046191 
L 430.517031 102.837378 
L 432.672147 106.611372 
L 435.179934 110.161843 
L 438.069496 113.5845 
L 441.585568 117.166874 
L 445.529795 120.749248 
L 451.95964 126.122809 
L 462.887629 135.078745 
L 470.288961 141.508952 
L 479.175071 149.408241 
L 487.843474 156.632966 
L 494.690777 161.946551 
L 500.382413 166.06162 
L 505.397988 169.446825 
L 510.649398 172.693673 
L 515.429138 175.377847 
L 520.852202 178.067234 
L 525.460289 180.120606 
L 532.983652 183.100088 
L 540.507015 185.800719 
L 545.52259 187.338641 
L 545.52259 187.338641 
" style="fill:none;stroke:#008fd5;stroke-opacity:0.2;stroke-width:4;"/>
   </g>
   <g id="LineCollection_16">
    <path clip-path="url(#p5a3cf6d07f)" d="M 535.491439 180.050857 
L 538.215129 179.858421 
L 540.507015 178.067234 
L 543.014802 176.768237 
L 548.030377 176.000472 
L 550.538165 174.797264 
L 550.78813 174.48486 
L 551.31771 172.693673 
L 551.186194 170.902486 
L 550.538165 168.706188 
L 549.985221 167.320112 
L 549.12594 165.528925 
L 546.971156 161.946551 
L 544.245856 158.364176 
L 540.507015 154.391429 
L 537.100898 151.199428 
L 532.834546 147.617054 
L 527.968076 143.819458 
L 520.444714 138.294193 
L 505.397988 127.438973 
L 496.598415 120.749248 
L 485.335687 112.022909 
L 477.539872 106.419752 
L 472.796749 103.330807 
L 465.746821 99.255004 
L 462.31845 97.463817 
L 457.750023 95.289392 
L 454.056675 93.881443 
L 452.734448 93.425876 
L 450.22666 92.882575 
L 447.718872 92.857635 
L 445.502982 93.881443 
L 445.211085 94.299521 
L 444.51075 95.67263 
L 444.249308 97.463817 
L 444.207102 99.255004 
L 443.828638 101.046191 
L 442.703297 102.100802 
L 440.195509 103.414521 
L 439.49001 104.628565 
L 439.414813 106.419752 
L 439.907851 108.210939 
L 440.884177 110.002126 
L 442.703297 112.637463 
L 445.211085 115.607625 
L 448.592796 118.958061 
L 452.734448 122.687678 
L 469.379102 136.869932 
L 473.257765 140.452306 
L 482.827899 149.409859 
L 488.944879 154.781802 
L 495.586599 160.155364 
L 500.391043 163.737738 
L 505.635743 167.320112 
L 510.413563 170.269286 
L 515.429138 173.030877 
L 520.444714 175.392996 
L 522.952501 176.464988 
L 527.968076 178.284458 
L 532.983652 179.664036 
L 535.491439 180.050857 
L 535.491439 180.050857 
" style="fill:none;stroke:#008fd5;stroke-opacity:0.2;stroke-width:4;"/>
   </g>
   <g id="LineCollection_17">
    <path clip-path="url(#p5a3cf6d07f)" d="M 522.952501 173.024982 
L 525.460289 173.371552 
L 527.968076 173.132744 
L 528.956409 172.693673 
L 530.475864 171.731098 
L 532.08919 170.902486 
L 532.983652 170.656961 
L 535.491439 170.473172 
L 540.507015 170.688153 
L 543.014802 170.47824 
L 545.007591 169.111299 
L 545.323088 167.320112 
L 544.886314 165.528925 
L 544.149542 163.737738 
L 543.014802 161.67083 
L 542.030867 160.155364 
L 540.507015 158.11777 
L 537.999227 155.21819 
L 537.611468 154.781802 
L 533.961213 151.199428 
L 529.826456 147.617054 
L 525.312135 144.03468 
L 517.936926 138.568676 
L 500.382413 125.782429 
L 485.335687 114.720289 
L 477.812324 109.64793 
L 472.435024 106.419752 
L 467.781173 103.928732 
L 465.273386 102.75466 
L 462.765598 101.812786 
L 460.257811 101.073597 
L 457.750023 101.046191 
L 456.524813 102.837378 
L 456.691219 104.628565 
L 457.241465 106.419752 
L 458.625767 110.002126 
L 459.20194 111.793313 
L 459.589339 113.5845 
L 459.362192 115.375687 
L 457.750023 117.366154 
L 457.296149 118.958061 
L 458.239581 120.749248 
L 460.257811 123.079762 
L 463.202606 126.122809 
L 475.304536 138.023549 
L 482.842398 145.825867 
L 488.397781 151.199428 
L 492.85905 155.189249 
L 497.874625 159.280754 
L 502.8902 162.984151 
L 507.905775 166.271366 
L 512.921351 169.14249 
L 517.936926 171.405909 
L 521.75056 172.693673 
L 522.952501 173.024982 
L 522.952501 173.024982 
" style="fill:none;stroke:#008fd5;stroke-opacity:0.2;stroke-width:4;"/>
   </g>
   <g id="LineCollection_18">
    <path clip-path="url(#p5a3cf6d07f)" d="M 512.921351 164.66506 
L 515.429138 165.31499 
L 517.936926 165.357972 
L 520.444714 164.834037 
L 522.952501 164.32428 
L 525.460289 164.189914 
L 527.968076 164.361223 
L 530.475864 164.671323 
L 532.983652 164.985741 
L 535.491439 165.116606 
L 537.999227 164.295008 
L 538.392333 163.737738 
L 538.412373 161.946551 
L 537.999227 160.829636 
L 537.744231 160.155364 
L 536.676531 158.364176 
L 535.491439 156.640949 
L 535.444342 156.572989 
L 533.935517 154.781802 
L 532.983652 153.74741 
L 532.289707 152.990615 
L 530.516413 151.199428 
L 530.475864 151.162603 
L 528.566756 149.408241 
L 527.968076 148.891942 
L 526.504517 147.617054 
L 525.460289 146.756419 
L 524.342943 145.825867 
L 522.952501 144.722608 
L 522.096424 144.03468 
L 520.444714 142.762789 
L 519.781126 142.243493 
L 517.936926 140.853852 
L 517.414522 140.452306 
L 515.429138 138.976871 
L 515.013902 138.661119 
L 512.921351 137.117097 
L 512.594478 136.869932 
L 510.413563 135.264054 
L 510.167802 135.078745 
L 507.905775 133.411508 
L 507.740996 133.287558 
L 505.397988 131.557181 
L 505.316816 131.496371 
L 502.894146 129.705184 
L 502.8902 129.702285 
L 500.466164 127.913997 
L 500.382413 127.852186 
L 498.027448 126.122809 
L 497.874625 126.009781 
L 495.569177 124.331622 
L 495.366837 124.182162 
L 493.080837 122.540435 
L 492.85905 122.377469 
L 490.549895 120.749248 
L 490.351262 120.604699 
L 487.961122 118.958061 
L 487.843474 118.873669 
L 485.335687 117.195402 
L 485.288543 117.166874 
L 482.827899 115.58374 
L 482.465394 115.375687 
L 480.320112 114.052894 
L 479.454596 113.5845 
L 477.812324 112.620501 
L 476.181751 111.793313 
L 475.304536 111.306649 
L 472.796749 110.16176 
L 472.255806 110.002126 
L 470.288961 109.346042 
L 467.781173 109.172413 
L 466.707038 110.002126 
L 466.535428 111.793313 
L 466.977865 113.5845 
L 467.674195 115.375687 
L 467.781173 115.597328 
L 468.487229 117.166874 
L 469.344593 118.958061 
L 470.288961 120.656235 
L 470.336693 120.749248 
L 471.250203 122.540435 
L 472.309178 124.331622 
L 472.796749 125.083842 
L 473.399106 126.122809 
L 474.558576 127.913997 
L 475.304536 128.94749 
L 475.801762 129.705184 
L 477.078431 131.496371 
L 477.812324 132.463698 
L 478.396975 133.287558 
L 479.744184 135.078745 
L 480.320112 135.832284 
L 481.085838 136.869932 
L 482.452837 138.661119 
L 482.827899 139.144177 
L 483.835511 140.452306 
L 485.225247 142.243493 
L 485.335687 142.377583 
L 486.716548 144.03468 
L 487.843474 145.392119 
L 488.212942 145.825867 
L 489.821821 147.617054 
L 490.351262 148.188016 
L 491.525699 149.408241 
L 492.85905 150.789137 
L 493.276656 151.199428 
L 495.148811 152.990615 
L 495.366837 153.190383 
L 497.199524 154.781802 
L 497.874625 155.36484 
L 499.372295 156.572989 
L 500.382413 157.385171 
L 501.705936 158.364176 
L 502.8902 159.239121 
L 504.259194 160.155364 
L 505.397988 160.917731 
L 507.119755 161.946551 
L 507.905775 162.416523 
L 510.413563 163.737738 
L 512.921351 164.66506 
" style="fill:none;stroke:#008fd5;stroke-opacity:0.2;stroke-width:4;"/>
   </g>
   <g id="LineCollection_19">
    <path clip-path="url(#p5a3cf6d07f)" d="M 520.444714 157.120303 
L 522.952501 157.644245 
L 525.460289 158.079418 
L 527.968076 158.100437 
L 529.200527 156.572989 
L 528.638222 154.781802 
L 527.968076 153.747929 
L 527.458097 152.990615 
L 525.951926 151.199428 
L 525.460289 150.697263 
L 524.181716 149.408241 
L 522.952501 148.236212 
L 522.298207 147.617054 
L 520.444714 145.947011 
L 520.310209 145.825867 
L 518.171245 144.03468 
L 517.936926 143.848754 
L 515.946384 142.243493 
L 515.429138 141.841378 
L 513.679136 140.452306 
L 512.921351 139.870413 
L 511.382828 138.661119 
L 510.413563 137.921618 
L 509.066456 136.869932 
L 507.905775 135.987247 
L 506.734103 135.078745 
L 505.397988 134.065402 
L 504.385115 133.287558 
L 502.8902 132.159028 
L 502.014573 131.496371 
L 500.382413 130.274719 
L 499.613613 129.705184 
L 497.874625 128.421591 
L 497.169213 127.913997 
L 495.366837 126.610452 
L 494.663228 126.122809 
L 492.85905 124.853425 
L 492.070362 124.331622 
L 490.351262 123.164051 
L 489.354688 122.540435 
L 487.843474 121.557857 
L 486.463877 120.749248 
L 485.335687 120.053318 
L 483.319672 118.958061 
L 482.827899 118.673135 
L 480.320112 117.556647 
L 478.902427 117.166874 
L 477.812324 116.834676 
L 476.285575 117.166874 
L 475.679783 118.958061 
L 476.289901 120.749248 
L 477.152185 122.540435 
L 477.812324 123.625232 
L 478.246565 124.331622 
L 479.464541 126.122809 
L 480.320112 127.261158 
L 480.814881 127.913997 
L 482.237771 129.705184 
L 482.827899 130.407927 
L 483.754261 131.496371 
L 485.335687 133.287558 
L 486.932322 135.078745 
L 487.843474 136.091036 
L 488.578053 136.869932 
L 490.234049 138.661119 
L 490.351262 138.79554 
L 491.884425 140.452306 
L 492.85905 141.532714 
L 493.554806 142.243493 
L 495.241354 144.03468 
L 495.366837 144.174816 
L 496.995927 145.825867 
L 497.874625 146.725859 
L 498.858489 147.617054 
L 500.382413 149.000842 
L 500.904927 149.408241 
L 502.8902 150.944186 
L 503.288388 151.199428 
L 505.397988 152.52813 
L 506.326212 152.990615 
L 507.905775 153.758403 
L 510.413563 154.672568 
L 510.778855 154.781802 
L 512.921351 155.393806 
L 515.429138 155.989985 
L 517.936926 156.551846 
L 518.023912 156.572989 
L 520.444714 157.120303 
" style="fill:none;stroke:#008fd5;stroke-opacity:0.2;stroke-width:4;"/>
   </g>
   <g id="LineCollection_20"/>
   <g id="patch_8">
    <path d="M 381.395188 226.04358 
L 381.395188 53.18358 
" style="fill:none;stroke:#f0f0f0;stroke-linecap:square;stroke-linejoin:miter;stroke-width:3;"/>
   </g>
   <g id="patch_9">
    <path d="M 612.090188 226.04358 
L 612.090188 53.18358 
" style="fill:none;stroke:#f0f0f0;stroke-linecap:square;stroke-linejoin:miter;stroke-width:3;"/>
   </g>
   <g id="patch_10">
    <path d="M 381.395188 226.04358 
L 612.090188 226.04358 
" style="fill:none;stroke:#f0f0f0;stroke-linecap:square;stroke-linejoin:miter;stroke-width:3;"/>
   </g>
   <g id="patch_11">
    <path d="M 381.395188 53.18358 
L 612.090188 53.18358 
" style="fill:none;stroke:#f0f0f0;stroke-linecap:square;stroke-linejoin:miter;stroke-width:3;"/>
   </g>
   <g id="text_26">
    <!-- chiều dài bước: 0.25 -->
    <g transform="translate(394.096788 22.51845)scale(0.2016 -0.2016)">
     <use xlink:href="#DejaVuSans-99"/>
     <use x="54.980469" xlink:href="#DejaVuSans-104"/>
     <use x="118.359375" xlink:href="#DejaVuSans-105"/>
     <use x="146.142578" xlink:href="#DejaVuSans-7873"/>
     <use x="207.666016" xlink:href="#DejaVuSans-117"/>
     <use x="271.044922" xlink:href="#DejaVuSans-32"/>
     <use x="302.832031" xlink:href="#DejaVuSans-100"/>
     <use x="366.308594" xlink:href="#DejaVuSans-224"/>
     <use x="427.587891" xlink:href="#DejaVuSans-105"/>
     <use x="455.371094" xlink:href="#DejaVuSans-32"/>
     <use x="487.158203" xlink:href="#DejaVuSans-98"/>
     <use x="550.634766" xlink:href="#DejaVuSans-432"/>
     <use x="614.013672" xlink:href="#DejaVuSans-7899"/>
     <use x="675.195312" xlink:href="#DejaVuSans-99"/>
     <use x="730.175781" xlink:href="#DejaVuSans-58"/>
     <use x="763.867188" xlink:href="#DejaVuSans-32"/>
     <use x="795.654297" xlink:href="#DejaVuSans-48"/>
     <use x="859.277344" xlink:href="#DejaVuSans-46"/>
     <use x="891.064453" xlink:href="#DejaVuSans-50"/>
     <use x="954.6875" xlink:href="#DejaVuSans-53"/>
    </g>
    <!-- tỉ lệ chấp nhận: 0.48 -->
    <g transform="translate(392.485563 47.18358)scale(0.2016 -0.2016)">
     <defs>
      <path d="M 37.796875 64.3125 
L 12.890625 25.390625 
L 37.796875 25.390625 
z
M 35.203125 72.90625 
L 47.609375 72.90625 
L 47.609375 25.390625 
L 58.015625 25.390625 
L 58.015625 17.1875 
L 47.609375 17.1875 
L 47.609375 0 
L 37.796875 0 
L 37.796875 17.1875 
L 4.890625 17.1875 
L 4.890625 26.703125 
z
" id="DejaVuSans-52"/>
     </defs>
     <use xlink:href="#DejaVuSans-116"/>
     <use x="39.208984" xlink:href="#DejaVuSans-7881"/>
     <use x="66.992188" xlink:href="#DejaVuSans-32"/>
     <use x="98.779297" xlink:href="#DejaVuSans-108"/>
     <use x="126.5625" xlink:href="#DejaVuSans-7879"/>
     <use x="188.085938" xlink:href="#DejaVuSans-32"/>
     <use x="219.873047" xlink:href="#DejaVuSans-99"/>
     <use x="274.853516" xlink:href="#DejaVuSans-104"/>
     <use x="338.232422" xlink:href="#DejaVuSans-7845"/>
     <use x="399.511719" xlink:href="#DejaVuSans-112"/>
     <use x="462.988281" xlink:href="#DejaVuSans-32"/>
     <use x="494.775391" xlink:href="#DejaVuSans-110"/>
     <use x="558.154297" xlink:href="#DejaVuSans-104"/>
     <use x="621.533203" xlink:href="#DejaVuSans-7853"/>
     <use x="682.8125" xlink:href="#DejaVuSans-110"/>
     <use x="746.191406" xlink:href="#DejaVuSans-58"/>
     <use x="779.882812" xlink:href="#DejaVuSans-32"/>
     <use x="811.669922" xlink:href="#DejaVuSans-48"/>
     <use x="875.292969" xlink:href="#DejaVuSans-46"/>
     <use x="907.080078" xlink:href="#DejaVuSans-52"/>
     <use x="970.703125" xlink:href="#DejaVuSans-56"/>
    </g>
   </g>
  </g>
 </g>
 <defs>
  <clipPath id="p9679a14e8f">
   <rect height="172.86" width="230.695" x="64.955188" y="53.18358"/>
  </clipPath>
  <clipPath id="p5a3cf6d07f">
   <rect height="172.86" width="230.695" x="381.395188" y="53.18358"/>
  </clipPath>
 </defs>
</svg>
