<?xml version="1.0" encoding="utf-8" standalone="no"?>
<!DOCTYPE svg PUBLIC "-//W3C//DTD SVG 1.1//EN"
  "http://www.w3.org/Graphics/SVG/1.1/DTD/svg11.dtd">
<!-- Created with matplotlib (https://matplotlib.org/) -->
<svg height="557.609875pt" version="1.1" viewBox="0 0 734.4 557.609875" width="734.4pt" xmlns="http://www.w3.org/2000/svg" xmlns:xlink="http://www.w3.org/1999/xlink">
 <metadata>
  <rdf:RDF xmlns:cc="http://creativecommons.org/ns#" xmlns:dc="http://purl.org/dc/elements/1.1/" xmlns:rdf="http://www.w3.org/1999/02/22-rdf-syntax-ns#">
   <cc:Work>
    <dc:type rdf:resource="http://purl.org/dc/dcmitype/StillImage"/>
    <dc:date>2021-02-15T15:35:06.882411</dc:date>
    <dc:format>image/svg+xml</dc:format>
    <dc:creator>
     <cc:Agent>
      <dc:title>Matplotlib v3.3.3, https://matplotlib.org/</dc:title>
     </cc:Agent>
    </dc:creator>
   </cc:Work>
  </rdf:RDF>
 </metadata>
 <defs>
  <style type="text/css">*{stroke-linecap:butt;stroke-linejoin:round;}</style>
 </defs>
 <g id="figure_1">
  <g id="patch_1">
   <path d="M 0 557.609875 
L 734.4 557.609875 
L 734.4 0 
L 0 0 
z
" style="fill:#f0f0f0;"/>
  </g>
  <g id="axes_1">
   <g id="patch_2">
    <path d="M 70.523125 230.395 
L 371.7025 230.395 
L 371.7025 7.2 
L 70.523125 7.2 
z
" style="fill:#f0f0f0;"/>
   </g>
   <g id="matplotlib.axis_1">
    <g id="xtick_1">
     <g id="line2d_1">
      <path clip-path="url(#p81e366865d)" d="M 100.662222 230.395 
L 100.662222 7.2 
" style="fill:none;stroke:#cbcbcb;"/>
     </g>
     <g id="line2d_2"/>
    </g>
    <g id="xtick_2">
     <g id="line2d_3">
      <path clip-path="url(#p81e366865d)" d="M 167.034798 230.395 
L 167.034798 7.2 
" style="fill:none;stroke:#cbcbcb;"/>
     </g>
     <g id="line2d_4"/>
    </g>
    <g id="xtick_3">
     <g id="line2d_5">
      <path clip-path="url(#p81e366865d)" d="M 233.407374 230.395 
L 233.407374 7.2 
" style="fill:none;stroke:#cbcbcb;"/>
     </g>
     <g id="line2d_6"/>
    </g>
    <g id="xtick_4">
     <g id="line2d_7">
      <path clip-path="url(#p81e366865d)" d="M 299.77995 230.395 
L 299.77995 7.2 
" style="fill:none;stroke:#cbcbcb;"/>
     </g>
     <g id="line2d_8"/>
    </g>
    <g id="xtick_5">
     <g id="line2d_9">
      <path clip-path="url(#p81e366865d)" d="M 366.152525 230.395 
L 366.152525 7.2 
" style="fill:none;stroke:#cbcbcb;"/>
     </g>
     <g id="line2d_10"/>
    </g>
    <g id="text_1">
     <!-- tỉ lệ vỏ não (chuẩn hoá) -->
     <g transform="translate(131.73625 246.955156)scale(0.15 -0.15)">
      <defs>
       <path d="M 18.3125 70.21875 
L 18.3125 54.6875 
L 36.8125 54.6875 
L 36.8125 47.703125 
L 18.3125 47.703125 
L 18.3125 18.015625 
Q 18.3125 11.328125 20.140625 9.421875 
Q 21.96875 7.515625 27.59375 7.515625 
L 36.8125 7.515625 
L 36.8125 0 
L 27.59375 0 
Q 17.1875 0 13.234375 3.875 
Q 9.28125 7.765625 9.28125 18.015625 
L 9.28125 47.703125 
L 2.6875 47.703125 
L 2.6875 54.6875 
L 9.28125 54.6875 
L 9.28125 70.21875 
z
" id="DejaVuSans-116"/>
       <path d="M 9.421875 54.6875 
L 18.40625 54.6875 
L 18.40625 0 
L 9.421875 0 
z
M 13.921875 56 
z
M 3.328125 78.5625 
Q 8.796875 81.046875 13.921875 81.046875 
Q 19 81.046875 22.09375 78.96875 
Q 25.203125 76.90625 25.203125 73.625 
Q 25.203125 70.65625 20.90625 67.484375 
L 18.75 65.921875 
Q 17.046875 64.640625 16.84375 64.203125 
Q 16.5 63.421875 16.5 61.859375 
L 10.6875 61.859375 
L 10.6875 62.453125 
Q 10.6875 64.40625 11.421875 65.71875 
Q 12.15625 67.046875 14.65625 68.84375 
L 16.84375 70.5 
Q 19.09375 72.171875 19.09375 74.125 
Q 19.09375 75.140625 17.578125 76.015625 
Q 16.0625 76.90625 12.59375 76.90625 
Q 8.203125 76.90625 3.328125 74.359375 
z
" id="DejaVuSans-7881"/>
       <path id="DejaVuSans-32"/>
       <path d="M 9.421875 75.984375 
L 18.40625 75.984375 
L 18.40625 0 
L 9.421875 0 
z
" id="DejaVuSans-108"/>
       <path d="M 27.203125 -6.890625 
L 36.1875 -6.890625 
L 36.1875 -18.3125 
L 27.203125 -18.3125 
z
M 56.203125 29.59375 
L 56.203125 25.203125 
L 14.890625 25.203125 
Q 15.484375 15.921875 20.484375 11.0625 
Q 25.484375 6.203125 34.421875 6.203125 
Q 39.59375 6.203125 44.453125 7.46875 
Q 49.3125 8.734375 54.109375 11.28125 
L 54.109375 2.78125 
Q 49.265625 0.734375 44.1875 -0.34375 
Q 39.109375 -1.421875 33.890625 -1.421875 
Q 20.796875 -1.421875 13.15625 6.1875 
Q 5.515625 13.8125 5.515625 26.8125 
Q 5.515625 40.234375 12.765625 48.109375 
Q 20.015625 56 32.328125 56 
Q 43.359375 56 49.78125 48.890625 
Q 56.203125 41.796875 56.203125 29.59375 
z
M 47.21875 32.234375 
Q 47.125 39.59375 43.09375 43.984375 
Q 39.0625 48.390625 32.421875 48.390625 
Q 24.90625 48.390625 20.390625 44.140625 
Q 15.875 39.890625 15.1875 32.171875 
z
M 27.203125 -6.890625 
L 36.1875 -6.890625 
L 36.1875 -18.3125 
L 27.203125 -18.3125 
z
M 28.171875 79.984375 
L 35.40625 79.984375 
L 47.359375 61.625 
L 40.578125 61.625 
L 31.78125 73.578125 
L 23 61.625 
L 16.21875 61.625 
z
" id="DejaVuSans-7879"/>
       <path d="M 2.984375 54.6875 
L 12.5 54.6875 
L 29.59375 8.796875 
L 46.6875 54.6875 
L 56.203125 54.6875 
L 35.6875 0 
L 23.484375 0 
z
" id="DejaVuSans-118"/>
       <path d="M 30.609375 48.390625 
Q 23.390625 48.390625 19.1875 42.75 
Q 14.984375 37.109375 14.984375 27.296875 
Q 14.984375 17.484375 19.15625 11.84375 
Q 23.34375 6.203125 30.609375 6.203125 
Q 37.796875 6.203125 41.984375 11.859375 
Q 46.1875 17.53125 46.1875 27.296875 
Q 46.1875 37.015625 41.984375 42.703125 
Q 37.796875 48.390625 30.609375 48.390625 
z
M 30.609375 56 
Q 42.328125 56 49.015625 48.375 
Q 55.71875 40.765625 55.71875 27.296875 
Q 55.71875 13.875 49.015625 6.21875 
Q 42.328125 -1.421875 30.609375 -1.421875 
Q 18.84375 -1.421875 12.171875 6.21875 
Q 5.515625 13.875 5.515625 27.296875 
Q 5.515625 40.765625 12.171875 48.375 
Q 18.84375 56 30.609375 56 
z
M 21.296875 78.515625 
Q 26.765625 81 31.890625 81 
Q 36.96875 81 40.0625 78.921875 
Q 43.171875 76.859375 43.171875 73.578125 
Q 43.171875 70.609375 38.875 67.4375 
L 36.71875 65.875 
Q 35.015625 64.59375 34.8125 64.15625 
Q 34.46875 63.375 34.46875 61.8125 
L 28.65625 61.8125 
L 28.65625 62.40625 
Q 28.65625 64.359375 29.390625 65.671875 
Q 30.125 67 32.625 68.796875 
L 34.8125 70.453125 
Q 37.0625 72.125 37.0625 74.078125 
Q 37.0625 75.09375 35.546875 75.96875 
Q 34.03125 76.859375 30.5625 76.859375 
Q 26.171875 76.859375 21.296875 74.3125 
z
" id="DejaVuSans-7887"/>
       <path d="M 54.890625 33.015625 
L 54.890625 0 
L 45.90625 0 
L 45.90625 32.71875 
Q 45.90625 40.484375 42.875 44.328125 
Q 39.84375 48.1875 33.796875 48.1875 
Q 26.515625 48.1875 22.3125 43.546875 
Q 18.109375 38.921875 18.109375 30.90625 
L 18.109375 0 
L 9.078125 0 
L 9.078125 54.6875 
L 18.109375 54.6875 
L 18.109375 46.1875 
Q 21.34375 51.125 25.703125 53.5625 
Q 30.078125 56 35.796875 56 
Q 45.21875 56 50.046875 50.171875 
Q 54.890625 44.34375 54.890625 33.015625 
z
" id="DejaVuSans-110"/>
       <path d="M 34.28125 27.484375 
Q 23.390625 27.484375 19.1875 25 
Q 14.984375 22.515625 14.984375 16.5 
Q 14.984375 11.71875 18.140625 8.90625 
Q 21.296875 6.109375 26.703125 6.109375 
Q 34.1875 6.109375 38.703125 11.40625 
Q 43.21875 16.703125 43.21875 25.484375 
L 43.21875 27.484375 
z
M 52.203125 31.203125 
L 52.203125 0 
L 43.21875 0 
L 43.21875 8.296875 
Q 40.140625 3.328125 35.546875 0.953125 
Q 30.953125 -1.421875 24.3125 -1.421875 
Q 15.921875 -1.421875 10.953125 3.296875 
Q 6 8.015625 6 15.921875 
Q 6 25.140625 12.171875 29.828125 
Q 18.359375 34.515625 30.609375 34.515625 
L 43.21875 34.515625 
L 43.21875 35.40625 
Q 43.21875 41.609375 39.140625 45 
Q 35.0625 48.390625 27.6875 48.390625 
Q 23 48.390625 18.546875 47.265625 
Q 14.109375 46.140625 10.015625 43.890625 
L 10.015625 52.203125 
Q 14.9375 54.109375 19.578125 55.046875 
Q 24.21875 56 28.609375 56 
Q 40.484375 56 46.34375 49.84375 
Q 52.203125 43.703125 52.203125 31.203125 
z
M 28.8125 66.890625 
L 26.03125 69.578125 
Q 24.953125 70.5625 24.140625 71.015625 
Q 23.34375 71.484375 22.703125 71.484375 
Q 20.84375 71.484375 19.96875 69.703125 
Q 19.09375 67.921875 19 63.921875 
L 12.890625 63.921875 
Q 12.984375 70.515625 15.46875 74.09375 
Q 17.96875 77.6875 22.40625 77.6875 
Q 24.265625 77.6875 25.828125 77 
Q 27.390625 76.3125 29.203125 74.703125 
L 31.984375 72.015625 
Q 33.0625 71.046875 33.859375 70.578125 
Q 34.671875 70.125 35.296875 70.125 
Q 37.15625 70.125 38.03125 71.90625 
Q 38.921875 73.6875 39.015625 77.6875 
L 45.125 77.6875 
Q 45.015625 71.09375 42.53125 67.5 
Q 40.046875 63.921875 35.59375 63.921875 
Q 33.734375 63.921875 32.171875 64.59375 
Q 30.609375 65.28125 28.8125 66.890625 
z
" id="DejaVuSans-227"/>
       <path d="M 30.609375 48.390625 
Q 23.390625 48.390625 19.1875 42.75 
Q 14.984375 37.109375 14.984375 27.296875 
Q 14.984375 17.484375 19.15625 11.84375 
Q 23.34375 6.203125 30.609375 6.203125 
Q 37.796875 6.203125 41.984375 11.859375 
Q 46.1875 17.53125 46.1875 27.296875 
Q 46.1875 37.015625 41.984375 42.703125 
Q 37.796875 48.390625 30.609375 48.390625 
z
M 30.609375 56 
Q 42.328125 56 49.015625 48.375 
Q 55.71875 40.765625 55.71875 27.296875 
Q 55.71875 13.875 49.015625 6.21875 
Q 42.328125 -1.421875 30.609375 -1.421875 
Q 18.84375 -1.421875 12.171875 6.21875 
Q 5.515625 13.875 5.515625 27.296875 
Q 5.515625 40.765625 12.171875 48.375 
Q 18.84375 56 30.609375 56 
z
" id="DejaVuSans-111"/>
       <path d="M 31 75.875 
Q 24.46875 64.65625 21.28125 53.65625 
Q 18.109375 42.671875 18.109375 31.390625 
Q 18.109375 20.125 21.3125 9.0625 
Q 24.515625 -2 31 -13.1875 
L 23.1875 -13.1875 
Q 15.875 -1.703125 12.234375 9.375 
Q 8.59375 20.453125 8.59375 31.390625 
Q 8.59375 42.28125 12.203125 53.3125 
Q 15.828125 64.359375 23.1875 75.875 
z
" id="DejaVuSans-40"/>
       <path d="M 48.78125 52.59375 
L 48.78125 44.1875 
Q 44.96875 46.296875 41.140625 47.34375 
Q 37.3125 48.390625 33.40625 48.390625 
Q 24.65625 48.390625 19.8125 42.84375 
Q 14.984375 37.3125 14.984375 27.296875 
Q 14.984375 17.28125 19.8125 11.734375 
Q 24.65625 6.203125 33.40625 6.203125 
Q 37.3125 6.203125 41.140625 7.25 
Q 44.96875 8.296875 48.78125 10.40625 
L 48.78125 2.09375 
Q 45.015625 0.34375 40.984375 -0.53125 
Q 36.96875 -1.421875 32.421875 -1.421875 
Q 20.0625 -1.421875 12.78125 6.34375 
Q 5.515625 14.109375 5.515625 27.296875 
Q 5.515625 40.671875 12.859375 48.328125 
Q 20.21875 56 33.015625 56 
Q 37.15625 56 41.109375 55.140625 
Q 45.0625 54.296875 48.78125 52.59375 
z
" id="DejaVuSans-99"/>
       <path d="M 54.890625 33.015625 
L 54.890625 0 
L 45.90625 0 
L 45.90625 32.71875 
Q 45.90625 40.484375 42.875 44.328125 
Q 39.84375 48.1875 33.796875 48.1875 
Q 26.515625 48.1875 22.3125 43.546875 
Q 18.109375 38.921875 18.109375 30.90625 
L 18.109375 0 
L 9.078125 0 
L 9.078125 75.984375 
L 18.109375 75.984375 
L 18.109375 46.1875 
Q 21.34375 51.125 25.703125 53.5625 
Q 30.078125 56 35.796875 56 
Q 45.21875 56 50.046875 50.171875 
Q 54.890625 44.34375 54.890625 33.015625 
z
" id="DejaVuSans-104"/>
       <path d="M 8.5 21.578125 
L 8.5 54.6875 
L 17.484375 54.6875 
L 17.484375 21.921875 
Q 17.484375 14.15625 20.5 10.265625 
Q 23.53125 6.390625 29.59375 6.390625 
Q 36.859375 6.390625 41.078125 11.03125 
Q 45.3125 15.671875 45.3125 23.6875 
L 45.3125 54.6875 
L 54.296875 54.6875 
L 54.296875 0 
L 45.3125 0 
L 45.3125 8.40625 
Q 42.046875 3.421875 37.71875 1 
Q 33.40625 -1.421875 27.6875 -1.421875 
Q 18.265625 -1.421875 13.375 4.4375 
Q 8.5 10.296875 8.5 21.578125 
z
M 31.109375 56 
z
" id="DejaVuSans-117"/>
       <path d="M 35.796875 83.734375 
Q 41.265625 86.21875 46.390625 86.21875 
Q 51.46875 86.21875 54.5625 84.140625 
Q 57.671875 82.078125 57.671875 78.796875 
Q 57.671875 75.828125 53.375 72.65625 
L 51.21875 71.09375 
Q 49.515625 69.8125 49.3125 69.375 
Q 48.96875 68.59375 48.96875 67.03125 
L 43.171875 67.03125 
L 43.171875 67.625 
Q 43.171875 69.578125 43.890625 70.890625 
Q 44.625 72.21875 47.125 74.015625 
L 49.3125 75.671875 
Q 51.5625 77.34375 51.5625 79.296875 
Q 51.5625 80.3125 50.046875 81.1875 
Q 48.53125 82.078125 45.0625 82.078125 
Q 40.671875 82.078125 35.796875 79.53125 
z
M 24.421875 74.609375 
L 33.59375 74.609375 
L 43.890625 61.625 
L 37.109375 61.625 
L 29 70.3125 
L 20.90625 61.625 
L 14.109375 61.625 
z
M 34.28125 27.484375 
Q 23.390625 27.484375 19.1875 25 
Q 14.984375 22.515625 14.984375 16.5 
Q 14.984375 11.71875 18.140625 8.90625 
Q 21.296875 6.109375 26.703125 6.109375 
Q 34.1875 6.109375 38.703125 11.40625 
Q 43.21875 16.703125 43.21875 25.484375 
L 43.21875 27.484375 
z
M 52.203125 31.203125 
L 52.203125 0 
L 43.21875 0 
L 43.21875 8.296875 
Q 40.140625 3.328125 35.546875 0.953125 
Q 30.953125 -1.421875 24.3125 -1.421875 
Q 15.921875 -1.421875 10.953125 3.296875 
Q 6 8.015625 6 15.921875 
Q 6 25.140625 12.171875 29.828125 
Q 18.359375 34.515625 30.609375 34.515625 
L 43.21875 34.515625 
L 43.21875 35.40625 
Q 43.21875 41.609375 39.140625 45 
Q 35.0625 48.390625 27.6875 48.390625 
Q 23 48.390625 18.546875 47.265625 
Q 14.109375 46.140625 10.015625 43.890625 
L 10.015625 52.203125 
Q 14.9375 54.109375 19.578125 55.046875 
Q 24.21875 56 28.609375 56 
Q 40.484375 56 46.34375 49.84375 
Q 52.203125 43.703125 52.203125 31.203125 
z
" id="DejaVuSans-7849"/>
       <path d="M 34.28125 27.484375 
Q 23.390625 27.484375 19.1875 25 
Q 14.984375 22.515625 14.984375 16.5 
Q 14.984375 11.71875 18.140625 8.90625 
Q 21.296875 6.109375 26.703125 6.109375 
Q 34.1875 6.109375 38.703125 11.40625 
Q 43.21875 16.703125 43.21875 25.484375 
L 43.21875 27.484375 
z
M 52.203125 31.203125 
L 52.203125 0 
L 43.21875 0 
L 43.21875 8.296875 
Q 40.140625 3.328125 35.546875 0.953125 
Q 30.953125 -1.421875 24.3125 -1.421875 
Q 15.921875 -1.421875 10.953125 3.296875 
Q 6 8.015625 6 15.921875 
Q 6 25.140625 12.171875 29.828125 
Q 18.359375 34.515625 30.609375 34.515625 
L 43.21875 34.515625 
L 43.21875 35.40625 
Q 43.21875 41.609375 39.140625 45 
Q 35.0625 48.390625 27.6875 48.390625 
Q 23 48.390625 18.546875 47.265625 
Q 14.109375 46.140625 10.015625 43.890625 
L 10.015625 52.203125 
Q 14.9375 54.109375 19.578125 55.046875 
Q 24.21875 56 28.609375 56 
Q 40.484375 56 46.34375 49.84375 
Q 52.203125 43.703125 52.203125 31.203125 
z
M 35.796875 79.984375 
L 45.515625 79.984375 
L 29.59375 61.625 
L 22.125 61.625 
z
" id="DejaVuSans-225"/>
       <path d="M 8.015625 75.875 
L 15.828125 75.875 
Q 23.140625 64.359375 26.78125 53.3125 
Q 30.421875 42.28125 30.421875 31.390625 
Q 30.421875 20.453125 26.78125 9.375 
Q 23.140625 -1.703125 15.828125 -13.1875 
L 8.015625 -13.1875 
Q 14.5 -2 17.703125 9.0625 
Q 20.90625 20.125 20.90625 31.390625 
Q 20.90625 42.671875 17.703125 53.65625 
Q 14.5 64.65625 8.015625 75.875 
z
" id="DejaVuSans-41"/>
      </defs>
      <use xlink:href="#DejaVuSans-116"/>
      <use x="39.208984" xlink:href="#DejaVuSans-7881"/>
      <use x="66.992188" xlink:href="#DejaVuSans-32"/>
      <use x="98.779297" xlink:href="#DejaVuSans-108"/>
      <use x="126.5625" xlink:href="#DejaVuSans-7879"/>
      <use x="188.085938" xlink:href="#DejaVuSans-32"/>
      <use x="219.873047" xlink:href="#DejaVuSans-118"/>
      <use x="279.052734" xlink:href="#DejaVuSans-7887"/>
      <use x="340.234375" xlink:href="#DejaVuSans-32"/>
      <use x="372.021484" xlink:href="#DejaVuSans-110"/>
      <use x="435.400391" xlink:href="#DejaVuSans-227"/>
      <use x="496.679688" xlink:href="#DejaVuSans-111"/>
      <use x="557.861328" xlink:href="#DejaVuSans-32"/>
      <use x="589.648438" xlink:href="#DejaVuSans-40"/>
      <use x="628.662109" xlink:href="#DejaVuSans-99"/>
      <use x="683.642578" xlink:href="#DejaVuSans-104"/>
      <use x="747.021484" xlink:href="#DejaVuSans-117"/>
      <use x="810.400391" xlink:href="#DejaVuSans-7849"/>
      <use x="871.679688" xlink:href="#DejaVuSans-110"/>
      <use x="935.058594" xlink:href="#DejaVuSans-32"/>
      <use x="966.845703" xlink:href="#DejaVuSans-104"/>
      <use x="1030.224609" xlink:href="#DejaVuSans-111"/>
      <use x="1091.40625" xlink:href="#DejaVuSans-225"/>
      <use x="1152.685547" xlink:href="#DejaVuSans-41"/>
     </g>
    </g>
   </g>
   <g id="matplotlib.axis_2">
    <g id="ytick_1">
     <g id="line2d_11">
      <path clip-path="url(#p81e366865d)" d="M 70.523125 206.382909 
L 371.7025 206.382909 
" style="fill:none;stroke:#cbcbcb;"/>
     </g>
     <g id="line2d_12"/>
     <g id="text_2">
      <!-- −2 -->
      <g transform="translate(46.384063 211.701815)scale(0.14 -0.14)">
       <defs>
        <path d="M 10.59375 35.5 
L 73.1875 35.5 
L 73.1875 27.203125 
L 10.59375 27.203125 
z
" id="DejaVuSans-8722"/>
        <path d="M 19.1875 8.296875 
L 53.609375 8.296875 
L 53.609375 0 
L 7.328125 0 
L 7.328125 8.296875 
Q 12.9375 14.109375 22.625 23.890625 
Q 32.328125 33.6875 34.8125 36.53125 
Q 39.546875 41.84375 41.421875 45.53125 
Q 43.3125 49.21875 43.3125 52.78125 
Q 43.3125 58.59375 39.234375 62.25 
Q 35.15625 65.921875 28.609375 65.921875 
Q 23.96875 65.921875 18.8125 64.3125 
Q 13.671875 62.703125 7.8125 59.421875 
L 7.8125 69.390625 
Q 13.765625 71.78125 18.9375 73 
Q 24.125 74.21875 28.421875 74.21875 
Q 39.75 74.21875 46.484375 68.546875 
Q 53.21875 62.890625 53.21875 53.421875 
Q 53.21875 48.921875 51.53125 44.890625 
Q 49.859375 40.875 45.40625 35.40625 
Q 44.1875 33.984375 37.640625 27.21875 
Q 31.109375 20.453125 19.1875 8.296875 
z
" id="DejaVuSans-50"/>
       </defs>
       <use xlink:href="#DejaVuSans-8722"/>
       <use x="83.789062" xlink:href="#DejaVuSans-50"/>
      </g>
     </g>
    </g>
    <g id="ytick_2">
     <g id="line2d_13">
      <path clip-path="url(#p81e366865d)" d="M 70.523125 164.128408 
L 371.7025 164.128408 
" style="fill:none;stroke:#cbcbcb;"/>
     </g>
     <g id="line2d_14"/>
     <g id="text_3">
      <!-- −1 -->
      <g transform="translate(46.384063 169.447314)scale(0.14 -0.14)">
       <defs>
        <path d="M 12.40625 8.296875 
L 28.515625 8.296875 
L 28.515625 63.921875 
L 10.984375 60.40625 
L 10.984375 69.390625 
L 28.421875 72.90625 
L 38.28125 72.90625 
L 38.28125 8.296875 
L 54.390625 8.296875 
L 54.390625 0 
L 12.40625 0 
z
" id="DejaVuSans-49"/>
       </defs>
       <use xlink:href="#DejaVuSans-8722"/>
       <use x="83.789062" xlink:href="#DejaVuSans-49"/>
      </g>
     </g>
    </g>
    <g id="ytick_3">
     <g id="line2d_15">
      <path clip-path="url(#p81e366865d)" d="M 70.523125 121.873906 
L 371.7025 121.873906 
" style="fill:none;stroke:#cbcbcb;"/>
     </g>
     <g id="line2d_16"/>
     <g id="text_4">
      <!-- 0 -->
      <g transform="translate(58.115625 127.192813)scale(0.14 -0.14)">
       <defs>
        <path d="M 31.78125 66.40625 
Q 24.171875 66.40625 20.328125 58.90625 
Q 16.5 51.421875 16.5 36.375 
Q 16.5 21.390625 20.328125 13.890625 
Q 24.171875 6.390625 31.78125 6.390625 
Q 39.453125 6.390625 43.28125 13.890625 
Q 47.125 21.390625 47.125 36.375 
Q 47.125 51.421875 43.28125 58.90625 
Q 39.453125 66.40625 31.78125 66.40625 
z
M 31.78125 74.21875 
Q 44.046875 74.21875 50.515625 64.515625 
Q 56.984375 54.828125 56.984375 36.375 
Q 56.984375 17.96875 50.515625 8.265625 
Q 44.046875 -1.421875 31.78125 -1.421875 
Q 19.53125 -1.421875 13.0625 8.265625 
Q 6.59375 17.96875 6.59375 36.375 
Q 6.59375 54.828125 13.0625 64.515625 
Q 19.53125 74.21875 31.78125 74.21875 
z
" id="DejaVuSans-48"/>
       </defs>
       <use xlink:href="#DejaVuSans-48"/>
      </g>
     </g>
    </g>
    <g id="ytick_4">
     <g id="line2d_17">
      <path clip-path="url(#p81e366865d)" d="M 70.523125 79.619405 
L 371.7025 79.619405 
" style="fill:none;stroke:#cbcbcb;"/>
     </g>
     <g id="line2d_18"/>
     <g id="text_5">
      <!-- 1 -->
      <g transform="translate(58.115625 84.938311)scale(0.14 -0.14)">
       <use xlink:href="#DejaVuSans-49"/>
      </g>
     </g>
    </g>
    <g id="ytick_5">
     <g id="line2d_19">
      <path clip-path="url(#p81e366865d)" d="M 70.523125 37.364904 
L 371.7025 37.364904 
" style="fill:none;stroke:#cbcbcb;"/>
     </g>
     <g id="line2d_20"/>
     <g id="text_6">
      <!-- 2 -->
      <g transform="translate(58.115625 42.68381)scale(0.14 -0.14)">
       <use xlink:href="#DejaVuSans-50"/>
      </g>
     </g>
    </g>
    <g id="text_7">
     <!-- kilocal mỗi g (chuẩn hoá) -->
     <g transform="translate(39.264531 213.743984)rotate(-90)scale(0.15 -0.15)">
      <defs>
       <path d="M 9.078125 75.984375 
L 18.109375 75.984375 
L 18.109375 31.109375 
L 44.921875 54.6875 
L 56.390625 54.6875 
L 27.390625 29.109375 
L 57.625 0 
L 45.90625 0 
L 18.109375 26.703125 
L 18.109375 0 
L 9.078125 0 
z
" id="DejaVuSans-107"/>
       <path d="M 9.421875 54.6875 
L 18.40625 54.6875 
L 18.40625 0 
L 9.421875 0 
z
M 9.421875 75.984375 
L 18.40625 75.984375 
L 18.40625 64.59375 
L 9.421875 64.59375 
z
" id="DejaVuSans-105"/>
       <path d="M 34.28125 27.484375 
Q 23.390625 27.484375 19.1875 25 
Q 14.984375 22.515625 14.984375 16.5 
Q 14.984375 11.71875 18.140625 8.90625 
Q 21.296875 6.109375 26.703125 6.109375 
Q 34.1875 6.109375 38.703125 11.40625 
Q 43.21875 16.703125 43.21875 25.484375 
L 43.21875 27.484375 
z
M 52.203125 31.203125 
L 52.203125 0 
L 43.21875 0 
L 43.21875 8.296875 
Q 40.140625 3.328125 35.546875 0.953125 
Q 30.953125 -1.421875 24.3125 -1.421875 
Q 15.921875 -1.421875 10.953125 3.296875 
Q 6 8.015625 6 15.921875 
Q 6 25.140625 12.171875 29.828125 
Q 18.359375 34.515625 30.609375 34.515625 
L 43.21875 34.515625 
L 43.21875 35.40625 
Q 43.21875 41.609375 39.140625 45 
Q 35.0625 48.390625 27.6875 48.390625 
Q 23 48.390625 18.546875 47.265625 
Q 14.109375 46.140625 10.015625 43.890625 
L 10.015625 52.203125 
Q 14.9375 54.109375 19.578125 55.046875 
Q 24.21875 56 28.609375 56 
Q 40.484375 56 46.34375 49.84375 
Q 52.203125 43.703125 52.203125 31.203125 
z
" id="DejaVuSans-97"/>
       <path d="M 52 44.1875 
Q 55.375 50.25 60.0625 53.125 
Q 64.75 56 71.09375 56 
Q 79.640625 56 84.28125 50.015625 
Q 88.921875 44.046875 88.921875 33.015625 
L 88.921875 0 
L 79.890625 0 
L 79.890625 32.71875 
Q 79.890625 40.578125 77.09375 44.375 
Q 74.3125 48.1875 68.609375 48.1875 
Q 61.625 48.1875 57.5625 43.546875 
Q 53.515625 38.921875 53.515625 30.90625 
L 53.515625 0 
L 44.484375 0 
L 44.484375 32.71875 
Q 44.484375 40.625 41.703125 44.40625 
Q 38.921875 48.1875 33.109375 48.1875 
Q 26.21875 48.1875 22.15625 43.53125 
Q 18.109375 38.875 18.109375 30.90625 
L 18.109375 0 
L 9.078125 0 
L 9.078125 54.6875 
L 18.109375 54.6875 
L 18.109375 46.1875 
Q 21.1875 51.21875 25.484375 53.609375 
Q 29.78125 56 35.6875 56 
Q 41.65625 56 45.828125 52.96875 
Q 50 49.953125 52 44.1875 
z
" id="DejaVuSans-109"/>
       <path d="M 25.984375 74.609375 
L 35.15625 74.609375 
L 45.453125 61.625 
L 38.671875 61.625 
L 30.5625 70.3125 
L 22.46875 61.625 
L 15.671875 61.625 
z
M 30.5625 78.90625 
L 27.78125 80.515625 
Q 26.5625 81.203125 25.796875 81.46875 
Q 25.046875 81.734375 24.46875 81.734375 
Q 22.703125 81.734375 21.71875 80.515625 
Q 20.75 79.296875 20.75 77.109375 
L 20.75 76.8125 
L 14.65625 76.8125 
Q 14.65625 81.734375 17.15625 84.609375 
Q 19.671875 87.5 23.875 87.5 
Q 25.640625 87.5 27.125 87.109375 
Q 28.609375 86.71875 30.953125 85.40625 
L 33.734375 83.9375 
Q 34.859375 83.296875 35.6875 83 
Q 36.53125 82.71875 37.25 82.71875 
Q 38.8125 82.71875 39.78125 83.953125 
Q 40.765625 85.203125 40.765625 87.203125 
L 40.765625 87.5 
L 46.875 87.5 
Q 46.78125 82.625 44.265625 79.71875 
Q 41.75 76.8125 37.640625 76.8125 
Q 35.984375 76.8125 34.546875 77.203125 
Q 33.109375 77.59375 30.5625 78.90625 
z
M 30.609375 48.390625 
Q 23.390625 48.390625 19.1875 42.75 
Q 14.984375 37.109375 14.984375 27.296875 
Q 14.984375 17.484375 19.15625 11.84375 
Q 23.34375 6.203125 30.609375 6.203125 
Q 37.796875 6.203125 41.984375 11.859375 
Q 46.1875 17.53125 46.1875 27.296875 
Q 46.1875 37.015625 41.984375 42.703125 
Q 37.796875 48.390625 30.609375 48.390625 
z
M 30.609375 56 
Q 42.328125 56 49.015625 48.375 
Q 55.71875 40.765625 55.71875 27.296875 
Q 55.71875 13.875 49.015625 6.21875 
Q 42.328125 -1.421875 30.609375 -1.421875 
Q 18.84375 -1.421875 12.171875 6.21875 
Q 5.515625 13.875 5.515625 27.296875 
Q 5.515625 40.765625 12.171875 48.375 
Q 18.84375 56 30.609375 56 
z
" id="DejaVuSans-7895"/>
       <path d="M 45.40625 27.984375 
Q 45.40625 37.75 41.375 43.109375 
Q 37.359375 48.484375 30.078125 48.484375 
Q 22.859375 48.484375 18.828125 43.109375 
Q 14.796875 37.75 14.796875 27.984375 
Q 14.796875 18.265625 18.828125 12.890625 
Q 22.859375 7.515625 30.078125 7.515625 
Q 37.359375 7.515625 41.375 12.890625 
Q 45.40625 18.265625 45.40625 27.984375 
z
M 54.390625 6.78125 
Q 54.390625 -7.171875 48.1875 -13.984375 
Q 42 -20.796875 29.203125 -20.796875 
Q 24.46875 -20.796875 20.265625 -20.09375 
Q 16.0625 -19.390625 12.109375 -17.921875 
L 12.109375 -9.1875 
Q 16.0625 -11.328125 19.921875 -12.34375 
Q 23.78125 -13.375 27.78125 -13.375 
Q 36.625 -13.375 41.015625 -8.765625 
Q 45.40625 -4.15625 45.40625 5.171875 
L 45.40625 9.625 
Q 42.625 4.78125 38.28125 2.390625 
Q 33.9375 0 27.875 0 
Q 17.828125 0 11.671875 7.65625 
Q 5.515625 15.328125 5.515625 27.984375 
Q 5.515625 40.671875 11.671875 48.328125 
Q 17.828125 56 27.875 56 
Q 33.9375 56 38.28125 53.609375 
Q 42.625 51.21875 45.40625 46.390625 
L 45.40625 54.6875 
L 54.390625 54.6875 
z
" id="DejaVuSans-103"/>
      </defs>
      <use xlink:href="#DejaVuSans-107"/>
      <use x="57.910156" xlink:href="#DejaVuSans-105"/>
      <use x="85.693359" xlink:href="#DejaVuSans-108"/>
      <use x="113.476562" xlink:href="#DejaVuSans-111"/>
      <use x="174.658203" xlink:href="#DejaVuSans-99"/>
      <use x="229.638672" xlink:href="#DejaVuSans-97"/>
      <use x="290.917969" xlink:href="#DejaVuSans-108"/>
      <use x="318.701172" xlink:href="#DejaVuSans-32"/>
      <use x="350.488281" xlink:href="#DejaVuSans-109"/>
      <use x="447.900391" xlink:href="#DejaVuSans-7895"/>
      <use x="509.082031" xlink:href="#DejaVuSans-105"/>
      <use x="536.865234" xlink:href="#DejaVuSans-32"/>
      <use x="568.652344" xlink:href="#DejaVuSans-103"/>
      <use x="632.128906" xlink:href="#DejaVuSans-32"/>
      <use x="663.916016" xlink:href="#DejaVuSans-40"/>
      <use x="702.929688" xlink:href="#DejaVuSans-99"/>
      <use x="757.910156" xlink:href="#DejaVuSans-104"/>
      <use x="821.289062" xlink:href="#DejaVuSans-117"/>
      <use x="884.667969" xlink:href="#DejaVuSans-7849"/>
      <use x="945.947266" xlink:href="#DejaVuSans-110"/>
      <use x="1009.326172" xlink:href="#DejaVuSans-32"/>
      <use x="1041.113281" xlink:href="#DejaVuSans-104"/>
      <use x="1104.492188" xlink:href="#DejaVuSans-111"/>
      <use x="1165.673828" xlink:href="#DejaVuSans-225"/>
      <use x="1226.953125" xlink:href="#DejaVuSans-41"/>
     </g>
    </g>
   </g>
   <g id="line2d_21">
    <path clip-path="url(#p81e366865d)" d="M 95.339405 161.594862 
L 199.647541 166.830806 
L 199.647541 143.269058 
L 234.120379 56.875979 
L 247.575906 49.022063 
L 136.373203 80.437728 
L 167.954771 169.448778 
L 152.72 103.999476 
L 260.030609 111.853393 
L 264.923528 35.932202 
L 298.173136 69.965839 
L 232.89715 127.561225 
L 274.375758 148.505002 
L 289.27692 161.594862 
L 263.033082 164.212834 
L 330.42192 145.88703 
L 321.414502 103.999476 
" style="fill:none;"/>
    <defs>
     <path d="M 0 1.5 
C 0.397805 1.5 0.77937 1.341951 1.06066 1.06066 
C 1.341951 0.77937 1.5 0.397805 1.5 0 
C 1.5 -0.397805 1.341951 -0.77937 1.06066 -1.06066 
C 0.77937 -1.341951 0.397805 -1.5 0 -1.5 
C -0.397805 -1.5 -0.77937 -1.341951 -1.06066 -1.06066 
C -1.341951 -0.77937 -1.5 -0.397805 -1.5 0 
C -1.5 0.397805 -1.341951 0.77937 -1.06066 1.06066 
C -0.77937 1.341951 -0.397805 1.5 0 1.5 
z
" id="m784ad95e88" style="stroke:#008fd5;"/>
    </defs>
    <g clip-path="url(#p81e366865d)">
     <use style="fill:#008fd5;stroke:#008fd5;" x="95.339405" xlink:href="#m784ad95e88" y="161.594862"/>
     <use style="fill:#008fd5;stroke:#008fd5;" x="199.647541" xlink:href="#m784ad95e88" y="166.830806"/>
     <use style="fill:#008fd5;stroke:#008fd5;" x="199.647541" xlink:href="#m784ad95e88" y="143.269058"/>
     <use style="fill:#008fd5;stroke:#008fd5;" x="234.120379" xlink:href="#m784ad95e88" y="56.875979"/>
     <use style="fill:#008fd5;stroke:#008fd5;" x="247.575906" xlink:href="#m784ad95e88" y="49.022063"/>
     <use style="fill:#008fd5;stroke:#008fd5;" x="136.373203" xlink:href="#m784ad95e88" y="80.437728"/>
     <use style="fill:#008fd5;stroke:#008fd5;" x="167.954771" xlink:href="#m784ad95e88" y="169.448778"/>
     <use style="fill:#008fd5;stroke:#008fd5;" x="152.72" xlink:href="#m784ad95e88" y="103.999476"/>
     <use style="fill:#008fd5;stroke:#008fd5;" x="260.030609" xlink:href="#m784ad95e88" y="111.853393"/>
     <use style="fill:#008fd5;stroke:#008fd5;" x="264.923528" xlink:href="#m784ad95e88" y="35.932202"/>
     <use style="fill:#008fd5;stroke:#008fd5;" x="298.173136" xlink:href="#m784ad95e88" y="69.965839"/>
     <use style="fill:#008fd5;stroke:#008fd5;" x="232.89715" xlink:href="#m784ad95e88" y="127.561225"/>
     <use style="fill:#008fd5;stroke:#008fd5;" x="274.375758" xlink:href="#m784ad95e88" y="148.505002"/>
     <use style="fill:#008fd5;stroke:#008fd5;" x="289.27692" xlink:href="#m784ad95e88" y="161.594862"/>
     <use style="fill:#008fd5;stroke:#008fd5;" x="263.033082" xlink:href="#m784ad95e88" y="164.212834"/>
     <use style="fill:#008fd5;stroke:#008fd5;" x="330.42192" xlink:href="#m784ad95e88" y="145.88703"/>
     <use style="fill:#008fd5;stroke:#008fd5;" x="321.414502" xlink:href="#m784ad95e88" y="103.999476"/>
    </g>
   </g>
   <g id="PolyCollection_1">
    <defs>
     <path d="M 85.383521 -461.990221 
L 85.383521 -389.783922 
L 94.176427 -391.996164 
L 102.969341 -394.440952 
L 111.762239 -397.269534 
L 120.555145 -399.983555 
L 129.348051 -402.287827 
L 138.140957 -404.999414 
L 146.933863 -407.446192 
L 155.726769 -410.480302 
L 164.519675 -412.962473 
L 173.312581 -415.233741 
L 182.105491 -417.271222 
L 190.898393 -419.312796 
L 199.691299 -421.122264 
L 208.484213 -423.409794 
L 217.277107 -425.014427 
L 226.070021 -425.947025 
L 234.862931 -427.085117 
L 243.655825 -427.13425 
L 252.448739 -427.484879 
L 261.241645 -427.171435 
L 270.034543 -426.835513 
L 278.827457 -426.435695 
L 287.620367 -425.909792 
L 296.413281 -425.384369 
L 305.206179 -424.589421 
L 313.999085 -423.527008 
L 322.791999 -421.970979 
L 331.584889 -420.935887 
L 340.377803 -420.207273 
L 340.377803 -475.301293 
L 340.377803 -475.301293 
L 331.584889 -472.593695 
L 322.791999 -469.795698 
L 313.999085 -466.995885 
L 305.206179 -464.453334 
L 296.413281 -461.75379 
L 287.620367 -458.966087 
L 278.827457 -456.801061 
L 270.034543 -454.646008 
L 261.241645 -452.61238 
L 252.448739 -450.941135 
L 243.655825 -449.312554 
L 234.862931 -448.400495 
L 226.070021 -447.667438 
L 217.277107 -447.467577 
L 208.484213 -447.689925 
L 199.691299 -448.077887 
L 190.898393 -448.799753 
L 182.105491 -449.284219 
L 173.312581 -450.366199 
L 164.519675 -451.19408 
L 155.726769 -452.077256 
L 146.933863 -453.46918 
L 138.140957 -454.35488 
L 129.348051 -455.530698 
L 120.555145 -456.774246 
L 111.762239 -457.934234 
L 102.969341 -459.298482 
L 94.176427 -460.646121 
L 85.383521 -461.990221 
z
" id="m833188f3c0" style="stroke:#fc4f30;stroke-opacity:0.2;stroke-width:0.5;"/>
    </defs>
    <g clip-path="url(#p81e366865d)">
     <use style="fill:#fc4f30;fill-opacity:0.2;stroke:#fc4f30;stroke-opacity:0.2;stroke-width:0.5;" x="0" xlink:href="#m833188f3c0" y="557.609875"/>
    </g>
   </g>
   <g id="line2d_22">
    <path clip-path="url(#p81e366865d)" d="M 85.383521 131.95463 
L 94.176427 131.232707 
L 102.969341 130.510785 
L 111.762239 129.788861 
L 120.555145 129.066939 
L 129.348051 128.345017 
L 138.140957 127.623094 
L 146.933863 126.901171 
L 155.726769 126.179249 
L 164.519675 125.457326 
L 173.312581 124.735403 
L 182.105491 124.013481 
L 190.898393 123.291558 
L 199.691299 122.569636 
L 208.484213 121.847713 
L 217.277107 121.125791 
L 226.070021 120.403868 
L 234.862931 119.681945 
L 243.655825 118.960024 
L 252.448739 118.2381 
L 261.241645 117.516178 
L 270.034543 116.794255 
L 278.827457 116.072333 
L 287.620367 115.350409 
L 296.413281 114.628485 
L 305.206179 113.906565 
L 313.999085 113.184642 
L 322.791999 112.462718 
L 331.584889 111.740798 
L 340.377803 111.018872 
" style="fill:none;stroke:#008fd5;stroke-width:4;"/>
   </g>
   <g id="patch_3">
    <path d="M 70.523125 230.395 
L 70.523125 7.2 
" style="fill:none;stroke:#f0f0f0;stroke-linecap:square;stroke-linejoin:miter;stroke-width:3;"/>
   </g>
   <g id="patch_4">
    <path d="M 371.7025 230.395 
L 371.7025 7.2 
" style="fill:none;stroke:#f0f0f0;stroke-linecap:square;stroke-linejoin:miter;stroke-width:3;"/>
   </g>
   <g id="patch_5">
    <path d="M 70.523125 230.395 
L 371.7025 230.395 
" style="fill:none;stroke:#f0f0f0;stroke-linecap:square;stroke-linejoin:miter;stroke-width:3;"/>
   </g>
   <g id="patch_6">
    <path d="M 70.523125 7.2 
L 371.7025 7.2 
" style="fill:none;stroke:#f0f0f0;stroke-linecap:square;stroke-linejoin:miter;stroke-width:3;"/>
   </g>
  </g>
  <g id="axes_2">
   <g id="patch_7">
    <path d="M 410.900625 230.395 
L 712.08 230.395 
L 712.08 7.2 
L 410.900625 7.2 
z
" style="fill:#f0f0f0;"/>
   </g>
   <g id="matplotlib.axis_3">
    <g id="xtick_6">
     <g id="line2d_23">
      <path clip-path="url(#pb0304dfe94)" d="M 441.039722 230.395 
L 441.039722 7.2 
" style="fill:none;stroke:#cbcbcb;"/>
     </g>
     <g id="line2d_24"/>
    </g>
    <g id="xtick_7">
     <g id="line2d_25">
      <path clip-path="url(#pb0304dfe94)" d="M 507.412298 230.395 
L 507.412298 7.2 
" style="fill:none;stroke:#cbcbcb;"/>
     </g>
     <g id="line2d_26"/>
    </g>
    <g id="xtick_8">
     <g id="line2d_27">
      <path clip-path="url(#pb0304dfe94)" d="M 573.784874 230.395 
L 573.784874 7.2 
" style="fill:none;stroke:#cbcbcb;"/>
     </g>
     <g id="line2d_28"/>
    </g>
    <g id="xtick_9">
     <g id="line2d_29">
      <path clip-path="url(#pb0304dfe94)" d="M 640.15745 230.395 
L 640.15745 7.2 
" style="fill:none;stroke:#cbcbcb;"/>
     </g>
     <g id="line2d_30"/>
    </g>
    <g id="xtick_10">
     <g id="line2d_31">
      <path clip-path="url(#pb0304dfe94)" d="M 706.530025 230.395 
L 706.530025 7.2 
" style="fill:none;stroke:#cbcbcb;"/>
     </g>
     <g id="line2d_32"/>
    </g>
    <g id="text_8">
     <!-- logarith thể trọng (chuẩn hoá) -->
     <g transform="translate(447.860625 247.327812)scale(0.15 -0.15)">
      <defs>
       <path d="M 41.109375 46.296875 
Q 39.59375 47.171875 37.8125 47.578125 
Q 36.03125 48 33.890625 48 
Q 26.265625 48 22.1875 43.046875 
Q 18.109375 38.09375 18.109375 28.8125 
L 18.109375 0 
L 9.078125 0 
L 9.078125 54.6875 
L 18.109375 54.6875 
L 18.109375 46.1875 
Q 20.953125 51.171875 25.484375 53.578125 
Q 30.03125 56 36.53125 56 
Q 37.453125 56 38.578125 55.875 
Q 39.703125 55.765625 41.0625 55.515625 
z
" id="DejaVuSans-114"/>
       <path d="M 56.203125 29.59375 
L 56.203125 25.203125 
L 14.890625 25.203125 
Q 15.484375 15.921875 20.484375 11.0625 
Q 25.484375 6.203125 34.421875 6.203125 
Q 39.59375 6.203125 44.453125 7.46875 
Q 49.3125 8.734375 54.109375 11.28125 
L 54.109375 2.78125 
Q 49.265625 0.734375 44.1875 -0.34375 
Q 39.109375 -1.421875 33.890625 -1.421875 
Q 20.796875 -1.421875 13.15625 6.1875 
Q 5.515625 13.8125 5.515625 26.8125 
Q 5.515625 40.234375 12.765625 48.109375 
Q 20.015625 56 32.328125 56 
Q 43.359375 56 49.78125 48.890625 
Q 56.203125 41.796875 56.203125 29.59375 
z
M 47.21875 32.234375 
Q 47.125 39.59375 43.09375 43.984375 
Q 39.0625 48.390625 32.421875 48.390625 
Q 24.90625 48.390625 20.390625 44.140625 
Q 15.875 39.890625 15.1875 32.171875 
z
M 38.625 83.734375 
Q 44.09375 86.21875 49.21875 86.21875 
Q 54.296875 86.21875 57.390625 84.140625 
Q 60.5 82.078125 60.5 78.796875 
Q 60.5 75.828125 56.203125 72.65625 
L 54.046875 71.09375 
Q 52.34375 69.8125 52.15625 69.375 
Q 51.8125 68.59375 51.8125 67.03125 
L 46 67.03125 
L 46 67.625 
Q 46 69.578125 46.734375 70.890625 
Q 47.46875 72.21875 49.953125 74.015625 
L 52.15625 75.671875 
Q 54.390625 77.34375 54.390625 79.296875 
Q 54.390625 80.3125 52.875 81.1875 
Q 51.375 82.078125 47.90625 82.078125 
Q 43.5 82.078125 38.625 79.53125 
z
M 27.25 74.609375 
L 36.421875 74.609375 
L 46.734375 61.625 
L 39.9375 61.625 
L 31.84375 70.3125 
L 23.734375 61.625 
L 16.9375 61.625 
z
" id="DejaVuSans-7875"/>
       <path d="M 30.609375 48.390625 
Q 23.390625 48.390625 19.1875 42.75 
Q 14.984375 37.109375 14.984375 27.296875 
Q 14.984375 17.484375 19.15625 11.84375 
Q 23.34375 6.203125 30.609375 6.203125 
Q 37.796875 6.203125 41.984375 11.859375 
Q 46.1875 17.53125 46.1875 27.296875 
Q 46.1875 37.015625 41.984375 42.703125 
Q 37.796875 48.390625 30.609375 48.390625 
z
M 30.609375 56 
Q 42.328125 56 49.015625 48.375 
Q 55.71875 40.765625 55.71875 27.296875 
Q 55.71875 13.875 49.015625 6.21875 
Q 42.328125 -1.421875 30.609375 -1.421875 
Q 18.84375 -1.421875 12.171875 6.21875 
Q 5.515625 13.875 5.515625 27.296875 
Q 5.515625 40.765625 12.171875 48.375 
Q 18.84375 56 30.609375 56 
z
M 26.03125 -6.890625 
L 35.015625 -6.890625 
L 35.015625 -18.3125 
L 26.03125 -18.3125 
z
" id="DejaVuSans-7885"/>
      </defs>
      <use xlink:href="#DejaVuSans-108"/>
      <use x="27.783203" xlink:href="#DejaVuSans-111"/>
      <use x="88.964844" xlink:href="#DejaVuSans-103"/>
      <use x="152.441406" xlink:href="#DejaVuSans-97"/>
      <use x="213.720703" xlink:href="#DejaVuSans-114"/>
      <use x="254.833984" xlink:href="#DejaVuSans-105"/>
      <use x="282.617188" xlink:href="#DejaVuSans-116"/>
      <use x="321.826172" xlink:href="#DejaVuSans-104"/>
      <use x="385.205078" xlink:href="#DejaVuSans-32"/>
      <use x="416.992188" xlink:href="#DejaVuSans-116"/>
      <use x="456.201172" xlink:href="#DejaVuSans-104"/>
      <use x="519.580078" xlink:href="#DejaVuSans-7875"/>
      <use x="581.103516" xlink:href="#DejaVuSans-32"/>
      <use x="612.890625" xlink:href="#DejaVuSans-116"/>
      <use x="652.099609" xlink:href="#DejaVuSans-114"/>
      <use x="693.212891" xlink:href="#DejaVuSans-7885"/>
      <use x="754.394531" xlink:href="#DejaVuSans-110"/>
      <use x="817.773438" xlink:href="#DejaVuSans-103"/>
      <use x="881.25" xlink:href="#DejaVuSans-32"/>
      <use x="913.037109" xlink:href="#DejaVuSans-40"/>
      <use x="952.050781" xlink:href="#DejaVuSans-99"/>
      <use x="1007.03125" xlink:href="#DejaVuSans-104"/>
      <use x="1070.410156" xlink:href="#DejaVuSans-117"/>
      <use x="1133.789062" xlink:href="#DejaVuSans-7849"/>
      <use x="1195.068359" xlink:href="#DejaVuSans-110"/>
      <use x="1258.447266" xlink:href="#DejaVuSans-32"/>
      <use x="1290.234375" xlink:href="#DejaVuSans-104"/>
      <use x="1353.613281" xlink:href="#DejaVuSans-111"/>
      <use x="1414.794922" xlink:href="#DejaVuSans-225"/>
      <use x="1476.074219" xlink:href="#DejaVuSans-41"/>
     </g>
    </g>
   </g>
   <g id="matplotlib.axis_4">
    <g id="ytick_6">
     <g id="line2d_33">
      <path clip-path="url(#pb0304dfe94)" d="M 410.900625 206.382909 
L 712.08 206.382909 
" style="fill:none;stroke:#cbcbcb;"/>
     </g>
     <g id="line2d_34"/>
    </g>
    <g id="ytick_7">
     <g id="line2d_35">
      <path clip-path="url(#pb0304dfe94)" d="M 410.900625 164.128408 
L 712.08 164.128408 
" style="fill:none;stroke:#cbcbcb;"/>
     </g>
     <g id="line2d_36"/>
    </g>
    <g id="ytick_8">
     <g id="line2d_37">
      <path clip-path="url(#pb0304dfe94)" d="M 410.900625 121.873906 
L 712.08 121.873906 
" style="fill:none;stroke:#cbcbcb;"/>
     </g>
     <g id="line2d_38"/>
    </g>
    <g id="ytick_9">
     <g id="line2d_39">
      <path clip-path="url(#pb0304dfe94)" d="M 410.900625 79.619405 
L 712.08 79.619405 
" style="fill:none;stroke:#cbcbcb;"/>
     </g>
     <g id="line2d_40"/>
    </g>
    <g id="ytick_10">
     <g id="line2d_41">
      <path clip-path="url(#pb0304dfe94)" d="M 410.900625 37.364904 
L 712.08 37.364904 
" style="fill:none;stroke:#cbcbcb;"/>
     </g>
     <g id="line2d_42"/>
    </g>
    <g id="text_9">
     <!-- kilocal mỗi g (chuẩn hoá) -->
     <g transform="translate(403.781094 213.743984)rotate(-90)scale(0.15 -0.15)">
      <use xlink:href="#DejaVuSans-107"/>
      <use x="57.910156" xlink:href="#DejaVuSans-105"/>
      <use x="85.693359" xlink:href="#DejaVuSans-108"/>
      <use x="113.476562" xlink:href="#DejaVuSans-111"/>
      <use x="174.658203" xlink:href="#DejaVuSans-99"/>
      <use x="229.638672" xlink:href="#DejaVuSans-97"/>
      <use x="290.917969" xlink:href="#DejaVuSans-108"/>
      <use x="318.701172" xlink:href="#DejaVuSans-32"/>
      <use x="350.488281" xlink:href="#DejaVuSans-109"/>
      <use x="447.900391" xlink:href="#DejaVuSans-7895"/>
      <use x="509.082031" xlink:href="#DejaVuSans-105"/>
      <use x="536.865234" xlink:href="#DejaVuSans-32"/>
      <use x="568.652344" xlink:href="#DejaVuSans-103"/>
      <use x="632.128906" xlink:href="#DejaVuSans-32"/>
      <use x="663.916016" xlink:href="#DejaVuSans-40"/>
      <use x="702.929688" xlink:href="#DejaVuSans-99"/>
      <use x="757.910156" xlink:href="#DejaVuSans-104"/>
      <use x="821.289062" xlink:href="#DejaVuSans-117"/>
      <use x="884.667969" xlink:href="#DejaVuSans-7849"/>
      <use x="945.947266" xlink:href="#DejaVuSans-110"/>
      <use x="1009.326172" xlink:href="#DejaVuSans-32"/>
      <use x="1041.113281" xlink:href="#DejaVuSans-104"/>
      <use x="1104.492188" xlink:href="#DejaVuSans-111"/>
      <use x="1165.673828" xlink:href="#DejaVuSans-225"/>
      <use x="1226.953125" xlink:href="#DejaVuSans-41"/>
     </g>
    </g>
   </g>
   <g id="line2d_43">
    <path clip-path="url(#pb0304dfe94)" d="M 543.529882 161.594862 
L 582.243445 166.830806 
L 583.126846 143.269058 
L 553.397997 56.875979 
L 502.350078 49.022063 
L 434.546489 80.437728 
L 487.912209 169.448778 
L 472.885987 103.999476 
L 534.556073 111.853393 
L 563.377019 35.932202 
L 615.522583 69.965839 
L 583.126846 127.561225 
L 656.932155 148.505002 
L 688.434144 161.594862 
L 662.335851 164.212834 
L 654.229789 145.88703 
L 674.031745 103.999476 
" style="fill:none;"/>
    <g clip-path="url(#pb0304dfe94)">
     <use style="fill:#008fd5;stroke:#008fd5;" x="543.529882" xlink:href="#m784ad95e88" y="161.594862"/>
     <use style="fill:#008fd5;stroke:#008fd5;" x="582.243445" xlink:href="#m784ad95e88" y="166.830806"/>
     <use style="fill:#008fd5;stroke:#008fd5;" x="583.126846" xlink:href="#m784ad95e88" y="143.269058"/>
     <use style="fill:#008fd5;stroke:#008fd5;" x="553.397997" xlink:href="#m784ad95e88" y="56.875979"/>
     <use style="fill:#008fd5;stroke:#008fd5;" x="502.350078" xlink:href="#m784ad95e88" y="49.022063"/>
     <use style="fill:#008fd5;stroke:#008fd5;" x="434.546489" xlink:href="#m784ad95e88" y="80.437728"/>
     <use style="fill:#008fd5;stroke:#008fd5;" x="487.912209" xlink:href="#m784ad95e88" y="169.448778"/>
     <use style="fill:#008fd5;stroke:#008fd5;" x="472.885987" xlink:href="#m784ad95e88" y="103.999476"/>
     <use style="fill:#008fd5;stroke:#008fd5;" x="534.556073" xlink:href="#m784ad95e88" y="111.853393"/>
     <use style="fill:#008fd5;stroke:#008fd5;" x="563.377019" xlink:href="#m784ad95e88" y="35.932202"/>
     <use style="fill:#008fd5;stroke:#008fd5;" x="615.522583" xlink:href="#m784ad95e88" y="69.965839"/>
     <use style="fill:#008fd5;stroke:#008fd5;" x="583.126846" xlink:href="#m784ad95e88" y="127.561225"/>
     <use style="fill:#008fd5;stroke:#008fd5;" x="656.932155" xlink:href="#m784ad95e88" y="148.505002"/>
     <use style="fill:#008fd5;stroke:#008fd5;" x="688.434144" xlink:href="#m784ad95e88" y="161.594862"/>
     <use style="fill:#008fd5;stroke:#008fd5;" x="662.335851" xlink:href="#m784ad95e88" y="164.212834"/>
     <use style="fill:#008fd5;stroke:#008fd5;" x="654.229789" xlink:href="#m784ad95e88" y="145.88703"/>
     <use style="fill:#008fd5;stroke:#008fd5;" x="674.031745" xlink:href="#m784ad95e88" y="103.999476"/>
    </g>
   </g>
   <g id="PolyCollection_2">
    <defs>
     <path d="M 424.590597 -496.817183 
L 424.590597 -432.591813 
L 434.031957 -432.843917 
L 443.473302 -432.706545 
L 452.914678 -432.548243 
L 462.356039 -432.699499 
L 471.797399 -432.748886 
L 481.23876 -433.19764 
L 490.68012 -433.08174 
L 500.121481 -432.990535 
L 509.56283 -432.513962 
L 519.004194 -432.174459 
L 528.445555 -431.711177 
L 537.886911 -431.378549 
L 547.328272 -430.792337 
L 556.769632 -429.936412 
L 566.210989 -428.381423 
L 575.652349 -427.146811 
L 585.093718 -424.797733 
L 594.535066 -422.890897 
L 603.976427 -420.237132 
L 613.417795 -417.639451 
L 622.85914 -414.942361 
L 632.300509 -412.179008 
L 641.741873 -409.265969 
L 651.183234 -406.286948 
L 660.624586 -402.952446 
L 670.065947 -399.186265 
L 679.507315 -395.843445 
L 688.94866 -392.854194 
L 698.390028 -389.442884 
L 698.390028 -444.457249 
L 698.390028 -444.457249 
L 688.94866 -444.055728 
L 679.507315 -443.881991 
L 670.065947 -443.661311 
L 660.624586 -443.484527 
L 651.183234 -443.523217 
L 641.741873 -443.319704 
L 632.300509 -443.283216 
L 622.85914 -443.653719 
L 613.417795 -444.068627 
L 603.976427 -444.619594 
L 594.535066 -445.479356 
L 585.093718 -446.499408 
L 575.652349 -447.98594 
L 566.210989 -449.682181 
L 556.769632 -451.902594 
L 547.328272 -454.498329 
L 537.886911 -457.266048 
L 528.445555 -460.239085 
L 519.004194 -463.164469 
L 509.56283 -466.096199 
L 500.121481 -469.57375 
L 490.68012 -472.708209 
L 481.23876 -475.956631 
L 471.797399 -479.668111 
L 462.356039 -482.954641 
L 452.914678 -486.276587 
L 443.473302 -489.843394 
L 434.031957 -493.423206 
L 424.590597 -496.817183 
z
" id="ma828f7b19f" style="stroke:#fc4f30;stroke-opacity:0.2;stroke-width:0.5;"/>
    </defs>
    <g clip-path="url(#pb0304dfe94)">
     <use style="fill:#fc4f30;fill-opacity:0.2;stroke:#fc4f30;stroke-opacity:0.2;stroke-width:0.5;" x="0" xlink:href="#ma828f7b19f" y="557.609875"/>
    </g>
   </g>
   <g id="line2d_44">
    <path clip-path="url(#pb0304dfe94)" d="M 424.590597 92.678258 
L 434.031957 94.37812 
L 443.473302 96.07798 
L 452.914678 97.77785 
L 462.356039 99.47771 
L 471.797399 101.177572 
L 481.23876 102.877439 
L 490.68012 104.577307 
L 500.121481 106.277169 
L 509.56283 107.977031 
L 519.004194 109.676895 
L 528.445555 111.376762 
L 537.886911 113.076624 
L 547.328272 114.776488 
L 556.769632 116.476352 
L 566.210989 118.176215 
L 575.652349 119.876079 
L 585.093718 121.575945 
L 594.535066 123.275807 
L 603.976427 124.975671 
L 613.417795 126.675536 
L 622.85914 128.375398 
L 632.300509 130.075263 
L 641.741873 131.775128 
L 651.183234 133.474993 
L 660.624586 135.174856 
L 670.065947 136.874716 
L 679.507315 138.574586 
L 688.94866 140.274445 
L 698.390028 141.974312 
" style="fill:none;stroke:#008fd5;stroke-width:4;"/>
   </g>
   <g id="patch_8">
    <path d="M 410.900625 230.395 
L 410.900625 7.2 
" style="fill:none;stroke:#f0f0f0;stroke-linecap:square;stroke-linejoin:miter;stroke-width:3;"/>
   </g>
   <g id="patch_9">
    <path d="M 712.08 230.395 
L 712.08 7.2 
" style="fill:none;stroke:#f0f0f0;stroke-linecap:square;stroke-linejoin:miter;stroke-width:3;"/>
   </g>
   <g id="patch_10">
    <path d="M 410.900625 230.395 
L 712.08 230.395 
" style="fill:none;stroke:#f0f0f0;stroke-linecap:square;stroke-linejoin:miter;stroke-width:3;"/>
   </g>
   <g id="patch_11">
    <path d="M 410.900625 7.2 
L 712.08 7.2 
" style="fill:none;stroke:#f0f0f0;stroke-linecap:square;stroke-linejoin:miter;stroke-width:3;"/>
   </g>
  </g>
  <g id="axes_3">
   <g id="patch_12">
    <path d="M 70.523125 511.381875 
L 371.7025 511.381875 
L 371.7025 288.186875 
L 70.523125 288.186875 
z
" style="fill:#f0f0f0;"/>
   </g>
   <g id="matplotlib.axis_5">
    <g id="xtick_11">
     <g id="line2d_45">
      <path clip-path="url(#p286ffe6f08)" d="M 100.662222 511.381875 
L 100.662222 288.186875 
" style="fill:none;stroke:#cbcbcb;"/>
     </g>
     <g id="line2d_46"/>
     <g id="text_10">
      <!-- −2 -->
      <g transform="translate(90.342691 525.519687)scale(0.14 -0.14)">
       <use xlink:href="#DejaVuSans-8722"/>
       <use x="83.789062" xlink:href="#DejaVuSans-50"/>
      </g>
     </g>
    </g>
    <g id="xtick_12">
     <g id="line2d_47">
      <path clip-path="url(#p286ffe6f08)" d="M 167.034798 511.381875 
L 167.034798 288.186875 
" style="fill:none;stroke:#cbcbcb;"/>
     </g>
     <g id="line2d_48"/>
     <g id="text_11">
      <!-- −1 -->
      <g transform="translate(156.715267 525.519687)scale(0.14 -0.14)">
       <use xlink:href="#DejaVuSans-8722"/>
       <use x="83.789062" xlink:href="#DejaVuSans-49"/>
      </g>
     </g>
    </g>
    <g id="xtick_13">
     <g id="line2d_49">
      <path clip-path="url(#p286ffe6f08)" d="M 233.407374 511.381875 
L 233.407374 288.186875 
" style="fill:none;stroke:#cbcbcb;"/>
     </g>
     <g id="line2d_50"/>
     <g id="text_12">
      <!-- 0 -->
      <g transform="translate(228.953624 525.519687)scale(0.14 -0.14)">
       <use xlink:href="#DejaVuSans-48"/>
      </g>
     </g>
    </g>
    <g id="xtick_14">
     <g id="line2d_51">
      <path clip-path="url(#p286ffe6f08)" d="M 299.77995 511.381875 
L 299.77995 288.186875 
" style="fill:none;stroke:#cbcbcb;"/>
     </g>
     <g id="line2d_52"/>
     <g id="text_13">
      <!-- 1 -->
      <g transform="translate(295.3262 525.519687)scale(0.14 -0.14)">
       <use xlink:href="#DejaVuSans-49"/>
      </g>
     </g>
    </g>
    <g id="xtick_15">
     <g id="line2d_53">
      <path clip-path="url(#p286ffe6f08)" d="M 366.152525 511.381875 
L 366.152525 288.186875 
" style="fill:none;stroke:#cbcbcb;"/>
     </g>
     <g id="line2d_54"/>
     <g id="text_14">
      <!-- 2 -->
      <g transform="translate(361.698775 525.519687)scale(0.14 -0.14)">
       <use xlink:href="#DejaVuSans-50"/>
      </g>
     </g>
    </g>
    <g id="text_15">
     <!-- tỉ lệ vỏ não (chuẩn hoá) -->
     <g transform="translate(121.011062 546.498625)scale(0.168 -0.168)">
      <use xlink:href="#DejaVuSans-116"/>
      <use x="39.208984" xlink:href="#DejaVuSans-7881"/>
      <use x="66.992188" xlink:href="#DejaVuSans-32"/>
      <use x="98.779297" xlink:href="#DejaVuSans-108"/>
      <use x="126.5625" xlink:href="#DejaVuSans-7879"/>
      <use x="188.085938" xlink:href="#DejaVuSans-32"/>
      <use x="219.873047" xlink:href="#DejaVuSans-118"/>
      <use x="279.052734" xlink:href="#DejaVuSans-7887"/>
      <use x="340.234375" xlink:href="#DejaVuSans-32"/>
      <use x="372.021484" xlink:href="#DejaVuSans-110"/>
      <use x="435.400391" xlink:href="#DejaVuSans-227"/>
      <use x="496.679688" xlink:href="#DejaVuSans-111"/>
      <use x="557.861328" xlink:href="#DejaVuSans-32"/>
      <use x="589.648438" xlink:href="#DejaVuSans-40"/>
      <use x="628.662109" xlink:href="#DejaVuSans-99"/>
      <use x="683.642578" xlink:href="#DejaVuSans-104"/>
      <use x="747.021484" xlink:href="#DejaVuSans-117"/>
      <use x="810.400391" xlink:href="#DejaVuSans-7849"/>
      <use x="871.679688" xlink:href="#DejaVuSans-110"/>
      <use x="935.058594" xlink:href="#DejaVuSans-32"/>
      <use x="966.845703" xlink:href="#DejaVuSans-104"/>
      <use x="1030.224609" xlink:href="#DejaVuSans-111"/>
      <use x="1091.40625" xlink:href="#DejaVuSans-225"/>
      <use x="1152.685547" xlink:href="#DejaVuSans-41"/>
     </g>
    </g>
   </g>
   <g id="matplotlib.axis_6">
    <g id="ytick_11">
     <g id="line2d_55">
      <path clip-path="url(#p286ffe6f08)" d="M 70.523125 487.369784 
L 371.7025 487.369784 
" style="fill:none;stroke:#cbcbcb;"/>
     </g>
     <g id="line2d_56"/>
     <g id="text_16">
      <!-- −2 -->
      <g transform="translate(46.384063 492.68869)scale(0.14 -0.14)">
       <use xlink:href="#DejaVuSans-8722"/>
       <use x="83.789062" xlink:href="#DejaVuSans-50"/>
      </g>
     </g>
    </g>
    <g id="ytick_12">
     <g id="line2d_57">
      <path clip-path="url(#p286ffe6f08)" d="M 70.523125 445.115283 
L 371.7025 445.115283 
" style="fill:none;stroke:#cbcbcb;"/>
     </g>
     <g id="line2d_58"/>
     <g id="text_17">
      <!-- −1 -->
      <g transform="translate(46.384063 450.434189)scale(0.14 -0.14)">
       <use xlink:href="#DejaVuSans-8722"/>
       <use x="83.789062" xlink:href="#DejaVuSans-49"/>
      </g>
     </g>
    </g>
    <g id="ytick_13">
     <g id="line2d_59">
      <path clip-path="url(#p286ffe6f08)" d="M 70.523125 402.860781 
L 371.7025 402.860781 
" style="fill:none;stroke:#cbcbcb;"/>
     </g>
     <g id="line2d_60"/>
     <g id="text_18">
      <!-- 0 -->
      <g transform="translate(58.115625 408.179688)scale(0.14 -0.14)">
       <use xlink:href="#DejaVuSans-48"/>
      </g>
     </g>
    </g>
    <g id="ytick_14">
     <g id="line2d_61">
      <path clip-path="url(#p286ffe6f08)" d="M 70.523125 360.60628 
L 371.7025 360.60628 
" style="fill:none;stroke:#cbcbcb;"/>
     </g>
     <g id="line2d_62"/>
     <g id="text_19">
      <!-- 1 -->
      <g transform="translate(58.115625 365.925186)scale(0.14 -0.14)">
       <use xlink:href="#DejaVuSans-49"/>
      </g>
     </g>
    </g>
    <g id="ytick_15">
     <g id="line2d_63">
      <path clip-path="url(#p286ffe6f08)" d="M 70.523125 318.351779 
L 371.7025 318.351779 
" style="fill:none;stroke:#cbcbcb;"/>
     </g>
     <g id="line2d_64"/>
     <g id="text_20">
      <!-- 2 -->
      <g transform="translate(58.115625 323.670685)scale(0.14 -0.14)">
       <use xlink:href="#DejaVuSans-50"/>
      </g>
     </g>
    </g>
    <g id="text_21">
     <!-- kilocal mỗi g (chuẩn hoá) -->
     <g transform="translate(38.890187 506.124437)rotate(-90)scale(0.168 -0.168)">
      <use xlink:href="#DejaVuSans-107"/>
      <use x="57.910156" xlink:href="#DejaVuSans-105"/>
      <use x="85.693359" xlink:href="#DejaVuSans-108"/>
      <use x="113.476562" xlink:href="#DejaVuSans-111"/>
      <use x="174.658203" xlink:href="#DejaVuSans-99"/>
      <use x="229.638672" xlink:href="#DejaVuSans-97"/>
      <use x="290.917969" xlink:href="#DejaVuSans-108"/>
      <use x="318.701172" xlink:href="#DejaVuSans-32"/>
      <use x="350.488281" xlink:href="#DejaVuSans-109"/>
      <use x="447.900391" xlink:href="#DejaVuSans-7895"/>
      <use x="509.082031" xlink:href="#DejaVuSans-105"/>
      <use x="536.865234" xlink:href="#DejaVuSans-32"/>
      <use x="568.652344" xlink:href="#DejaVuSans-103"/>
      <use x="632.128906" xlink:href="#DejaVuSans-32"/>
      <use x="663.916016" xlink:href="#DejaVuSans-40"/>
      <use x="702.929688" xlink:href="#DejaVuSans-99"/>
      <use x="757.910156" xlink:href="#DejaVuSans-104"/>
      <use x="821.289062" xlink:href="#DejaVuSans-117"/>
      <use x="884.667969" xlink:href="#DejaVuSans-7849"/>
      <use x="945.947266" xlink:href="#DejaVuSans-110"/>
      <use x="1009.326172" xlink:href="#DejaVuSans-32"/>
      <use x="1041.113281" xlink:href="#DejaVuSans-104"/>
      <use x="1104.492188" xlink:href="#DejaVuSans-111"/>
      <use x="1165.673828" xlink:href="#DejaVuSans-225"/>
      <use x="1226.953125" xlink:href="#DejaVuSans-41"/>
     </g>
    </g>
   </g>
   <g id="PolyCollection_3">
    <defs>
     <path d="M 85.383521 -134.806634 
L 85.383521 -56.373227 
L 94.176427 -62.248283 
L 102.969341 -68.440939 
L 111.762239 -74.823672 
L 120.555145 -80.576456 
L 129.348051 -86.515775 
L 138.140957 -92.18997 
L 146.933863 -97.874335 
L 155.726769 -103.85446 
L 164.519675 -109.554375 
L 173.312581 -114.94949 
L 182.105491 -120.465962 
L 190.898393 -125.699371 
L 199.691299 -131.183935 
L 208.484213 -136.431963 
L 217.277107 -141.253577 
L 226.070021 -145.434813 
L 234.862931 -148.978732 
L 243.655825 -151.991745 
L 252.448739 -154.97286 
L 261.241645 -157.199297 
L 270.034543 -159.193939 
L 278.827457 -160.862608 
L 287.620367 -162.476061 
L 296.413281 -164.211211 
L 305.206179 -165.909699 
L 313.999085 -167.629815 
L 322.791999 -169.287711 
L 331.584889 -171.127231 
L 340.377803 -172.773665 
L 340.377803 -231.657114 
L 340.377803 -231.657114 
L 331.584889 -225.502991 
L 322.791999 -219.527556 
L 313.999085 -214.063908 
L 305.206179 -208.683649 
L 296.413281 -202.711639 
L 287.620367 -197.010642 
L 278.827457 -191.550114 
L 270.034543 -185.87291 
L 261.241645 -180.813373 
L 252.448739 -175.876727 
L 243.655825 -171.116815 
L 234.862931 -166.872018 
L 226.070021 -163.241668 
L 217.277107 -160.439922 
L 208.484213 -157.777133 
L 199.691299 -155.872361 
L 190.898393 -153.724697 
L 182.105491 -151.389761 
L 173.312581 -150.165866 
L 164.519675 -148.267874 
L 155.726769 -146.665915 
L 146.933863 -144.864501 
L 138.140957 -143.093775 
L 129.348051 -141.475974 
L 120.555145 -140.348729 
L 111.762239 -139.058606 
L 102.969341 -137.675708 
L 94.176427 -136.267216 
L 85.383521 -134.806634 
z
" id="md094dec384" style="stroke:#fc4f30;stroke-opacity:0.2;stroke-width:0.5;"/>
    </defs>
    <g clip-path="url(#p286ffe6f08)">
     <use style="fill:#fc4f30;fill-opacity:0.2;stroke:#fc4f30;stroke-opacity:0.2;stroke-width:0.5;" x="0" xlink:href="#md094dec384" y="557.609875"/>
    </g>
   </g>
   <g id="line2d_65">
    <path clip-path="url(#p286ffe6f08)" d="M 85.383521 461.891935 
L 94.176427 458.226406 
L 102.969341 454.560882 
L 111.762239 450.895358 
L 120.555145 447.229834 
L 129.348051 443.56431 
L 138.140957 439.898787 
L 146.933863 436.23326 
L 155.726769 432.567736 
L 164.519675 428.902207 
L 173.312581 425.236686 
L 182.105491 421.57116 
L 190.898393 417.905638 
L 199.691299 414.240112 
L 208.484213 410.574583 
L 217.277107 406.909064 
L 226.070021 403.243536 
L 234.862931 399.578009 
L 243.655825 395.91249 
L 252.448739 392.246961 
L 261.241645 388.581436 
L 270.034543 384.915913 
L 278.827457 381.250387 
L 287.620367 377.584863 
L 296.413281 373.919332 
L 305.206179 370.25381 
L 313.999085 366.588287 
L 322.791999 362.922758 
L 331.584889 359.257241 
L 340.377803 355.591712 
" style="fill:none;stroke:#008fd5;stroke-width:4;"/>
   </g>
   <g id="patch_13">
    <path d="M 70.523125 511.381875 
L 70.523125 288.186875 
" style="fill:none;stroke:#f0f0f0;stroke-linecap:square;stroke-linejoin:miter;stroke-width:3;"/>
   </g>
   <g id="patch_14">
    <path d="M 371.7025 511.381875 
L 371.7025 288.186875 
" style="fill:none;stroke:#f0f0f0;stroke-linecap:square;stroke-linejoin:miter;stroke-width:3;"/>
   </g>
   <g id="patch_15">
    <path d="M 70.523125 511.381875 
L 371.7025 511.381875 
" style="fill:none;stroke:#f0f0f0;stroke-linecap:square;stroke-linejoin:miter;stroke-width:3;"/>
   </g>
   <g id="patch_16">
    <path d="M 70.523125 288.186875 
L 371.7025 288.186875 
" style="fill:none;stroke:#f0f0f0;stroke-linecap:square;stroke-linejoin:miter;stroke-width:3;"/>
   </g>
   <g id="text_22">
    <!-- Phản thực với M=0 -->
    <g transform="translate(125.708762 282.186875)scale(0.2016 -0.2016)">
     <defs>
      <path d="M 19.671875 64.796875 
L 19.671875 37.40625 
L 32.078125 37.40625 
Q 38.96875 37.40625 42.71875 40.96875 
Q 46.484375 44.53125 46.484375 51.125 
Q 46.484375 57.671875 42.71875 61.234375 
Q 38.96875 64.796875 32.078125 64.796875 
z
M 9.8125 72.90625 
L 32.078125 72.90625 
Q 44.34375 72.90625 50.609375 67.359375 
Q 56.890625 61.8125 56.890625 51.125 
Q 56.890625 40.328125 50.609375 34.8125 
Q 44.34375 29.296875 32.078125 29.296875 
L 19.671875 29.296875 
L 19.671875 0 
L 9.8125 0 
z
" id="DejaVuSans-80"/>
      <path d="M 34.28125 27.484375 
Q 23.390625 27.484375 19.1875 25 
Q 14.984375 22.515625 14.984375 16.5 
Q 14.984375 11.71875 18.140625 8.90625 
Q 21.296875 6.109375 26.703125 6.109375 
Q 34.1875 6.109375 38.703125 11.40625 
Q 43.21875 16.703125 43.21875 25.484375 
L 43.21875 27.484375 
z
M 52.203125 31.203125 
L 52.203125 0 
L 43.21875 0 
L 43.21875 8.296875 
Q 40.140625 3.328125 35.546875 0.953125 
Q 30.953125 -1.421875 24.3125 -1.421875 
Q 15.921875 -1.421875 10.953125 3.296875 
Q 6 8.015625 6 15.921875 
Q 6 25.140625 12.171875 29.828125 
Q 18.359375 34.515625 30.609375 34.515625 
L 43.21875 34.515625 
L 43.21875 35.40625 
Q 43.21875 41.609375 39.140625 45 
Q 35.0625 48.390625 27.6875 48.390625 
Q 23 48.390625 18.546875 47.265625 
Q 14.109375 46.140625 10.015625 43.890625 
L 10.015625 52.203125 
Q 14.9375 54.109375 19.578125 55.046875 
Q 24.21875 56 28.609375 56 
Q 40.484375 56 46.34375 49.84375 
Q 52.203125 43.703125 52.203125 31.203125 
z
M 19.28125 78.515625 
Q 24.75 81 29.890625 81 
Q 34.96875 81 38.0625 78.921875 
Q 41.15625 76.859375 41.15625 73.578125 
Q 41.15625 70.609375 36.859375 67.4375 
L 34.71875 65.875 
Q 33.015625 64.59375 32.8125 64.15625 
Q 32.46875 63.375 32.46875 61.8125 
L 26.65625 61.8125 
L 26.65625 62.40625 
Q 26.65625 64.359375 27.390625 65.671875 
Q 28.125 67 30.609375 68.796875 
L 32.8125 70.453125 
Q 35.0625 72.125 35.0625 74.078125 
Q 35.0625 75.09375 33.546875 75.96875 
Q 32.03125 76.859375 28.5625 76.859375 
Q 24.171875 76.859375 19.28125 74.3125 
z
" id="DejaVuSans-7843"/>
      <path d="M 48.34375 48.53125 
L 48.34375 54.34375 
Q 51.3125 52.140625 53.453125 51.09375 
Q 55.609375 50.046875 57.125 50.046875 
Q 59.375 50.046875 60.5 51.390625 
Q 61.625 52.734375 61.625 55.359375 
Q 61.625 56.921875 61.25 58.4375 
Q 60.890625 59.953125 60.15625 61.46875 
L 66.65625 61.46875 
Q 67.140625 59.609375 67.375 57.953125 
Q 67.625 56.296875 67.625 54.828125 
Q 67.625 48.875 65.5 46.0625 
Q 63.375 43.25 58.84375 43.25 
Q 56.5 43.25 53.9375 44.546875 
Q 51.375 45.84375 48.34375 48.53125 
z
M 8.59375 21.578125 
L 8.59375 54.6875 
L 17.578125 54.6875 
L 17.578125 21.921875 
Q 17.578125 14.15625 20.609375 10.265625 
Q 23.640625 6.390625 29.6875 6.390625 
Q 36.96875 6.390625 41.1875 11.03125 
Q 45.40625 15.671875 45.40625 23.6875 
L 45.40625 54.6875 
L 54.390625 54.6875 
L 54.390625 0 
L 45.40625 0 
L 45.40625 8.40625 
Q 42.140625 3.421875 37.8125 1 
Q 33.5 -1.421875 27.78125 -1.421875 
Q 18.359375 -1.421875 13.46875 4.4375 
Q 8.59375 10.296875 8.59375 21.578125 
z
M 31.203125 56 
z
M 26.421875 -6.890625 
L 35.40625 -6.890625 
L 35.40625 -18.3125 
L 26.421875 -18.3125 
z
" id="DejaVuSans-7921"/>
      <path d="M 37.40625 79.984375 
L 47.125 79.984375 
L 31.203125 61.625 
L 23.734375 61.625 
z
M 41.015625 48.53125 
L 41.015625 54.34375 
Q 44 52.140625 46.140625 51.09375 
Q 48.296875 50.046875 49.8125 50.046875 
Q 52.046875 50.046875 53.171875 51.390625 
Q 54.296875 52.734375 54.296875 55.359375 
Q 54.296875 56.921875 53.921875 58.4375 
Q 53.5625 59.953125 52.828125 61.46875 
L 59.328125 61.46875 
Q 59.8125 59.609375 60.046875 57.953125 
Q 60.296875 56.296875 60.296875 54.828125 
Q 60.296875 48.875 58.171875 46.0625 
Q 56.0625 43.25 51.515625 43.25 
Q 49.171875 43.25 46.609375 44.546875 
Q 44.046875 45.84375 41.015625 48.53125 
z
M 30.859375 48.390625 
Q 23.640625 48.390625 19.4375 42.75 
Q 15.234375 37.109375 15.234375 27.296875 
Q 15.234375 17.484375 19.40625 11.84375 
Q 23.578125 6.203125 30.859375 6.203125 
Q 38.03125 6.203125 42.234375 11.859375 
Q 46.4375 17.53125 46.4375 27.296875 
Q 46.4375 37.015625 42.234375 42.703125 
Q 38.03125 48.390625 30.859375 48.390625 
z
M 30.859375 56 
Q 42.578125 56 49.265625 48.375 
Q 55.953125 40.765625 55.953125 27.296875 
Q 55.953125 13.875 49.265625 6.21875 
Q 42.578125 -1.421875 30.859375 -1.421875 
Q 19.09375 -1.421875 12.421875 6.21875 
Q 5.765625 13.875 5.765625 27.296875 
Q 5.765625 40.765625 12.421875 48.375 
Q 19.09375 56 30.859375 56 
z
" id="DejaVuSans-7899"/>
      <path d="M 9.8125 72.90625 
L 24.515625 72.90625 
L 43.109375 23.296875 
L 61.8125 72.90625 
L 76.515625 72.90625 
L 76.515625 0 
L 66.890625 0 
L 66.890625 64.015625 
L 48.09375 14.015625 
L 38.1875 14.015625 
L 19.390625 64.015625 
L 19.390625 0 
L 9.8125 0 
z
" id="DejaVuSans-77"/>
      <path d="M 10.59375 45.40625 
L 73.1875 45.40625 
L 73.1875 37.203125 
L 10.59375 37.203125 
z
M 10.59375 25.484375 
L 73.1875 25.484375 
L 73.1875 17.1875 
L 10.59375 17.1875 
z
" id="DejaVuSans-61"/>
     </defs>
     <use xlink:href="#DejaVuSans-80"/>
     <use x="60.302734" xlink:href="#DejaVuSans-104"/>
     <use x="123.681641" xlink:href="#DejaVuSans-7843"/>
     <use x="184.960938" xlink:href="#DejaVuSans-110"/>
     <use x="248.339844" xlink:href="#DejaVuSans-32"/>
     <use x="280.126953" xlink:href="#DejaVuSans-116"/>
     <use x="319.335938" xlink:href="#DejaVuSans-104"/>
     <use x="382.714844" xlink:href="#DejaVuSans-7921"/>
     <use x="446.09375" xlink:href="#DejaVuSans-99"/>
     <use x="501.074219" xlink:href="#DejaVuSans-32"/>
     <use x="532.861328" xlink:href="#DejaVuSans-118"/>
     <use x="592.041016" xlink:href="#DejaVuSans-7899"/>
     <use x="653.222656" xlink:href="#DejaVuSans-105"/>
     <use x="681.005859" xlink:href="#DejaVuSans-32"/>
     <use x="712.792969" xlink:href="#DejaVuSans-77"/>
     <use x="799.072266" xlink:href="#DejaVuSans-61"/>
     <use x="882.861328" xlink:href="#DejaVuSans-48"/>
    </g>
   </g>
  </g>
  <g id="axes_4">
   <g id="patch_17">
    <path d="M 410.900625 511.381875 
L 712.08 511.381875 
L 712.08 288.186875 
L 410.900625 288.186875 
z
" style="fill:#f0f0f0;"/>
   </g>
   <g id="matplotlib.axis_7">
    <g id="xtick_16">
     <g id="line2d_66">
      <path clip-path="url(#p0feaeaf4f6)" d="M 441.039722 511.381875 
L 441.039722 288.186875 
" style="fill:none;stroke:#cbcbcb;"/>
     </g>
     <g id="line2d_67"/>
     <g id="text_23">
      <!-- −2 -->
      <g transform="translate(430.720191 525.519687)scale(0.14 -0.14)">
       <use xlink:href="#DejaVuSans-8722"/>
       <use x="83.789062" xlink:href="#DejaVuSans-50"/>
      </g>
     </g>
    </g>
    <g id="xtick_17">
     <g id="line2d_68">
      <path clip-path="url(#p0feaeaf4f6)" d="M 507.412298 511.381875 
L 507.412298 288.186875 
" style="fill:none;stroke:#cbcbcb;"/>
     </g>
     <g id="line2d_69"/>
     <g id="text_24">
      <!-- −1 -->
      <g transform="translate(497.092767 525.519687)scale(0.14 -0.14)">
       <use xlink:href="#DejaVuSans-8722"/>
       <use x="83.789062" xlink:href="#DejaVuSans-49"/>
      </g>
     </g>
    </g>
    <g id="xtick_18">
     <g id="line2d_70">
      <path clip-path="url(#p0feaeaf4f6)" d="M 573.784874 511.381875 
L 573.784874 288.186875 
" style="fill:none;stroke:#cbcbcb;"/>
     </g>
     <g id="line2d_71"/>
     <g id="text_25">
      <!-- 0 -->
      <g transform="translate(569.331124 525.519687)scale(0.14 -0.14)">
       <use xlink:href="#DejaVuSans-48"/>
      </g>
     </g>
    </g>
    <g id="xtick_19">
     <g id="line2d_72">
      <path clip-path="url(#p0feaeaf4f6)" d="M 640.15745 511.381875 
L 640.15745 288.186875 
" style="fill:none;stroke:#cbcbcb;"/>
     </g>
     <g id="line2d_73"/>
     <g id="text_26">
      <!-- 1 -->
      <g transform="translate(635.7037 525.519687)scale(0.14 -0.14)">
       <use xlink:href="#DejaVuSans-49"/>
      </g>
     </g>
    </g>
    <g id="xtick_20">
     <g id="line2d_74">
      <path clip-path="url(#p0feaeaf4f6)" d="M 706.530025 511.381875 
L 706.530025 288.186875 
" style="fill:none;stroke:#cbcbcb;"/>
     </g>
     <g id="line2d_75"/>
     <g id="text_27">
      <!-- 2 -->
      <g transform="translate(702.076275 525.519687)scale(0.14 -0.14)">
       <use xlink:href="#DejaVuSans-50"/>
      </g>
     </g>
    </g>
    <g id="text_28">
     <!-- logarith thể trọng (chuẩn hoá) -->
     <g transform="translate(434.225062 546.916)scale(0.168 -0.168)">
      <use xlink:href="#DejaVuSans-108"/>
      <use x="27.783203" xlink:href="#DejaVuSans-111"/>
      <use x="88.964844" xlink:href="#DejaVuSans-103"/>
      <use x="152.441406" xlink:href="#DejaVuSans-97"/>
      <use x="213.720703" xlink:href="#DejaVuSans-114"/>
      <use x="254.833984" xlink:href="#DejaVuSans-105"/>
      <use x="282.617188" xlink:href="#DejaVuSans-116"/>
      <use x="321.826172" xlink:href="#DejaVuSans-104"/>
      <use x="385.205078" xlink:href="#DejaVuSans-32"/>
      <use x="416.992188" xlink:href="#DejaVuSans-116"/>
      <use x="456.201172" xlink:href="#DejaVuSans-104"/>
      <use x="519.580078" xlink:href="#DejaVuSans-7875"/>
      <use x="581.103516" xlink:href="#DejaVuSans-32"/>
      <use x="612.890625" xlink:href="#DejaVuSans-116"/>
      <use x="652.099609" xlink:href="#DejaVuSans-114"/>
      <use x="693.212891" xlink:href="#DejaVuSans-7885"/>
      <use x="754.394531" xlink:href="#DejaVuSans-110"/>
      <use x="817.773438" xlink:href="#DejaVuSans-103"/>
      <use x="881.25" xlink:href="#DejaVuSans-32"/>
      <use x="913.037109" xlink:href="#DejaVuSans-40"/>
      <use x="952.050781" xlink:href="#DejaVuSans-99"/>
      <use x="1007.03125" xlink:href="#DejaVuSans-104"/>
      <use x="1070.410156" xlink:href="#DejaVuSans-117"/>
      <use x="1133.789062" xlink:href="#DejaVuSans-7849"/>
      <use x="1195.068359" xlink:href="#DejaVuSans-110"/>
      <use x="1258.447266" xlink:href="#DejaVuSans-32"/>
      <use x="1290.234375" xlink:href="#DejaVuSans-104"/>
      <use x="1353.613281" xlink:href="#DejaVuSans-111"/>
      <use x="1414.794922" xlink:href="#DejaVuSans-225"/>
      <use x="1476.074219" xlink:href="#DejaVuSans-41"/>
     </g>
    </g>
   </g>
   <g id="matplotlib.axis_8">
    <g id="ytick_16">
     <g id="line2d_76">
      <path clip-path="url(#p0feaeaf4f6)" d="M 410.900625 487.369784 
L 712.08 487.369784 
" style="fill:none;stroke:#cbcbcb;"/>
     </g>
     <g id="line2d_77"/>
    </g>
    <g id="ytick_17">
     <g id="line2d_78">
      <path clip-path="url(#p0feaeaf4f6)" d="M 410.900625 445.115283 
L 712.08 445.115283 
" style="fill:none;stroke:#cbcbcb;"/>
     </g>
     <g id="line2d_79"/>
    </g>
    <g id="ytick_18">
     <g id="line2d_80">
      <path clip-path="url(#p0feaeaf4f6)" d="M 410.900625 402.860781 
L 712.08 402.860781 
" style="fill:none;stroke:#cbcbcb;"/>
     </g>
     <g id="line2d_81"/>
    </g>
    <g id="ytick_19">
     <g id="line2d_82">
      <path clip-path="url(#p0feaeaf4f6)" d="M 410.900625 360.60628 
L 712.08 360.60628 
" style="fill:none;stroke:#cbcbcb;"/>
     </g>
     <g id="line2d_83"/>
    </g>
    <g id="ytick_20">
     <g id="line2d_84">
      <path clip-path="url(#p0feaeaf4f6)" d="M 410.900625 318.351779 
L 712.08 318.351779 
" style="fill:none;stroke:#cbcbcb;"/>
     </g>
     <g id="line2d_85"/>
    </g>
    <g id="text_29">
     <!-- kilocal mỗi g (chuẩn hoá) -->
     <g transform="translate(403.40675 506.124437)rotate(-90)scale(0.168 -0.168)">
      <use xlink:href="#DejaVuSans-107"/>
      <use x="57.910156" xlink:href="#DejaVuSans-105"/>
      <use x="85.693359" xlink:href="#DejaVuSans-108"/>
      <use x="113.476562" xlink:href="#DejaVuSans-111"/>
      <use x="174.658203" xlink:href="#DejaVuSans-99"/>
      <use x="229.638672" xlink:href="#DejaVuSans-97"/>
      <use x="290.917969" xlink:href="#DejaVuSans-108"/>
      <use x="318.701172" xlink:href="#DejaVuSans-32"/>
      <use x="350.488281" xlink:href="#DejaVuSans-109"/>
      <use x="447.900391" xlink:href="#DejaVuSans-7895"/>
      <use x="509.082031" xlink:href="#DejaVuSans-105"/>
      <use x="536.865234" xlink:href="#DejaVuSans-32"/>
      <use x="568.652344" xlink:href="#DejaVuSans-103"/>
      <use x="632.128906" xlink:href="#DejaVuSans-32"/>
      <use x="663.916016" xlink:href="#DejaVuSans-40"/>
      <use x="702.929688" xlink:href="#DejaVuSans-99"/>
      <use x="757.910156" xlink:href="#DejaVuSans-104"/>
      <use x="821.289062" xlink:href="#DejaVuSans-117"/>
      <use x="884.667969" xlink:href="#DejaVuSans-7849"/>
      <use x="945.947266" xlink:href="#DejaVuSans-110"/>
      <use x="1009.326172" xlink:href="#DejaVuSans-32"/>
      <use x="1041.113281" xlink:href="#DejaVuSans-104"/>
      <use x="1104.492188" xlink:href="#DejaVuSans-111"/>
      <use x="1165.673828" xlink:href="#DejaVuSans-225"/>
      <use x="1226.953125" xlink:href="#DejaVuSans-41"/>
     </g>
    </g>
   </g>
   <g id="PolyCollection_4">
    <defs>
     <path d="M 424.590597 -259.277773 
L 424.590597 -185.220805 
L 434.031957 -183.368709 
L 443.473302 -181.667922 
L 452.914678 -179.717888 
L 462.356039 -177.760669 
L 471.797399 -175.811389 
L 481.23876 -173.569493 
L 490.68012 -171.674449 
L 500.121481 -169.523849 
L 509.56283 -167.401953 
L 519.004194 -165.33744 
L 528.445555 -162.731717 
L 537.886911 -160.448312 
L 547.328272 -157.517221 
L 556.769632 -154.993465 
L 566.210989 -151.637298 
L 575.652349 -147.647101 
L 585.093718 -143.432286 
L 594.535066 -138.547412 
L 603.976427 -133.254525 
L 613.417795 -127.487683 
L 622.85914 -121.802509 
L 632.300509 -115.540645 
L 641.741873 -109.640081 
L 651.183234 -103.533756 
L 660.624586 -97.637409 
L 670.065947 -91.588139 
L 679.507315 -85.092454 
L 688.94866 -78.80109 
L 698.390028 -72.398239 
L 698.390028 -134.068649 
L 698.390028 -134.068649 
L 688.94866 -135.861793 
L 679.507315 -137.762266 
L 670.065947 -139.9228 
L 660.624586 -141.980156 
L 651.183234 -143.844466 
L 641.741873 -145.587063 
L 632.300509 -147.92911 
L 622.85914 -150.070325 
L 613.417795 -152.95048 
L 603.976427 -155.624743 
L 594.535066 -158.380671 
L 585.093718 -161.571299 
L 575.652349 -165.187206 
L 566.210989 -169.677882 
L 556.769632 -175.050245 
L 547.328272 -179.976645 
L 537.886911 -185.655281 
L 528.445555 -191.432366 
L 519.004194 -197.292278 
L 509.56283 -203.671132 
L 500.121481 -209.850521 
L 490.68012 -215.996765 
L 481.23876 -221.82083 
L 471.797399 -228.150708 
L 462.356039 -234.678474 
L 452.914678 -241.049934 
L 443.473302 -247.008898 
L 434.031957 -253.22543 
L 424.590597 -259.277773 
z
" id="mbcfc5568da" style="stroke:#fc4f30;stroke-opacity:0.2;stroke-width:0.5;"/>
    </defs>
    <g clip-path="url(#p0feaeaf4f6)">
     <use style="fill:#fc4f30;fill-opacity:0.2;stroke:#fc4f30;stroke-opacity:0.2;stroke-width:0.5;" x="0" xlink:href="#mbcfc5568da" y="557.609875"/>
    </g>
   </g>
   <g id="line2d_86">
    <path clip-path="url(#p0feaeaf4f6)" d="M 424.590597 335.540211 
L 434.031957 339.63109 
L 443.473302 343.721929 
L 452.914678 347.812793 
L 462.356039 351.903652 
L 471.797399 355.994522 
L 481.23876 360.085376 
L 490.68012 364.176235 
L 500.121481 368.267091 
L 509.56283 372.357945 
L 519.004194 376.448804 
L 528.445555 380.539663 
L 537.886911 384.63052 
L 547.328272 388.721376 
L 556.769632 392.812237 
L 566.210989 396.903093 
L 575.652349 400.993953 
L 585.093718 405.084814 
L 594.535066 409.175668 
L 603.976427 413.266527 
L 613.417795 417.357388 
L 622.85914 421.448239 
L 632.300509 425.539098 
L 641.741873 429.629964 
L 651.183234 433.720818 
L 660.624586 437.811675 
L 670.065947 441.902524 
L 679.507315 445.993395 
L 688.94866 450.084244 
L 698.390028 454.175113 
" style="fill:none;stroke:#008fd5;stroke-width:4;"/>
   </g>
   <g id="patch_18">
    <path d="M 410.900625 511.381875 
L 410.900625 288.186875 
" style="fill:none;stroke:#f0f0f0;stroke-linecap:square;stroke-linejoin:miter;stroke-width:3;"/>
   </g>
   <g id="patch_19">
    <path d="M 712.08 511.381875 
L 712.08 288.186875 
" style="fill:none;stroke:#f0f0f0;stroke-linecap:square;stroke-linejoin:miter;stroke-width:3;"/>
   </g>
   <g id="patch_20">
    <path d="M 410.900625 511.381875 
L 712.08 511.381875 
" style="fill:none;stroke:#f0f0f0;stroke-linecap:square;stroke-linejoin:miter;stroke-width:3;"/>
   </g>
   <g id="patch_21">
    <path d="M 410.900625 288.186875 
L 712.08 288.186875 
" style="fill:none;stroke:#f0f0f0;stroke-linecap:square;stroke-linejoin:miter;stroke-width:3;"/>
   </g>
   <g id="text_30">
    <!-- Phản thực với N=0 -->
    <g transform="translate(467.242312 282.186875)scale(0.2016 -0.2016)">
     <defs>
      <path d="M 9.8125 72.90625 
L 23.09375 72.90625 
L 55.421875 11.921875 
L 55.421875 72.90625 
L 64.984375 72.90625 
L 64.984375 0 
L 51.703125 0 
L 19.390625 60.984375 
L 19.390625 0 
L 9.8125 0 
z
" id="DejaVuSans-78"/>
     </defs>
     <use xlink:href="#DejaVuSans-80"/>
     <use x="60.302734" xlink:href="#DejaVuSans-104"/>
     <use x="123.681641" xlink:href="#DejaVuSans-7843"/>
     <use x="184.960938" xlink:href="#DejaVuSans-110"/>
     <use x="248.339844" xlink:href="#DejaVuSans-32"/>
     <use x="280.126953" xlink:href="#DejaVuSans-116"/>
     <use x="319.335938" xlink:href="#DejaVuSans-104"/>
     <use x="382.714844" xlink:href="#DejaVuSans-7921"/>
     <use x="446.09375" xlink:href="#DejaVuSans-99"/>
     <use x="501.074219" xlink:href="#DejaVuSans-32"/>
     <use x="532.861328" xlink:href="#DejaVuSans-118"/>
     <use x="592.041016" xlink:href="#DejaVuSans-7899"/>
     <use x="653.222656" xlink:href="#DejaVuSans-105"/>
     <use x="681.005859" xlink:href="#DejaVuSans-32"/>
     <use x="712.792969" xlink:href="#DejaVuSans-78"/>
     <use x="787.597656" xlink:href="#DejaVuSans-61"/>
     <use x="871.386719" xlink:href="#DejaVuSans-48"/>
    </g>
   </g>
  </g>
  <g id="line2d_87">
   <path d="M 7.2 262.8 
L 727.2 262.8 
" style="fill:none;stroke:#000000;stroke-opacity:0.6;"/>
  </g>
 </g>
 <defs>
  <clipPath id="p81e366865d">
   <rect height="223.195" width="301.179375" x="70.523125" y="7.2"/>
  </clipPath>
  <clipPath id="pb0304dfe94">
   <rect height="223.195" width="301.179375" x="410.900625" y="7.2"/>
  </clipPath>
  <clipPath id="p286ffe6f08">
   <rect height="223.195" width="301.179375" x="70.523125" y="288.186875"/>
  </clipPath>
  <clipPath id="p0feaeaf4f6">
   <rect height="223.195" width="301.179375" x="410.900625" y="288.186875"/>
  </clipPath>
 </defs>
</svg>
