<?xml version="1.0" encoding="utf-8" standalone="no"?>
<!DOCTYPE svg PUBLIC "-//W3C//DTD SVG 1.1//EN"
  "http://www.w3.org/Graphics/SVG/1.1/DTD/svg11.dtd">
<!-- Created with matplotlib (https://matplotlib.org/) -->
<svg height="498.009375pt" version="1.1" viewBox="0 0 954 498.009375" width="954pt" xmlns="http://www.w3.org/2000/svg" xmlns:xlink="http://www.w3.org/1999/xlink">
 <metadata>
  <rdf:RDF xmlns:cc="http://creativecommons.org/ns#" xmlns:dc="http://purl.org/dc/elements/1.1/" xmlns:rdf="http://www.w3.org/1999/02/22-rdf-syntax-ns#">
   <cc:Work>
    <dc:type rdf:resource="http://purl.org/dc/dcmitype/StillImage"/>
    <dc:date>2021-01-19T17:51:49.996946</dc:date>
    <dc:format>image/svg+xml</dc:format>
    <dc:creator>
     <cc:Agent>
      <dc:title>Matplotlib v3.3.3, https://matplotlib.org/</dc:title>
     </cc:Agent>
    </dc:creator>
   </cc:Work>
  </rdf:RDF>
 </metadata>
 <defs>
  <style type="text/css">*{stroke-linecap:butt;stroke-linejoin:round;}</style>
 </defs>
 <g id="figure_1">
  <g id="patch_1">
   <path d="M 0 498.009375 
L 954 498.009375 
L 954 0 
L 0 0 
z
" style="fill:#f0f0f0;"/>
  </g>
  <g id="axes_1">
   <g id="patch_2">
    <path d="M 7.2 123.84 
L 946.8 123.84 
L 946.8 7.2 
L 7.2 7.2 
z
" style="fill:#f0f0f0;"/>
   </g>
   <g id="matplotlib.axis_1">
    <g id="xtick_1">
     <g id="line2d_1"/>
     <g id="text_1">
      <!-- 0.0 -->
      <g transform="translate(38.776903 137.977812)scale(0.14 -0.14)">
       <defs>
        <path d="M 31.78125 66.40625 
Q 24.171875 66.40625 20.328125 58.90625 
Q 16.5 51.421875 16.5 36.375 
Q 16.5 21.390625 20.328125 13.890625 
Q 24.171875 6.390625 31.78125 6.390625 
Q 39.453125 6.390625 43.28125 13.890625 
Q 47.125 21.390625 47.125 36.375 
Q 47.125 51.421875 43.28125 58.90625 
Q 39.453125 66.40625 31.78125 66.40625 
z
M 31.78125 74.21875 
Q 44.046875 74.21875 50.515625 64.515625 
Q 56.984375 54.828125 56.984375 36.375 
Q 56.984375 17.96875 50.515625 8.265625 
Q 44.046875 -1.421875 31.78125 -1.421875 
Q 19.53125 -1.421875 13.0625 8.265625 
Q 6.59375 17.96875 6.59375 36.375 
Q 6.59375 54.828125 13.0625 64.515625 
Q 19.53125 74.21875 31.78125 74.21875 
z
" id="DejaVuSans-48"/>
        <path d="M 10.6875 12.40625 
L 21 12.40625 
L 21 0 
L 10.6875 0 
z
" id="DejaVuSans-46"/>
       </defs>
       <use xlink:href="#DejaVuSans-48"/>
       <use x="63.623047" xlink:href="#DejaVuSans-46"/>
       <use x="95.410156" xlink:href="#DejaVuSans-48"/>
      </g>
     </g>
    </g>
    <g id="xtick_2">
     <g id="line2d_2"/>
     <g id="text_2">
      <!-- 0.5 -->
      <g transform="translate(465.867812 137.977812)scale(0.14 -0.14)">
       <defs>
        <path d="M 10.796875 72.90625 
L 49.515625 72.90625 
L 49.515625 64.59375 
L 19.828125 64.59375 
L 19.828125 46.734375 
Q 21.96875 47.46875 24.109375 47.828125 
Q 26.265625 48.1875 28.421875 48.1875 
Q 40.625 48.1875 47.75 41.5 
Q 54.890625 34.8125 54.890625 23.390625 
Q 54.890625 11.625 47.5625 5.09375 
Q 40.234375 -1.421875 26.90625 -1.421875 
Q 22.3125 -1.421875 17.546875 -0.640625 
Q 12.796875 0.140625 7.71875 1.703125 
L 7.71875 11.625 
Q 12.109375 9.234375 16.796875 8.0625 
Q 21.484375 6.890625 26.703125 6.890625 
Q 35.15625 6.890625 40.078125 11.328125 
Q 45.015625 15.765625 45.015625 23.390625 
Q 45.015625 31 40.078125 35.4375 
Q 35.15625 39.890625 26.703125 39.890625 
Q 22.75 39.890625 18.8125 39.015625 
Q 14.890625 38.140625 10.796875 36.28125 
z
" id="DejaVuSans-53"/>
       </defs>
       <use xlink:href="#DejaVuSans-48"/>
       <use x="63.623047" xlink:href="#DejaVuSans-46"/>
       <use x="95.410156" xlink:href="#DejaVuSans-53"/>
      </g>
     </g>
    </g>
    <g id="xtick_3">
     <g id="line2d_3"/>
     <g id="text_3">
      <!-- 1.0 -->
      <g transform="translate(892.958722 137.977812)scale(0.14 -0.14)">
       <defs>
        <path d="M 12.40625 8.296875 
L 28.515625 8.296875 
L 28.515625 63.921875 
L 10.984375 60.40625 
L 10.984375 69.390625 
L 28.421875 72.90625 
L 38.28125 72.90625 
L 38.28125 8.296875 
L 54.390625 8.296875 
L 54.390625 0 
L 12.40625 0 
z
" id="DejaVuSans-49"/>
       </defs>
       <use xlink:href="#DejaVuSans-49"/>
       <use x="63.623047" xlink:href="#DejaVuSans-46"/>
       <use x="95.410156" xlink:href="#DejaVuSans-48"/>
      </g>
     </g>
    </g>
    <g id="text_4">
     <!-- Tỉ lệ nước -->
     <g transform="translate(436.288875 158.087875)scale(0.168 -0.168)">
      <defs>
       <path d="M -0.296875 72.90625 
L 61.375 72.90625 
L 61.375 64.59375 
L 35.5 64.59375 
L 35.5 0 
L 25.59375 0 
L 25.59375 64.59375 
L -0.296875 64.59375 
z
" id="DejaVuSans-84"/>
       <path d="M 9.421875 54.6875 
L 18.40625 54.6875 
L 18.40625 0 
L 9.421875 0 
z
M 13.921875 56 
z
M 3.328125 78.5625 
Q 8.796875 81.046875 13.921875 81.046875 
Q 19 81.046875 22.09375 78.96875 
Q 25.203125 76.90625 25.203125 73.625 
Q 25.203125 70.65625 20.90625 67.484375 
L 18.75 65.921875 
Q 17.046875 64.640625 16.84375 64.203125 
Q 16.5 63.421875 16.5 61.859375 
L 10.6875 61.859375 
L 10.6875 62.453125 
Q 10.6875 64.40625 11.421875 65.71875 
Q 12.15625 67.046875 14.65625 68.84375 
L 16.84375 70.5 
Q 19.09375 72.171875 19.09375 74.125 
Q 19.09375 75.140625 17.578125 76.015625 
Q 16.0625 76.90625 12.59375 76.90625 
Q 8.203125 76.90625 3.328125 74.359375 
z
" id="DejaVuSans-7881"/>
       <path id="DejaVuSans-32"/>
       <path d="M 9.421875 75.984375 
L 18.40625 75.984375 
L 18.40625 0 
L 9.421875 0 
z
" id="DejaVuSans-108"/>
       <path d="M 27.203125 -6.890625 
L 36.1875 -6.890625 
L 36.1875 -18.3125 
L 27.203125 -18.3125 
z
M 56.203125 29.59375 
L 56.203125 25.203125 
L 14.890625 25.203125 
Q 15.484375 15.921875 20.484375 11.0625 
Q 25.484375 6.203125 34.421875 6.203125 
Q 39.59375 6.203125 44.453125 7.46875 
Q 49.3125 8.734375 54.109375 11.28125 
L 54.109375 2.78125 
Q 49.265625 0.734375 44.1875 -0.34375 
Q 39.109375 -1.421875 33.890625 -1.421875 
Q 20.796875 -1.421875 13.15625 6.1875 
Q 5.515625 13.8125 5.515625 26.8125 
Q 5.515625 40.234375 12.765625 48.109375 
Q 20.015625 56 32.328125 56 
Q 43.359375 56 49.78125 48.890625 
Q 56.203125 41.796875 56.203125 29.59375 
z
M 47.21875 32.234375 
Q 47.125 39.59375 43.09375 43.984375 
Q 39.0625 48.390625 32.421875 48.390625 
Q 24.90625 48.390625 20.390625 44.140625 
Q 15.875 39.890625 15.1875 32.171875 
z
M 27.203125 -6.890625 
L 36.1875 -6.890625 
L 36.1875 -18.3125 
L 27.203125 -18.3125 
z
M 28.171875 79.984375 
L 35.40625 79.984375 
L 47.359375 61.625 
L 40.578125 61.625 
L 31.78125 73.578125 
L 23 61.625 
L 16.21875 61.625 
z
" id="DejaVuSans-7879"/>
       <path d="M 54.890625 33.015625 
L 54.890625 0 
L 45.90625 0 
L 45.90625 32.71875 
Q 45.90625 40.484375 42.875 44.328125 
Q 39.84375 48.1875 33.796875 48.1875 
Q 26.515625 48.1875 22.3125 43.546875 
Q 18.109375 38.921875 18.109375 30.90625 
L 18.109375 0 
L 9.078125 0 
L 9.078125 54.6875 
L 18.109375 54.6875 
L 18.109375 46.1875 
Q 21.34375 51.125 25.703125 53.5625 
Q 30.078125 56 35.796875 56 
Q 45.21875 56 50.046875 50.171875 
Q 54.890625 44.34375 54.890625 33.015625 
z
" id="DejaVuSans-110"/>
       <path d="M 48.34375 48.53125 
L 48.34375 54.34375 
Q 51.3125 52.140625 53.453125 51.09375 
Q 55.609375 50.046875 57.125 50.046875 
Q 59.375 50.046875 60.5 51.390625 
Q 61.625 52.734375 61.625 55.359375 
Q 61.625 56.921875 61.25 58.4375 
Q 60.890625 59.953125 60.15625 61.46875 
L 66.65625 61.46875 
Q 67.140625 59.609375 67.375 57.953125 
Q 67.625 56.296875 67.625 54.828125 
Q 67.625 48.875 65.5 46.0625 
Q 63.375 43.25 58.84375 43.25 
Q 56.5 43.25 53.9375 44.546875 
Q 51.375 45.84375 48.34375 48.53125 
z
M 8.59375 21.578125 
L 8.59375 54.6875 
L 17.578125 54.6875 
L 17.578125 21.921875 
Q 17.578125 14.15625 20.609375 10.265625 
Q 23.640625 6.390625 29.6875 6.390625 
Q 36.96875 6.390625 41.1875 11.03125 
Q 45.40625 15.671875 45.40625 23.6875 
L 45.40625 54.6875 
L 54.390625 54.6875 
L 54.390625 0 
L 45.40625 0 
L 45.40625 8.40625 
Q 42.140625 3.421875 37.8125 1 
Q 33.5 -1.421875 27.78125 -1.421875 
Q 18.359375 -1.421875 13.46875 4.4375 
Q 8.59375 10.296875 8.59375 21.578125 
z
M 31.203125 56 
z
" id="DejaVuSans-432"/>
       <path d="M 37.40625 79.984375 
L 47.125 79.984375 
L 31.203125 61.625 
L 23.734375 61.625 
z
M 41.015625 48.53125 
L 41.015625 54.34375 
Q 44 52.140625 46.140625 51.09375 
Q 48.296875 50.046875 49.8125 50.046875 
Q 52.046875 50.046875 53.171875 51.390625 
Q 54.296875 52.734375 54.296875 55.359375 
Q 54.296875 56.921875 53.921875 58.4375 
Q 53.5625 59.953125 52.828125 61.46875 
L 59.328125 61.46875 
Q 59.8125 59.609375 60.046875 57.953125 
Q 60.296875 56.296875 60.296875 54.828125 
Q 60.296875 48.875 58.171875 46.0625 
Q 56.0625 43.25 51.515625 43.25 
Q 49.171875 43.25 46.609375 44.546875 
Q 44.046875 45.84375 41.015625 48.53125 
z
M 30.859375 48.390625 
Q 23.640625 48.390625 19.4375 42.75 
Q 15.234375 37.109375 15.234375 27.296875 
Q 15.234375 17.484375 19.40625 11.84375 
Q 23.578125 6.203125 30.859375 6.203125 
Q 38.03125 6.203125 42.234375 11.859375 
Q 46.4375 17.53125 46.4375 27.296875 
Q 46.4375 37.015625 42.234375 42.703125 
Q 38.03125 48.390625 30.859375 48.390625 
z
M 30.859375 56 
Q 42.578125 56 49.265625 48.375 
Q 55.953125 40.765625 55.953125 27.296875 
Q 55.953125 13.875 49.265625 6.21875 
Q 42.578125 -1.421875 30.859375 -1.421875 
Q 19.09375 -1.421875 12.421875 6.21875 
Q 5.765625 13.875 5.765625 27.296875 
Q 5.765625 40.765625 12.421875 48.375 
Q 19.09375 56 30.859375 56 
z
" id="DejaVuSans-7899"/>
       <path d="M 48.78125 52.59375 
L 48.78125 44.1875 
Q 44.96875 46.296875 41.140625 47.34375 
Q 37.3125 48.390625 33.40625 48.390625 
Q 24.65625 48.390625 19.8125 42.84375 
Q 14.984375 37.3125 14.984375 27.296875 
Q 14.984375 17.28125 19.8125 11.734375 
Q 24.65625 6.203125 33.40625 6.203125 
Q 37.3125 6.203125 41.140625 7.25 
Q 44.96875 8.296875 48.78125 10.40625 
L 48.78125 2.09375 
Q 45.015625 0.34375 40.984375 -0.53125 
Q 36.96875 -1.421875 32.421875 -1.421875 
Q 20.0625 -1.421875 12.78125 6.34375 
Q 5.515625 14.109375 5.515625 27.296875 
Q 5.515625 40.671875 12.859375 48.328125 
Q 20.21875 56 33.015625 56 
Q 37.15625 56 41.109375 55.140625 
Q 45.0625 54.296875 48.78125 52.59375 
z
" id="DejaVuSans-99"/>
      </defs>
      <use xlink:href="#DejaVuSans-84"/>
      <use x="61.083984" xlink:href="#DejaVuSans-7881"/>
      <use x="88.867188" xlink:href="#DejaVuSans-32"/>
      <use x="120.654297" xlink:href="#DejaVuSans-108"/>
      <use x="148.4375" xlink:href="#DejaVuSans-7879"/>
      <use x="209.960938" xlink:href="#DejaVuSans-32"/>
      <use x="241.748047" xlink:href="#DejaVuSans-110"/>
      <use x="305.126953" xlink:href="#DejaVuSans-432"/>
      <use x="368.505859" xlink:href="#DejaVuSans-7899"/>
      <use x="429.6875" xlink:href="#DejaVuSans-99"/>
     </g>
    </g>
   </g>
   <g id="matplotlib.axis_2"/>
   <g id="patch_3">
    <path clip-path="url(#pd9922bbcd8)" d="M 49.909091 123.84 
L 49.909091 123.84 
L 49.909091 123.84 
L 49.909091 123.84 
z
" style="fill:#008fd5;"/>
   </g>
   <g id="patch_4">
    <path clip-path="url(#pd9922bbcd8)" d="M 136.189521 123.84 
L 136.190641 123.84 
L 136.190641 123.813635 
L 136.189521 123.813635 
z
" style="fill:#008fd5;"/>
   </g>
   <g id="patch_5">
    <path clip-path="url(#pd9922bbcd8)" d="M 222.446034 123.84 
L 222.496108 123.84 
L 222.496108 122.659913 
L 222.446034 122.659913 
z
" style="fill:#008fd5;"/>
   </g>
   <g id="patch_6">
    <path clip-path="url(#pd9922bbcd8)" d="M 308.562066 123.84 
L 308.942056 123.84 
L 308.942056 114.883717 
L 308.562066 114.883717 
z
" style="fill:#008fd5;"/>
   </g>
   <g id="patch_7">
    <path clip-path="url(#pd9922bbcd8)" d="M 394.36563 123.84 
L 395.700447 123.84 
L 395.700447 92.379274 
L 394.36563 92.379274 
z
" style="fill:#008fd5;"/>
   </g>
   <g id="patch_8">
    <path clip-path="url(#pd9922bbcd8)" d="M 479.85562 123.84 
L 482.772488 123.84 
L 482.772488 55.091867 
L 479.85562 55.091867 
z
" style="fill:#008fd5;"/>
   </g>
   <g id="patch_9">
    <path clip-path="url(#pd9922bbcd8)" d="M 565.399323 123.84 
L 569.79079 123.84 
L 569.79079 20.336746 
L 565.399323 20.336746 
z
" style="fill:#008fd5;"/>
   </g>
   <g id="patch_10">
    <path clip-path="url(#pd9922bbcd8)" d="M 651.599552 123.84 
L 656.152465 123.84 
L 656.152465 16.531259 
L 651.599552 16.531259 
z
" style="fill:#008fd5;"/>
   </g>
   <g id="patch_11">
    <path clip-path="url(#pd9922bbcd8)" d="M 738.730474 123.84 
L 741.583498 123.84 
L 741.583498 56.596025 
L 738.730474 56.596025 
z
" style="fill:#008fd5;"/>
   </g>
   <g id="patch_12">
    <path clip-path="url(#pd9922bbcd8)" d="M 826.130677 123.84 
L 826.745403 123.84 
L 826.745403 109.35111 
L 826.130677 109.35111 
z
" style="fill:#008fd5;"/>
   </g>
   <g id="line2d_4">
    <path clip-path="url(#pd9922bbcd8)" d="M 49.909091 123.84 
L 58.53719 123.84 
L 67.165289 123.839998 
L 75.793389 123.839976 
L 84.421488 123.839869 
L 93.049586 123.839515 
L 101.677687 123.838597 
L 110.305783 123.836574 
L 118.933884 123.832612 
L 127.561986 123.825511 
L 136.190081 123.813635 
L 144.818183 123.79485 
L 153.446284 123.766464 
L 162.074379 123.725182 
L 170.702474 123.667067 
L 179.330582 123.587513 
L 187.958678 123.481237 
L 196.586773 123.342277 
L 205.214881 123.164006 
L 213.842976 122.939167 
L 222.471071 122.659913 
L 231.099179 122.317869 
L 239.727274 121.904199 
L 248.355369 121.409695 
L 256.983477 120.824883 
L 265.61156 120.140118 
L 274.239668 119.345709 
L 282.867776 118.432046 
L 291.495858 117.389758 
L 300.123966 116.209817 
L 308.752074 114.883717 
L 317.380156 113.403625 
L 326.008264 111.762498 
L 334.636372 109.95429 
L 343.264455 107.974039 
L 351.892562 105.818087 
L 360.52067 103.484133 
L 369.148753 100.971473 
L 377.776861 98.281003 
L 386.404969 95.415422 
L 395.033051 92.379274 
L 403.661159 89.1791 
L 412.289267 85.823419 
L 420.917349 82.322862 
L 429.545457 78.690075 
L 438.173565 74.939982 
L 446.801648 71.089412 
L 455.429756 67.157383 
L 464.057864 63.164848 
L 472.685946 59.134794 
L 481.314029 55.091867 
L 489.942136 51.062433 
L 498.570244 47.074458 
L 507.198352 43.157117 
L 515.82646 39.340747 
L 524.454568 35.65657 
L 533.082625 32.136431 
L 541.710733 28.812422 
L 550.338841 25.716696 
L 558.966949 22.881065 
L 567.595057 20.336746 
L 576.223165 18.11379 
L 584.851222 16.241065 
L 593.47933 14.745322 
L 602.107438 13.651401 
L 610.735545 12.98133 
L 619.363653 12.754286 
L 627.99171 12.985958 
L 636.619818 13.688286 
L 645.247926 14.868935 
L 653.876034 16.531259 
L 662.504142 18.673636 
L 671.13225 21.289219 
L 679.760307 24.365948 
L 688.388415 27.885982 
L 697.016523 31.825965 
L 705.644631 36.156491 
L 714.272739 40.842475 
L 722.900847 45.842951 
L 731.528904 51.111377 
L 740.157011 56.596025 
L 748.785119 62.240042 
L 757.413227 67.982342 
L 766.041335 73.758061 
L 774.669443 79.499356 
L 783.2975 85.136466 
L 791.925608 90.599049 
L 800.553716 95.81718 
L 809.181824 100.72325 
L 817.809932 105.253708 
L 826.43804 109.35111 
L 835.066097 112.966449 
L 843.694205 116.06189 
L 852.322313 118.613585 
L 860.95042 120.615001 
L 869.578528 122.080563 
L 878.206636 123.049608 
L 886.834693 123.590785 
L 895.462801 123.806871 
L 904.090909 123.84 
" style="fill:none;stroke:#008fd5;stroke-width:4;"/>
   </g>
   <g id="patch_13">
    <path d="M 7.2 123.84 
L 7.2 7.2 
" style="fill:none;stroke:#b2b2b2;stroke-linecap:square;stroke-linejoin:miter;stroke-width:2;"/>
   </g>
   <g id="patch_14">
    <path d="M 946.8 123.84 
L 946.8 7.2 
" style="fill:none;stroke:#b2b2b2;stroke-linecap:square;stroke-linejoin:miter;stroke-width:2;"/>
   </g>
   <g id="patch_15">
    <path d="M 7.2 123.84 
L 946.8 123.84 
" style="fill:none;stroke:#b2b2b2;stroke-linecap:square;stroke-linejoin:miter;stroke-width:2;"/>
   </g>
   <g id="patch_16">
    <path d="M 7.2 7.2 
L 946.8 7.2 
" style="fill:none;stroke:#b2b2b2;stroke-linecap:square;stroke-linejoin:miter;stroke-width:2;"/>
   </g>
   <g id="legend_1">
    <g id="patch_17">
     <path d="M 764.384375 40.159062 
L 937 40.159062 
Q 939.8 40.159062 939.8 37.359062 
L 939.8 17 
Q 939.8 14.2 937 14.2 
L 764.384375 14.2 
Q 761.584375 14.2 761.584375 17 
L 761.584375 37.359062 
Q 761.584375 40.159062 764.384375 40.159062 
z
" style="fill:#f0f0f0;opacity:0.8;stroke:#cccccc;stroke-linejoin:miter;stroke-width:0.5;"/>
    </g>
    <g id="line2d_5">
     <path d="M 767.184375 26.7475 
L 795.184375 26.7475 
" style="fill:none;stroke:#008fd5;stroke-width:4;"/>
    </g>
    <g id="line2d_6"/>
    <g id="text_5">
     <!-- Xác suất posterior -->
     <g transform="translate(806.384375 31.6475)scale(0.14 -0.14)">
      <defs>
       <path d="M 6.296875 72.90625 
L 16.890625 72.90625 
L 35.015625 45.796875 
L 53.21875 72.90625 
L 63.8125 72.90625 
L 40.375 37.890625 
L 65.375 0 
L 54.78125 0 
L 34.28125 31 
L 13.625 0 
L 2.984375 0 
L 29 38.921875 
z
" id="DejaVuSans-88"/>
       <path d="M 34.28125 27.484375 
Q 23.390625 27.484375 19.1875 25 
Q 14.984375 22.515625 14.984375 16.5 
Q 14.984375 11.71875 18.140625 8.90625 
Q 21.296875 6.109375 26.703125 6.109375 
Q 34.1875 6.109375 38.703125 11.40625 
Q 43.21875 16.703125 43.21875 25.484375 
L 43.21875 27.484375 
z
M 52.203125 31.203125 
L 52.203125 0 
L 43.21875 0 
L 43.21875 8.296875 
Q 40.140625 3.328125 35.546875 0.953125 
Q 30.953125 -1.421875 24.3125 -1.421875 
Q 15.921875 -1.421875 10.953125 3.296875 
Q 6 8.015625 6 15.921875 
Q 6 25.140625 12.171875 29.828125 
Q 18.359375 34.515625 30.609375 34.515625 
L 43.21875 34.515625 
L 43.21875 35.40625 
Q 43.21875 41.609375 39.140625 45 
Q 35.0625 48.390625 27.6875 48.390625 
Q 23 48.390625 18.546875 47.265625 
Q 14.109375 46.140625 10.015625 43.890625 
L 10.015625 52.203125 
Q 14.9375 54.109375 19.578125 55.046875 
Q 24.21875 56 28.609375 56 
Q 40.484375 56 46.34375 49.84375 
Q 52.203125 43.703125 52.203125 31.203125 
z
M 35.796875 79.984375 
L 45.515625 79.984375 
L 29.59375 61.625 
L 22.125 61.625 
z
" id="DejaVuSans-225"/>
       <path d="M 44.28125 53.078125 
L 44.28125 44.578125 
Q 40.484375 46.53125 36.375 47.5 
Q 32.28125 48.484375 27.875 48.484375 
Q 21.1875 48.484375 17.84375 46.4375 
Q 14.5 44.390625 14.5 40.28125 
Q 14.5 37.15625 16.890625 35.375 
Q 19.28125 33.59375 26.515625 31.984375 
L 29.59375 31.296875 
Q 39.15625 29.25 43.1875 25.515625 
Q 47.21875 21.78125 47.21875 15.09375 
Q 47.21875 7.46875 41.1875 3.015625 
Q 35.15625 -1.421875 24.609375 -1.421875 
Q 20.21875 -1.421875 15.453125 -0.5625 
Q 10.6875 0.296875 5.421875 2 
L 5.421875 11.28125 
Q 10.40625 8.6875 15.234375 7.390625 
Q 20.0625 6.109375 24.8125 6.109375 
Q 31.15625 6.109375 34.5625 8.28125 
Q 37.984375 10.453125 37.984375 14.40625 
Q 37.984375 18.0625 35.515625 20.015625 
Q 33.0625 21.96875 24.703125 23.78125 
L 21.578125 24.515625 
Q 13.234375 26.265625 9.515625 29.90625 
Q 5.8125 33.546875 5.8125 39.890625 
Q 5.8125 47.609375 11.28125 51.796875 
Q 16.75 56 26.8125 56 
Q 31.78125 56 36.171875 55.265625 
Q 40.578125 54.546875 44.28125 53.078125 
z
" id="DejaVuSans-115"/>
       <path d="M 8.5 21.578125 
L 8.5 54.6875 
L 17.484375 54.6875 
L 17.484375 21.921875 
Q 17.484375 14.15625 20.5 10.265625 
Q 23.53125 6.390625 29.59375 6.390625 
Q 36.859375 6.390625 41.078125 11.03125 
Q 45.3125 15.671875 45.3125 23.6875 
L 45.3125 54.6875 
L 54.296875 54.6875 
L 54.296875 0 
L 45.3125 0 
L 45.3125 8.40625 
Q 42.046875 3.421875 37.71875 1 
Q 33.40625 -1.421875 27.6875 -1.421875 
Q 18.265625 -1.421875 13.375 4.4375 
Q 8.5 10.296875 8.5 21.578125 
z
M 31.109375 56 
z
" id="DejaVuSans-117"/>
       <path d="M 24.46875 74.609375 
L 33.640625 74.609375 
L 43.953125 61.625 
L 37.15625 61.625 
L 29.046875 70.3125 
L 20.953125 61.625 
L 14.15625 61.625 
z
M 49.515625 84.625 
L 58.546875 84.625 
L 47.40625 71.734375 
L 39.9375 71.734375 
z
M 34.28125 27.484375 
Q 23.390625 27.484375 19.1875 25 
Q 14.984375 22.515625 14.984375 16.5 
Q 14.984375 11.71875 18.140625 8.90625 
Q 21.296875 6.109375 26.703125 6.109375 
Q 34.1875 6.109375 38.703125 11.40625 
Q 43.21875 16.703125 43.21875 25.484375 
L 43.21875 27.484375 
z
M 52.203125 31.203125 
L 52.203125 0 
L 43.21875 0 
L 43.21875 8.296875 
Q 40.140625 3.328125 35.546875 0.953125 
Q 30.953125 -1.421875 24.3125 -1.421875 
Q 15.921875 -1.421875 10.953125 3.296875 
Q 6 8.015625 6 15.921875 
Q 6 25.140625 12.171875 29.828125 
Q 18.359375 34.515625 30.609375 34.515625 
L 43.21875 34.515625 
L 43.21875 35.40625 
Q 43.21875 41.609375 39.140625 45 
Q 35.0625 48.390625 27.6875 48.390625 
Q 23 48.390625 18.546875 47.265625 
Q 14.109375 46.140625 10.015625 43.890625 
L 10.015625 52.203125 
Q 14.9375 54.109375 19.578125 55.046875 
Q 24.21875 56 28.609375 56 
Q 40.484375 56 46.34375 49.84375 
Q 52.203125 43.703125 52.203125 31.203125 
z
" id="DejaVuSans-7845"/>
       <path d="M 18.3125 70.21875 
L 18.3125 54.6875 
L 36.8125 54.6875 
L 36.8125 47.703125 
L 18.3125 47.703125 
L 18.3125 18.015625 
Q 18.3125 11.328125 20.140625 9.421875 
Q 21.96875 7.515625 27.59375 7.515625 
L 36.8125 7.515625 
L 36.8125 0 
L 27.59375 0 
Q 17.1875 0 13.234375 3.875 
Q 9.28125 7.765625 9.28125 18.015625 
L 9.28125 47.703125 
L 2.6875 47.703125 
L 2.6875 54.6875 
L 9.28125 54.6875 
L 9.28125 70.21875 
z
" id="DejaVuSans-116"/>
       <path d="M 18.109375 8.203125 
L 18.109375 -20.796875 
L 9.078125 -20.796875 
L 9.078125 54.6875 
L 18.109375 54.6875 
L 18.109375 46.390625 
Q 20.953125 51.265625 25.265625 53.625 
Q 29.59375 56 35.59375 56 
Q 45.5625 56 51.78125 48.09375 
Q 58.015625 40.1875 58.015625 27.296875 
Q 58.015625 14.40625 51.78125 6.484375 
Q 45.5625 -1.421875 35.59375 -1.421875 
Q 29.59375 -1.421875 25.265625 0.953125 
Q 20.953125 3.328125 18.109375 8.203125 
z
M 48.6875 27.296875 
Q 48.6875 37.203125 44.609375 42.84375 
Q 40.53125 48.484375 33.40625 48.484375 
Q 26.265625 48.484375 22.1875 42.84375 
Q 18.109375 37.203125 18.109375 27.296875 
Q 18.109375 17.390625 22.1875 11.75 
Q 26.265625 6.109375 33.40625 6.109375 
Q 40.53125 6.109375 44.609375 11.75 
Q 48.6875 17.390625 48.6875 27.296875 
z
" id="DejaVuSans-112"/>
       <path d="M 30.609375 48.390625 
Q 23.390625 48.390625 19.1875 42.75 
Q 14.984375 37.109375 14.984375 27.296875 
Q 14.984375 17.484375 19.15625 11.84375 
Q 23.34375 6.203125 30.609375 6.203125 
Q 37.796875 6.203125 41.984375 11.859375 
Q 46.1875 17.53125 46.1875 27.296875 
Q 46.1875 37.015625 41.984375 42.703125 
Q 37.796875 48.390625 30.609375 48.390625 
z
M 30.609375 56 
Q 42.328125 56 49.015625 48.375 
Q 55.71875 40.765625 55.71875 27.296875 
Q 55.71875 13.875 49.015625 6.21875 
Q 42.328125 -1.421875 30.609375 -1.421875 
Q 18.84375 -1.421875 12.171875 6.21875 
Q 5.515625 13.875 5.515625 27.296875 
Q 5.515625 40.765625 12.171875 48.375 
Q 18.84375 56 30.609375 56 
z
" id="DejaVuSans-111"/>
       <path d="M 56.203125 29.59375 
L 56.203125 25.203125 
L 14.890625 25.203125 
Q 15.484375 15.921875 20.484375 11.0625 
Q 25.484375 6.203125 34.421875 6.203125 
Q 39.59375 6.203125 44.453125 7.46875 
Q 49.3125 8.734375 54.109375 11.28125 
L 54.109375 2.78125 
Q 49.265625 0.734375 44.1875 -0.34375 
Q 39.109375 -1.421875 33.890625 -1.421875 
Q 20.796875 -1.421875 13.15625 6.1875 
Q 5.515625 13.8125 5.515625 26.8125 
Q 5.515625 40.234375 12.765625 48.109375 
Q 20.015625 56 32.328125 56 
Q 43.359375 56 49.78125 48.890625 
Q 56.203125 41.796875 56.203125 29.59375 
z
M 47.21875 32.234375 
Q 47.125 39.59375 43.09375 43.984375 
Q 39.0625 48.390625 32.421875 48.390625 
Q 24.90625 48.390625 20.390625 44.140625 
Q 15.875 39.890625 15.1875 32.171875 
z
" id="DejaVuSans-101"/>
       <path d="M 41.109375 46.296875 
Q 39.59375 47.171875 37.8125 47.578125 
Q 36.03125 48 33.890625 48 
Q 26.265625 48 22.1875 43.046875 
Q 18.109375 38.09375 18.109375 28.8125 
L 18.109375 0 
L 9.078125 0 
L 9.078125 54.6875 
L 18.109375 54.6875 
L 18.109375 46.1875 
Q 20.953125 51.171875 25.484375 53.578125 
Q 30.03125 56 36.53125 56 
Q 37.453125 56 38.578125 55.875 
Q 39.703125 55.765625 41.0625 55.515625 
z
" id="DejaVuSans-114"/>
       <path d="M 9.421875 54.6875 
L 18.40625 54.6875 
L 18.40625 0 
L 9.421875 0 
z
M 9.421875 75.984375 
L 18.40625 75.984375 
L 18.40625 64.59375 
L 9.421875 64.59375 
z
" id="DejaVuSans-105"/>
      </defs>
      <use xlink:href="#DejaVuSans-88"/>
      <use x="68.505859" xlink:href="#DejaVuSans-225"/>
      <use x="129.785156" xlink:href="#DejaVuSans-99"/>
      <use x="184.765625" xlink:href="#DejaVuSans-32"/>
      <use x="216.552734" xlink:href="#DejaVuSans-115"/>
      <use x="268.652344" xlink:href="#DejaVuSans-117"/>
      <use x="332.03125" xlink:href="#DejaVuSans-7845"/>
      <use x="393.310547" xlink:href="#DejaVuSans-116"/>
      <use x="432.519531" xlink:href="#DejaVuSans-32"/>
      <use x="464.306641" xlink:href="#DejaVuSans-112"/>
      <use x="527.783203" xlink:href="#DejaVuSans-111"/>
      <use x="588.964844" xlink:href="#DejaVuSans-115"/>
      <use x="641.064453" xlink:href="#DejaVuSans-116"/>
      <use x="680.273438" xlink:href="#DejaVuSans-101"/>
      <use x="741.796875" xlink:href="#DejaVuSans-114"/>
      <use x="782.910156" xlink:href="#DejaVuSans-105"/>
      <use x="810.693359" xlink:href="#DejaVuSans-111"/>
      <use x="871.875" xlink:href="#DejaVuSans-114"/>
     </g>
    </g>
   </g>
  </g>
  <g id="axes_2">
   <g id="patch_18">
    <path d="M 7.2 298.8 
L 95.841509 298.8 
L 95.841509 182.16 
L 7.2 182.16 
z
" style="fill:#f0f0f0;"/>
   </g>
   <g id="matplotlib.axis_3"/>
   <g id="matplotlib.axis_4"/>
   <g id="patch_19">
    <path clip-path="url(#p0dce16b569)" d="M 11.22916 298.8 
L 15.47038 298.8 
L 15.47038 185.828189 
L 11.22916 185.828189 
z
" style="fill:#008fd5;"/>
   </g>
   <g id="patch_20">
    <path clip-path="url(#p0dce16b569)" d="M 19.711601 298.8 
L 23.952821 298.8 
L 23.952821 185.827651 
L 19.711601 185.827651 
z
" style="fill:#008fd5;"/>
   </g>
   <g id="patch_21">
    <path clip-path="url(#p0dce16b569)" d="M 28.194042 298.8 
L 32.435262 298.8 
L 32.435262 248.59011 
L 28.194042 248.59011 
z
" style="fill:#008fd5;"/>
   </g>
   <g id="patch_22">
    <path clip-path="url(#p0dce16b569)" d="M 36.676483 298.8 
L 40.917703 298.8 
L 40.917703 285.782643 
L 36.676483 285.782643 
z
" style="fill:#008fd5;"/>
   </g>
   <g id="patch_23">
    <path clip-path="url(#p0dce16b569)" d="M 45.158924 298.8 
L 49.400144 298.8 
L 49.400144 296.630438 
L 45.158924 296.630438 
z
" style="fill:#008fd5;"/>
   </g>
   <g id="patch_24">
    <path clip-path="url(#p0dce16b569)" d="M 53.641365 298.8 
L 57.882586 298.8 
L 57.882586 298.558938 
L 53.641365 298.558938 
z
" style="fill:#008fd5;"/>
   </g>
   <g id="patch_25">
    <path clip-path="url(#p0dce16b569)" d="M 62.123806 298.8 
L 66.365027 298.8 
L 66.365027 298.782144 
L 62.123806 298.782144 
z
" style="fill:#008fd5;"/>
   </g>
   <g id="patch_26">
    <path clip-path="url(#p0dce16b569)" d="M 70.606247 298.8 
L 74.847468 298.8 
L 74.847468 298.79915 
L 70.606247 298.79915 
z
" style="fill:#008fd5;"/>
   </g>
   <g id="patch_27">
    <path clip-path="url(#p0dce16b569)" d="M 79.088688 298.8 
L 83.329909 298.8 
L 83.329909 298.799976 
L 79.088688 298.799976 
z
" style="fill:#008fd5;"/>
   </g>
   <g id="patch_28">
    <path clip-path="url(#p0dce16b569)" d="M 87.571129 298.8 
L 91.81235 298.8 
L 91.81235 298.8 
L 87.571129 298.8 
z
" style="fill:#008fd5;"/>
   </g>
   <g id="patch_29">
    <path d="M 65.940905 182.16 
Q 101.06118 153 136.181455 123.84 
" style="fill:none;stroke:#008fd5;stroke-linecap:round;stroke-width:0.5;"/>
   </g>
   <g id="patch_30">
    <path d="M 65.940905 298.8 
Q 298.062905 327.96 530.184906 357.12 
" style="fill:none;stroke:#008fd5;stroke-linecap:round;stroke-width:0.5;"/>
   </g>
   <g id="patch_31">
    <path d="M 7.2 298.8 
L 7.2 182.16 
" style="fill:none;stroke:#b2b2b2;stroke-linecap:square;stroke-linejoin:miter;stroke-width:2;"/>
   </g>
   <g id="patch_32">
    <path d="M 95.841509 298.8 
L 95.841509 182.16 
" style="fill:none;stroke:#b2b2b2;stroke-linecap:square;stroke-linejoin:miter;stroke-width:2;"/>
   </g>
   <g id="patch_33">
    <path d="M 7.2 298.8 
L 95.841509 298.8 
" style="fill:none;stroke:#b2b2b2;stroke-linecap:square;stroke-linejoin:miter;stroke-width:2;"/>
   </g>
   <g id="patch_34">
    <path d="M 7.2 182.16 
L 95.841509 182.16 
" style="fill:none;stroke:#b2b2b2;stroke-linecap:square;stroke-linejoin:miter;stroke-width:2;"/>
   </g>
   <g id="text_6">
    <!-- 0.1 -->
    <g transform="translate(65.940905 196.74)scale(0.14 -0.14)">
     <use xlink:href="#DejaVuSans-48"/>
     <use x="63.623047" xlink:href="#DejaVuSans-46"/>
     <use x="95.410156" xlink:href="#DejaVuSans-49"/>
    </g>
   </g>
  </g>
  <g id="axes_3">
   <g id="patch_35">
    <path d="M 113.569811 298.8 
L 202.211321 298.8 
L 202.211321 182.16 
L 113.569811 182.16 
z
" style="fill:#f0f0f0;"/>
   </g>
   <g id="matplotlib.axis_5"/>
   <g id="matplotlib.axis_6"/>
   <g id="patch_36">
    <path clip-path="url(#pdc8833f884)" d="M 117.598971 298.8 
L 121.840191 298.8 
L 121.840191 259.662112 
L 117.598971 259.662112 
z
" style="fill:#008fd5;"/>
   </g>
   <g id="patch_37">
    <path clip-path="url(#pdc8833f884)" d="M 126.081412 298.8 
L 130.322632 298.8 
L 130.322632 210.739324 
L 126.081412 210.739324 
z
" style="fill:#008fd5;"/>
   </g>
   <g id="patch_38">
    <path clip-path="url(#pdc8833f884)" d="M 134.563853 298.8 
L 138.805074 298.8 
L 138.805074 210.739411 
L 134.563853 210.739411 
z
" style="fill:#008fd5;"/>
   </g>
   <g id="patch_39">
    <path clip-path="url(#pdc8833f884)" d="M 143.046294 298.8 
L 147.287515 298.8 
L 147.287515 247.431403 
L 143.046294 247.431403 
z
" style="fill:#008fd5;"/>
   </g>
   <g id="patch_40">
    <path clip-path="url(#pdc8833f884)" d="M 151.528735 298.8 
L 155.769956 298.8 
L 155.769956 279.536763 
L 151.528735 279.536763 
z
" style="fill:#008fd5;"/>
   </g>
   <g id="patch_41">
    <path clip-path="url(#pdc8833f884)" d="M 160.011176 298.8 
L 164.252397 298.8 
L 164.252397 293.984193 
L 160.011176 293.984193 
z
" style="fill:#008fd5;"/>
   </g>
   <g id="patch_42">
    <path clip-path="url(#pdc8833f884)" d="M 168.493617 298.8 
L 172.734838 298.8 
L 172.734838 297.997366 
L 168.493617 297.997366 
z
" style="fill:#008fd5;"/>
   </g>
   <g id="patch_43">
    <path clip-path="url(#pdc8833f884)" d="M 176.976058 298.8 
L 181.217279 298.8 
L 181.217279 298.714003 
L 176.976058 298.714003 
z
" style="fill:#008fd5;"/>
   </g>
   <g id="patch_44">
    <path clip-path="url(#pdc8833f884)" d="M 185.4585 298.8 
L 189.69972 298.8 
L 189.69972 298.794625 
L 185.4585 298.794625 
z
" style="fill:#008fd5;"/>
   </g>
   <g id="patch_45">
    <path clip-path="url(#pdc8833f884)" d="M 193.940941 298.8 
L 198.182161 298.8 
L 198.182161 298.799851 
L 193.940941 298.799851 
z
" style="fill:#008fd5;"/>
   </g>
   <g id="patch_46">
    <path d="M 165.524763 182.16 
Q 193.989291 153 222.453818 123.84 
" style="fill:none;stroke:#008fd5;stroke-linecap:round;stroke-width:0.5;"/>
   </g>
   <g id="patch_47">
    <path d="M 165.524763 298.8 
Q 347.854834 327.96 530.184906 357.12 
" style="fill:none;stroke:#008fd5;stroke-linecap:round;stroke-width:0.5;"/>
   </g>
   <g id="patch_48">
    <path d="M 113.569811 298.8 
L 113.569811 182.16 
" style="fill:none;stroke:#b2b2b2;stroke-linecap:square;stroke-linejoin:miter;stroke-width:2;"/>
   </g>
   <g id="patch_49">
    <path d="M 202.211321 298.8 
L 202.211321 182.16 
" style="fill:none;stroke:#b2b2b2;stroke-linecap:square;stroke-linejoin:miter;stroke-width:2;"/>
   </g>
   <g id="patch_50">
    <path d="M 113.569811 298.8 
L 202.211321 298.8 
" style="fill:none;stroke:#b2b2b2;stroke-linecap:square;stroke-linejoin:miter;stroke-width:2;"/>
   </g>
   <g id="patch_51">
    <path d="M 113.569811 182.16 
L 202.211321 182.16 
" style="fill:none;stroke:#b2b2b2;stroke-linecap:square;stroke-linejoin:miter;stroke-width:2;"/>
   </g>
   <g id="text_7">
    <!-- 0.2 -->
    <g transform="translate(165.524763 196.74)scale(0.14 -0.14)">
     <defs>
      <path d="M 19.1875 8.296875 
L 53.609375 8.296875 
L 53.609375 0 
L 7.328125 0 
L 7.328125 8.296875 
Q 12.9375 14.109375 22.625 23.890625 
Q 32.328125 33.6875 34.8125 36.53125 
Q 39.546875 41.84375 41.421875 45.53125 
Q 43.3125 49.21875 43.3125 52.78125 
Q 43.3125 58.59375 39.234375 62.25 
Q 35.15625 65.921875 28.609375 65.921875 
Q 23.96875 65.921875 18.8125 64.3125 
Q 13.671875 62.703125 7.8125 59.421875 
L 7.8125 69.390625 
Q 13.765625 71.78125 18.9375 73 
Q 24.125 74.21875 28.421875 74.21875 
Q 39.75 74.21875 46.484375 68.546875 
Q 53.21875 62.890625 53.21875 53.421875 
Q 53.21875 48.921875 51.53125 44.890625 
Q 49.859375 40.875 45.40625 35.40625 
Q 44.1875 33.984375 37.640625 27.21875 
Q 31.109375 20.453125 19.1875 8.296875 
z
" id="DejaVuSans-50"/>
     </defs>
     <use xlink:href="#DejaVuSans-48"/>
     <use x="63.623047" xlink:href="#DejaVuSans-46"/>
     <use x="95.410156" xlink:href="#DejaVuSans-50"/>
    </g>
   </g>
   <g id="text_8">
    <!-- Phân phối mẫu -->
    <g transform="translate(82.312616 176.16)scale(0.2016 -0.2016)">
     <defs>
      <path d="M 19.671875 64.796875 
L 19.671875 37.40625 
L 32.078125 37.40625 
Q 38.96875 37.40625 42.71875 40.96875 
Q 46.484375 44.53125 46.484375 51.125 
Q 46.484375 57.671875 42.71875 61.234375 
Q 38.96875 64.796875 32.078125 64.796875 
z
M 9.8125 72.90625 
L 32.078125 72.90625 
Q 44.34375 72.90625 50.609375 67.359375 
Q 56.890625 61.8125 56.890625 51.125 
Q 56.890625 40.328125 50.609375 34.8125 
Q 44.34375 29.296875 32.078125 29.296875 
L 19.671875 29.296875 
L 19.671875 0 
L 9.8125 0 
z
" id="DejaVuSans-80"/>
      <path d="M 54.890625 33.015625 
L 54.890625 0 
L 45.90625 0 
L 45.90625 32.71875 
Q 45.90625 40.484375 42.875 44.328125 
Q 39.84375 48.1875 33.796875 48.1875 
Q 26.515625 48.1875 22.3125 43.546875 
Q 18.109375 38.921875 18.109375 30.90625 
L 18.109375 0 
L 9.078125 0 
L 9.078125 75.984375 
L 18.109375 75.984375 
L 18.109375 46.1875 
Q 21.34375 51.125 25.703125 53.5625 
Q 30.078125 56 35.796875 56 
Q 45.21875 56 50.046875 50.171875 
Q 54.890625 44.34375 54.890625 33.015625 
z
" id="DejaVuSans-104"/>
      <path d="M 34.28125 27.484375 
Q 23.390625 27.484375 19.1875 25 
Q 14.984375 22.515625 14.984375 16.5 
Q 14.984375 11.71875 18.140625 8.90625 
Q 21.296875 6.109375 26.703125 6.109375 
Q 34.1875 6.109375 38.703125 11.40625 
Q 43.21875 16.703125 43.21875 25.484375 
L 43.21875 27.484375 
z
M 52.203125 31.203125 
L 52.203125 0 
L 43.21875 0 
L 43.21875 8.296875 
Q 40.140625 3.328125 35.546875 0.953125 
Q 30.953125 -1.421875 24.3125 -1.421875 
Q 15.921875 -1.421875 10.953125 3.296875 
Q 6 8.015625 6 15.921875 
Q 6 25.140625 12.171875 29.828125 
Q 18.359375 34.515625 30.609375 34.515625 
L 43.21875 34.515625 
L 43.21875 35.40625 
Q 43.21875 41.609375 39.140625 45 
Q 35.0625 48.390625 27.6875 48.390625 
Q 23 48.390625 18.546875 47.265625 
Q 14.109375 46.140625 10.015625 43.890625 
L 10.015625 52.203125 
Q 14.9375 54.109375 19.578125 55.046875 
Q 24.21875 56 28.609375 56 
Q 40.484375 56 46.34375 49.84375 
Q 52.203125 43.703125 52.203125 31.203125 
z
M 25.390625 79.984375 
L 32.625 79.984375 
L 44.578125 61.625 
L 37.796875 61.625 
L 29 73.578125 
L 20.21875 61.625 
L 13.421875 61.625 
z
" id="DejaVuSans-226"/>
      <path d="M 25.984375 74.609375 
L 35.15625 74.609375 
L 45.453125 61.625 
L 38.671875 61.625 
L 30.5625 70.3125 
L 22.46875 61.625 
L 15.671875 61.625 
z
M 51.03125 84.625 
L 60.0625 84.625 
L 48.921875 71.734375 
L 41.453125 71.734375 
z
M 30.609375 48.390625 
Q 23.390625 48.390625 19.1875 42.75 
Q 14.984375 37.109375 14.984375 27.296875 
Q 14.984375 17.484375 19.15625 11.84375 
Q 23.34375 6.203125 30.609375 6.203125 
Q 37.796875 6.203125 41.984375 11.859375 
Q 46.1875 17.53125 46.1875 27.296875 
Q 46.1875 37.015625 41.984375 42.703125 
Q 37.796875 48.390625 30.609375 48.390625 
z
M 30.609375 56 
Q 42.328125 56 49.015625 48.375 
Q 55.71875 40.765625 55.71875 27.296875 
Q 55.71875 13.875 49.015625 6.21875 
Q 42.328125 -1.421875 30.609375 -1.421875 
Q 18.84375 -1.421875 12.171875 6.21875 
Q 5.515625 13.875 5.515625 27.296875 
Q 5.515625 40.765625 12.171875 48.375 
Q 18.84375 56 30.609375 56 
z
" id="DejaVuSans-7889"/>
      <path d="M 52 44.1875 
Q 55.375 50.25 60.0625 53.125 
Q 64.75 56 71.09375 56 
Q 79.640625 56 84.28125 50.015625 
Q 88.921875 44.046875 88.921875 33.015625 
L 88.921875 0 
L 79.890625 0 
L 79.890625 32.71875 
Q 79.890625 40.578125 77.09375 44.375 
Q 74.3125 48.1875 68.609375 48.1875 
Q 61.625 48.1875 57.5625 43.546875 
Q 53.515625 38.921875 53.515625 30.90625 
L 53.515625 0 
L 44.484375 0 
L 44.484375 32.71875 
Q 44.484375 40.625 41.703125 44.40625 
Q 38.921875 48.1875 33.109375 48.1875 
Q 26.21875 48.1875 22.15625 43.53125 
Q 18.109375 38.875 18.109375 30.90625 
L 18.109375 0 
L 9.078125 0 
L 9.078125 54.6875 
L 18.109375 54.6875 
L 18.109375 46.1875 
Q 21.1875 51.21875 25.484375 53.609375 
Q 29.78125 56 35.6875 56 
Q 41.65625 56 45.828125 52.96875 
Q 50 49.953125 52 44.1875 
z
" id="DejaVuSans-109"/>
      <path d="M 24.421875 74.609375 
L 33.59375 74.609375 
L 43.890625 61.625 
L 37.109375 61.625 
L 29 70.3125 
L 20.90625 61.625 
L 14.109375 61.625 
z
M 29 78.90625 
L 26.21875 80.515625 
Q 25 81.203125 24.234375 81.46875 
Q 23.484375 81.734375 22.90625 81.734375 
Q 21.140625 81.734375 20.15625 80.515625 
Q 19.1875 79.296875 19.1875 77.109375 
L 19.1875 76.8125 
L 13.09375 76.8125 
Q 13.09375 81.734375 15.59375 84.609375 
Q 18.109375 87.5 22.3125 87.5 
Q 24.078125 87.5 25.5625 87.109375 
Q 27.046875 86.71875 29.390625 85.40625 
L 32.171875 83.9375 
Q 33.296875 83.296875 34.125 83 
Q 34.96875 82.71875 35.6875 82.71875 
Q 37.25 82.71875 38.21875 83.953125 
Q 39.203125 85.203125 39.203125 87.203125 
L 39.203125 87.5 
L 45.3125 87.5 
Q 45.21875 82.625 42.703125 79.71875 
Q 40.1875 76.8125 36.078125 76.8125 
Q 34.421875 76.8125 32.984375 77.203125 
Q 31.546875 77.59375 29 78.90625 
z
M 34.28125 27.484375 
Q 23.390625 27.484375 19.1875 25 
Q 14.984375 22.515625 14.984375 16.5 
Q 14.984375 11.71875 18.140625 8.90625 
Q 21.296875 6.109375 26.703125 6.109375 
Q 34.1875 6.109375 38.703125 11.40625 
Q 43.21875 16.703125 43.21875 25.484375 
L 43.21875 27.484375 
z
M 52.203125 31.203125 
L 52.203125 0 
L 43.21875 0 
L 43.21875 8.296875 
Q 40.140625 3.328125 35.546875 0.953125 
Q 30.953125 -1.421875 24.3125 -1.421875 
Q 15.921875 -1.421875 10.953125 3.296875 
Q 6 8.015625 6 15.921875 
Q 6 25.140625 12.171875 29.828125 
Q 18.359375 34.515625 30.609375 34.515625 
L 43.21875 34.515625 
L 43.21875 35.40625 
Q 43.21875 41.609375 39.140625 45 
Q 35.0625 48.390625 27.6875 48.390625 
Q 23 48.390625 18.546875 47.265625 
Q 14.109375 46.140625 10.015625 43.890625 
L 10.015625 52.203125 
Q 14.9375 54.109375 19.578125 55.046875 
Q 24.21875 56 28.609375 56 
Q 40.484375 56 46.34375 49.84375 
Q 52.203125 43.703125 52.203125 31.203125 
z
" id="DejaVuSans-7851"/>
     </defs>
     <use xlink:href="#DejaVuSans-80"/>
     <use x="60.302734" xlink:href="#DejaVuSans-104"/>
     <use x="123.681641" xlink:href="#DejaVuSans-226"/>
     <use x="184.960938" xlink:href="#DejaVuSans-110"/>
     <use x="248.339844" xlink:href="#DejaVuSans-32"/>
     <use x="280.126953" xlink:href="#DejaVuSans-112"/>
     <use x="343.603516" xlink:href="#DejaVuSans-104"/>
     <use x="406.982422" xlink:href="#DejaVuSans-7889"/>
     <use x="468.164062" xlink:href="#DejaVuSans-105"/>
     <use x="495.947266" xlink:href="#DejaVuSans-32"/>
     <use x="527.734375" xlink:href="#DejaVuSans-109"/>
     <use x="625.146484" xlink:href="#DejaVuSans-7851"/>
     <use x="686.425781" xlink:href="#DejaVuSans-117"/>
    </g>
   </g>
  </g>
  <g id="axes_4">
   <g id="patch_52">
    <path d="M 219.939623 298.8 
L 308.581132 298.8 
L 308.581132 182.16 
L 219.939623 182.16 
z
" style="fill:#f0f0f0;"/>
   </g>
   <g id="matplotlib.axis_7"/>
   <g id="matplotlib.axis_8"/>
   <g id="patch_53">
    <path clip-path="url(#p503cf1dc35)" d="M 223.968782 298.8 
L 228.210003 298.8 
L 228.210003 287.03289 
L 223.968782 287.03289 
z
" style="fill:#008fd5;"/>
   </g>
   <g id="patch_54">
    <path clip-path="url(#p503cf1dc35)" d="M 232.451223 298.8 
L 236.692444 298.8 
L 236.692444 253.412359 
L 232.451223 253.412359 
z
" style="fill:#008fd5;"/>
   </g>
   <g id="patch_55">
    <path clip-path="url(#p503cf1dc35)" d="M 240.933664 298.8 
L 245.174885 298.8 
L 245.174885 220.992694 
L 240.933664 220.992694 
z
" style="fill:#008fd5;"/>
   </g>
   <g id="patch_56">
    <path clip-path="url(#p503cf1dc35)" d="M 249.416105 298.8 
L 253.657326 298.8 
L 253.657326 220.992825 
L 249.416105 220.992825 
z
" style="fill:#008fd5;"/>
   </g>
   <g id="patch_57">
    <path clip-path="url(#p503cf1dc35)" d="M 257.898547 298.8 
L 262.139767 298.8 
L 262.139767 248.781041 
L 257.898547 248.781041 
z
" style="fill:#008fd5;"/>
   </g>
   <g id="patch_58">
    <path clip-path="url(#p503cf1dc35)" d="M 266.380988 298.8 
L 270.622208 298.8 
L 270.622208 277.363316 
L 266.380988 277.363316 
z
" style="fill:#008fd5;"/>
   </g>
   <g id="patch_59">
    <path clip-path="url(#p503cf1dc35)" d="M 274.863429 298.8 
L 279.104649 298.8 
L 279.104649 292.675239 
L 274.863429 292.675239 
z
" style="fill:#008fd5;"/>
   </g>
   <g id="patch_60">
    <path clip-path="url(#p503cf1dc35)" d="M 283.34587 298.8 
L 287.58709 298.8 
L 287.58709 297.675041 
L 283.34587 297.675041 
z
" style="fill:#008fd5;"/>
   </g>
   <g id="patch_61">
    <path clip-path="url(#p503cf1dc35)" d="M 291.828311 298.8 
L 296.069531 298.8 
L 296.069531 298.679469 
L 291.828311 298.679469 
z
" style="fill:#008fd5;"/>
   </g>
   <g id="patch_62">
    <path clip-path="url(#p503cf1dc35)" d="M 300.310752 298.8 
L 304.551973 298.8 
L 304.551973 298.79426 
L 300.310752 298.79426 
z
" style="fill:#008fd5;"/>
   </g>
   <g id="patch_63">
    <path d="M 265.108621 182.16 
Q 286.917402 153 308.726182 123.84 
" style="fill:none;stroke:#008fd5;stroke-linecap:round;stroke-width:0.5;"/>
   </g>
   <g id="patch_64">
    <path d="M 265.108621 298.8 
Q 397.646764 327.96 530.184906 357.12 
" style="fill:none;stroke:#008fd5;stroke-linecap:round;stroke-width:0.5;"/>
   </g>
   <g id="patch_65">
    <path d="M 219.939623 298.8 
L 219.939623 182.16 
" style="fill:none;stroke:#b2b2b2;stroke-linecap:square;stroke-linejoin:miter;stroke-width:2;"/>
   </g>
   <g id="patch_66">
    <path d="M 308.581132 298.8 
L 308.581132 182.16 
" style="fill:none;stroke:#b2b2b2;stroke-linecap:square;stroke-linejoin:miter;stroke-width:2;"/>
   </g>
   <g id="patch_67">
    <path d="M 219.939623 298.8 
L 308.581132 298.8 
" style="fill:none;stroke:#b2b2b2;stroke-linecap:square;stroke-linejoin:miter;stroke-width:2;"/>
   </g>
   <g id="patch_68">
    <path d="M 219.939623 182.16 
L 308.581132 182.16 
" style="fill:none;stroke:#b2b2b2;stroke-linecap:square;stroke-linejoin:miter;stroke-width:2;"/>
   </g>
   <g id="text_9">
    <!-- 0.3 -->
    <g transform="translate(265.108621 196.74)scale(0.14 -0.14)">
     <defs>
      <path d="M 40.578125 39.3125 
Q 47.65625 37.796875 51.625 33 
Q 55.609375 28.21875 55.609375 21.1875 
Q 55.609375 10.40625 48.1875 4.484375 
Q 40.765625 -1.421875 27.09375 -1.421875 
Q 22.515625 -1.421875 17.65625 -0.515625 
Q 12.796875 0.390625 7.625 2.203125 
L 7.625 11.71875 
Q 11.71875 9.328125 16.59375 8.109375 
Q 21.484375 6.890625 26.8125 6.890625 
Q 36.078125 6.890625 40.9375 10.546875 
Q 45.796875 14.203125 45.796875 21.1875 
Q 45.796875 27.640625 41.28125 31.265625 
Q 36.765625 34.90625 28.71875 34.90625 
L 20.21875 34.90625 
L 20.21875 43.015625 
L 29.109375 43.015625 
Q 36.375 43.015625 40.234375 45.921875 
Q 44.09375 48.828125 44.09375 54.296875 
Q 44.09375 59.90625 40.109375 62.90625 
Q 36.140625 65.921875 28.71875 65.921875 
Q 24.65625 65.921875 20.015625 65.03125 
Q 15.375 64.15625 9.8125 62.3125 
L 9.8125 71.09375 
Q 15.4375 72.65625 20.34375 73.4375 
Q 25.25 74.21875 29.59375 74.21875 
Q 40.828125 74.21875 47.359375 69.109375 
Q 53.90625 64.015625 53.90625 55.328125 
Q 53.90625 49.265625 50.4375 45.09375 
Q 46.96875 40.921875 40.578125 39.3125 
z
" id="DejaVuSans-51"/>
     </defs>
     <use xlink:href="#DejaVuSans-48"/>
     <use x="63.623047" xlink:href="#DejaVuSans-46"/>
     <use x="95.410156" xlink:href="#DejaVuSans-51"/>
    </g>
   </g>
  </g>
  <g id="axes_5">
   <g id="patch_69">
    <path d="M 326.309434 298.8 
L 414.950943 298.8 
L 414.950943 182.16 
L 326.309434 182.16 
z
" style="fill:#f0f0f0;"/>
   </g>
   <g id="matplotlib.axis_9"/>
   <g id="matplotlib.axis_10"/>
   <g id="patch_70">
    <path clip-path="url(#p080c857444)" d="M 330.338593 298.8 
L 334.579814 298.8 
L 334.579814 295.861344 
L 330.338593 295.861344 
z
" style="fill:#008fd5;"/>
   </g>
   <g id="patch_71">
    <path clip-path="url(#p080c857444)" d="M 338.821035 298.8 
L 343.062255 298.8 
L 343.062255 281.16798 
L 338.821035 281.16798 
z
" style="fill:#008fd5;"/>
   </g>
   <g id="patch_72">
    <path clip-path="url(#p080c857444)" d="M 347.303476 298.8 
L 351.544696 298.8 
L 351.544696 251.781322 
L 347.303476 251.781322 
z
" style="fill:#008fd5;"/>
   </g>
   <g id="patch_73">
    <path clip-path="url(#p080c857444)" d="M 355.785917 298.8 
L 360.027137 298.8 
L 360.027137 225.659946 
L 355.785917 225.659946 
z
" style="fill:#008fd5;"/>
   </g>
   <g id="patch_74">
    <path clip-path="url(#p080c857444)" d="M 364.268358 298.8 
L 368.509578 298.8 
L 368.509578 225.659877 
L 364.268358 225.659877 
z
" style="fill:#008fd5;"/>
   </g>
   <g id="patch_75">
    <path clip-path="url(#p080c857444)" d="M 372.750799 298.8 
L 376.992019 298.8 
L 376.992019 250.039927 
L 372.750799 250.039927 
z
" style="fill:#008fd5;"/>
   </g>
   <g id="patch_76">
    <path clip-path="url(#p080c857444)" d="M 381.23324 298.8 
L 385.474461 298.8 
L 385.474461 277.128878 
L 381.23324 277.128878 
z
" style="fill:#008fd5;"/>
   </g>
   <g id="patch_77">
    <path clip-path="url(#p080c857444)" d="M 389.715681 298.8 
L 393.956902 298.8 
L 393.956902 292.608237 
L 389.715681 292.608237 
z
" style="fill:#008fd5;"/>
   </g>
   <g id="patch_78">
    <path clip-path="url(#p080c857444)" d="M 398.198122 298.8 
L 402.439343 298.8 
L 402.439343 297.768039 
L 398.198122 297.768039 
z
" style="fill:#008fd5;"/>
   </g>
   <g id="patch_79">
    <path clip-path="url(#p080c857444)" d="M 406.680563 298.8 
L 410.921784 298.8 
L 410.921784 298.723559 
L 406.680563 298.723559 
z
" style="fill:#008fd5;"/>
   </g>
   <g id="patch_80">
    <path d="M 364.69248 182.16 
Q 379.845513 153 394.998545 123.84 
" style="fill:none;stroke:#008fd5;stroke-linecap:round;stroke-width:0.781346;"/>
   </g>
   <g id="patch_81">
    <path d="M 364.69248 298.8 
Q 447.438693 327.96 530.184906 357.12 
" style="fill:none;stroke:#008fd5;stroke-linecap:round;stroke-width:0.781346;"/>
   </g>
   <g id="patch_82">
    <path d="M 326.309434 298.8 
L 326.309434 182.16 
" style="fill:none;stroke:#b2b2b2;stroke-linecap:square;stroke-linejoin:miter;stroke-width:2;"/>
   </g>
   <g id="patch_83">
    <path d="M 414.950943 298.8 
L 414.950943 182.16 
" style="fill:none;stroke:#b2b2b2;stroke-linecap:square;stroke-linejoin:miter;stroke-width:2;"/>
   </g>
   <g id="patch_84">
    <path d="M 326.309434 298.8 
L 414.950943 298.8 
" style="fill:none;stroke:#b2b2b2;stroke-linecap:square;stroke-linejoin:miter;stroke-width:2;"/>
   </g>
   <g id="patch_85">
    <path d="M 326.309434 182.16 
L 414.950943 182.16 
" style="fill:none;stroke:#b2b2b2;stroke-linecap:square;stroke-linejoin:miter;stroke-width:2;"/>
   </g>
   <g id="text_10">
    <!-- 0.4 -->
    <g transform="translate(364.69248 196.74)scale(0.14 -0.14)">
     <defs>
      <path d="M 37.796875 64.3125 
L 12.890625 25.390625 
L 37.796875 25.390625 
z
M 35.203125 72.90625 
L 47.609375 72.90625 
L 47.609375 25.390625 
L 58.015625 25.390625 
L 58.015625 17.1875 
L 47.609375 17.1875 
L 47.609375 0 
L 37.796875 0 
L 37.796875 17.1875 
L 4.890625 17.1875 
L 4.890625 26.703125 
z
" id="DejaVuSans-52"/>
     </defs>
     <use xlink:href="#DejaVuSans-48"/>
     <use x="63.623047" xlink:href="#DejaVuSans-46"/>
     <use x="95.410156" xlink:href="#DejaVuSans-52"/>
    </g>
   </g>
  </g>
  <g id="axes_6">
   <g id="patch_86">
    <path d="M 432.679245 298.8 
L 521.320755 298.8 
L 521.320755 182.16 
L 432.679245 182.16 
z
" style="fill:#f0f0f0;"/>
   </g>
   <g id="matplotlib.axis_11"/>
   <g id="matplotlib.axis_12"/>
   <g id="patch_87">
    <path clip-path="url(#p513fef36e9)" d="M 436.708405 298.8 
L 440.949625 298.8 
L 440.949625 298.230469 
L 436.708405 298.230469 
z
" style="fill:#008fd5;"/>
   </g>
   <g id="patch_88">
    <path clip-path="url(#p513fef36e9)" d="M 445.190846 298.8 
L 449.432066 298.8 
L 449.432066 293.674194 
L 445.190846 293.674194 
z
" style="fill:#008fd5;"/>
   </g>
   <g id="patch_89">
    <path clip-path="url(#p513fef36e9)" d="M 453.673287 298.8 
L 457.914508 298.8 
L 457.914508 278.296797 
L 453.673287 278.296797 
z
" style="fill:#008fd5;"/>
   </g>
   <g id="patch_90">
    <path clip-path="url(#p513fef36e9)" d="M 462.155728 298.8 
L 466.396949 298.8 
L 466.396949 250.959271 
L 462.155728 250.959271 
z
" style="fill:#008fd5;"/>
   </g>
   <g id="patch_91">
    <path clip-path="url(#p513fef36e9)" d="M 470.638169 298.8 
L 474.87939 298.8 
L 474.87939 227.038832 
L 470.638169 227.038832 
z
" style="fill:#008fd5;"/>
   </g>
   <g id="patch_92">
    <path clip-path="url(#p513fef36e9)" d="M 479.12061 298.8 
L 483.361831 298.8 
L 483.361831 227.038867 
L 479.12061 227.038867 
z
" style="fill:#008fd5;"/>
   </g>
   <g id="patch_93">
    <path clip-path="url(#p513fef36e9)" d="M 487.603051 298.8 
L 491.844272 298.8 
L 491.844272 250.959292 
L 487.603051 250.959292 
z
" style="fill:#008fd5;"/>
   </g>
   <g id="patch_94">
    <path clip-path="url(#p513fef36e9)" d="M 496.085492 298.8 
L 500.326713 298.8 
L 500.326713 278.296792 
L 496.085492 278.296792 
z
" style="fill:#008fd5;"/>
   </g>
   <g id="patch_95">
    <path clip-path="url(#p513fef36e9)" d="M 504.567934 298.8 
L 508.809154 298.8 
L 508.809154 293.674194 
L 504.567934 293.674194 
z
" style="fill:#008fd5;"/>
   </g>
   <g id="patch_96">
    <path clip-path="url(#p513fef36e9)" d="M 513.050375 298.8 
L 517.291595 298.8 
L 517.291595 298.230469 
L 513.050375 298.230469 
z
" style="fill:#008fd5;"/>
   </g>
   <g id="patch_97">
    <path d="M 464.276338 182.16 
Q 472.773624 153 481.270909 123.84 
" style="fill:none;stroke:#008fd5;stroke-linecap:round;stroke-width:1.707401;"/>
   </g>
   <g id="patch_98">
    <path d="M 464.276338 298.8 
Q 497.230622 327.96 530.184906 357.12 
" style="fill:none;stroke:#008fd5;stroke-linecap:round;stroke-width:1.707401;"/>
   </g>
   <g id="patch_99">
    <path d="M 432.679245 298.8 
L 432.679245 182.16 
" style="fill:none;stroke:#b2b2b2;stroke-linecap:square;stroke-linejoin:miter;stroke-width:2;"/>
   </g>
   <g id="patch_100">
    <path d="M 521.320755 298.8 
L 521.320755 182.16 
" style="fill:none;stroke:#b2b2b2;stroke-linecap:square;stroke-linejoin:miter;stroke-width:2;"/>
   </g>
   <g id="patch_101">
    <path d="M 432.679245 298.8 
L 521.320755 298.8 
" style="fill:none;stroke:#b2b2b2;stroke-linecap:square;stroke-linejoin:miter;stroke-width:2;"/>
   </g>
   <g id="patch_102">
    <path d="M 432.679245 182.16 
L 521.320755 182.16 
" style="fill:none;stroke:#b2b2b2;stroke-linecap:square;stroke-linejoin:miter;stroke-width:2;"/>
   </g>
   <g id="text_11">
    <!-- 0.5 -->
    <g transform="translate(464.276338 196.74)scale(0.14 -0.14)">
     <use xlink:href="#DejaVuSans-48"/>
     <use x="63.623047" xlink:href="#DejaVuSans-46"/>
     <use x="95.410156" xlink:href="#DejaVuSans-53"/>
    </g>
   </g>
  </g>
  <g id="axes_7">
   <g id="patch_103">
    <path d="M 539.049057 298.8 
L 627.690566 298.8 
L 627.690566 182.16 
L 539.049057 182.16 
z
" style="fill:#f0f0f0;"/>
   </g>
   <g id="matplotlib.axis_13"/>
   <g id="matplotlib.axis_14"/>
   <g id="patch_104">
    <path clip-path="url(#p796ac7c68c)" d="M 543.078216 298.8 
L 547.319437 298.8 
L 547.319437 298.723559 
L 543.078216 298.723559 
z
" style="fill:#008fd5;"/>
   </g>
   <g id="patch_105">
    <path clip-path="url(#p796ac7c68c)" d="M 551.560657 298.8 
L 555.801878 298.8 
L 555.801878 297.768039 
L 551.560657 297.768039 
z
" style="fill:#008fd5;"/>
   </g>
   <g id="patch_106">
    <path clip-path="url(#p796ac7c68c)" d="M 560.043098 298.8 
L 564.284319 298.8 
L 564.284319 292.608241 
L 560.043098 292.608241 
z
" style="fill:#008fd5;"/>
   </g>
   <g id="patch_107">
    <path clip-path="url(#p796ac7c68c)" d="M 568.525539 298.8 
L 572.76676 298.8 
L 572.76676 277.128874 
L 568.525539 277.128874 
z
" style="fill:#008fd5;"/>
   </g>
   <g id="patch_108">
    <path clip-path="url(#p796ac7c68c)" d="M 577.007981 298.8 
L 581.249201 298.8 
L 581.249201 250.039918 
L 577.007981 250.039918 
z
" style="fill:#008fd5;"/>
   </g>
   <g id="patch_109">
    <path clip-path="url(#p796ac7c68c)" d="M 585.490422 298.8 
L 589.731642 298.8 
L 589.731642 225.659912 
L 585.490422 225.659912 
z
" style="fill:#008fd5;"/>
   </g>
   <g id="patch_110">
    <path clip-path="url(#p796ac7c68c)" d="M 593.972863 298.8 
L 598.214083 298.8 
L 598.214083 225.659964 
L 593.972863 225.659964 
z
" style="fill:#008fd5;"/>
   </g>
   <g id="patch_111">
    <path clip-path="url(#p796ac7c68c)" d="M 602.455304 298.8 
L 606.696524 298.8 
L 606.696524 251.781292 
L 602.455304 251.781292 
z
" style="fill:#008fd5;"/>
   </g>
   <g id="patch_112">
    <path clip-path="url(#p796ac7c68c)" d="M 610.937745 298.8 
L 615.178965 298.8 
L 615.178965 281.167971 
L 610.937745 281.167971 
z
" style="fill:#008fd5;"/>
   </g>
   <g id="patch_113">
    <path clip-path="url(#p796ac7c68c)" d="M 619.420186 298.8 
L 623.661407 298.8 
L 623.661407 295.861344 
L 619.420186 295.861344 
z
" style="fill:#008fd5;"/>
   </g>
   <g id="patch_114">
    <path d="M 563.860197 182.16 
Q 565.701735 153 567.543273 123.84 
" style="fill:none;stroke:#008fd5;stroke-linecap:round;stroke-width:2.570565;"/>
   </g>
   <g id="patch_115">
    <path d="M 563.860197 298.8 
Q 547.022551 327.96 530.184906 357.12 
" style="fill:none;stroke:#008fd5;stroke-linecap:round;stroke-width:2.570565;"/>
   </g>
   <g id="patch_116">
    <path d="M 539.049057 298.8 
L 539.049057 182.16 
" style="fill:none;stroke:#b2b2b2;stroke-linecap:square;stroke-linejoin:miter;stroke-width:2;"/>
   </g>
   <g id="patch_117">
    <path d="M 627.690566 298.8 
L 627.690566 182.16 
" style="fill:none;stroke:#b2b2b2;stroke-linecap:square;stroke-linejoin:miter;stroke-width:2;"/>
   </g>
   <g id="patch_118">
    <path d="M 539.049057 298.8 
L 627.690566 298.8 
" style="fill:none;stroke:#b2b2b2;stroke-linecap:square;stroke-linejoin:miter;stroke-width:2;"/>
   </g>
   <g id="patch_119">
    <path d="M 539.049057 182.16 
L 627.690566 182.16 
" style="fill:none;stroke:#b2b2b2;stroke-linecap:square;stroke-linejoin:miter;stroke-width:2;"/>
   </g>
   <g id="text_12">
    <!-- 0.6 -->
    <g transform="translate(563.860197 196.74)scale(0.14 -0.14)">
     <defs>
      <path d="M 33.015625 40.375 
Q 26.375 40.375 22.484375 35.828125 
Q 18.609375 31.296875 18.609375 23.390625 
Q 18.609375 15.53125 22.484375 10.953125 
Q 26.375 6.390625 33.015625 6.390625 
Q 39.65625 6.390625 43.53125 10.953125 
Q 47.40625 15.53125 47.40625 23.390625 
Q 47.40625 31.296875 43.53125 35.828125 
Q 39.65625 40.375 33.015625 40.375 
z
M 52.59375 71.296875 
L 52.59375 62.3125 
Q 48.875 64.0625 45.09375 64.984375 
Q 41.3125 65.921875 37.59375 65.921875 
Q 27.828125 65.921875 22.671875 59.328125 
Q 17.53125 52.734375 16.796875 39.40625 
Q 19.671875 43.65625 24.015625 45.921875 
Q 28.375 48.1875 33.59375 48.1875 
Q 44.578125 48.1875 50.953125 41.515625 
Q 57.328125 34.859375 57.328125 23.390625 
Q 57.328125 12.15625 50.6875 5.359375 
Q 44.046875 -1.421875 33.015625 -1.421875 
Q 20.359375 -1.421875 13.671875 8.265625 
Q 6.984375 17.96875 6.984375 36.375 
Q 6.984375 53.65625 15.1875 63.9375 
Q 23.390625 74.21875 37.203125 74.21875 
Q 40.921875 74.21875 44.703125 73.484375 
Q 48.484375 72.75 52.59375 71.296875 
z
" id="DejaVuSans-54"/>
     </defs>
     <use xlink:href="#DejaVuSans-48"/>
     <use x="63.623047" xlink:href="#DejaVuSans-46"/>
     <use x="95.410156" xlink:href="#DejaVuSans-54"/>
    </g>
   </g>
  </g>
  <g id="axes_8">
   <g id="patch_120">
    <path d="M 645.418868 298.8 
L 734.060377 298.8 
L 734.060377 182.16 
L 645.418868 182.16 
z
" style="fill:#f0f0f0;"/>
   </g>
   <g id="matplotlib.axis_15"/>
   <g id="matplotlib.axis_16"/>
   <g id="patch_121">
    <path clip-path="url(#pdc8b30e552)" d="M 649.448027 298.8 
L 653.689248 298.8 
L 653.689248 298.79426 
L 649.448027 298.79426 
z
" style="fill:#008fd5;"/>
   </g>
   <g id="patch_122">
    <path clip-path="url(#pdc8b30e552)" d="M 657.930469 298.8 
L 662.171689 298.8 
L 662.171689 298.679469 
L 657.930469 298.679469 
z
" style="fill:#008fd5;"/>
   </g>
   <g id="patch_123">
    <path clip-path="url(#pdc8b30e552)" d="M 666.41291 298.8 
L 670.65413 298.8 
L 670.65413 297.675041 
L 666.41291 297.675041 
z
" style="fill:#008fd5;"/>
   </g>
   <g id="patch_124">
    <path clip-path="url(#pdc8b30e552)" d="M 674.895351 298.8 
L 679.136571 298.8 
L 679.136571 292.675236 
L 674.895351 292.675236 
z
" style="fill:#008fd5;"/>
   </g>
   <g id="patch_125">
    <path clip-path="url(#pdc8b30e552)" d="M 683.377792 298.8 
L 687.619012 298.8 
L 687.619012 277.363305 
L 683.377792 277.363305 
z
" style="fill:#008fd5;"/>
   </g>
   <g id="patch_126">
    <path clip-path="url(#pdc8b30e552)" d="M 691.860233 298.8 
L 696.101453 298.8 
L 696.101453 248.781067 
L 691.860233 248.781067 
z
" style="fill:#008fd5;"/>
   </g>
   <g id="patch_127">
    <path clip-path="url(#pdc8b30e552)" d="M 700.342674 298.8 
L 704.583895 298.8 
L 704.583895 220.992859 
L 700.342674 220.992859 
z
" style="fill:#008fd5;"/>
   </g>
   <g id="patch_128">
    <path clip-path="url(#pdc8b30e552)" d="M 708.825115 298.8 
L 713.066336 298.8 
L 713.066336 220.992677 
L 708.825115 220.992677 
z
" style="fill:#008fd5;"/>
   </g>
   <g id="patch_129">
    <path clip-path="url(#pdc8b30e552)" d="M 717.307556 298.8 
L 721.548777 298.8 
L 721.548777 253.412359 
L 717.307556 253.412359 
z
" style="fill:#008fd5;"/>
   </g>
   <g id="patch_130">
    <path clip-path="url(#pdc8b30e552)" d="M 725.789997 298.8 
L 730.031218 298.8 
L 730.031218 287.032896 
L 725.789997 287.032896 
z
" style="fill:#008fd5;"/>
   </g>
   <g id="patch_131">
    <path d="M 663.444055 182.16 
Q 658.629846 153 653.815636 123.84 
" style="fill:none;stroke:#008fd5;stroke-linecap:round;stroke-width:2.665076;"/>
   </g>
   <g id="patch_132">
    <path d="M 663.444055 298.8 
Q 596.81448 327.96 530.184906 357.12 
" style="fill:none;stroke:#008fd5;stroke-linecap:round;stroke-width:2.665076;"/>
   </g>
   <g id="patch_133">
    <path d="M 645.418868 298.8 
L 645.418868 182.16 
" style="fill:none;stroke:#b2b2b2;stroke-linecap:square;stroke-linejoin:miter;stroke-width:2;"/>
   </g>
   <g id="patch_134">
    <path d="M 734.060377 298.8 
L 734.060377 182.16 
" style="fill:none;stroke:#b2b2b2;stroke-linecap:square;stroke-linejoin:miter;stroke-width:2;"/>
   </g>
   <g id="patch_135">
    <path d="M 645.418868 298.8 
L 734.060377 298.8 
" style="fill:none;stroke:#b2b2b2;stroke-linecap:square;stroke-linejoin:miter;stroke-width:2;"/>
   </g>
   <g id="patch_136">
    <path d="M 645.418868 182.16 
L 734.060377 182.16 
" style="fill:none;stroke:#b2b2b2;stroke-linecap:square;stroke-linejoin:miter;stroke-width:2;"/>
   </g>
   <g id="text_13">
    <!-- 0.7 -->
    <g transform="translate(663.444055 196.74)scale(0.14 -0.14)">
     <defs>
      <path d="M 8.203125 72.90625 
L 55.078125 72.90625 
L 55.078125 68.703125 
L 28.609375 0 
L 18.3125 0 
L 43.21875 64.59375 
L 8.203125 64.59375 
z
" id="DejaVuSans-55"/>
     </defs>
     <use xlink:href="#DejaVuSans-48"/>
     <use x="63.623047" xlink:href="#DejaVuSans-46"/>
     <use x="95.410156" xlink:href="#DejaVuSans-55"/>
    </g>
   </g>
  </g>
  <g id="axes_9">
   <g id="patch_137">
    <path d="M 751.788679 298.8 
L 840.430189 298.8 
L 840.430189 182.16 
L 751.788679 182.16 
z
" style="fill:#f0f0f0;"/>
   </g>
   <g id="matplotlib.axis_17"/>
   <g id="matplotlib.axis_18"/>
   <g id="patch_138">
    <path clip-path="url(#p1b48fa189e)" d="M 755.817839 298.8 
L 760.059059 298.8 
L 760.059059 298.799851 
L 755.817839 298.799851 
z
" style="fill:#008fd5;"/>
   </g>
   <g id="patch_139">
    <path clip-path="url(#p1b48fa189e)" d="M 764.30028 298.8 
L 768.5415 298.8 
L 768.5415 298.794625 
L 764.30028 298.794625 
z
" style="fill:#008fd5;"/>
   </g>
   <g id="patch_140">
    <path clip-path="url(#p1b48fa189e)" d="M 772.782721 298.8 
L 777.023942 298.8 
L 777.023942 298.714003 
L 772.782721 298.714003 
z
" style="fill:#008fd5;"/>
   </g>
   <g id="patch_141">
    <path clip-path="url(#p1b48fa189e)" d="M 781.265162 298.8 
L 785.506383 298.8 
L 785.506383 297.997366 
L 781.265162 297.997366 
z
" style="fill:#008fd5;"/>
   </g>
   <g id="patch_142">
    <path clip-path="url(#p1b48fa189e)" d="M 789.747603 298.8 
L 793.988824 298.8 
L 793.988824 293.984189 
L 789.747603 293.984189 
z
" style="fill:#008fd5;"/>
   </g>
   <g id="patch_143">
    <path clip-path="url(#p1b48fa189e)" d="M 798.230044 298.8 
L 802.471265 298.8 
L 802.471265 279.536767 
L 798.230044 279.536767 
z
" style="fill:#008fd5;"/>
   </g>
   <g id="patch_144">
    <path clip-path="url(#p1b48fa189e)" d="M 806.712485 298.8 
L 810.953706 298.8 
L 810.953706 247.431429 
L 806.712485 247.431429 
z
" style="fill:#008fd5;"/>
   </g>
   <g id="patch_145">
    <path clip-path="url(#p1b48fa189e)" d="M 815.194926 298.8 
L 819.436147 298.8 
L 819.436147 210.739385 
L 815.194926 210.739385 
z
" style="fill:#008fd5;"/>
   </g>
   <g id="patch_146">
    <path clip-path="url(#p1b48fa189e)" d="M 823.677368 298.8 
L 827.918588 298.8 
L 827.918588 210.739316 
L 823.677368 210.739316 
z
" style="fill:#008fd5;"/>
   </g>
   <g id="patch_147">
    <path clip-path="url(#p1b48fa189e)" d="M 832.159809 298.8 
L 836.401029 298.8 
L 836.401029 259.66212 
L 832.159809 259.66212 
z
" style="fill:#008fd5;"/>
   </g>
   <g id="patch_148">
    <path d="M 763.027914 182.16 
Q 751.557957 153 740.088 123.84 
" style="fill:none;stroke:#008fd5;stroke-linecap:round;stroke-width:1.670044;"/>
   </g>
   <g id="patch_149">
    <path d="M 763.027914 298.8 
Q 646.60641 327.96 530.184906 357.12 
" style="fill:none;stroke:#008fd5;stroke-linecap:round;stroke-width:1.670044;"/>
   </g>
   <g id="patch_150">
    <path d="M 751.788679 298.8 
L 751.788679 182.16 
" style="fill:none;stroke:#b2b2b2;stroke-linecap:square;stroke-linejoin:miter;stroke-width:2;"/>
   </g>
   <g id="patch_151">
    <path d="M 840.430189 298.8 
L 840.430189 182.16 
" style="fill:none;stroke:#b2b2b2;stroke-linecap:square;stroke-linejoin:miter;stroke-width:2;"/>
   </g>
   <g id="patch_152">
    <path d="M 751.788679 298.8 
L 840.430189 298.8 
" style="fill:none;stroke:#b2b2b2;stroke-linecap:square;stroke-linejoin:miter;stroke-width:2;"/>
   </g>
   <g id="patch_153">
    <path d="M 751.788679 182.16 
L 840.430189 182.16 
" style="fill:none;stroke:#b2b2b2;stroke-linecap:square;stroke-linejoin:miter;stroke-width:2;"/>
   </g>
   <g id="text_14">
    <!-- 0.8 -->
    <g transform="translate(763.027914 196.74)scale(0.14 -0.14)">
     <defs>
      <path d="M 31.78125 34.625 
Q 24.75 34.625 20.71875 30.859375 
Q 16.703125 27.09375 16.703125 20.515625 
Q 16.703125 13.921875 20.71875 10.15625 
Q 24.75 6.390625 31.78125 6.390625 
Q 38.8125 6.390625 42.859375 10.171875 
Q 46.921875 13.96875 46.921875 20.515625 
Q 46.921875 27.09375 42.890625 30.859375 
Q 38.875 34.625 31.78125 34.625 
z
M 21.921875 38.8125 
Q 15.578125 40.375 12.03125 44.71875 
Q 8.5 49.078125 8.5 55.328125 
Q 8.5 64.0625 14.71875 69.140625 
Q 20.953125 74.21875 31.78125 74.21875 
Q 42.671875 74.21875 48.875 69.140625 
Q 55.078125 64.0625 55.078125 55.328125 
Q 55.078125 49.078125 51.53125 44.71875 
Q 48 40.375 41.703125 38.8125 
Q 48.828125 37.15625 52.796875 32.3125 
Q 56.78125 27.484375 56.78125 20.515625 
Q 56.78125 9.90625 50.3125 4.234375 
Q 43.84375 -1.421875 31.78125 -1.421875 
Q 19.734375 -1.421875 13.25 4.234375 
Q 6.78125 9.90625 6.78125 20.515625 
Q 6.78125 27.484375 10.78125 32.3125 
Q 14.796875 37.15625 21.921875 38.8125 
z
M 18.3125 54.390625 
Q 18.3125 48.734375 21.84375 45.5625 
Q 25.390625 42.390625 31.78125 42.390625 
Q 38.140625 42.390625 41.71875 45.5625 
Q 45.3125 48.734375 45.3125 54.390625 
Q 45.3125 60.0625 41.71875 63.234375 
Q 38.140625 66.40625 31.78125 66.40625 
Q 25.390625 66.40625 21.84375 63.234375 
Q 18.3125 60.0625 18.3125 54.390625 
z
" id="DejaVuSans-56"/>
     </defs>
     <use xlink:href="#DejaVuSans-48"/>
     <use x="63.623047" xlink:href="#DejaVuSans-46"/>
     <use x="95.410156" xlink:href="#DejaVuSans-56"/>
    </g>
   </g>
  </g>
  <g id="axes_10">
   <g id="patch_154">
    <path d="M 858.158491 298.8 
L 946.8 298.8 
L 946.8 182.16 
L 858.158491 182.16 
z
" style="fill:#f0f0f0;"/>
   </g>
   <g id="matplotlib.axis_19"/>
   <g id="matplotlib.axis_20"/>
   <g id="patch_155">
    <path clip-path="url(#p31ab7ee179)" d="M 862.18765 298.8 
L 866.428871 298.8 
L 866.428871 298.8 
L 862.18765 298.8 
z
" style="fill:#008fd5;"/>
   </g>
   <g id="patch_156">
    <path clip-path="url(#p31ab7ee179)" d="M 870.670091 298.8 
L 874.911312 298.8 
L 874.911312 298.799976 
L 870.670091 298.799976 
z
" style="fill:#008fd5;"/>
   </g>
   <g id="patch_157">
    <path clip-path="url(#p31ab7ee179)" d="M 879.152532 298.8 
L 883.393753 298.8 
L 883.393753 298.79915 
L 879.152532 298.79915 
z
" style="fill:#008fd5;"/>
   </g>
   <g id="patch_158">
    <path clip-path="url(#p31ab7ee179)" d="M 887.634973 298.8 
L 891.876194 298.8 
L 891.876194 298.782144 
L 887.634973 298.782144 
z
" style="fill:#008fd5;"/>
   </g>
   <g id="patch_159">
    <path clip-path="url(#p31ab7ee179)" d="M 896.117414 298.8 
L 900.358635 298.8 
L 900.358635 298.558937 
L 896.117414 298.558937 
z
" style="fill:#008fd5;"/>
   </g>
   <g id="patch_160">
    <path clip-path="url(#p31ab7ee179)" d="M 904.599856 298.8 
L 908.841076 298.8 
L 908.841076 296.630438 
L 904.599856 296.630438 
z
" style="fill:#008fd5;"/>
   </g>
   <g id="patch_161">
    <path clip-path="url(#p31ab7ee179)" d="M 913.082297 298.8 
L 917.323517 298.8 
L 917.323517 285.782647 
L 913.082297 285.782647 
z
" style="fill:#008fd5;"/>
   </g>
   <g id="patch_162">
    <path clip-path="url(#p31ab7ee179)" d="M 921.564738 298.8 
L 925.805958 298.8 
L 925.805958 248.590088 
L 921.564738 248.590088 
z
" style="fill:#008fd5;"/>
   </g>
   <g id="patch_163">
    <path clip-path="url(#p31ab7ee179)" d="M 930.047179 298.8 
L 934.288399 298.8 
L 934.288399 185.827642 
L 930.047179 185.827642 
z
" style="fill:#008fd5;"/>
   </g>
   <g id="patch_164">
    <path clip-path="url(#p31ab7ee179)" d="M 938.52962 298.8 
L 942.77084 298.8 
L 942.77084 185.828276 
L 938.52962 185.828276 
z
" style="fill:#008fd5;"/>
   </g>
   <g id="patch_165">
    <path d="M 862.611772 182.16 
Q 844.486068 153 826.360364 123.84 
" style="fill:none;stroke:#008fd5;stroke-linecap:round;stroke-width:0.5;"/>
   </g>
   <g id="patch_166">
    <path d="M 862.611772 298.8 
Q 696.398339 327.96 530.184906 357.12 
" style="fill:none;stroke:#008fd5;stroke-linecap:round;stroke-width:0.5;"/>
   </g>
   <g id="patch_167">
    <path d="M 858.158491 298.8 
L 858.158491 182.16 
" style="fill:none;stroke:#b2b2b2;stroke-linecap:square;stroke-linejoin:miter;stroke-width:2;"/>
   </g>
   <g id="patch_168">
    <path d="M 946.8 298.8 
L 946.8 182.16 
" style="fill:none;stroke:#b2b2b2;stroke-linecap:square;stroke-linejoin:miter;stroke-width:2;"/>
   </g>
   <g id="patch_169">
    <path d="M 858.158491 298.8 
L 946.8 298.8 
" style="fill:none;stroke:#b2b2b2;stroke-linecap:square;stroke-linejoin:miter;stroke-width:2;"/>
   </g>
   <g id="patch_170">
    <path d="M 858.158491 182.16 
L 946.8 182.16 
" style="fill:none;stroke:#b2b2b2;stroke-linecap:square;stroke-linejoin:miter;stroke-width:2;"/>
   </g>
   <g id="text_15">
    <!-- 0.9 -->
    <g transform="translate(862.611772 196.74)scale(0.14 -0.14)">
     <defs>
      <path d="M 10.984375 1.515625 
L 10.984375 10.5 
Q 14.703125 8.734375 18.5 7.8125 
Q 22.3125 6.890625 25.984375 6.890625 
Q 35.75 6.890625 40.890625 13.453125 
Q 46.046875 20.015625 46.78125 33.40625 
Q 43.953125 29.203125 39.59375 26.953125 
Q 35.25 24.703125 29.984375 24.703125 
Q 19.046875 24.703125 12.671875 31.3125 
Q 6.296875 37.9375 6.296875 49.421875 
Q 6.296875 60.640625 12.9375 67.421875 
Q 19.578125 74.21875 30.609375 74.21875 
Q 43.265625 74.21875 49.921875 64.515625 
Q 56.59375 54.828125 56.59375 36.375 
Q 56.59375 19.140625 48.40625 8.859375 
Q 40.234375 -1.421875 26.421875 -1.421875 
Q 22.703125 -1.421875 18.890625 -0.6875 
Q 15.09375 0.046875 10.984375 1.515625 
z
M 30.609375 32.421875 
Q 37.25 32.421875 41.125 36.953125 
Q 45.015625 41.5 45.015625 49.421875 
Q 45.015625 57.28125 41.125 61.84375 
Q 37.25 66.40625 30.609375 66.40625 
Q 23.96875 66.40625 20.09375 61.84375 
Q 16.21875 57.28125 16.21875 49.421875 
Q 16.21875 41.5 20.09375 36.953125 
Q 23.96875 32.421875 30.609375 32.421875 
z
" id="DejaVuSans-57"/>
     </defs>
     <use xlink:href="#DejaVuSans-48"/>
     <use x="63.623047" xlink:href="#DejaVuSans-46"/>
     <use x="95.410156" xlink:href="#DejaVuSans-57"/>
    </g>
   </g>
  </g>
  <g id="axes_11">
   <g id="patch_171">
    <path d="M 326.309434 473.76 
L 734.060377 473.76 
L 734.060377 357.12 
L 326.309434 357.12 
z
" style="fill:#f0f0f0;"/>
   </g>
   <g id="matplotlib.axis_21">
    <g id="xtick_4">
     <g id="line2d_7"/>
     <g id="text_16">
      <!-- 0 -->
      <g transform="translate(350.144625 487.897813)scale(0.14 -0.14)">
       <use xlink:href="#DejaVuSans-48"/>
      </g>
     </g>
    </g>
    <g id="xtick_5">
     <g id="line2d_8"/>
     <g id="text_17">
      <!-- 3 -->
      <g transform="translate(467.202312 487.897813)scale(0.14 -0.14)">
       <use xlink:href="#DejaVuSans-51"/>
      </g>
     </g>
    </g>
    <g id="xtick_6">
     <g id="line2d_9"/>
     <g id="text_18">
      <!-- 6 -->
      <g transform="translate(584.259999 487.897813)scale(0.14 -0.14)">
       <use xlink:href="#DejaVuSans-54"/>
      </g>
     </g>
    </g>
    <g id="xtick_7">
     <g id="line2d_10"/>
     <g id="text_19">
      <!-- 9 -->
      <g transform="translate(701.317686 487.897813)scale(0.14 -0.14)">
       <use xlink:href="#DejaVuSans-57"/>
      </g>
     </g>
    </g>
   </g>
   <g id="matplotlib.axis_22">
    <g id="text_20">
     <!-- Phân phối dự đoán -->
     <g transform="translate(147.711684 393.1338)scale(0.168 -0.168)">
      <defs>
       <path d="M 45.40625 46.390625 
L 45.40625 75.984375 
L 54.390625 75.984375 
L 54.390625 0 
L 45.40625 0 
L 45.40625 8.203125 
Q 42.578125 3.328125 38.25 0.953125 
Q 33.9375 -1.421875 27.875 -1.421875 
Q 17.96875 -1.421875 11.734375 6.484375 
Q 5.515625 14.40625 5.515625 27.296875 
Q 5.515625 40.1875 11.734375 48.09375 
Q 17.96875 56 27.875 56 
Q 33.9375 56 38.25 53.625 
Q 42.578125 51.265625 45.40625 46.390625 
z
M 14.796875 27.296875 
Q 14.796875 17.390625 18.875 11.75 
Q 22.953125 6.109375 30.078125 6.109375 
Q 37.203125 6.109375 41.296875 11.75 
Q 45.40625 17.390625 45.40625 27.296875 
Q 45.40625 37.203125 41.296875 42.84375 
Q 37.203125 48.484375 30.078125 48.484375 
Q 22.953125 48.484375 18.875 42.84375 
Q 14.796875 37.203125 14.796875 27.296875 
z
" id="DejaVuSans-100"/>
       <path d="M 48.34375 48.53125 
L 48.34375 54.34375 
Q 51.3125 52.140625 53.453125 51.09375 
Q 55.609375 50.046875 57.125 50.046875 
Q 59.375 50.046875 60.5 51.390625 
Q 61.625 52.734375 61.625 55.359375 
Q 61.625 56.921875 61.25 58.4375 
Q 60.890625 59.953125 60.15625 61.46875 
L 66.65625 61.46875 
Q 67.140625 59.609375 67.375 57.953125 
Q 67.625 56.296875 67.625 54.828125 
Q 67.625 48.875 65.5 46.0625 
Q 63.375 43.25 58.84375 43.25 
Q 56.5 43.25 53.9375 44.546875 
Q 51.375 45.84375 48.34375 48.53125 
z
M 8.59375 21.578125 
L 8.59375 54.6875 
L 17.578125 54.6875 
L 17.578125 21.921875 
Q 17.578125 14.15625 20.609375 10.265625 
Q 23.640625 6.390625 29.6875 6.390625 
Q 36.96875 6.390625 41.1875 11.03125 
Q 45.40625 15.671875 45.40625 23.6875 
L 45.40625 54.6875 
L 54.390625 54.6875 
L 54.390625 0 
L 45.40625 0 
L 45.40625 8.40625 
Q 42.140625 3.421875 37.8125 1 
Q 33.5 -1.421875 27.78125 -1.421875 
Q 18.359375 -1.421875 13.46875 4.4375 
Q 8.59375 10.296875 8.59375 21.578125 
z
M 31.203125 56 
z
M 26.421875 -6.890625 
L 35.40625 -6.890625 
L 35.40625 -18.3125 
L 26.421875 -18.3125 
z
" id="DejaVuSans-7921"/>
       <path d="M 45.40625 46.390625 
L 45.40625 62.703125 
L 29.5 62.703125 
L 29.5 68.796875 
L 45.40625 68.796875 
L 45.40625 75.984375 
L 54.390625 75.984375 
L 54.390625 68.796875 
L 61.921875 68.796875 
L 61.921875 62.703125 
L 54.390625 62.703125 
L 54.390625 0 
L 45.40625 0 
L 45.40625 8.203125 
Q 42.578125 3.328125 38.25 0.953125 
Q 33.9375 -1.421875 27.875 -1.421875 
Q 17.96875 -1.421875 11.734375 6.484375 
Q 5.515625 14.40625 5.515625 27.296875 
Q 5.515625 40.1875 11.734375 48.09375 
Q 17.96875 56 27.875 56 
Q 33.9375 56 38.25 53.625 
Q 42.578125 51.265625 45.40625 46.390625 
z
M 14.796875 27.296875 
Q 14.796875 17.390625 18.875 11.75 
Q 22.953125 6.109375 30.078125 6.109375 
Q 37.203125 6.109375 41.296875 11.75 
Q 45.40625 17.390625 45.40625 27.296875 
Q 45.40625 37.203125 41.296875 42.84375 
Q 37.203125 48.484375 30.078125 48.484375 
Q 22.953125 48.484375 18.875 42.84375 
Q 14.796875 37.203125 14.796875 27.296875 
z
" id="DejaVuSans-273"/>
      </defs>
      <use xlink:href="#DejaVuSans-80"/>
      <use x="60.302734" xlink:href="#DejaVuSans-104"/>
      <use x="123.681641" xlink:href="#DejaVuSans-226"/>
      <use x="184.960938" xlink:href="#DejaVuSans-110"/>
      <use x="248.339844" xlink:href="#DejaVuSans-32"/>
      <use x="280.126953" xlink:href="#DejaVuSans-112"/>
      <use x="343.603516" xlink:href="#DejaVuSans-104"/>
      <use x="406.982422" xlink:href="#DejaVuSans-7889"/>
      <use x="468.164062" xlink:href="#DejaVuSans-105"/>
      <use x="495.947266" xlink:href="#DejaVuSans-32"/>
      <use x="527.734375" xlink:href="#DejaVuSans-100"/>
      <use x="591.210938" xlink:href="#DejaVuSans-7921"/>
      <use x="654.589844" xlink:href="#DejaVuSans-32"/>
      <use x="686.376953" xlink:href="#DejaVuSans-273"/>
      <use x="749.853516" xlink:href="#DejaVuSans-111"/>
      <use x="811.035156" xlink:href="#DejaVuSans-225"/>
      <use x="872.314453" xlink:href="#DejaVuSans-110"/>
     </g>
     <!-- posterior -->
     <g transform="translate(229.527684 411.946125)scale(0.168 -0.168)">
      <use xlink:href="#DejaVuSans-112"/>
      <use x="63.476562" xlink:href="#DejaVuSans-111"/>
      <use x="124.658203" xlink:href="#DejaVuSans-115"/>
      <use x="176.757812" xlink:href="#DejaVuSans-116"/>
      <use x="215.966797" xlink:href="#DejaVuSans-101"/>
      <use x="277.490234" xlink:href="#DejaVuSans-114"/>
      <use x="318.603516" xlink:href="#DejaVuSans-105"/>
      <use x="346.386719" xlink:href="#DejaVuSans-111"/>
      <use x="407.568359" xlink:href="#DejaVuSans-114"/>
     </g>
    </g>
   </g>
   <g id="patch_172">
    <path clip-path="url(#pbe9f92a16f)" d="M 344.843568 473.76 
L 364.353182 473.76 
L 364.353182 472.592432 
L 344.843568 472.592432 
z
" style="fill:#008fd5;"/>
   </g>
   <g id="patch_173">
    <path clip-path="url(#pbe9f92a16f)" d="M 383.862797 473.76 
L 403.372411 473.76 
L 403.372411 467.699768 
L 383.862797 467.699768 
z
" style="fill:#008fd5;"/>
   </g>
   <g id="patch_174">
    <path clip-path="url(#pbe9f92a16f)" d="M 422.882026 473.76 
L 442.39164 473.76 
L 442.39164 453.800154 
L 422.882026 453.800154 
z
" style="fill:#008fd5;"/>
   </g>
   <g id="patch_175">
    <path clip-path="url(#pbe9f92a16f)" d="M 461.901255 473.76 
L 481.410869 473.76 
L 481.410869 429.448031 
L 461.901255 429.448031 
z
" style="fill:#008fd5;"/>
   </g>
   <g id="patch_176">
    <path clip-path="url(#pbe9f92a16f)" d="M 500.920484 473.76 
L 520.430098 473.76 
L 520.430098 403.094363 
L 500.920484 403.094363 
z
" style="fill:#008fd5;"/>
   </g>
   <g id="patch_177">
    <path clip-path="url(#pbe9f92a16f)" d="M 539.939713 473.76 
L 559.449327 473.76 
L 559.449327 379.353822 
L 539.939713 379.353822 
z
" style="fill:#008fd5;"/>
   </g>
   <g id="patch_178">
    <path clip-path="url(#pbe9f92a16f)" d="M 578.958942 473.76 
L 598.468556 473.76 
L 598.468556 362.674286 
L 578.958942 362.674286 
z
" style="fill:#008fd5;"/>
   </g>
   <g id="patch_179">
    <path clip-path="url(#pbe9f92a16f)" d="M 617.978171 473.76 
L 637.487786 473.76 
L 637.487786 368.956911 
L 617.978171 368.956911 
z
" style="fill:#008fd5;"/>
   </g>
   <g id="patch_180">
    <path clip-path="url(#pbe9f92a16f)" d="M 656.9974 473.76 
L 676.507015 473.76 
L 676.507015 401.482008 
L 656.9974 401.482008 
z
" style="fill:#008fd5;"/>
   </g>
   <g id="patch_181">
    <path clip-path="url(#pbe9f92a16f)" d="M 696.016629 473.76 
L 715.526244 473.76 
L 715.526244 442.513668 
L 696.016629 442.513668 
z
" style="fill:#008fd5;"/>
   </g>
   <g id="patch_182">
    <path d="M 326.309434 473.76 
L 326.309434 357.12 
" style="fill:none;stroke:#b2b2b2;stroke-linecap:square;stroke-linejoin:miter;stroke-width:2;"/>
   </g>
   <g id="patch_183">
    <path d="M 734.060377 473.76 
L 734.060377 357.12 
" style="fill:none;stroke:#b2b2b2;stroke-linecap:square;stroke-linejoin:miter;stroke-width:2;"/>
   </g>
   <g id="patch_184">
    <path d="M 326.309434 473.76 
L 734.060377 473.76 
" style="fill:none;stroke:#b2b2b2;stroke-linecap:square;stroke-linejoin:miter;stroke-width:2;"/>
   </g>
   <g id="patch_185">
    <path d="M 326.309434 357.12 
L 734.060377 357.12 
" style="fill:none;stroke:#b2b2b2;stroke-linecap:square;stroke-linejoin:miter;stroke-width:2;"/>
   </g>
  </g>
 </g>
 <defs>
  <clipPath id="pd9922bbcd8">
   <rect height="116.64" width="939.6" x="7.2" y="7.2"/>
  </clipPath>
  <clipPath id="p0dce16b569">
   <rect height="116.64" width="88.641509" x="7.2" y="182.16"/>
  </clipPath>
  <clipPath id="pdc8833f884">
   <rect height="116.64" width="88.641509" x="113.569811" y="182.16"/>
  </clipPath>
  <clipPath id="p503cf1dc35">
   <rect height="116.64" width="88.641509" x="219.939623" y="182.16"/>
  </clipPath>
  <clipPath id="p080c857444">
   <rect height="116.64" width="88.641509" x="326.309434" y="182.16"/>
  </clipPath>
  <clipPath id="p513fef36e9">
   <rect height="116.64" width="88.641509" x="432.679245" y="182.16"/>
  </clipPath>
  <clipPath id="p796ac7c68c">
   <rect height="116.64" width="88.641509" x="539.049057" y="182.16"/>
  </clipPath>
  <clipPath id="pdc8b30e552">
   <rect height="116.64" width="88.641509" x="645.418868" y="182.16"/>
  </clipPath>
  <clipPath id="p1b48fa189e">
   <rect height="116.64" width="88.641509" x="751.788679" y="182.16"/>
  </clipPath>
  <clipPath id="p31ab7ee179">
   <rect height="116.64" width="88.641509" x="858.158491" y="182.16"/>
  </clipPath>
  <clipPath id="pbe9f92a16f">
   <rect height="116.64" width="407.750943" x="326.309434" y="357.12"/>
  </clipPath>
 </defs>
</svg>
