<?xml version="1.0" encoding="utf-8" standalone="no"?>
<!DOCTYPE svg PUBLIC "-//W3C//DTD SVG 1.1//EN"
  "http://www.w3.org/Graphics/SVG/1.1/DTD/svg11.dtd">
<!-- Created with matplotlib (https://matplotlib.org/) -->
<svg height="307.318225pt" version="1.1" viewBox="0 0 448.871937 307.318225" width="448.871937pt" xmlns="http://www.w3.org/2000/svg" xmlns:xlink="http://www.w3.org/1999/xlink">
 <metadata>
  <rdf:RDF xmlns:cc="http://creativecommons.org/ns#" xmlns:dc="http://purl.org/dc/elements/1.1/" xmlns:rdf="http://www.w3.org/1999/02/22-rdf-syntax-ns#">
   <cc:Work>
    <dc:type rdf:resource="http://purl.org/dc/dcmitype/StillImage"/>
    <dc:date>2021-02-17T18:17:12.755378</dc:date>
    <dc:format>image/svg+xml</dc:format>
    <dc:creator>
     <cc:Agent>
      <dc:title>Matplotlib v3.3.3, https://matplotlib.org/</dc:title>
     </cc:Agent>
    </dc:creator>
   </cc:Work>
  </rdf:RDF>
 </metadata>
 <defs>
  <style type="text/css">*{stroke-linecap:butt;stroke-linejoin:round;}</style>
 </defs>
 <g id="figure_1">
  <g id="patch_1">
   <path d="M 0 307.318225 
L 448.871937 307.318225 
L 448.871937 0 
L 0 0 
z
" style="fill:#f0f0f0;"/>
  </g>
  <g id="axes_1">
   <g id="patch_2">
    <path d="M 65.831938 262.8096 
L 441.671938 262.8096 
L 441.671938 29.5296 
L 65.831938 29.5296 
z
" style="fill:#f0f0f0;"/>
   </g>
   <g id="matplotlib.axis_1">
    <g id="xtick_1">
     <g id="line2d_1">
      <path clip-path="url(#pa7af1bedb8)" d="M 82.915574 262.8096 
L 82.915574 29.5296 
" style="fill:none;stroke:#cbcbcb;"/>
     </g>
     <g id="line2d_2"/>
     <g id="text_1">
      <!-- −2 -->
      <g transform="translate(72.596043 276.947413)scale(0.14 -0.14)">
       <defs>
        <path d="M 10.59375 35.5 
L 73.1875 35.5 
L 73.1875 27.203125 
L 10.59375 27.203125 
z
" id="DejaVuSans-8722"/>
        <path d="M 19.1875 8.296875 
L 53.609375 8.296875 
L 53.609375 0 
L 7.328125 0 
L 7.328125 8.296875 
Q 12.9375 14.109375 22.625 23.890625 
Q 32.328125 33.6875 34.8125 36.53125 
Q 39.546875 41.84375 41.421875 45.53125 
Q 43.3125 49.21875 43.3125 52.78125 
Q 43.3125 58.59375 39.234375 62.25 
Q 35.15625 65.921875 28.609375 65.921875 
Q 23.96875 65.921875 18.8125 64.3125 
Q 13.671875 62.703125 7.8125 59.421875 
L 7.8125 69.390625 
Q 13.765625 71.78125 18.9375 73 
Q 24.125 74.21875 28.421875 74.21875 
Q 39.75 74.21875 46.484375 68.546875 
Q 53.21875 62.890625 53.21875 53.421875 
Q 53.21875 48.921875 51.53125 44.890625 
Q 49.859375 40.875 45.40625 35.40625 
Q 44.1875 33.984375 37.640625 27.21875 
Q 31.109375 20.453125 19.1875 8.296875 
z
" id="DejaVuSans-50"/>
       </defs>
       <use xlink:href="#DejaVuSans-8722"/>
       <use x="83.789062" xlink:href="#DejaVuSans-50"/>
      </g>
     </g>
    </g>
    <g id="xtick_2">
     <g id="line2d_3">
      <path clip-path="url(#pa7af1bedb8)" d="M 168.333756 262.8096 
L 168.333756 29.5296 
" style="fill:none;stroke:#cbcbcb;"/>
     </g>
     <g id="line2d_4"/>
     <g id="text_2">
      <!-- −1 -->
      <g transform="translate(158.014224 276.947413)scale(0.14 -0.14)">
       <defs>
        <path d="M 12.40625 8.296875 
L 28.515625 8.296875 
L 28.515625 63.921875 
L 10.984375 60.40625 
L 10.984375 69.390625 
L 28.421875 72.90625 
L 38.28125 72.90625 
L 38.28125 8.296875 
L 54.390625 8.296875 
L 54.390625 0 
L 12.40625 0 
z
" id="DejaVuSans-49"/>
       </defs>
       <use xlink:href="#DejaVuSans-8722"/>
       <use x="83.789062" xlink:href="#DejaVuSans-49"/>
      </g>
     </g>
    </g>
    <g id="xtick_3">
     <g id="line2d_5">
      <path clip-path="url(#pa7af1bedb8)" d="M 253.751938 262.8096 
L 253.751938 29.5296 
" style="fill:none;stroke:#cbcbcb;"/>
     </g>
     <g id="line2d_6"/>
     <g id="text_3">
      <!-- 0 -->
      <g transform="translate(249.298188 276.947413)scale(0.14 -0.14)">
       <defs>
        <path d="M 31.78125 66.40625 
Q 24.171875 66.40625 20.328125 58.90625 
Q 16.5 51.421875 16.5 36.375 
Q 16.5 21.390625 20.328125 13.890625 
Q 24.171875 6.390625 31.78125 6.390625 
Q 39.453125 6.390625 43.28125 13.890625 
Q 47.125 21.390625 47.125 36.375 
Q 47.125 51.421875 43.28125 58.90625 
Q 39.453125 66.40625 31.78125 66.40625 
z
M 31.78125 74.21875 
Q 44.046875 74.21875 50.515625 64.515625 
Q 56.984375 54.828125 56.984375 36.375 
Q 56.984375 17.96875 50.515625 8.265625 
Q 44.046875 -1.421875 31.78125 -1.421875 
Q 19.53125 -1.421875 13.0625 8.265625 
Q 6.59375 17.96875 6.59375 36.375 
Q 6.59375 54.828125 13.0625 64.515625 
Q 19.53125 74.21875 31.78125 74.21875 
z
" id="DejaVuSans-48"/>
       </defs>
       <use xlink:href="#DejaVuSans-48"/>
      </g>
     </g>
    </g>
    <g id="xtick_4">
     <g id="line2d_7">
      <path clip-path="url(#pa7af1bedb8)" d="M 339.170119 262.8096 
L 339.170119 29.5296 
" style="fill:none;stroke:#cbcbcb;"/>
     </g>
     <g id="line2d_8"/>
     <g id="text_4">
      <!-- 1 -->
      <g transform="translate(334.716369 276.947413)scale(0.14 -0.14)">
       <use xlink:href="#DejaVuSans-49"/>
      </g>
     </g>
    </g>
    <g id="xtick_5">
     <g id="line2d_9">
      <path clip-path="url(#pa7af1bedb8)" d="M 424.588301 262.8096 
L 424.588301 29.5296 
" style="fill:none;stroke:#cbcbcb;"/>
     </g>
     <g id="line2d_10"/>
     <g id="text_5">
      <!-- 2 -->
      <g transform="translate(420.134551 276.947413)scale(0.14 -0.14)">
       <use xlink:href="#DejaVuSans-50"/>
      </g>
     </g>
    </g>
    <g id="text_6">
     <!-- kiểm soát $A$ -->
     <g transform="translate(204.107938 296.62435)scale(0.168 -0.168)">
      <defs>
       <path d="M 9.078125 75.984375 
L 18.109375 75.984375 
L 18.109375 31.109375 
L 44.921875 54.6875 
L 56.390625 54.6875 
L 27.390625 29.109375 
L 57.625 0 
L 45.90625 0 
L 18.109375 26.703125 
L 18.109375 0 
L 9.078125 0 
z
" id="DejaVuSans-107"/>
       <path d="M 9.421875 54.6875 
L 18.40625 54.6875 
L 18.40625 0 
L 9.421875 0 
z
M 9.421875 75.984375 
L 18.40625 75.984375 
L 18.40625 64.59375 
L 9.421875 64.59375 
z
" id="DejaVuSans-105"/>
       <path d="M 56.203125 29.59375 
L 56.203125 25.203125 
L 14.890625 25.203125 
Q 15.484375 15.921875 20.484375 11.0625 
Q 25.484375 6.203125 34.421875 6.203125 
Q 39.59375 6.203125 44.453125 7.46875 
Q 49.3125 8.734375 54.109375 11.28125 
L 54.109375 2.78125 
Q 49.265625 0.734375 44.1875 -0.34375 
Q 39.109375 -1.421875 33.890625 -1.421875 
Q 20.796875 -1.421875 13.15625 6.1875 
Q 5.515625 13.8125 5.515625 26.8125 
Q 5.515625 40.234375 12.765625 48.109375 
Q 20.015625 56 32.328125 56 
Q 43.359375 56 49.78125 48.890625 
Q 56.203125 41.796875 56.203125 29.59375 
z
M 47.21875 32.234375 
Q 47.125 39.59375 43.09375 43.984375 
Q 39.0625 48.390625 32.421875 48.390625 
Q 24.90625 48.390625 20.390625 44.140625 
Q 15.875 39.890625 15.1875 32.171875 
z
M 38.625 83.734375 
Q 44.09375 86.21875 49.21875 86.21875 
Q 54.296875 86.21875 57.390625 84.140625 
Q 60.5 82.078125 60.5 78.796875 
Q 60.5 75.828125 56.203125 72.65625 
L 54.046875 71.09375 
Q 52.34375 69.8125 52.15625 69.375 
Q 51.8125 68.59375 51.8125 67.03125 
L 46 67.03125 
L 46 67.625 
Q 46 69.578125 46.734375 70.890625 
Q 47.46875 72.21875 49.953125 74.015625 
L 52.15625 75.671875 
Q 54.390625 77.34375 54.390625 79.296875 
Q 54.390625 80.3125 52.875 81.1875 
Q 51.375 82.078125 47.90625 82.078125 
Q 43.5 82.078125 38.625 79.53125 
z
M 27.25 74.609375 
L 36.421875 74.609375 
L 46.734375 61.625 
L 39.9375 61.625 
L 31.84375 70.3125 
L 23.734375 61.625 
L 16.9375 61.625 
z
" id="DejaVuSans-7875"/>
       <path d="M 52 44.1875 
Q 55.375 50.25 60.0625 53.125 
Q 64.75 56 71.09375 56 
Q 79.640625 56 84.28125 50.015625 
Q 88.921875 44.046875 88.921875 33.015625 
L 88.921875 0 
L 79.890625 0 
L 79.890625 32.71875 
Q 79.890625 40.578125 77.09375 44.375 
Q 74.3125 48.1875 68.609375 48.1875 
Q 61.625 48.1875 57.5625 43.546875 
Q 53.515625 38.921875 53.515625 30.90625 
L 53.515625 0 
L 44.484375 0 
L 44.484375 32.71875 
Q 44.484375 40.625 41.703125 44.40625 
Q 38.921875 48.1875 33.109375 48.1875 
Q 26.21875 48.1875 22.15625 43.53125 
Q 18.109375 38.875 18.109375 30.90625 
L 18.109375 0 
L 9.078125 0 
L 9.078125 54.6875 
L 18.109375 54.6875 
L 18.109375 46.1875 
Q 21.1875 51.21875 25.484375 53.609375 
Q 29.78125 56 35.6875 56 
Q 41.65625 56 45.828125 52.96875 
Q 50 49.953125 52 44.1875 
z
" id="DejaVuSans-109"/>
       <path id="DejaVuSans-32"/>
       <path d="M 44.28125 53.078125 
L 44.28125 44.578125 
Q 40.484375 46.53125 36.375 47.5 
Q 32.28125 48.484375 27.875 48.484375 
Q 21.1875 48.484375 17.84375 46.4375 
Q 14.5 44.390625 14.5 40.28125 
Q 14.5 37.15625 16.890625 35.375 
Q 19.28125 33.59375 26.515625 31.984375 
L 29.59375 31.296875 
Q 39.15625 29.25 43.1875 25.515625 
Q 47.21875 21.78125 47.21875 15.09375 
Q 47.21875 7.46875 41.1875 3.015625 
Q 35.15625 -1.421875 24.609375 -1.421875 
Q 20.21875 -1.421875 15.453125 -0.5625 
Q 10.6875 0.296875 5.421875 2 
L 5.421875 11.28125 
Q 10.40625 8.6875 15.234375 7.390625 
Q 20.0625 6.109375 24.8125 6.109375 
Q 31.15625 6.109375 34.5625 8.28125 
Q 37.984375 10.453125 37.984375 14.40625 
Q 37.984375 18.0625 35.515625 20.015625 
Q 33.0625 21.96875 24.703125 23.78125 
L 21.578125 24.515625 
Q 13.234375 26.265625 9.515625 29.90625 
Q 5.8125 33.546875 5.8125 39.890625 
Q 5.8125 47.609375 11.28125 51.796875 
Q 16.75 56 26.8125 56 
Q 31.78125 56 36.171875 55.265625 
Q 40.578125 54.546875 44.28125 53.078125 
z
" id="DejaVuSans-115"/>
       <path d="M 30.609375 48.390625 
Q 23.390625 48.390625 19.1875 42.75 
Q 14.984375 37.109375 14.984375 27.296875 
Q 14.984375 17.484375 19.15625 11.84375 
Q 23.34375 6.203125 30.609375 6.203125 
Q 37.796875 6.203125 41.984375 11.859375 
Q 46.1875 17.53125 46.1875 27.296875 
Q 46.1875 37.015625 41.984375 42.703125 
Q 37.796875 48.390625 30.609375 48.390625 
z
M 30.609375 56 
Q 42.328125 56 49.015625 48.375 
Q 55.71875 40.765625 55.71875 27.296875 
Q 55.71875 13.875 49.015625 6.21875 
Q 42.328125 -1.421875 30.609375 -1.421875 
Q 18.84375 -1.421875 12.171875 6.21875 
Q 5.515625 13.875 5.515625 27.296875 
Q 5.515625 40.765625 12.171875 48.375 
Q 18.84375 56 30.609375 56 
z
" id="DejaVuSans-111"/>
       <path d="M 34.28125 27.484375 
Q 23.390625 27.484375 19.1875 25 
Q 14.984375 22.515625 14.984375 16.5 
Q 14.984375 11.71875 18.140625 8.90625 
Q 21.296875 6.109375 26.703125 6.109375 
Q 34.1875 6.109375 38.703125 11.40625 
Q 43.21875 16.703125 43.21875 25.484375 
L 43.21875 27.484375 
z
M 52.203125 31.203125 
L 52.203125 0 
L 43.21875 0 
L 43.21875 8.296875 
Q 40.140625 3.328125 35.546875 0.953125 
Q 30.953125 -1.421875 24.3125 -1.421875 
Q 15.921875 -1.421875 10.953125 3.296875 
Q 6 8.015625 6 15.921875 
Q 6 25.140625 12.171875 29.828125 
Q 18.359375 34.515625 30.609375 34.515625 
L 43.21875 34.515625 
L 43.21875 35.40625 
Q 43.21875 41.609375 39.140625 45 
Q 35.0625 48.390625 27.6875 48.390625 
Q 23 48.390625 18.546875 47.265625 
Q 14.109375 46.140625 10.015625 43.890625 
L 10.015625 52.203125 
Q 14.9375 54.109375 19.578125 55.046875 
Q 24.21875 56 28.609375 56 
Q 40.484375 56 46.34375 49.84375 
Q 52.203125 43.703125 52.203125 31.203125 
z
M 35.796875 79.984375 
L 45.515625 79.984375 
L 29.59375 61.625 
L 22.125 61.625 
z
" id="DejaVuSans-225"/>
       <path d="M 18.3125 70.21875 
L 18.3125 54.6875 
L 36.8125 54.6875 
L 36.8125 47.703125 
L 18.3125 47.703125 
L 18.3125 18.015625 
Q 18.3125 11.328125 20.140625 9.421875 
Q 21.96875 7.515625 27.59375 7.515625 
L 36.8125 7.515625 
L 36.8125 0 
L 27.59375 0 
Q 17.1875 0 13.234375 3.875 
Q 9.28125 7.765625 9.28125 18.015625 
L 9.28125 47.703125 
L 2.6875 47.703125 
L 2.6875 54.6875 
L 9.28125 54.6875 
L 9.28125 70.21875 
z
" id="DejaVuSans-116"/>
       <path d="M 36.8125 72.90625 
L 48 72.90625 
L 61.53125 0 
L 51.21875 0 
L 48.1875 18.703125 
L 15.375 18.703125 
L 5.078125 0 
L -5.328125 0 
z
M 40.375 63.1875 
L 19.921875 26.90625 
L 46.6875 26.90625 
z
" id="DejaVuSans-Oblique-65"/>
      </defs>
      <use transform="translate(0 0.78125)" xlink:href="#DejaVuSans-107"/>
      <use transform="translate(57.910156 0.78125)" xlink:href="#DejaVuSans-105"/>
      <use transform="translate(85.693359 0.78125)" xlink:href="#DejaVuSans-7875"/>
      <use transform="translate(147.216797 0.78125)" xlink:href="#DejaVuSans-109"/>
      <use transform="translate(244.628906 0.78125)" xlink:href="#DejaVuSans-32"/>
      <use transform="translate(276.416016 0.78125)" xlink:href="#DejaVuSans-115"/>
      <use transform="translate(328.515625 0.78125)" xlink:href="#DejaVuSans-111"/>
      <use transform="translate(389.697266 0.78125)" xlink:href="#DejaVuSans-225"/>
      <use transform="translate(450.976562 0.78125)" xlink:href="#DejaVuSans-116"/>
      <use transform="translate(490.185547 0.78125)" xlink:href="#DejaVuSans-32"/>
      <use transform="translate(521.972656 0.78125)" xlink:href="#DejaVuSans-Oblique-65"/>
     </g>
    </g>
   </g>
   <g id="matplotlib.axis_2">
    <g id="ytick_1">
     <g id="line2d_11">
      <path clip-path="url(#pa7af1bedb8)" d="M 65.831938 262.8096 
L 441.671938 262.8096 
" style="fill:none;stroke:#cbcbcb;"/>
     </g>
     <g id="line2d_12"/>
     <g id="text_7">
      <!-- −2.0 -->
      <g transform="translate(28.336 268.128506)scale(0.14 -0.14)">
       <defs>
        <path d="M 10.6875 12.40625 
L 21 12.40625 
L 21 0 
L 10.6875 0 
z
" id="DejaVuSans-46"/>
       </defs>
       <use xlink:href="#DejaVuSans-8722"/>
       <use x="83.789062" xlink:href="#DejaVuSans-50"/>
       <use x="147.412109" xlink:href="#DejaVuSans-46"/>
       <use x="179.199219" xlink:href="#DejaVuSans-48"/>
      </g>
     </g>
    </g>
    <g id="ytick_2">
     <g id="line2d_13">
      <path clip-path="url(#pa7af1bedb8)" d="M 65.831938 233.6496 
L 441.671938 233.6496 
" style="fill:none;stroke:#cbcbcb;"/>
     </g>
     <g id="line2d_14"/>
     <g id="text_8">
      <!-- −1.5 -->
      <g transform="translate(28.336 238.968506)scale(0.14 -0.14)">
       <defs>
        <path d="M 10.796875 72.90625 
L 49.515625 72.90625 
L 49.515625 64.59375 
L 19.828125 64.59375 
L 19.828125 46.734375 
Q 21.96875 47.46875 24.109375 47.828125 
Q 26.265625 48.1875 28.421875 48.1875 
Q 40.625 48.1875 47.75 41.5 
Q 54.890625 34.8125 54.890625 23.390625 
Q 54.890625 11.625 47.5625 5.09375 
Q 40.234375 -1.421875 26.90625 -1.421875 
Q 22.3125 -1.421875 17.546875 -0.640625 
Q 12.796875 0.140625 7.71875 1.703125 
L 7.71875 11.625 
Q 12.109375 9.234375 16.796875 8.0625 
Q 21.484375 6.890625 26.703125 6.890625 
Q 35.15625 6.890625 40.078125 11.328125 
Q 45.015625 15.765625 45.015625 23.390625 
Q 45.015625 31 40.078125 35.4375 
Q 35.15625 39.890625 26.703125 39.890625 
Q 22.75 39.890625 18.8125 39.015625 
Q 14.890625 38.140625 10.796875 36.28125 
z
" id="DejaVuSans-53"/>
       </defs>
       <use xlink:href="#DejaVuSans-8722"/>
       <use x="83.789062" xlink:href="#DejaVuSans-49"/>
       <use x="147.412109" xlink:href="#DejaVuSans-46"/>
       <use x="179.199219" xlink:href="#DejaVuSans-53"/>
      </g>
     </g>
    </g>
    <g id="ytick_3">
     <g id="line2d_15">
      <path clip-path="url(#pa7af1bedb8)" d="M 65.831938 204.4896 
L 441.671938 204.4896 
" style="fill:none;stroke:#cbcbcb;"/>
     </g>
     <g id="line2d_16"/>
     <g id="text_9">
      <!-- −1.0 -->
      <g transform="translate(28.336 209.808506)scale(0.14 -0.14)">
       <use xlink:href="#DejaVuSans-8722"/>
       <use x="83.789062" xlink:href="#DejaVuSans-49"/>
       <use x="147.412109" xlink:href="#DejaVuSans-46"/>
       <use x="179.199219" xlink:href="#DejaVuSans-48"/>
      </g>
     </g>
    </g>
    <g id="ytick_4">
     <g id="line2d_17">
      <path clip-path="url(#pa7af1bedb8)" d="M 65.831938 175.3296 
L 441.671938 175.3296 
" style="fill:none;stroke:#cbcbcb;"/>
     </g>
     <g id="line2d_18"/>
     <g id="text_10">
      <!-- −0.5 -->
      <g transform="translate(28.336 180.648506)scale(0.14 -0.14)">
       <use xlink:href="#DejaVuSans-8722"/>
       <use x="83.789062" xlink:href="#DejaVuSans-48"/>
       <use x="147.412109" xlink:href="#DejaVuSans-46"/>
       <use x="179.199219" xlink:href="#DejaVuSans-53"/>
      </g>
     </g>
    </g>
    <g id="ytick_5">
     <g id="line2d_19">
      <path clip-path="url(#pa7af1bedb8)" d="M 65.831938 146.1696 
L 441.671938 146.1696 
" style="fill:none;stroke:#cbcbcb;"/>
     </g>
     <g id="line2d_20"/>
     <g id="text_11">
      <!-- 0.0 -->
      <g transform="translate(40.067563 151.488506)scale(0.14 -0.14)">
       <use xlink:href="#DejaVuSans-48"/>
       <use x="63.623047" xlink:href="#DejaVuSans-46"/>
       <use x="95.410156" xlink:href="#DejaVuSans-48"/>
      </g>
     </g>
    </g>
    <g id="ytick_6">
     <g id="line2d_21">
      <path clip-path="url(#pa7af1bedb8)" d="M 65.831938 117.0096 
L 441.671938 117.0096 
" style="fill:none;stroke:#cbcbcb;"/>
     </g>
     <g id="line2d_22"/>
     <g id="text_12">
      <!-- 0.5 -->
      <g transform="translate(40.067563 122.328506)scale(0.14 -0.14)">
       <use xlink:href="#DejaVuSans-48"/>
       <use x="63.623047" xlink:href="#DejaVuSans-46"/>
       <use x="95.410156" xlink:href="#DejaVuSans-53"/>
      </g>
     </g>
    </g>
    <g id="ytick_7">
     <g id="line2d_23">
      <path clip-path="url(#pa7af1bedb8)" d="M 65.831938 87.8496 
L 441.671938 87.8496 
" style="fill:none;stroke:#cbcbcb;"/>
     </g>
     <g id="line2d_24"/>
     <g id="text_13">
      <!-- 1.0 -->
      <g transform="translate(40.067563 93.168506)scale(0.14 -0.14)">
       <use xlink:href="#DejaVuSans-49"/>
       <use x="63.623047" xlink:href="#DejaVuSans-46"/>
       <use x="95.410156" xlink:href="#DejaVuSans-48"/>
      </g>
     </g>
    </g>
    <g id="ytick_8">
     <g id="line2d_25">
      <path clip-path="url(#pa7af1bedb8)" d="M 65.831938 58.6896 
L 441.671938 58.6896 
" style="fill:none;stroke:#cbcbcb;"/>
     </g>
     <g id="line2d_26"/>
     <g id="text_14">
      <!-- 1.5 -->
      <g transform="translate(40.067563 64.008506)scale(0.14 -0.14)">
       <use xlink:href="#DejaVuSans-49"/>
       <use x="63.623047" xlink:href="#DejaVuSans-46"/>
       <use x="95.410156" xlink:href="#DejaVuSans-53"/>
      </g>
     </g>
    </g>
    <g id="ytick_9">
     <g id="line2d_27">
      <path clip-path="url(#pa7af1bedb8)" d="M 65.831938 29.5296 
L 441.671938 29.5296 
" style="fill:none;stroke:#cbcbcb;"/>
     </g>
     <g id="line2d_28"/>
     <g id="text_15">
      <!-- 2.0 -->
      <g transform="translate(40.067563 34.848506)scale(0.14 -0.14)">
       <use xlink:href="#DejaVuSans-50"/>
       <use x="63.623047" xlink:href="#DejaVuSans-46"/>
       <use x="95.410156" xlink:href="#DejaVuSans-48"/>
      </g>
     </g>
    </g>
    <g id="text_16">
     <!-- phản thực $D$ -->
     <g transform="translate(20.808 197.7456)rotate(-90)scale(0.168 -0.168)">
      <defs>
       <path d="M 18.109375 8.203125 
L 18.109375 -20.796875 
L 9.078125 -20.796875 
L 9.078125 54.6875 
L 18.109375 54.6875 
L 18.109375 46.390625 
Q 20.953125 51.265625 25.265625 53.625 
Q 29.59375 56 35.59375 56 
Q 45.5625 56 51.78125 48.09375 
Q 58.015625 40.1875 58.015625 27.296875 
Q 58.015625 14.40625 51.78125 6.484375 
Q 45.5625 -1.421875 35.59375 -1.421875 
Q 29.59375 -1.421875 25.265625 0.953125 
Q 20.953125 3.328125 18.109375 8.203125 
z
M 48.6875 27.296875 
Q 48.6875 37.203125 44.609375 42.84375 
Q 40.53125 48.484375 33.40625 48.484375 
Q 26.265625 48.484375 22.1875 42.84375 
Q 18.109375 37.203125 18.109375 27.296875 
Q 18.109375 17.390625 22.1875 11.75 
Q 26.265625 6.109375 33.40625 6.109375 
Q 40.53125 6.109375 44.609375 11.75 
Q 48.6875 17.390625 48.6875 27.296875 
z
" id="DejaVuSans-112"/>
       <path d="M 54.890625 33.015625 
L 54.890625 0 
L 45.90625 0 
L 45.90625 32.71875 
Q 45.90625 40.484375 42.875 44.328125 
Q 39.84375 48.1875 33.796875 48.1875 
Q 26.515625 48.1875 22.3125 43.546875 
Q 18.109375 38.921875 18.109375 30.90625 
L 18.109375 0 
L 9.078125 0 
L 9.078125 75.984375 
L 18.109375 75.984375 
L 18.109375 46.1875 
Q 21.34375 51.125 25.703125 53.5625 
Q 30.078125 56 35.796875 56 
Q 45.21875 56 50.046875 50.171875 
Q 54.890625 44.34375 54.890625 33.015625 
z
" id="DejaVuSans-104"/>
       <path d="M 34.28125 27.484375 
Q 23.390625 27.484375 19.1875 25 
Q 14.984375 22.515625 14.984375 16.5 
Q 14.984375 11.71875 18.140625 8.90625 
Q 21.296875 6.109375 26.703125 6.109375 
Q 34.1875 6.109375 38.703125 11.40625 
Q 43.21875 16.703125 43.21875 25.484375 
L 43.21875 27.484375 
z
M 52.203125 31.203125 
L 52.203125 0 
L 43.21875 0 
L 43.21875 8.296875 
Q 40.140625 3.328125 35.546875 0.953125 
Q 30.953125 -1.421875 24.3125 -1.421875 
Q 15.921875 -1.421875 10.953125 3.296875 
Q 6 8.015625 6 15.921875 
Q 6 25.140625 12.171875 29.828125 
Q 18.359375 34.515625 30.609375 34.515625 
L 43.21875 34.515625 
L 43.21875 35.40625 
Q 43.21875 41.609375 39.140625 45 
Q 35.0625 48.390625 27.6875 48.390625 
Q 23 48.390625 18.546875 47.265625 
Q 14.109375 46.140625 10.015625 43.890625 
L 10.015625 52.203125 
Q 14.9375 54.109375 19.578125 55.046875 
Q 24.21875 56 28.609375 56 
Q 40.484375 56 46.34375 49.84375 
Q 52.203125 43.703125 52.203125 31.203125 
z
M 19.28125 78.515625 
Q 24.75 81 29.890625 81 
Q 34.96875 81 38.0625 78.921875 
Q 41.15625 76.859375 41.15625 73.578125 
Q 41.15625 70.609375 36.859375 67.4375 
L 34.71875 65.875 
Q 33.015625 64.59375 32.8125 64.15625 
Q 32.46875 63.375 32.46875 61.8125 
L 26.65625 61.8125 
L 26.65625 62.40625 
Q 26.65625 64.359375 27.390625 65.671875 
Q 28.125 67 30.609375 68.796875 
L 32.8125 70.453125 
Q 35.0625 72.125 35.0625 74.078125 
Q 35.0625 75.09375 33.546875 75.96875 
Q 32.03125 76.859375 28.5625 76.859375 
Q 24.171875 76.859375 19.28125 74.3125 
z
" id="DejaVuSans-7843"/>
       <path d="M 54.890625 33.015625 
L 54.890625 0 
L 45.90625 0 
L 45.90625 32.71875 
Q 45.90625 40.484375 42.875 44.328125 
Q 39.84375 48.1875 33.796875 48.1875 
Q 26.515625 48.1875 22.3125 43.546875 
Q 18.109375 38.921875 18.109375 30.90625 
L 18.109375 0 
L 9.078125 0 
L 9.078125 54.6875 
L 18.109375 54.6875 
L 18.109375 46.1875 
Q 21.34375 51.125 25.703125 53.5625 
Q 30.078125 56 35.796875 56 
Q 45.21875 56 50.046875 50.171875 
Q 54.890625 44.34375 54.890625 33.015625 
z
" id="DejaVuSans-110"/>
       <path d="M 48.34375 48.53125 
L 48.34375 54.34375 
Q 51.3125 52.140625 53.453125 51.09375 
Q 55.609375 50.046875 57.125 50.046875 
Q 59.375 50.046875 60.5 51.390625 
Q 61.625 52.734375 61.625 55.359375 
Q 61.625 56.921875 61.25 58.4375 
Q 60.890625 59.953125 60.15625 61.46875 
L 66.65625 61.46875 
Q 67.140625 59.609375 67.375 57.953125 
Q 67.625 56.296875 67.625 54.828125 
Q 67.625 48.875 65.5 46.0625 
Q 63.375 43.25 58.84375 43.25 
Q 56.5 43.25 53.9375 44.546875 
Q 51.375 45.84375 48.34375 48.53125 
z
M 8.59375 21.578125 
L 8.59375 54.6875 
L 17.578125 54.6875 
L 17.578125 21.921875 
Q 17.578125 14.15625 20.609375 10.265625 
Q 23.640625 6.390625 29.6875 6.390625 
Q 36.96875 6.390625 41.1875 11.03125 
Q 45.40625 15.671875 45.40625 23.6875 
L 45.40625 54.6875 
L 54.390625 54.6875 
L 54.390625 0 
L 45.40625 0 
L 45.40625 8.40625 
Q 42.140625 3.421875 37.8125 1 
Q 33.5 -1.421875 27.78125 -1.421875 
Q 18.359375 -1.421875 13.46875 4.4375 
Q 8.59375 10.296875 8.59375 21.578125 
z
M 31.203125 56 
z
M 26.421875 -6.890625 
L 35.40625 -6.890625 
L 35.40625 -18.3125 
L 26.421875 -18.3125 
z
" id="DejaVuSans-7921"/>
       <path d="M 48.78125 52.59375 
L 48.78125 44.1875 
Q 44.96875 46.296875 41.140625 47.34375 
Q 37.3125 48.390625 33.40625 48.390625 
Q 24.65625 48.390625 19.8125 42.84375 
Q 14.984375 37.3125 14.984375 27.296875 
Q 14.984375 17.28125 19.8125 11.734375 
Q 24.65625 6.203125 33.40625 6.203125 
Q 37.3125 6.203125 41.140625 7.25 
Q 44.96875 8.296875 48.78125 10.40625 
L 48.78125 2.09375 
Q 45.015625 0.34375 40.984375 -0.53125 
Q 36.96875 -1.421875 32.421875 -1.421875 
Q 20.0625 -1.421875 12.78125 6.34375 
Q 5.515625 14.109375 5.515625 27.296875 
Q 5.515625 40.671875 12.859375 48.328125 
Q 20.21875 56 33.015625 56 
Q 37.15625 56 41.109375 55.140625 
Q 45.0625 54.296875 48.78125 52.59375 
z
" id="DejaVuSans-99"/>
       <path d="M 16.890625 72.90625 
L 38.09375 72.90625 
Q 54.984375 72.90625 63.59375 65.75 
Q 72.21875 58.59375 72.21875 44.484375 
Q 72.21875 35.15625 68.9375 26.53125 
Q 65.671875 17.921875 59.90625 12.015625 
Q 54.109375 5.953125 45.171875 2.96875 
Q 36.234375 0 24.03125 0 
L 2.6875 0 
z
M 25.203125 64.796875 
L 14.203125 8.109375 
L 27.09375 8.109375 
Q 43.65625 8.109375 52.734375 17.625 
Q 61.8125 27.15625 61.8125 44.484375 
Q 61.8125 54.984375 55.953125 59.890625 
Q 50.09375 64.796875 37.59375 64.796875 
z
" id="DejaVuSans-Oblique-68"/>
      </defs>
      <use xlink:href="#DejaVuSans-112"/>
      <use transform="translate(63.476562 0)" xlink:href="#DejaVuSans-104"/>
      <use transform="translate(126.855469 0)" xlink:href="#DejaVuSans-7843"/>
      <use transform="translate(188.134766 0)" xlink:href="#DejaVuSans-110"/>
      <use transform="translate(251.513672 0)" xlink:href="#DejaVuSans-32"/>
      <use transform="translate(283.300781 0)" xlink:href="#DejaVuSans-116"/>
      <use transform="translate(322.509766 0)" xlink:href="#DejaVuSans-104"/>
      <use transform="translate(385.888672 0)" xlink:href="#DejaVuSans-7921"/>
      <use transform="translate(449.267578 0)" xlink:href="#DejaVuSans-99"/>
      <use transform="translate(504.248047 0)" xlink:href="#DejaVuSans-32"/>
      <use transform="translate(536.035156 0)" xlink:href="#DejaVuSans-Oblique-68"/>
     </g>
    </g>
   </g>
   <g id="PolyCollection_1">
    <defs>
     <path d="M 82.915574 -253.573278 
L 82.915574 -85.629588 
L 94.697398 -86.79607 
L 106.479203 -88.1651 
L 118.261027 -87.669819 
L 130.042852 -88.803981 
L 141.824676 -89.252813 
L 153.60648 -93.20345 
L 165.388305 -96.651888 
L 177.170124 -87.818689 
L 188.951933 -87.242261 
L 200.733758 -93.501077 
L 212.515577 -87.657201 
L 224.297392 -85.355598 
L 236.079211 -84.052218 
L 247.86103 -87.252564 
L 259.64284 -90.663738 
L 271.424664 -77.854993 
L 283.206489 -86.091783 
L 294.988293 -81.251859 
L 306.770117 -86.213941 
L 318.551942 -88.045444 
L 330.333746 -78.134516 
L 342.11557 -84.973125 
L 353.897395 -80.379847 
L 365.679219 -82.136029 
L 377.461023 -74.912264 
L 389.242848 -79.801883 
L 401.024672 -79.78736 
L 412.806477 -73.547725 
L 424.588301 -74.98196 
L 424.588301 -235.522795 
L 424.588301 -235.522795 
L 412.806477 -237.03101 
L 401.024672 -233.865106 
L 389.242848 -233.549944 
L 377.461023 -228.978177 
L 365.679219 -233.03266 
L 353.897395 -229.29776 
L 342.11557 -236.440788 
L 330.333746 -238.316786 
L 318.551942 -239.347449 
L 306.770117 -233.538327 
L 294.988293 -234.781855 
L 283.206489 -236.928025 
L 271.424664 -235.209455 
L 259.64284 -236.061096 
L 247.86103 -236.046406 
L 236.079211 -237.677412 
L 224.297392 -233.537034 
L 212.515577 -235.471549 
L 200.733758 -240.230194 
L 188.951933 -238.503768 
L 177.170124 -240.461462 
L 165.388305 -238.483843 
L 153.60648 -237.88402 
L 141.824676 -242.253337 
L 130.042852 -244.207006 
L 118.261027 -244.174497 
L 106.479203 -247.97899 
L 94.697398 -248.340314 
L 82.915574 -253.573278 
z
" id="me1b62031b6" style="stroke:#fc4f30;stroke-opacity:0.2;stroke-width:0.5;"/>
    </defs>
    <g clip-path="url(#pa7af1bedb8)">
     <use style="fill:#fc4f30;fill-opacity:0.2;stroke:#fc4f30;stroke-opacity:0.2;stroke-width:0.5;" x="0" xlink:href="#me1b62031b6" y="307.318225"/>
    </g>
   </g>
   <g id="line2d_29">
    <path clip-path="url(#pa7af1bedb8)" d="M 82.915574 138.184273 
L 94.697398 140.356166 
L 106.479203 140.979201 
L 118.261027 142.745823 
L 130.042852 142.866294 
L 141.824676 143.513434 
L 153.60648 143.141505 
L 165.388305 141.129786 
L 177.170124 144.436449 
L 188.951933 145.038915 
L 200.733758 141.092683 
L 212.515577 146.087775 
L 224.297392 146.120343 
L 236.079211 146.336241 
L 247.86103 146.029526 
L 259.64284 146.173652 
L 271.424664 146.781968 
L 283.206489 147.331377 
L 294.988293 149.090281 
L 306.770117 151.093525 
L 318.551942 145.905484 
L 330.333746 149.162592 
L 342.11557 148.254833 
L 353.897395 150.816098 
L 365.679219 150.876994 
L 377.461023 153.302802 
L 389.242848 151.233405 
L 401.024672 152.870519 
L 412.806477 154.108558 
L 424.588301 152.123289 
" style="fill:none;stroke:#008fd5;stroke-width:4;"/>
   </g>
   <g id="patch_3">
    <path d="M 65.831938 262.8096 
L 65.831938 29.5296 
" style="fill:none;stroke:#f0f0f0;stroke-linecap:square;stroke-linejoin:miter;stroke-width:3;"/>
   </g>
   <g id="patch_4">
    <path d="M 441.671938 262.8096 
L 441.671938 29.5296 
" style="fill:none;stroke:#f0f0f0;stroke-linecap:square;stroke-linejoin:miter;stroke-width:3;"/>
   </g>
   <g id="patch_5">
    <path d="M 65.831938 262.8096 
L 441.671938 262.8096 
" style="fill:none;stroke:#f0f0f0;stroke-linecap:square;stroke-linejoin:miter;stroke-width:3;"/>
   </g>
   <g id="patch_6">
    <path d="M 65.831938 29.5296 
L 441.671938 29.5296 
" style="fill:none;stroke:#f0f0f0;stroke-linecap:square;stroke-linejoin:miter;stroke-width:3;"/>
   </g>
   <g id="text_17">
    <!-- Toàn bộ hiệu ứng của $M$ lên $D$ -->
    <g transform="translate(102.955138 23.5296)scale(0.2016 -0.2016)">
     <defs>
      <path d="M -0.296875 72.90625 
L 61.375 72.90625 
L 61.375 64.59375 
L 35.5 64.59375 
L 35.5 0 
L 25.59375 0 
L 25.59375 64.59375 
L -0.296875 64.59375 
z
" id="DejaVuSans-84"/>
      <path d="M 34.28125 27.484375 
Q 23.390625 27.484375 19.1875 25 
Q 14.984375 22.515625 14.984375 16.5 
Q 14.984375 11.71875 18.140625 8.90625 
Q 21.296875 6.109375 26.703125 6.109375 
Q 34.1875 6.109375 38.703125 11.40625 
Q 43.21875 16.703125 43.21875 25.484375 
L 43.21875 27.484375 
z
M 52.203125 31.203125 
L 52.203125 0 
L 43.21875 0 
L 43.21875 8.296875 
Q 40.140625 3.328125 35.546875 0.953125 
Q 30.953125 -1.421875 24.3125 -1.421875 
Q 15.921875 -1.421875 10.953125 3.296875 
Q 6 8.015625 6 15.921875 
Q 6 25.140625 12.171875 29.828125 
Q 18.359375 34.515625 30.609375 34.515625 
L 43.21875 34.515625 
L 43.21875 35.40625 
Q 43.21875 41.609375 39.140625 45 
Q 35.0625 48.390625 27.6875 48.390625 
Q 23 48.390625 18.546875 47.265625 
Q 14.109375 46.140625 10.015625 43.890625 
L 10.015625 52.203125 
Q 14.9375 54.109375 19.578125 55.046875 
Q 24.21875 56 28.609375 56 
Q 40.484375 56 46.34375 49.84375 
Q 52.203125 43.703125 52.203125 31.203125 
z
M 21.921875 79.984375 
L 35.6875 61.71875 
L 28.21875 61.71875 
L 12.3125 79.984375 
z
" id="DejaVuSans-224"/>
      <path d="M 48.6875 27.296875 
Q 48.6875 37.203125 44.609375 42.84375 
Q 40.53125 48.484375 33.40625 48.484375 
Q 26.265625 48.484375 22.1875 42.84375 
Q 18.109375 37.203125 18.109375 27.296875 
Q 18.109375 17.390625 22.1875 11.75 
Q 26.265625 6.109375 33.40625 6.109375 
Q 40.53125 6.109375 44.609375 11.75 
Q 48.6875 17.390625 48.6875 27.296875 
z
M 18.109375 46.390625 
Q 20.953125 51.265625 25.265625 53.625 
Q 29.59375 56 35.59375 56 
Q 45.5625 56 51.78125 48.09375 
Q 58.015625 40.1875 58.015625 27.296875 
Q 58.015625 14.40625 51.78125 6.484375 
Q 45.5625 -1.421875 35.59375 -1.421875 
Q 29.59375 -1.421875 25.265625 0.953125 
Q 20.953125 3.328125 18.109375 8.203125 
L 18.109375 0 
L 9.078125 0 
L 9.078125 75.984375 
L 18.109375 75.984375 
z
" id="DejaVuSans-98"/>
      <path d="M 26.03125 -6.890625 
L 35.015625 -6.890625 
L 35.015625 -18.3125 
L 26.03125 -18.3125 
z
M 30.609375 48.390625 
Q 23.390625 48.390625 19.1875 42.75 
Q 14.984375 37.109375 14.984375 27.296875 
Q 14.984375 17.484375 19.15625 11.84375 
Q 23.34375 6.203125 30.609375 6.203125 
Q 37.796875 6.203125 41.984375 11.859375 
Q 46.1875 17.53125 46.1875 27.296875 
Q 46.1875 37.015625 41.984375 42.703125 
Q 37.796875 48.390625 30.609375 48.390625 
z
M 30.609375 56 
Q 42.328125 56 49.015625 48.375 
Q 55.71875 40.765625 55.71875 27.296875 
Q 55.71875 13.875 49.015625 6.21875 
Q 42.328125 -1.421875 30.609375 -1.421875 
Q 18.84375 -1.421875 12.171875 6.21875 
Q 5.515625 13.875 5.515625 27.296875 
Q 5.515625 40.765625 12.171875 48.375 
Q 18.84375 56 30.609375 56 
z
M 26.03125 -6.890625 
L 35.015625 -6.890625 
L 35.015625 -18.3125 
L 26.03125 -18.3125 
z
M 27 79.984375 
L 34.234375 79.984375 
L 46.1875 61.625 
L 39.40625 61.625 
L 30.609375 73.578125 
L 21.828125 61.625 
L 15.046875 61.625 
z
" id="DejaVuSans-7897"/>
      <path d="M 27.203125 -6.890625 
L 36.1875 -6.890625 
L 36.1875 -18.3125 
L 27.203125 -18.3125 
z
M 56.203125 29.59375 
L 56.203125 25.203125 
L 14.890625 25.203125 
Q 15.484375 15.921875 20.484375 11.0625 
Q 25.484375 6.203125 34.421875 6.203125 
Q 39.59375 6.203125 44.453125 7.46875 
Q 49.3125 8.734375 54.109375 11.28125 
L 54.109375 2.78125 
Q 49.265625 0.734375 44.1875 -0.34375 
Q 39.109375 -1.421875 33.890625 -1.421875 
Q 20.796875 -1.421875 13.15625 6.1875 
Q 5.515625 13.8125 5.515625 26.8125 
Q 5.515625 40.234375 12.765625 48.109375 
Q 20.015625 56 32.328125 56 
Q 43.359375 56 49.78125 48.890625 
Q 56.203125 41.796875 56.203125 29.59375 
z
M 47.21875 32.234375 
Q 47.125 39.59375 43.09375 43.984375 
Q 39.0625 48.390625 32.421875 48.390625 
Q 24.90625 48.390625 20.390625 44.140625 
Q 15.875 39.890625 15.1875 32.171875 
z
M 27.203125 -6.890625 
L 36.1875 -6.890625 
L 36.1875 -18.3125 
L 27.203125 -18.3125 
z
M 28.171875 79.984375 
L 35.40625 79.984375 
L 47.359375 61.625 
L 40.578125 61.625 
L 31.78125 73.578125 
L 23 61.625 
L 16.21875 61.625 
z
" id="DejaVuSans-7879"/>
      <path d="M 8.5 21.578125 
L 8.5 54.6875 
L 17.484375 54.6875 
L 17.484375 21.921875 
Q 17.484375 14.15625 20.5 10.265625 
Q 23.53125 6.390625 29.59375 6.390625 
Q 36.859375 6.390625 41.078125 11.03125 
Q 45.3125 15.671875 45.3125 23.6875 
L 45.3125 54.6875 
L 54.296875 54.6875 
L 54.296875 0 
L 45.3125 0 
L 45.3125 8.40625 
Q 42.046875 3.421875 37.71875 1 
Q 33.40625 -1.421875 27.6875 -1.421875 
Q 18.265625 -1.421875 13.375 4.4375 
Q 8.5 10.296875 8.5 21.578125 
z
M 31.109375 56 
z
" id="DejaVuSans-117"/>
      <path d="M 37.796875 79.984375 
L 47.515625 79.984375 
L 31.59375 61.625 
L 24.125 61.625 
z
M 48.34375 48.53125 
L 48.34375 54.34375 
Q 51.3125 52.140625 53.453125 51.09375 
Q 55.609375 50.046875 57.125 50.046875 
Q 59.375 50.046875 60.5 51.390625 
Q 61.625 52.734375 61.625 55.359375 
Q 61.625 56.921875 61.25 58.4375 
Q 60.890625 59.953125 60.15625 61.46875 
L 66.65625 61.46875 
Q 67.140625 59.609375 67.375 57.953125 
Q 67.625 56.296875 67.625 54.828125 
Q 67.625 48.875 65.5 46.0625 
Q 63.375 43.25 58.84375 43.25 
Q 56.5 43.25 53.9375 44.546875 
Q 51.375 45.84375 48.34375 48.53125 
z
M 8.59375 21.578125 
L 8.59375 54.6875 
L 17.578125 54.6875 
L 17.578125 21.921875 
Q 17.578125 14.15625 20.609375 10.265625 
Q 23.640625 6.390625 29.6875 6.390625 
Q 36.96875 6.390625 41.1875 11.03125 
Q 45.40625 15.671875 45.40625 23.6875 
L 45.40625 54.6875 
L 54.390625 54.6875 
L 54.390625 0 
L 45.40625 0 
L 45.40625 8.40625 
Q 42.140625 3.421875 37.8125 1 
Q 33.5 -1.421875 27.78125 -1.421875 
Q 18.359375 -1.421875 13.46875 4.4375 
Q 8.59375 10.296875 8.59375 21.578125 
z
M 31.203125 56 
z
" id="DejaVuSans-7913"/>
      <path d="M 45.40625 27.984375 
Q 45.40625 37.75 41.375 43.109375 
Q 37.359375 48.484375 30.078125 48.484375 
Q 22.859375 48.484375 18.828125 43.109375 
Q 14.796875 37.75 14.796875 27.984375 
Q 14.796875 18.265625 18.828125 12.890625 
Q 22.859375 7.515625 30.078125 7.515625 
Q 37.359375 7.515625 41.375 12.890625 
Q 45.40625 18.265625 45.40625 27.984375 
z
M 54.390625 6.78125 
Q 54.390625 -7.171875 48.1875 -13.984375 
Q 42 -20.796875 29.203125 -20.796875 
Q 24.46875 -20.796875 20.265625 -20.09375 
Q 16.0625 -19.390625 12.109375 -17.921875 
L 12.109375 -9.1875 
Q 16.0625 -11.328125 19.921875 -12.34375 
Q 23.78125 -13.375 27.78125 -13.375 
Q 36.625 -13.375 41.015625 -8.765625 
Q 45.40625 -4.15625 45.40625 5.171875 
L 45.40625 9.625 
Q 42.625 4.78125 38.28125 2.390625 
Q 33.9375 0 27.875 0 
Q 17.828125 0 11.671875 7.65625 
Q 5.515625 15.328125 5.515625 27.984375 
Q 5.515625 40.671875 11.671875 48.328125 
Q 17.828125 56 27.875 56 
Q 33.9375 56 38.28125 53.609375 
Q 42.625 51.21875 45.40625 46.390625 
L 45.40625 54.6875 
L 54.390625 54.6875 
z
" id="DejaVuSans-103"/>
      <path d="M 8.5 21.578125 
L 8.5 54.6875 
L 17.484375 54.6875 
L 17.484375 21.921875 
Q 17.484375 14.15625 20.5 10.265625 
Q 23.53125 6.390625 29.59375 6.390625 
Q 36.859375 6.390625 41.078125 11.03125 
Q 45.3125 15.671875 45.3125 23.6875 
L 45.3125 54.6875 
L 54.296875 54.6875 
L 54.296875 0 
L 45.3125 0 
L 45.3125 8.40625 
Q 42.046875 3.421875 37.71875 1 
Q 33.40625 -1.421875 27.6875 -1.421875 
Q 18.265625 -1.421875 13.375 4.4375 
Q 8.5 10.296875 8.5 21.578125 
z
M 31.109375 56 
z
M 21.296875 78.515625 
Q 26.765625 81 31.890625 81 
Q 36.96875 81 40.0625 78.921875 
Q 43.171875 76.859375 43.171875 73.578125 
Q 43.171875 70.609375 38.875 67.4375 
L 36.71875 65.875 
Q 35.015625 64.59375 34.8125 64.15625 
Q 34.46875 63.375 34.46875 61.8125 
L 28.65625 61.8125 
L 28.65625 62.40625 
Q 28.65625 64.359375 29.390625 65.671875 
Q 30.125 67 32.625 68.796875 
L 34.8125 70.453125 
Q 37.0625 72.125 37.0625 74.078125 
Q 37.0625 75.09375 35.546875 75.96875 
Q 34.03125 76.859375 30.5625 76.859375 
Q 26.171875 76.859375 21.296875 74.3125 
z
" id="DejaVuSans-7911"/>
      <path d="M 34.28125 27.484375 
Q 23.390625 27.484375 19.1875 25 
Q 14.984375 22.515625 14.984375 16.5 
Q 14.984375 11.71875 18.140625 8.90625 
Q 21.296875 6.109375 26.703125 6.109375 
Q 34.1875 6.109375 38.703125 11.40625 
Q 43.21875 16.703125 43.21875 25.484375 
L 43.21875 27.484375 
z
M 52.203125 31.203125 
L 52.203125 0 
L 43.21875 0 
L 43.21875 8.296875 
Q 40.140625 3.328125 35.546875 0.953125 
Q 30.953125 -1.421875 24.3125 -1.421875 
Q 15.921875 -1.421875 10.953125 3.296875 
Q 6 8.015625 6 15.921875 
Q 6 25.140625 12.171875 29.828125 
Q 18.359375 34.515625 30.609375 34.515625 
L 43.21875 34.515625 
L 43.21875 35.40625 
Q 43.21875 41.609375 39.140625 45 
Q 35.0625 48.390625 27.6875 48.390625 
Q 23 48.390625 18.546875 47.265625 
Q 14.109375 46.140625 10.015625 43.890625 
L 10.015625 52.203125 
Q 14.9375 54.109375 19.578125 55.046875 
Q 24.21875 56 28.609375 56 
Q 40.484375 56 46.34375 49.84375 
Q 52.203125 43.703125 52.203125 31.203125 
z
" id="DejaVuSans-97"/>
      <path d="M 16.890625 72.90625 
L 31.6875 72.90625 
L 40.1875 23.78125 
L 68.40625 72.90625 
L 83.59375 72.90625 
L 69.390625 0 
L 59.8125 0 
L 72.21875 63.921875 
L 43.609375 14.015625 
L 33.984375 14.015625 
L 24.703125 64.109375 
L 12.3125 0 
L 2.6875 0 
z
" id="DejaVuSans-Oblique-77"/>
      <path d="M 9.421875 75.984375 
L 18.40625 75.984375 
L 18.40625 0 
L 9.421875 0 
z
" id="DejaVuSans-108"/>
      <path d="M 56.203125 29.59375 
L 56.203125 25.203125 
L 14.890625 25.203125 
Q 15.484375 15.921875 20.484375 11.0625 
Q 25.484375 6.203125 34.421875 6.203125 
Q 39.59375 6.203125 44.453125 7.46875 
Q 49.3125 8.734375 54.109375 11.28125 
L 54.109375 2.78125 
Q 49.265625 0.734375 44.1875 -0.34375 
Q 39.109375 -1.421875 33.890625 -1.421875 
Q 20.796875 -1.421875 13.15625 6.1875 
Q 5.515625 13.8125 5.515625 26.8125 
Q 5.515625 40.234375 12.765625 48.109375 
Q 20.015625 56 32.328125 56 
Q 43.359375 56 49.78125 48.890625 
Q 56.203125 41.796875 56.203125 29.59375 
z
M 47.21875 32.234375 
Q 47.125 39.59375 43.09375 43.984375 
Q 39.0625 48.390625 32.421875 48.390625 
Q 24.90625 48.390625 20.390625 44.140625 
Q 15.875 39.890625 15.1875 32.171875 
z
M 28.171875 79.984375 
L 35.40625 79.984375 
L 47.359375 61.625 
L 40.578125 61.625 
L 31.78125 73.578125 
L 23 61.625 
L 16.21875 61.625 
z
" id="DejaVuSans-234"/>
     </defs>
     <use xlink:href="#DejaVuSans-84"/>
     <use transform="translate(61.083984 0)" xlink:href="#DejaVuSans-111"/>
     <use transform="translate(122.265625 0)" xlink:href="#DejaVuSans-224"/>
     <use transform="translate(183.544922 0)" xlink:href="#DejaVuSans-110"/>
     <use transform="translate(246.923828 0)" xlink:href="#DejaVuSans-32"/>
     <use transform="translate(278.710938 0)" xlink:href="#DejaVuSans-98"/>
     <use transform="translate(342.1875 0)" xlink:href="#DejaVuSans-7897"/>
     <use transform="translate(403.369141 0)" xlink:href="#DejaVuSans-32"/>
     <use transform="translate(435.15625 0)" xlink:href="#DejaVuSans-104"/>
     <use transform="translate(498.535156 0)" xlink:href="#DejaVuSans-105"/>
     <use transform="translate(526.318359 0)" xlink:href="#DejaVuSans-7879"/>
     <use transform="translate(587.841797 0)" xlink:href="#DejaVuSans-117"/>
     <use transform="translate(651.220703 0)" xlink:href="#DejaVuSans-32"/>
     <use transform="translate(683.007812 0)" xlink:href="#DejaVuSans-7913"/>
     <use transform="translate(746.386719 0)" xlink:href="#DejaVuSans-110"/>
     <use transform="translate(809.765625 0)" xlink:href="#DejaVuSans-103"/>
     <use transform="translate(873.242188 0)" xlink:href="#DejaVuSans-32"/>
     <use transform="translate(905.029297 0)" xlink:href="#DejaVuSans-99"/>
     <use transform="translate(960.009766 0)" xlink:href="#DejaVuSans-7911"/>
     <use transform="translate(1023.388672 0)" xlink:href="#DejaVuSans-97"/>
     <use transform="translate(1084.667969 0)" xlink:href="#DejaVuSans-32"/>
     <use transform="translate(1116.455078 0)" xlink:href="#DejaVuSans-Oblique-77"/>
     <use transform="translate(1202.734375 0)" xlink:href="#DejaVuSans-32"/>
     <use transform="translate(1234.521484 0)" xlink:href="#DejaVuSans-108"/>
     <use transform="translate(1262.304688 0)" xlink:href="#DejaVuSans-234"/>
     <use transform="translate(1323.828125 0)" xlink:href="#DejaVuSans-110"/>
     <use transform="translate(1387.207031 0)" xlink:href="#DejaVuSans-32"/>
     <use transform="translate(1418.994141 0)" xlink:href="#DejaVuSans-Oblique-68"/>
    </g>
   </g>
  </g>
 </g>
 <defs>
  <clipPath id="pa7af1bedb8">
   <rect height="233.28" width="375.84" x="65.831938" y="29.5296"/>
  </clipPath>
 </defs>
</svg>
