<?xml version="1.0" encoding="utf-8" standalone="no"?>
<!DOCTYPE svg PUBLIC "-//W3C//DTD SVG 1.1//EN"
  "http://www.w3.org/Graphics/SVG/1.1/DTD/svg11.dtd">
<!-- Created with matplotlib (https://matplotlib.org/) -->
<svg height="285.660625pt" version="1.1" viewBox="0 0 435.310312 285.660625" width="435.310312pt" xmlns="http://www.w3.org/2000/svg" xmlns:xlink="http://www.w3.org/1999/xlink">
 <metadata>
  <rdf:RDF xmlns:cc="http://creativecommons.org/ns#" xmlns:dc="http://purl.org/dc/elements/1.1/" xmlns:rdf="http://www.w3.org/1999/02/22-rdf-syntax-ns#">
   <cc:Work>
    <dc:type rdf:resource="http://purl.org/dc/dcmitype/StillImage"/>
    <dc:date>2021-02-10T07:09:55.169699</dc:date>
    <dc:format>image/svg+xml</dc:format>
    <dc:creator>
     <cc:Agent>
      <dc:title>Matplotlib v3.3.3, https://matplotlib.org/</dc:title>
     </cc:Agent>
    </dc:creator>
   </cc:Work>
  </rdf:RDF>
 </metadata>
 <defs>
  <style type="text/css">*{stroke-linecap:butt;stroke-linejoin:round;}</style>
 </defs>
 <g id="figure_1">
  <g id="patch_1">
   <path d="M 0 285.660625 
L 435.310312 285.660625 
L 435.310312 0 
L 0 0 
z
" style="fill:#f0f0f0;"/>
  </g>
  <g id="axes_1">
   <g id="patch_2">
    <path d="M 52.270313 240.48 
L 428.110312 240.48 
L 428.110312 7.2 
L 52.270313 7.2 
z
" style="fill:#f0f0f0;"/>
   </g>
   <g id="matplotlib.axis_1">
    <g id="xtick_1">
     <g id="line2d_1">
      <path clip-path="url(#p186c42d9b5)" d="M 99.392017 240.48 
L 99.392017 7.2 
" style="fill:none;stroke:#cbcbcb;"/>
     </g>
     <g id="line2d_2"/>
     <g id="text_1">
      <!-- −2 -->
      <g transform="translate(89.072486 254.617813)scale(0.14 -0.14)">
       <defs>
        <path d="M 10.59375 35.5 
L 73.1875 35.5 
L 73.1875 27.203125 
L 10.59375 27.203125 
z
" id="DejaVuSans-8722"/>
        <path d="M 19.1875 8.296875 
L 53.609375 8.296875 
L 53.609375 0 
L 7.328125 0 
L 7.328125 8.296875 
Q 12.9375 14.109375 22.625 23.890625 
Q 32.328125 33.6875 34.8125 36.53125 
Q 39.546875 41.84375 41.421875 45.53125 
Q 43.3125 49.21875 43.3125 52.78125 
Q 43.3125 58.59375 39.234375 62.25 
Q 35.15625 65.921875 28.609375 65.921875 
Q 23.96875 65.921875 18.8125 64.3125 
Q 13.671875 62.703125 7.8125 59.421875 
L 7.8125 69.390625 
Q 13.765625 71.78125 18.9375 73 
Q 24.125 74.21875 28.421875 74.21875 
Q 39.75 74.21875 46.484375 68.546875 
Q 53.21875 62.890625 53.21875 53.421875 
Q 53.21875 48.921875 51.53125 44.890625 
Q 49.859375 40.875 45.40625 35.40625 
Q 44.1875 33.984375 37.640625 27.21875 
Q 31.109375 20.453125 19.1875 8.296875 
z
" id="DejaVuSans-50"/>
       </defs>
       <use xlink:href="#DejaVuSans-8722"/>
       <use x="83.789062" xlink:href="#DejaVuSans-50"/>
      </g>
     </g>
    </g>
    <g id="xtick_2">
     <g id="line2d_3">
      <path clip-path="url(#p186c42d9b5)" d="M 175.519875 240.48 
L 175.519875 7.2 
" style="fill:none;stroke:#cbcbcb;"/>
     </g>
     <g id="line2d_4"/>
     <g id="text_2">
      <!-- −1 -->
      <g transform="translate(165.200344 254.617813)scale(0.14 -0.14)">
       <defs>
        <path d="M 12.40625 8.296875 
L 28.515625 8.296875 
L 28.515625 63.921875 
L 10.984375 60.40625 
L 10.984375 69.390625 
L 28.421875 72.90625 
L 38.28125 72.90625 
L 38.28125 8.296875 
L 54.390625 8.296875 
L 54.390625 0 
L 12.40625 0 
z
" id="DejaVuSans-49"/>
       </defs>
       <use xlink:href="#DejaVuSans-8722"/>
       <use x="83.789062" xlink:href="#DejaVuSans-49"/>
      </g>
     </g>
    </g>
    <g id="xtick_3">
     <g id="line2d_5">
      <path clip-path="url(#p186c42d9b5)" d="M 251.647733 240.48 
L 251.647733 7.2 
" style="fill:none;stroke:#cbcbcb;"/>
     </g>
     <g id="line2d_6"/>
     <g id="text_3">
      <!-- 0 -->
      <g transform="translate(247.193983 254.617813)scale(0.14 -0.14)">
       <defs>
        <path d="M 31.78125 66.40625 
Q 24.171875 66.40625 20.328125 58.90625 
Q 16.5 51.421875 16.5 36.375 
Q 16.5 21.390625 20.328125 13.890625 
Q 24.171875 6.390625 31.78125 6.390625 
Q 39.453125 6.390625 43.28125 13.890625 
Q 47.125 21.390625 47.125 36.375 
Q 47.125 51.421875 43.28125 58.90625 
Q 39.453125 66.40625 31.78125 66.40625 
z
M 31.78125 74.21875 
Q 44.046875 74.21875 50.515625 64.515625 
Q 56.984375 54.828125 56.984375 36.375 
Q 56.984375 17.96875 50.515625 8.265625 
Q 44.046875 -1.421875 31.78125 -1.421875 
Q 19.53125 -1.421875 13.0625 8.265625 
Q 6.59375 17.96875 6.59375 36.375 
Q 6.59375 54.828125 13.0625 64.515625 
Q 19.53125 74.21875 31.78125 74.21875 
z
" id="DejaVuSans-48"/>
       </defs>
       <use xlink:href="#DejaVuSans-48"/>
      </g>
     </g>
    </g>
    <g id="xtick_4">
     <g id="line2d_7">
      <path clip-path="url(#p186c42d9b5)" d="M 327.775591 240.48 
L 327.775591 7.2 
" style="fill:none;stroke:#cbcbcb;"/>
     </g>
     <g id="line2d_8"/>
     <g id="text_4">
      <!-- 1 -->
      <g transform="translate(323.321841 254.617813)scale(0.14 -0.14)">
       <use xlink:href="#DejaVuSans-49"/>
      </g>
     </g>
    </g>
    <g id="xtick_5">
     <g id="line2d_9">
      <path clip-path="url(#p186c42d9b5)" d="M 403.903449 240.48 
L 403.903449 7.2 
" style="fill:none;stroke:#cbcbcb;"/>
     </g>
     <g id="line2d_10"/>
     <g id="text_5">
      <!-- 2 -->
      <g transform="translate(399.449699 254.617813)scale(0.14 -0.14)">
       <use xlink:href="#DejaVuSans-50"/>
      </g>
     </g>
    </g>
    <g id="text_6">
     <!-- Ly dị quan sát -->
     <g transform="translate(181.685625 274.96675)scale(0.168 -0.168)">
      <defs>
       <path d="M 9.8125 72.90625 
L 19.671875 72.90625 
L 19.671875 8.296875 
L 55.171875 8.296875 
L 55.171875 0 
L 9.8125 0 
z
" id="DejaVuSans-76"/>
       <path d="M 32.171875 -5.078125 
Q 28.375 -14.84375 24.75 -17.8125 
Q 21.140625 -20.796875 15.09375 -20.796875 
L 7.90625 -20.796875 
L 7.90625 -13.28125 
L 13.1875 -13.28125 
Q 16.890625 -13.28125 18.9375 -11.515625 
Q 21 -9.765625 23.484375 -3.21875 
L 25.09375 0.875 
L 2.984375 54.6875 
L 12.5 54.6875 
L 29.59375 11.921875 
L 46.6875 54.6875 
L 56.203125 54.6875 
z
" id="DejaVuSans-121"/>
       <path id="DejaVuSans-32"/>
       <path d="M 45.40625 46.390625 
L 45.40625 75.984375 
L 54.390625 75.984375 
L 54.390625 0 
L 45.40625 0 
L 45.40625 8.203125 
Q 42.578125 3.328125 38.25 0.953125 
Q 33.9375 -1.421875 27.875 -1.421875 
Q 17.96875 -1.421875 11.734375 6.484375 
Q 5.515625 14.40625 5.515625 27.296875 
Q 5.515625 40.1875 11.734375 48.09375 
Q 17.96875 56 27.875 56 
Q 33.9375 56 38.25 53.625 
Q 42.578125 51.265625 45.40625 46.390625 
z
M 14.796875 27.296875 
Q 14.796875 17.390625 18.875 11.75 
Q 22.953125 6.109375 30.078125 6.109375 
Q 37.203125 6.109375 41.296875 11.75 
Q 45.40625 17.390625 45.40625 27.296875 
Q 45.40625 37.203125 41.296875 42.84375 
Q 37.203125 48.484375 30.078125 48.484375 
Q 22.953125 48.484375 18.875 42.84375 
Q 14.796875 37.203125 14.796875 27.296875 
z
" id="DejaVuSans-100"/>
       <path d="M 9.421875 54.6875 
L 18.40625 54.6875 
L 18.40625 0 
L 9.421875 0 
z
M 9.421875 75.984375 
L 18.40625 75.984375 
L 18.40625 64.59375 
L 9.421875 64.59375 
z
M 9.328125 -6.890625 
L 18.3125 -6.890625 
L 18.3125 -18.3125 
L 9.328125 -18.3125 
z
" id="DejaVuSans-7883"/>
       <path d="M 14.796875 27.296875 
Q 14.796875 17.390625 18.875 11.75 
Q 22.953125 6.109375 30.078125 6.109375 
Q 37.203125 6.109375 41.296875 11.75 
Q 45.40625 17.390625 45.40625 27.296875 
Q 45.40625 37.203125 41.296875 42.84375 
Q 37.203125 48.484375 30.078125 48.484375 
Q 22.953125 48.484375 18.875 42.84375 
Q 14.796875 37.203125 14.796875 27.296875 
z
M 45.40625 8.203125 
Q 42.578125 3.328125 38.25 0.953125 
Q 33.9375 -1.421875 27.875 -1.421875 
Q 17.96875 -1.421875 11.734375 6.484375 
Q 5.515625 14.40625 5.515625 27.296875 
Q 5.515625 40.1875 11.734375 48.09375 
Q 17.96875 56 27.875 56 
Q 33.9375 56 38.25 53.625 
Q 42.578125 51.265625 45.40625 46.390625 
L 45.40625 54.6875 
L 54.390625 54.6875 
L 54.390625 -20.796875 
L 45.40625 -20.796875 
z
" id="DejaVuSans-113"/>
       <path d="M 8.5 21.578125 
L 8.5 54.6875 
L 17.484375 54.6875 
L 17.484375 21.921875 
Q 17.484375 14.15625 20.5 10.265625 
Q 23.53125 6.390625 29.59375 6.390625 
Q 36.859375 6.390625 41.078125 11.03125 
Q 45.3125 15.671875 45.3125 23.6875 
L 45.3125 54.6875 
L 54.296875 54.6875 
L 54.296875 0 
L 45.3125 0 
L 45.3125 8.40625 
Q 42.046875 3.421875 37.71875 1 
Q 33.40625 -1.421875 27.6875 -1.421875 
Q 18.265625 -1.421875 13.375 4.4375 
Q 8.5 10.296875 8.5 21.578125 
z
M 31.109375 56 
z
" id="DejaVuSans-117"/>
       <path d="M 34.28125 27.484375 
Q 23.390625 27.484375 19.1875 25 
Q 14.984375 22.515625 14.984375 16.5 
Q 14.984375 11.71875 18.140625 8.90625 
Q 21.296875 6.109375 26.703125 6.109375 
Q 34.1875 6.109375 38.703125 11.40625 
Q 43.21875 16.703125 43.21875 25.484375 
L 43.21875 27.484375 
z
M 52.203125 31.203125 
L 52.203125 0 
L 43.21875 0 
L 43.21875 8.296875 
Q 40.140625 3.328125 35.546875 0.953125 
Q 30.953125 -1.421875 24.3125 -1.421875 
Q 15.921875 -1.421875 10.953125 3.296875 
Q 6 8.015625 6 15.921875 
Q 6 25.140625 12.171875 29.828125 
Q 18.359375 34.515625 30.609375 34.515625 
L 43.21875 34.515625 
L 43.21875 35.40625 
Q 43.21875 41.609375 39.140625 45 
Q 35.0625 48.390625 27.6875 48.390625 
Q 23 48.390625 18.546875 47.265625 
Q 14.109375 46.140625 10.015625 43.890625 
L 10.015625 52.203125 
Q 14.9375 54.109375 19.578125 55.046875 
Q 24.21875 56 28.609375 56 
Q 40.484375 56 46.34375 49.84375 
Q 52.203125 43.703125 52.203125 31.203125 
z
" id="DejaVuSans-97"/>
       <path d="M 54.890625 33.015625 
L 54.890625 0 
L 45.90625 0 
L 45.90625 32.71875 
Q 45.90625 40.484375 42.875 44.328125 
Q 39.84375 48.1875 33.796875 48.1875 
Q 26.515625 48.1875 22.3125 43.546875 
Q 18.109375 38.921875 18.109375 30.90625 
L 18.109375 0 
L 9.078125 0 
L 9.078125 54.6875 
L 18.109375 54.6875 
L 18.109375 46.1875 
Q 21.34375 51.125 25.703125 53.5625 
Q 30.078125 56 35.796875 56 
Q 45.21875 56 50.046875 50.171875 
Q 54.890625 44.34375 54.890625 33.015625 
z
" id="DejaVuSans-110"/>
       <path d="M 44.28125 53.078125 
L 44.28125 44.578125 
Q 40.484375 46.53125 36.375 47.5 
Q 32.28125 48.484375 27.875 48.484375 
Q 21.1875 48.484375 17.84375 46.4375 
Q 14.5 44.390625 14.5 40.28125 
Q 14.5 37.15625 16.890625 35.375 
Q 19.28125 33.59375 26.515625 31.984375 
L 29.59375 31.296875 
Q 39.15625 29.25 43.1875 25.515625 
Q 47.21875 21.78125 47.21875 15.09375 
Q 47.21875 7.46875 41.1875 3.015625 
Q 35.15625 -1.421875 24.609375 -1.421875 
Q 20.21875 -1.421875 15.453125 -0.5625 
Q 10.6875 0.296875 5.421875 2 
L 5.421875 11.28125 
Q 10.40625 8.6875 15.234375 7.390625 
Q 20.0625 6.109375 24.8125 6.109375 
Q 31.15625 6.109375 34.5625 8.28125 
Q 37.984375 10.453125 37.984375 14.40625 
Q 37.984375 18.0625 35.515625 20.015625 
Q 33.0625 21.96875 24.703125 23.78125 
L 21.578125 24.515625 
Q 13.234375 26.265625 9.515625 29.90625 
Q 5.8125 33.546875 5.8125 39.890625 
Q 5.8125 47.609375 11.28125 51.796875 
Q 16.75 56 26.8125 56 
Q 31.78125 56 36.171875 55.265625 
Q 40.578125 54.546875 44.28125 53.078125 
z
" id="DejaVuSans-115"/>
       <path d="M 34.28125 27.484375 
Q 23.390625 27.484375 19.1875 25 
Q 14.984375 22.515625 14.984375 16.5 
Q 14.984375 11.71875 18.140625 8.90625 
Q 21.296875 6.109375 26.703125 6.109375 
Q 34.1875 6.109375 38.703125 11.40625 
Q 43.21875 16.703125 43.21875 25.484375 
L 43.21875 27.484375 
z
M 52.203125 31.203125 
L 52.203125 0 
L 43.21875 0 
L 43.21875 8.296875 
Q 40.140625 3.328125 35.546875 0.953125 
Q 30.953125 -1.421875 24.3125 -1.421875 
Q 15.921875 -1.421875 10.953125 3.296875 
Q 6 8.015625 6 15.921875 
Q 6 25.140625 12.171875 29.828125 
Q 18.359375 34.515625 30.609375 34.515625 
L 43.21875 34.515625 
L 43.21875 35.40625 
Q 43.21875 41.609375 39.140625 45 
Q 35.0625 48.390625 27.6875 48.390625 
Q 23 48.390625 18.546875 47.265625 
Q 14.109375 46.140625 10.015625 43.890625 
L 10.015625 52.203125 
Q 14.9375 54.109375 19.578125 55.046875 
Q 24.21875 56 28.609375 56 
Q 40.484375 56 46.34375 49.84375 
Q 52.203125 43.703125 52.203125 31.203125 
z
M 35.796875 79.984375 
L 45.515625 79.984375 
L 29.59375 61.625 
L 22.125 61.625 
z
" id="DejaVuSans-225"/>
       <path d="M 18.3125 70.21875 
L 18.3125 54.6875 
L 36.8125 54.6875 
L 36.8125 47.703125 
L 18.3125 47.703125 
L 18.3125 18.015625 
Q 18.3125 11.328125 20.140625 9.421875 
Q 21.96875 7.515625 27.59375 7.515625 
L 36.8125 7.515625 
L 36.8125 0 
L 27.59375 0 
Q 17.1875 0 13.234375 3.875 
Q 9.28125 7.765625 9.28125 18.015625 
L 9.28125 47.703125 
L 2.6875 47.703125 
L 2.6875 54.6875 
L 9.28125 54.6875 
L 9.28125 70.21875 
z
" id="DejaVuSans-116"/>
      </defs>
      <use xlink:href="#DejaVuSans-76"/>
      <use x="46.587891" xlink:href="#DejaVuSans-121"/>
      <use x="105.767578" xlink:href="#DejaVuSans-32"/>
      <use x="137.554688" xlink:href="#DejaVuSans-100"/>
      <use x="201.03125" xlink:href="#DejaVuSans-7883"/>
      <use x="228.814453" xlink:href="#DejaVuSans-32"/>
      <use x="260.601562" xlink:href="#DejaVuSans-113"/>
      <use x="324.078125" xlink:href="#DejaVuSans-117"/>
      <use x="387.457031" xlink:href="#DejaVuSans-97"/>
      <use x="448.736328" xlink:href="#DejaVuSans-110"/>
      <use x="512.115234" xlink:href="#DejaVuSans-32"/>
      <use x="543.902344" xlink:href="#DejaVuSans-115"/>
      <use x="596.001953" xlink:href="#DejaVuSans-225"/>
      <use x="657.28125" xlink:href="#DejaVuSans-116"/>
     </g>
    </g>
   </g>
   <g id="matplotlib.axis_2">
    <g id="ytick_1">
     <g id="line2d_11">
      <path clip-path="url(#p186c42d9b5)" d="M 52.270313 218.294523 
L 428.110312 218.294523 
" style="fill:none;stroke:#cbcbcb;"/>
     </g>
     <g id="line2d_12"/>
     <g id="text_7">
      <!-- −2 -->
      <g transform="translate(28.13125 223.613429)scale(0.14 -0.14)">
       <use xlink:href="#DejaVuSans-8722"/>
       <use x="83.789062" xlink:href="#DejaVuSans-50"/>
      </g>
     </g>
    </g>
    <g id="ytick_2">
     <g id="line2d_13">
      <path clip-path="url(#p186c42d9b5)" d="M 52.270313 162.068108 
L 428.110312 162.068108 
" style="fill:none;stroke:#cbcbcb;"/>
     </g>
     <g id="line2d_14"/>
     <g id="text_8">
      <!-- −1 -->
      <g transform="translate(28.13125 167.387014)scale(0.14 -0.14)">
       <use xlink:href="#DejaVuSans-8722"/>
       <use x="83.789062" xlink:href="#DejaVuSans-49"/>
      </g>
     </g>
    </g>
    <g id="ytick_3">
     <g id="line2d_15">
      <path clip-path="url(#p186c42d9b5)" d="M 52.270313 105.841693 
L 428.110312 105.841693 
" style="fill:none;stroke:#cbcbcb;"/>
     </g>
     <g id="line2d_16"/>
     <g id="text_9">
      <!-- 0 -->
      <g transform="translate(39.862813 111.160599)scale(0.14 -0.14)">
       <use xlink:href="#DejaVuSans-48"/>
      </g>
     </g>
    </g>
    <g id="ytick_4">
     <g id="line2d_17">
      <path clip-path="url(#p186c42d9b5)" d="M 52.270313 49.615278 
L 428.110312 49.615278 
" style="fill:none;stroke:#cbcbcb;"/>
     </g>
     <g id="line2d_18"/>
     <g id="text_10">
      <!-- 1 -->
      <g transform="translate(39.862813 54.934184)scale(0.14 -0.14)">
       <use xlink:href="#DejaVuSans-49"/>
      </g>
     </g>
    </g>
    <g id="text_11">
     <!-- Ly dị dự đoán -->
     <g transform="translate(20.637375 180.000563)rotate(-90)scale(0.168 -0.168)">
      <defs>
       <path d="M 48.34375 48.53125 
L 48.34375 54.34375 
Q 51.3125 52.140625 53.453125 51.09375 
Q 55.609375 50.046875 57.125 50.046875 
Q 59.375 50.046875 60.5 51.390625 
Q 61.625 52.734375 61.625 55.359375 
Q 61.625 56.921875 61.25 58.4375 
Q 60.890625 59.953125 60.15625 61.46875 
L 66.65625 61.46875 
Q 67.140625 59.609375 67.375 57.953125 
Q 67.625 56.296875 67.625 54.828125 
Q 67.625 48.875 65.5 46.0625 
Q 63.375 43.25 58.84375 43.25 
Q 56.5 43.25 53.9375 44.546875 
Q 51.375 45.84375 48.34375 48.53125 
z
M 8.59375 21.578125 
L 8.59375 54.6875 
L 17.578125 54.6875 
L 17.578125 21.921875 
Q 17.578125 14.15625 20.609375 10.265625 
Q 23.640625 6.390625 29.6875 6.390625 
Q 36.96875 6.390625 41.1875 11.03125 
Q 45.40625 15.671875 45.40625 23.6875 
L 45.40625 54.6875 
L 54.390625 54.6875 
L 54.390625 0 
L 45.40625 0 
L 45.40625 8.40625 
Q 42.140625 3.421875 37.8125 1 
Q 33.5 -1.421875 27.78125 -1.421875 
Q 18.359375 -1.421875 13.46875 4.4375 
Q 8.59375 10.296875 8.59375 21.578125 
z
M 31.203125 56 
z
M 26.421875 -6.890625 
L 35.40625 -6.890625 
L 35.40625 -18.3125 
L 26.421875 -18.3125 
z
" id="DejaVuSans-7921"/>
       <path d="M 45.40625 46.390625 
L 45.40625 62.703125 
L 29.5 62.703125 
L 29.5 68.796875 
L 45.40625 68.796875 
L 45.40625 75.984375 
L 54.390625 75.984375 
L 54.390625 68.796875 
L 61.921875 68.796875 
L 61.921875 62.703125 
L 54.390625 62.703125 
L 54.390625 0 
L 45.40625 0 
L 45.40625 8.203125 
Q 42.578125 3.328125 38.25 0.953125 
Q 33.9375 -1.421875 27.875 -1.421875 
Q 17.96875 -1.421875 11.734375 6.484375 
Q 5.515625 14.40625 5.515625 27.296875 
Q 5.515625 40.1875 11.734375 48.09375 
Q 17.96875 56 27.875 56 
Q 33.9375 56 38.25 53.625 
Q 42.578125 51.265625 45.40625 46.390625 
z
M 14.796875 27.296875 
Q 14.796875 17.390625 18.875 11.75 
Q 22.953125 6.109375 30.078125 6.109375 
Q 37.203125 6.109375 41.296875 11.75 
Q 45.40625 17.390625 45.40625 27.296875 
Q 45.40625 37.203125 41.296875 42.84375 
Q 37.203125 48.484375 30.078125 48.484375 
Q 22.953125 48.484375 18.875 42.84375 
Q 14.796875 37.203125 14.796875 27.296875 
z
" id="DejaVuSans-273"/>
       <path d="M 30.609375 48.390625 
Q 23.390625 48.390625 19.1875 42.75 
Q 14.984375 37.109375 14.984375 27.296875 
Q 14.984375 17.484375 19.15625 11.84375 
Q 23.34375 6.203125 30.609375 6.203125 
Q 37.796875 6.203125 41.984375 11.859375 
Q 46.1875 17.53125 46.1875 27.296875 
Q 46.1875 37.015625 41.984375 42.703125 
Q 37.796875 48.390625 30.609375 48.390625 
z
M 30.609375 56 
Q 42.328125 56 49.015625 48.375 
Q 55.71875 40.765625 55.71875 27.296875 
Q 55.71875 13.875 49.015625 6.21875 
Q 42.328125 -1.421875 30.609375 -1.421875 
Q 18.84375 -1.421875 12.171875 6.21875 
Q 5.515625 13.875 5.515625 27.296875 
Q 5.515625 40.765625 12.171875 48.375 
Q 18.84375 56 30.609375 56 
z
" id="DejaVuSans-111"/>
      </defs>
      <use xlink:href="#DejaVuSans-76"/>
      <use x="46.587891" xlink:href="#DejaVuSans-121"/>
      <use x="105.767578" xlink:href="#DejaVuSans-32"/>
      <use x="137.554688" xlink:href="#DejaVuSans-100"/>
      <use x="201.03125" xlink:href="#DejaVuSans-7883"/>
      <use x="228.814453" xlink:href="#DejaVuSans-32"/>
      <use x="260.601562" xlink:href="#DejaVuSans-100"/>
      <use x="324.078125" xlink:href="#DejaVuSans-7921"/>
      <use x="387.457031" xlink:href="#DejaVuSans-32"/>
      <use x="419.244141" xlink:href="#DejaVuSans-273"/>
      <use x="482.720703" xlink:href="#DejaVuSans-111"/>
      <use x="543.902344" xlink:href="#DejaVuSans-225"/>
      <use x="605.181641" xlink:href="#DejaVuSans-110"/>
     </g>
    </g>
   </g>
   <g id="line2d_19">
    <defs>
     <path d="M 0 3 
C 0.795609 3 1.55874 2.683901 2.12132 2.12132 
C 2.683901 1.55874 3 0.795609 3 0 
C 3 -0.795609 2.683901 -1.55874 2.12132 -2.12132 
C 1.55874 -2.683901 0.795609 -3 0 -3 
C -0.795609 -3 -1.55874 -2.683901 -2.12132 -2.12132 
C -2.683901 -1.55874 -3 -0.795609 -3 0 
C -3 0.795609 -2.683901 1.55874 -2.12132 2.12132 
C -1.55874 2.683901 -0.795609 3 0 3 
z
" id="m8d3075a98b" style="stroke:#008fd5;"/>
    </defs>
    <g clip-path="url(#p186c42d9b5)">
     <use style="fill:#008fd5;stroke:#008fd5;" x="377.578839" xlink:href="#m8d3075a98b" y="85.041227"/>
     <use style="fill:#008fd5;stroke:#008fd5;" x="369.21688" xlink:href="#m8d3075a98b" y="87.775656"/>
     <use style="fill:#008fd5;stroke:#008fd5;" x="298.140226" xlink:href="#m8d3075a98b" y="99.01474"/>
     <use style="fill:#008fd5;stroke:#008fd5;" x="411.026676" xlink:href="#m8d3075a98b" y="63.174339"/>
     <use style="fill:#008fd5;stroke:#008fd5;" x="181.072797" xlink:href="#m8d3075a98b" y="125.631739"/>
     <use style="fill:#008fd5;stroke:#008fd5;" x="331.588063" xlink:href="#m8d3075a98b" y="99.279111"/>
     <use style="fill:#008fd5;stroke:#008fd5;" x="126.720062" xlink:href="#m8d3075a98b" y="145.937313"/>
     <use style="fill:#008fd5;stroke:#008fd5;" x="218.701614" xlink:href="#m8d3075a98b" y="123.880427"/>
     <use style="fill:#008fd5;stroke:#008fd5;" x="109.996144" xlink:href="#m8d3075a98b" y="204.797072"/>
     <use style="fill:#008fd5;stroke:#008fd5;" x="201.977695" xlink:href="#m8d3075a98b" y="112.533878"/>
     <use style="fill:#008fd5;stroke:#008fd5;" x="327.407084" xlink:href="#m8d3075a98b" y="103.500484"/>
     <use style="fill:#008fd5;stroke:#008fd5;" x="193.615736" xlink:href="#m8d3075a98b" y="133.917573"/>
     <use style="fill:#008fd5;stroke:#008fd5;" x="168.529858" xlink:href="#m8d3075a98b" y="32.071595"/>
     <use style="fill:#008fd5;stroke:#008fd5;" x="181.072797" xlink:href="#m8d3075a98b" y="130.043114"/>
     <use style="fill:#008fd5;stroke:#008fd5;" x="306.502186" xlink:href="#m8d3075a98b" y="95.764025"/>
     <use style="fill:#008fd5;stroke:#008fd5;" x="273.054349" xlink:href="#m8d3075a98b" y="89.051958"/>
     <use style="fill:#008fd5;stroke:#008fd5;" x="289.778267" xlink:href="#m8d3075a98b" y="78.519161"/>
     <use style="fill:#008fd5;stroke:#008fd5;" x="373.39786" xlink:href="#m8d3075a98b" y="73.062765"/>
     <use style="fill:#008fd5;stroke:#008fd5;" x="306.502186" xlink:href="#m8d3075a98b" y="102.075449"/>
     <use style="fill:#008fd5;stroke:#008fd5;" x="390.121778" xlink:href="#m8d3075a98b" y="109.208797"/>
     <use style="fill:#008fd5;stroke:#008fd5;" x="214.520634" xlink:href="#m8d3075a98b" y="138.750227"/>
     <use style="fill:#008fd5;stroke:#008fd5;" x="172.710838" xlink:href="#m8d3075a98b" y="169.683594"/>
     <use style="fill:#008fd5;stroke:#008fd5;" x="231.244553" xlink:href="#m8d3075a98b" y="112.058866"/>
     <use style="fill:#008fd5;stroke:#008fd5;" x="155.986919" xlink:href="#m8d3075a98b" y="108.143136"/>
     <use style="fill:#008fd5;stroke:#008fd5;" x="310.683165" xlink:href="#m8d3075a98b" y="98.064717"/>
     <use style="fill:#008fd5;stroke:#008fd5;" x="243.787491" xlink:href="#m8d3075a98b" y="91.848296"/>
     <use style="fill:#008fd5;stroke:#008fd5;" x="227.063573" xlink:href="#m8d3075a98b" y="94.528995"/>
     <use style="fill:#008fd5;stroke:#008fd5;" x="214.520634" xlink:href="#m8d3075a98b" y="87.246916"/>
     <use style="fill:#008fd5;stroke:#008fd5;" x="268.873369" xlink:href="#m8d3075a98b" y="123.351681"/>
     <use style="fill:#008fd5;stroke:#008fd5;" x="101.634184" xlink:href="#m8d3075a98b" y="146.527963"/>
     <use style="fill:#008fd5;stroke:#008fd5;" x="273.054349" xlink:href="#m8d3075a98b" y="99.109743"/>
     <use style="fill:#008fd5;stroke:#008fd5;" x="122.539082" xlink:href="#m8d3075a98b" y="167.85793"/>
     <use style="fill:#008fd5;stroke:#008fd5;" x="260.51141" xlink:href="#m8d3075a98b" y="96.33404"/>
     <use style="fill:#008fd5;stroke:#008fd5;" x="181.072797" xlink:href="#m8d3075a98b" y="91.216376"/>
     <use style="fill:#008fd5;stroke:#008fd5;" x="243.787491" xlink:href="#m8d3075a98b" y="109.663173"/>
     <use style="fill:#008fd5;stroke:#008fd5;" x="381.759819" xlink:href="#m8d3075a98b" y="63.479983"/>
     <use style="fill:#008fd5;stroke:#008fd5;" x="281.416308" xlink:href="#m8d3075a98b" y="103.236112"/>
     <use style="fill:#008fd5;stroke:#008fd5;" x="168.529858" xlink:href="#m8d3075a98b" y="130.538758"/>
     <use style="fill:#008fd5;stroke:#008fd5;" x="239.606512" xlink:href="#m8d3075a98b" y="160.596481"/>
     <use style="fill:#008fd5;stroke:#008fd5;" x="185.253777" xlink:href="#m8d3075a98b" y="113.578904"/>
     <use style="fill:#008fd5;stroke:#008fd5;" x="302.321206" xlink:href="#m8d3075a98b" y="93.273329"/>
     <use style="fill:#008fd5;stroke:#008fd5;" x="323.226104" xlink:href="#m8d3075a98b" y="81.505503"/>
     <use style="fill:#008fd5;stroke:#008fd5;" x="264.692389" xlink:href="#m8d3075a98b" y="83.500553"/>
     <use style="fill:#008fd5;stroke:#008fd5;" x="273.054349" xlink:href="#m8d3075a98b" y="38.457396"/>
     <use style="fill:#008fd5;stroke:#008fd5;" x="247.968471" xlink:href="#m8d3075a98b" y="125.84238"/>
     <use style="fill:#008fd5;stroke:#008fd5;" x="218.701614" xlink:href="#m8d3075a98b" y="115.858959"/>
     <use style="fill:#008fd5;stroke:#008fd5;" x="264.692389" xlink:href="#m8d3075a98b" y="102.835468"/>
     <use style="fill:#008fd5;stroke:#008fd5;" x="302.321206" xlink:href="#m8d3075a98b" y="78.614163"/>
     <use style="fill:#008fd5;stroke:#008fd5;" x="193.615736" xlink:href="#m8d3075a98b" y="109.94818"/>
     <use style="fill:#008fd5;stroke:#008fd5;" x="277.235328" xlink:href="#m8d3075a98b" y="64.483744"/>
    </g>
   </g>
   <g id="line2d_20">
    <path clip-path="url(#p186c42d9b5)" d="M 69.353949 240.48 
L 72.512445 238.147202 
L 75.670942 235.814404 
L 78.829438 233.481606 
L 81.987952 231.148794 
L 85.146449 228.815996 
L 88.304945 226.483198 
L 91.463441 224.1504 
L 94.621938 221.817602 
L 97.780452 219.48479 
L 100.938939 217.151999 
L 104.097445 214.819194 
L 107.255941 212.486396 
L 110.414428 210.153604 
L 113.572934 207.820799 
L 116.731421 205.488008 
L 119.889926 203.155203 
L 123.048432 200.822398 
L 126.206937 198.489594 
L 129.365424 196.156802 
L 132.523921 193.824004 
L 135.682417 191.491206 
L 138.840931 189.158394 
L 141.999428 186.825596 
L 145.157915 184.492805 
L 148.316429 182.159993 
L 151.474917 179.827202 
L 154.633422 177.494397 
L 157.791909 175.161606 
L 160.950406 172.828808 
L 164.10892 170.495996 
L 167.267407 168.163205 
L 170.425904 165.830406 
L 173.584418 163.497595 
L 176.742919 161.164793 
L 179.901411 158.831999 
L 183.059907 156.499201 
L 186.218412 154.166396 
L 189.376904 151.833601 
L 192.535401 149.500803 
L 195.693897 147.168005 
L 198.852398 144.835203 
L 202.010894 142.502405 
L 205.169399 140.1696 
L 208.327896 137.836802 
L 211.486397 135.504001 
L 214.644902 133.171196 
L 217.803398 130.838398 
L 220.961899 128.505596 
L 224.1204 126.172795 
L 227.278892 123.84 
L 230.437384 121.507205 
L 233.59588 119.174407 
L 236.754381 116.841606 
L 239.912895 114.508794 
L 243.071387 112.175999 
L 246.229888 109.843198 
L 249.388384 107.5104 
L 252.546881 105.177602 
L 255.705372 102.844807 
L 258.863887 100.511995 
L 262.022388 98.179194 
L 265.180875 95.846402 
L 268.339376 93.513601 
L 271.497872 91.180803 
L 274.656373 88.848001 
L 277.814878 86.515197 
L 280.973379 84.182395 
L 284.131876 81.849597 
L 287.290367 79.516802 
L 290.448864 77.184004 
L 293.607364 74.851203 
L 296.765874 72.518394 
L 299.924371 70.185596 
L 303.082872 67.852795 
L 306.241359 65.520003 
L 309.399855 63.187205 
L 312.558356 60.854404 
L 315.716852 58.521606 
L 318.875362 56.188797 
L 322.033863 53.855996 
L 325.192359 51.523198 
L 328.350847 49.190406 
L 331.509343 46.857608 
L 334.667848 44.524803 
L 337.826354 42.191999 
L 340.98485 39.859201 
L 344.143355 37.526396 
L 347.301852 35.193598 
L 350.460339 32.860806 
L 353.618835 30.528008 
L 356.777359 28.19519 
L 359.935846 25.862398 
L 363.094342 23.5296 
L 366.252839 21.196802 
L 369.411344 18.863997 
L 372.569831 16.531206 
L 375.728346 14.198394 
L 378.886851 11.86559 
L 382.045339 9.532798 
L 385.203835 7.2 
" style="fill:none;stroke:#fc4f30;stroke-dasharray:14.8,6.4;stroke-dashoffset:0;stroke-width:4;"/>
   </g>
   <g id="line2d_21">
    <path clip-path="url(#p186c42d9b5)" d="M 377.578839 97.200241 
L 377.578839 73.087605 
" style="fill:none;stroke:#fc4f30;"/>
   </g>
   <g id="line2d_22">
    <path clip-path="url(#p186c42d9b5)" d="M 369.21688 106.281385 
L 369.21688 69.476285 
" style="fill:none;stroke:#fc4f30;"/>
   </g>
   <g id="line2d_23">
    <path clip-path="url(#p186c42d9b5)" d="M 298.140226 108.424997 
L 298.140226 89.94361 
" style="fill:none;stroke:#fc4f30;"/>
   </g>
   <g id="line2d_24">
    <path clip-path="url(#p186c42d9b5)" d="M 411.026676 82.25301 
L 411.026676 43.718387 
" style="fill:none;stroke:#fc4f30;"/>
   </g>
   <g id="line2d_25">
    <path clip-path="url(#p186c42d9b5)" d="M 181.072797 136.342396 
L 181.072797 114.818998 
" style="fill:none;stroke:#fc4f30;"/>
   </g>
   <g id="line2d_26">
    <path clip-path="url(#p186c42d9b5)" d="M 331.588063 112.657607 
L 331.588063 86.083421 
" style="fill:none;stroke:#fc4f30;"/>
   </g>
   <g id="line2d_27">
    <path clip-path="url(#p186c42d9b5)" d="M 126.720062 160.988177 
L 126.720062 130.600155 
" style="fill:none;stroke:#fc4f30;"/>
   </g>
   <g id="line2d_28">
    <path clip-path="url(#p186c42d9b5)" d="M 218.701614 141.809968 
L 218.701614 106.249536 
" style="fill:none;stroke:#fc4f30;"/>
   </g>
   <g id="line2d_29">
    <path clip-path="url(#p186c42d9b5)" d="M 109.996144 240.48 
L 109.996144 168.595992 
" style="fill:none;stroke:#fc4f30;"/>
   </g>
   <g id="line2d_30">
    <path clip-path="url(#p186c42d9b5)" d="M 201.977695 125.317412 
L 201.977695 99.824801 
" style="fill:none;stroke:#fc4f30;"/>
   </g>
   <g id="line2d_31">
    <path clip-path="url(#p186c42d9b5)" d="M 327.407084 114.430714 
L 327.407084 92.850948 
" style="fill:none;stroke:#fc4f30;"/>
   </g>
   <g id="line2d_32">
    <path clip-path="url(#p186c42d9b5)" d="M 193.615736 160.281413 
L 193.615736 107.702322 
" style="fill:none;stroke:#fc4f30;"/>
   </g>
   <g id="line2d_33">
    <path clip-path="url(#p186c42d9b5)" d="M 168.529858 56.434572 
L 168.529858 7.2 
" style="fill:none;stroke:#fc4f30;"/>
   </g>
   <g id="line2d_34">
    <path clip-path="url(#p186c42d9b5)" d="M 181.072797 141.555932 
L 181.072797 118.360678 
" style="fill:none;stroke:#fc4f30;"/>
   </g>
   <g id="line2d_35">
    <path clip-path="url(#p186c42d9b5)" d="M 306.502186 105.994954 
L 306.502186 85.715699 
" style="fill:none;stroke:#fc4f30;"/>
   </g>
   <g id="line2d_36">
    <path clip-path="url(#p186c42d9b5)" d="M 273.054349 99.590439 
L 273.054349 78.907697 
" style="fill:none;stroke:#fc4f30;"/>
   </g>
   <g id="line2d_37">
    <path clip-path="url(#p186c42d9b5)" d="M 289.778267 90.750821 
L 289.778267 66.211948 
" style="fill:none;stroke:#fc4f30;"/>
   </g>
   <g id="line2d_38">
    <path clip-path="url(#p186c42d9b5)" d="M 373.39786 86.530752 
L 373.39786 59.492611 
" style="fill:none;stroke:#fc4f30;"/>
   </g>
   <g id="line2d_39">
    <path clip-path="url(#p186c42d9b5)" d="M 306.502186 111.247017 
L 306.502186 93.224747 
" style="fill:none;stroke:#fc4f30;"/>
   </g>
   <g id="line2d_40">
    <path clip-path="url(#p186c42d9b5)" d="M 390.121778 132.350161 
L 390.121778 86.073789 
" style="fill:none;stroke:#fc4f30;"/>
   </g>
   <g id="line2d_41">
    <path clip-path="url(#p186c42d9b5)" d="M 214.520634 152.292365 
L 214.520634 124.949029 
" style="fill:none;stroke:#fc4f30;"/>
   </g>
   <g id="line2d_42">
    <path clip-path="url(#p186c42d9b5)" d="M 172.710838 191.469161 
L 172.710838 147.761774 
" style="fill:none;stroke:#fc4f30;"/>
   </g>
   <g id="line2d_43">
    <path clip-path="url(#p186c42d9b5)" d="M 231.244553 126.149637 
L 231.244553 97.986522 
" style="fill:none;stroke:#fc4f30;"/>
   </g>
   <g id="line2d_44">
    <path clip-path="url(#p186c42d9b5)" d="M 155.986919 126.119542 
L 155.986919 90.189743 
" style="fill:none;stroke:#fc4f30;"/>
   </g>
   <g id="line2d_45">
    <path clip-path="url(#p186c42d9b5)" d="M 310.683165 108.52231 
L 310.683165 87.833559 
" style="fill:none;stroke:#fc4f30;"/>
   </g>
   <g id="line2d_46">
    <path clip-path="url(#p186c42d9b5)" d="M 243.787491 105.153917 
L 243.787491 78.931237 
" style="fill:none;stroke:#fc4f30;"/>
   </g>
   <g id="line2d_47">
    <path clip-path="url(#p186c42d9b5)" d="M 227.063573 107.30488 
L 227.063573 82.050665 
" style="fill:none;stroke:#fc4f30;"/>
   </g>
   <g id="line2d_48">
    <path clip-path="url(#p186c42d9b5)" d="M 214.520634 99.778932 
L 214.520634 74.963406 
" style="fill:none;stroke:#fc4f30;"/>
   </g>
   <g id="line2d_49">
    <path clip-path="url(#p186c42d9b5)" d="M 268.873369 135.980986 
L 268.873369 110.786396 
" style="fill:none;stroke:#fc4f30;"/>
   </g>
   <g id="line2d_50">
    <path clip-path="url(#p186c42d9b5)" d="M 101.634184 163.693542 
L 101.634184 129.119881 
" style="fill:none;stroke:#fc4f30;"/>
   </g>
   <g id="line2d_51">
    <path clip-path="url(#p186c42d9b5)" d="M 273.054349 108.49042 
L 273.054349 90.087103 
" style="fill:none;stroke:#fc4f30;"/>
   </g>
   <g id="line2d_52">
    <path clip-path="url(#p186c42d9b5)" d="M 122.539082 189.396555 
L 122.539082 145.994873 
" style="fill:none;stroke:#fc4f30;"/>
   </g>
   <g id="line2d_53">
    <path clip-path="url(#p186c42d9b5)" d="M 260.51141 106.001837 
L 260.51141 86.892904 
" style="fill:none;stroke:#fc4f30;"/>
   </g>
   <g id="line2d_54">
    <path clip-path="url(#p186c42d9b5)" d="M 181.072797 112.27016 
L 181.072797 70.436938 
" style="fill:none;stroke:#fc4f30;"/>
   </g>
   <g id="line2d_55">
    <path clip-path="url(#p186c42d9b5)" d="M 243.787491 123.128676 
L 243.787491 96.238077 
" style="fill:none;stroke:#fc4f30;"/>
   </g>
   <g id="line2d_56">
    <path clip-path="url(#p186c42d9b5)" d="M 381.759819 79.442978 
L 381.759819 47.496524 
" style="fill:none;stroke:#fc4f30;"/>
   </g>
   <g id="line2d_57">
    <path clip-path="url(#p186c42d9b5)" d="M 281.416308 113.486988 
L 281.416308 93.140531 
" style="fill:none;stroke:#fc4f30;"/>
   </g>
   <g id="line2d_58">
    <path clip-path="url(#p186c42d9b5)" d="M 168.529858 145.459913 
L 168.529858 115.51255 
" style="fill:none;stroke:#fc4f30;"/>
   </g>
   <g id="line2d_59">
    <path clip-path="url(#p186c42d9b5)" d="M 239.606512 180.195456 
L 239.606512 141.119616 
" style="fill:none;stroke:#fc4f30;"/>
   </g>
   <g id="line2d_60">
    <path clip-path="url(#p186c42d9b5)" d="M 185.253777 124.068026 
L 185.253777 103.218257 
" style="fill:none;stroke:#fc4f30;"/>
   </g>
   <g id="line2d_61">
    <path clip-path="url(#p186c42d9b5)" d="M 302.321206 103.626124 
L 302.321206 83.103176 
" style="fill:none;stroke:#fc4f30;"/>
   </g>
   <g id="line2d_62">
    <path clip-path="url(#p186c42d9b5)" d="M 323.226104 96.133809 
L 323.226104 67.148688 
" style="fill:none;stroke:#fc4f30;"/>
   </g>
   <g id="line2d_63">
    <path clip-path="url(#p186c42d9b5)" d="M 264.692389 94.933488 
L 264.692389 72.194318 
" style="fill:none;stroke:#fc4f30;"/>
   </g>
   <g id="line2d_64">
    <path clip-path="url(#p186c42d9b5)" d="M 273.054349 65.616204 
L 273.054349 10.960234 
" style="fill:none;stroke:#fc4f30;"/>
   </g>
   <g id="line2d_65">
    <path clip-path="url(#p186c42d9b5)" d="M 247.968471 138.961179 
L 247.968471 112.752116 
" style="fill:none;stroke:#fc4f30;"/>
   </g>
   <g id="line2d_66">
    <path clip-path="url(#p186c42d9b5)" d="M 218.701614 126.04788 
L 218.701614 105.939249 
" style="fill:none;stroke:#fc4f30;"/>
   </g>
   <g id="line2d_67">
    <path clip-path="url(#p186c42d9b5)" d="M 264.692389 112.550799 
L 264.692389 93.351699 
" style="fill:none;stroke:#fc4f30;"/>
   </g>
   <g id="line2d_68">
    <path clip-path="url(#p186c42d9b5)" d="M 302.321206 90.869923 
L 302.321206 66.342212 
" style="fill:none;stroke:#fc4f30;"/>
   </g>
   <g id="line2d_69">
    <path clip-path="url(#p186c42d9b5)" d="M 193.615736 122.6359 
L 193.615736 97.311752 
" style="fill:none;stroke:#fc4f30;"/>
   </g>
   <g id="line2d_70">
    <path clip-path="url(#p186c42d9b5)" d="M 277.235328 94.151711 
L 277.235328 34.825773 
" style="fill:none;stroke:#fc4f30;"/>
   </g>
   <g id="patch_3">
    <path d="M 52.270313 240.48 
L 52.270313 7.2 
" style="fill:none;stroke:#f0f0f0;stroke-linecap:square;stroke-linejoin:miter;stroke-width:3;"/>
   </g>
   <g id="patch_4">
    <path d="M 428.110312 240.48 
L 428.110312 7.2 
" style="fill:none;stroke:#f0f0f0;stroke-linecap:square;stroke-linejoin:miter;stroke-width:3;"/>
   </g>
   <g id="patch_5">
    <path d="M 52.270312 240.48 
L 428.110312 240.48 
" style="fill:none;stroke:#f0f0f0;stroke-linecap:square;stroke-linejoin:miter;stroke-width:3;"/>
   </g>
   <g id="patch_6">
    <path d="M 52.270312 7.2 
L 428.110312 7.2 
" style="fill:none;stroke:#f0f0f0;stroke-linecap:square;stroke-linejoin:miter;stroke-width:3;"/>
   </g>
   <g id="text_12">
    <!-- ID -->
    <g transform="translate(143.529858 37.071595)scale(0.14 -0.14)">
     <defs>
      <path d="M 9.8125 72.90625 
L 19.671875 72.90625 
L 19.671875 0 
L 9.8125 0 
z
" id="DejaVuSans-73"/>
      <path d="M 19.671875 64.796875 
L 19.671875 8.109375 
L 31.59375 8.109375 
Q 46.6875 8.109375 53.6875 14.9375 
Q 60.6875 21.78125 60.6875 36.53125 
Q 60.6875 51.171875 53.6875 57.984375 
Q 46.6875 64.796875 31.59375 64.796875 
z
M 9.8125 72.90625 
L 30.078125 72.90625 
Q 51.265625 72.90625 61.171875 64.09375 
Q 71.09375 55.28125 71.09375 36.53125 
Q 71.09375 17.671875 61.125 8.828125 
Q 51.171875 0 30.078125 0 
L 9.8125 0 
z
" id="DejaVuSans-68"/>
     </defs>
     <use xlink:href="#DejaVuSans-73"/>
     <use x="29.492188" xlink:href="#DejaVuSans-68"/>
    </g>
   </g>
   <g id="text_13">
    <!-- ME -->
    <g transform="translate(365.121778 114.208797)scale(0.14 -0.14)">
     <defs>
      <path d="M 9.8125 72.90625 
L 24.515625 72.90625 
L 43.109375 23.296875 
L 61.8125 72.90625 
L 76.515625 72.90625 
L 76.515625 0 
L 66.890625 0 
L 66.890625 64.015625 
L 48.09375 14.015625 
L 38.1875 14.015625 
L 19.390625 64.015625 
L 19.390625 0 
L 9.8125 0 
z
" id="DejaVuSans-77"/>
      <path d="M 9.8125 72.90625 
L 55.90625 72.90625 
L 55.90625 64.59375 
L 19.671875 64.59375 
L 19.671875 43.015625 
L 54.390625 43.015625 
L 54.390625 34.71875 
L 19.671875 34.71875 
L 19.671875 8.296875 
L 56.78125 8.296875 
L 56.78125 0 
L 9.8125 0 
z
" id="DejaVuSans-69"/>
     </defs>
     <use xlink:href="#DejaVuSans-77"/>
     <use x="86.279297" xlink:href="#DejaVuSans-69"/>
    </g>
   </g>
   <g id="text_14">
    <!-- RI -->
    <g transform="translate(214.606512 165.596481)scale(0.14 -0.14)">
     <defs>
      <path d="M 44.390625 34.1875 
Q 47.5625 33.109375 50.5625 29.59375 
Q 53.5625 26.078125 56.59375 19.921875 
L 66.609375 0 
L 56 0 
L 46.6875 18.703125 
Q 43.0625 26.03125 39.671875 28.421875 
Q 36.28125 30.8125 30.421875 30.8125 
L 19.671875 30.8125 
L 19.671875 0 
L 9.8125 0 
L 9.8125 72.90625 
L 32.078125 72.90625 
Q 44.578125 72.90625 50.734375 67.671875 
Q 56.890625 62.453125 56.890625 51.90625 
Q 56.890625 45.015625 53.6875 40.46875 
Q 50.484375 35.9375 44.390625 34.1875 
z
M 19.671875 64.796875 
L 19.671875 38.921875 
L 32.078125 38.921875 
Q 39.203125 38.921875 42.84375 42.21875 
Q 46.484375 45.515625 46.484375 51.90625 
Q 46.484375 58.296875 42.84375 61.546875 
Q 39.203125 64.796875 32.078125 64.796875 
z
" id="DejaVuSans-82"/>
     </defs>
     <use xlink:href="#DejaVuSans-82"/>
     <use x="69.482422" xlink:href="#DejaVuSans-73"/>
    </g>
   </g>
   <g id="text_15">
    <!-- UT -->
    <g transform="translate(248.054349 43.457396)scale(0.14 -0.14)">
     <defs>
      <path d="M 8.6875 72.90625 
L 18.609375 72.90625 
L 18.609375 28.609375 
Q 18.609375 16.890625 22.84375 11.734375 
Q 27.09375 6.59375 36.625 6.59375 
Q 46.09375 6.59375 50.34375 11.734375 
Q 54.59375 16.890625 54.59375 28.609375 
L 54.59375 72.90625 
L 64.5 72.90625 
L 64.5 27.390625 
Q 64.5 13.140625 57.4375 5.859375 
Q 50.390625 -1.421875 36.625 -1.421875 
Q 22.796875 -1.421875 15.734375 5.859375 
Q 8.6875 13.140625 8.6875 27.390625 
z
" id="DejaVuSans-85"/>
      <path d="M -0.296875 72.90625 
L 61.375 72.90625 
L 61.375 64.59375 
L 35.5 64.59375 
L 35.5 0 
L 25.59375 0 
L 25.59375 64.59375 
L -0.296875 64.59375 
z
" id="DejaVuSans-84"/>
     </defs>
     <use xlink:href="#DejaVuSans-85"/>
     <use x="73.193359" xlink:href="#DejaVuSans-84"/>
    </g>
   </g>
  </g>
 </g>
 <defs>
  <clipPath id="p186c42d9b5">
   <rect height="233.28" width="375.84" x="52.270313" y="7.2"/>
  </clipPath>
 </defs>
</svg>
