<?xml version="1.0" encoding="utf-8" standalone="no"?>
<!DOCTYPE svg PUBLIC "-//W3C//DTD SVG 1.1//EN"
  "http://www.w3.org/Graphics/SVG/1.1/DTD/svg11.dtd">
<!-- Created with matplotlib (https://matplotlib.org/) -->
<svg height="720pt" version="1.1" viewBox="0 0 864 720" width="864pt" xmlns="http://www.w3.org/2000/svg" xmlns:xlink="http://www.w3.org/1999/xlink">
 <defs>
  <style type="text/css">
*{stroke-linecap:butt;stroke-linejoin:round;}
  </style>
 </defs>
 <g id="figure_1">
  <g id="patch_1">
   <path d="M 0 720 
L 864 720 
L 864 0 
L 0 0 
z
" style="fill:#f0f0f0;"/>
  </g>
  <g id="axes_1">
   <g id="patch_2">
    <path d="M 80.885625 312.94 
L 409.525602 312.94 
L 409.525602 36.12 
L 80.885625 36.12 
z
" style="fill:#f0f0f0;"/>
   </g>
   <g id="matplotlib.axis_1">
    <g id="xtick_1">
     <g id="line2d_1">
      <path clip-path="url(#pc231eb9bb7)" d="M 95.823806 312.94 
L 95.823806 36.12 
" style="fill:none;stroke:#cbcbcb;"/>
     </g>
     <g id="line2d_2"/>
     <g id="text_1">
      <!-- 1 -->
      <defs>
       <path d="M 12.40625 8.296875 
L 28.515625 8.296875 
L 28.515625 63.921875 
L 10.984375 60.40625 
L 10.984375 69.390625 
L 28.421875 72.90625 
L 38.28125 72.90625 
L 38.28125 8.296875 
L 54.390625 8.296875 
L 54.390625 0 
L 12.40625 0 
z
" id="DejaVuSans-49"/>
      </defs>
      <g transform="translate(91.370056 327.077812)scale(0.14 -0.14)">
       <use xlink:href="#DejaVuSans-49"/>
      </g>
     </g>
    </g>
    <g id="xtick_2">
     <g id="line2d_3">
      <path clip-path="url(#pc231eb9bb7)" d="M 170.51471 312.94 
L 170.51471 36.12 
" style="fill:none;stroke:#cbcbcb;"/>
     </g>
     <g id="line2d_4"/>
     <g id="text_2">
      <!-- 2 -->
      <defs>
       <path d="M 19.1875 8.296875 
L 53.609375 8.296875 
L 53.609375 0 
L 7.328125 0 
L 7.328125 8.296875 
Q 12.9375 14.109375 22.625 23.890625 
Q 32.328125 33.6875 34.8125 36.53125 
Q 39.546875 41.84375 41.421875 45.53125 
Q 43.3125 49.21875 43.3125 52.78125 
Q 43.3125 58.59375 39.234375 62.25 
Q 35.15625 65.921875 28.609375 65.921875 
Q 23.96875 65.921875 18.8125 64.3125 
Q 13.671875 62.703125 7.8125 59.421875 
L 7.8125 69.390625 
Q 13.765625 71.78125 18.9375 73 
Q 24.125 74.21875 28.421875 74.21875 
Q 39.75 74.21875 46.484375 68.546875 
Q 53.21875 62.890625 53.21875 53.421875 
Q 53.21875 48.921875 51.53125 44.890625 
Q 49.859375 40.875 45.40625 35.40625 
Q 44.1875 33.984375 37.640625 27.21875 
Q 31.109375 20.453125 19.1875 8.296875 
z
" id="DejaVuSans-50"/>
      </defs>
      <g transform="translate(166.06096 327.077812)scale(0.14 -0.14)">
       <use xlink:href="#DejaVuSans-50"/>
      </g>
     </g>
    </g>
    <g id="xtick_3">
     <g id="line2d_5">
      <path clip-path="url(#pc231eb9bb7)" d="M 245.205613 312.94 
L 245.205613 36.12 
" style="fill:none;stroke:#cbcbcb;"/>
     </g>
     <g id="line2d_6"/>
     <g id="text_3">
      <!-- 3 -->
      <defs>
       <path d="M 40.578125 39.3125 
Q 47.65625 37.796875 51.625 33 
Q 55.609375 28.21875 55.609375 21.1875 
Q 55.609375 10.40625 48.1875 4.484375 
Q 40.765625 -1.421875 27.09375 -1.421875 
Q 22.515625 -1.421875 17.65625 -0.515625 
Q 12.796875 0.390625 7.625 2.203125 
L 7.625 11.71875 
Q 11.71875 9.328125 16.59375 8.109375 
Q 21.484375 6.890625 26.8125 6.890625 
Q 36.078125 6.890625 40.9375 10.546875 
Q 45.796875 14.203125 45.796875 21.1875 
Q 45.796875 27.640625 41.28125 31.265625 
Q 36.765625 34.90625 28.71875 34.90625 
L 20.21875 34.90625 
L 20.21875 43.015625 
L 29.109375 43.015625 
Q 36.375 43.015625 40.234375 45.921875 
Q 44.09375 48.828125 44.09375 54.296875 
Q 44.09375 59.90625 40.109375 62.90625 
Q 36.140625 65.921875 28.71875 65.921875 
Q 24.65625 65.921875 20.015625 65.03125 
Q 15.375 64.15625 9.8125 62.3125 
L 9.8125 71.09375 
Q 15.4375 72.65625 20.34375 73.4375 
Q 25.25 74.21875 29.59375 74.21875 
Q 40.828125 74.21875 47.359375 69.109375 
Q 53.90625 64.015625 53.90625 55.328125 
Q 53.90625 49.265625 50.4375 45.09375 
Q 46.96875 40.921875 40.578125 39.3125 
z
" id="DejaVuSans-51"/>
      </defs>
      <g transform="translate(240.751863 327.077812)scale(0.14 -0.14)">
       <use xlink:href="#DejaVuSans-51"/>
      </g>
     </g>
    </g>
    <g id="xtick_4">
     <g id="line2d_7">
      <path clip-path="url(#pc231eb9bb7)" d="M 319.896517 312.94 
L 319.896517 36.12 
" style="fill:none;stroke:#cbcbcb;"/>
     </g>
     <g id="line2d_8"/>
     <g id="text_4">
      <!-- 4 -->
      <defs>
       <path d="M 37.796875 64.3125 
L 12.890625 25.390625 
L 37.796875 25.390625 
z
M 35.203125 72.90625 
L 47.609375 72.90625 
L 47.609375 25.390625 
L 58.015625 25.390625 
L 58.015625 17.1875 
L 47.609375 17.1875 
L 47.609375 0 
L 37.796875 0 
L 37.796875 17.1875 
L 4.890625 17.1875 
L 4.890625 26.703125 
z
" id="DejaVuSans-52"/>
      </defs>
      <g transform="translate(315.442767 327.077812)scale(0.14 -0.14)">
       <use xlink:href="#DejaVuSans-52"/>
      </g>
     </g>
    </g>
    <g id="xtick_5">
     <g id="line2d_9">
      <path clip-path="url(#pc231eb9bb7)" d="M 394.587421 312.94 
L 394.587421 36.12 
" style="fill:none;stroke:#cbcbcb;"/>
     </g>
     <g id="line2d_10"/>
     <g id="text_5">
      <!-- 5 -->
      <defs>
       <path d="M 10.796875 72.90625 
L 49.515625 72.90625 
L 49.515625 64.59375 
L 19.828125 64.59375 
L 19.828125 46.734375 
Q 21.96875 47.46875 24.109375 47.828125 
Q 26.265625 48.1875 28.421875 48.1875 
Q 40.625 48.1875 47.75 41.5 
Q 54.890625 34.8125 54.890625 23.390625 
Q 54.890625 11.625 47.5625 5.09375 
Q 40.234375 -1.421875 26.90625 -1.421875 
Q 22.3125 -1.421875 17.546875 -0.640625 
Q 12.796875 0.140625 7.71875 1.703125 
L 7.71875 11.625 
Q 12.109375 9.234375 16.796875 8.0625 
Q 21.484375 6.890625 26.703125 6.890625 
Q 35.15625 6.890625 40.078125 11.328125 
Q 45.015625 15.765625 45.015625 23.390625 
Q 45.015625 31 40.078125 35.4375 
Q 35.15625 39.890625 26.703125 39.890625 
Q 22.75 39.890625 18.8125 39.015625 
Q 14.890625 38.140625 10.796875 36.28125 
z
" id="DejaVuSans-53"/>
      </defs>
      <g transform="translate(390.133671 327.077812)scale(0.14 -0.14)">
       <use xlink:href="#DejaVuSans-53"/>
      </g>
     </g>
    </g>
    <g id="text_6">
     <!-- number of parameters -->
     <defs>
      <path d="M 54.890625 33.015625 
L 54.890625 0 
L 45.90625 0 
L 45.90625 32.71875 
Q 45.90625 40.484375 42.875 44.328125 
Q 39.84375 48.1875 33.796875 48.1875 
Q 26.515625 48.1875 22.3125 43.546875 
Q 18.109375 38.921875 18.109375 30.90625 
L 18.109375 0 
L 9.078125 0 
L 9.078125 54.6875 
L 18.109375 54.6875 
L 18.109375 46.1875 
Q 21.34375 51.125 25.703125 53.5625 
Q 30.078125 56 35.796875 56 
Q 45.21875 56 50.046875 50.171875 
Q 54.890625 44.34375 54.890625 33.015625 
z
" id="DejaVuSans-110"/>
      <path d="M 8.5 21.578125 
L 8.5 54.6875 
L 17.484375 54.6875 
L 17.484375 21.921875 
Q 17.484375 14.15625 20.5 10.265625 
Q 23.53125 6.390625 29.59375 6.390625 
Q 36.859375 6.390625 41.078125 11.03125 
Q 45.3125 15.671875 45.3125 23.6875 
L 45.3125 54.6875 
L 54.296875 54.6875 
L 54.296875 0 
L 45.3125 0 
L 45.3125 8.40625 
Q 42.046875 3.421875 37.71875 1 
Q 33.40625 -1.421875 27.6875 -1.421875 
Q 18.265625 -1.421875 13.375 4.4375 
Q 8.5 10.296875 8.5 21.578125 
z
M 31.109375 56 
z
" id="DejaVuSans-117"/>
      <path d="M 52 44.1875 
Q 55.375 50.25 60.0625 53.125 
Q 64.75 56 71.09375 56 
Q 79.640625 56 84.28125 50.015625 
Q 88.921875 44.046875 88.921875 33.015625 
L 88.921875 0 
L 79.890625 0 
L 79.890625 32.71875 
Q 79.890625 40.578125 77.09375 44.375 
Q 74.3125 48.1875 68.609375 48.1875 
Q 61.625 48.1875 57.5625 43.546875 
Q 53.515625 38.921875 53.515625 30.90625 
L 53.515625 0 
L 44.484375 0 
L 44.484375 32.71875 
Q 44.484375 40.625 41.703125 44.40625 
Q 38.921875 48.1875 33.109375 48.1875 
Q 26.21875 48.1875 22.15625 43.53125 
Q 18.109375 38.875 18.109375 30.90625 
L 18.109375 0 
L 9.078125 0 
L 9.078125 54.6875 
L 18.109375 54.6875 
L 18.109375 46.1875 
Q 21.1875 51.21875 25.484375 53.609375 
Q 29.78125 56 35.6875 56 
Q 41.65625 56 45.828125 52.96875 
Q 50 49.953125 52 44.1875 
z
" id="DejaVuSans-109"/>
      <path d="M 48.6875 27.296875 
Q 48.6875 37.203125 44.609375 42.84375 
Q 40.53125 48.484375 33.40625 48.484375 
Q 26.265625 48.484375 22.1875 42.84375 
Q 18.109375 37.203125 18.109375 27.296875 
Q 18.109375 17.390625 22.1875 11.75 
Q 26.265625 6.109375 33.40625 6.109375 
Q 40.53125 6.109375 44.609375 11.75 
Q 48.6875 17.390625 48.6875 27.296875 
z
M 18.109375 46.390625 
Q 20.953125 51.265625 25.265625 53.625 
Q 29.59375 56 35.59375 56 
Q 45.5625 56 51.78125 48.09375 
Q 58.015625 40.1875 58.015625 27.296875 
Q 58.015625 14.40625 51.78125 6.484375 
Q 45.5625 -1.421875 35.59375 -1.421875 
Q 29.59375 -1.421875 25.265625 0.953125 
Q 20.953125 3.328125 18.109375 8.203125 
L 18.109375 0 
L 9.078125 0 
L 9.078125 75.984375 
L 18.109375 75.984375 
z
" id="DejaVuSans-98"/>
      <path d="M 56.203125 29.59375 
L 56.203125 25.203125 
L 14.890625 25.203125 
Q 15.484375 15.921875 20.484375 11.0625 
Q 25.484375 6.203125 34.421875 6.203125 
Q 39.59375 6.203125 44.453125 7.46875 
Q 49.3125 8.734375 54.109375 11.28125 
L 54.109375 2.78125 
Q 49.265625 0.734375 44.1875 -0.34375 
Q 39.109375 -1.421875 33.890625 -1.421875 
Q 20.796875 -1.421875 13.15625 6.1875 
Q 5.515625 13.8125 5.515625 26.8125 
Q 5.515625 40.234375 12.765625 48.109375 
Q 20.015625 56 32.328125 56 
Q 43.359375 56 49.78125 48.890625 
Q 56.203125 41.796875 56.203125 29.59375 
z
M 47.21875 32.234375 
Q 47.125 39.59375 43.09375 43.984375 
Q 39.0625 48.390625 32.421875 48.390625 
Q 24.90625 48.390625 20.390625 44.140625 
Q 15.875 39.890625 15.1875 32.171875 
z
" id="DejaVuSans-101"/>
      <path d="M 41.109375 46.296875 
Q 39.59375 47.171875 37.8125 47.578125 
Q 36.03125 48 33.890625 48 
Q 26.265625 48 22.1875 43.046875 
Q 18.109375 38.09375 18.109375 28.8125 
L 18.109375 0 
L 9.078125 0 
L 9.078125 54.6875 
L 18.109375 54.6875 
L 18.109375 46.1875 
Q 20.953125 51.171875 25.484375 53.578125 
Q 30.03125 56 36.53125 56 
Q 37.453125 56 38.578125 55.875 
Q 39.703125 55.765625 41.0625 55.515625 
z
" id="DejaVuSans-114"/>
      <path id="DejaVuSans-32"/>
      <path d="M 30.609375 48.390625 
Q 23.390625 48.390625 19.1875 42.75 
Q 14.984375 37.109375 14.984375 27.296875 
Q 14.984375 17.484375 19.15625 11.84375 
Q 23.34375 6.203125 30.609375 6.203125 
Q 37.796875 6.203125 41.984375 11.859375 
Q 46.1875 17.53125 46.1875 27.296875 
Q 46.1875 37.015625 41.984375 42.703125 
Q 37.796875 48.390625 30.609375 48.390625 
z
M 30.609375 56 
Q 42.328125 56 49.015625 48.375 
Q 55.71875 40.765625 55.71875 27.296875 
Q 55.71875 13.875 49.015625 6.21875 
Q 42.328125 -1.421875 30.609375 -1.421875 
Q 18.84375 -1.421875 12.171875 6.21875 
Q 5.515625 13.875 5.515625 27.296875 
Q 5.515625 40.765625 12.171875 48.375 
Q 18.84375 56 30.609375 56 
z
" id="DejaVuSans-111"/>
      <path d="M 37.109375 75.984375 
L 37.109375 68.5 
L 28.515625 68.5 
Q 23.6875 68.5 21.796875 66.546875 
Q 19.921875 64.59375 19.921875 59.515625 
L 19.921875 54.6875 
L 34.71875 54.6875 
L 34.71875 47.703125 
L 19.921875 47.703125 
L 19.921875 0 
L 10.890625 0 
L 10.890625 47.703125 
L 2.296875 47.703125 
L 2.296875 54.6875 
L 10.890625 54.6875 
L 10.890625 58.5 
Q 10.890625 67.625 15.140625 71.796875 
Q 19.390625 75.984375 28.609375 75.984375 
z
" id="DejaVuSans-102"/>
      <path d="M 18.109375 8.203125 
L 18.109375 -20.796875 
L 9.078125 -20.796875 
L 9.078125 54.6875 
L 18.109375 54.6875 
L 18.109375 46.390625 
Q 20.953125 51.265625 25.265625 53.625 
Q 29.59375 56 35.59375 56 
Q 45.5625 56 51.78125 48.09375 
Q 58.015625 40.1875 58.015625 27.296875 
Q 58.015625 14.40625 51.78125 6.484375 
Q 45.5625 -1.421875 35.59375 -1.421875 
Q 29.59375 -1.421875 25.265625 0.953125 
Q 20.953125 3.328125 18.109375 8.203125 
z
M 48.6875 27.296875 
Q 48.6875 37.203125 44.609375 42.84375 
Q 40.53125 48.484375 33.40625 48.484375 
Q 26.265625 48.484375 22.1875 42.84375 
Q 18.109375 37.203125 18.109375 27.296875 
Q 18.109375 17.390625 22.1875 11.75 
Q 26.265625 6.109375 33.40625 6.109375 
Q 40.53125 6.109375 44.609375 11.75 
Q 48.6875 17.390625 48.6875 27.296875 
z
" id="DejaVuSans-112"/>
      <path d="M 34.28125 27.484375 
Q 23.390625 27.484375 19.1875 25 
Q 14.984375 22.515625 14.984375 16.5 
Q 14.984375 11.71875 18.140625 8.90625 
Q 21.296875 6.109375 26.703125 6.109375 
Q 34.1875 6.109375 38.703125 11.40625 
Q 43.21875 16.703125 43.21875 25.484375 
L 43.21875 27.484375 
z
M 52.203125 31.203125 
L 52.203125 0 
L 43.21875 0 
L 43.21875 8.296875 
Q 40.140625 3.328125 35.546875 0.953125 
Q 30.953125 -1.421875 24.3125 -1.421875 
Q 15.921875 -1.421875 10.953125 3.296875 
Q 6 8.015625 6 15.921875 
Q 6 25.140625 12.171875 29.828125 
Q 18.359375 34.515625 30.609375 34.515625 
L 43.21875 34.515625 
L 43.21875 35.40625 
Q 43.21875 41.609375 39.140625 45 
Q 35.0625 48.390625 27.6875 48.390625 
Q 23 48.390625 18.546875 47.265625 
Q 14.109375 46.140625 10.015625 43.890625 
L 10.015625 52.203125 
Q 14.9375 54.109375 19.578125 55.046875 
Q 24.21875 56 28.609375 56 
Q 40.484375 56 46.34375 49.84375 
Q 52.203125 43.703125 52.203125 31.203125 
z
" id="DejaVuSans-97"/>
      <path d="M 18.3125 70.21875 
L 18.3125 54.6875 
L 36.8125 54.6875 
L 36.8125 47.703125 
L 18.3125 47.703125 
L 18.3125 18.015625 
Q 18.3125 11.328125 20.140625 9.421875 
Q 21.96875 7.515625 27.59375 7.515625 
L 36.8125 7.515625 
L 36.8125 0 
L 27.59375 0 
Q 17.1875 0 13.234375 3.875 
Q 9.28125 7.765625 9.28125 18.015625 
L 9.28125 47.703125 
L 2.6875 47.703125 
L 2.6875 54.6875 
L 9.28125 54.6875 
L 9.28125 70.21875 
z
" id="DejaVuSans-116"/>
      <path d="M 44.28125 53.078125 
L 44.28125 44.578125 
Q 40.484375 46.53125 36.375 47.5 
Q 32.28125 48.484375 27.875 48.484375 
Q 21.1875 48.484375 17.84375 46.4375 
Q 14.5 44.390625 14.5 40.28125 
Q 14.5 37.15625 16.890625 35.375 
Q 19.28125 33.59375 26.515625 31.984375 
L 29.59375 31.296875 
Q 39.15625 29.25 43.1875 25.515625 
Q 47.21875 21.78125 47.21875 15.09375 
Q 47.21875 7.46875 41.1875 3.015625 
Q 35.15625 -1.421875 24.609375 -1.421875 
Q 20.21875 -1.421875 15.453125 -0.5625 
Q 10.6875 0.296875 5.421875 2 
L 5.421875 11.28125 
Q 10.40625 8.6875 15.234375 7.390625 
Q 20.0625 6.109375 24.8125 6.109375 
Q 31.15625 6.109375 34.5625 8.28125 
Q 37.984375 10.453125 37.984375 14.40625 
Q 37.984375 18.0625 35.515625 20.015625 
Q 33.0625 21.96875 24.703125 23.78125 
L 21.578125 24.515625 
Q 13.234375 26.265625 9.515625 29.90625 
Q 5.8125 33.546875 5.8125 39.890625 
Q 5.8125 47.609375 11.28125 51.796875 
Q 16.75 56 26.8125 56 
Q 31.78125 56 36.171875 55.265625 
Q 40.578125 54.546875 44.28125 53.078125 
z
" id="DejaVuSans-115"/>
     </defs>
     <g transform="translate(150.263301 346.75475)scale(0.168 -0.168)">
      <use xlink:href="#DejaVuSans-110"/>
      <use x="63.378906" xlink:href="#DejaVuSans-117"/>
      <use x="126.757812" xlink:href="#DejaVuSans-109"/>
      <use x="224.169922" xlink:href="#DejaVuSans-98"/>
      <use x="287.646484" xlink:href="#DejaVuSans-101"/>
      <use x="349.169922" xlink:href="#DejaVuSans-114"/>
      <use x="390.283203" xlink:href="#DejaVuSans-32"/>
      <use x="422.070312" xlink:href="#DejaVuSans-111"/>
      <use x="483.251953" xlink:href="#DejaVuSans-102"/>
      <use x="518.457031" xlink:href="#DejaVuSans-32"/>
      <use x="550.244141" xlink:href="#DejaVuSans-112"/>
      <use x="613.720703" xlink:href="#DejaVuSans-97"/>
      <use x="675" xlink:href="#DejaVuSans-114"/>
      <use x="716.113281" xlink:href="#DejaVuSans-97"/>
      <use x="777.392578" xlink:href="#DejaVuSans-109"/>
      <use x="874.804688" xlink:href="#DejaVuSans-101"/>
      <use x="936.328125" xlink:href="#DejaVuSans-116"/>
      <use x="975.537109" xlink:href="#DejaVuSans-101"/>
      <use x="1037.060547" xlink:href="#DejaVuSans-114"/>
      <use x="1078.173828" xlink:href="#DejaVuSans-115"/>
     </g>
    </g>
   </g>
   <g id="matplotlib.axis_2">
    <g id="ytick_1">
     <g id="line2d_11">
      <path clip-path="url(#pc231eb9bb7)" d="M 80.885625 288.239892 
L 409.525602 288.239892 
" style="fill:none;stroke:#cbcbcb;"/>
     </g>
     <g id="line2d_12"/>
     <g id="text_7">
      <!-- 54 -->
      <g transform="translate(59.570625 293.558798)scale(0.14 -0.14)">
       <use xlink:href="#DejaVuSans-53"/>
       <use x="63.623047" xlink:href="#DejaVuSans-52"/>
      </g>
     </g>
    </g>
    <g id="ytick_2">
     <g id="line2d_13">
      <path clip-path="url(#pc231eb9bb7)" d="M 80.885625 247.37777 
L 409.525602 247.37777 
" style="fill:none;stroke:#cbcbcb;"/>
     </g>
     <g id="line2d_14"/>
     <g id="text_8">
      <!-- 55 -->
      <g transform="translate(59.570625 252.696677)scale(0.14 -0.14)">
       <use xlink:href="#DejaVuSans-53"/>
       <use x="63.623047" xlink:href="#DejaVuSans-53"/>
      </g>
     </g>
    </g>
    <g id="ytick_3">
     <g id="line2d_15">
      <path clip-path="url(#pc231eb9bb7)" d="M 80.885625 206.515649 
L 409.525602 206.515649 
" style="fill:none;stroke:#cbcbcb;"/>
     </g>
     <g id="line2d_16"/>
     <g id="text_9">
      <!-- 56 -->
      <defs>
       <path d="M 33.015625 40.375 
Q 26.375 40.375 22.484375 35.828125 
Q 18.609375 31.296875 18.609375 23.390625 
Q 18.609375 15.53125 22.484375 10.953125 
Q 26.375 6.390625 33.015625 6.390625 
Q 39.65625 6.390625 43.53125 10.953125 
Q 47.40625 15.53125 47.40625 23.390625 
Q 47.40625 31.296875 43.53125 35.828125 
Q 39.65625 40.375 33.015625 40.375 
z
M 52.59375 71.296875 
L 52.59375 62.3125 
Q 48.875 64.0625 45.09375 64.984375 
Q 41.3125 65.921875 37.59375 65.921875 
Q 27.828125 65.921875 22.671875 59.328125 
Q 17.53125 52.734375 16.796875 39.40625 
Q 19.671875 43.65625 24.015625 45.921875 
Q 28.375 48.1875 33.59375 48.1875 
Q 44.578125 48.1875 50.953125 41.515625 
Q 57.328125 34.859375 57.328125 23.390625 
Q 57.328125 12.15625 50.6875 5.359375 
Q 44.046875 -1.421875 33.015625 -1.421875 
Q 20.359375 -1.421875 13.671875 8.265625 
Q 6.984375 17.96875 6.984375 36.375 
Q 6.984375 53.65625 15.1875 63.9375 
Q 23.390625 74.21875 37.203125 74.21875 
Q 40.921875 74.21875 44.703125 73.484375 
Q 48.484375 72.75 52.59375 71.296875 
z
" id="DejaVuSans-54"/>
      </defs>
      <g transform="translate(59.570625 211.834555)scale(0.14 -0.14)">
       <use xlink:href="#DejaVuSans-53"/>
       <use x="63.623047" xlink:href="#DejaVuSans-54"/>
      </g>
     </g>
    </g>
    <g id="ytick_4">
     <g id="line2d_17">
      <path clip-path="url(#pc231eb9bb7)" d="M 80.885625 165.653528 
L 409.525602 165.653528 
" style="fill:none;stroke:#cbcbcb;"/>
     </g>
     <g id="line2d_18"/>
     <g id="text_10">
      <!-- 57 -->
      <defs>
       <path d="M 8.203125 72.90625 
L 55.078125 72.90625 
L 55.078125 68.703125 
L 28.609375 0 
L 18.3125 0 
L 43.21875 64.59375 
L 8.203125 64.59375 
z
" id="DejaVuSans-55"/>
      </defs>
      <g transform="translate(59.570625 170.972434)scale(0.14 -0.14)">
       <use xlink:href="#DejaVuSans-53"/>
       <use x="63.623047" xlink:href="#DejaVuSans-55"/>
      </g>
     </g>
    </g>
    <g id="ytick_5">
     <g id="line2d_19">
      <path clip-path="url(#pc231eb9bb7)" d="M 80.885625 124.791406 
L 409.525602 124.791406 
" style="fill:none;stroke:#cbcbcb;"/>
     </g>
     <g id="line2d_20"/>
     <g id="text_11">
      <!-- 58 -->
      <defs>
       <path d="M 31.78125 34.625 
Q 24.75 34.625 20.71875 30.859375 
Q 16.703125 27.09375 16.703125 20.515625 
Q 16.703125 13.921875 20.71875 10.15625 
Q 24.75 6.390625 31.78125 6.390625 
Q 38.8125 6.390625 42.859375 10.171875 
Q 46.921875 13.96875 46.921875 20.515625 
Q 46.921875 27.09375 42.890625 30.859375 
Q 38.875 34.625 31.78125 34.625 
z
M 21.921875 38.8125 
Q 15.578125 40.375 12.03125 44.71875 
Q 8.5 49.078125 8.5 55.328125 
Q 8.5 64.0625 14.71875 69.140625 
Q 20.953125 74.21875 31.78125 74.21875 
Q 42.671875 74.21875 48.875 69.140625 
Q 55.078125 64.0625 55.078125 55.328125 
Q 55.078125 49.078125 51.53125 44.71875 
Q 48 40.375 41.703125 38.8125 
Q 48.828125 37.15625 52.796875 32.3125 
Q 56.78125 27.484375 56.78125 20.515625 
Q 56.78125 9.90625 50.3125 4.234375 
Q 43.84375 -1.421875 31.78125 -1.421875 
Q 19.734375 -1.421875 13.25 4.234375 
Q 6.78125 9.90625 6.78125 20.515625 
Q 6.78125 27.484375 10.78125 32.3125 
Q 14.796875 37.15625 21.921875 38.8125 
z
M 18.3125 54.390625 
Q 18.3125 48.734375 21.84375 45.5625 
Q 25.390625 42.390625 31.78125 42.390625 
Q 38.140625 42.390625 41.71875 45.5625 
Q 45.3125 48.734375 45.3125 54.390625 
Q 45.3125 60.0625 41.71875 63.234375 
Q 38.140625 66.40625 31.78125 66.40625 
Q 25.390625 66.40625 21.84375 63.234375 
Q 18.3125 60.0625 18.3125 54.390625 
z
" id="DejaVuSans-56"/>
      </defs>
      <g transform="translate(59.570625 130.110313)scale(0.14 -0.14)">
       <use xlink:href="#DejaVuSans-53"/>
       <use x="63.623047" xlink:href="#DejaVuSans-56"/>
      </g>
     </g>
    </g>
    <g id="ytick_6">
     <g id="line2d_21">
      <path clip-path="url(#pc231eb9bb7)" d="M 80.885625 83.929285 
L 409.525602 83.929285 
" style="fill:none;stroke:#cbcbcb;"/>
     </g>
     <g id="line2d_22"/>
     <g id="text_12">
      <!-- 59 -->
      <defs>
       <path d="M 10.984375 1.515625 
L 10.984375 10.5 
Q 14.703125 8.734375 18.5 7.8125 
Q 22.3125 6.890625 25.984375 6.890625 
Q 35.75 6.890625 40.890625 13.453125 
Q 46.046875 20.015625 46.78125 33.40625 
Q 43.953125 29.203125 39.59375 26.953125 
Q 35.25 24.703125 29.984375 24.703125 
Q 19.046875 24.703125 12.671875 31.3125 
Q 6.296875 37.9375 6.296875 49.421875 
Q 6.296875 60.640625 12.9375 67.421875 
Q 19.578125 74.21875 30.609375 74.21875 
Q 43.265625 74.21875 49.921875 64.515625 
Q 56.59375 54.828125 56.59375 36.375 
Q 56.59375 19.140625 48.40625 8.859375 
Q 40.234375 -1.421875 26.421875 -1.421875 
Q 22.703125 -1.421875 18.890625 -0.6875 
Q 15.09375 0.046875 10.984375 1.515625 
z
M 30.609375 32.421875 
Q 37.25 32.421875 41.125 36.953125 
Q 45.015625 41.5 45.015625 49.421875 
Q 45.015625 57.28125 41.125 61.84375 
Q 37.25 66.40625 30.609375 66.40625 
Q 23.96875 66.40625 20.09375 61.84375 
Q 16.21875 57.28125 16.21875 49.421875 
Q 16.21875 41.5 20.09375 36.953125 
Q 23.96875 32.421875 30.609375 32.421875 
z
" id="DejaVuSans-57"/>
      </defs>
      <g transform="translate(59.570625 89.248191)scale(0.14 -0.14)">
       <use xlink:href="#DejaVuSans-53"/>
       <use x="63.623047" xlink:href="#DejaVuSans-57"/>
      </g>
     </g>
    </g>
    <g id="ytick_7">
     <g id="line2d_23">
      <path clip-path="url(#pc231eb9bb7)" d="M 80.885625 43.067164 
L 409.525602 43.067164 
" style="fill:none;stroke:#cbcbcb;"/>
     </g>
     <g id="line2d_24"/>
     <g id="text_13">
      <!-- 60 -->
      <defs>
       <path d="M 31.78125 66.40625 
Q 24.171875 66.40625 20.328125 58.90625 
Q 16.5 51.421875 16.5 36.375 
Q 16.5 21.390625 20.328125 13.890625 
Q 24.171875 6.390625 31.78125 6.390625 
Q 39.453125 6.390625 43.28125 13.890625 
Q 47.125 21.390625 47.125 36.375 
Q 47.125 51.421875 43.28125 58.90625 
Q 39.453125 66.40625 31.78125 66.40625 
z
M 31.78125 74.21875 
Q 44.046875 74.21875 50.515625 64.515625 
Q 56.984375 54.828125 56.984375 36.375 
Q 56.984375 17.96875 50.515625 8.265625 
Q 44.046875 -1.421875 31.78125 -1.421875 
Q 19.53125 -1.421875 13.0625 8.265625 
Q 6.59375 17.96875 6.59375 36.375 
Q 6.59375 54.828125 13.0625 64.515625 
Q 19.53125 74.21875 31.78125 74.21875 
z
" id="DejaVuSans-48"/>
      </defs>
      <g transform="translate(59.570625 48.38607)scale(0.14 -0.14)">
       <use xlink:href="#DejaVuSans-54"/>
       <use x="63.623047" xlink:href="#DejaVuSans-48"/>
      </g>
     </g>
    </g>
    <g id="text_14">
     <!-- average error(test_deviance) -->
     <defs>
      <path d="M 2.984375 54.6875 
L 12.5 54.6875 
L 29.59375 8.796875 
L 46.6875 54.6875 
L 56.203125 54.6875 
L 35.6875 0 
L 23.484375 0 
z
" id="DejaVuSans-118"/>
      <path d="M 45.40625 27.984375 
Q 45.40625 37.75 41.375 43.109375 
Q 37.359375 48.484375 30.078125 48.484375 
Q 22.859375 48.484375 18.828125 43.109375 
Q 14.796875 37.75 14.796875 27.984375 
Q 14.796875 18.265625 18.828125 12.890625 
Q 22.859375 7.515625 30.078125 7.515625 
Q 37.359375 7.515625 41.375 12.890625 
Q 45.40625 18.265625 45.40625 27.984375 
z
M 54.390625 6.78125 
Q 54.390625 -7.171875 48.1875 -13.984375 
Q 42 -20.796875 29.203125 -20.796875 
Q 24.46875 -20.796875 20.265625 -20.09375 
Q 16.0625 -19.390625 12.109375 -17.921875 
L 12.109375 -9.1875 
Q 16.0625 -11.328125 19.921875 -12.34375 
Q 23.78125 -13.375 27.78125 -13.375 
Q 36.625 -13.375 41.015625 -8.765625 
Q 45.40625 -4.15625 45.40625 5.171875 
L 45.40625 9.625 
Q 42.625 4.78125 38.28125 2.390625 
Q 33.9375 0 27.875 0 
Q 17.828125 0 11.671875 7.65625 
Q 5.515625 15.328125 5.515625 27.984375 
Q 5.515625 40.671875 11.671875 48.328125 
Q 17.828125 56 27.875 56 
Q 33.9375 56 38.28125 53.609375 
Q 42.625 51.21875 45.40625 46.390625 
L 45.40625 54.6875 
L 54.390625 54.6875 
z
" id="DejaVuSans-103"/>
      <path d="M 31 75.875 
Q 24.46875 64.65625 21.28125 53.65625 
Q 18.109375 42.671875 18.109375 31.390625 
Q 18.109375 20.125 21.3125 9.0625 
Q 24.515625 -2 31 -13.1875 
L 23.1875 -13.1875 
Q 15.875 -1.703125 12.234375 9.375 
Q 8.59375 20.453125 8.59375 31.390625 
Q 8.59375 42.28125 12.203125 53.3125 
Q 15.828125 64.359375 23.1875 75.875 
z
" id="DejaVuSans-40"/>
      <path d="M 50.984375 -16.609375 
L 50.984375 -23.578125 
L -0.984375 -23.578125 
L -0.984375 -16.609375 
z
" id="DejaVuSans-95"/>
      <path d="M 45.40625 46.390625 
L 45.40625 75.984375 
L 54.390625 75.984375 
L 54.390625 0 
L 45.40625 0 
L 45.40625 8.203125 
Q 42.578125 3.328125 38.25 0.953125 
Q 33.9375 -1.421875 27.875 -1.421875 
Q 17.96875 -1.421875 11.734375 6.484375 
Q 5.515625 14.40625 5.515625 27.296875 
Q 5.515625 40.1875 11.734375 48.09375 
Q 17.96875 56 27.875 56 
Q 33.9375 56 38.25 53.625 
Q 42.578125 51.265625 45.40625 46.390625 
z
M 14.796875 27.296875 
Q 14.796875 17.390625 18.875 11.75 
Q 22.953125 6.109375 30.078125 6.109375 
Q 37.203125 6.109375 41.296875 11.75 
Q 45.40625 17.390625 45.40625 27.296875 
Q 45.40625 37.203125 41.296875 42.84375 
Q 37.203125 48.484375 30.078125 48.484375 
Q 22.953125 48.484375 18.875 42.84375 
Q 14.796875 37.203125 14.796875 27.296875 
z
" id="DejaVuSans-100"/>
      <path d="M 9.421875 54.6875 
L 18.40625 54.6875 
L 18.40625 0 
L 9.421875 0 
z
M 9.421875 75.984375 
L 18.40625 75.984375 
L 18.40625 64.59375 
L 9.421875 64.59375 
z
" id="DejaVuSans-105"/>
      <path d="M 48.78125 52.59375 
L 48.78125 44.1875 
Q 44.96875 46.296875 41.140625 47.34375 
Q 37.3125 48.390625 33.40625 48.390625 
Q 24.65625 48.390625 19.8125 42.84375 
Q 14.984375 37.3125 14.984375 27.296875 
Q 14.984375 17.28125 19.8125 11.734375 
Q 24.65625 6.203125 33.40625 6.203125 
Q 37.3125 6.203125 41.140625 7.25 
Q 44.96875 8.296875 48.78125 10.40625 
L 48.78125 2.09375 
Q 45.015625 0.34375 40.984375 -0.53125 
Q 36.96875 -1.421875 32.421875 -1.421875 
Q 20.0625 -1.421875 12.78125 6.34375 
Q 5.515625 14.109375 5.515625 27.296875 
Q 5.515625 40.671875 12.859375 48.328125 
Q 20.21875 56 33.015625 56 
Q 37.15625 56 41.109375 55.140625 
Q 45.0625 54.296875 48.78125 52.59375 
z
" id="DejaVuSans-99"/>
      <path d="M 8.015625 75.875 
L 15.828125 75.875 
Q 23.140625 64.359375 26.78125 53.3125 
Q 30.421875 42.28125 30.421875 31.390625 
Q 30.421875 20.453125 26.78125 9.375 
Q 23.140625 -1.703125 15.828125 -13.1875 
L 8.015625 -13.1875 
Q 14.5 -2 17.703125 9.0625 
Q 20.90625 20.125 20.90625 31.390625 
Q 20.90625 42.671875 17.703125 53.65625 
Q 14.5 64.65625 8.015625 75.875 
z
" id="DejaVuSans-41"/>
     </defs>
     <g transform="translate(51.6095 296.872062)rotate(-90)scale(0.168 -0.168)">
      <use xlink:href="#DejaVuSans-97"/>
      <use x="61.279297" xlink:href="#DejaVuSans-118"/>
      <use x="120.458984" xlink:href="#DejaVuSans-101"/>
      <use x="181.982422" xlink:href="#DejaVuSans-114"/>
      <use x="223.095703" xlink:href="#DejaVuSans-97"/>
      <use x="284.375" xlink:href="#DejaVuSans-103"/>
      <use x="347.851562" xlink:href="#DejaVuSans-101"/>
      <use x="409.375" xlink:href="#DejaVuSans-32"/>
      <use x="441.162109" xlink:href="#DejaVuSans-101"/>
      <use x="502.685547" xlink:href="#DejaVuSans-114"/>
      <use x="542.048828" xlink:href="#DejaVuSans-114"/>
      <use x="580.912109" xlink:href="#DejaVuSans-111"/>
      <use x="642.09375" xlink:href="#DejaVuSans-114"/>
      <use x="683.207031" xlink:href="#DejaVuSans-40"/>
      <use x="722.220703" xlink:href="#DejaVuSans-116"/>
      <use x="761.429688" xlink:href="#DejaVuSans-101"/>
      <use x="822.953125" xlink:href="#DejaVuSans-115"/>
      <use x="875.052734" xlink:href="#DejaVuSans-116"/>
      <use x="914.261719" xlink:href="#DejaVuSans-95"/>
      <use x="964.261719" xlink:href="#DejaVuSans-100"/>
      <use x="1027.738281" xlink:href="#DejaVuSans-101"/>
      <use x="1089.261719" xlink:href="#DejaVuSans-118"/>
      <use x="1148.441406" xlink:href="#DejaVuSans-105"/>
      <use x="1176.224609" xlink:href="#DejaVuSans-97"/>
      <use x="1237.503906" xlink:href="#DejaVuSans-110"/>
      <use x="1300.882812" xlink:href="#DejaVuSans-99"/>
      <use x="1355.863281" xlink:href="#DejaVuSans-101"/>
      <use x="1417.386719" xlink:href="#DejaVuSans-41"/>
     </g>
    </g>
   </g>
   <g id="PathCollection_1">
    <defs>
     <path d="M 0 7.071068 
C 1.875269 7.071068 3.673985 6.326016 5 5 
C 6.326016 3.673985 7.071068 1.875269 7.071068 0 
C 7.071068 -1.875269 6.326016 -3.673985 5 -5 
C 3.673985 -6.326016 1.875269 -7.071068 0 -7.071068 
C -1.875269 -7.071068 -3.673985 -6.326016 -5 -5 
C -6.326016 -3.673985 -7.071068 -1.875269 -7.071068 0 
C -7.071068 1.875269 -6.326016 3.673985 -5 5 
C -3.673985 6.326016 -1.875269 7.071068 0 7.071068 
z
" id="m48960631c2" style="stroke:#0000ff;stroke-width:0.5;"/>
    </defs>
    <g clip-path="url(#pc231eb9bb7)">
     <use style="fill:#ffffff;stroke:#0000ff;stroke-width:0.5;" x="95.823806" xlink:href="#m48960631c2" y="90.448046"/>
     <use style="fill:#ffffff;stroke:#0000ff;stroke-width:0.5;" x="170.51471" xlink:href="#m48960631c2" y="48.702727"/>
     <use style="fill:#ffffff;stroke:#0000ff;stroke-width:0.5;" x="245.205613" xlink:href="#m48960631c2" y="171.850715"/>
     <use style="fill:#ffffff;stroke:#0000ff;stroke-width:0.5;" x="319.896517" xlink:href="#m48960631c2" y="163.718164"/>
     <use style="fill:#ffffff;stroke:#0000ff;stroke-width:0.5;" x="394.587421" xlink:href="#m48960631c2" y="109.871676"/>
    </g>
   </g>
   <g id="PathCollection_2">
    <defs>
     <path d="M 0 7.071068 
C 1.875269 7.071068 3.673985 6.326016 5 5 
C 6.326016 3.673985 7.071068 1.875269 7.071068 0 
C 7.071068 -1.875269 6.326016 -3.673985 5 -5 
C 3.673985 -6.326016 1.875269 -7.071068 0 -7.071068 
C -1.875269 -7.071068 -3.673985 -6.326016 -5 -5 
C -6.326016 -3.673985 -7.071068 -1.875269 -7.071068 0 
C -7.071068 1.875269 -6.326016 3.673985 -5 5 
C -3.673985 6.326016 -1.875269 7.071068 0 7.071068 
z
" id="m2c6ca777bc" style="stroke:#008fd5;stroke-width:0.5;"/>
    </defs>
    <g clip-path="url(#pc231eb9bb7)">
     <use style="fill:#008fd5;stroke:#008fd5;stroke-width:0.5;" x="95.823806" xlink:href="#m2c6ca777bc" y="90.448046"/>
     <use style="fill:#008fd5;stroke:#008fd5;stroke-width:0.5;" x="170.51471" xlink:href="#m2c6ca777bc" y="71.078816"/>
     <use style="fill:#008fd5;stroke:#008fd5;stroke-width:0.5;" x="245.205613" xlink:href="#m2c6ca777bc" y="204.790251"/>
     <use style="fill:#008fd5;stroke:#008fd5;stroke-width:0.5;" x="319.896517" xlink:href="#m2c6ca777bc" y="208.98832"/>
     <use style="fill:#008fd5;stroke:#008fd5;stroke-width:0.5;" x="394.587421" xlink:href="#m2c6ca777bc" y="204.247644"/>
    </g>
   </g>
   <g id="line2d_25">
    <path clip-path="url(#pc231eb9bb7)" d="M 95.823806 119.861652 
L 170.51471 84.706486 
L 245.205613 203.898481 
L 319.896517 99.900872 
L 394.587421 87.939211 
" style="fill:none;stroke:#0000ff;stroke-width:4;"/>
   </g>
   <g id="line2d_26">
    <path clip-path="url(#pc231eb9bb7)" d="M 95.823806 204.973094 
L 170.51471 182.402471 
L 245.205613 276.525764 
L 319.896517 197.036012 
L 394.587421 186.370466 
" style="fill:none;stroke:#0000ff;stroke-dasharray:14.8,6.4;stroke-dashoffset:0;stroke-width:4;"/>
   </g>
   <g id="line2d_27">
    <path clip-path="url(#pc231eb9bb7)" d="M 95.823806 204.973094 
L 170.51471 183.917748 
L 245.205613 280.264932 
L 319.896517 206.229304 
L 394.587421 199.46457 
" style="fill:none;stroke:#000000;stroke-width:4;"/>
   </g>
   <g id="line2d_28">
    <path clip-path="url(#pc231eb9bb7)" d="M 95.823806 119.861652 
L 170.51471 105.528797 
L 245.205613 231.653093 
L 319.896517 164.904541 
L 394.587421 181.438842 
" style="fill:none;stroke:#0000ff;stroke-width:4;"/>
   </g>
   <g id="line2d_29">
    <path clip-path="url(#pc231eb9bb7)" d="M 95.823806 204.973094 
L 170.51471 196.073474 
L 245.205613 298.245144 
L 319.896517 239.515821 
L 394.587421 244.890759 
" style="fill:none;stroke:#0000ff;stroke-dasharray:14.8,6.4;stroke-dashoffset:0;stroke-width:4;"/>
   </g>
   <g id="line2d_30">
    <path clip-path="url(#pc231eb9bb7)" d="M 95.823806 204.973094 
L 170.51471 196.969453 
L 245.205613 300.357273 
L 319.896517 244.586332 
L 394.587421 252.001695 
" style="fill:none;stroke:#000000;stroke-width:4;"/>
   </g>
   <g id="patch_3">
    <path d="M 80.885625 312.94 
L 80.885625 36.12 
" style="fill:none;stroke:#f0f0f0;stroke-linecap:square;stroke-linejoin:miter;stroke-width:3;"/>
   </g>
   <g id="patch_4">
    <path d="M 409.525602 312.94 
L 409.525602 36.12 
" style="fill:none;stroke:#f0f0f0;stroke-linecap:square;stroke-linejoin:miter;stroke-width:3;"/>
   </g>
   <g id="patch_5">
    <path d="M 80.885625 312.94 
L 409.525602 312.94 
" style="fill:none;stroke:#f0f0f0;stroke-linecap:square;stroke-linejoin:miter;stroke-width:3;"/>
   </g>
   <g id="patch_6">
    <path d="M 80.885625 36.12 
L 409.525602 36.12 
" style="fill:none;stroke:#f0f0f0;stroke-linecap:square;stroke-linejoin:miter;stroke-width:3;"/>
   </g>
   <g id="text_15">
    <!-- N=20 -->
    <defs>
     <path d="M 9.8125 72.90625 
L 23.09375 72.90625 
L 55.421875 11.921875 
L 55.421875 72.90625 
L 64.984375 72.90625 
L 64.984375 0 
L 51.703125 0 
L 19.390625 60.984375 
L 19.390625 0 
L 9.8125 0 
z
" id="DejaVuSans-78"/>
     <path d="M 10.59375 45.40625 
L 73.1875 45.40625 
L 73.1875 37.203125 
L 10.59375 37.203125 
z
M 10.59375 25.484375 
L 73.1875 25.484375 
L 73.1875 17.1875 
L 10.59375 17.1875 
z
" id="DejaVuSans-61"/>
    </defs>
    <g transform="translate(216.390988 30.12)scale(0.2016 -0.2016)">
     <use xlink:href="#DejaVuSans-78"/>
     <use x="74.804688" xlink:href="#DejaVuSans-61"/>
     <use x="158.59375" xlink:href="#DejaVuSans-50"/>
     <use x="222.216797" xlink:href="#DejaVuSans-48"/>
    </g>
   </g>
   <g id="legend_1">
    <g id="patch_7">
     <path d="M 90.685625 305.94 
L 172.040938 305.94 
Q 174.840938 305.94 174.840938 303.14 
L 174.840938 242.891875 
Q 174.840938 240.091875 172.040938 240.091875 
L 90.685625 240.091875 
Q 87.885625 240.091875 87.885625 242.891875 
L 87.885625 303.14 
Q 87.885625 305.94 90.685625 305.94 
z
" style="fill:#f0f0f0;opacity:0.8;stroke:#cccccc;stroke-linejoin:miter;stroke-width:0.5;"/>
    </g>
    <g id="line2d_31">
     <path d="M 93.485625 251.429687 
L 121.485625 251.429687 
" style="fill:none;stroke:#0000ff;stroke-width:4;"/>
    </g>
    <g id="line2d_32"/>
    <g id="text_16">
     <!-- CV -->
     <defs>
      <path d="M 64.40625 67.28125 
L 64.40625 56.890625 
Q 59.421875 61.53125 53.78125 63.8125 
Q 48.140625 66.109375 41.796875 66.109375 
Q 29.296875 66.109375 22.65625 58.46875 
Q 16.015625 50.828125 16.015625 36.375 
Q 16.015625 21.96875 22.65625 14.328125 
Q 29.296875 6.6875 41.796875 6.6875 
Q 48.140625 6.6875 53.78125 8.984375 
Q 59.421875 11.28125 64.40625 15.921875 
L 64.40625 5.609375 
Q 59.234375 2.09375 53.4375 0.328125 
Q 47.65625 -1.421875 41.21875 -1.421875 
Q 24.65625 -1.421875 15.125 8.703125 
Q 5.609375 18.84375 5.609375 36.375 
Q 5.609375 53.953125 15.125 64.078125 
Q 24.65625 74.21875 41.21875 74.21875 
Q 47.75 74.21875 53.53125 72.484375 
Q 59.328125 70.75 64.40625 67.28125 
z
" id="DejaVuSans-67"/>
      <path d="M 28.609375 0 
L 0.78125 72.90625 
L 11.078125 72.90625 
L 34.1875 11.53125 
L 57.328125 72.90625 
L 67.578125 72.90625 
L 39.796875 0 
z
" id="DejaVuSans-86"/>
     </defs>
     <g transform="translate(132.685625 256.329687)scale(0.14 -0.14)">
      <use xlink:href="#DejaVuSans-67"/>
      <use x="69.824219" xlink:href="#DejaVuSans-86"/>
     </g>
    </g>
    <g id="line2d_33">
     <path d="M 93.485625 271.979062 
L 121.485625 271.979062 
" style="fill:none;stroke:#0000ff;stroke-dasharray:14.8,6.4;stroke-dashoffset:0;stroke-width:4;"/>
    </g>
    <g id="line2d_34"/>
    <g id="text_17">
     <!-- PSIS -->
     <defs>
      <path d="M 19.671875 64.796875 
L 19.671875 37.40625 
L 32.078125 37.40625 
Q 38.96875 37.40625 42.71875 40.96875 
Q 46.484375 44.53125 46.484375 51.125 
Q 46.484375 57.671875 42.71875 61.234375 
Q 38.96875 64.796875 32.078125 64.796875 
z
M 9.8125 72.90625 
L 32.078125 72.90625 
Q 44.34375 72.90625 50.609375 67.359375 
Q 56.890625 61.8125 56.890625 51.125 
Q 56.890625 40.328125 50.609375 34.8125 
Q 44.34375 29.296875 32.078125 29.296875 
L 19.671875 29.296875 
L 19.671875 0 
L 9.8125 0 
z
" id="DejaVuSans-80"/>
      <path d="M 53.515625 70.515625 
L 53.515625 60.890625 
Q 47.90625 63.578125 42.921875 64.890625 
Q 37.9375 66.21875 33.296875 66.21875 
Q 25.25 66.21875 20.875 63.09375 
Q 16.5 59.96875 16.5 54.203125 
Q 16.5 49.359375 19.40625 46.890625 
Q 22.3125 44.4375 30.421875 42.921875 
L 36.375 41.703125 
Q 47.40625 39.59375 52.65625 34.296875 
Q 57.90625 29 57.90625 20.125 
Q 57.90625 9.515625 50.796875 4.046875 
Q 43.703125 -1.421875 29.984375 -1.421875 
Q 24.8125 -1.421875 18.96875 -0.25 
Q 13.140625 0.921875 6.890625 3.21875 
L 6.890625 13.375 
Q 12.890625 10.015625 18.65625 8.296875 
Q 24.421875 6.59375 29.984375 6.59375 
Q 38.421875 6.59375 43.015625 9.90625 
Q 47.609375 13.234375 47.609375 19.390625 
Q 47.609375 24.75 44.3125 27.78125 
Q 41.015625 30.8125 33.5 32.328125 
L 27.484375 33.5 
Q 16.453125 35.6875 11.515625 40.375 
Q 6.59375 45.0625 6.59375 53.421875 
Q 6.59375 63.09375 13.40625 68.65625 
Q 20.21875 74.21875 32.171875 74.21875 
Q 37.3125 74.21875 42.625 73.28125 
Q 47.953125 72.359375 53.515625 70.515625 
z
" id="DejaVuSans-83"/>
      <path d="M 9.8125 72.90625 
L 19.671875 72.90625 
L 19.671875 0 
L 9.8125 0 
z
" id="DejaVuSans-73"/>
     </defs>
     <g transform="translate(132.685625 276.879062)scale(0.14 -0.14)">
      <use xlink:href="#DejaVuSans-80"/>
      <use x="60.302734" xlink:href="#DejaVuSans-83"/>
      <use x="123.779297" xlink:href="#DejaVuSans-73"/>
      <use x="153.271484" xlink:href="#DejaVuSans-83"/>
     </g>
    </g>
    <g id="line2d_35">
     <path d="M 93.485625 292.528437 
L 121.485625 292.528437 
" style="fill:none;stroke:#000000;stroke-width:4;"/>
    </g>
    <g id="line2d_36"/>
    <g id="text_18">
     <!-- WAIC -->
     <defs>
      <path d="M 3.328125 72.90625 
L 13.28125 72.90625 
L 28.609375 11.28125 
L 43.890625 72.90625 
L 54.984375 72.90625 
L 70.3125 11.28125 
L 85.59375 72.90625 
L 95.609375 72.90625 
L 77.296875 0 
L 64.890625 0 
L 49.515625 63.28125 
L 33.984375 0 
L 21.578125 0 
z
" id="DejaVuSans-87"/>
      <path d="M 34.1875 63.1875 
L 20.796875 26.90625 
L 47.609375 26.90625 
z
M 28.609375 72.90625 
L 39.796875 72.90625 
L 67.578125 0 
L 57.328125 0 
L 50.6875 18.703125 
L 17.828125 18.703125 
L 11.1875 0 
L 0.78125 0 
z
" id="DejaVuSans-65"/>
     </defs>
     <g transform="translate(132.685625 297.428437)scale(0.14 -0.14)">
      <use xlink:href="#DejaVuSans-87"/>
      <use x="93.376953" xlink:href="#DejaVuSans-65"/>
      <use x="161.785156" xlink:href="#DejaVuSans-73"/>
      <use x="191.277344" xlink:href="#DejaVuSans-67"/>
     </g>
    </g>
   </g>
  </g>
  <g id="axes_2">
   <g id="patch_8">
    <path d="M 459.270602 312.94 
L 787.910579 312.94 
L 787.910579 36.12 
L 459.270602 36.12 
z
" style="fill:#f0f0f0;"/>
   </g>
   <g id="matplotlib.axis_3">
    <g id="xtick_6">
     <g id="line2d_37">
      <path clip-path="url(#p0086017cc3)" d="M 474.208783 312.94 
L 474.208783 36.12 
" style="fill:none;stroke:#cbcbcb;"/>
     </g>
     <g id="line2d_38"/>
     <g id="text_19">
      <!-- 1 -->
      <g transform="translate(469.755033 327.077812)scale(0.14 -0.14)">
       <use xlink:href="#DejaVuSans-49"/>
      </g>
     </g>
    </g>
    <g id="xtick_7">
     <g id="line2d_39">
      <path clip-path="url(#p0086017cc3)" d="M 548.899686 312.94 
L 548.899686 36.12 
" style="fill:none;stroke:#cbcbcb;"/>
     </g>
     <g id="line2d_40"/>
     <g id="text_20">
      <!-- 2 -->
      <g transform="translate(544.445936 327.077812)scale(0.14 -0.14)">
       <use xlink:href="#DejaVuSans-50"/>
      </g>
     </g>
    </g>
    <g id="xtick_8">
     <g id="line2d_41">
      <path clip-path="url(#p0086017cc3)" d="M 623.59059 312.94 
L 623.59059 36.12 
" style="fill:none;stroke:#cbcbcb;"/>
     </g>
     <g id="line2d_42"/>
     <g id="text_21">
      <!-- 3 -->
      <g transform="translate(619.13684 327.077812)scale(0.14 -0.14)">
       <use xlink:href="#DejaVuSans-51"/>
      </g>
     </g>
    </g>
    <g id="xtick_9">
     <g id="line2d_43">
      <path clip-path="url(#p0086017cc3)" d="M 698.281494 312.94 
L 698.281494 36.12 
" style="fill:none;stroke:#cbcbcb;"/>
     </g>
     <g id="line2d_44"/>
     <g id="text_22">
      <!-- 4 -->
      <g transform="translate(693.827744 327.077812)scale(0.14 -0.14)">
       <use xlink:href="#DejaVuSans-52"/>
      </g>
     </g>
    </g>
    <g id="xtick_10">
     <g id="line2d_45">
      <path clip-path="url(#p0086017cc3)" d="M 772.972398 312.94 
L 772.972398 36.12 
" style="fill:none;stroke:#cbcbcb;"/>
     </g>
     <g id="line2d_46"/>
     <g id="text_23">
      <!-- 5 -->
      <g transform="translate(768.518648 327.077812)scale(0.14 -0.14)">
       <use xlink:href="#DejaVuSans-53"/>
      </g>
     </g>
    </g>
    <g id="text_24">
     <!-- number of parameters -->
     <g transform="translate(528.648278 346.75475)scale(0.168 -0.168)">
      <use xlink:href="#DejaVuSans-110"/>
      <use x="63.378906" xlink:href="#DejaVuSans-117"/>
      <use x="126.757812" xlink:href="#DejaVuSans-109"/>
      <use x="224.169922" xlink:href="#DejaVuSans-98"/>
      <use x="287.646484" xlink:href="#DejaVuSans-101"/>
      <use x="349.169922" xlink:href="#DejaVuSans-114"/>
      <use x="390.283203" xlink:href="#DejaVuSans-32"/>
      <use x="422.070312" xlink:href="#DejaVuSans-111"/>
      <use x="483.251953" xlink:href="#DejaVuSans-102"/>
      <use x="518.457031" xlink:href="#DejaVuSans-32"/>
      <use x="550.244141" xlink:href="#DejaVuSans-112"/>
      <use x="613.720703" xlink:href="#DejaVuSans-97"/>
      <use x="675" xlink:href="#DejaVuSans-114"/>
      <use x="716.113281" xlink:href="#DejaVuSans-97"/>
      <use x="777.392578" xlink:href="#DejaVuSans-109"/>
      <use x="874.804688" xlink:href="#DejaVuSans-101"/>
      <use x="936.328125" xlink:href="#DejaVuSans-116"/>
      <use x="975.537109" xlink:href="#DejaVuSans-101"/>
      <use x="1037.060547" xlink:href="#DejaVuSans-114"/>
      <use x="1078.173828" xlink:href="#DejaVuSans-115"/>
     </g>
    </g>
   </g>
   <g id="matplotlib.axis_4">
    <g id="ytick_8">
     <g id="line2d_47">
      <path clip-path="url(#p0086017cc3)" d="M 459.270602 310.218627 
L 787.910579 310.218627 
" style="fill:none;stroke:#cbcbcb;"/>
     </g>
     <g id="line2d_48"/>
     <g id="text_25">
      <!-- 5.0 -->
      <defs>
       <path d="M 10.6875 12.40625 
L 21 12.40625 
L 21 0 
L 10.6875 0 
z
" id="DejaVuSans-46"/>
      </defs>
      <g transform="translate(433.506227 315.537534)scale(0.14 -0.14)">
       <use xlink:href="#DejaVuSans-53"/>
       <use x="63.623047" xlink:href="#DejaVuSans-46"/>
       <use x="95.410156" xlink:href="#DejaVuSans-48"/>
      </g>
     </g>
    </g>
    <g id="ytick_9">
     <g id="line2d_49">
      <path clip-path="url(#p0086017cc3)" d="M 459.270602 273.793063 
L 787.910579 273.793063 
" style="fill:none;stroke:#cbcbcb;"/>
     </g>
     <g id="line2d_50"/>
     <g id="text_26">
      <!-- 5.5 -->
      <g transform="translate(433.506227 279.11197)scale(0.14 -0.14)">
       <use xlink:href="#DejaVuSans-53"/>
       <use x="63.623047" xlink:href="#DejaVuSans-46"/>
       <use x="95.410156" xlink:href="#DejaVuSans-53"/>
      </g>
     </g>
    </g>
    <g id="ytick_10">
     <g id="line2d_51">
      <path clip-path="url(#p0086017cc3)" d="M 459.270602 237.367499 
L 787.910579 237.367499 
" style="fill:none;stroke:#cbcbcb;"/>
     </g>
     <g id="line2d_52"/>
     <g id="text_27">
      <!-- 6.0 -->
      <g transform="translate(433.506227 242.686405)scale(0.14 -0.14)">
       <use xlink:href="#DejaVuSans-54"/>
       <use x="63.623047" xlink:href="#DejaVuSans-46"/>
       <use x="95.410156" xlink:href="#DejaVuSans-48"/>
      </g>
     </g>
    </g>
    <g id="ytick_11">
     <g id="line2d_53">
      <path clip-path="url(#p0086017cc3)" d="M 459.270602 200.941935 
L 787.910579 200.941935 
" style="fill:none;stroke:#cbcbcb;"/>
     </g>
     <g id="line2d_54"/>
     <g id="text_28">
      <!-- 6.5 -->
      <g transform="translate(433.506227 206.260841)scale(0.14 -0.14)">
       <use xlink:href="#DejaVuSans-54"/>
       <use x="63.623047" xlink:href="#DejaVuSans-46"/>
       <use x="95.410156" xlink:href="#DejaVuSans-53"/>
      </g>
     </g>
    </g>
    <g id="ytick_12">
     <g id="line2d_55">
      <path clip-path="url(#p0086017cc3)" d="M 459.270602 164.516371 
L 787.910579 164.516371 
" style="fill:none;stroke:#cbcbcb;"/>
     </g>
     <g id="line2d_56"/>
     <g id="text_29">
      <!-- 7.0 -->
      <g transform="translate(433.506227 169.835277)scale(0.14 -0.14)">
       <use xlink:href="#DejaVuSans-55"/>
       <use x="63.623047" xlink:href="#DejaVuSans-46"/>
       <use x="95.410156" xlink:href="#DejaVuSans-48"/>
      </g>
     </g>
    </g>
    <g id="ytick_13">
     <g id="line2d_57">
      <path clip-path="url(#p0086017cc3)" d="M 459.270602 128.090807 
L 787.910579 128.090807 
" style="fill:none;stroke:#cbcbcb;"/>
     </g>
     <g id="line2d_58"/>
     <g id="text_30">
      <!-- 7.5 -->
      <g transform="translate(433.506227 133.409713)scale(0.14 -0.14)">
       <use xlink:href="#DejaVuSans-55"/>
       <use x="63.623047" xlink:href="#DejaVuSans-46"/>
       <use x="95.410156" xlink:href="#DejaVuSans-53"/>
      </g>
     </g>
    </g>
    <g id="ytick_14">
     <g id="line2d_59">
      <path clip-path="url(#p0086017cc3)" d="M 459.270602 91.665242 
L 787.910579 91.665242 
" style="fill:none;stroke:#cbcbcb;"/>
     </g>
     <g id="line2d_60"/>
     <g id="text_31">
      <!-- 8.0 -->
      <g transform="translate(433.506227 96.984149)scale(0.14 -0.14)">
       <use xlink:href="#DejaVuSans-56"/>
       <use x="63.623047" xlink:href="#DejaVuSans-46"/>
       <use x="95.410156" xlink:href="#DejaVuSans-48"/>
      </g>
     </g>
    </g>
    <g id="ytick_15">
     <g id="line2d_61">
      <path clip-path="url(#p0086017cc3)" d="M 459.270602 55.239678 
L 787.910579 55.239678 
" style="fill:none;stroke:#cbcbcb;"/>
     </g>
     <g id="line2d_62"/>
     <g id="text_32">
      <!-- 8.5 -->
      <g transform="translate(433.506227 60.558584)scale(0.14 -0.14)">
       <use xlink:href="#DejaVuSans-56"/>
       <use x="63.623047" xlink:href="#DejaVuSans-46"/>
       <use x="95.410156" xlink:href="#DejaVuSans-53"/>
      </g>
     </g>
    </g>
   </g>
   <g id="line2d_63">
    <path clip-path="url(#p0086017cc3)" d="M 474.208783 148.880011 
L 548.899686 73.181017 
L 623.59059 156.900523 
L 698.281494 48.702727 
L 772.972398 56.67207 
" style="fill:none;stroke:#0000ff;stroke-width:4;"/>
   </g>
   <g id="line2d_64">
    <path clip-path="url(#p0086017cc3)" d="M 474.208783 200.125519 
L 548.899686 177.488316 
L 623.59059 263.16351 
L 698.281494 236.921288 
L 772.972398 277.071578 
" style="fill:none;stroke:#0000ff;stroke-dasharray:14.8,6.4;stroke-dashoffset:0;stroke-width:4;"/>
   </g>
   <g id="line2d_65">
    <path clip-path="url(#p0086017cc3)" d="M 474.208783 200.125485 
L 548.899686 178.343152 
L 623.59059 264.755627 
L 698.281494 243.545918 
L 772.972398 282.399364 
" style="fill:none;stroke:#000000;stroke-width:4;"/>
   </g>
   <g id="line2d_66">
    <path clip-path="url(#p0086017cc3)" d="M 474.208783 148.880011 
L 548.899686 98.78694 
L 623.59059 182.180325 
L 698.281494 128.675762 
L 772.972398 151.387166 
" style="fill:none;stroke:#0000ff;stroke-width:4;"/>
   </g>
   <g id="line2d_67">
    <path clip-path="url(#p0086017cc3)" d="M 474.208783 200.125519 
L 548.899686 184.6171 
L 623.59059 269.662804 
L 698.281494 259.34704 
L 772.972398 297.417038 
" style="fill:none;stroke:#0000ff;stroke-dasharray:14.8,6.4;stroke-dashoffset:0;stroke-width:4;"/>
   </g>
   <g id="line2d_68">
    <path clip-path="url(#p0086017cc3)" d="M 474.208783 200.125485 
L 548.899686 185.098015 
L 623.59059 270.652494 
L 698.281494 262.819672 
L 772.972398 300.357273 
" style="fill:none;stroke:#000000;stroke-width:4;"/>
   </g>
   <g id="patch_9">
    <path d="M 459.270602 312.94 
L 459.270602 36.12 
" style="fill:none;stroke:#f0f0f0;stroke-linecap:square;stroke-linejoin:miter;stroke-width:3;"/>
   </g>
   <g id="patch_10">
    <path d="M 787.910579 312.94 
L 787.910579 36.12 
" style="fill:none;stroke:#f0f0f0;stroke-linecap:square;stroke-linejoin:miter;stroke-width:3;"/>
   </g>
   <g id="patch_11">
    <path d="M 459.270602 312.94 
L 787.910579 312.94 
" style="fill:none;stroke:#f0f0f0;stroke-linecap:square;stroke-linejoin:miter;stroke-width:3;"/>
   </g>
   <g id="patch_12">
    <path d="M 459.270602 36.12 
L 787.910579 36.12 
" style="fill:none;stroke:#f0f0f0;stroke-linecap:square;stroke-linejoin:miter;stroke-width:3;"/>
   </g>
   <g id="text_33">
    <!-- Flat prior -->
    <defs>
     <path d="M 9.8125 72.90625 
L 51.703125 72.90625 
L 51.703125 64.59375 
L 19.671875 64.59375 
L 19.671875 43.109375 
L 48.578125 43.109375 
L 48.578125 34.8125 
L 19.671875 34.8125 
L 19.671875 0 
L 9.8125 0 
z
" id="DejaVuSans-70"/>
     <path d="M 9.421875 75.984375 
L 18.40625 75.984375 
L 18.40625 0 
L 9.421875 0 
z
" id="DejaVuSans-108"/>
    </defs>
    <g transform="translate(772.972398 56.67207)scale(0.14 -0.14)">
     <use xlink:href="#DejaVuSans-70"/>
     <use x="57.519531" xlink:href="#DejaVuSans-108"/>
     <use x="85.302734" xlink:href="#DejaVuSans-97"/>
     <use x="146.582031" xlink:href="#DejaVuSans-116"/>
     <use x="185.791016" xlink:href="#DejaVuSans-32"/>
     <use x="217.578125" xlink:href="#DejaVuSans-112"/>
     <use x="281.054688" xlink:href="#DejaVuSans-114"/>
     <use x="322.167969" xlink:href="#DejaVuSans-105"/>
     <use x="349.951172" xlink:href="#DejaVuSans-111"/>
     <use x="411.132812" xlink:href="#DejaVuSans-114"/>
    </g>
   </g>
   <g id="text_34">
    <!-- sigma=0.5 -->
    <g transform="translate(772.972398 151.387166)scale(0.14 -0.14)">
     <use xlink:href="#DejaVuSans-115"/>
     <use x="52.099609" xlink:href="#DejaVuSans-105"/>
     <use x="79.882812" xlink:href="#DejaVuSans-103"/>
     <use x="143.359375" xlink:href="#DejaVuSans-109"/>
     <use x="240.771484" xlink:href="#DejaVuSans-97"/>
     <use x="302.050781" xlink:href="#DejaVuSans-61"/>
     <use x="385.839844" xlink:href="#DejaVuSans-48"/>
     <use x="449.462891" xlink:href="#DejaVuSans-46"/>
     <use x="481.25" xlink:href="#DejaVuSans-53"/>
    </g>
   </g>
   <g id="text_35">
    <!-- N=20 -->
    <g transform="translate(594.775965 30.12)scale(0.2016 -0.2016)">
     <use xlink:href="#DejaVuSans-78"/>
     <use x="74.804688" xlink:href="#DejaVuSans-61"/>
     <use x="158.59375" xlink:href="#DejaVuSans-50"/>
     <use x="222.216797" xlink:href="#DejaVuSans-48"/>
    </g>
   </g>
  </g>
  <g id="axes_3">
   <g id="patch_13">
    <path d="M 80.885625 665.38 
L 409.525602 665.38 
L 409.525602 388.56 
L 80.885625 388.56 
z
" style="fill:#f0f0f0;"/>
   </g>
   <g id="matplotlib.axis_5">
    <g id="xtick_11">
     <g id="line2d_69">
      <path clip-path="url(#pb895b5f43d)" d="M 95.823806 665.38 
L 95.823806 388.56 
" style="fill:none;stroke:#cbcbcb;"/>
     </g>
     <g id="line2d_70"/>
     <g id="text_36">
      <!-- 1 -->
      <g transform="translate(91.370056 679.517812)scale(0.14 -0.14)">
       <use xlink:href="#DejaVuSans-49"/>
      </g>
     </g>
    </g>
    <g id="xtick_12">
     <g id="line2d_71">
      <path clip-path="url(#pb895b5f43d)" d="M 170.51471 665.38 
L 170.51471 388.56 
" style="fill:none;stroke:#cbcbcb;"/>
     </g>
     <g id="line2d_72"/>
     <g id="text_37">
      <!-- 2 -->
      <g transform="translate(166.06096 679.517812)scale(0.14 -0.14)">
       <use xlink:href="#DejaVuSans-50"/>
      </g>
     </g>
    </g>
    <g id="xtick_13">
     <g id="line2d_73">
      <path clip-path="url(#pb895b5f43d)" d="M 245.205613 665.38 
L 245.205613 388.56 
" style="fill:none;stroke:#cbcbcb;"/>
     </g>
     <g id="line2d_74"/>
     <g id="text_38">
      <!-- 3 -->
      <g transform="translate(240.751863 679.517812)scale(0.14 -0.14)">
       <use xlink:href="#DejaVuSans-51"/>
      </g>
     </g>
    </g>
    <g id="xtick_14">
     <g id="line2d_75">
      <path clip-path="url(#pb895b5f43d)" d="M 319.896517 665.38 
L 319.896517 388.56 
" style="fill:none;stroke:#cbcbcb;"/>
     </g>
     <g id="line2d_76"/>
     <g id="text_39">
      <!-- 4 -->
      <g transform="translate(315.442767 679.517812)scale(0.14 -0.14)">
       <use xlink:href="#DejaVuSans-52"/>
      </g>
     </g>
    </g>
    <g id="xtick_15">
     <g id="line2d_77">
      <path clip-path="url(#pb895b5f43d)" d="M 394.587421 665.38 
L 394.587421 388.56 
" style="fill:none;stroke:#cbcbcb;"/>
     </g>
     <g id="line2d_78"/>
     <g id="text_40">
      <!-- 5 -->
      <g transform="translate(390.133671 679.517812)scale(0.14 -0.14)">
       <use xlink:href="#DejaVuSans-53"/>
      </g>
     </g>
    </g>
    <g id="text_41">
     <!-- number of parameters -->
     <g transform="translate(150.263301 699.19475)scale(0.168 -0.168)">
      <use xlink:href="#DejaVuSans-110"/>
      <use x="63.378906" xlink:href="#DejaVuSans-117"/>
      <use x="126.757812" xlink:href="#DejaVuSans-109"/>
      <use x="224.169922" xlink:href="#DejaVuSans-98"/>
      <use x="287.646484" xlink:href="#DejaVuSans-101"/>
      <use x="349.169922" xlink:href="#DejaVuSans-114"/>
      <use x="390.283203" xlink:href="#DejaVuSans-32"/>
      <use x="422.070312" xlink:href="#DejaVuSans-111"/>
      <use x="483.251953" xlink:href="#DejaVuSans-102"/>
      <use x="518.457031" xlink:href="#DejaVuSans-32"/>
      <use x="550.244141" xlink:href="#DejaVuSans-112"/>
      <use x="613.720703" xlink:href="#DejaVuSans-97"/>
      <use x="675" xlink:href="#DejaVuSans-114"/>
      <use x="716.113281" xlink:href="#DejaVuSans-97"/>
      <use x="777.392578" xlink:href="#DejaVuSans-109"/>
      <use x="874.804688" xlink:href="#DejaVuSans-101"/>
      <use x="936.328125" xlink:href="#DejaVuSans-116"/>
      <use x="975.537109" xlink:href="#DejaVuSans-101"/>
      <use x="1037.060547" xlink:href="#DejaVuSans-114"/>
      <use x="1078.173828" xlink:href="#DejaVuSans-115"/>
     </g>
    </g>
   </g>
   <g id="matplotlib.axis_6">
    <g id="ytick_16">
     <g id="line2d_79">
      <path clip-path="url(#pb895b5f43d)" d="M 80.885625 664.464857 
L 409.525602 664.464857 
" style="fill:none;stroke:#cbcbcb;"/>
     </g>
     <g id="line2d_80"/>
     <g id="text_42">
      <!-- 265.0 -->
      <g transform="translate(37.30625 669.783763)scale(0.14 -0.14)">
       <use xlink:href="#DejaVuSans-50"/>
       <use x="63.623047" xlink:href="#DejaVuSans-54"/>
       <use x="127.246094" xlink:href="#DejaVuSans-53"/>
       <use x="190.869141" xlink:href="#DejaVuSans-46"/>
       <use x="222.65625" xlink:href="#DejaVuSans-48"/>
      </g>
     </g>
    </g>
    <g id="ytick_17">
     <g id="line2d_81">
      <path clip-path="url(#pb895b5f43d)" d="M 80.885625 633.236429 
L 409.525602 633.236429 
" style="fill:none;stroke:#cbcbcb;"/>
     </g>
     <g id="line2d_82"/>
     <g id="text_43">
      <!-- 267.5 -->
      <g transform="translate(37.30625 638.555335)scale(0.14 -0.14)">
       <use xlink:href="#DejaVuSans-50"/>
       <use x="63.623047" xlink:href="#DejaVuSans-54"/>
       <use x="127.246094" xlink:href="#DejaVuSans-55"/>
       <use x="190.869141" xlink:href="#DejaVuSans-46"/>
       <use x="222.65625" xlink:href="#DejaVuSans-53"/>
      </g>
     </g>
    </g>
    <g id="ytick_18">
     <g id="line2d_83">
      <path clip-path="url(#pb895b5f43d)" d="M 80.885625 602.008001 
L 409.525602 602.008001 
" style="fill:none;stroke:#cbcbcb;"/>
     </g>
     <g id="line2d_84"/>
     <g id="text_44">
      <!-- 270.0 -->
      <g transform="translate(37.30625 607.326907)scale(0.14 -0.14)">
       <use xlink:href="#DejaVuSans-50"/>
       <use x="63.623047" xlink:href="#DejaVuSans-55"/>
       <use x="127.246094" xlink:href="#DejaVuSans-48"/>
       <use x="190.869141" xlink:href="#DejaVuSans-46"/>
       <use x="222.65625" xlink:href="#DejaVuSans-48"/>
      </g>
     </g>
    </g>
    <g id="ytick_19">
     <g id="line2d_85">
      <path clip-path="url(#pb895b5f43d)" d="M 80.885625 570.779573 
L 409.525602 570.779573 
" style="fill:none;stroke:#cbcbcb;"/>
     </g>
     <g id="line2d_86"/>
     <g id="text_45">
      <!-- 272.5 -->
      <g transform="translate(37.30625 576.098479)scale(0.14 -0.14)">
       <use xlink:href="#DejaVuSans-50"/>
       <use x="63.623047" xlink:href="#DejaVuSans-55"/>
       <use x="127.246094" xlink:href="#DejaVuSans-50"/>
       <use x="190.869141" xlink:href="#DejaVuSans-46"/>
       <use x="222.65625" xlink:href="#DejaVuSans-53"/>
      </g>
     </g>
    </g>
    <g id="ytick_20">
     <g id="line2d_87">
      <path clip-path="url(#pb895b5f43d)" d="M 80.885625 539.551145 
L 409.525602 539.551145 
" style="fill:none;stroke:#cbcbcb;"/>
     </g>
     <g id="line2d_88"/>
     <g id="text_46">
      <!-- 275.0 -->
      <g transform="translate(37.30625 544.870052)scale(0.14 -0.14)">
       <use xlink:href="#DejaVuSans-50"/>
       <use x="63.623047" xlink:href="#DejaVuSans-55"/>
       <use x="127.246094" xlink:href="#DejaVuSans-53"/>
       <use x="190.869141" xlink:href="#DejaVuSans-46"/>
       <use x="222.65625" xlink:href="#DejaVuSans-48"/>
      </g>
     </g>
    </g>
    <g id="ytick_21">
     <g id="line2d_89">
      <path clip-path="url(#pb895b5f43d)" d="M 80.885625 508.322717 
L 409.525602 508.322717 
" style="fill:none;stroke:#cbcbcb;"/>
     </g>
     <g id="line2d_90"/>
     <g id="text_47">
      <!-- 277.5 -->
      <g transform="translate(37.30625 513.641624)scale(0.14 -0.14)">
       <use xlink:href="#DejaVuSans-50"/>
       <use x="63.623047" xlink:href="#DejaVuSans-55"/>
       <use x="127.246094" xlink:href="#DejaVuSans-55"/>
       <use x="190.869141" xlink:href="#DejaVuSans-46"/>
       <use x="222.65625" xlink:href="#DejaVuSans-53"/>
      </g>
     </g>
    </g>
    <g id="ytick_22">
     <g id="line2d_91">
      <path clip-path="url(#pb895b5f43d)" d="M 80.885625 477.094289 
L 409.525602 477.094289 
" style="fill:none;stroke:#cbcbcb;"/>
     </g>
     <g id="line2d_92"/>
     <g id="text_48">
      <!-- 280.0 -->
      <g transform="translate(37.30625 482.413196)scale(0.14 -0.14)">
       <use xlink:href="#DejaVuSans-50"/>
       <use x="63.623047" xlink:href="#DejaVuSans-56"/>
       <use x="127.246094" xlink:href="#DejaVuSans-48"/>
       <use x="190.869141" xlink:href="#DejaVuSans-46"/>
       <use x="222.65625" xlink:href="#DejaVuSans-48"/>
      </g>
     </g>
    </g>
    <g id="ytick_23">
     <g id="line2d_93">
      <path clip-path="url(#pb895b5f43d)" d="M 80.885625 445.865862 
L 409.525602 445.865862 
" style="fill:none;stroke:#cbcbcb;"/>
     </g>
     <g id="line2d_94"/>
     <g id="text_49">
      <!-- 282.5 -->
      <g transform="translate(37.30625 451.184768)scale(0.14 -0.14)">
       <use xlink:href="#DejaVuSans-50"/>
       <use x="63.623047" xlink:href="#DejaVuSans-56"/>
       <use x="127.246094" xlink:href="#DejaVuSans-50"/>
       <use x="190.869141" xlink:href="#DejaVuSans-46"/>
       <use x="222.65625" xlink:href="#DejaVuSans-53"/>
      </g>
     </g>
    </g>
    <g id="ytick_24">
     <g id="line2d_95">
      <path clip-path="url(#pb895b5f43d)" d="M 80.885625 414.637434 
L 409.525602 414.637434 
" style="fill:none;stroke:#cbcbcb;"/>
     </g>
     <g id="line2d_96"/>
     <g id="text_50">
      <!-- 285.0 -->
      <g transform="translate(37.30625 419.95634)scale(0.14 -0.14)">
       <use xlink:href="#DejaVuSans-50"/>
       <use x="63.623047" xlink:href="#DejaVuSans-56"/>
       <use x="127.246094" xlink:href="#DejaVuSans-53"/>
       <use x="190.869141" xlink:href="#DejaVuSans-46"/>
       <use x="222.65625" xlink:href="#DejaVuSans-48"/>
      </g>
     </g>
    </g>
    <g id="text_51">
     <!-- average error(test_deviance) -->
     <g transform="translate(29.345125 649.312063)rotate(-90)scale(0.168 -0.168)">
      <use xlink:href="#DejaVuSans-97"/>
      <use x="61.279297" xlink:href="#DejaVuSans-118"/>
      <use x="120.458984" xlink:href="#DejaVuSans-101"/>
      <use x="181.982422" xlink:href="#DejaVuSans-114"/>
      <use x="223.095703" xlink:href="#DejaVuSans-97"/>
      <use x="284.375" xlink:href="#DejaVuSans-103"/>
      <use x="347.851562" xlink:href="#DejaVuSans-101"/>
      <use x="409.375" xlink:href="#DejaVuSans-32"/>
      <use x="441.162109" xlink:href="#DejaVuSans-101"/>
      <use x="502.685547" xlink:href="#DejaVuSans-114"/>
      <use x="542.048828" xlink:href="#DejaVuSans-114"/>
      <use x="580.912109" xlink:href="#DejaVuSans-111"/>
      <use x="642.09375" xlink:href="#DejaVuSans-114"/>
      <use x="683.207031" xlink:href="#DejaVuSans-40"/>
      <use x="722.220703" xlink:href="#DejaVuSans-116"/>
      <use x="761.429688" xlink:href="#DejaVuSans-101"/>
      <use x="822.953125" xlink:href="#DejaVuSans-115"/>
      <use x="875.052734" xlink:href="#DejaVuSans-116"/>
      <use x="914.261719" xlink:href="#DejaVuSans-95"/>
      <use x="964.261719" xlink:href="#DejaVuSans-100"/>
      <use x="1027.738281" xlink:href="#DejaVuSans-101"/>
      <use x="1089.261719" xlink:href="#DejaVuSans-118"/>
      <use x="1148.441406" xlink:href="#DejaVuSans-105"/>
      <use x="1176.224609" xlink:href="#DejaVuSans-97"/>
      <use x="1237.503906" xlink:href="#DejaVuSans-110"/>
      <use x="1300.882812" xlink:href="#DejaVuSans-99"/>
      <use x="1355.863281" xlink:href="#DejaVuSans-101"/>
      <use x="1417.386719" xlink:href="#DejaVuSans-41"/>
     </g>
    </g>
   </g>
   <g id="PathCollection_3">
    <g clip-path="url(#pb895b5f43d)">
     <use style="fill:#ffffff;stroke:#0000ff;stroke-width:0.5;" x="95.823806" xlink:href="#m48960631c2" y="438.615316"/>
     <use style="fill:#ffffff;stroke:#0000ff;stroke-width:0.5;" x="170.51471" xlink:href="#m48960631c2" y="449.866623"/>
     <use style="fill:#ffffff;stroke:#0000ff;stroke-width:0.5;" x="245.205613" xlink:href="#m48960631c2" y="650.445992"/>
     <use style="fill:#ffffff;stroke:#0000ff;stroke-width:0.5;" x="319.896517" xlink:href="#m48960631c2" y="619.264452"/>
     <use style="fill:#ffffff;stroke:#0000ff;stroke-width:0.5;" x="394.587421" xlink:href="#m48960631c2" y="589.392738"/>
    </g>
   </g>
   <g id="PathCollection_4">
    <g clip-path="url(#pb895b5f43d)">
     <use style="fill:#008fd5;stroke:#008fd5;stroke-width:0.5;" x="95.823806" xlink:href="#m2c6ca777bc" y="438.615316"/>
     <use style="fill:#008fd5;stroke:#008fd5;stroke-width:0.5;" x="170.51471" xlink:href="#m2c6ca777bc" y="450.421278"/>
     <use style="fill:#008fd5;stroke:#008fd5;stroke-width:0.5;" x="245.205613" xlink:href="#m2c6ca777bc" y="652.797273"/>
     <use style="fill:#008fd5;stroke:#008fd5;stroke-width:0.5;" x="319.896517" xlink:href="#m2c6ca777bc" y="620.138177"/>
     <use style="fill:#008fd5;stroke:#008fd5;stroke-width:0.5;" x="394.587421" xlink:href="#m2c6ca777bc" y="593.050794"/>
    </g>
   </g>
   <g id="line2d_97">
    <path clip-path="url(#pb895b5f43d)" d="M 95.823806 401.142727 
L 170.51471 416.332659 
L 245.205613 619.992556 
L 319.896517 620.045163 
L 394.587421 630.846646 
" style="fill:none;stroke:#0000ff;stroke-width:4;"/>
   </g>
   <g id="line2d_98">
    <path clip-path="url(#pb895b5f43d)" d="M 95.823806 426.570719 
L 170.51471 441.733584 
L 245.205613 637.021046 
L 319.896517 635.432178 
L 394.587421 642.629355 
" style="fill:none;stroke:#0000ff;stroke-dasharray:14.8,6.4;stroke-dashoffset:0;stroke-width:4;"/>
   </g>
   <g id="line2d_99">
    <path clip-path="url(#pb895b5f43d)" d="M 95.823806 426.570719 
L 170.51471 441.766368 
L 245.205613 637.096906 
L 319.896517 635.647941 
L 394.587421 642.96596 
" style="fill:none;stroke:#000000;stroke-width:4;"/>
   </g>
   <g id="line2d_100">
    <path clip-path="url(#pb895b5f43d)" d="M 95.823806 401.142727 
L 170.51471 417.301304 
L 245.205613 621.196406 
L 319.896517 622.489077 
L 394.587421 634.1437 
" style="fill:none;stroke:#0000ff;stroke-width:4;"/>
   </g>
   <g id="line2d_101">
    <path clip-path="url(#pb895b5f43d)" d="M 95.823806 426.570719 
L 170.51471 442.570713 
L 245.205613 638.477254 
L 319.896517 637.929461 
L 394.587421 646.117774 
" style="fill:none;stroke:#0000ff;stroke-dasharray:14.8,6.4;stroke-dashoffset:0;stroke-width:4;"/>
   </g>
   <g id="line2d_102">
    <path clip-path="url(#pb895b5f43d)" d="M 95.823806 426.570719 
L 170.51471 442.600066 
L 245.205613 638.544728 
L 319.896517 638.120827 
L 394.587421 646.414353 
" style="fill:none;stroke:#000000;stroke-width:4;"/>
   </g>
   <g id="patch_14">
    <path d="M 80.885625 665.38 
L 80.885625 388.56 
" style="fill:none;stroke:#f0f0f0;stroke-linecap:square;stroke-linejoin:miter;stroke-width:3;"/>
   </g>
   <g id="patch_15">
    <path d="M 409.525602 665.38 
L 409.525602 388.56 
" style="fill:none;stroke:#f0f0f0;stroke-linecap:square;stroke-linejoin:miter;stroke-width:3;"/>
   </g>
   <g id="patch_16">
    <path d="M 80.885625 665.38 
L 409.525602 665.38 
" style="fill:none;stroke:#f0f0f0;stroke-linecap:square;stroke-linejoin:miter;stroke-width:3;"/>
   </g>
   <g id="patch_17">
    <path d="M 80.885625 388.56 
L 409.525602 388.56 
" style="fill:none;stroke:#f0f0f0;stroke-linecap:square;stroke-linejoin:miter;stroke-width:3;"/>
   </g>
   <g id="text_52">
    <!-- N=100 -->
    <g transform="translate(209.977588 382.56)scale(0.2016 -0.2016)">
     <use xlink:href="#DejaVuSans-78"/>
     <use x="74.804688" xlink:href="#DejaVuSans-61"/>
     <use x="158.59375" xlink:href="#DejaVuSans-49"/>
     <use x="222.216797" xlink:href="#DejaVuSans-48"/>
     <use x="285.839844" xlink:href="#DejaVuSans-48"/>
    </g>
   </g>
   <g id="legend_2">
    <g id="patch_18">
     <path d="M 318.370289 461.408125 
L 399.725602 461.408125 
Q 402.525602 461.408125 402.525602 458.608125 
L 402.525602 398.36 
Q 402.525602 395.56 399.725602 395.56 
L 318.370289 395.56 
Q 315.570289 395.56 315.570289 398.36 
L 315.570289 458.608125 
Q 315.570289 461.408125 318.370289 461.408125 
z
" style="fill:#f0f0f0;opacity:0.8;stroke:#cccccc;stroke-linejoin:miter;stroke-width:0.5;"/>
    </g>
    <g id="line2d_103">
     <path d="M 321.170289 406.897813 
L 349.170289 406.897813 
" style="fill:none;stroke:#0000ff;stroke-width:4;"/>
    </g>
    <g id="line2d_104"/>
    <g id="text_53">
     <!-- CV -->
     <g transform="translate(360.370289 411.797813)scale(0.14 -0.14)">
      <use xlink:href="#DejaVuSans-67"/>
      <use x="69.824219" xlink:href="#DejaVuSans-86"/>
     </g>
    </g>
    <g id="line2d_105">
     <path d="M 321.170289 427.447188 
L 349.170289 427.447188 
" style="fill:none;stroke:#0000ff;stroke-dasharray:14.8,6.4;stroke-dashoffset:0;stroke-width:4;"/>
    </g>
    <g id="line2d_106"/>
    <g id="text_54">
     <!-- PSIS -->
     <g transform="translate(360.370289 432.347188)scale(0.14 -0.14)">
      <use xlink:href="#DejaVuSans-80"/>
      <use x="60.302734" xlink:href="#DejaVuSans-83"/>
      <use x="123.779297" xlink:href="#DejaVuSans-73"/>
      <use x="153.271484" xlink:href="#DejaVuSans-83"/>
     </g>
    </g>
    <g id="line2d_107">
     <path d="M 321.170289 447.996563 
L 349.170289 447.996563 
" style="fill:none;stroke:#000000;stroke-width:4;"/>
    </g>
    <g id="line2d_108"/>
    <g id="text_55">
     <!-- WAIC -->
     <g transform="translate(360.370289 452.896563)scale(0.14 -0.14)">
      <use xlink:href="#DejaVuSans-87"/>
      <use x="93.376953" xlink:href="#DejaVuSans-65"/>
      <use x="161.785156" xlink:href="#DejaVuSans-73"/>
      <use x="191.277344" xlink:href="#DejaVuSans-67"/>
     </g>
    </g>
   </g>
  </g>
  <g id="axes_4">
   <g id="patch_19">
    <path d="M 459.270602 665.38 
L 787.910579 665.38 
L 787.910579 388.56 
L 459.270602 388.56 
z
" style="fill:#f0f0f0;"/>
   </g>
   <g id="matplotlib.axis_7">
    <g id="xtick_16">
     <g id="line2d_109">
      <path clip-path="url(#p612d4e5782)" d="M 474.208783 665.38 
L 474.208783 388.56 
" style="fill:none;stroke:#cbcbcb;"/>
     </g>
     <g id="line2d_110"/>
     <g id="text_56">
      <!-- 1 -->
      <g transform="translate(469.755033 679.517812)scale(0.14 -0.14)">
       <use xlink:href="#DejaVuSans-49"/>
      </g>
     </g>
    </g>
    <g id="xtick_17">
     <g id="line2d_111">
      <path clip-path="url(#p612d4e5782)" d="M 548.899686 665.38 
L 548.899686 388.56 
" style="fill:none;stroke:#cbcbcb;"/>
     </g>
     <g id="line2d_112"/>
     <g id="text_57">
      <!-- 2 -->
      <g transform="translate(544.445936 679.517812)scale(0.14 -0.14)">
       <use xlink:href="#DejaVuSans-50"/>
      </g>
     </g>
    </g>
    <g id="xtick_18">
     <g id="line2d_113">
      <path clip-path="url(#p612d4e5782)" d="M 623.59059 665.38 
L 623.59059 388.56 
" style="fill:none;stroke:#cbcbcb;"/>
     </g>
     <g id="line2d_114"/>
     <g id="text_58">
      <!-- 3 -->
      <g transform="translate(619.13684 679.517812)scale(0.14 -0.14)">
       <use xlink:href="#DejaVuSans-51"/>
      </g>
     </g>
    </g>
    <g id="xtick_19">
     <g id="line2d_115">
      <path clip-path="url(#p612d4e5782)" d="M 698.281494 665.38 
L 698.281494 388.56 
" style="fill:none;stroke:#cbcbcb;"/>
     </g>
     <g id="line2d_116"/>
     <g id="text_59">
      <!-- 4 -->
      <g transform="translate(693.827744 679.517812)scale(0.14 -0.14)">
       <use xlink:href="#DejaVuSans-52"/>
      </g>
     </g>
    </g>
    <g id="xtick_20">
     <g id="line2d_117">
      <path clip-path="url(#p612d4e5782)" d="M 772.972398 665.38 
L 772.972398 388.56 
" style="fill:none;stroke:#cbcbcb;"/>
     </g>
     <g id="line2d_118"/>
     <g id="text_60">
      <!-- 5 -->
      <g transform="translate(768.518648 679.517812)scale(0.14 -0.14)">
       <use xlink:href="#DejaVuSans-53"/>
      </g>
     </g>
    </g>
    <g id="text_61">
     <!-- number of parameters -->
     <g transform="translate(528.648278 699.19475)scale(0.168 -0.168)">
      <use xlink:href="#DejaVuSans-110"/>
      <use x="63.378906" xlink:href="#DejaVuSans-117"/>
      <use x="126.757812" xlink:href="#DejaVuSans-109"/>
      <use x="224.169922" xlink:href="#DejaVuSans-98"/>
      <use x="287.646484" xlink:href="#DejaVuSans-101"/>
      <use x="349.169922" xlink:href="#DejaVuSans-114"/>
      <use x="390.283203" xlink:href="#DejaVuSans-32"/>
      <use x="422.070312" xlink:href="#DejaVuSans-111"/>
      <use x="483.251953" xlink:href="#DejaVuSans-102"/>
      <use x="518.457031" xlink:href="#DejaVuSans-32"/>
      <use x="550.244141" xlink:href="#DejaVuSans-112"/>
      <use x="613.720703" xlink:href="#DejaVuSans-97"/>
      <use x="675" xlink:href="#DejaVuSans-114"/>
      <use x="716.113281" xlink:href="#DejaVuSans-97"/>
      <use x="777.392578" xlink:href="#DejaVuSans-109"/>
      <use x="874.804688" xlink:href="#DejaVuSans-101"/>
      <use x="936.328125" xlink:href="#DejaVuSans-116"/>
      <use x="975.537109" xlink:href="#DejaVuSans-101"/>
      <use x="1037.060547" xlink:href="#DejaVuSans-114"/>
      <use x="1078.173828" xlink:href="#DejaVuSans-115"/>
     </g>
    </g>
   </g>
   <g id="matplotlib.axis_8">
    <g id="ytick_25">
     <g id="line2d_119">
      <path clip-path="url(#p612d4e5782)" d="M 459.270602 661.171058 
L 787.910579 661.171058 
" style="fill:none;stroke:#cbcbcb;"/>
     </g>
     <g id="line2d_120"/>
     <g id="text_62">
      <!-- 11.0 -->
      <g transform="translate(424.598727 666.489964)scale(0.14 -0.14)">
       <use xlink:href="#DejaVuSans-49"/>
       <use x="63.623047" xlink:href="#DejaVuSans-49"/>
       <use x="127.246094" xlink:href="#DejaVuSans-46"/>
       <use x="159.033203" xlink:href="#DejaVuSans-48"/>
      </g>
     </g>
    </g>
    <g id="ytick_26">
     <g id="line2d_121">
      <path clip-path="url(#p612d4e5782)" d="M 459.270602 618.354145 
L 787.910579 618.354145 
" style="fill:none;stroke:#cbcbcb;"/>
     </g>
     <g id="line2d_122"/>
     <g id="text_63">
      <!-- 11.5 -->
      <g transform="translate(424.598727 623.673052)scale(0.14 -0.14)">
       <use xlink:href="#DejaVuSans-49"/>
       <use x="63.623047" xlink:href="#DejaVuSans-49"/>
       <use x="127.246094" xlink:href="#DejaVuSans-46"/>
       <use x="159.033203" xlink:href="#DejaVuSans-53"/>
      </g>
     </g>
    </g>
    <g id="ytick_27">
     <g id="line2d_123">
      <path clip-path="url(#p612d4e5782)" d="M 459.270602 575.537233 
L 787.910579 575.537233 
" style="fill:none;stroke:#cbcbcb;"/>
     </g>
     <g id="line2d_124"/>
     <g id="text_64">
      <!-- 12.0 -->
      <g transform="translate(424.598727 580.85614)scale(0.14 -0.14)">
       <use xlink:href="#DejaVuSans-49"/>
       <use x="63.623047" xlink:href="#DejaVuSans-50"/>
       <use x="127.246094" xlink:href="#DejaVuSans-46"/>
       <use x="159.033203" xlink:href="#DejaVuSans-48"/>
      </g>
     </g>
    </g>
    <g id="ytick_28">
     <g id="line2d_125">
      <path clip-path="url(#p612d4e5782)" d="M 459.270602 532.720321 
L 787.910579 532.720321 
" style="fill:none;stroke:#cbcbcb;"/>
     </g>
     <g id="line2d_126"/>
     <g id="text_65">
      <!-- 12.5 -->
      <g transform="translate(424.598727 538.039227)scale(0.14 -0.14)">
       <use xlink:href="#DejaVuSans-49"/>
       <use x="63.623047" xlink:href="#DejaVuSans-50"/>
       <use x="127.246094" xlink:href="#DejaVuSans-46"/>
       <use x="159.033203" xlink:href="#DejaVuSans-53"/>
      </g>
     </g>
    </g>
    <g id="ytick_29">
     <g id="line2d_127">
      <path clip-path="url(#p612d4e5782)" d="M 459.270602 489.903409 
L 787.910579 489.903409 
" style="fill:none;stroke:#cbcbcb;"/>
     </g>
     <g id="line2d_128"/>
     <g id="text_66">
      <!-- 13.0 -->
      <g transform="translate(424.598727 495.222315)scale(0.14 -0.14)">
       <use xlink:href="#DejaVuSans-49"/>
       <use x="63.623047" xlink:href="#DejaVuSans-51"/>
       <use x="127.246094" xlink:href="#DejaVuSans-46"/>
       <use x="159.033203" xlink:href="#DejaVuSans-48"/>
      </g>
     </g>
    </g>
    <g id="ytick_30">
     <g id="line2d_129">
      <path clip-path="url(#p612d4e5782)" d="M 459.270602 447.086497 
L 787.910579 447.086497 
" style="fill:none;stroke:#cbcbcb;"/>
     </g>
     <g id="line2d_130"/>
     <g id="text_67">
      <!-- 13.5 -->
      <g transform="translate(424.598727 452.405403)scale(0.14 -0.14)">
       <use xlink:href="#DejaVuSans-49"/>
       <use x="63.623047" xlink:href="#DejaVuSans-51"/>
       <use x="127.246094" xlink:href="#DejaVuSans-46"/>
       <use x="159.033203" xlink:href="#DejaVuSans-53"/>
      </g>
     </g>
    </g>
    <g id="ytick_31">
     <g id="line2d_131">
      <path clip-path="url(#p612d4e5782)" d="M 459.270602 404.269585 
L 787.910579 404.269585 
" style="fill:none;stroke:#cbcbcb;"/>
     </g>
     <g id="line2d_132"/>
     <g id="text_68">
      <!-- 14.0 -->
      <g transform="translate(424.598727 409.588491)scale(0.14 -0.14)">
       <use xlink:href="#DejaVuSans-49"/>
       <use x="63.623047" xlink:href="#DejaVuSans-52"/>
       <use x="127.246094" xlink:href="#DejaVuSans-46"/>
       <use x="159.033203" xlink:href="#DejaVuSans-48"/>
      </g>
     </g>
    </g>
   </g>
   <g id="line2d_133">
    <path clip-path="url(#p612d4e5782)" d="M 474.208783 401.142727 
L 548.899686 442.952443 
L 623.59059 584.15071 
L 698.281494 447.431866 
L 772.972398 579.685987 
" style="fill:none;stroke:#0000ff;stroke-width:4;"/>
   </g>
   <g id="line2d_134">
    <path clip-path="url(#p612d4e5782)" d="M 474.208783 425.0626 
L 548.899686 480.77339 
L 623.59059 626.789099 
L 698.281494 506.988998 
L 772.972398 650.151187 
" style="fill:none;stroke:#0000ff;stroke-dasharray:14.8,6.4;stroke-dashoffset:0;stroke-width:4;"/>
   </g>
   <g id="line2d_135">
    <path clip-path="url(#p612d4e5782)" d="M 474.208783 425.0626 
L 548.899686 480.773227 
L 623.59059 626.765987 
L 698.281494 507.056618 
L 772.972398 650.63245 
" style="fill:none;stroke:#000000;stroke-width:4;"/>
   </g>
   <g id="line2d_136">
    <path clip-path="url(#p612d4e5782)" d="M 474.208783 401.142727 
L 548.899686 444.658544 
L 623.59059 585.389514 
L 698.281494 449.895426 
L 772.972398 586.569435 
" style="fill:none;stroke:#0000ff;stroke-width:4;"/>
   </g>
   <g id="line2d_137">
    <path clip-path="url(#p612d4e5782)" d="M 474.208783 425.0626 
L 548.899686 481.658168 
L 623.59059 626.475988 
L 698.281494 508.403956 
L 772.972398 652.361825 
" style="fill:none;stroke:#0000ff;stroke-dasharray:14.8,6.4;stroke-dashoffset:0;stroke-width:4;"/>
   </g>
   <g id="line2d_138">
    <path clip-path="url(#p612d4e5782)" d="M 474.208783 425.0626 
L 548.899686 481.657269 
L 623.59059 626.455163 
L 698.281494 508.476476 
L 772.972398 652.797273 
" style="fill:none;stroke:#000000;stroke-width:4;"/>
   </g>
   <g id="patch_20">
    <path d="M 459.270602 665.38 
L 459.270602 388.56 
" style="fill:none;stroke:#f0f0f0;stroke-linecap:square;stroke-linejoin:miter;stroke-width:3;"/>
   </g>
   <g id="patch_21">
    <path d="M 787.910579 665.38 
L 787.910579 388.56 
" style="fill:none;stroke:#f0f0f0;stroke-linecap:square;stroke-linejoin:miter;stroke-width:3;"/>
   </g>
   <g id="patch_22">
    <path d="M 459.270602 665.38 
L 787.910579 665.38 
" style="fill:none;stroke:#f0f0f0;stroke-linecap:square;stroke-linejoin:miter;stroke-width:3;"/>
   </g>
   <g id="patch_23">
    <path d="M 459.270602 388.56 
L 787.910579 388.56 
" style="fill:none;stroke:#f0f0f0;stroke-linecap:square;stroke-linejoin:miter;stroke-width:3;"/>
   </g>
   <g id="text_69">
    <!-- Flat prior -->
    <g transform="translate(772.972398 579.685987)scale(0.14 -0.14)">
     <use xlink:href="#DejaVuSans-70"/>
     <use x="57.519531" xlink:href="#DejaVuSans-108"/>
     <use x="85.302734" xlink:href="#DejaVuSans-97"/>
     <use x="146.582031" xlink:href="#DejaVuSans-116"/>
     <use x="185.791016" xlink:href="#DejaVuSans-32"/>
     <use x="217.578125" xlink:href="#DejaVuSans-112"/>
     <use x="281.054688" xlink:href="#DejaVuSans-114"/>
     <use x="322.167969" xlink:href="#DejaVuSans-105"/>
     <use x="349.951172" xlink:href="#DejaVuSans-111"/>
     <use x="411.132812" xlink:href="#DejaVuSans-114"/>
    </g>
   </g>
   <g id="text_70">
    <!-- sigma=0.5 -->
    <g transform="translate(772.972398 586.569435)scale(0.14 -0.14)">
     <use xlink:href="#DejaVuSans-115"/>
     <use x="52.099609" xlink:href="#DejaVuSans-105"/>
     <use x="79.882812" xlink:href="#DejaVuSans-103"/>
     <use x="143.359375" xlink:href="#DejaVuSans-109"/>
     <use x="240.771484" xlink:href="#DejaVuSans-97"/>
     <use x="302.050781" xlink:href="#DejaVuSans-61"/>
     <use x="385.839844" xlink:href="#DejaVuSans-48"/>
     <use x="449.462891" xlink:href="#DejaVuSans-46"/>
     <use x="481.25" xlink:href="#DejaVuSans-53"/>
    </g>
   </g>
   <g id="text_71">
    <!-- N=100 -->
    <g transform="translate(588.362565 382.56)scale(0.2016 -0.2016)">
     <use xlink:href="#DejaVuSans-78"/>
     <use x="74.804688" xlink:href="#DejaVuSans-61"/>
     <use x="158.59375" xlink:href="#DejaVuSans-49"/>
     <use x="222.216797" xlink:href="#DejaVuSans-48"/>
     <use x="285.839844" xlink:href="#DejaVuSans-48"/>
    </g>
   </g>
  </g>
 </g>
 <defs>
  <clipPath id="pc231eb9bb7">
   <rect height="276.82" width="328.639977" x="80.885625" y="36.12"/>
  </clipPath>
  <clipPath id="p0086017cc3">
   <rect height="276.82" width="328.639977" x="459.270602" y="36.12"/>
  </clipPath>
  <clipPath id="pb895b5f43d">
   <rect height="276.82" width="328.639977" x="80.885625" y="388.56"/>
  </clipPath>
  <clipPath id="p612d4e5782">
   <rect height="276.82" width="328.639977" x="459.270602" y="388.56"/>
  </clipPath>
 </defs>
</svg>
