<?xml version="1.0" encoding="utf-8" standalone="no"?>
<!DOCTYPE svg PUBLIC "-//W3C//DTD SVG 1.1//EN"
  "http://www.w3.org/Graphics/SVG/1.1/DTD/svg11.dtd">
<!-- Created with matplotlib (https://matplotlib.org/) -->
<svg height="632.027825pt" version="1.1" viewBox="0 0 705.427467 632.027825" width="705.427467pt" xmlns="http://www.w3.org/2000/svg" xmlns:xlink="http://www.w3.org/1999/xlink">
 <defs>
  <style type="text/css">
*{stroke-linecap:butt;stroke-linejoin:round;}
  </style>
 </defs>
 <g id="figure_1">
  <g id="patch_1">
   <path d="M 0 632.027825 
L 705.427467 632.027825 
L 705.427467 0 
L 0 0 
z
" style="fill:#f0f0f0;"/>
  </g>
  <g id="axes_1">
   <g id="patch_2">
    <path d="M 10.584402 199.85845 
L 181.035689 199.85845 
L 181.035689 28.51845 
L 10.584402 28.51845 
z
" style="fill:#f0f0f0;"/>
   </g>
   <g id="matplotlib.axis_1">
    <g id="xtick_1">
     <g id="line2d_1"/>
     <g id="text_1">
      <!-- 0.0 -->
      <defs>
       <path d="M 31.78125 66.40625 
Q 24.171875 66.40625 20.328125 58.90625 
Q 16.5 51.421875 16.5 36.375 
Q 16.5 21.390625 20.328125 13.890625 
Q 24.171875 6.390625 31.78125 6.390625 
Q 39.453125 6.390625 43.28125 13.890625 
Q 47.125 21.390625 47.125 36.375 
Q 47.125 51.421875 43.28125 58.90625 
Q 39.453125 66.40625 31.78125 66.40625 
z
M 31.78125 74.21875 
Q 44.046875 74.21875 50.515625 64.515625 
Q 56.984375 54.828125 56.984375 36.375 
Q 56.984375 17.96875 50.515625 8.265625 
Q 44.046875 -1.421875 31.78125 -1.421875 
Q 19.53125 -1.421875 13.0625 8.265625 
Q 6.59375 17.96875 6.59375 36.375 
Q 6.59375 54.828125 13.0625 64.515625 
Q 19.53125 74.21875 31.78125 74.21875 
z
" id="DejaVuSans-48"/>
       <path d="M 10.6875 12.40625 
L 21 12.40625 
L 21 0 
L 10.6875 0 
z
" id="DejaVuSans-46"/>
      </defs>
      <g transform="translate(7.2 213.996263)scale(0.14 -0.14)">
       <use xlink:href="#DejaVuSans-48"/>
       <use x="63.623047" xlink:href="#DejaVuSans-46"/>
       <use x="95.410156" xlink:href="#DejaVuSans-48"/>
      </g>
     </g>
    </g>
    <g id="xtick_2">
     <g id="line2d_2"/>
     <g id="text_2">
      <!-- 0.5 -->
      <defs>
       <path d="M 10.796875 72.90625 
L 49.515625 72.90625 
L 49.515625 64.59375 
L 19.828125 64.59375 
L 19.828125 46.734375 
Q 21.96875 47.46875 24.109375 47.828125 
Q 26.265625 48.1875 28.421875 48.1875 
Q 40.625 48.1875 47.75 41.5 
Q 54.890625 34.8125 54.890625 23.390625 
Q 54.890625 11.625 47.5625 5.09375 
Q 40.234375 -1.421875 26.90625 -1.421875 
Q 22.3125 -1.421875 17.546875 -0.640625 
Q 12.796875 0.140625 7.71875 1.703125 
L 7.71875 11.625 
Q 12.109375 9.234375 16.796875 8.0625 
Q 21.484375 6.890625 26.703125 6.890625 
Q 35.15625 6.890625 40.078125 11.328125 
Q 45.015625 15.765625 45.015625 23.390625 
Q 45.015625 31 40.078125 35.4375 
Q 35.15625 39.890625 26.703125 39.890625 
Q 22.75 39.890625 18.8125 39.015625 
Q 14.890625 38.140625 10.796875 36.28125 
z
" id="DejaVuSans-53"/>
      </defs>
      <g transform="translate(84.677858 213.996263)scale(0.14 -0.14)">
       <use xlink:href="#DejaVuSans-48"/>
       <use x="63.623047" xlink:href="#DejaVuSans-46"/>
       <use x="95.410156" xlink:href="#DejaVuSans-53"/>
      </g>
     </g>
    </g>
    <g id="xtick_3">
     <g id="line2d_3"/>
     <g id="text_3">
      <!-- 1.0 -->
      <defs>
       <path d="M 12.40625 8.296875 
L 28.515625 8.296875 
L 28.515625 63.921875 
L 10.984375 60.40625 
L 10.984375 69.390625 
L 28.421875 72.90625 
L 38.28125 72.90625 
L 38.28125 8.296875 
L 54.390625 8.296875 
L 54.390625 0 
L 12.40625 0 
z
" id="DejaVuSans-49"/>
      </defs>
      <g transform="translate(162.155715 213.996263)scale(0.14 -0.14)">
       <use xlink:href="#DejaVuSans-49"/>
       <use x="63.623047" xlink:href="#DejaVuSans-46"/>
       <use x="95.410156" xlink:href="#DejaVuSans-48"/>
      </g>
     </g>
    </g>
   </g>
   <g id="matplotlib.axis_2"/>
   <g id="line2d_4">
    <path clip-path="url(#pe4fc67be86)" d="M 18.332188 114.18845 
L 19.897397 114.18845 
L 21.462606 114.18845 
L 23.027815 114.18845 
L 24.593024 114.18845 
L 26.158234 114.18845 
L 27.723443 114.18845 
L 29.288652 114.18845 
L 30.853861 114.18845 
L 32.419071 114.18845 
L 33.98428 114.18845 
L 35.549489 114.18845 
L 37.114699 114.18845 
L 38.679908 114.18845 
L 40.245116 114.18845 
L 41.810327 114.18845 
L 43.375535 114.18845 
L 44.940744 114.18845 
L 46.505955 114.18845 
L 48.071163 114.18845 
L 49.636372 114.18845 
L 51.201583 114.18845 
L 52.766791 114.18845 
L 54.332 114.18845 
L 55.897211 114.18845 
L 57.462417 114.18845 
L 59.027628 114.18845 
L 60.592838 114.18845 
L 62.158045 114.18845 
L 63.723255 114.18845 
L 65.288466 114.18845 
L 66.853673 114.18845 
L 68.418883 114.18845 
L 69.984094 114.18845 
L 71.5493 114.18845 
L 73.114511 114.18845 
L 74.679722 114.18845 
L 76.244928 114.18845 
L 77.810139 114.18845 
L 79.37535 114.18845 
L 80.940556 114.18845 
L 82.505767 114.18845 
L 84.070978 114.18845 
L 85.636184 114.18845 
L 87.201395 114.18845 
L 88.766606 114.18845 
L 90.331812 114.18845 
L 91.897023 114.18845 
L 93.462234 114.18845 
L 95.02744 114.18845 
L 96.592646 114.18845 
L 98.157857 114.18845 
L 99.723068 114.18845 
L 101.288279 114.18845 
L 102.853489 114.18845 
L 104.4187 114.18845 
L 105.983902 114.18845 
L 107.549113 114.18845 
L 109.114323 114.18845 
L 110.679534 114.18845 
L 112.244745 114.18845 
L 113.809956 114.18845 
L 115.375158 114.18845 
L 116.940368 114.18845 
L 118.505579 114.18845 
L 120.07079 114.18845 
L 121.636001 114.18845 
L 123.201203 114.18845 
L 124.766413 114.18845 
L 126.331624 114.18845 
L 127.896835 114.18845 
L 129.462046 114.18845 
L 131.027257 114.18845 
L 132.592458 114.18845 
L 134.157669 114.18845 
L 135.72288 114.18845 
L 137.288091 114.18845 
L 138.853302 114.18845 
L 140.418512 114.18845 
L 141.983714 114.18845 
L 143.548925 114.18845 
L 145.114136 114.18845 
L 146.679347 114.18845 
L 148.244557 114.18845 
L 149.809768 114.18845 
L 151.37497 114.18845 
L 152.940181 114.18845 
L 154.505391 114.18845 
L 156.070602 114.18845 
L 157.635813 114.18845 
L 159.201024 114.18845 
L 160.766226 114.18845 
L 162.331436 114.18845 
L 163.896647 114.18845 
L 165.461858 114.18845 
L 167.027069 114.18845 
L 168.59228 114.18845 
L 170.157481 114.18845 
L 171.722692 114.18845 
L 173.287903 114.18845 
" style="fill:none;stroke:#008fd5;stroke-width:4;"/>
   </g>
   <g id="patch_3">
    <path d="M 10.584402 199.85845 
L 10.584402 28.51845 
" style="fill:none;stroke:#000000;stroke-linecap:square;stroke-linejoin:miter;"/>
   </g>
   <g id="patch_4">
    <path d="M 181.035689 199.85845 
L 181.035689 28.51845 
" style="fill:none;stroke:#000000;stroke-linecap:square;stroke-linejoin:miter;"/>
   </g>
   <g id="patch_5">
    <path d="M 10.584402 199.85845 
L 181.035689 199.85845 
" style="fill:none;stroke:#000000;stroke-linecap:square;stroke-linejoin:miter;"/>
   </g>
   <g id="patch_6">
    <path d="M 10.584402 28.51845 
L 181.035689 28.51845 
" style="fill:none;stroke:#000000;stroke-linecap:square;stroke-linejoin:miter;"/>
   </g>
   <g id="text_4">
    <!-- prior -->
    <defs>
     <path d="M 18.109375 8.203125 
L 18.109375 -20.796875 
L 9.078125 -20.796875 
L 9.078125 54.6875 
L 18.109375 54.6875 
L 18.109375 46.390625 
Q 20.953125 51.265625 25.265625 53.625 
Q 29.59375 56 35.59375 56 
Q 45.5625 56 51.78125 48.09375 
Q 58.015625 40.1875 58.015625 27.296875 
Q 58.015625 14.40625 51.78125 6.484375 
Q 45.5625 -1.421875 35.59375 -1.421875 
Q 29.59375 -1.421875 25.265625 0.953125 
Q 20.953125 3.328125 18.109375 8.203125 
z
M 48.6875 27.296875 
Q 48.6875 37.203125 44.609375 42.84375 
Q 40.53125 48.484375 33.40625 48.484375 
Q 26.265625 48.484375 22.1875 42.84375 
Q 18.109375 37.203125 18.109375 27.296875 
Q 18.109375 17.390625 22.1875 11.75 
Q 26.265625 6.109375 33.40625 6.109375 
Q 40.53125 6.109375 44.609375 11.75 
Q 48.6875 17.390625 48.6875 27.296875 
z
" id="DejaVuSans-112"/>
     <path d="M 41.109375 46.296875 
Q 39.59375 47.171875 37.8125 47.578125 
Q 36.03125 48 33.890625 48 
Q 26.265625 48 22.1875 43.046875 
Q 18.109375 38.09375 18.109375 28.8125 
L 18.109375 0 
L 9.078125 0 
L 9.078125 54.6875 
L 18.109375 54.6875 
L 18.109375 46.1875 
Q 20.953125 51.171875 25.484375 53.578125 
Q 30.03125 56 36.53125 56 
Q 37.453125 56 38.578125 55.875 
Q 39.703125 55.765625 41.0625 55.515625 
z
" id="DejaVuSans-114"/>
     <path d="M 9.421875 54.6875 
L 18.40625 54.6875 
L 18.40625 0 
L 9.421875 0 
z
M 9.421875 75.984375 
L 18.40625 75.984375 
L 18.40625 64.59375 
L 9.421875 64.59375 
z
" id="DejaVuSans-105"/>
     <path d="M 30.609375 48.390625 
Q 23.390625 48.390625 19.1875 42.75 
Q 14.984375 37.109375 14.984375 27.296875 
Q 14.984375 17.484375 19.15625 11.84375 
Q 23.34375 6.203125 30.609375 6.203125 
Q 37.796875 6.203125 41.984375 11.859375 
Q 46.1875 17.53125 46.1875 27.296875 
Q 46.1875 37.015625 41.984375 42.703125 
Q 37.796875 48.390625 30.609375 48.390625 
z
M 30.609375 56 
Q 42.328125 56 49.015625 48.375 
Q 55.71875 40.765625 55.71875 27.296875 
Q 55.71875 13.875 49.015625 6.21875 
Q 42.328125 -1.421875 30.609375 -1.421875 
Q 18.84375 -1.421875 12.171875 6.21875 
Q 5.515625 13.875 5.515625 27.296875 
Q 5.515625 40.765625 12.171875 48.375 
Q 18.84375 56 30.609375 56 
z
" id="DejaVuSans-111"/>
    </defs>
    <g transform="translate(72.15512 22.51845)scale(0.2016 -0.2016)">
     <use xlink:href="#DejaVuSans-112"/>
     <use x="63.476562" xlink:href="#DejaVuSans-114"/>
     <use x="104.589844" xlink:href="#DejaVuSans-105"/>
     <use x="132.373047" xlink:href="#DejaVuSans-111"/>
     <use x="193.554688" xlink:href="#DejaVuSans-114"/>
    </g>
   </g>
  </g>
  <g id="axes_2">
   <g id="patch_7">
    <path d="M 267.48809 199.85845 
L 437.939377 199.85845 
L 437.939377 28.51845 
L 267.48809 28.51845 
z
" style="fill:#f0f0f0;"/>
   </g>
   <g id="matplotlib.axis_3">
    <g id="xtick_4">
     <g id="line2d_5"/>
     <g id="text_5">
      <!-- 0.0 -->
      <g transform="translate(264.103688 213.996263)scale(0.14 -0.14)">
       <use xlink:href="#DejaVuSans-48"/>
       <use x="63.623047" xlink:href="#DejaVuSans-46"/>
       <use x="95.410156" xlink:href="#DejaVuSans-48"/>
      </g>
     </g>
    </g>
    <g id="xtick_5">
     <g id="line2d_6"/>
     <g id="text_6">
      <!-- 0.5 -->
      <g transform="translate(341.581546 213.996263)scale(0.14 -0.14)">
       <use xlink:href="#DejaVuSans-48"/>
       <use x="63.623047" xlink:href="#DejaVuSans-46"/>
       <use x="95.410156" xlink:href="#DejaVuSans-53"/>
      </g>
     </g>
    </g>
    <g id="xtick_6">
     <g id="line2d_7"/>
     <g id="text_7">
      <!-- 1.0 -->
      <g transform="translate(419.059404 213.996263)scale(0.14 -0.14)">
       <use xlink:href="#DejaVuSans-49"/>
       <use x="63.623047" xlink:href="#DejaVuSans-46"/>
       <use x="95.410156" xlink:href="#DejaVuSans-48"/>
      </g>
     </g>
    </g>
   </g>
   <g id="matplotlib.axis_4">
    <g id="text_8">
     <!-- $\times$ -->
     <defs>
      <path d="M 70.125 53.71875 
L 47.796875 31.296875 
L 70.125 8.984375 
L 64.3125 3.078125 
L 41.890625 25.484375 
L 19.484375 3.078125 
L 13.71875 8.984375 
L 35.984375 31.296875 
L 13.71875 53.71875 
L 19.484375 59.625 
L 41.890625 37.203125 
L 64.3125 59.625 
z
" id="DejaVuSans-215"/>
     </defs>
     <g transform="translate(253.089652 135.18845)rotate(-90)scale(0.5 -0.5)">
      <use transform="translate(0 0.375)" xlink:href="#DejaVuSans-215"/>
     </g>
    </g>
   </g>
   <g id="line2d_8">
    <path clip-path="url(#p667fa940f3)" d="M 275.235876 192.070268 
L 276.801085 192.070268 
L 278.366294 192.070265 
L 279.931503 192.070234 
L 281.496713 192.070084 
L 283.061922 192.069588 
L 284.627131 192.0683 
L 286.19234 192.065464 
L 287.757549 192.059909 
L 289.322759 192.049952 
L 290.887968 192.0333 
L 292.453177 192.006959 
L 294.018387 191.967157 
L 295.583596 191.909272 
L 297.148804 191.827783 
L 298.714015 191.716233 
L 300.279223 191.567214 
L 301.844432 191.372364 
L 303.409643 191.122394 
L 304.974851 190.807126 
L 306.54006 190.415559 
L 308.105271 189.935947 
L 309.670479 189.3559 
L 311.235688 188.662511 
L 312.800899 187.842492 
L 314.366105 186.882319 
L 315.931316 185.768403 
L 317.496526 184.487271 
L 319.061733 183.025783 
L 320.626944 181.371277 
L 322.192154 179.511829 
L 323.757361 177.436454 
L 325.322571 175.135276 
L 326.887782 172.59982 
L 328.452988 169.823124 
L 330.018199 166.800064 
L 331.58341 163.527407 
L 333.148616 160.004174 
L 334.713827 156.231614 
L 336.279038 152.213517 
L 337.844244 147.956252 
L 339.409455 143.468989 
L 340.974666 138.763675 
L 342.539872 133.855217 
L 344.105083 128.761345 
L 345.670294 123.50299 
L 347.2355 118.103751 
L 348.800711 112.590282 
L 350.365922 106.991977 
L 351.931128 101.341061 
L 353.496334 95.672096 
L 355.061545 90.022055 
L 356.626756 84.430141 
L 358.191967 78.937271 
L 359.757177 73.585986 
L 361.322388 68.420051 
L 362.88759 63.48414 
L 364.452801 58.823233 
L 366.018012 54.482429 
L 367.583222 50.506333 
L 369.148433 46.938702 
L 370.713644 43.821686 
L 372.278846 41.19577 
L 373.844056 39.098446 
L 375.409267 37.564557 
L 376.974478 36.624984 
L 378.539689 36.306632 
L 380.104891 36.631476 
L 381.670101 37.616276 
L 383.235312 39.271771 
L 384.800523 41.602671 
L 386.365734 44.606698 
L 387.930945 48.274248 
L 389.496146 52.58842 
L 391.061357 57.524186 
L 392.626568 63.048813 
L 394.191779 69.121043 
L 395.75699 75.691697 
L 397.3222 82.70333 
L 398.887402 90.090685 
L 400.452613 97.781215 
L 402.017824 105.695225 
L 403.583035 113.747038 
L 405.148245 121.84571 
L 406.713456 129.896113 
L 408.278658 137.800435 
L 409.843869 145.460028 
L 411.409079 152.776858 
L 412.97429 159.656117 
L 414.539501 166.008696 
L 416.104712 171.754044 
L 417.669914 176.823448 
L 419.235124 181.163855 
L 420.800335 184.741825 
L 422.365546 187.548196 
L 423.930757 189.603198 
L 425.495968 190.961986 
L 427.061169 191.72082 
L 428.62638 192.023815 
L 430.191591 192.070268 
" style="fill:none;stroke:#008fd5;stroke-width:4;"/>
   </g>
   <g id="patch_8">
    <path d="M 267.48809 199.85845 
L 267.48809 28.51845 
" style="fill:none;stroke:#000000;stroke-linecap:square;stroke-linejoin:miter;"/>
   </g>
   <g id="patch_9">
    <path d="M 437.939377 199.85845 
L 437.939377 28.51845 
" style="fill:none;stroke:#000000;stroke-linecap:square;stroke-linejoin:miter;"/>
   </g>
   <g id="patch_10">
    <path d="M 267.48809 199.85845 
L 437.939377 199.85845 
" style="fill:none;stroke:#000000;stroke-linecap:square;stroke-linejoin:miter;"/>
   </g>
   <g id="patch_11">
    <path d="M 267.48809 28.51845 
L 437.939377 28.51845 
" style="fill:none;stroke:#000000;stroke-linecap:square;stroke-linejoin:miter;"/>
   </g>
   <g id="text_9">
    <!-- $\propto$ -->
    <defs>
     <path d="M 25.734375 17.71875 
Q 33.796875 17.71875 38.625 29.4375 
Q 32.421875 42.234375 25.734375 42.234375 
Q 20.84375 42.234375 18.359375 38.71875 
Q 15.71875 34.96875 15.71875 29.984375 
Q 15.71875 24.515625 18.359375 21.140625 
Q 21.09375 17.71875 25.734375 17.71875 
z
M 60.6875 17.625 
L 60.6875 11.1875 
L 56.9375 11.1875 
Q 53.375 11.1875 50.734375 12.640625 
Q 48.09375 13.96875 45.5625 17.046875 
Q 44.046875 18.796875 41.65625 22.90625 
Q 38.375 17.046875 35.5 14.453125 
Q 31.9375 11.328125 26.265625 11.328125 
Q 19.671875 11.328125 15.328125 16.265625 
Q 10.75 21.4375 10.75 29.984375 
Q 10.75 38.1875 15.328125 43.75 
Q 19.390625 48.6875 26.375 48.6875 
Q 29.9375 48.6875 32.5625 47.21875 
Q 35.640625 45.609375 37.75 42.828125 
Q 39.703125 40.328125 41.65625 36.96875 
Q 44.921875 42.828125 47.796875 45.40625 
Q 51.375 48.53125 57.03125 48.53125 
L 60.6875 48.53125 
L 60.6875 42.140625 
L 57.5625 42.140625 
Q 50.34375 42.140625 44.671875 30.421875 
Q 50.875 17.625 57.5625 17.625 
z
" id="DejaVuSans-8733"/>
    </defs>
    <g transform="translate(454.984506 127.89565)scale(0.6 -0.6)">
     <use transform="translate(19.482422 0.3125)" xlink:href="#DejaVuSans-8733"/>
    </g>
   </g>
   <g id="text_10">
    <!-- likelihood -->
    <defs>
     <path d="M 9.421875 75.984375 
L 18.40625 75.984375 
L 18.40625 0 
L 9.421875 0 
z
" id="DejaVuSans-108"/>
     <path d="M 9.078125 75.984375 
L 18.109375 75.984375 
L 18.109375 31.109375 
L 44.921875 54.6875 
L 56.390625 54.6875 
L 27.390625 29.109375 
L 57.625 0 
L 45.90625 0 
L 18.109375 26.703125 
L 18.109375 0 
L 9.078125 0 
z
" id="DejaVuSans-107"/>
     <path d="M 56.203125 29.59375 
L 56.203125 25.203125 
L 14.890625 25.203125 
Q 15.484375 15.921875 20.484375 11.0625 
Q 25.484375 6.203125 34.421875 6.203125 
Q 39.59375 6.203125 44.453125 7.46875 
Q 49.3125 8.734375 54.109375 11.28125 
L 54.109375 2.78125 
Q 49.265625 0.734375 44.1875 -0.34375 
Q 39.109375 -1.421875 33.890625 -1.421875 
Q 20.796875 -1.421875 13.15625 6.1875 
Q 5.515625 13.8125 5.515625 26.8125 
Q 5.515625 40.234375 12.765625 48.109375 
Q 20.015625 56 32.328125 56 
Q 43.359375 56 49.78125 48.890625 
Q 56.203125 41.796875 56.203125 29.59375 
z
M 47.21875 32.234375 
Q 47.125 39.59375 43.09375 43.984375 
Q 39.0625 48.390625 32.421875 48.390625 
Q 24.90625 48.390625 20.390625 44.140625 
Q 15.875 39.890625 15.1875 32.171875 
z
" id="DejaVuSans-101"/>
     <path d="M 54.890625 33.015625 
L 54.890625 0 
L 45.90625 0 
L 45.90625 32.71875 
Q 45.90625 40.484375 42.875 44.328125 
Q 39.84375 48.1875 33.796875 48.1875 
Q 26.515625 48.1875 22.3125 43.546875 
Q 18.109375 38.921875 18.109375 30.90625 
L 18.109375 0 
L 9.078125 0 
L 9.078125 75.984375 
L 18.109375 75.984375 
L 18.109375 46.1875 
Q 21.34375 51.125 25.703125 53.5625 
Q 30.078125 56 35.796875 56 
Q 45.21875 56 50.046875 50.171875 
Q 54.890625 44.34375 54.890625 33.015625 
z
" id="DejaVuSans-104"/>
     <path d="M 45.40625 46.390625 
L 45.40625 75.984375 
L 54.390625 75.984375 
L 54.390625 0 
L 45.40625 0 
L 45.40625 8.203125 
Q 42.578125 3.328125 38.25 0.953125 
Q 33.9375 -1.421875 27.875 -1.421875 
Q 17.96875 -1.421875 11.734375 6.484375 
Q 5.515625 14.40625 5.515625 27.296875 
Q 5.515625 40.1875 11.734375 48.09375 
Q 17.96875 56 27.875 56 
Q 33.9375 56 38.25 53.625 
Q 42.578125 51.265625 45.40625 46.390625 
z
M 14.796875 27.296875 
Q 14.796875 17.390625 18.875 11.75 
Q 22.953125 6.109375 30.078125 6.109375 
Q 37.203125 6.109375 41.296875 11.75 
Q 45.40625 17.390625 45.40625 27.296875 
Q 45.40625 37.203125 41.296875 42.84375 
Q 37.203125 48.484375 30.078125 48.484375 
Q 22.953125 48.484375 18.875 42.84375 
Q 14.796875 37.203125 14.796875 27.296875 
z
" id="DejaVuSans-100"/>
    </defs>
    <g transform="translate(304.715608 22.51845)scale(0.2016 -0.2016)">
     <use xlink:href="#DejaVuSans-108"/>
     <use x="27.783203" xlink:href="#DejaVuSans-105"/>
     <use x="55.566406" xlink:href="#DejaVuSans-107"/>
     <use x="109.851562" xlink:href="#DejaVuSans-101"/>
     <use x="171.375" xlink:href="#DejaVuSans-108"/>
     <use x="199.158203" xlink:href="#DejaVuSans-105"/>
     <use x="226.941406" xlink:href="#DejaVuSans-104"/>
     <use x="290.320312" xlink:href="#DejaVuSans-111"/>
     <use x="351.501953" xlink:href="#DejaVuSans-111"/>
     <use x="412.683594" xlink:href="#DejaVuSans-100"/>
    </g>
   </g>
  </g>
  <g id="axes_3">
   <g id="patch_12">
    <path d="M 524.391778 199.85845 
L 694.843065 199.85845 
L 694.843065 28.51845 
L 524.391778 28.51845 
z
" style="fill:#f0f0f0;"/>
   </g>
   <g id="matplotlib.axis_5">
    <g id="xtick_7">
     <g id="line2d_9"/>
     <g id="text_11">
      <!-- 0.0 -->
      <g transform="translate(521.007376 213.996263)scale(0.14 -0.14)">
       <use xlink:href="#DejaVuSans-48"/>
       <use x="63.623047" xlink:href="#DejaVuSans-46"/>
       <use x="95.410156" xlink:href="#DejaVuSans-48"/>
      </g>
     </g>
    </g>
    <g id="xtick_8">
     <g id="line2d_10"/>
     <g id="text_12">
      <!-- 0.5 -->
      <g transform="translate(598.485234 213.996263)scale(0.14 -0.14)">
       <use xlink:href="#DejaVuSans-48"/>
       <use x="63.623047" xlink:href="#DejaVuSans-46"/>
       <use x="95.410156" xlink:href="#DejaVuSans-53"/>
      </g>
     </g>
    </g>
    <g id="xtick_9">
     <g id="line2d_11"/>
     <g id="text_13">
      <!-- 1.0 -->
      <g transform="translate(675.963092 213.996263)scale(0.14 -0.14)">
       <use xlink:href="#DejaVuSans-49"/>
       <use x="63.623047" xlink:href="#DejaVuSans-46"/>
       <use x="95.410156" xlink:href="#DejaVuSans-48"/>
      </g>
     </g>
    </g>
   </g>
   <g id="matplotlib.axis_6"/>
   <g id="line2d_12">
    <path clip-path="url(#pe42da3e008)" d="M 532.139564 192.070268 
L 533.704773 192.070268 
L 535.269982 192.070265 
L 536.835191 192.070234 
L 538.400401 192.070084 
L 539.96561 192.069588 
L 541.530819 192.0683 
L 543.096028 192.065464 
L 544.661238 192.059909 
L 546.226447 192.049952 
L 547.791656 192.0333 
L 549.356865 192.006959 
L 550.922075 191.967157 
L 552.487284 191.909272 
L 554.052492 191.827783 
L 555.617703 191.716233 
L 557.182911 191.567214 
L 558.74812 191.372364 
L 560.313331 191.122394 
L 561.878539 190.807126 
L 563.443748 190.415559 
L 565.008959 189.935947 
L 566.574167 189.3559 
L 568.139376 188.662511 
L 569.704587 187.842492 
L 571.269793 186.882319 
L 572.835004 185.768403 
L 574.400214 184.487271 
L 575.965421 183.025783 
L 577.530632 181.371277 
L 579.095842 179.511829 
L 580.661049 177.436454 
L 582.226259 175.135276 
L 583.79147 172.59982 
L 585.356676 169.823124 
L 586.921887 166.800064 
L 588.487098 163.527407 
L 590.052304 160.004174 
L 591.617515 156.231614 
L 593.182726 152.213517 
L 594.747932 147.956252 
L 596.313143 143.468989 
L 597.878354 138.763675 
L 599.44356 133.855217 
L 601.008771 128.761345 
L 602.573982 123.50299 
L 604.139188 118.103751 
L 605.704399 112.590282 
L 607.26961 106.991977 
L 608.834816 101.341061 
L 610.400022 95.672096 
L 611.965233 90.022055 
L 613.530444 84.430141 
L 615.095655 78.937271 
L 616.660865 73.585986 
L 618.226076 68.420051 
L 619.791278 63.48414 
L 621.356489 58.823233 
L 622.9217 54.482429 
L 624.48691 50.506333 
L 626.052121 46.938702 
L 627.617332 43.821686 
L 629.182534 41.19577 
L 630.747744 39.098446 
L 632.312955 37.564557 
L 633.878166 36.624984 
L 635.443377 36.306632 
L 637.008579 36.631476 
L 638.573789 37.616276 
L 640.139 39.271771 
L 641.704211 41.602671 
L 643.269422 44.606698 
L 644.834633 48.274248 
L 646.399834 52.58842 
L 647.965045 57.524186 
L 649.530256 63.048813 
L 651.095467 69.121043 
L 652.660678 75.691697 
L 654.225888 82.70333 
L 655.79109 90.090685 
L 657.356301 97.781215 
L 658.921512 105.695225 
L 660.486723 113.747038 
L 662.051933 121.84571 
L 663.617144 129.896113 
L 665.182346 137.800435 
L 666.747557 145.460028 
L 668.312768 152.776858 
L 669.877978 159.656117 
L 671.443189 166.008696 
L 673.0084 171.754044 
L 674.573602 176.823448 
L 676.138812 181.163855 
L 677.704023 184.741825 
L 679.269234 187.548196 
L 680.834445 189.603198 
L 682.399656 190.961986 
L 683.964857 191.72082 
L 685.530068 192.023815 
L 687.095279 192.070268 
" style="fill:none;stroke:#008fd5;stroke-width:4;"/>
   </g>
   <g id="patch_13">
    <path d="M 524.391778 199.85845 
L 524.391778 28.51845 
" style="fill:none;stroke:#000000;stroke-linecap:square;stroke-linejoin:miter;"/>
   </g>
   <g id="patch_14">
    <path d="M 694.843065 199.85845 
L 694.843065 28.51845 
" style="fill:none;stroke:#000000;stroke-linecap:square;stroke-linejoin:miter;"/>
   </g>
   <g id="patch_15">
    <path d="M 524.391778 199.85845 
L 694.843065 199.85845 
" style="fill:none;stroke:#000000;stroke-linecap:square;stroke-linejoin:miter;"/>
   </g>
   <g id="patch_16">
    <path d="M 524.391778 28.51845 
L 694.843065 28.51845 
" style="fill:none;stroke:#000000;stroke-linecap:square;stroke-linejoin:miter;"/>
   </g>
   <g id="text_14">
    <!-- posterior -->
    <defs>
     <path d="M 44.28125 53.078125 
L 44.28125 44.578125 
Q 40.484375 46.53125 36.375 47.5 
Q 32.28125 48.484375 27.875 48.484375 
Q 21.1875 48.484375 17.84375 46.4375 
Q 14.5 44.390625 14.5 40.28125 
Q 14.5 37.15625 16.890625 35.375 
Q 19.28125 33.59375 26.515625 31.984375 
L 29.59375 31.296875 
Q 39.15625 29.25 43.1875 25.515625 
Q 47.21875 21.78125 47.21875 15.09375 
Q 47.21875 7.46875 41.1875 3.015625 
Q 35.15625 -1.421875 24.609375 -1.421875 
Q 20.21875 -1.421875 15.453125 -0.5625 
Q 10.6875 0.296875 5.421875 2 
L 5.421875 11.28125 
Q 10.40625 8.6875 15.234375 7.390625 
Q 20.0625 6.109375 24.8125 6.109375 
Q 31.15625 6.109375 34.5625 8.28125 
Q 37.984375 10.453125 37.984375 14.40625 
Q 37.984375 18.0625 35.515625 20.015625 
Q 33.0625 21.96875 24.703125 23.78125 
L 21.578125 24.515625 
Q 13.234375 26.265625 9.515625 29.90625 
Q 5.8125 33.546875 5.8125 39.890625 
Q 5.8125 47.609375 11.28125 51.796875 
Q 16.75 56 26.8125 56 
Q 31.78125 56 36.171875 55.265625 
Q 40.578125 54.546875 44.28125 53.078125 
z
" id="DejaVuSans-115"/>
     <path d="M 18.3125 70.21875 
L 18.3125 54.6875 
L 36.8125 54.6875 
L 36.8125 47.703125 
L 18.3125 47.703125 
L 18.3125 18.015625 
Q 18.3125 11.328125 20.140625 9.421875 
Q 21.96875 7.515625 27.59375 7.515625 
L 36.8125 7.515625 
L 36.8125 0 
L 27.59375 0 
Q 17.1875 0 13.234375 3.875 
Q 9.28125 7.765625 9.28125 18.015625 
L 9.28125 47.703125 
L 2.6875 47.703125 
L 2.6875 54.6875 
L 9.28125 54.6875 
L 9.28125 70.21875 
z
" id="DejaVuSans-116"/>
    </defs>
    <g transform="translate(564.389721 22.51845)scale(0.2016 -0.2016)">
     <use xlink:href="#DejaVuSans-112"/>
     <use x="63.476562" xlink:href="#DejaVuSans-111"/>
     <use x="124.658203" xlink:href="#DejaVuSans-115"/>
     <use x="176.757812" xlink:href="#DejaVuSans-116"/>
     <use x="215.966797" xlink:href="#DejaVuSans-101"/>
     <use x="277.490234" xlink:href="#DejaVuSans-114"/>
     <use x="318.603516" xlink:href="#DejaVuSans-105"/>
     <use x="346.386719" xlink:href="#DejaVuSans-111"/>
     <use x="407.568359" xlink:href="#DejaVuSans-114"/>
    </g>
   </g>
  </g>
  <g id="axes_4">
   <g id="patch_17">
    <path d="M 10.584402 403.81845 
L 181.035689 403.81845 
L 181.035689 232.47845 
L 10.584402 232.47845 
z
" style="fill:#f0f0f0;"/>
   </g>
   <g id="matplotlib.axis_7">
    <g id="xtick_10">
     <g id="line2d_13"/>
     <g id="text_15">
      <!-- 0.0 -->
      <g transform="translate(7.2 417.956262)scale(0.14 -0.14)">
       <use xlink:href="#DejaVuSans-48"/>
       <use x="63.623047" xlink:href="#DejaVuSans-46"/>
       <use x="95.410156" xlink:href="#DejaVuSans-48"/>
      </g>
     </g>
    </g>
    <g id="xtick_11">
     <g id="line2d_14"/>
     <g id="text_16">
      <!-- 0.5 -->
      <g transform="translate(84.677858 417.956262)scale(0.14 -0.14)">
       <use xlink:href="#DejaVuSans-48"/>
       <use x="63.623047" xlink:href="#DejaVuSans-46"/>
       <use x="95.410156" xlink:href="#DejaVuSans-53"/>
      </g>
     </g>
    </g>
    <g id="xtick_12">
     <g id="line2d_15"/>
     <g id="text_17">
      <!-- 1.0 -->
      <g transform="translate(162.155715 417.956262)scale(0.14 -0.14)">
       <use xlink:href="#DejaVuSans-49"/>
       <use x="63.623047" xlink:href="#DejaVuSans-46"/>
       <use x="95.410156" xlink:href="#DejaVuSans-48"/>
      </g>
     </g>
    </g>
   </g>
   <g id="matplotlib.axis_8"/>
   <g id="line2d_16">
    <path clip-path="url(#p601eba7d71)" d="M 18.332188 396.030268 
L 19.897397 396.030268 
L 21.462606 396.030268 
L 23.027815 396.030268 
L 24.593024 396.030268 
L 26.158234 396.030268 
L 27.723443 396.030268 
L 29.288652 396.030268 
L 30.853861 396.030268 
L 32.419071 396.030268 
L 33.98428 396.030268 
L 35.549489 396.030268 
L 37.114699 396.030268 
L 38.679908 396.030268 
L 40.245116 396.030268 
L 41.810327 396.030268 
L 43.375535 396.030268 
L 44.940744 396.030268 
L 46.505955 396.030268 
L 48.071163 396.030268 
L 49.636372 396.030268 
L 51.201583 396.030268 
L 52.766791 396.030268 
L 54.332 396.030268 
L 55.897211 396.030268 
L 57.462417 396.030268 
L 59.027628 396.030268 
L 60.592838 396.030268 
L 62.158045 396.030268 
L 63.723255 396.030268 
L 65.288466 396.030268 
L 66.853673 396.030268 
L 68.418883 396.030268 
L 69.984094 396.030268 
L 71.5493 396.030268 
L 73.114511 396.030268 
L 74.679722 396.030268 
L 76.244928 396.030268 
L 77.810139 396.030268 
L 79.37535 396.030268 
L 80.940556 396.030268 
L 82.505767 396.030268 
L 84.070978 396.030268 
L 85.636184 396.030268 
L 87.201395 396.030268 
L 88.766606 396.030268 
L 90.331812 396.030268 
L 91.897023 396.030268 
L 93.462234 396.030268 
L 95.02744 396.030268 
L 96.592646 240.266632 
L 98.157857 240.266632 
L 99.723068 240.266632 
L 101.288279 240.266632 
L 102.853489 240.266632 
L 104.4187 240.266632 
L 105.983902 240.266632 
L 107.549113 240.266632 
L 109.114323 240.266632 
L 110.679534 240.266632 
L 112.244745 240.266632 
L 113.809956 240.266632 
L 115.375158 240.266632 
L 116.940368 240.266632 
L 118.505579 240.266632 
L 120.07079 240.266632 
L 121.636001 240.266632 
L 123.201203 240.266632 
L 124.766413 240.266632 
L 126.331624 240.266632 
L 127.896835 240.266632 
L 129.462046 240.266632 
L 131.027257 240.266632 
L 132.592458 240.266632 
L 134.157669 240.266632 
L 135.72288 240.266632 
L 137.288091 240.266632 
L 138.853302 240.266632 
L 140.418512 240.266632 
L 141.983714 240.266632 
L 143.548925 240.266632 
L 145.114136 240.266632 
L 146.679347 240.266632 
L 148.244557 240.266632 
L 149.809768 240.266632 
L 151.37497 240.266632 
L 152.940181 240.266632 
L 154.505391 240.266632 
L 156.070602 240.266632 
L 157.635813 240.266632 
L 159.201024 240.266632 
L 160.766226 240.266632 
L 162.331436 240.266632 
L 163.896647 240.266632 
L 165.461858 240.266632 
L 167.027069 240.266632 
L 168.59228 240.266632 
L 170.157481 240.266632 
L 171.722692 240.266632 
L 173.287903 240.266632 
" style="fill:none;stroke:#008fd5;stroke-width:4;"/>
   </g>
   <g id="patch_18">
    <path d="M 10.584402 403.81845 
L 10.584402 232.47845 
" style="fill:none;stroke:#000000;stroke-linecap:square;stroke-linejoin:miter;"/>
   </g>
   <g id="patch_19">
    <path d="M 181.035689 403.81845 
L 181.035689 232.47845 
" style="fill:none;stroke:#000000;stroke-linecap:square;stroke-linejoin:miter;"/>
   </g>
   <g id="patch_20">
    <path d="M 10.584402 403.81845 
L 181.035689 403.81845 
" style="fill:none;stroke:#000000;stroke-linecap:square;stroke-linejoin:miter;"/>
   </g>
   <g id="patch_21">
    <path d="M 10.584402 232.47845 
L 181.035689 232.47845 
" style="fill:none;stroke:#000000;stroke-linecap:square;stroke-linejoin:miter;"/>
   </g>
  </g>
  <g id="axes_5">
   <g id="patch_22">
    <path d="M 267.48809 403.81845 
L 437.939377 403.81845 
L 437.939377 232.47845 
L 267.48809 232.47845 
z
" style="fill:#f0f0f0;"/>
   </g>
   <g id="matplotlib.axis_9">
    <g id="xtick_13">
     <g id="line2d_17"/>
     <g id="text_18">
      <!-- 0.0 -->
      <g transform="translate(264.103688 417.956262)scale(0.14 -0.14)">
       <use xlink:href="#DejaVuSans-48"/>
       <use x="63.623047" xlink:href="#DejaVuSans-46"/>
       <use x="95.410156" xlink:href="#DejaVuSans-48"/>
      </g>
     </g>
    </g>
    <g id="xtick_14">
     <g id="line2d_18"/>
     <g id="text_19">
      <!-- 0.5 -->
      <g transform="translate(341.581546 417.956262)scale(0.14 -0.14)">
       <use xlink:href="#DejaVuSans-48"/>
       <use x="63.623047" xlink:href="#DejaVuSans-46"/>
       <use x="95.410156" xlink:href="#DejaVuSans-53"/>
      </g>
     </g>
    </g>
    <g id="xtick_15">
     <g id="line2d_19"/>
     <g id="text_20">
      <!-- 1.0 -->
      <g transform="translate(419.059404 417.956262)scale(0.14 -0.14)">
       <use xlink:href="#DejaVuSans-49"/>
       <use x="63.623047" xlink:href="#DejaVuSans-46"/>
       <use x="95.410156" xlink:href="#DejaVuSans-48"/>
      </g>
     </g>
    </g>
   </g>
   <g id="matplotlib.axis_10">
    <g id="text_21">
     <!-- $\times$ -->
     <g transform="translate(253.089652 339.14845)rotate(-90)scale(0.5 -0.5)">
      <use transform="translate(0 0.375)" xlink:href="#DejaVuSans-215"/>
     </g>
    </g>
   </g>
   <g id="line2d_20">
    <path clip-path="url(#pbdbd052fce)" d="M 275.235876 396.030268 
L 276.801085 396.030268 
L 278.366294 396.030265 
L 279.931503 396.030234 
L 281.496713 396.030084 
L 283.061922 396.029588 
L 284.627131 396.0283 
L 286.19234 396.025464 
L 287.757549 396.019909 
L 289.322759 396.009952 
L 290.887968 395.9933 
L 292.453177 395.966959 
L 294.018387 395.927157 
L 295.583596 395.869272 
L 297.148804 395.787783 
L 298.714015 395.676233 
L 300.279223 395.527214 
L 301.844432 395.332364 
L 303.409643 395.082394 
L 304.974851 394.767126 
L 306.54006 394.375559 
L 308.105271 393.895947 
L 309.670479 393.3159 
L 311.235688 392.622511 
L 312.800899 391.802492 
L 314.366105 390.842319 
L 315.931316 389.728403 
L 317.496526 388.447271 
L 319.061733 386.985783 
L 320.626944 385.331277 
L 322.192154 383.471829 
L 323.757361 381.396454 
L 325.322571 379.095276 
L 326.887782 376.55982 
L 328.452988 373.783124 
L 330.018199 370.760064 
L 331.58341 367.487407 
L 333.148616 363.964174 
L 334.713827 360.191614 
L 336.279038 356.173517 
L 337.844244 351.916252 
L 339.409455 347.428989 
L 340.974666 342.723675 
L 342.539872 337.815217 
L 344.105083 332.721345 
L 345.670294 327.46299 
L 347.2355 322.063751 
L 348.800711 316.550282 
L 350.365922 310.951977 
L 351.931128 305.301061 
L 353.496334 299.632096 
L 355.061545 293.982055 
L 356.626756 288.390141 
L 358.191967 282.897271 
L 359.757177 277.545986 
L 361.322388 272.380051 
L 362.88759 267.44414 
L 364.452801 262.783233 
L 366.018012 258.442429 
L 367.583222 254.466333 
L 369.148433 250.898702 
L 370.713644 247.781686 
L 372.278846 245.15577 
L 373.844056 243.058446 
L 375.409267 241.524557 
L 376.974478 240.584984 
L 378.539689 240.266632 
L 380.104891 240.591476 
L 381.670101 241.576276 
L 383.235312 243.231771 
L 384.800523 245.562671 
L 386.365734 248.566698 
L 387.930945 252.234248 
L 389.496146 256.54842 
L 391.061357 261.484186 
L 392.626568 267.008813 
L 394.191779 273.081043 
L 395.75699 279.651697 
L 397.3222 286.66333 
L 398.887402 294.050685 
L 400.452613 301.741215 
L 402.017824 309.655225 
L 403.583035 317.707038 
L 405.148245 325.80571 
L 406.713456 333.856113 
L 408.278658 341.760435 
L 409.843869 349.420028 
L 411.409079 356.736858 
L 412.97429 363.616117 
L 414.539501 369.968696 
L 416.104712 375.714044 
L 417.669914 380.783448 
L 419.235124 385.123855 
L 420.800335 388.701825 
L 422.365546 391.508196 
L 423.930757 393.563198 
L 425.495968 394.921986 
L 427.061169 395.68082 
L 428.62638 395.983815 
L 430.191591 396.030268 
" style="fill:none;stroke:#008fd5;stroke-width:4;"/>
   </g>
   <g id="patch_23">
    <path d="M 267.48809 403.81845 
L 267.48809 232.47845 
" style="fill:none;stroke:#000000;stroke-linecap:square;stroke-linejoin:miter;"/>
   </g>
   <g id="patch_24">
    <path d="M 437.939377 403.81845 
L 437.939377 232.47845 
" style="fill:none;stroke:#000000;stroke-linecap:square;stroke-linejoin:miter;"/>
   </g>
   <g id="patch_25">
    <path d="M 267.48809 403.81845 
L 437.939377 403.81845 
" style="fill:none;stroke:#000000;stroke-linecap:square;stroke-linejoin:miter;"/>
   </g>
   <g id="patch_26">
    <path d="M 267.48809 232.47845 
L 437.939377 232.47845 
" style="fill:none;stroke:#000000;stroke-linecap:square;stroke-linejoin:miter;"/>
   </g>
   <g id="text_22">
    <!-- $\propto$ -->
    <g transform="translate(454.984506 331.85565)scale(0.6 -0.6)">
     <use transform="translate(19.482422 0.3125)" xlink:href="#DejaVuSans-8733"/>
    </g>
   </g>
  </g>
  <g id="axes_6">
   <g id="patch_27">
    <path d="M 524.391778 403.81845 
L 694.843065 403.81845 
L 694.843065 232.47845 
L 524.391778 232.47845 
z
" style="fill:#f0f0f0;"/>
   </g>
   <g id="matplotlib.axis_11">
    <g id="xtick_16">
     <g id="line2d_21"/>
     <g id="text_23">
      <!-- 0.0 -->
      <g transform="translate(521.007376 417.956262)scale(0.14 -0.14)">
       <use xlink:href="#DejaVuSans-48"/>
       <use x="63.623047" xlink:href="#DejaVuSans-46"/>
       <use x="95.410156" xlink:href="#DejaVuSans-48"/>
      </g>
     </g>
    </g>
    <g id="xtick_17">
     <g id="line2d_22"/>
     <g id="text_24">
      <!-- 0.5 -->
      <g transform="translate(598.485234 417.956262)scale(0.14 -0.14)">
       <use xlink:href="#DejaVuSans-48"/>
       <use x="63.623047" xlink:href="#DejaVuSans-46"/>
       <use x="95.410156" xlink:href="#DejaVuSans-53"/>
      </g>
     </g>
    </g>
    <g id="xtick_18">
     <g id="line2d_23"/>
     <g id="text_25">
      <!-- 1.0 -->
      <g transform="translate(675.963092 417.956262)scale(0.14 -0.14)">
       <use xlink:href="#DejaVuSans-49"/>
       <use x="63.623047" xlink:href="#DejaVuSans-46"/>
       <use x="95.410156" xlink:href="#DejaVuSans-48"/>
      </g>
     </g>
    </g>
   </g>
   <g id="matplotlib.axis_12"/>
   <g id="line2d_24">
    <path clip-path="url(#p6f15527ee0)" d="M 532.139564 396.030268 
L 533.704773 396.030268 
L 535.269982 396.030268 
L 536.835191 396.030268 
L 538.400401 396.030268 
L 539.96561 396.030268 
L 541.530819 396.030268 
L 543.096028 396.030268 
L 544.661238 396.030268 
L 546.226447 396.030268 
L 547.791656 396.030268 
L 549.356865 396.030268 
L 550.922075 396.030268 
L 552.487284 396.030268 
L 554.052492 396.030268 
L 555.617703 396.030268 
L 557.182911 396.030268 
L 558.74812 396.030268 
L 560.313331 396.030268 
L 561.878539 396.030268 
L 563.443748 396.030268 
L 565.008959 396.030268 
L 566.574167 396.030268 
L 568.139376 396.030268 
L 569.704587 396.030268 
L 571.269793 396.030268 
L 572.835004 396.030268 
L 574.400214 396.030268 
L 575.965421 396.030268 
L 577.530632 396.030268 
L 579.095842 396.030268 
L 580.661049 396.030268 
L 582.226259 396.030268 
L 583.79147 396.030268 
L 585.356676 396.030268 
L 586.921887 396.030268 
L 588.487098 396.030268 
L 590.052304 396.030268 
L 591.617515 396.030268 
L 593.182726 396.030268 
L 594.747932 396.030268 
L 596.313143 396.030268 
L 597.878354 396.030268 
L 599.44356 396.030268 
L 601.008771 396.030268 
L 602.573982 396.030268 
L 604.139188 396.030268 
L 605.704399 396.030268 
L 607.26961 396.030268 
L 608.834816 396.030268 
L 610.400022 299.632096 
L 611.965233 293.982055 
L 613.530444 288.390141 
L 615.095655 282.897271 
L 616.660865 277.545986 
L 618.226076 272.380051 
L 619.791278 267.44414 
L 621.356489 262.783233 
L 622.9217 258.442429 
L 624.48691 254.466333 
L 626.052121 250.898702 
L 627.617332 247.781686 
L 629.182534 245.15577 
L 630.747744 243.058446 
L 632.312955 241.524557 
L 633.878166 240.584984 
L 635.443377 240.266632 
L 637.008579 240.591476 
L 638.573789 241.576276 
L 640.139 243.231771 
L 641.704211 245.562671 
L 643.269422 248.566698 
L 644.834633 252.234248 
L 646.399834 256.54842 
L 647.965045 261.484186 
L 649.530256 267.008813 
L 651.095467 273.081043 
L 652.660678 279.651697 
L 654.225888 286.66333 
L 655.79109 294.050685 
L 657.356301 301.741215 
L 658.921512 309.655225 
L 660.486723 317.707038 
L 662.051933 325.80571 
L 663.617144 333.856113 
L 665.182346 341.760435 
L 666.747557 349.420028 
L 668.312768 356.736858 
L 669.877978 363.616117 
L 671.443189 369.968696 
L 673.0084 375.714044 
L 674.573602 380.783448 
L 676.138812 385.123855 
L 677.704023 388.701825 
L 679.269234 391.508196 
L 680.834445 393.563198 
L 682.399656 394.921986 
L 683.964857 395.68082 
L 685.530068 395.983815 
L 687.095279 396.030268 
" style="fill:none;stroke:#008fd5;stroke-width:4;"/>
   </g>
   <g id="patch_28">
    <path d="M 524.391778 403.81845 
L 524.391778 232.47845 
" style="fill:none;stroke:#000000;stroke-linecap:square;stroke-linejoin:miter;"/>
   </g>
   <g id="patch_29">
    <path d="M 694.843065 403.81845 
L 694.843065 232.47845 
" style="fill:none;stroke:#000000;stroke-linecap:square;stroke-linejoin:miter;"/>
   </g>
   <g id="patch_30">
    <path d="M 524.391778 403.81845 
L 694.843065 403.81845 
" style="fill:none;stroke:#000000;stroke-linecap:square;stroke-linejoin:miter;"/>
   </g>
   <g id="patch_31">
    <path d="M 524.391778 232.47845 
L 694.843065 232.47845 
" style="fill:none;stroke:#000000;stroke-linecap:square;stroke-linejoin:miter;"/>
   </g>
  </g>
  <g id="axes_7">
   <g id="patch_32">
    <path d="M 10.584402 607.77845 
L 181.035689 607.77845 
L 181.035689 436.43845 
L 10.584402 436.43845 
z
" style="fill:#f0f0f0;"/>
   </g>
   <g id="matplotlib.axis_13">
    <g id="xtick_19">
     <g id="line2d_25"/>
     <g id="text_26">
      <!-- 0.0 -->
      <g transform="translate(7.2 621.916263)scale(0.14 -0.14)">
       <use xlink:href="#DejaVuSans-48"/>
       <use x="63.623047" xlink:href="#DejaVuSans-46"/>
       <use x="95.410156" xlink:href="#DejaVuSans-48"/>
      </g>
     </g>
    </g>
    <g id="xtick_20">
     <g id="line2d_26"/>
     <g id="text_27">
      <!-- 0.5 -->
      <g transform="translate(84.677858 621.916263)scale(0.14 -0.14)">
       <use xlink:href="#DejaVuSans-48"/>
       <use x="63.623047" xlink:href="#DejaVuSans-46"/>
       <use x="95.410156" xlink:href="#DejaVuSans-53"/>
      </g>
     </g>
    </g>
    <g id="xtick_21">
     <g id="line2d_27"/>
     <g id="text_28">
      <!-- 1.0 -->
      <g transform="translate(162.155715 621.916263)scale(0.14 -0.14)">
       <use xlink:href="#DejaVuSans-49"/>
       <use x="63.623047" xlink:href="#DejaVuSans-46"/>
       <use x="95.410156" xlink:href="#DejaVuSans-48"/>
      </g>
     </g>
    </g>
   </g>
   <g id="matplotlib.axis_14"/>
   <g id="line2d_28">
    <path clip-path="url(#p59f73373d4)" d="M 18.332188 599.990268 
L 19.897397 599.248551 
L 21.462606 598.468418 
L 23.027815 597.647866 
L 24.593024 596.784812 
L 26.158234 595.877046 
L 27.723443 594.92226 
L 29.288652 593.91801 
L 30.853861 592.861742 
L 32.419071 591.750752 
L 33.98428 590.582215 
L 35.549489 589.35314 
L 37.114699 588.060399 
L 38.679908 586.700694 
L 40.245116 585.27055 
L 41.810327 583.766322 
L 43.375535 582.184175 
L 44.940744 580.520063 
L 46.505955 578.769746 
L 48.071163 576.928762 
L 49.636372 574.992417 
L 51.201583 572.955755 
L 52.766791 570.813601 
L 54.332 568.560472 
L 55.897211 566.190617 
L 57.462417 563.698016 
L 59.027628 561.07628 
L 60.592838 558.318734 
L 62.158045 555.418345 
L 63.723255 552.367709 
L 65.288466 549.159041 
L 66.853673 545.784161 
L 68.418883 542.234453 
L 69.984094 538.500853 
L 71.5493 534.573861 
L 73.114511 530.443432 
L 74.679722 526.099039 
L 76.244928 521.52961 
L 77.810139 516.723443 
L 79.37535 511.668332 
L 80.940556 506.351353 
L 82.505767 500.75894 
L 84.070978 494.876815 
L 85.636184 488.690009 
L 87.201395 482.182696 
L 88.766606 475.338284 
L 90.331812 468.139337 
L 91.897023 460.567452 
L 93.462234 452.603322 
L 95.02744 444.226663 
L 96.592646 444.226632 
L 98.157857 452.603322 
L 99.723068 460.567452 
L 101.288279 468.139337 
L 102.853489 475.338305 
L 104.4187 482.182717 
L 105.983902 488.689988 
L 107.549113 494.876815 
L 109.114323 500.75894 
L 110.679534 506.351353 
L 112.244745 511.668342 
L 113.809956 516.723464 
L 115.375158 521.529589 
L 116.940368 526.099039 
L 118.505579 530.443432 
L 120.07079 534.573861 
L 121.636001 538.500869 
L 123.201203 542.234437 
L 124.766413 545.784151 
L 126.331624 549.159041 
L 127.896835 552.367709 
L 129.462046 555.418345 
L 131.027257 558.318744 
L 132.592458 561.07627 
L 134.157669 563.698006 
L 135.72288 566.190617 
L 137.288091 568.560472 
L 138.853302 570.813601 
L 140.418512 572.95576 
L 141.983714 574.992412 
L 143.548925 576.928762 
L 145.114136 578.769746 
L 146.679347 580.520063 
L 148.244557 582.184175 
L 149.809768 583.766325 
L 151.37497 585.270545 
L 152.940181 586.700694 
L 154.505391 588.060399 
L 156.070602 589.35314 
L 157.635813 590.582215 
L 159.201024 591.750757 
L 160.766226 592.861737 
L 162.331436 593.91801 
L 163.896647 594.92226 
L 165.461858 595.877046 
L 167.027069 596.784812 
L 168.59228 597.647869 
L 170.157481 598.468413 
L 171.722692 599.248551 
L 173.287903 599.990268 
" style="fill:none;stroke:#008fd5;stroke-width:4;"/>
   </g>
   <g id="patch_33">
    <path d="M 10.584402 607.77845 
L 10.584402 436.43845 
" style="fill:none;stroke:#000000;stroke-linecap:square;stroke-linejoin:miter;"/>
   </g>
   <g id="patch_34">
    <path d="M 181.035689 607.77845 
L 181.035689 436.43845 
" style="fill:none;stroke:#000000;stroke-linecap:square;stroke-linejoin:miter;"/>
   </g>
   <g id="patch_35">
    <path d="M 10.584402 607.77845 
L 181.035689 607.77845 
" style="fill:none;stroke:#000000;stroke-linecap:square;stroke-linejoin:miter;"/>
   </g>
   <g id="patch_36">
    <path d="M 10.584402 436.43845 
L 181.035689 436.43845 
" style="fill:none;stroke:#000000;stroke-linecap:square;stroke-linejoin:miter;"/>
   </g>
  </g>
  <g id="axes_8">
   <g id="patch_37">
    <path d="M 267.48809 607.77845 
L 437.939377 607.77845 
L 437.939377 436.43845 
L 267.48809 436.43845 
z
" style="fill:#f0f0f0;"/>
   </g>
   <g id="matplotlib.axis_15">
    <g id="xtick_22">
     <g id="line2d_29"/>
     <g id="text_29">
      <!-- 0.0 -->
      <g transform="translate(264.103688 621.916263)scale(0.14 -0.14)">
       <use xlink:href="#DejaVuSans-48"/>
       <use x="63.623047" xlink:href="#DejaVuSans-46"/>
       <use x="95.410156" xlink:href="#DejaVuSans-48"/>
      </g>
     </g>
    </g>
    <g id="xtick_23">
     <g id="line2d_30"/>
     <g id="text_30">
      <!-- 0.5 -->
      <g transform="translate(341.581546 621.916263)scale(0.14 -0.14)">
       <use xlink:href="#DejaVuSans-48"/>
       <use x="63.623047" xlink:href="#DejaVuSans-46"/>
       <use x="95.410156" xlink:href="#DejaVuSans-53"/>
      </g>
     </g>
    </g>
    <g id="xtick_24">
     <g id="line2d_31"/>
     <g id="text_31">
      <!-- 1.0 -->
      <g transform="translate(419.059404 621.916263)scale(0.14 -0.14)">
       <use xlink:href="#DejaVuSans-49"/>
       <use x="63.623047" xlink:href="#DejaVuSans-46"/>
       <use x="95.410156" xlink:href="#DejaVuSans-48"/>
      </g>
     </g>
    </g>
   </g>
   <g id="matplotlib.axis_16">
    <g id="text_32">
     <!-- $\times$ -->
     <g transform="translate(253.089652 543.10845)rotate(-90)scale(0.5 -0.5)">
      <use transform="translate(0 0.375)" xlink:href="#DejaVuSans-215"/>
     </g>
    </g>
   </g>
   <g id="line2d_32">
    <path clip-path="url(#pe8dfa9fa7c)" d="M 275.235876 599.990268 
L 276.801085 599.990268 
L 278.366294 599.990265 
L 279.931503 599.990234 
L 281.496713 599.990084 
L 283.061922 599.989588 
L 284.627131 599.9883 
L 286.19234 599.985464 
L 287.757549 599.979909 
L 289.322759 599.969952 
L 290.887968 599.9533 
L 292.453177 599.926959 
L 294.018387 599.887157 
L 295.583596 599.829272 
L 297.148804 599.747783 
L 298.714015 599.636233 
L 300.279223 599.487214 
L 301.844432 599.292364 
L 303.409643 599.042394 
L 304.974851 598.727126 
L 306.54006 598.335559 
L 308.105271 597.855947 
L 309.670479 597.2759 
L 311.235688 596.582511 
L 312.800899 595.762492 
L 314.366105 594.802319 
L 315.931316 593.688403 
L 317.496526 592.407271 
L 319.061733 590.945783 
L 320.626944 589.291277 
L 322.192154 587.431829 
L 323.757361 585.356454 
L 325.322571 583.055276 
L 326.887782 580.51982 
L 328.452988 577.743124 
L 330.018199 574.720064 
L 331.58341 571.447407 
L 333.148616 567.924174 
L 334.713827 564.151614 
L 336.279038 560.133517 
L 337.844244 555.876252 
L 339.409455 551.388989 
L 340.974666 546.683675 
L 342.539872 541.775217 
L 344.105083 536.681345 
L 345.670294 531.42299 
L 347.2355 526.023751 
L 348.800711 520.510282 
L 350.365922 514.911977 
L 351.931128 509.261061 
L 353.496334 503.592096 
L 355.061545 497.942055 
L 356.626756 492.350141 
L 358.191967 486.857271 
L 359.757177 481.505986 
L 361.322388 476.340051 
L 362.88759 471.40414 
L 364.452801 466.743233 
L 366.018012 462.402429 
L 367.583222 458.426333 
L 369.148433 454.858702 
L 370.713644 451.741686 
L 372.278846 449.11577 
L 373.844056 447.018446 
L 375.409267 445.484557 
L 376.974478 444.544984 
L 378.539689 444.226632 
L 380.104891 444.551476 
L 381.670101 445.536276 
L 383.235312 447.191771 
L 384.800523 449.522671 
L 386.365734 452.526698 
L 387.930945 456.194248 
L 389.496146 460.50842 
L 391.061357 465.444186 
L 392.626568 470.968813 
L 394.191779 477.041043 
L 395.75699 483.611697 
L 397.3222 490.62333 
L 398.887402 498.010685 
L 400.452613 505.701215 
L 402.017824 513.615225 
L 403.583035 521.667038 
L 405.148245 529.76571 
L 406.713456 537.816113 
L 408.278658 545.720435 
L 409.843869 553.380028 
L 411.409079 560.696858 
L 412.97429 567.576117 
L 414.539501 573.928696 
L 416.104712 579.674044 
L 417.669914 584.743448 
L 419.235124 589.083855 
L 420.800335 592.661825 
L 422.365546 595.468196 
L 423.930757 597.523198 
L 425.495968 598.881986 
L 427.061169 599.64082 
L 428.62638 599.943815 
L 430.191591 599.990268 
" style="fill:none;stroke:#008fd5;stroke-width:4;"/>
   </g>
   <g id="patch_38">
    <path d="M 267.48809 607.77845 
L 267.48809 436.43845 
" style="fill:none;stroke:#000000;stroke-linecap:square;stroke-linejoin:miter;"/>
   </g>
   <g id="patch_39">
    <path d="M 437.939377 607.77845 
L 437.939377 436.43845 
" style="fill:none;stroke:#000000;stroke-linecap:square;stroke-linejoin:miter;"/>
   </g>
   <g id="patch_40">
    <path d="M 267.48809 607.77845 
L 437.939377 607.77845 
" style="fill:none;stroke:#000000;stroke-linecap:square;stroke-linejoin:miter;"/>
   </g>
   <g id="patch_41">
    <path d="M 267.48809 436.43845 
L 437.939377 436.43845 
" style="fill:none;stroke:#000000;stroke-linecap:square;stroke-linejoin:miter;"/>
   </g>
   <g id="text_33">
    <!-- $\propto$ -->
    <g transform="translate(454.984506 535.81565)scale(0.6 -0.6)">
     <use transform="translate(19.482422 0.3125)" xlink:href="#DejaVuSans-8733"/>
    </g>
   </g>
  </g>
  <g id="axes_9">
   <g id="patch_42">
    <path d="M 524.391778 607.77845 
L 694.843065 607.77845 
L 694.843065 436.43845 
L 524.391778 436.43845 
z
" style="fill:#f0f0f0;"/>
   </g>
   <g id="matplotlib.axis_17">
    <g id="xtick_25">
     <g id="line2d_33"/>
     <g id="text_34">
      <!-- 0.0 -->
      <g transform="translate(521.007376 621.916263)scale(0.14 -0.14)">
       <use xlink:href="#DejaVuSans-48"/>
       <use x="63.623047" xlink:href="#DejaVuSans-46"/>
       <use x="95.410156" xlink:href="#DejaVuSans-48"/>
      </g>
     </g>
    </g>
    <g id="xtick_26">
     <g id="line2d_34"/>
     <g id="text_35">
      <!-- 0.5 -->
      <g transform="translate(598.485234 621.916263)scale(0.14 -0.14)">
       <use xlink:href="#DejaVuSans-48"/>
       <use x="63.623047" xlink:href="#DejaVuSans-46"/>
       <use x="95.410156" xlink:href="#DejaVuSans-53"/>
      </g>
     </g>
    </g>
    <g id="xtick_27">
     <g id="line2d_35"/>
     <g id="text_36">
      <!-- 1.0 -->
      <g transform="translate(675.963092 621.916263)scale(0.14 -0.14)">
       <use xlink:href="#DejaVuSans-49"/>
       <use x="63.623047" xlink:href="#DejaVuSans-46"/>
       <use x="95.410156" xlink:href="#DejaVuSans-48"/>
      </g>
     </g>
    </g>
   </g>
   <g id="matplotlib.axis_18"/>
   <g id="line2d_36">
    <path clip-path="url(#p8362ff96d3)" d="M 532.139564 599.990268 
L 533.704773 599.990268 
L 535.269982 599.990268 
L 536.835191 599.990263 
L 538.400401 599.990238 
L 539.96561 599.99015 
L 541.530819 599.989909 
L 543.096028 599.989346 
L 544.661238 599.988177 
L 546.226447 599.985955 
L 547.791656 599.982012 
L 549.356865 599.975398 
L 550.922075 599.964794 
L 552.487284 599.948432 
L 554.052492 599.923993 
L 555.617703 599.888492 
L 557.182911 599.838161 
L 558.74812 599.768313 
L 560.313331 599.673198 
L 561.878539 599.545852 
L 563.443748 599.377926 
L 565.008959 599.159527 
L 566.574167 598.879026 
L 568.139376 598.522887 
L 569.704587 598.075481 
L 571.269793 597.518896 
L 572.835004 596.832752 
L 574.400214 595.994029 
L 575.965421 594.976913 
L 577.530632 593.752611 
L 579.095842 592.289245 
L 580.661049 590.551739 
L 582.226259 588.501701 
L 583.79147 586.097432 
L 585.356676 583.293851 
L 586.921887 580.042614 
L 588.487098 576.292107 
L 590.052304 571.987741 
L 591.617515 567.071999 
L 593.182726 561.484903 
L 594.747932 555.164268 
L 596.313143 548.046294 
L 597.878354 540.066037 
L 599.44356 531.158191 
L 601.008771 521.257671 
L 602.573982 510.300966 
L 604.139188 498.226555 
L 605.704399 484.976549 
L 607.26961 470.497743 
L 608.834816 454.743297 
L 610.400022 445.667912 
L 611.965233 444.668848 
L 613.530444 444.226632 
L 615.095655 444.340998 
L 616.660865 445.007134 
L 618.226076 446.215718 
L 619.791278 447.953106 
L 621.356489 450.201551 
L 622.9217 452.939426 
L 624.48691 456.141548 
L 626.052121 459.779565 
L 627.617332 463.822044 
L 629.182534 468.235276 
L 630.747744 472.982998 
L 632.312955 478.027401 
L 633.878166 483.329042 
L 635.443377 488.847562 
L 637.008579 494.541777 
L 638.573789 500.370393 
L 640.139 506.291938 
L 641.704211 512.265615 
L 643.269422 518.251257 
L 644.834633 524.209789 
L 646.399834 530.103611 
L 647.965045 535.896837 
L 649.530256 541.555634 
L 651.095467 547.048305 
L 652.660678 552.345721 
L 654.225888 557.421391 
L 655.79109 562.251703 
L 657.356301 566.816153 
L 658.921512 571.097292 
L 660.486723 575.081028 
L 662.051933 578.75661 
L 663.617144 582.116685 
L 665.182346 585.157361 
L 666.747557 587.878293 
L 668.312768 590.282502 
L 669.877978 592.376491 
L 671.443189 594.170147 
L 673.0084 595.676664 
L 674.573602 596.912452 
L 676.138812 597.897066 
L 677.704023 598.653036 
L 679.269234 599.205758 
L 680.834445 599.583349 
L 682.399656 599.816471 
L 683.964857 599.938168 
L 685.530068 599.983683 
L 687.095279 599.990268 
" style="fill:none;stroke:#008fd5;stroke-width:4;"/>
   </g>
   <g id="patch_43">
    <path d="M 524.391778 607.77845 
L 524.391778 436.43845 
" style="fill:none;stroke:#000000;stroke-linecap:square;stroke-linejoin:miter;"/>
   </g>
   <g id="patch_44">
    <path d="M 694.843065 607.77845 
L 694.843065 436.43845 
" style="fill:none;stroke:#000000;stroke-linecap:square;stroke-linejoin:miter;"/>
   </g>
   <g id="patch_45">
    <path d="M 524.391778 607.77845 
L 694.843065 607.77845 
" style="fill:none;stroke:#000000;stroke-linecap:square;stroke-linejoin:miter;"/>
   </g>
   <g id="patch_46">
    <path d="M 524.391778 436.43845 
L 694.843065 436.43845 
" style="fill:none;stroke:#000000;stroke-linecap:square;stroke-linejoin:miter;"/>
   </g>
  </g>
 </g>
 <defs>
  <clipPath id="pe4fc67be86">
   <rect height="171.34" width="170.451287" x="10.584402" y="28.51845"/>
  </clipPath>
  <clipPath id="p667fa940f3">
   <rect height="171.34" width="170.451287" x="267.48809" y="28.51845"/>
  </clipPath>
  <clipPath id="pe42da3e008">
   <rect height="171.34" width="170.451287" x="524.391778" y="28.51845"/>
  </clipPath>
  <clipPath id="p601eba7d71">
   <rect height="171.34" width="170.451287" x="10.584402" y="232.47845"/>
  </clipPath>
  <clipPath id="pbdbd052fce">
   <rect height="171.34" width="170.451287" x="267.48809" y="232.47845"/>
  </clipPath>
  <clipPath id="p6f15527ee0">
   <rect height="171.34" width="170.451287" x="524.391778" y="232.47845"/>
  </clipPath>
  <clipPath id="p59f73373d4">
   <rect height="171.34" width="170.451287" x="10.584402" y="436.43845"/>
  </clipPath>
  <clipPath id="pe8dfa9fa7c">
   <rect height="171.34" width="170.451287" x="267.48809" y="436.43845"/>
  </clipPath>
  <clipPath id="p8362ff96d3">
   <rect height="171.34" width="170.451287" x="524.391778" y="436.43845"/>
  </clipPath>
 </defs>
</svg>
