<?xml version="1.0" encoding="utf-8" standalone="no"?>
<!DOCTYPE svg PUBLIC "-//W3C//DTD SVG 1.1//EN"
  "http://www.w3.org/Graphics/SVG/1.1/DTD/svg11.dtd">
<!-- Created with matplotlib (https://matplotlib.org/) -->
<svg height="342.166562pt" version="1.1" viewBox="0 0 814.819688 342.166562" width="814.819688pt" xmlns="http://www.w3.org/2000/svg" xmlns:xlink="http://www.w3.org/1999/xlink">
 <metadata>
  <rdf:RDF xmlns:cc="http://creativecommons.org/ns#" xmlns:dc="http://purl.org/dc/elements/1.1/" xmlns:rdf="http://www.w3.org/1999/02/22-rdf-syntax-ns#">
   <cc:Work>
    <dc:type rdf:resource="http://purl.org/dc/dcmitype/StillImage"/>
    <dc:date>2021-02-03T12:32:40.466526</dc:date>
    <dc:format>image/svg+xml</dc:format>
    <dc:creator>
     <cc:Agent>
      <dc:title>Matplotlib v3.3.3, https://matplotlib.org/</dc:title>
     </cc:Agent>
    </dc:creator>
   </cc:Work>
  </rdf:RDF>
 </metadata>
 <defs>
  <style type="text/css">*{stroke-linecap:butt;stroke-linejoin:round;}</style>
 </defs>
 <g id="figure_1">
  <g id="patch_1">
   <path d="M 0 342.166562 
L 814.819688 342.166562 
L 814.819688 0 
L 0 0 
z
" style="fill:#f0f0f0;"/>
  </g>
  <g id="axes_1">
   <g id="patch_2">
    <path d="M 55.939688 298.8 
L 807.619687 298.8 
L 807.619687 7.2 
L 55.939688 7.2 
z
" style="fill:#f0f0f0;"/>
   </g>
   <g id="matplotlib.axis_1">
    <g id="xtick_1">
     <g id="line2d_1">
      <path clip-path="url(#p79d2f4a018)" d="M 166.034233 298.8 
L 166.034233 7.2 
" style="fill:none;stroke:#cbcbcb;"/>
     </g>
     <g id="line2d_2"/>
     <g id="text_1">
      <!-- 30 -->
      <g transform="translate(157.126733 312.937813)scale(0.14 -0.14)">
       <defs>
        <path d="M 40.578125 39.3125 
Q 47.65625 37.796875 51.625 33 
Q 55.609375 28.21875 55.609375 21.1875 
Q 55.609375 10.40625 48.1875 4.484375 
Q 40.765625 -1.421875 27.09375 -1.421875 
Q 22.515625 -1.421875 17.65625 -0.515625 
Q 12.796875 0.390625 7.625 2.203125 
L 7.625 11.71875 
Q 11.71875 9.328125 16.59375 8.109375 
Q 21.484375 6.890625 26.8125 6.890625 
Q 36.078125 6.890625 40.9375 10.546875 
Q 45.796875 14.203125 45.796875 21.1875 
Q 45.796875 27.640625 41.28125 31.265625 
Q 36.765625 34.90625 28.71875 34.90625 
L 20.21875 34.90625 
L 20.21875 43.015625 
L 29.109375 43.015625 
Q 36.375 43.015625 40.234375 45.921875 
Q 44.09375 48.828125 44.09375 54.296875 
Q 44.09375 59.90625 40.109375 62.90625 
Q 36.140625 65.921875 28.71875 65.921875 
Q 24.65625 65.921875 20.015625 65.03125 
Q 15.375 64.15625 9.8125 62.3125 
L 9.8125 71.09375 
Q 15.4375 72.65625 20.34375 73.4375 
Q 25.25 74.21875 29.59375 74.21875 
Q 40.828125 74.21875 47.359375 69.109375 
Q 53.90625 64.015625 53.90625 55.328125 
Q 53.90625 49.265625 50.4375 45.09375 
Q 46.96875 40.921875 40.578125 39.3125 
z
" id="DejaVuSans-51"/>
        <path d="M 31.78125 66.40625 
Q 24.171875 66.40625 20.328125 58.90625 
Q 16.5 51.421875 16.5 36.375 
Q 16.5 21.390625 20.328125 13.890625 
Q 24.171875 6.390625 31.78125 6.390625 
Q 39.453125 6.390625 43.28125 13.890625 
Q 47.125 21.390625 47.125 36.375 
Q 47.125 51.421875 43.28125 58.90625 
Q 39.453125 66.40625 31.78125 66.40625 
z
M 31.78125 74.21875 
Q 44.046875 74.21875 50.515625 64.515625 
Q 56.984375 54.828125 56.984375 36.375 
Q 56.984375 17.96875 50.515625 8.265625 
Q 44.046875 -1.421875 31.78125 -1.421875 
Q 19.53125 -1.421875 13.0625 8.265625 
Q 6.59375 17.96875 6.59375 36.375 
Q 6.59375 54.828125 13.0625 64.515625 
Q 19.53125 74.21875 31.78125 74.21875 
z
" id="DejaVuSans-48"/>
       </defs>
       <use xlink:href="#DejaVuSans-51"/>
       <use x="63.623047" xlink:href="#DejaVuSans-48"/>
      </g>
     </g>
    </g>
    <g id="xtick_2">
     <g id="line2d_3">
      <path clip-path="url(#p79d2f4a018)" d="M 317.888778 298.8 
L 317.888778 7.2 
" style="fill:none;stroke:#cbcbcb;"/>
     </g>
     <g id="line2d_4"/>
     <g id="text_2">
      <!-- 40 -->
      <g transform="translate(308.981278 312.937813)scale(0.14 -0.14)">
       <defs>
        <path d="M 37.796875 64.3125 
L 12.890625 25.390625 
L 37.796875 25.390625 
z
M 35.203125 72.90625 
L 47.609375 72.90625 
L 47.609375 25.390625 
L 58.015625 25.390625 
L 58.015625 17.1875 
L 47.609375 17.1875 
L 47.609375 0 
L 37.796875 0 
L 37.796875 17.1875 
L 4.890625 17.1875 
L 4.890625 26.703125 
z
" id="DejaVuSans-52"/>
       </defs>
       <use xlink:href="#DejaVuSans-52"/>
       <use x="63.623047" xlink:href="#DejaVuSans-48"/>
      </g>
     </g>
    </g>
    <g id="xtick_3">
     <g id="line2d_5">
      <path clip-path="url(#p79d2f4a018)" d="M 469.743324 298.8 
L 469.743324 7.2 
" style="fill:none;stroke:#cbcbcb;"/>
     </g>
     <g id="line2d_6"/>
     <g id="text_3">
      <!-- 50 -->
      <g transform="translate(460.835824 312.937813)scale(0.14 -0.14)">
       <defs>
        <path d="M 10.796875 72.90625 
L 49.515625 72.90625 
L 49.515625 64.59375 
L 19.828125 64.59375 
L 19.828125 46.734375 
Q 21.96875 47.46875 24.109375 47.828125 
Q 26.265625 48.1875 28.421875 48.1875 
Q 40.625 48.1875 47.75 41.5 
Q 54.890625 34.8125 54.890625 23.390625 
Q 54.890625 11.625 47.5625 5.09375 
Q 40.234375 -1.421875 26.90625 -1.421875 
Q 22.3125 -1.421875 17.546875 -0.640625 
Q 12.796875 0.140625 7.71875 1.703125 
L 7.71875 11.625 
Q 12.109375 9.234375 16.796875 8.0625 
Q 21.484375 6.890625 26.703125 6.890625 
Q 35.15625 6.890625 40.078125 11.328125 
Q 45.015625 15.765625 45.015625 23.390625 
Q 45.015625 31 40.078125 35.4375 
Q 35.15625 39.890625 26.703125 39.890625 
Q 22.75 39.890625 18.8125 39.015625 
Q 14.890625 38.140625 10.796875 36.28125 
z
" id="DejaVuSans-53"/>
       </defs>
       <use xlink:href="#DejaVuSans-53"/>
       <use x="63.623047" xlink:href="#DejaVuSans-48"/>
      </g>
     </g>
    </g>
    <g id="xtick_4">
     <g id="line2d_7">
      <path clip-path="url(#p79d2f4a018)" d="M 621.597869 298.8 
L 621.597869 7.2 
" style="fill:none;stroke:#cbcbcb;"/>
     </g>
     <g id="line2d_8"/>
     <g id="text_4">
      <!-- 60 -->
      <g transform="translate(612.690369 312.937813)scale(0.14 -0.14)">
       <defs>
        <path d="M 33.015625 40.375 
Q 26.375 40.375 22.484375 35.828125 
Q 18.609375 31.296875 18.609375 23.390625 
Q 18.609375 15.53125 22.484375 10.953125 
Q 26.375 6.390625 33.015625 6.390625 
Q 39.65625 6.390625 43.53125 10.953125 
Q 47.40625 15.53125 47.40625 23.390625 
Q 47.40625 31.296875 43.53125 35.828125 
Q 39.65625 40.375 33.015625 40.375 
z
M 52.59375 71.296875 
L 52.59375 62.3125 
Q 48.875 64.0625 45.09375 64.984375 
Q 41.3125 65.921875 37.59375 65.921875 
Q 27.828125 65.921875 22.671875 59.328125 
Q 17.53125 52.734375 16.796875 39.40625 
Q 19.671875 43.65625 24.015625 45.921875 
Q 28.375 48.1875 33.59375 48.1875 
Q 44.578125 48.1875 50.953125 41.515625 
Q 57.328125 34.859375 57.328125 23.390625 
Q 57.328125 12.15625 50.6875 5.359375 
Q 44.046875 -1.421875 33.015625 -1.421875 
Q 20.359375 -1.421875 13.671875 8.265625 
Q 6.984375 17.96875 6.984375 36.375 
Q 6.984375 53.65625 15.1875 63.9375 
Q 23.390625 74.21875 37.203125 74.21875 
Q 40.921875 74.21875 44.703125 73.484375 
Q 48.484375 72.75 52.59375 71.296875 
z
" id="DejaVuSans-54"/>
       </defs>
       <use xlink:href="#DejaVuSans-54"/>
       <use x="63.623047" xlink:href="#DejaVuSans-48"/>
      </g>
     </g>
    </g>
    <g id="xtick_5">
     <g id="line2d_9">
      <path clip-path="url(#p79d2f4a018)" d="M 773.452415 298.8 
L 773.452415 7.2 
" style="fill:none;stroke:#cbcbcb;"/>
     </g>
     <g id="line2d_10"/>
     <g id="text_5">
      <!-- 70 -->
      <g transform="translate(764.544915 312.937813)scale(0.14 -0.14)">
       <defs>
        <path d="M 8.203125 72.90625 
L 55.078125 72.90625 
L 55.078125 68.703125 
L 28.609375 0 
L 18.3125 0 
L 43.21875 64.59375 
L 8.203125 64.59375 
z
" id="DejaVuSans-55"/>
       </defs>
       <use xlink:href="#DejaVuSans-55"/>
       <use x="63.623047" xlink:href="#DejaVuSans-48"/>
      </g>
     </g>
    </g>
    <g id="text_6">
     <!-- cân nặng -->
     <g transform="translate(397.059375 331.847031)scale(0.15 -0.15)">
      <defs>
       <path d="M 48.78125 52.59375 
L 48.78125 44.1875 
Q 44.96875 46.296875 41.140625 47.34375 
Q 37.3125 48.390625 33.40625 48.390625 
Q 24.65625 48.390625 19.8125 42.84375 
Q 14.984375 37.3125 14.984375 27.296875 
Q 14.984375 17.28125 19.8125 11.734375 
Q 24.65625 6.203125 33.40625 6.203125 
Q 37.3125 6.203125 41.140625 7.25 
Q 44.96875 8.296875 48.78125 10.40625 
L 48.78125 2.09375 
Q 45.015625 0.34375 40.984375 -0.53125 
Q 36.96875 -1.421875 32.421875 -1.421875 
Q 20.0625 -1.421875 12.78125 6.34375 
Q 5.515625 14.109375 5.515625 27.296875 
Q 5.515625 40.671875 12.859375 48.328125 
Q 20.21875 56 33.015625 56 
Q 37.15625 56 41.109375 55.140625 
Q 45.0625 54.296875 48.78125 52.59375 
z
" id="DejaVuSans-99"/>
       <path d="M 34.28125 27.484375 
Q 23.390625 27.484375 19.1875 25 
Q 14.984375 22.515625 14.984375 16.5 
Q 14.984375 11.71875 18.140625 8.90625 
Q 21.296875 6.109375 26.703125 6.109375 
Q 34.1875 6.109375 38.703125 11.40625 
Q 43.21875 16.703125 43.21875 25.484375 
L 43.21875 27.484375 
z
M 52.203125 31.203125 
L 52.203125 0 
L 43.21875 0 
L 43.21875 8.296875 
Q 40.140625 3.328125 35.546875 0.953125 
Q 30.953125 -1.421875 24.3125 -1.421875 
Q 15.921875 -1.421875 10.953125 3.296875 
Q 6 8.015625 6 15.921875 
Q 6 25.140625 12.171875 29.828125 
Q 18.359375 34.515625 30.609375 34.515625 
L 43.21875 34.515625 
L 43.21875 35.40625 
Q 43.21875 41.609375 39.140625 45 
Q 35.0625 48.390625 27.6875 48.390625 
Q 23 48.390625 18.546875 47.265625 
Q 14.109375 46.140625 10.015625 43.890625 
L 10.015625 52.203125 
Q 14.9375 54.109375 19.578125 55.046875 
Q 24.21875 56 28.609375 56 
Q 40.484375 56 46.34375 49.84375 
Q 52.203125 43.703125 52.203125 31.203125 
z
M 25.390625 79.984375 
L 32.625 79.984375 
L 44.578125 61.625 
L 37.796875 61.625 
L 29 73.578125 
L 20.21875 61.625 
L 13.421875 61.625 
z
" id="DejaVuSans-226"/>
       <path d="M 54.890625 33.015625 
L 54.890625 0 
L 45.90625 0 
L 45.90625 32.71875 
Q 45.90625 40.484375 42.875 44.328125 
Q 39.84375 48.1875 33.796875 48.1875 
Q 26.515625 48.1875 22.3125 43.546875 
Q 18.109375 38.921875 18.109375 30.90625 
L 18.109375 0 
L 9.078125 0 
L 9.078125 54.6875 
L 18.109375 54.6875 
L 18.109375 46.1875 
Q 21.34375 51.125 25.703125 53.5625 
Q 30.078125 56 35.796875 56 
Q 45.21875 56 50.046875 50.171875 
Q 54.890625 44.34375 54.890625 33.015625 
z
" id="DejaVuSans-110"/>
       <path id="DejaVuSans-32"/>
       <path d="M 13.578125 76.515625 
L 19.34375 76.515625 
Q 19.875 72.859375 22.234375 71.015625 
Q 24.609375 69.1875 28.859375 69.1875 
Q 33.0625 69.1875 35.40625 71 
Q 37.75 72.8125 38.375 76.515625 
L 44.140625 76.515625 
Q 43.65625 69.53125 39.796875 66.015625 
Q 35.9375 62.5 28.859375 62.5 
Q 21.78125 62.5 17.921875 66.015625 
Q 14.0625 69.53125 13.578125 76.515625 
z
M 34.28125 27.484375 
Q 23.390625 27.484375 19.1875 25 
Q 14.984375 22.515625 14.984375 16.5 
Q 14.984375 11.71875 18.140625 8.90625 
Q 21.296875 6.109375 26.703125 6.109375 
Q 34.1875 6.109375 38.703125 11.40625 
Q 43.21875 16.703125 43.21875 25.484375 
L 43.21875 27.484375 
z
M 52.203125 31.203125 
L 52.203125 0 
L 43.21875 0 
L 43.21875 8.296875 
Q 40.140625 3.328125 35.546875 0.953125 
Q 30.953125 -1.421875 24.3125 -1.421875 
Q 15.921875 -1.421875 10.953125 3.296875 
Q 6 8.015625 6 15.921875 
Q 6 25.140625 12.171875 29.828125 
Q 18.359375 34.515625 30.609375 34.515625 
L 43.21875 34.515625 
L 43.21875 35.40625 
Q 43.21875 41.609375 39.140625 45 
Q 35.0625 48.390625 27.6875 48.390625 
Q 23 48.390625 18.546875 47.265625 
Q 14.109375 46.140625 10.015625 43.890625 
L 10.015625 52.203125 
Q 14.9375 54.109375 19.578125 55.046875 
Q 24.21875 56 28.609375 56 
Q 40.484375 56 46.34375 49.84375 
Q 52.203125 43.703125 52.203125 31.203125 
z
M 22.90625 -6.890625 
L 31.890625 -6.890625 
L 31.890625 -18.3125 
L 22.90625 -18.3125 
z
" id="DejaVuSans-7863"/>
       <path d="M 45.40625 27.984375 
Q 45.40625 37.75 41.375 43.109375 
Q 37.359375 48.484375 30.078125 48.484375 
Q 22.859375 48.484375 18.828125 43.109375 
Q 14.796875 37.75 14.796875 27.984375 
Q 14.796875 18.265625 18.828125 12.890625 
Q 22.859375 7.515625 30.078125 7.515625 
Q 37.359375 7.515625 41.375 12.890625 
Q 45.40625 18.265625 45.40625 27.984375 
z
M 54.390625 6.78125 
Q 54.390625 -7.171875 48.1875 -13.984375 
Q 42 -20.796875 29.203125 -20.796875 
Q 24.46875 -20.796875 20.265625 -20.09375 
Q 16.0625 -19.390625 12.109375 -17.921875 
L 12.109375 -9.1875 
Q 16.0625 -11.328125 19.921875 -12.34375 
Q 23.78125 -13.375 27.78125 -13.375 
Q 36.625 -13.375 41.015625 -8.765625 
Q 45.40625 -4.15625 45.40625 5.171875 
L 45.40625 9.625 
Q 42.625 4.78125 38.28125 2.390625 
Q 33.9375 0 27.875 0 
Q 17.828125 0 11.671875 7.65625 
Q 5.515625 15.328125 5.515625 27.984375 
Q 5.515625 40.671875 11.671875 48.328125 
Q 17.828125 56 27.875 56 
Q 33.9375 56 38.28125 53.609375 
Q 42.625 51.21875 45.40625 46.390625 
L 45.40625 54.6875 
L 54.390625 54.6875 
z
" id="DejaVuSans-103"/>
      </defs>
      <use xlink:href="#DejaVuSans-99"/>
      <use x="54.980469" xlink:href="#DejaVuSans-226"/>
      <use x="116.259766" xlink:href="#DejaVuSans-110"/>
      <use x="179.638672" xlink:href="#DejaVuSans-32"/>
      <use x="211.425781" xlink:href="#DejaVuSans-110"/>
      <use x="274.804688" xlink:href="#DejaVuSans-7863"/>
      <use x="336.083984" xlink:href="#DejaVuSans-110"/>
      <use x="399.462891" xlink:href="#DejaVuSans-103"/>
     </g>
    </g>
   </g>
   <g id="matplotlib.axis_2">
    <g id="ytick_1">
     <g id="line2d_11">
      <path clip-path="url(#p79d2f4a018)" d="M 55.939688 275.861127 
L 807.619687 275.861127 
" style="fill:none;stroke:#cbcbcb;"/>
     </g>
     <g id="line2d_12"/>
     <g id="text_7">
      <!-- 130 -->
      <g transform="translate(25.717188 281.180033)scale(0.14 -0.14)">
       <defs>
        <path d="M 12.40625 8.296875 
L 28.515625 8.296875 
L 28.515625 63.921875 
L 10.984375 60.40625 
L 10.984375 69.390625 
L 28.421875 72.90625 
L 38.28125 72.90625 
L 38.28125 8.296875 
L 54.390625 8.296875 
L 54.390625 0 
L 12.40625 0 
z
" id="DejaVuSans-49"/>
       </defs>
       <use xlink:href="#DejaVuSans-49"/>
       <use x="63.623047" xlink:href="#DejaVuSans-51"/>
       <use x="127.246094" xlink:href="#DejaVuSans-48"/>
      </g>
     </g>
    </g>
    <g id="ytick_2">
     <g id="line2d_13">
      <path clip-path="url(#p79d2f4a018)" d="M 55.939688 230.652857 
L 807.619687 230.652857 
" style="fill:none;stroke:#cbcbcb;"/>
     </g>
     <g id="line2d_14"/>
     <g id="text_8">
      <!-- 140 -->
      <g transform="translate(25.717188 235.971763)scale(0.14 -0.14)">
       <use xlink:href="#DejaVuSans-49"/>
       <use x="63.623047" xlink:href="#DejaVuSans-52"/>
       <use x="127.246094" xlink:href="#DejaVuSans-48"/>
      </g>
     </g>
    </g>
    <g id="ytick_3">
     <g id="line2d_15">
      <path clip-path="url(#p79d2f4a018)" d="M 55.939688 185.444587 
L 807.619687 185.444587 
" style="fill:none;stroke:#cbcbcb;"/>
     </g>
     <g id="line2d_16"/>
     <g id="text_9">
      <!-- 150 -->
      <g transform="translate(25.717188 190.763493)scale(0.14 -0.14)">
       <use xlink:href="#DejaVuSans-49"/>
       <use x="63.623047" xlink:href="#DejaVuSans-53"/>
       <use x="127.246094" xlink:href="#DejaVuSans-48"/>
      </g>
     </g>
    </g>
    <g id="ytick_4">
     <g id="line2d_17">
      <path clip-path="url(#p79d2f4a018)" d="M 55.939688 140.236317 
L 807.619687 140.236317 
" style="fill:none;stroke:#cbcbcb;"/>
     </g>
     <g id="line2d_18"/>
     <g id="text_10">
      <!-- 160 -->
      <g transform="translate(25.717188 145.555224)scale(0.14 -0.14)">
       <use xlink:href="#DejaVuSans-49"/>
       <use x="63.623047" xlink:href="#DejaVuSans-54"/>
       <use x="127.246094" xlink:href="#DejaVuSans-48"/>
      </g>
     </g>
    </g>
    <g id="ytick_5">
     <g id="line2d_19">
      <path clip-path="url(#p79d2f4a018)" d="M 55.939688 95.028048 
L 807.619687 95.028048 
" style="fill:none;stroke:#cbcbcb;"/>
     </g>
     <g id="line2d_20"/>
     <g id="text_11">
      <!-- 170 -->
      <g transform="translate(25.717188 100.346954)scale(0.14 -0.14)">
       <use xlink:href="#DejaVuSans-49"/>
       <use x="63.623047" xlink:href="#DejaVuSans-55"/>
       <use x="127.246094" xlink:href="#DejaVuSans-48"/>
      </g>
     </g>
    </g>
    <g id="ytick_6">
     <g id="line2d_21">
      <path clip-path="url(#p79d2f4a018)" d="M 55.939688 49.819778 
L 807.619687 49.819778 
" style="fill:none;stroke:#cbcbcb;"/>
     </g>
     <g id="line2d_22"/>
     <g id="text_12">
      <!-- 180 -->
      <g transform="translate(25.717188 55.138684)scale(0.14 -0.14)">
       <defs>
        <path d="M 31.78125 34.625 
Q 24.75 34.625 20.71875 30.859375 
Q 16.703125 27.09375 16.703125 20.515625 
Q 16.703125 13.921875 20.71875 10.15625 
Q 24.75 6.390625 31.78125 6.390625 
Q 38.8125 6.390625 42.859375 10.171875 
Q 46.921875 13.96875 46.921875 20.515625 
Q 46.921875 27.09375 42.890625 30.859375 
Q 38.875 34.625 31.78125 34.625 
z
M 21.921875 38.8125 
Q 15.578125 40.375 12.03125 44.71875 
Q 8.5 49.078125 8.5 55.328125 
Q 8.5 64.0625 14.71875 69.140625 
Q 20.953125 74.21875 31.78125 74.21875 
Q 42.671875 74.21875 48.875 69.140625 
Q 55.078125 64.0625 55.078125 55.328125 
Q 55.078125 49.078125 51.53125 44.71875 
Q 48 40.375 41.703125 38.8125 
Q 48.828125 37.15625 52.796875 32.3125 
Q 56.78125 27.484375 56.78125 20.515625 
Q 56.78125 9.90625 50.3125 4.234375 
Q 43.84375 -1.421875 31.78125 -1.421875 
Q 19.734375 -1.421875 13.25 4.234375 
Q 6.78125 9.90625 6.78125 20.515625 
Q 6.78125 27.484375 10.78125 32.3125 
Q 14.796875 37.15625 21.921875 38.8125 
z
M 18.3125 54.390625 
Q 18.3125 48.734375 21.84375 45.5625 
Q 25.390625 42.390625 31.78125 42.390625 
Q 38.140625 42.390625 41.71875 45.5625 
Q 45.3125 48.734375 45.3125 54.390625 
Q 45.3125 60.0625 41.71875 63.234375 
Q 38.140625 66.40625 31.78125 66.40625 
Q 25.390625 66.40625 21.84375 63.234375 
Q 18.3125 60.0625 18.3125 54.390625 
z
" id="DejaVuSans-56"/>
       </defs>
       <use xlink:href="#DejaVuSans-49"/>
       <use x="63.623047" xlink:href="#DejaVuSans-56"/>
       <use x="127.246094" xlink:href="#DejaVuSans-48"/>
      </g>
     </g>
    </g>
    <g id="text_13">
     <!-- chiều cao -->
     <g transform="translate(18.597656 189.021094)rotate(-90)scale(0.15 -0.15)">
      <defs>
       <path d="M 54.890625 33.015625 
L 54.890625 0 
L 45.90625 0 
L 45.90625 32.71875 
Q 45.90625 40.484375 42.875 44.328125 
Q 39.84375 48.1875 33.796875 48.1875 
Q 26.515625 48.1875 22.3125 43.546875 
Q 18.109375 38.921875 18.109375 30.90625 
L 18.109375 0 
L 9.078125 0 
L 9.078125 75.984375 
L 18.109375 75.984375 
L 18.109375 46.1875 
Q 21.34375 51.125 25.703125 53.5625 
Q 30.078125 56 35.796875 56 
Q 45.21875 56 50.046875 50.171875 
Q 54.890625 44.34375 54.890625 33.015625 
z
" id="DejaVuSans-104"/>
       <path d="M 9.421875 54.6875 
L 18.40625 54.6875 
L 18.40625 0 
L 9.421875 0 
z
M 9.421875 75.984375 
L 18.40625 75.984375 
L 18.40625 64.59375 
L 9.421875 64.59375 
z
" id="DejaVuSans-105"/>
       <path d="M 43.40625 84.671875 
L 52.984375 71.78125 
L 45.515625 71.78125 
L 34.28125 84.671875 
z
M 27.25 74.65625 
L 36.421875 74.65625 
L 46.734375 61.671875 
L 39.9375 61.671875 
L 31.84375 70.359375 
L 23.734375 61.671875 
L 16.9375 61.671875 
z
M 56.203125 29.59375 
L 56.203125 25.203125 
L 14.890625 25.203125 
Q 15.484375 15.921875 20.484375 11.0625 
Q 25.484375 6.203125 34.421875 6.203125 
Q 39.59375 6.203125 44.453125 7.46875 
Q 49.3125 8.734375 54.109375 11.28125 
L 54.109375 2.78125 
Q 49.265625 0.734375 44.1875 -0.34375 
Q 39.109375 -1.421875 33.890625 -1.421875 
Q 20.796875 -1.421875 13.15625 6.1875 
Q 5.515625 13.8125 5.515625 26.8125 
Q 5.515625 40.234375 12.765625 48.109375 
Q 20.015625 56 32.328125 56 
Q 43.359375 56 49.78125 48.890625 
Q 56.203125 41.796875 56.203125 29.59375 
z
M 47.21875 32.234375 
Q 47.125 39.59375 43.09375 43.984375 
Q 39.0625 48.390625 32.421875 48.390625 
Q 24.90625 48.390625 20.390625 44.140625 
Q 15.875 39.890625 15.1875 32.171875 
z
" id="DejaVuSans-7873"/>
       <path d="M 8.5 21.578125 
L 8.5 54.6875 
L 17.484375 54.6875 
L 17.484375 21.921875 
Q 17.484375 14.15625 20.5 10.265625 
Q 23.53125 6.390625 29.59375 6.390625 
Q 36.859375 6.390625 41.078125 11.03125 
Q 45.3125 15.671875 45.3125 23.6875 
L 45.3125 54.6875 
L 54.296875 54.6875 
L 54.296875 0 
L 45.3125 0 
L 45.3125 8.40625 
Q 42.046875 3.421875 37.71875 1 
Q 33.40625 -1.421875 27.6875 -1.421875 
Q 18.265625 -1.421875 13.375 4.4375 
Q 8.5 10.296875 8.5 21.578125 
z
M 31.109375 56 
z
" id="DejaVuSans-117"/>
       <path d="M 34.28125 27.484375 
Q 23.390625 27.484375 19.1875 25 
Q 14.984375 22.515625 14.984375 16.5 
Q 14.984375 11.71875 18.140625 8.90625 
Q 21.296875 6.109375 26.703125 6.109375 
Q 34.1875 6.109375 38.703125 11.40625 
Q 43.21875 16.703125 43.21875 25.484375 
L 43.21875 27.484375 
z
M 52.203125 31.203125 
L 52.203125 0 
L 43.21875 0 
L 43.21875 8.296875 
Q 40.140625 3.328125 35.546875 0.953125 
Q 30.953125 -1.421875 24.3125 -1.421875 
Q 15.921875 -1.421875 10.953125 3.296875 
Q 6 8.015625 6 15.921875 
Q 6 25.140625 12.171875 29.828125 
Q 18.359375 34.515625 30.609375 34.515625 
L 43.21875 34.515625 
L 43.21875 35.40625 
Q 43.21875 41.609375 39.140625 45 
Q 35.0625 48.390625 27.6875 48.390625 
Q 23 48.390625 18.546875 47.265625 
Q 14.109375 46.140625 10.015625 43.890625 
L 10.015625 52.203125 
Q 14.9375 54.109375 19.578125 55.046875 
Q 24.21875 56 28.609375 56 
Q 40.484375 56 46.34375 49.84375 
Q 52.203125 43.703125 52.203125 31.203125 
z
" id="DejaVuSans-97"/>
       <path d="M 30.609375 48.390625 
Q 23.390625 48.390625 19.1875 42.75 
Q 14.984375 37.109375 14.984375 27.296875 
Q 14.984375 17.484375 19.15625 11.84375 
Q 23.34375 6.203125 30.609375 6.203125 
Q 37.796875 6.203125 41.984375 11.859375 
Q 46.1875 17.53125 46.1875 27.296875 
Q 46.1875 37.015625 41.984375 42.703125 
Q 37.796875 48.390625 30.609375 48.390625 
z
M 30.609375 56 
Q 42.328125 56 49.015625 48.375 
Q 55.71875 40.765625 55.71875 27.296875 
Q 55.71875 13.875 49.015625 6.21875 
Q 42.328125 -1.421875 30.609375 -1.421875 
Q 18.84375 -1.421875 12.171875 6.21875 
Q 5.515625 13.875 5.515625 27.296875 
Q 5.515625 40.765625 12.171875 48.375 
Q 18.84375 56 30.609375 56 
z
" id="DejaVuSans-111"/>
      </defs>
      <use xlink:href="#DejaVuSans-99"/>
      <use x="54.980469" xlink:href="#DejaVuSans-104"/>
      <use x="118.359375" xlink:href="#DejaVuSans-105"/>
      <use x="146.142578" xlink:href="#DejaVuSans-7873"/>
      <use x="207.666016" xlink:href="#DejaVuSans-117"/>
      <use x="271.044922" xlink:href="#DejaVuSans-32"/>
      <use x="302.832031" xlink:href="#DejaVuSans-99"/>
      <use x="357.8125" xlink:href="#DejaVuSans-97"/>
      <use x="419.091797" xlink:href="#DejaVuSans-111"/>
     </g>
    </g>
   </g>
   <g id="line2d_23">
    <path clip-path="url(#p79d2f4a018)" d="M 436.72417 177.465328 
L 264.524153 232.009105 
L 194.352646 246.362731 
L 515.936178 154.499526 
L 337.27866 206.172579 
L 667.041694 122.92155 
L 291.215155 188.948228 
L 552.959182 99.955749 
L 239.98565 194.689678 
L 537.89168 117.1801 
L 468.150673 165.982427 
L 336.41766 180.336053 
L 257.636152 209.043304 
L 434.816778 185.89667 
L 224.487649 183.206778 
L 447.917171 125.792275 
L 353.207162 151.628801 
L 292.937156 212.832661 
L 454.374672 134.404451 
L 359.234162 157.370252 
L 249.456651 201.719564 
L 286.049155 191.818953 
L 249.026151 197.560403 
L 322.641659 194.689678 
L 547.362681 131.533725 
L 280.022154 203.301854 
L 295.089656 203.301854 
L 418.212668 173.216654 
L 300.255656 217.655479 
L 250.748151 217.655479 
L 430.26667 194.689678 
L 437.58517 137.275176 
L 460.832173 177.465328 
L 460.401673 127.285052 
L 569.318184 88.472849 
L 304.560657 197.560403 
L 468.150673 194.689678 
L 336.84816 165.982427 
L 295.950656 214.784754 
L 354.333869 200.363316 
L 388.508165 151.628801 
L 600.314187 114.309375 
L 419.934669 174.594602 
L 382.050665 223.39693 
L 483.410233 145.66131 
L 535.30868 160.240977 
L 407.450167 120.050825 
L 439.737671 177.465328 
L 503.451677 134.404451 
L 433.71067 165.982427 
L 403.575667 206.172579 
L 354.498662 206.172579 
L 264.524153 174.594602 
L 559.847183 122.92155 
L 275.286654 211.914029 
L 444.042671 168.853152 
L 277.439154 217.655479 
L 426.822669 108.567924 
L 428.544669 147.380128 
L 584.385685 114.309375 
L 286.479655 186.077503 
L 427.253169 163.111702 
L 366.552663 135.897228 
L 473.747174 131.533725 
L 308.435157 194.689678 
L 480.206102 143.016626 
L 309.296157 191.818953 
L 261.510652 246.362731 
L 413.046668 148.758076 
L 352.346162 209.043304 
L 433.71067 154.499526 
L 556.403182 54.024147 
L 447.917171 94.214299 
L 360.525662 203.301854 
L 242.999151 197.560403 
L 572.331684 128.663 
L 488.814675 174.594602 
L 427.683669 140.145901 
L 332.11266 186.077503 
L 207.267647 217.655479 
L 577.067184 108.567924 
L 363.108663 143.016626 
L 317.045158 163.111702 
L 408.311167 128.663 
L 334.69566 174.594602 
L 433.28017 94.214299 
L 280.022154 203.301854 
L 394.104666 143.016626 
L 352.346162 180.336053 
L 543.488181 137.275176 
L 523.254679 97.085024 
L 503.021177 145.887351 
L 354.498662 186.077503 
L 463.415173 171.723877 
L 344.166661 131.533725 
L 561.138683 128.663 
L 350.624161 188.948228 
L 516.797178 125.792275 
L 473.316674 131.533725 
L 356.220662 206.172579 
L 456.096672 125.792275 
L 295.089656 180.336053 
L 466.859173 183.206778 
L 617.964689 91.343574 
L 438.44617 151.628801 
L 307.143657 174.594602 
L 270.551153 197.560403 
L 350.193661 206.172579 
L 387.216665 151.628801 
L 437.15467 165.982427 
L 548.654182 108.567924 
L 211.572647 217.655479 
L 331.25166 174.594602 
L 487.965869 140.236317 
L 455.235672 143.016626 
L 521.963179 186.077503 
L 531.86468 137.275176 
L 551.237182 137.275176 
L 351.915662 188.948228 
L 332.11266 226.267655 
L 465.137173 163.111702 
L 383.772665 223.39693 
L 408.311167 140.145901 
L 347.610661 184.699555 
L 492.258676 160.240977 
L 380.328664 157.370252 
L 199.518646 171.723877 
L 572.331684 108.567924 
L 510.339678 186.077503 
L 264.524153 194.689678 
L 452.222172 143.016626 
L 575.345184 131.533725 
L 349.763161 160.240977 
L 472.455674 143.016626 
L 417.351668 200.431129 
L 648.960692 82.731398 
L 454.374672 111.43865 
L 189.186645 223.39693 
L 246.443151 177.465328 
L 403.575667 154.499526 
L 376.884664 191.818953 
L 402.284167 151.628801 
L 302.838657 186.077503 
L 335.55666 194.689678 
L 397.548666 171.723877 
L 524.976679 137.275176 
L 504.743177 188.948228 
L 304.130157 237.750555 
L 404.436667 128.663 
L 323.933159 188.948228 
L 492.258676 145.887351 
L 297.672656 186.077503 
L 306.282657 148.758076 
L 383.772665 157.370252 
L 310.587657 191.818953 
L 182.298644 214.784754 
L 420.795669 165.982427 
L 327.377159 151.628801 
L 472.455674 151.628801 
L 337.27866 165.982427 
L 539.596415 102.826474 
L 393.674166 206.172579 
L 254.192152 188.948228 
L 397.118166 163.111702 
L 441.029171 128.663 
L 404.006167 154.499526 
L 445.764671 135.66757 
L 335.98716 209.043304 
L 293.798156 214.784754 
L 350.193661 188.948228 
L 291.215155 186.077503 
L 444.473171 114.309375 
L 301.547157 211.914029 
L 318.336658 151.628801 
L 472.886174 165.982427 
L 534.87818 122.92155 
L 402.927324 157.370252 
L 309.296157 211.914029 
L 366.552663 128.663 
L 194.352646 203.301854 
L 400.562167 163.111702 
L 288.201655 209.043304 
L 258.497152 200.431129 
L 331.25166 174.594602 
L 438.01567 122.92155 
L 435.00217 114.309375 
L 414.768668 157.370252 
L 335.55666 174.594602 
L 266.246153 229.13838 
L 441.459671 125.792275 
L 267.968153 180.336053 
L 569.318184 89.965626 
L 298.103156 186.077503 
L 431.55817 122.92155 
L 260.219152 223.39693 
L 337.27866 188.948228 
L 390.230165 203.301854 
L 476.330174 134.404451 
L 549.945682 128.663 
L 286.479655 206.172579 
L 598.161687 91.343574 
L 385.064165 143.016626 
L 384.704778 142.948814 
L 387.216665 168.853152 
L 388.077665 140.145901 
L 325.224659 183.206778 
L 379.898164 188.948228 
L 233.09765 217.655479 
L 208.128647 221.100349 
L 256.344652 197.560403 
L 462.984278 128.663 
L 518.088678 120.050825 
L 273.564654 140.145901 
L 325.655159 168.853152 
L 478.913174 108.567924 
L 378.176164 180.336053 
L 468.072924 171.723877 
L 220.613148 234.87983 
L 376.454164 174.594602 
L 441.459671 163.111702 
L 359.664662 194.689678 
L 225.348649 211.914029 
L 313.601158 160.240977 
L 256.344652 183.206778 
L 483.648675 160.240977 
L 405.297667 165.982427 
L 457.818672 151.628801 
L 603.758187 99.955749 
L 370.427163 183.206778 
L 499.577177 140.145901 
L 480.204675 105.697199 
L 230.514649 211.914029 
L 308.435157 206.172579 
L 614.951188 140.145901 
L 502.590677 120.050825 
L 317.475658 171.723877 
L 377.745664 188.948228 
L 539.613681 140.145901 
L 394.965666 188.948228 
L 338.13966 168.853152 
L 346.749661 183.206778 
L 356.216866 177.465328 
L 365.691663 148.758076 
L 330.390659 188.948228 
L 361.386663 177.465328 
L 412.185668 163.111702 
L 437.15467 134.404451 
L 356.220662 191.818953 
L 447.056171 137.275176 
L 407.019667 151.628801 
L 513.783678 108.567924 
L 432.84967 151.628801 
L 371.718664 174.594602 
L 369.996663 174.594602 
L 518.519178 131.533725 
L 388.938665 174.594602 
L 427.253169 143.016626 
L 191.339145 220.526204 
L 567.596183 99.955749 
L 557.694682 140.145901 
L 431.55817 148.758076 
L 396.257166 174.594602 
L 401.853667 160.240977 
L 452.652672 165.982427 
L 417.782168 154.499526 
L 376.884664 157.370252 
L 561.569183 102.826474 
L 319.197658 194.689678 
L 481.926675 151.628801 
L 413.557142 137.071739 
L 459.971173 134.404451 
L 380.328664 183.206778 
L 485.370675 125.792275 
L 329.529659 191.818953 
L 280.883154 191.818953 
L 493.980676 131.533725 
L 391.091166 168.853152 
L 369.566163 180.336053 
L 419.934669 122.92155 
L 311.018157 171.723877 
L 238.69415 177.465328 
L 307.143657 157.370252 
L 279.161154 229.13838 
L 449.639172 145.887351 
L 251.178651 217.655479 
L 374.301664 176.661524 
L 442.320671 134.404451 
L 484.509675 135.782399 
L 378.606664 209.043304 
L 442.320671 140.145901 
L 419.504168 135.782399 
L 567.165683 113.161085 
L 448.347671 149.332221 
L 442.751171 163.111702 
L 431.55817 137.275176 
L 250.317651 197.560403 
L 266.258233 200.363316 
L 453.944172 197.560403 
L 488.814675 81.468279 
L 416.921168 148.758076 
L 271.842653 197.560403 
L 449.208671 113.161085 
L 288.201655 186.077503 
L 428.544669 131.533725 
L 551.667682 122.92155 
L 533.58668 140.145901 
L 446.625671 163.111702 
L 364.400163 174.594602 
L 229.653649 203.301854 
L 469.011673 176.431866 
L 383.772665 177.465328 
L 218.460648 209.043304 
L 428.544669 137.275176 
L 410.894168 180.336053 
L 430.26667 168.853152 
L 330.821159 197.560403 
L 475.038674 232.009105 
L 395.826666 151.628801 
L 351.915662 163.111702 
L 342.875161 214.784754 
L 397.118166 148.758076 
L 488.814675 197.560403 
L 458.679672 140.145901 
L 487.953675 117.1801 
L 376.454164 163.111702 
L 249.887151 168.853152 
L 361.705193 223.39693 
L 420.795669 122.92155 
L 346.319161 134.404451 
L 290.55496 163.292535 
L 368.000778 134.359242 
L 524.976679 94.214299 
L 363.108663 186.077503 
L 314.462158 137.275176 
L 368.705163 163.111702 
L 510.339678 111.43865 
L 294.228656 193.196901 
L 360.525662 177.465328 
L 255.483652 191.818953 
L 382.050665 168.853152 
L 288.632155 200.431129 
L 380.328664 163.111702 
L 379.037164 157.370252 
L 437.58517 137.275176 
L 308.865657 203.301854 
L 333.83466 157.370252 
L 330.390659 174.594602 
L 424.670169 128.663 
L 230.514649 217.655479 
L 502.590677 128.663 
L 531.43418 157.370252 
L 508.187177 145.887351 
L 508.187177 145.887351 
" style="fill:none;"/>
    <defs>
     <path d="M 0 1.5 
C 0.397805 1.5 0.77937 1.341951 1.06066 1.06066 
C 1.341951 0.77937 1.5 0.397805 1.5 0 
C 1.5 -0.397805 1.341951 -0.77937 1.06066 -1.06066 
C 0.77937 -1.341951 0.397805 -1.5 0 -1.5 
C -0.397805 -1.5 -0.77937 -1.341951 -1.06066 -1.06066 
C -1.341951 -0.77937 -1.5 -0.397805 -1.5 0 
C -1.5 0.397805 -1.341951 0.77937 -1.06066 1.06066 
C -0.77937 1.341951 -0.397805 1.5 0 1.5 
z
" id="m99532c8c27" style="stroke:#008fd5;stroke-opacity:0.5;"/>
    </defs>
    <g clip-path="url(#p79d2f4a018)">
     <use style="fill:#008fd5;fill-opacity:0.5;stroke:#008fd5;stroke-opacity:0.5;" x="436.72417" xlink:href="#m99532c8c27" y="177.465328"/>
     <use style="fill:#008fd5;fill-opacity:0.5;stroke:#008fd5;stroke-opacity:0.5;" x="264.524153" xlink:href="#m99532c8c27" y="232.009105"/>
     <use style="fill:#008fd5;fill-opacity:0.5;stroke:#008fd5;stroke-opacity:0.5;" x="194.352646" xlink:href="#m99532c8c27" y="246.362731"/>
     <use style="fill:#008fd5;fill-opacity:0.5;stroke:#008fd5;stroke-opacity:0.5;" x="515.936178" xlink:href="#m99532c8c27" y="154.499526"/>
     <use style="fill:#008fd5;fill-opacity:0.5;stroke:#008fd5;stroke-opacity:0.5;" x="337.27866" xlink:href="#m99532c8c27" y="206.172579"/>
     <use style="fill:#008fd5;fill-opacity:0.5;stroke:#008fd5;stroke-opacity:0.5;" x="667.041694" xlink:href="#m99532c8c27" y="122.92155"/>
     <use style="fill:#008fd5;fill-opacity:0.5;stroke:#008fd5;stroke-opacity:0.5;" x="291.215155" xlink:href="#m99532c8c27" y="188.948228"/>
     <use style="fill:#008fd5;fill-opacity:0.5;stroke:#008fd5;stroke-opacity:0.5;" x="552.959182" xlink:href="#m99532c8c27" y="99.955749"/>
     <use style="fill:#008fd5;fill-opacity:0.5;stroke:#008fd5;stroke-opacity:0.5;" x="239.98565" xlink:href="#m99532c8c27" y="194.689678"/>
     <use style="fill:#008fd5;fill-opacity:0.5;stroke:#008fd5;stroke-opacity:0.5;" x="537.89168" xlink:href="#m99532c8c27" y="117.1801"/>
     <use style="fill:#008fd5;fill-opacity:0.5;stroke:#008fd5;stroke-opacity:0.5;" x="468.150673" xlink:href="#m99532c8c27" y="165.982427"/>
     <use style="fill:#008fd5;fill-opacity:0.5;stroke:#008fd5;stroke-opacity:0.5;" x="336.41766" xlink:href="#m99532c8c27" y="180.336053"/>
     <use style="fill:#008fd5;fill-opacity:0.5;stroke:#008fd5;stroke-opacity:0.5;" x="257.636152" xlink:href="#m99532c8c27" y="209.043304"/>
     <use style="fill:#008fd5;fill-opacity:0.5;stroke:#008fd5;stroke-opacity:0.5;" x="434.816778" xlink:href="#m99532c8c27" y="185.89667"/>
     <use style="fill:#008fd5;fill-opacity:0.5;stroke:#008fd5;stroke-opacity:0.5;" x="224.487649" xlink:href="#m99532c8c27" y="183.206778"/>
     <use style="fill:#008fd5;fill-opacity:0.5;stroke:#008fd5;stroke-opacity:0.5;" x="447.917171" xlink:href="#m99532c8c27" y="125.792275"/>
     <use style="fill:#008fd5;fill-opacity:0.5;stroke:#008fd5;stroke-opacity:0.5;" x="353.207162" xlink:href="#m99532c8c27" y="151.628801"/>
     <use style="fill:#008fd5;fill-opacity:0.5;stroke:#008fd5;stroke-opacity:0.5;" x="292.937156" xlink:href="#m99532c8c27" y="212.832661"/>
     <use style="fill:#008fd5;fill-opacity:0.5;stroke:#008fd5;stroke-opacity:0.5;" x="454.374672" xlink:href="#m99532c8c27" y="134.404451"/>
     <use style="fill:#008fd5;fill-opacity:0.5;stroke:#008fd5;stroke-opacity:0.5;" x="359.234162" xlink:href="#m99532c8c27" y="157.370252"/>
     <use style="fill:#008fd5;fill-opacity:0.5;stroke:#008fd5;stroke-opacity:0.5;" x="249.456651" xlink:href="#m99532c8c27" y="201.719564"/>
     <use style="fill:#008fd5;fill-opacity:0.5;stroke:#008fd5;stroke-opacity:0.5;" x="286.049155" xlink:href="#m99532c8c27" y="191.818953"/>
     <use style="fill:#008fd5;fill-opacity:0.5;stroke:#008fd5;stroke-opacity:0.5;" x="249.026151" xlink:href="#m99532c8c27" y="197.560403"/>
     <use style="fill:#008fd5;fill-opacity:0.5;stroke:#008fd5;stroke-opacity:0.5;" x="322.641659" xlink:href="#m99532c8c27" y="194.689678"/>
     <use style="fill:#008fd5;fill-opacity:0.5;stroke:#008fd5;stroke-opacity:0.5;" x="547.362681" xlink:href="#m99532c8c27" y="131.533725"/>
     <use style="fill:#008fd5;fill-opacity:0.5;stroke:#008fd5;stroke-opacity:0.5;" x="280.022154" xlink:href="#m99532c8c27" y="203.301854"/>
     <use style="fill:#008fd5;fill-opacity:0.5;stroke:#008fd5;stroke-opacity:0.5;" x="295.089656" xlink:href="#m99532c8c27" y="203.301854"/>
     <use style="fill:#008fd5;fill-opacity:0.5;stroke:#008fd5;stroke-opacity:0.5;" x="418.212668" xlink:href="#m99532c8c27" y="173.216654"/>
     <use style="fill:#008fd5;fill-opacity:0.5;stroke:#008fd5;stroke-opacity:0.5;" x="300.255656" xlink:href="#m99532c8c27" y="217.655479"/>
     <use style="fill:#008fd5;fill-opacity:0.5;stroke:#008fd5;stroke-opacity:0.5;" x="250.748151" xlink:href="#m99532c8c27" y="217.655479"/>
     <use style="fill:#008fd5;fill-opacity:0.5;stroke:#008fd5;stroke-opacity:0.5;" x="430.26667" xlink:href="#m99532c8c27" y="194.689678"/>
     <use style="fill:#008fd5;fill-opacity:0.5;stroke:#008fd5;stroke-opacity:0.5;" x="437.58517" xlink:href="#m99532c8c27" y="137.275176"/>
     <use style="fill:#008fd5;fill-opacity:0.5;stroke:#008fd5;stroke-opacity:0.5;" x="460.832173" xlink:href="#m99532c8c27" y="177.465328"/>
     <use style="fill:#008fd5;fill-opacity:0.5;stroke:#008fd5;stroke-opacity:0.5;" x="460.401673" xlink:href="#m99532c8c27" y="127.285052"/>
     <use style="fill:#008fd5;fill-opacity:0.5;stroke:#008fd5;stroke-opacity:0.5;" x="569.318184" xlink:href="#m99532c8c27" y="88.472849"/>
     <use style="fill:#008fd5;fill-opacity:0.5;stroke:#008fd5;stroke-opacity:0.5;" x="304.560657" xlink:href="#m99532c8c27" y="197.560403"/>
     <use style="fill:#008fd5;fill-opacity:0.5;stroke:#008fd5;stroke-opacity:0.5;" x="468.150673" xlink:href="#m99532c8c27" y="194.689678"/>
     <use style="fill:#008fd5;fill-opacity:0.5;stroke:#008fd5;stroke-opacity:0.5;" x="336.84816" xlink:href="#m99532c8c27" y="165.982427"/>
     <use style="fill:#008fd5;fill-opacity:0.5;stroke:#008fd5;stroke-opacity:0.5;" x="295.950656" xlink:href="#m99532c8c27" y="214.784754"/>
     <use style="fill:#008fd5;fill-opacity:0.5;stroke:#008fd5;stroke-opacity:0.5;" x="354.333869" xlink:href="#m99532c8c27" y="200.363316"/>
     <use style="fill:#008fd5;fill-opacity:0.5;stroke:#008fd5;stroke-opacity:0.5;" x="388.508165" xlink:href="#m99532c8c27" y="151.628801"/>
     <use style="fill:#008fd5;fill-opacity:0.5;stroke:#008fd5;stroke-opacity:0.5;" x="600.314187" xlink:href="#m99532c8c27" y="114.309375"/>
     <use style="fill:#008fd5;fill-opacity:0.5;stroke:#008fd5;stroke-opacity:0.5;" x="419.934669" xlink:href="#m99532c8c27" y="174.594602"/>
     <use style="fill:#008fd5;fill-opacity:0.5;stroke:#008fd5;stroke-opacity:0.5;" x="382.050665" xlink:href="#m99532c8c27" y="223.39693"/>
     <use style="fill:#008fd5;fill-opacity:0.5;stroke:#008fd5;stroke-opacity:0.5;" x="483.410233" xlink:href="#m99532c8c27" y="145.66131"/>
     <use style="fill:#008fd5;fill-opacity:0.5;stroke:#008fd5;stroke-opacity:0.5;" x="535.30868" xlink:href="#m99532c8c27" y="160.240977"/>
     <use style="fill:#008fd5;fill-opacity:0.5;stroke:#008fd5;stroke-opacity:0.5;" x="407.450167" xlink:href="#m99532c8c27" y="120.050825"/>
     <use style="fill:#008fd5;fill-opacity:0.5;stroke:#008fd5;stroke-opacity:0.5;" x="439.737671" xlink:href="#m99532c8c27" y="177.465328"/>
     <use style="fill:#008fd5;fill-opacity:0.5;stroke:#008fd5;stroke-opacity:0.5;" x="503.451677" xlink:href="#m99532c8c27" y="134.404451"/>
     <use style="fill:#008fd5;fill-opacity:0.5;stroke:#008fd5;stroke-opacity:0.5;" x="433.71067" xlink:href="#m99532c8c27" y="165.982427"/>
     <use style="fill:#008fd5;fill-opacity:0.5;stroke:#008fd5;stroke-opacity:0.5;" x="403.575667" xlink:href="#m99532c8c27" y="206.172579"/>
     <use style="fill:#008fd5;fill-opacity:0.5;stroke:#008fd5;stroke-opacity:0.5;" x="354.498662" xlink:href="#m99532c8c27" y="206.172579"/>
     <use style="fill:#008fd5;fill-opacity:0.5;stroke:#008fd5;stroke-opacity:0.5;" x="264.524153" xlink:href="#m99532c8c27" y="174.594602"/>
     <use style="fill:#008fd5;fill-opacity:0.5;stroke:#008fd5;stroke-opacity:0.5;" x="559.847183" xlink:href="#m99532c8c27" y="122.92155"/>
     <use style="fill:#008fd5;fill-opacity:0.5;stroke:#008fd5;stroke-opacity:0.5;" x="275.286654" xlink:href="#m99532c8c27" y="211.914029"/>
     <use style="fill:#008fd5;fill-opacity:0.5;stroke:#008fd5;stroke-opacity:0.5;" x="444.042671" xlink:href="#m99532c8c27" y="168.853152"/>
     <use style="fill:#008fd5;fill-opacity:0.5;stroke:#008fd5;stroke-opacity:0.5;" x="277.439154" xlink:href="#m99532c8c27" y="217.655479"/>
     <use style="fill:#008fd5;fill-opacity:0.5;stroke:#008fd5;stroke-opacity:0.5;" x="426.822669" xlink:href="#m99532c8c27" y="108.567924"/>
     <use style="fill:#008fd5;fill-opacity:0.5;stroke:#008fd5;stroke-opacity:0.5;" x="428.544669" xlink:href="#m99532c8c27" y="147.380128"/>
     <use style="fill:#008fd5;fill-opacity:0.5;stroke:#008fd5;stroke-opacity:0.5;" x="584.385685" xlink:href="#m99532c8c27" y="114.309375"/>
     <use style="fill:#008fd5;fill-opacity:0.5;stroke:#008fd5;stroke-opacity:0.5;" x="286.479655" xlink:href="#m99532c8c27" y="186.077503"/>
     <use style="fill:#008fd5;fill-opacity:0.5;stroke:#008fd5;stroke-opacity:0.5;" x="427.253169" xlink:href="#m99532c8c27" y="163.111702"/>
     <use style="fill:#008fd5;fill-opacity:0.5;stroke:#008fd5;stroke-opacity:0.5;" x="366.552663" xlink:href="#m99532c8c27" y="135.897228"/>
     <use style="fill:#008fd5;fill-opacity:0.5;stroke:#008fd5;stroke-opacity:0.5;" x="473.747174" xlink:href="#m99532c8c27" y="131.533725"/>
     <use style="fill:#008fd5;fill-opacity:0.5;stroke:#008fd5;stroke-opacity:0.5;" x="308.435157" xlink:href="#m99532c8c27" y="194.689678"/>
     <use style="fill:#008fd5;fill-opacity:0.5;stroke:#008fd5;stroke-opacity:0.5;" x="480.206102" xlink:href="#m99532c8c27" y="143.016626"/>
     <use style="fill:#008fd5;fill-opacity:0.5;stroke:#008fd5;stroke-opacity:0.5;" x="309.296157" xlink:href="#m99532c8c27" y="191.818953"/>
     <use style="fill:#008fd5;fill-opacity:0.5;stroke:#008fd5;stroke-opacity:0.5;" x="261.510652" xlink:href="#m99532c8c27" y="246.362731"/>
     <use style="fill:#008fd5;fill-opacity:0.5;stroke:#008fd5;stroke-opacity:0.5;" x="413.046668" xlink:href="#m99532c8c27" y="148.758076"/>
     <use style="fill:#008fd5;fill-opacity:0.5;stroke:#008fd5;stroke-opacity:0.5;" x="352.346162" xlink:href="#m99532c8c27" y="209.043304"/>
     <use style="fill:#008fd5;fill-opacity:0.5;stroke:#008fd5;stroke-opacity:0.5;" x="433.71067" xlink:href="#m99532c8c27" y="154.499526"/>
     <use style="fill:#008fd5;fill-opacity:0.5;stroke:#008fd5;stroke-opacity:0.5;" x="556.403182" xlink:href="#m99532c8c27" y="54.024147"/>
     <use style="fill:#008fd5;fill-opacity:0.5;stroke:#008fd5;stroke-opacity:0.5;" x="447.917171" xlink:href="#m99532c8c27" y="94.214299"/>
     <use style="fill:#008fd5;fill-opacity:0.5;stroke:#008fd5;stroke-opacity:0.5;" x="360.525662" xlink:href="#m99532c8c27" y="203.301854"/>
     <use style="fill:#008fd5;fill-opacity:0.5;stroke:#008fd5;stroke-opacity:0.5;" x="242.999151" xlink:href="#m99532c8c27" y="197.560403"/>
     <use style="fill:#008fd5;fill-opacity:0.5;stroke:#008fd5;stroke-opacity:0.5;" x="572.331684" xlink:href="#m99532c8c27" y="128.663"/>
     <use style="fill:#008fd5;fill-opacity:0.5;stroke:#008fd5;stroke-opacity:0.5;" x="488.814675" xlink:href="#m99532c8c27" y="174.594602"/>
     <use style="fill:#008fd5;fill-opacity:0.5;stroke:#008fd5;stroke-opacity:0.5;" x="427.683669" xlink:href="#m99532c8c27" y="140.145901"/>
     <use style="fill:#008fd5;fill-opacity:0.5;stroke:#008fd5;stroke-opacity:0.5;" x="332.11266" xlink:href="#m99532c8c27" y="186.077503"/>
     <use style="fill:#008fd5;fill-opacity:0.5;stroke:#008fd5;stroke-opacity:0.5;" x="207.267647" xlink:href="#m99532c8c27" y="217.655479"/>
     <use style="fill:#008fd5;fill-opacity:0.5;stroke:#008fd5;stroke-opacity:0.5;" x="577.067184" xlink:href="#m99532c8c27" y="108.567924"/>
     <use style="fill:#008fd5;fill-opacity:0.5;stroke:#008fd5;stroke-opacity:0.5;" x="363.108663" xlink:href="#m99532c8c27" y="143.016626"/>
     <use style="fill:#008fd5;fill-opacity:0.5;stroke:#008fd5;stroke-opacity:0.5;" x="317.045158" xlink:href="#m99532c8c27" y="163.111702"/>
     <use style="fill:#008fd5;fill-opacity:0.5;stroke:#008fd5;stroke-opacity:0.5;" x="408.311167" xlink:href="#m99532c8c27" y="128.663"/>
     <use style="fill:#008fd5;fill-opacity:0.5;stroke:#008fd5;stroke-opacity:0.5;" x="334.69566" xlink:href="#m99532c8c27" y="174.594602"/>
     <use style="fill:#008fd5;fill-opacity:0.5;stroke:#008fd5;stroke-opacity:0.5;" x="433.28017" xlink:href="#m99532c8c27" y="94.214299"/>
     <use style="fill:#008fd5;fill-opacity:0.5;stroke:#008fd5;stroke-opacity:0.5;" x="280.022154" xlink:href="#m99532c8c27" y="203.301854"/>
     <use style="fill:#008fd5;fill-opacity:0.5;stroke:#008fd5;stroke-opacity:0.5;" x="394.104666" xlink:href="#m99532c8c27" y="143.016626"/>
     <use style="fill:#008fd5;fill-opacity:0.5;stroke:#008fd5;stroke-opacity:0.5;" x="352.346162" xlink:href="#m99532c8c27" y="180.336053"/>
     <use style="fill:#008fd5;fill-opacity:0.5;stroke:#008fd5;stroke-opacity:0.5;" x="543.488181" xlink:href="#m99532c8c27" y="137.275176"/>
     <use style="fill:#008fd5;fill-opacity:0.5;stroke:#008fd5;stroke-opacity:0.5;" x="523.254679" xlink:href="#m99532c8c27" y="97.085024"/>
     <use style="fill:#008fd5;fill-opacity:0.5;stroke:#008fd5;stroke-opacity:0.5;" x="503.021177" xlink:href="#m99532c8c27" y="145.887351"/>
     <use style="fill:#008fd5;fill-opacity:0.5;stroke:#008fd5;stroke-opacity:0.5;" x="354.498662" xlink:href="#m99532c8c27" y="186.077503"/>
     <use style="fill:#008fd5;fill-opacity:0.5;stroke:#008fd5;stroke-opacity:0.5;" x="463.415173" xlink:href="#m99532c8c27" y="171.723877"/>
     <use style="fill:#008fd5;fill-opacity:0.5;stroke:#008fd5;stroke-opacity:0.5;" x="344.166661" xlink:href="#m99532c8c27" y="131.533725"/>
     <use style="fill:#008fd5;fill-opacity:0.5;stroke:#008fd5;stroke-opacity:0.5;" x="561.138683" xlink:href="#m99532c8c27" y="128.663"/>
     <use style="fill:#008fd5;fill-opacity:0.5;stroke:#008fd5;stroke-opacity:0.5;" x="350.624161" xlink:href="#m99532c8c27" y="188.948228"/>
     <use style="fill:#008fd5;fill-opacity:0.5;stroke:#008fd5;stroke-opacity:0.5;" x="516.797178" xlink:href="#m99532c8c27" y="125.792275"/>
     <use style="fill:#008fd5;fill-opacity:0.5;stroke:#008fd5;stroke-opacity:0.5;" x="473.316674" xlink:href="#m99532c8c27" y="131.533725"/>
     <use style="fill:#008fd5;fill-opacity:0.5;stroke:#008fd5;stroke-opacity:0.5;" x="356.220662" xlink:href="#m99532c8c27" y="206.172579"/>
     <use style="fill:#008fd5;fill-opacity:0.5;stroke:#008fd5;stroke-opacity:0.5;" x="456.096672" xlink:href="#m99532c8c27" y="125.792275"/>
     <use style="fill:#008fd5;fill-opacity:0.5;stroke:#008fd5;stroke-opacity:0.5;" x="295.089656" xlink:href="#m99532c8c27" y="180.336053"/>
     <use style="fill:#008fd5;fill-opacity:0.5;stroke:#008fd5;stroke-opacity:0.5;" x="466.859173" xlink:href="#m99532c8c27" y="183.206778"/>
     <use style="fill:#008fd5;fill-opacity:0.5;stroke:#008fd5;stroke-opacity:0.5;" x="617.964689" xlink:href="#m99532c8c27" y="91.343574"/>
     <use style="fill:#008fd5;fill-opacity:0.5;stroke:#008fd5;stroke-opacity:0.5;" x="438.44617" xlink:href="#m99532c8c27" y="151.628801"/>
     <use style="fill:#008fd5;fill-opacity:0.5;stroke:#008fd5;stroke-opacity:0.5;" x="307.143657" xlink:href="#m99532c8c27" y="174.594602"/>
     <use style="fill:#008fd5;fill-opacity:0.5;stroke:#008fd5;stroke-opacity:0.5;" x="270.551153" xlink:href="#m99532c8c27" y="197.560403"/>
     <use style="fill:#008fd5;fill-opacity:0.5;stroke:#008fd5;stroke-opacity:0.5;" x="350.193661" xlink:href="#m99532c8c27" y="206.172579"/>
     <use style="fill:#008fd5;fill-opacity:0.5;stroke:#008fd5;stroke-opacity:0.5;" x="387.216665" xlink:href="#m99532c8c27" y="151.628801"/>
     <use style="fill:#008fd5;fill-opacity:0.5;stroke:#008fd5;stroke-opacity:0.5;" x="437.15467" xlink:href="#m99532c8c27" y="165.982427"/>
     <use style="fill:#008fd5;fill-opacity:0.5;stroke:#008fd5;stroke-opacity:0.5;" x="548.654182" xlink:href="#m99532c8c27" y="108.567924"/>
     <use style="fill:#008fd5;fill-opacity:0.5;stroke:#008fd5;stroke-opacity:0.5;" x="211.572647" xlink:href="#m99532c8c27" y="217.655479"/>
     <use style="fill:#008fd5;fill-opacity:0.5;stroke:#008fd5;stroke-opacity:0.5;" x="331.25166" xlink:href="#m99532c8c27" y="174.594602"/>
     <use style="fill:#008fd5;fill-opacity:0.5;stroke:#008fd5;stroke-opacity:0.5;" x="487.965869" xlink:href="#m99532c8c27" y="140.236317"/>
     <use style="fill:#008fd5;fill-opacity:0.5;stroke:#008fd5;stroke-opacity:0.5;" x="455.235672" xlink:href="#m99532c8c27" y="143.016626"/>
     <use style="fill:#008fd5;fill-opacity:0.5;stroke:#008fd5;stroke-opacity:0.5;" x="521.963179" xlink:href="#m99532c8c27" y="186.077503"/>
     <use style="fill:#008fd5;fill-opacity:0.5;stroke:#008fd5;stroke-opacity:0.5;" x="531.86468" xlink:href="#m99532c8c27" y="137.275176"/>
     <use style="fill:#008fd5;fill-opacity:0.5;stroke:#008fd5;stroke-opacity:0.5;" x="551.237182" xlink:href="#m99532c8c27" y="137.275176"/>
     <use style="fill:#008fd5;fill-opacity:0.5;stroke:#008fd5;stroke-opacity:0.5;" x="351.915662" xlink:href="#m99532c8c27" y="188.948228"/>
     <use style="fill:#008fd5;fill-opacity:0.5;stroke:#008fd5;stroke-opacity:0.5;" x="332.11266" xlink:href="#m99532c8c27" y="226.267655"/>
     <use style="fill:#008fd5;fill-opacity:0.5;stroke:#008fd5;stroke-opacity:0.5;" x="465.137173" xlink:href="#m99532c8c27" y="163.111702"/>
     <use style="fill:#008fd5;fill-opacity:0.5;stroke:#008fd5;stroke-opacity:0.5;" x="383.772665" xlink:href="#m99532c8c27" y="223.39693"/>
     <use style="fill:#008fd5;fill-opacity:0.5;stroke:#008fd5;stroke-opacity:0.5;" x="408.311167" xlink:href="#m99532c8c27" y="140.145901"/>
     <use style="fill:#008fd5;fill-opacity:0.5;stroke:#008fd5;stroke-opacity:0.5;" x="347.610661" xlink:href="#m99532c8c27" y="184.699555"/>
     <use style="fill:#008fd5;fill-opacity:0.5;stroke:#008fd5;stroke-opacity:0.5;" x="492.258676" xlink:href="#m99532c8c27" y="160.240977"/>
     <use style="fill:#008fd5;fill-opacity:0.5;stroke:#008fd5;stroke-opacity:0.5;" x="380.328664" xlink:href="#m99532c8c27" y="157.370252"/>
     <use style="fill:#008fd5;fill-opacity:0.5;stroke:#008fd5;stroke-opacity:0.5;" x="199.518646" xlink:href="#m99532c8c27" y="171.723877"/>
     <use style="fill:#008fd5;fill-opacity:0.5;stroke:#008fd5;stroke-opacity:0.5;" x="572.331684" xlink:href="#m99532c8c27" y="108.567924"/>
     <use style="fill:#008fd5;fill-opacity:0.5;stroke:#008fd5;stroke-opacity:0.5;" x="510.339678" xlink:href="#m99532c8c27" y="186.077503"/>
     <use style="fill:#008fd5;fill-opacity:0.5;stroke:#008fd5;stroke-opacity:0.5;" x="264.524153" xlink:href="#m99532c8c27" y="194.689678"/>
     <use style="fill:#008fd5;fill-opacity:0.5;stroke:#008fd5;stroke-opacity:0.5;" x="452.222172" xlink:href="#m99532c8c27" y="143.016626"/>
     <use style="fill:#008fd5;fill-opacity:0.5;stroke:#008fd5;stroke-opacity:0.5;" x="575.345184" xlink:href="#m99532c8c27" y="131.533725"/>
     <use style="fill:#008fd5;fill-opacity:0.5;stroke:#008fd5;stroke-opacity:0.5;" x="349.763161" xlink:href="#m99532c8c27" y="160.240977"/>
     <use style="fill:#008fd5;fill-opacity:0.5;stroke:#008fd5;stroke-opacity:0.5;" x="472.455674" xlink:href="#m99532c8c27" y="143.016626"/>
     <use style="fill:#008fd5;fill-opacity:0.5;stroke:#008fd5;stroke-opacity:0.5;" x="417.351668" xlink:href="#m99532c8c27" y="200.431129"/>
     <use style="fill:#008fd5;fill-opacity:0.5;stroke:#008fd5;stroke-opacity:0.5;" x="648.960692" xlink:href="#m99532c8c27" y="82.731398"/>
     <use style="fill:#008fd5;fill-opacity:0.5;stroke:#008fd5;stroke-opacity:0.5;" x="454.374672" xlink:href="#m99532c8c27" y="111.43865"/>
     <use style="fill:#008fd5;fill-opacity:0.5;stroke:#008fd5;stroke-opacity:0.5;" x="189.186645" xlink:href="#m99532c8c27" y="223.39693"/>
     <use style="fill:#008fd5;fill-opacity:0.5;stroke:#008fd5;stroke-opacity:0.5;" x="246.443151" xlink:href="#m99532c8c27" y="177.465328"/>
     <use style="fill:#008fd5;fill-opacity:0.5;stroke:#008fd5;stroke-opacity:0.5;" x="403.575667" xlink:href="#m99532c8c27" y="154.499526"/>
     <use style="fill:#008fd5;fill-opacity:0.5;stroke:#008fd5;stroke-opacity:0.5;" x="376.884664" xlink:href="#m99532c8c27" y="191.818953"/>
     <use style="fill:#008fd5;fill-opacity:0.5;stroke:#008fd5;stroke-opacity:0.5;" x="402.284167" xlink:href="#m99532c8c27" y="151.628801"/>
     <use style="fill:#008fd5;fill-opacity:0.5;stroke:#008fd5;stroke-opacity:0.5;" x="302.838657" xlink:href="#m99532c8c27" y="186.077503"/>
     <use style="fill:#008fd5;fill-opacity:0.5;stroke:#008fd5;stroke-opacity:0.5;" x="335.55666" xlink:href="#m99532c8c27" y="194.689678"/>
     <use style="fill:#008fd5;fill-opacity:0.5;stroke:#008fd5;stroke-opacity:0.5;" x="397.548666" xlink:href="#m99532c8c27" y="171.723877"/>
     <use style="fill:#008fd5;fill-opacity:0.5;stroke:#008fd5;stroke-opacity:0.5;" x="524.976679" xlink:href="#m99532c8c27" y="137.275176"/>
     <use style="fill:#008fd5;fill-opacity:0.5;stroke:#008fd5;stroke-opacity:0.5;" x="504.743177" xlink:href="#m99532c8c27" y="188.948228"/>
     <use style="fill:#008fd5;fill-opacity:0.5;stroke:#008fd5;stroke-opacity:0.5;" x="304.130157" xlink:href="#m99532c8c27" y="237.750555"/>
     <use style="fill:#008fd5;fill-opacity:0.5;stroke:#008fd5;stroke-opacity:0.5;" x="404.436667" xlink:href="#m99532c8c27" y="128.663"/>
     <use style="fill:#008fd5;fill-opacity:0.5;stroke:#008fd5;stroke-opacity:0.5;" x="323.933159" xlink:href="#m99532c8c27" y="188.948228"/>
     <use style="fill:#008fd5;fill-opacity:0.5;stroke:#008fd5;stroke-opacity:0.5;" x="492.258676" xlink:href="#m99532c8c27" y="145.887351"/>
     <use style="fill:#008fd5;fill-opacity:0.5;stroke:#008fd5;stroke-opacity:0.5;" x="297.672656" xlink:href="#m99532c8c27" y="186.077503"/>
     <use style="fill:#008fd5;fill-opacity:0.5;stroke:#008fd5;stroke-opacity:0.5;" x="306.282657" xlink:href="#m99532c8c27" y="148.758076"/>
     <use style="fill:#008fd5;fill-opacity:0.5;stroke:#008fd5;stroke-opacity:0.5;" x="383.772665" xlink:href="#m99532c8c27" y="157.370252"/>
     <use style="fill:#008fd5;fill-opacity:0.5;stroke:#008fd5;stroke-opacity:0.5;" x="310.587657" xlink:href="#m99532c8c27" y="191.818953"/>
     <use style="fill:#008fd5;fill-opacity:0.5;stroke:#008fd5;stroke-opacity:0.5;" x="182.298644" xlink:href="#m99532c8c27" y="214.784754"/>
     <use style="fill:#008fd5;fill-opacity:0.5;stroke:#008fd5;stroke-opacity:0.5;" x="420.795669" xlink:href="#m99532c8c27" y="165.982427"/>
     <use style="fill:#008fd5;fill-opacity:0.5;stroke:#008fd5;stroke-opacity:0.5;" x="327.377159" xlink:href="#m99532c8c27" y="151.628801"/>
     <use style="fill:#008fd5;fill-opacity:0.5;stroke:#008fd5;stroke-opacity:0.5;" x="472.455674" xlink:href="#m99532c8c27" y="151.628801"/>
     <use style="fill:#008fd5;fill-opacity:0.5;stroke:#008fd5;stroke-opacity:0.5;" x="337.27866" xlink:href="#m99532c8c27" y="165.982427"/>
     <use style="fill:#008fd5;fill-opacity:0.5;stroke:#008fd5;stroke-opacity:0.5;" x="539.596415" xlink:href="#m99532c8c27" y="102.826474"/>
     <use style="fill:#008fd5;fill-opacity:0.5;stroke:#008fd5;stroke-opacity:0.5;" x="393.674166" xlink:href="#m99532c8c27" y="206.172579"/>
     <use style="fill:#008fd5;fill-opacity:0.5;stroke:#008fd5;stroke-opacity:0.5;" x="254.192152" xlink:href="#m99532c8c27" y="188.948228"/>
     <use style="fill:#008fd5;fill-opacity:0.5;stroke:#008fd5;stroke-opacity:0.5;" x="397.118166" xlink:href="#m99532c8c27" y="163.111702"/>
     <use style="fill:#008fd5;fill-opacity:0.5;stroke:#008fd5;stroke-opacity:0.5;" x="441.029171" xlink:href="#m99532c8c27" y="128.663"/>
     <use style="fill:#008fd5;fill-opacity:0.5;stroke:#008fd5;stroke-opacity:0.5;" x="404.006167" xlink:href="#m99532c8c27" y="154.499526"/>
     <use style="fill:#008fd5;fill-opacity:0.5;stroke:#008fd5;stroke-opacity:0.5;" x="445.764671" xlink:href="#m99532c8c27" y="135.66757"/>
     <use style="fill:#008fd5;fill-opacity:0.5;stroke:#008fd5;stroke-opacity:0.5;" x="335.98716" xlink:href="#m99532c8c27" y="209.043304"/>
     <use style="fill:#008fd5;fill-opacity:0.5;stroke:#008fd5;stroke-opacity:0.5;" x="293.798156" xlink:href="#m99532c8c27" y="214.784754"/>
     <use style="fill:#008fd5;fill-opacity:0.5;stroke:#008fd5;stroke-opacity:0.5;" x="350.193661" xlink:href="#m99532c8c27" y="188.948228"/>
     <use style="fill:#008fd5;fill-opacity:0.5;stroke:#008fd5;stroke-opacity:0.5;" x="291.215155" xlink:href="#m99532c8c27" y="186.077503"/>
     <use style="fill:#008fd5;fill-opacity:0.5;stroke:#008fd5;stroke-opacity:0.5;" x="444.473171" xlink:href="#m99532c8c27" y="114.309375"/>
     <use style="fill:#008fd5;fill-opacity:0.5;stroke:#008fd5;stroke-opacity:0.5;" x="301.547157" xlink:href="#m99532c8c27" y="211.914029"/>
     <use style="fill:#008fd5;fill-opacity:0.5;stroke:#008fd5;stroke-opacity:0.5;" x="318.336658" xlink:href="#m99532c8c27" y="151.628801"/>
     <use style="fill:#008fd5;fill-opacity:0.5;stroke:#008fd5;stroke-opacity:0.5;" x="472.886174" xlink:href="#m99532c8c27" y="165.982427"/>
     <use style="fill:#008fd5;fill-opacity:0.5;stroke:#008fd5;stroke-opacity:0.5;" x="534.87818" xlink:href="#m99532c8c27" y="122.92155"/>
     <use style="fill:#008fd5;fill-opacity:0.5;stroke:#008fd5;stroke-opacity:0.5;" x="402.927324" xlink:href="#m99532c8c27" y="157.370252"/>
     <use style="fill:#008fd5;fill-opacity:0.5;stroke:#008fd5;stroke-opacity:0.5;" x="309.296157" xlink:href="#m99532c8c27" y="211.914029"/>
     <use style="fill:#008fd5;fill-opacity:0.5;stroke:#008fd5;stroke-opacity:0.5;" x="366.552663" xlink:href="#m99532c8c27" y="128.663"/>
     <use style="fill:#008fd5;fill-opacity:0.5;stroke:#008fd5;stroke-opacity:0.5;" x="194.352646" xlink:href="#m99532c8c27" y="203.301854"/>
     <use style="fill:#008fd5;fill-opacity:0.5;stroke:#008fd5;stroke-opacity:0.5;" x="400.562167" xlink:href="#m99532c8c27" y="163.111702"/>
     <use style="fill:#008fd5;fill-opacity:0.5;stroke:#008fd5;stroke-opacity:0.5;" x="288.201655" xlink:href="#m99532c8c27" y="209.043304"/>
     <use style="fill:#008fd5;fill-opacity:0.5;stroke:#008fd5;stroke-opacity:0.5;" x="258.497152" xlink:href="#m99532c8c27" y="200.431129"/>
     <use style="fill:#008fd5;fill-opacity:0.5;stroke:#008fd5;stroke-opacity:0.5;" x="331.25166" xlink:href="#m99532c8c27" y="174.594602"/>
     <use style="fill:#008fd5;fill-opacity:0.5;stroke:#008fd5;stroke-opacity:0.5;" x="438.01567" xlink:href="#m99532c8c27" y="122.92155"/>
     <use style="fill:#008fd5;fill-opacity:0.5;stroke:#008fd5;stroke-opacity:0.5;" x="435.00217" xlink:href="#m99532c8c27" y="114.309375"/>
     <use style="fill:#008fd5;fill-opacity:0.5;stroke:#008fd5;stroke-opacity:0.5;" x="414.768668" xlink:href="#m99532c8c27" y="157.370252"/>
     <use style="fill:#008fd5;fill-opacity:0.5;stroke:#008fd5;stroke-opacity:0.5;" x="335.55666" xlink:href="#m99532c8c27" y="174.594602"/>
     <use style="fill:#008fd5;fill-opacity:0.5;stroke:#008fd5;stroke-opacity:0.5;" x="266.246153" xlink:href="#m99532c8c27" y="229.13838"/>
     <use style="fill:#008fd5;fill-opacity:0.5;stroke:#008fd5;stroke-opacity:0.5;" x="441.459671" xlink:href="#m99532c8c27" y="125.792275"/>
     <use style="fill:#008fd5;fill-opacity:0.5;stroke:#008fd5;stroke-opacity:0.5;" x="267.968153" xlink:href="#m99532c8c27" y="180.336053"/>
     <use style="fill:#008fd5;fill-opacity:0.5;stroke:#008fd5;stroke-opacity:0.5;" x="569.318184" xlink:href="#m99532c8c27" y="89.965626"/>
     <use style="fill:#008fd5;fill-opacity:0.5;stroke:#008fd5;stroke-opacity:0.5;" x="298.103156" xlink:href="#m99532c8c27" y="186.077503"/>
     <use style="fill:#008fd5;fill-opacity:0.5;stroke:#008fd5;stroke-opacity:0.5;" x="431.55817" xlink:href="#m99532c8c27" y="122.92155"/>
     <use style="fill:#008fd5;fill-opacity:0.5;stroke:#008fd5;stroke-opacity:0.5;" x="260.219152" xlink:href="#m99532c8c27" y="223.39693"/>
     <use style="fill:#008fd5;fill-opacity:0.5;stroke:#008fd5;stroke-opacity:0.5;" x="337.27866" xlink:href="#m99532c8c27" y="188.948228"/>
     <use style="fill:#008fd5;fill-opacity:0.5;stroke:#008fd5;stroke-opacity:0.5;" x="390.230165" xlink:href="#m99532c8c27" y="203.301854"/>
     <use style="fill:#008fd5;fill-opacity:0.5;stroke:#008fd5;stroke-opacity:0.5;" x="476.330174" xlink:href="#m99532c8c27" y="134.404451"/>
     <use style="fill:#008fd5;fill-opacity:0.5;stroke:#008fd5;stroke-opacity:0.5;" x="549.945682" xlink:href="#m99532c8c27" y="128.663"/>
     <use style="fill:#008fd5;fill-opacity:0.5;stroke:#008fd5;stroke-opacity:0.5;" x="286.479655" xlink:href="#m99532c8c27" y="206.172579"/>
     <use style="fill:#008fd5;fill-opacity:0.5;stroke:#008fd5;stroke-opacity:0.5;" x="598.161687" xlink:href="#m99532c8c27" y="91.343574"/>
     <use style="fill:#008fd5;fill-opacity:0.5;stroke:#008fd5;stroke-opacity:0.5;" x="385.064165" xlink:href="#m99532c8c27" y="143.016626"/>
     <use style="fill:#008fd5;fill-opacity:0.5;stroke:#008fd5;stroke-opacity:0.5;" x="384.704778" xlink:href="#m99532c8c27" y="142.948814"/>
     <use style="fill:#008fd5;fill-opacity:0.5;stroke:#008fd5;stroke-opacity:0.5;" x="387.216665" xlink:href="#m99532c8c27" y="168.853152"/>
     <use style="fill:#008fd5;fill-opacity:0.5;stroke:#008fd5;stroke-opacity:0.5;" x="388.077665" xlink:href="#m99532c8c27" y="140.145901"/>
     <use style="fill:#008fd5;fill-opacity:0.5;stroke:#008fd5;stroke-opacity:0.5;" x="325.224659" xlink:href="#m99532c8c27" y="183.206778"/>
     <use style="fill:#008fd5;fill-opacity:0.5;stroke:#008fd5;stroke-opacity:0.5;" x="379.898164" xlink:href="#m99532c8c27" y="188.948228"/>
     <use style="fill:#008fd5;fill-opacity:0.5;stroke:#008fd5;stroke-opacity:0.5;" x="233.09765" xlink:href="#m99532c8c27" y="217.655479"/>
     <use style="fill:#008fd5;fill-opacity:0.5;stroke:#008fd5;stroke-opacity:0.5;" x="208.128647" xlink:href="#m99532c8c27" y="221.100349"/>
     <use style="fill:#008fd5;fill-opacity:0.5;stroke:#008fd5;stroke-opacity:0.5;" x="256.344652" xlink:href="#m99532c8c27" y="197.560403"/>
     <use style="fill:#008fd5;fill-opacity:0.5;stroke:#008fd5;stroke-opacity:0.5;" x="462.984278" xlink:href="#m99532c8c27" y="128.663"/>
     <use style="fill:#008fd5;fill-opacity:0.5;stroke:#008fd5;stroke-opacity:0.5;" x="518.088678" xlink:href="#m99532c8c27" y="120.050825"/>
     <use style="fill:#008fd5;fill-opacity:0.5;stroke:#008fd5;stroke-opacity:0.5;" x="273.564654" xlink:href="#m99532c8c27" y="140.145901"/>
     <use style="fill:#008fd5;fill-opacity:0.5;stroke:#008fd5;stroke-opacity:0.5;" x="325.655159" xlink:href="#m99532c8c27" y="168.853152"/>
     <use style="fill:#008fd5;fill-opacity:0.5;stroke:#008fd5;stroke-opacity:0.5;" x="478.913174" xlink:href="#m99532c8c27" y="108.567924"/>
     <use style="fill:#008fd5;fill-opacity:0.5;stroke:#008fd5;stroke-opacity:0.5;" x="378.176164" xlink:href="#m99532c8c27" y="180.336053"/>
     <use style="fill:#008fd5;fill-opacity:0.5;stroke:#008fd5;stroke-opacity:0.5;" x="468.072924" xlink:href="#m99532c8c27" y="171.723877"/>
     <use style="fill:#008fd5;fill-opacity:0.5;stroke:#008fd5;stroke-opacity:0.5;" x="220.613148" xlink:href="#m99532c8c27" y="234.87983"/>
     <use style="fill:#008fd5;fill-opacity:0.5;stroke:#008fd5;stroke-opacity:0.5;" x="376.454164" xlink:href="#m99532c8c27" y="174.594602"/>
     <use style="fill:#008fd5;fill-opacity:0.5;stroke:#008fd5;stroke-opacity:0.5;" x="441.459671" xlink:href="#m99532c8c27" y="163.111702"/>
     <use style="fill:#008fd5;fill-opacity:0.5;stroke:#008fd5;stroke-opacity:0.5;" x="359.664662" xlink:href="#m99532c8c27" y="194.689678"/>
     <use style="fill:#008fd5;fill-opacity:0.5;stroke:#008fd5;stroke-opacity:0.5;" x="225.348649" xlink:href="#m99532c8c27" y="211.914029"/>
     <use style="fill:#008fd5;fill-opacity:0.5;stroke:#008fd5;stroke-opacity:0.5;" x="313.601158" xlink:href="#m99532c8c27" y="160.240977"/>
     <use style="fill:#008fd5;fill-opacity:0.5;stroke:#008fd5;stroke-opacity:0.5;" x="256.344652" xlink:href="#m99532c8c27" y="183.206778"/>
     <use style="fill:#008fd5;fill-opacity:0.5;stroke:#008fd5;stroke-opacity:0.5;" x="483.648675" xlink:href="#m99532c8c27" y="160.240977"/>
     <use style="fill:#008fd5;fill-opacity:0.5;stroke:#008fd5;stroke-opacity:0.5;" x="405.297667" xlink:href="#m99532c8c27" y="165.982427"/>
     <use style="fill:#008fd5;fill-opacity:0.5;stroke:#008fd5;stroke-opacity:0.5;" x="457.818672" xlink:href="#m99532c8c27" y="151.628801"/>
     <use style="fill:#008fd5;fill-opacity:0.5;stroke:#008fd5;stroke-opacity:0.5;" x="603.758187" xlink:href="#m99532c8c27" y="99.955749"/>
     <use style="fill:#008fd5;fill-opacity:0.5;stroke:#008fd5;stroke-opacity:0.5;" x="370.427163" xlink:href="#m99532c8c27" y="183.206778"/>
     <use style="fill:#008fd5;fill-opacity:0.5;stroke:#008fd5;stroke-opacity:0.5;" x="499.577177" xlink:href="#m99532c8c27" y="140.145901"/>
     <use style="fill:#008fd5;fill-opacity:0.5;stroke:#008fd5;stroke-opacity:0.5;" x="480.204675" xlink:href="#m99532c8c27" y="105.697199"/>
     <use style="fill:#008fd5;fill-opacity:0.5;stroke:#008fd5;stroke-opacity:0.5;" x="230.514649" xlink:href="#m99532c8c27" y="211.914029"/>
     <use style="fill:#008fd5;fill-opacity:0.5;stroke:#008fd5;stroke-opacity:0.5;" x="308.435157" xlink:href="#m99532c8c27" y="206.172579"/>
     <use style="fill:#008fd5;fill-opacity:0.5;stroke:#008fd5;stroke-opacity:0.5;" x="614.951188" xlink:href="#m99532c8c27" y="140.145901"/>
     <use style="fill:#008fd5;fill-opacity:0.5;stroke:#008fd5;stroke-opacity:0.5;" x="502.590677" xlink:href="#m99532c8c27" y="120.050825"/>
     <use style="fill:#008fd5;fill-opacity:0.5;stroke:#008fd5;stroke-opacity:0.5;" x="317.475658" xlink:href="#m99532c8c27" y="171.723877"/>
     <use style="fill:#008fd5;fill-opacity:0.5;stroke:#008fd5;stroke-opacity:0.5;" x="377.745664" xlink:href="#m99532c8c27" y="188.948228"/>
     <use style="fill:#008fd5;fill-opacity:0.5;stroke:#008fd5;stroke-opacity:0.5;" x="539.613681" xlink:href="#m99532c8c27" y="140.145901"/>
     <use style="fill:#008fd5;fill-opacity:0.5;stroke:#008fd5;stroke-opacity:0.5;" x="394.965666" xlink:href="#m99532c8c27" y="188.948228"/>
     <use style="fill:#008fd5;fill-opacity:0.5;stroke:#008fd5;stroke-opacity:0.5;" x="338.13966" xlink:href="#m99532c8c27" y="168.853152"/>
     <use style="fill:#008fd5;fill-opacity:0.5;stroke:#008fd5;stroke-opacity:0.5;" x="346.749661" xlink:href="#m99532c8c27" y="183.206778"/>
     <use style="fill:#008fd5;fill-opacity:0.5;stroke:#008fd5;stroke-opacity:0.5;" x="356.216866" xlink:href="#m99532c8c27" y="177.465328"/>
     <use style="fill:#008fd5;fill-opacity:0.5;stroke:#008fd5;stroke-opacity:0.5;" x="365.691663" xlink:href="#m99532c8c27" y="148.758076"/>
     <use style="fill:#008fd5;fill-opacity:0.5;stroke:#008fd5;stroke-opacity:0.5;" x="330.390659" xlink:href="#m99532c8c27" y="188.948228"/>
     <use style="fill:#008fd5;fill-opacity:0.5;stroke:#008fd5;stroke-opacity:0.5;" x="361.386663" xlink:href="#m99532c8c27" y="177.465328"/>
     <use style="fill:#008fd5;fill-opacity:0.5;stroke:#008fd5;stroke-opacity:0.5;" x="412.185668" xlink:href="#m99532c8c27" y="163.111702"/>
     <use style="fill:#008fd5;fill-opacity:0.5;stroke:#008fd5;stroke-opacity:0.5;" x="437.15467" xlink:href="#m99532c8c27" y="134.404451"/>
     <use style="fill:#008fd5;fill-opacity:0.5;stroke:#008fd5;stroke-opacity:0.5;" x="356.220662" xlink:href="#m99532c8c27" y="191.818953"/>
     <use style="fill:#008fd5;fill-opacity:0.5;stroke:#008fd5;stroke-opacity:0.5;" x="447.056171" xlink:href="#m99532c8c27" y="137.275176"/>
     <use style="fill:#008fd5;fill-opacity:0.5;stroke:#008fd5;stroke-opacity:0.5;" x="407.019667" xlink:href="#m99532c8c27" y="151.628801"/>
     <use style="fill:#008fd5;fill-opacity:0.5;stroke:#008fd5;stroke-opacity:0.5;" x="513.783678" xlink:href="#m99532c8c27" y="108.567924"/>
     <use style="fill:#008fd5;fill-opacity:0.5;stroke:#008fd5;stroke-opacity:0.5;" x="432.84967" xlink:href="#m99532c8c27" y="151.628801"/>
     <use style="fill:#008fd5;fill-opacity:0.5;stroke:#008fd5;stroke-opacity:0.5;" x="371.718664" xlink:href="#m99532c8c27" y="174.594602"/>
     <use style="fill:#008fd5;fill-opacity:0.5;stroke:#008fd5;stroke-opacity:0.5;" x="369.996663" xlink:href="#m99532c8c27" y="174.594602"/>
     <use style="fill:#008fd5;fill-opacity:0.5;stroke:#008fd5;stroke-opacity:0.5;" x="518.519178" xlink:href="#m99532c8c27" y="131.533725"/>
     <use style="fill:#008fd5;fill-opacity:0.5;stroke:#008fd5;stroke-opacity:0.5;" x="388.938665" xlink:href="#m99532c8c27" y="174.594602"/>
     <use style="fill:#008fd5;fill-opacity:0.5;stroke:#008fd5;stroke-opacity:0.5;" x="427.253169" xlink:href="#m99532c8c27" y="143.016626"/>
     <use style="fill:#008fd5;fill-opacity:0.5;stroke:#008fd5;stroke-opacity:0.5;" x="191.339145" xlink:href="#m99532c8c27" y="220.526204"/>
     <use style="fill:#008fd5;fill-opacity:0.5;stroke:#008fd5;stroke-opacity:0.5;" x="567.596183" xlink:href="#m99532c8c27" y="99.955749"/>
     <use style="fill:#008fd5;fill-opacity:0.5;stroke:#008fd5;stroke-opacity:0.5;" x="557.694682" xlink:href="#m99532c8c27" y="140.145901"/>
     <use style="fill:#008fd5;fill-opacity:0.5;stroke:#008fd5;stroke-opacity:0.5;" x="431.55817" xlink:href="#m99532c8c27" y="148.758076"/>
     <use style="fill:#008fd5;fill-opacity:0.5;stroke:#008fd5;stroke-opacity:0.5;" x="396.257166" xlink:href="#m99532c8c27" y="174.594602"/>
     <use style="fill:#008fd5;fill-opacity:0.5;stroke:#008fd5;stroke-opacity:0.5;" x="401.853667" xlink:href="#m99532c8c27" y="160.240977"/>
     <use style="fill:#008fd5;fill-opacity:0.5;stroke:#008fd5;stroke-opacity:0.5;" x="452.652672" xlink:href="#m99532c8c27" y="165.982427"/>
     <use style="fill:#008fd5;fill-opacity:0.5;stroke:#008fd5;stroke-opacity:0.5;" x="417.782168" xlink:href="#m99532c8c27" y="154.499526"/>
     <use style="fill:#008fd5;fill-opacity:0.5;stroke:#008fd5;stroke-opacity:0.5;" x="376.884664" xlink:href="#m99532c8c27" y="157.370252"/>
     <use style="fill:#008fd5;fill-opacity:0.5;stroke:#008fd5;stroke-opacity:0.5;" x="561.569183" xlink:href="#m99532c8c27" y="102.826474"/>
     <use style="fill:#008fd5;fill-opacity:0.5;stroke:#008fd5;stroke-opacity:0.5;" x="319.197658" xlink:href="#m99532c8c27" y="194.689678"/>
     <use style="fill:#008fd5;fill-opacity:0.5;stroke:#008fd5;stroke-opacity:0.5;" x="481.926675" xlink:href="#m99532c8c27" y="151.628801"/>
     <use style="fill:#008fd5;fill-opacity:0.5;stroke:#008fd5;stroke-opacity:0.5;" x="413.557142" xlink:href="#m99532c8c27" y="137.071739"/>
     <use style="fill:#008fd5;fill-opacity:0.5;stroke:#008fd5;stroke-opacity:0.5;" x="459.971173" xlink:href="#m99532c8c27" y="134.404451"/>
     <use style="fill:#008fd5;fill-opacity:0.5;stroke:#008fd5;stroke-opacity:0.5;" x="380.328664" xlink:href="#m99532c8c27" y="183.206778"/>
     <use style="fill:#008fd5;fill-opacity:0.5;stroke:#008fd5;stroke-opacity:0.5;" x="485.370675" xlink:href="#m99532c8c27" y="125.792275"/>
     <use style="fill:#008fd5;fill-opacity:0.5;stroke:#008fd5;stroke-opacity:0.5;" x="329.529659" xlink:href="#m99532c8c27" y="191.818953"/>
     <use style="fill:#008fd5;fill-opacity:0.5;stroke:#008fd5;stroke-opacity:0.5;" x="280.883154" xlink:href="#m99532c8c27" y="191.818953"/>
     <use style="fill:#008fd5;fill-opacity:0.5;stroke:#008fd5;stroke-opacity:0.5;" x="493.980676" xlink:href="#m99532c8c27" y="131.533725"/>
     <use style="fill:#008fd5;fill-opacity:0.5;stroke:#008fd5;stroke-opacity:0.5;" x="391.091166" xlink:href="#m99532c8c27" y="168.853152"/>
     <use style="fill:#008fd5;fill-opacity:0.5;stroke:#008fd5;stroke-opacity:0.5;" x="369.566163" xlink:href="#m99532c8c27" y="180.336053"/>
     <use style="fill:#008fd5;fill-opacity:0.5;stroke:#008fd5;stroke-opacity:0.5;" x="419.934669" xlink:href="#m99532c8c27" y="122.92155"/>
     <use style="fill:#008fd5;fill-opacity:0.5;stroke:#008fd5;stroke-opacity:0.5;" x="311.018157" xlink:href="#m99532c8c27" y="171.723877"/>
     <use style="fill:#008fd5;fill-opacity:0.5;stroke:#008fd5;stroke-opacity:0.5;" x="238.69415" xlink:href="#m99532c8c27" y="177.465328"/>
     <use style="fill:#008fd5;fill-opacity:0.5;stroke:#008fd5;stroke-opacity:0.5;" x="307.143657" xlink:href="#m99532c8c27" y="157.370252"/>
     <use style="fill:#008fd5;fill-opacity:0.5;stroke:#008fd5;stroke-opacity:0.5;" x="279.161154" xlink:href="#m99532c8c27" y="229.13838"/>
     <use style="fill:#008fd5;fill-opacity:0.5;stroke:#008fd5;stroke-opacity:0.5;" x="449.639172" xlink:href="#m99532c8c27" y="145.887351"/>
     <use style="fill:#008fd5;fill-opacity:0.5;stroke:#008fd5;stroke-opacity:0.5;" x="251.178651" xlink:href="#m99532c8c27" y="217.655479"/>
     <use style="fill:#008fd5;fill-opacity:0.5;stroke:#008fd5;stroke-opacity:0.5;" x="374.301664" xlink:href="#m99532c8c27" y="176.661524"/>
     <use style="fill:#008fd5;fill-opacity:0.5;stroke:#008fd5;stroke-opacity:0.5;" x="442.320671" xlink:href="#m99532c8c27" y="134.404451"/>
     <use style="fill:#008fd5;fill-opacity:0.5;stroke:#008fd5;stroke-opacity:0.5;" x="484.509675" xlink:href="#m99532c8c27" y="135.782399"/>
     <use style="fill:#008fd5;fill-opacity:0.5;stroke:#008fd5;stroke-opacity:0.5;" x="378.606664" xlink:href="#m99532c8c27" y="209.043304"/>
     <use style="fill:#008fd5;fill-opacity:0.5;stroke:#008fd5;stroke-opacity:0.5;" x="442.320671" xlink:href="#m99532c8c27" y="140.145901"/>
     <use style="fill:#008fd5;fill-opacity:0.5;stroke:#008fd5;stroke-opacity:0.5;" x="419.504168" xlink:href="#m99532c8c27" y="135.782399"/>
     <use style="fill:#008fd5;fill-opacity:0.5;stroke:#008fd5;stroke-opacity:0.5;" x="567.165683" xlink:href="#m99532c8c27" y="113.161085"/>
     <use style="fill:#008fd5;fill-opacity:0.5;stroke:#008fd5;stroke-opacity:0.5;" x="448.347671" xlink:href="#m99532c8c27" y="149.332221"/>
     <use style="fill:#008fd5;fill-opacity:0.5;stroke:#008fd5;stroke-opacity:0.5;" x="442.751171" xlink:href="#m99532c8c27" y="163.111702"/>
     <use style="fill:#008fd5;fill-opacity:0.5;stroke:#008fd5;stroke-opacity:0.5;" x="431.55817" xlink:href="#m99532c8c27" y="137.275176"/>
     <use style="fill:#008fd5;fill-opacity:0.5;stroke:#008fd5;stroke-opacity:0.5;" x="250.317651" xlink:href="#m99532c8c27" y="197.560403"/>
     <use style="fill:#008fd5;fill-opacity:0.5;stroke:#008fd5;stroke-opacity:0.5;" x="266.258233" xlink:href="#m99532c8c27" y="200.363316"/>
     <use style="fill:#008fd5;fill-opacity:0.5;stroke:#008fd5;stroke-opacity:0.5;" x="453.944172" xlink:href="#m99532c8c27" y="197.560403"/>
     <use style="fill:#008fd5;fill-opacity:0.5;stroke:#008fd5;stroke-opacity:0.5;" x="488.814675" xlink:href="#m99532c8c27" y="81.468279"/>
     <use style="fill:#008fd5;fill-opacity:0.5;stroke:#008fd5;stroke-opacity:0.5;" x="416.921168" xlink:href="#m99532c8c27" y="148.758076"/>
     <use style="fill:#008fd5;fill-opacity:0.5;stroke:#008fd5;stroke-opacity:0.5;" x="271.842653" xlink:href="#m99532c8c27" y="197.560403"/>
     <use style="fill:#008fd5;fill-opacity:0.5;stroke:#008fd5;stroke-opacity:0.5;" x="449.208671" xlink:href="#m99532c8c27" y="113.161085"/>
     <use style="fill:#008fd5;fill-opacity:0.5;stroke:#008fd5;stroke-opacity:0.5;" x="288.201655" xlink:href="#m99532c8c27" y="186.077503"/>
     <use style="fill:#008fd5;fill-opacity:0.5;stroke:#008fd5;stroke-opacity:0.5;" x="428.544669" xlink:href="#m99532c8c27" y="131.533725"/>
     <use style="fill:#008fd5;fill-opacity:0.5;stroke:#008fd5;stroke-opacity:0.5;" x="551.667682" xlink:href="#m99532c8c27" y="122.92155"/>
     <use style="fill:#008fd5;fill-opacity:0.5;stroke:#008fd5;stroke-opacity:0.5;" x="533.58668" xlink:href="#m99532c8c27" y="140.145901"/>
     <use style="fill:#008fd5;fill-opacity:0.5;stroke:#008fd5;stroke-opacity:0.5;" x="446.625671" xlink:href="#m99532c8c27" y="163.111702"/>
     <use style="fill:#008fd5;fill-opacity:0.5;stroke:#008fd5;stroke-opacity:0.5;" x="364.400163" xlink:href="#m99532c8c27" y="174.594602"/>
     <use style="fill:#008fd5;fill-opacity:0.5;stroke:#008fd5;stroke-opacity:0.5;" x="229.653649" xlink:href="#m99532c8c27" y="203.301854"/>
     <use style="fill:#008fd5;fill-opacity:0.5;stroke:#008fd5;stroke-opacity:0.5;" x="469.011673" xlink:href="#m99532c8c27" y="176.431866"/>
     <use style="fill:#008fd5;fill-opacity:0.5;stroke:#008fd5;stroke-opacity:0.5;" x="383.772665" xlink:href="#m99532c8c27" y="177.465328"/>
     <use style="fill:#008fd5;fill-opacity:0.5;stroke:#008fd5;stroke-opacity:0.5;" x="218.460648" xlink:href="#m99532c8c27" y="209.043304"/>
     <use style="fill:#008fd5;fill-opacity:0.5;stroke:#008fd5;stroke-opacity:0.5;" x="428.544669" xlink:href="#m99532c8c27" y="137.275176"/>
     <use style="fill:#008fd5;fill-opacity:0.5;stroke:#008fd5;stroke-opacity:0.5;" x="410.894168" xlink:href="#m99532c8c27" y="180.336053"/>
     <use style="fill:#008fd5;fill-opacity:0.5;stroke:#008fd5;stroke-opacity:0.5;" x="430.26667" xlink:href="#m99532c8c27" y="168.853152"/>
     <use style="fill:#008fd5;fill-opacity:0.5;stroke:#008fd5;stroke-opacity:0.5;" x="330.821159" xlink:href="#m99532c8c27" y="197.560403"/>
     <use style="fill:#008fd5;fill-opacity:0.5;stroke:#008fd5;stroke-opacity:0.5;" x="475.038674" xlink:href="#m99532c8c27" y="232.009105"/>
     <use style="fill:#008fd5;fill-opacity:0.5;stroke:#008fd5;stroke-opacity:0.5;" x="395.826666" xlink:href="#m99532c8c27" y="151.628801"/>
     <use style="fill:#008fd5;fill-opacity:0.5;stroke:#008fd5;stroke-opacity:0.5;" x="351.915662" xlink:href="#m99532c8c27" y="163.111702"/>
     <use style="fill:#008fd5;fill-opacity:0.5;stroke:#008fd5;stroke-opacity:0.5;" x="342.875161" xlink:href="#m99532c8c27" y="214.784754"/>
     <use style="fill:#008fd5;fill-opacity:0.5;stroke:#008fd5;stroke-opacity:0.5;" x="397.118166" xlink:href="#m99532c8c27" y="148.758076"/>
     <use style="fill:#008fd5;fill-opacity:0.5;stroke:#008fd5;stroke-opacity:0.5;" x="488.814675" xlink:href="#m99532c8c27" y="197.560403"/>
     <use style="fill:#008fd5;fill-opacity:0.5;stroke:#008fd5;stroke-opacity:0.5;" x="458.679672" xlink:href="#m99532c8c27" y="140.145901"/>
     <use style="fill:#008fd5;fill-opacity:0.5;stroke:#008fd5;stroke-opacity:0.5;" x="487.953675" xlink:href="#m99532c8c27" y="117.1801"/>
     <use style="fill:#008fd5;fill-opacity:0.5;stroke:#008fd5;stroke-opacity:0.5;" x="376.454164" xlink:href="#m99532c8c27" y="163.111702"/>
     <use style="fill:#008fd5;fill-opacity:0.5;stroke:#008fd5;stroke-opacity:0.5;" x="249.887151" xlink:href="#m99532c8c27" y="168.853152"/>
     <use style="fill:#008fd5;fill-opacity:0.5;stroke:#008fd5;stroke-opacity:0.5;" x="361.705193" xlink:href="#m99532c8c27" y="223.39693"/>
     <use style="fill:#008fd5;fill-opacity:0.5;stroke:#008fd5;stroke-opacity:0.5;" x="420.795669" xlink:href="#m99532c8c27" y="122.92155"/>
     <use style="fill:#008fd5;fill-opacity:0.5;stroke:#008fd5;stroke-opacity:0.5;" x="346.319161" xlink:href="#m99532c8c27" y="134.404451"/>
     <use style="fill:#008fd5;fill-opacity:0.5;stroke:#008fd5;stroke-opacity:0.5;" x="290.55496" xlink:href="#m99532c8c27" y="163.292535"/>
     <use style="fill:#008fd5;fill-opacity:0.5;stroke:#008fd5;stroke-opacity:0.5;" x="368.000778" xlink:href="#m99532c8c27" y="134.359242"/>
     <use style="fill:#008fd5;fill-opacity:0.5;stroke:#008fd5;stroke-opacity:0.5;" x="524.976679" xlink:href="#m99532c8c27" y="94.214299"/>
     <use style="fill:#008fd5;fill-opacity:0.5;stroke:#008fd5;stroke-opacity:0.5;" x="363.108663" xlink:href="#m99532c8c27" y="186.077503"/>
     <use style="fill:#008fd5;fill-opacity:0.5;stroke:#008fd5;stroke-opacity:0.5;" x="314.462158" xlink:href="#m99532c8c27" y="137.275176"/>
     <use style="fill:#008fd5;fill-opacity:0.5;stroke:#008fd5;stroke-opacity:0.5;" x="368.705163" xlink:href="#m99532c8c27" y="163.111702"/>
     <use style="fill:#008fd5;fill-opacity:0.5;stroke:#008fd5;stroke-opacity:0.5;" x="510.339678" xlink:href="#m99532c8c27" y="111.43865"/>
     <use style="fill:#008fd5;fill-opacity:0.5;stroke:#008fd5;stroke-opacity:0.5;" x="294.228656" xlink:href="#m99532c8c27" y="193.196901"/>
     <use style="fill:#008fd5;fill-opacity:0.5;stroke:#008fd5;stroke-opacity:0.5;" x="360.525662" xlink:href="#m99532c8c27" y="177.465328"/>
     <use style="fill:#008fd5;fill-opacity:0.5;stroke:#008fd5;stroke-opacity:0.5;" x="255.483652" xlink:href="#m99532c8c27" y="191.818953"/>
     <use style="fill:#008fd5;fill-opacity:0.5;stroke:#008fd5;stroke-opacity:0.5;" x="382.050665" xlink:href="#m99532c8c27" y="168.853152"/>
     <use style="fill:#008fd5;fill-opacity:0.5;stroke:#008fd5;stroke-opacity:0.5;" x="288.632155" xlink:href="#m99532c8c27" y="200.431129"/>
     <use style="fill:#008fd5;fill-opacity:0.5;stroke:#008fd5;stroke-opacity:0.5;" x="380.328664" xlink:href="#m99532c8c27" y="163.111702"/>
     <use style="fill:#008fd5;fill-opacity:0.5;stroke:#008fd5;stroke-opacity:0.5;" x="379.037164" xlink:href="#m99532c8c27" y="157.370252"/>
     <use style="fill:#008fd5;fill-opacity:0.5;stroke:#008fd5;stroke-opacity:0.5;" x="437.58517" xlink:href="#m99532c8c27" y="137.275176"/>
     <use style="fill:#008fd5;fill-opacity:0.5;stroke:#008fd5;stroke-opacity:0.5;" x="308.865657" xlink:href="#m99532c8c27" y="203.301854"/>
     <use style="fill:#008fd5;fill-opacity:0.5;stroke:#008fd5;stroke-opacity:0.5;" x="333.83466" xlink:href="#m99532c8c27" y="157.370252"/>
     <use style="fill:#008fd5;fill-opacity:0.5;stroke:#008fd5;stroke-opacity:0.5;" x="330.390659" xlink:href="#m99532c8c27" y="174.594602"/>
     <use style="fill:#008fd5;fill-opacity:0.5;stroke:#008fd5;stroke-opacity:0.5;" x="424.670169" xlink:href="#m99532c8c27" y="128.663"/>
     <use style="fill:#008fd5;fill-opacity:0.5;stroke:#008fd5;stroke-opacity:0.5;" x="230.514649" xlink:href="#m99532c8c27" y="217.655479"/>
     <use style="fill:#008fd5;fill-opacity:0.5;stroke:#008fd5;stroke-opacity:0.5;" x="502.590677" xlink:href="#m99532c8c27" y="128.663"/>
     <use style="fill:#008fd5;fill-opacity:0.5;stroke:#008fd5;stroke-opacity:0.5;" x="531.43418" xlink:href="#m99532c8c27" y="157.370252"/>
     <use style="fill:#008fd5;fill-opacity:0.5;stroke:#008fd5;stroke-opacity:0.5;" x="508.187177" xlink:href="#m99532c8c27" y="145.887351"/>
    </g>
   </g>
   <g id="PolyCollection_1">
    <defs>
     <path d="M 90.10696 -102.088579 
L 90.10696 -89.495576 
L 105.292415 -93.915758 
L 120.477869 -98.261369 
L 135.663324 -102.690519 
L 150.848778 -107.12498 
L 166.034233 -111.481008 
L 181.219688 -115.704314 
L 196.405142 -120.296331 
L 211.590597 -124.605313 
L 226.776051 -128.644781 
L 241.961506 -132.96825 
L 257.14696 -137.412161 
L 272.332415 -141.713004 
L 287.517869 -145.787032 
L 302.703324 -150.119468 
L 317.888778 -154.64202 
L 333.074233 -158.873121 
L 348.259687 -163.125744 
L 363.445142 -167.44059 
L 378.630597 -171.465572 
L 393.816051 -175.591682 
L 409.001506 -179.671574 
L 424.18696 -183.900674 
L 439.372415 -187.878334 
L 454.557869 -191.827505 
L 469.743324 -195.890289 
L 484.928778 -199.835458 
L 500.114233 -203.610379 
L 515.299688 -207.391922 
L 530.485142 -211.433529 
L 545.670597 -214.975772 
L 560.856051 -218.880518 
L 576.041506 -222.762224 
L 591.22696 -226.118146 
L 606.412415 -229.987641 
L 621.597869 -233.878935 
L 636.783324 -237.672206 
L 651.968778 -241.38587 
L 667.154233 -245.703406 
L 682.339688 -249.567659 
L 697.525142 -253.325541 
L 712.710597 -257.079216 
L 727.896051 -260.864208 
L 743.081506 -264.606983 
L 758.26696 -268.826564 
L 773.452415 -272.598312 
L 773.452415 -288.4528 
L 773.452415 -288.4528 
L 758.26696 -284.085666 
L 743.081506 -279.267249 
L 727.896051 -274.896183 
L 712.710597 -270.533532 
L 697.525142 -266.177849 
L 682.339688 -261.822097 
L 667.154233 -257.363216 
L 651.968778 -252.440222 
L 636.783324 -248.056946 
L 621.597869 -243.722509 
L 606.412415 -239.308881 
L 591.22696 -234.959199 
L 576.041506 -231.130334 
L 560.856051 -226.618268 
L 545.670597 -222.237544 
L 530.485142 -218.200559 
L 515.299688 -213.666211 
L 500.114233 -209.356815 
L 484.928778 -205.114746 
L 469.743324 -200.803074 
L 454.557869 -196.444148 
L 439.372415 -192.219393 
L 424.18696 -188.049135 
L 409.001506 -183.689588 
L 393.816051 -179.503671 
L 378.630597 -175.418674 
L 363.445142 -171.491716 
L 348.259687 -167.467976 
L 333.074233 -163.533499 
L 317.888778 -159.657864 
L 302.703324 -155.46084 
L 287.517869 -151.515671 
L 272.332415 -147.89465 
L 257.14696 -144.100828 
L 241.961506 -140.178491 
L 226.776051 -136.413573 
L 211.590597 -132.897405 
L 196.405142 -129.157182 
L 181.219688 -125.079774 
L 166.034233 -121.314648 
L 150.848778 -117.482127 
L 135.663324 -113.610286 
L 120.477869 -109.715336 
L 105.292415 -105.909442 
L 90.10696 -102.088579 
z
" id="m9074c95f1c" style="stroke:#008fd5;stroke-opacity:0.2;stroke-width:0.5;"/>
    </defs>
    <g clip-path="url(#p79d2f4a018)">
     <use style="fill:#008fd5;fill-opacity:0.2;stroke:#008fd5;stroke-opacity:0.2;stroke-width:0.5;" x="0" xlink:href="#m9074c95f1c" y="342.166562"/>
    </g>
   </g>
   <g id="PolyCollection_2">
    <defs>
     <path d="M 90.10696 -136.146749 
L 90.10696 -56.621108 
L 105.292415 -66.543287 
L 120.477869 -64.761404 
L 135.663324 -73.710277 
L 150.848778 -76.339677 
L 166.034233 -78.23883 
L 181.219688 -82.976468 
L 196.405142 -86.711862 
L 211.590597 -90.979593 
L 226.776051 -95.69971 
L 241.961506 -100.27931 
L 257.14696 -102.797097 
L 272.332415 -106.935416 
L 287.517869 -110.898038 
L 302.703324 -115.481846 
L 317.888778 -121.830843 
L 333.074233 -123.941979 
L 348.259687 -130.18226 
L 363.445142 -131.240104 
L 378.630597 -135.222179 
L 393.816051 -142.253411 
L 409.001506 -145.982804 
L 424.18696 -151.422338 
L 439.372415 -153.715449 
L 454.557869 -155.454839 
L 469.743324 -160.283396 
L 484.928778 -167.948645 
L 500.114233 -168.706347 
L 515.299688 -172.386693 
L 530.485142 -178.229153 
L 545.670597 -183.074818 
L 560.856051 -182.231095 
L 576.041506 -188.917347 
L 591.22696 -193.829855 
L 606.412415 -197.91906 
L 621.597869 -202.149057 
L 636.783324 -206.199907 
L 651.968778 -210.295872 
L 667.154233 -212.575739 
L 682.339688 -217.554884 
L 697.525142 -222.387373 
L 712.710597 -224.574252 
L 727.896051 -230.512666 
L 743.081506 -233.678473 
L 758.26696 -237.445599 
L 773.452415 -242.202276 
L 773.452415 -321.712017 
L 773.452415 -321.712017 
L 758.26696 -310.857576 
L 743.081506 -310.670634 
L 727.896051 -305.314431 
L 712.710597 -302.292935 
L 697.525142 -298.355009 
L 682.339688 -292.499856 
L 667.154233 -289.006246 
L 651.968778 -285.917147 
L 636.783324 -278.74726 
L 621.597869 -275.317596 
L 606.412415 -268.948525 
L 591.22696 -266.566565 
L 576.041506 -262.74039 
L 560.856051 -261.0288 
L 545.670597 -255.99571 
L 530.485142 -252.779339 
L 515.299688 -247.315455 
L 500.114233 -245.518464 
L 484.928778 -239.674418 
L 469.743324 -233.733866 
L 454.557869 -229.355418 
L 439.372415 -226.890886 
L 424.18696 -221.184114 
L 409.001506 -217.401605 
L 393.816051 -216.816497 
L 378.630597 -210.080233 
L 363.445142 -204.488869 
L 348.259687 -201.362107 
L 333.074233 -197.731083 
L 317.888778 -192.982683 
L 302.703324 -190.287681 
L 287.517869 -184.929822 
L 272.332415 -182.009386 
L 257.14696 -180.508675 
L 241.961506 -172.348546 
L 226.776051 -169.490814 
L 211.590597 -165.614007 
L 196.405142 -159.849842 
L 181.219688 -156.765848 
L 166.034233 -154.89284 
L 150.848778 -148.495486 
L 135.663324 -145.303121 
L 120.477869 -141.824065 
L 105.292415 -137.889588 
L 90.10696 -136.146749 
z
" id="m3256633926" style="stroke:#008fd5;stroke-opacity:0.15;stroke-width:0.5;"/>
    </defs>
    <g clip-path="url(#p79d2f4a018)">
     <use style="fill:#008fd5;fill-opacity:0.15;stroke:#008fd5;stroke-opacity:0.15;stroke-width:0.5;" x="0" xlink:href="#m3256633926" y="342.166562"/>
    </g>
   </g>
   <g id="line2d_24">
    <path clip-path="url(#p79d2f4a018)" d="M 90.10696 246.413529 
L 105.292415 242.318944 
L 120.477869 238.224428 
L 135.663324 234.129705 
L 150.848778 230.035189 
L 166.034233 225.940673 
L 181.219688 221.846157 
L 196.405142 217.751434 
L 211.590597 213.656987 
L 226.776051 209.562333 
L 241.961506 205.467748 
L 257.14696 201.373093 
L 272.332415 197.278577 
L 287.517869 193.183992 
L 302.703324 189.089476 
L 317.888778 184.994753 
L 333.074233 180.900237 
L 348.259687 176.805652 
L 363.445142 172.711136 
L 378.630597 168.616482 
L 393.816051 164.521897 
L 409.001506 160.427243 
L 424.18696 156.332865 
L 439.372415 152.238142 
L 454.557869 148.143557 
L 469.743324 144.049041 
L 484.928778 139.954456 
L 500.114233 135.85987 
L 515.299688 131.765354 
L 530.485142 127.6707 
L 545.670597 123.576184 
L 560.856051 119.481461 
L 576.041506 115.386876 
L 591.22696 111.292498 
L 606.412415 107.197844 
L 621.597869 103.103259 
L 636.783324 99.008674 
L 651.968778 94.91402 
L 667.154233 90.819366 
L 682.339688 86.724919 
L 697.525142 82.630196 
L 712.710597 78.535749 
L 727.896051 74.441233 
L 743.081506 70.346578 
L 758.26696 66.251993 
L 773.452415 62.157477 
" style="fill:none;stroke:#008fd5;"/>
   </g>
   <g id="patch_3">
    <path d="M 55.939688 298.8 
L 55.939688 7.2 
" style="fill:none;stroke:#f0f0f0;stroke-linecap:square;stroke-linejoin:miter;stroke-width:3;"/>
   </g>
   <g id="patch_4">
    <path d="M 807.619687 298.8 
L 807.619687 7.2 
" style="fill:none;stroke:#f0f0f0;stroke-linecap:square;stroke-linejoin:miter;stroke-width:3;"/>
   </g>
   <g id="patch_5">
    <path d="M 55.939688 298.8 
L 807.619688 298.8 
" style="fill:none;stroke:#f0f0f0;stroke-linecap:square;stroke-linejoin:miter;stroke-width:3;"/>
   </g>
   <g id="patch_6">
    <path d="M 55.939688 7.2 
L 807.619688 7.2 
" style="fill:none;stroke:#f0f0f0;stroke-linecap:square;stroke-linejoin:miter;stroke-width:3;"/>
   </g>
  </g>
 </g>
 <defs>
  <clipPath id="p79d2f4a018">
   <rect height="291.6" width="751.68" x="55.939688" y="7.2"/>
  </clipPath>
 </defs>
</svg>
