<?xml version="1.0" encoding="utf-8" standalone="no"?>
<!DOCTYPE svg PUBLIC "-//W3C//DTD SVG 1.1//EN"
  "http://www.w3.org/Graphics/SVG/1.1/DTD/svg11.dtd">
<!-- Created with matplotlib (https://matplotlib.org/) -->
<svg height="285.24325pt" version="1.1" viewBox="0 0 372.670313 285.24325" width="372.670313pt" xmlns="http://www.w3.org/2000/svg" xmlns:xlink="http://www.w3.org/1999/xlink">
 <metadata>
  <rdf:RDF xmlns:cc="http://creativecommons.org/ns#" xmlns:dc="http://purl.org/dc/elements/1.1/" xmlns:rdf="http://www.w3.org/1999/02/22-rdf-syntax-ns#">
   <cc:Work>
    <dc:type rdf:resource="http://purl.org/dc/dcmitype/StillImage"/>
    <dc:date>2021-02-17T19:32:52.082542</dc:date>
    <dc:format>image/svg+xml</dc:format>
    <dc:creator>
     <cc:Agent>
      <dc:title>Matplotlib v3.3.3, https://matplotlib.org/</dc:title>
     </cc:Agent>
    </dc:creator>
   </cc:Work>
  </rdf:RDF>
 </metadata>
 <defs>
  <style type="text/css">*{stroke-linecap:butt;stroke-linejoin:round;}</style>
 </defs>
 <g id="figure_1">
  <g id="patch_1">
   <path d="M 0 285.24325 
L 372.670312 285.24325 
L 372.670312 0 
L 0 0 
z
" style="fill:#f0f0f0;"/>
  </g>
  <g id="axes_1">
   <g id="patch_2">
    <path d="M 52.270313 240.48 
L 365.470312 240.48 
L 365.470312 7.2 
L 52.270313 7.2 
z
" style="fill:#f0f0f0;"/>
   </g>
   <g id="matplotlib.axis_1">
    <g id="xtick_1">
     <g id="line2d_1">
      <path clip-path="url(#pbffceaf94e)" d="M 97.505207 240.48 
L 97.505207 7.2 
" style="fill:none;stroke:#cbcbcb;"/>
     </g>
     <g id="line2d_2"/>
     <g id="text_1">
      <!-- −2 -->
      <g transform="translate(87.185675 254.617812)scale(0.14 -0.14)">
       <defs>
        <path d="M 10.59375 35.5 
L 73.1875 35.5 
L 73.1875 27.203125 
L 10.59375 27.203125 
z
" id="DejaVuSans-8722"/>
        <path d="M 19.1875 8.296875 
L 53.609375 8.296875 
L 53.609375 0 
L 7.328125 0 
L 7.328125 8.296875 
Q 12.9375 14.109375 22.625 23.890625 
Q 32.328125 33.6875 34.8125 36.53125 
Q 39.546875 41.84375 41.421875 45.53125 
Q 43.3125 49.21875 43.3125 52.78125 
Q 43.3125 58.59375 39.234375 62.25 
Q 35.15625 65.921875 28.609375 65.921875 
Q 23.96875 65.921875 18.8125 64.3125 
Q 13.671875 62.703125 7.8125 59.421875 
L 7.8125 69.390625 
Q 13.765625 71.78125 18.9375 73 
Q 24.125 74.21875 28.421875 74.21875 
Q 39.75 74.21875 46.484375 68.546875 
Q 53.21875 62.890625 53.21875 53.421875 
Q 53.21875 48.921875 51.53125 44.890625 
Q 49.859375 40.875 45.40625 35.40625 
Q 44.1875 33.984375 37.640625 27.21875 
Q 31.109375 20.453125 19.1875 8.296875 
z
" id="DejaVuSans-50"/>
       </defs>
       <use xlink:href="#DejaVuSans-8722"/>
       <use x="83.789062" xlink:href="#DejaVuSans-50"/>
      </g>
     </g>
    </g>
    <g id="xtick_2">
     <g id="line2d_3">
      <path clip-path="url(#pbffceaf94e)" d="M 145.50704 240.48 
L 145.50704 7.2 
" style="fill:none;stroke:#cbcbcb;"/>
     </g>
     <g id="line2d_4"/>
     <g id="text_2">
      <!-- −1 -->
      <g transform="translate(135.187509 254.617812)scale(0.14 -0.14)">
       <defs>
        <path d="M 12.40625 8.296875 
L 28.515625 8.296875 
L 28.515625 63.921875 
L 10.984375 60.40625 
L 10.984375 69.390625 
L 28.421875 72.90625 
L 38.28125 72.90625 
L 38.28125 8.296875 
L 54.390625 8.296875 
L 54.390625 0 
L 12.40625 0 
z
" id="DejaVuSans-49"/>
       </defs>
       <use xlink:href="#DejaVuSans-8722"/>
       <use x="83.789062" xlink:href="#DejaVuSans-49"/>
      </g>
     </g>
    </g>
    <g id="xtick_3">
     <g id="line2d_5">
      <path clip-path="url(#pbffceaf94e)" d="M 193.508873 240.48 
L 193.508873 7.2 
" style="fill:none;stroke:#cbcbcb;"/>
     </g>
     <g id="line2d_6"/>
     <g id="text_3">
      <!-- 0 -->
      <g transform="translate(189.055123 254.617812)scale(0.14 -0.14)">
       <defs>
        <path d="M 31.78125 66.40625 
Q 24.171875 66.40625 20.328125 58.90625 
Q 16.5 51.421875 16.5 36.375 
Q 16.5 21.390625 20.328125 13.890625 
Q 24.171875 6.390625 31.78125 6.390625 
Q 39.453125 6.390625 43.28125 13.890625 
Q 47.125 21.390625 47.125 36.375 
Q 47.125 51.421875 43.28125 58.90625 
Q 39.453125 66.40625 31.78125 66.40625 
z
M 31.78125 74.21875 
Q 44.046875 74.21875 50.515625 64.515625 
Q 56.984375 54.828125 56.984375 36.375 
Q 56.984375 17.96875 50.515625 8.265625 
Q 44.046875 -1.421875 31.78125 -1.421875 
Q 19.53125 -1.421875 13.0625 8.265625 
Q 6.59375 17.96875 6.59375 36.375 
Q 6.59375 54.828125 13.0625 64.515625 
Q 19.53125 74.21875 31.78125 74.21875 
z
" id="DejaVuSans-48"/>
       </defs>
       <use xlink:href="#DejaVuSans-48"/>
      </g>
     </g>
    </g>
    <g id="xtick_4">
     <g id="line2d_7">
      <path clip-path="url(#pbffceaf94e)" d="M 241.510706 240.48 
L 241.510706 7.2 
" style="fill:none;stroke:#cbcbcb;"/>
     </g>
     <g id="line2d_8"/>
     <g id="text_4">
      <!-- 1 -->
      <g transform="translate(237.056956 254.617812)scale(0.14 -0.14)">
       <use xlink:href="#DejaVuSans-49"/>
      </g>
     </g>
    </g>
    <g id="xtick_5">
     <g id="line2d_9">
      <path clip-path="url(#pbffceaf94e)" d="M 289.512539 240.48 
L 289.512539 7.2 
" style="fill:none;stroke:#cbcbcb;"/>
     </g>
     <g id="line2d_10"/>
     <g id="text_5">
      <!-- 2 -->
      <g transform="translate(285.058789 254.617812)scale(0.14 -0.14)">
       <use xlink:href="#DejaVuSans-50"/>
      </g>
     </g>
    </g>
    <g id="xtick_6">
     <g id="line2d_11">
      <path clip-path="url(#pbffceaf94e)" d="M 337.514373 240.48 
L 337.514373 7.2 
" style="fill:none;stroke:#cbcbcb;"/>
     </g>
     <g id="line2d_12"/>
     <g id="text_6">
      <!-- 3 -->
      <g transform="translate(333.060623 254.617812)scale(0.14 -0.14)">
       <defs>
        <path d="M 40.578125 39.3125 
Q 47.65625 37.796875 51.625 33 
Q 55.609375 28.21875 55.609375 21.1875 
Q 55.609375 10.40625 48.1875 4.484375 
Q 40.765625 -1.421875 27.09375 -1.421875 
Q 22.515625 -1.421875 17.65625 -0.515625 
Q 12.796875 0.390625 7.625 2.203125 
L 7.625 11.71875 
Q 11.71875 9.328125 16.59375 8.109375 
Q 21.484375 6.890625 26.8125 6.890625 
Q 36.078125 6.890625 40.9375 10.546875 
Q 45.796875 14.203125 45.796875 21.1875 
Q 45.796875 27.640625 41.28125 31.265625 
Q 36.765625 34.90625 28.71875 34.90625 
L 20.21875 34.90625 
L 20.21875 43.015625 
L 29.109375 43.015625 
Q 36.375 43.015625 40.234375 45.921875 
Q 44.09375 48.828125 44.09375 54.296875 
Q 44.09375 59.90625 40.109375 62.90625 
Q 36.140625 65.921875 28.71875 65.921875 
Q 24.65625 65.921875 20.015625 65.03125 
Q 15.375 64.15625 9.8125 62.3125 
L 9.8125 71.09375 
Q 15.4375 72.65625 20.34375 73.4375 
Q 25.25 74.21875 29.59375 74.21875 
Q 40.828125 74.21875 47.359375 69.109375 
Q 53.90625 64.015625 53.90625 55.328125 
Q 53.90625 49.265625 50.4375 45.09375 
Q 46.96875 40.921875 40.578125 39.3125 
z
" id="DejaVuSans-51"/>
       </defs>
       <use xlink:href="#DejaVuSans-51"/>
      </g>
     </g>
    </g>
    <g id="text_7">
     <!-- tính thời sự -->
     <g transform="translate(161.468063 274.549375)scale(0.168 -0.168)">
      <defs>
       <path d="M 18.3125 70.21875 
L 18.3125 54.6875 
L 36.8125 54.6875 
L 36.8125 47.703125 
L 18.3125 47.703125 
L 18.3125 18.015625 
Q 18.3125 11.328125 20.140625 9.421875 
Q 21.96875 7.515625 27.59375 7.515625 
L 36.8125 7.515625 
L 36.8125 0 
L 27.59375 0 
Q 17.1875 0 13.234375 3.875 
Q 9.28125 7.765625 9.28125 18.015625 
L 9.28125 47.703125 
L 2.6875 47.703125 
L 2.6875 54.6875 
L 9.28125 54.6875 
L 9.28125 70.21875 
z
" id="DejaVuSans-116"/>
       <path d="M 20.703125 79.984375 
L 30.421875 79.984375 
L 14.5 61.625 
L 7.03125 61.625 
z
M 9.421875 54.6875 
L 18.40625 54.6875 
L 18.40625 0 
L 9.421875 0 
z
M 13.921875 56 
z
" id="DejaVuSans-237"/>
       <path d="M 54.890625 33.015625 
L 54.890625 0 
L 45.90625 0 
L 45.90625 32.71875 
Q 45.90625 40.484375 42.875 44.328125 
Q 39.84375 48.1875 33.796875 48.1875 
Q 26.515625 48.1875 22.3125 43.546875 
Q 18.109375 38.921875 18.109375 30.90625 
L 18.109375 0 
L 9.078125 0 
L 9.078125 54.6875 
L 18.109375 54.6875 
L 18.109375 46.1875 
Q 21.34375 51.125 25.703125 53.5625 
Q 30.078125 56 35.796875 56 
Q 45.21875 56 50.046875 50.171875 
Q 54.890625 44.34375 54.890625 33.015625 
z
" id="DejaVuSans-110"/>
       <path d="M 54.890625 33.015625 
L 54.890625 0 
L 45.90625 0 
L 45.90625 32.71875 
Q 45.90625 40.484375 42.875 44.328125 
Q 39.84375 48.1875 33.796875 48.1875 
Q 26.515625 48.1875 22.3125 43.546875 
Q 18.109375 38.921875 18.109375 30.90625 
L 18.109375 0 
L 9.078125 0 
L 9.078125 75.984375 
L 18.109375 75.984375 
L 18.109375 46.1875 
Q 21.34375 51.125 25.703125 53.5625 
Q 30.078125 56 35.796875 56 
Q 45.21875 56 50.046875 50.171875 
Q 54.890625 44.34375 54.890625 33.015625 
z
" id="DejaVuSans-104"/>
       <path id="DejaVuSans-32"/>
       <path d="M 23.53125 79.984375 
L 37.3125 61.71875 
L 29.828125 61.71875 
L 13.921875 79.984375 
z
M 41.015625 48.53125 
L 41.015625 54.34375 
Q 44 52.140625 46.140625 51.09375 
Q 48.296875 50.046875 49.8125 50.046875 
Q 52.046875 50.046875 53.171875 51.390625 
Q 54.296875 52.734375 54.296875 55.359375 
Q 54.296875 56.921875 53.921875 58.4375 
Q 53.5625 59.953125 52.828125 61.46875 
L 59.328125 61.46875 
Q 59.8125 59.609375 60.046875 57.953125 
Q 60.296875 56.296875 60.296875 54.828125 
Q 60.296875 48.875 58.171875 46.0625 
Q 56.0625 43.25 51.515625 43.25 
Q 49.171875 43.25 46.609375 44.546875 
Q 44.046875 45.84375 41.015625 48.53125 
z
M 30.859375 48.390625 
Q 23.640625 48.390625 19.4375 42.75 
Q 15.234375 37.109375 15.234375 27.296875 
Q 15.234375 17.484375 19.40625 11.84375 
Q 23.578125 6.203125 30.859375 6.203125 
Q 38.03125 6.203125 42.234375 11.859375 
Q 46.4375 17.53125 46.4375 27.296875 
Q 46.4375 37.015625 42.234375 42.703125 
Q 38.03125 48.390625 30.859375 48.390625 
z
M 30.859375 56 
Q 42.578125 56 49.265625 48.375 
Q 55.953125 40.765625 55.953125 27.296875 
Q 55.953125 13.875 49.265625 6.21875 
Q 42.578125 -1.421875 30.859375 -1.421875 
Q 19.09375 -1.421875 12.421875 6.21875 
Q 5.765625 13.875 5.765625 27.296875 
Q 5.765625 40.765625 12.421875 48.375 
Q 19.09375 56 30.859375 56 
z
" id="DejaVuSans-7901"/>
       <path d="M 9.421875 54.6875 
L 18.40625 54.6875 
L 18.40625 0 
L 9.421875 0 
z
M 9.421875 75.984375 
L 18.40625 75.984375 
L 18.40625 64.59375 
L 9.421875 64.59375 
z
" id="DejaVuSans-105"/>
       <path d="M 44.28125 53.078125 
L 44.28125 44.578125 
Q 40.484375 46.53125 36.375 47.5 
Q 32.28125 48.484375 27.875 48.484375 
Q 21.1875 48.484375 17.84375 46.4375 
Q 14.5 44.390625 14.5 40.28125 
Q 14.5 37.15625 16.890625 35.375 
Q 19.28125 33.59375 26.515625 31.984375 
L 29.59375 31.296875 
Q 39.15625 29.25 43.1875 25.515625 
Q 47.21875 21.78125 47.21875 15.09375 
Q 47.21875 7.46875 41.1875 3.015625 
Q 35.15625 -1.421875 24.609375 -1.421875 
Q 20.21875 -1.421875 15.453125 -0.5625 
Q 10.6875 0.296875 5.421875 2 
L 5.421875 11.28125 
Q 10.40625 8.6875 15.234375 7.390625 
Q 20.0625 6.109375 24.8125 6.109375 
Q 31.15625 6.109375 34.5625 8.28125 
Q 37.984375 10.453125 37.984375 14.40625 
Q 37.984375 18.0625 35.515625 20.015625 
Q 33.0625 21.96875 24.703125 23.78125 
L 21.578125 24.515625 
Q 13.234375 26.265625 9.515625 29.90625 
Q 5.8125 33.546875 5.8125 39.890625 
Q 5.8125 47.609375 11.28125 51.796875 
Q 16.75 56 26.8125 56 
Q 31.78125 56 36.171875 55.265625 
Q 40.578125 54.546875 44.28125 53.078125 
z
" id="DejaVuSans-115"/>
       <path d="M 48.34375 48.53125 
L 48.34375 54.34375 
Q 51.3125 52.140625 53.453125 51.09375 
Q 55.609375 50.046875 57.125 50.046875 
Q 59.375 50.046875 60.5 51.390625 
Q 61.625 52.734375 61.625 55.359375 
Q 61.625 56.921875 61.25 58.4375 
Q 60.890625 59.953125 60.15625 61.46875 
L 66.65625 61.46875 
Q 67.140625 59.609375 67.375 57.953125 
Q 67.625 56.296875 67.625 54.828125 
Q 67.625 48.875 65.5 46.0625 
Q 63.375 43.25 58.84375 43.25 
Q 56.5 43.25 53.9375 44.546875 
Q 51.375 45.84375 48.34375 48.53125 
z
M 8.59375 21.578125 
L 8.59375 54.6875 
L 17.578125 54.6875 
L 17.578125 21.921875 
Q 17.578125 14.15625 20.609375 10.265625 
Q 23.640625 6.390625 29.6875 6.390625 
Q 36.96875 6.390625 41.1875 11.03125 
Q 45.40625 15.671875 45.40625 23.6875 
L 45.40625 54.6875 
L 54.390625 54.6875 
L 54.390625 0 
L 45.40625 0 
L 45.40625 8.40625 
Q 42.140625 3.421875 37.8125 1 
Q 33.5 -1.421875 27.78125 -1.421875 
Q 18.359375 -1.421875 13.46875 4.4375 
Q 8.59375 10.296875 8.59375 21.578125 
z
M 31.203125 56 
z
M 26.421875 -6.890625 
L 35.40625 -6.890625 
L 35.40625 -18.3125 
L 26.421875 -18.3125 
z
" id="DejaVuSans-7921"/>
      </defs>
      <use xlink:href="#DejaVuSans-116"/>
      <use x="39.208984" xlink:href="#DejaVuSans-237"/>
      <use x="66.992188" xlink:href="#DejaVuSans-110"/>
      <use x="130.371094" xlink:href="#DejaVuSans-104"/>
      <use x="193.75" xlink:href="#DejaVuSans-32"/>
      <use x="225.537109" xlink:href="#DejaVuSans-116"/>
      <use x="264.746094" xlink:href="#DejaVuSans-104"/>
      <use x="328.125" xlink:href="#DejaVuSans-7901"/>
      <use x="389.306641" xlink:href="#DejaVuSans-105"/>
      <use x="417.089844" xlink:href="#DejaVuSans-32"/>
      <use x="448.876953" xlink:href="#DejaVuSans-115"/>
      <use x="500.976562" xlink:href="#DejaVuSans-7921"/>
     </g>
    </g>
   </g>
   <g id="matplotlib.axis_2">
    <g id="ytick_1">
     <g id="line2d_13">
      <path clip-path="url(#pbffceaf94e)" d="M 52.270313 204.471198 
L 365.470312 204.471198 
" style="fill:none;stroke:#cbcbcb;"/>
     </g>
     <g id="line2d_14"/>
     <g id="text_8">
      <!-- −2 -->
      <g transform="translate(28.13125 209.790104)scale(0.14 -0.14)">
       <use xlink:href="#DejaVuSans-8722"/>
       <use x="83.789062" xlink:href="#DejaVuSans-50"/>
      </g>
     </g>
    </g>
    <g id="ytick_2">
     <g id="line2d_15">
      <path clip-path="url(#pbffceaf94e)" d="M 52.270313 166.880835 
L 365.470312 166.880835 
" style="fill:none;stroke:#cbcbcb;"/>
     </g>
     <g id="line2d_16"/>
     <g id="text_9">
      <!-- −1 -->
      <g transform="translate(28.13125 172.199741)scale(0.14 -0.14)">
       <use xlink:href="#DejaVuSans-8722"/>
       <use x="83.789062" xlink:href="#DejaVuSans-49"/>
      </g>
     </g>
    </g>
    <g id="ytick_3">
     <g id="line2d_17">
      <path clip-path="url(#pbffceaf94e)" d="M 52.270313 129.290472 
L 365.470312 129.290472 
" style="fill:none;stroke:#cbcbcb;"/>
     </g>
     <g id="line2d_18"/>
     <g id="text_10">
      <!-- 0 -->
      <g transform="translate(39.862813 134.609378)scale(0.14 -0.14)">
       <use xlink:href="#DejaVuSans-48"/>
      </g>
     </g>
    </g>
    <g id="ytick_4">
     <g id="line2d_19">
      <path clip-path="url(#pbffceaf94e)" d="M 52.270313 91.700109 
L 365.470312 91.700109 
" style="fill:none;stroke:#cbcbcb;"/>
     </g>
     <g id="line2d_20"/>
     <g id="text_11">
      <!-- 1 -->
      <g transform="translate(39.862813 97.019015)scale(0.14 -0.14)">
       <use xlink:href="#DejaVuSans-49"/>
      </g>
     </g>
    </g>
    <g id="ytick_5">
     <g id="line2d_21">
      <path clip-path="url(#pbffceaf94e)" d="M 52.270313 54.109746 
L 365.470312 54.109746 
" style="fill:none;stroke:#cbcbcb;"/>
     </g>
     <g id="line2d_22"/>
     <g id="text_12">
      <!-- 2 -->
      <g transform="translate(39.862813 59.428652)scale(0.14 -0.14)">
       <use xlink:href="#DejaVuSans-50"/>
      </g>
     </g>
    </g>
    <g id="ytick_6">
     <g id="line2d_23">
      <path clip-path="url(#pbffceaf94e)" d="M 52.270313 16.519383 
L 365.470312 16.519383 
" style="fill:none;stroke:#cbcbcb;"/>
     </g>
     <g id="line2d_24"/>
     <g id="text_13">
      <!-- 3 -->
      <g transform="translate(39.862813 21.838289)scale(0.14 -0.14)">
       <use xlink:href="#DejaVuSans-51"/>
      </g>
     </g>
    </g>
    <g id="text_14">
     <!-- tính tin cậy -->
     <g transform="translate(20.637375 171.141187)rotate(-90)scale(0.168 -0.168)">
      <defs>
       <path d="M 48.78125 52.59375 
L 48.78125 44.1875 
Q 44.96875 46.296875 41.140625 47.34375 
Q 37.3125 48.390625 33.40625 48.390625 
Q 24.65625 48.390625 19.8125 42.84375 
Q 14.984375 37.3125 14.984375 27.296875 
Q 14.984375 17.28125 19.8125 11.734375 
Q 24.65625 6.203125 33.40625 6.203125 
Q 37.3125 6.203125 41.140625 7.25 
Q 44.96875 8.296875 48.78125 10.40625 
L 48.78125 2.09375 
Q 45.015625 0.34375 40.984375 -0.53125 
Q 36.96875 -1.421875 32.421875 -1.421875 
Q 20.0625 -1.421875 12.78125 6.34375 
Q 5.515625 14.109375 5.515625 27.296875 
Q 5.515625 40.671875 12.859375 48.328125 
Q 20.21875 56 33.015625 56 
Q 37.15625 56 41.109375 55.140625 
Q 45.0625 54.296875 48.78125 52.59375 
z
" id="DejaVuSans-99"/>
       <path d="M 34.28125 27.484375 
Q 23.390625 27.484375 19.1875 25 
Q 14.984375 22.515625 14.984375 16.5 
Q 14.984375 11.71875 18.140625 8.90625 
Q 21.296875 6.109375 26.703125 6.109375 
Q 34.1875 6.109375 38.703125 11.40625 
Q 43.21875 16.703125 43.21875 25.484375 
L 43.21875 27.484375 
z
M 52.203125 31.203125 
L 52.203125 0 
L 43.21875 0 
L 43.21875 8.296875 
Q 40.140625 3.328125 35.546875 0.953125 
Q 30.953125 -1.421875 24.3125 -1.421875 
Q 15.921875 -1.421875 10.953125 3.296875 
Q 6 8.015625 6 15.921875 
Q 6 25.140625 12.171875 29.828125 
Q 18.359375 34.515625 30.609375 34.515625 
L 43.21875 34.515625 
L 43.21875 35.40625 
Q 43.21875 41.609375 39.140625 45 
Q 35.0625 48.390625 27.6875 48.390625 
Q 23 48.390625 18.546875 47.265625 
Q 14.109375 46.140625 10.015625 43.890625 
L 10.015625 52.203125 
Q 14.9375 54.109375 19.578125 55.046875 
Q 24.21875 56 28.609375 56 
Q 40.484375 56 46.34375 49.84375 
Q 52.203125 43.703125 52.203125 31.203125 
z
M 25.390625 79.984375 
L 32.625 79.984375 
L 44.578125 61.625 
L 37.796875 61.625 
L 29 73.578125 
L 20.21875 61.625 
L 13.421875 61.625 
z
M 22.078125 -6.890625 
L 31.0625 -6.890625 
L 31.0625 -18.3125 
L 22.078125 -18.3125 
z
" id="DejaVuSans-7853"/>
       <path d="M 32.171875 -5.078125 
Q 28.375 -14.84375 24.75 -17.8125 
Q 21.140625 -20.796875 15.09375 -20.796875 
L 7.90625 -20.796875 
L 7.90625 -13.28125 
L 13.1875 -13.28125 
Q 16.890625 -13.28125 18.9375 -11.515625 
Q 21 -9.765625 23.484375 -3.21875 
L 25.09375 0.875 
L 2.984375 54.6875 
L 12.5 54.6875 
L 29.59375 11.921875 
L 46.6875 54.6875 
L 56.203125 54.6875 
z
" id="DejaVuSans-121"/>
      </defs>
      <use xlink:href="#DejaVuSans-116"/>
      <use x="39.208984" xlink:href="#DejaVuSans-237"/>
      <use x="66.992188" xlink:href="#DejaVuSans-110"/>
      <use x="130.371094" xlink:href="#DejaVuSans-104"/>
      <use x="193.75" xlink:href="#DejaVuSans-32"/>
      <use x="225.537109" xlink:href="#DejaVuSans-116"/>
      <use x="264.746094" xlink:href="#DejaVuSans-105"/>
      <use x="292.529297" xlink:href="#DejaVuSans-110"/>
      <use x="355.908203" xlink:href="#DejaVuSans-32"/>
      <use x="387.695312" xlink:href="#DejaVuSans-99"/>
      <use x="442.675781" xlink:href="#DejaVuSans-7853"/>
      <use x="503.955078" xlink:href="#DejaVuSans-121"/>
     </g>
    </g>
   </g>
   <g id="PathCollection_1">
    <defs>
     <path d="M 0 3 
C 0.795609 3 1.55874 2.683901 2.12132 2.12132 
C 2.683901 1.55874 3 0.795609 3 0 
C 3 -0.795609 2.683901 -1.55874 2.12132 -2.12132 
C 1.55874 -2.683901 0.795609 -3 0 -3 
C -0.795609 -3 -1.55874 -2.683901 -2.12132 -2.12132 
C -2.683901 -1.55874 -3 -0.795609 -3 0 
C -3 0.795609 -2.683901 1.55874 -2.12132 2.12132 
C -1.55874 2.683901 -0.795609 3 0 3 
z
" id="mb59f54fab5" style="stroke:#008fd5;stroke-width:0.5;"/>
    </defs>
    <g clip-path="url(#pbffceaf94e)">
     <use style="fill:#008fd5;stroke:#008fd5;stroke-width:0.5;" x="178.528226" xlink:href="#mb59f54fab5" y="128.710852"/>
     <use style="fill:#008fd5;stroke:#008fd5;stroke-width:0.5;" x="223.38578" xlink:href="#mb59f54fab5" y="176.332217"/>
     <use style="fill:#008fd5;stroke:#008fd5;stroke-width:0.5;" x="225.709815" xlink:href="#mb59f54fab5" y="202.930934"/>
     <use style="fill:#008fd5;stroke:#008fd5;stroke-width:0.5;" x="232.549955" xlink:href="#mb59f54fab5" y="79.507325"/>
     <use style="fill:#008fd5;stroke:#008fd5;stroke-width:0.5;" x="154.491049" xlink:href="#mb59f54fab5" y="128.061294"/>
     <use style="fill:#008fd5;stroke:#008fd5;stroke-width:0.5;" x="182.880867" xlink:href="#mb59f54fab5" y="227.65345"/>
     <use style="fill:#008fd5;stroke:#008fd5;stroke-width:0.5;" x="264.910957" xlink:href="#mb59f54fab5" y="96.628517"/>
     <use style="fill:#008fd5;stroke:#008fd5;stroke-width:0.5;" x="173.01466" xlink:href="#mb59f54fab5" y="101.452304"/>
     <use style="fill:#008fd5;stroke:#008fd5;stroke-width:0.5;" x="207.228125" xlink:href="#mb59f54fab5" y="169.864047"/>
     <use style="fill:#008fd5;stroke:#008fd5;stroke-width:0.5;" x="127.095328" xlink:href="#mb59f54fab5" y="118.429138"/>
     <use style="fill:#008fd5;stroke:#008fd5;stroke-width:0.5;" x="235.448588" xlink:href="#mb59f54fab5" y="112.940545"/>
     <use style="fill:#008fd5;stroke:#008fd5;stroke-width:0.5;" x="182.752885" xlink:href="#mb59f54fab5" y="177.559466"/>
     <use style="fill:#008fd5;stroke:#008fd5;stroke-width:0.5;" x="197.188923" xlink:href="#mb59f54fab5" y="141.25776"/>
     <use style="fill:#008fd5;stroke:#008fd5;stroke-width:0.5;" x="196.891019" xlink:href="#mb59f54fab5" y="152.081348"/>
     <use style="fill:#008fd5;stroke:#008fd5;stroke-width:0.5;" x="300.392327" xlink:href="#mb59f54fab5" y="154.802961"/>
     <use style="fill:#008fd5;stroke:#008fd5;stroke-width:0.5;" x="218.214341" xlink:href="#mb59f54fab5" y="135.99684"/>
     <use style="fill:#008fd5;stroke:#008fd5;stroke-width:0.5;" x="215.723055" xlink:href="#mb59f54fab5" y="58.672378"/>
     <use style="fill:#008fd5;stroke:#008fd5;stroke-width:0.5;" x="197.160469" xlink:href="#mb59f54fab5" y="123.431267"/>
     <use style="fill:#008fd5;stroke:#008fd5;stroke-width:0.5;" x="190.780157" xlink:href="#mb59f54fab5" y="44.496264"/>
     <use style="fill:#008fd5;stroke:#008fd5;stroke-width:0.5;" x="198.00527" xlink:href="#mb59f54fab5" y="183.150443"/>
     <use style="fill:#008fd5;stroke:#008fd5;stroke-width:0.5;" x="142.90488" xlink:href="#mb59f54fab5" y="189.748073"/>
     <use style="fill:#008fd5;stroke:#008fd5;stroke-width:0.5;" x="210.906314" xlink:href="#mb59f54fab5" y="107.74354"/>
     <use style="fill:#008fd5;stroke:#008fd5;stroke-width:0.5;" x="132.005843" xlink:href="#mb59f54fab5" y="168.310953"/>
     <use style="fill:#008fd5;stroke:#008fd5;stroke-width:0.5;" x="145.576502" xlink:href="#mb59f54fab5" y="73.965707"/>
     <use style="fill:#008fd5;stroke:#008fd5;stroke-width:0.5;" x="191.883864" xlink:href="#mb59f54fab5" y="139.010615"/>
     <use style="fill:#008fd5;stroke:#008fd5;stroke-width:0.5;" x="269.508327" xlink:href="#mb59f54fab5" y="159.889375"/>
     <use style="fill:#008fd5;stroke:#008fd5;stroke-width:0.5;" x="155.910694" xlink:href="#mb59f54fab5" y="82.800465"/>
     <use style="fill:#008fd5;stroke:#008fd5;stroke-width:0.5;" x="312.452331" xlink:href="#mb59f54fab5" y="195.871722"/>
     <use style="fill:#008fd5;stroke:#008fd5;stroke-width:0.5;" x="254.534231" xlink:href="#mb59f54fab5" y="184.25594"/>
     <use style="fill:#008fd5;stroke:#008fd5;stroke-width:0.5;" x="220.072546" xlink:href="#mb59f54fab5" y="165.385088"/>
     <use style="fill:#008fd5;stroke:#008fd5;stroke-width:0.5;" x="75.385187" xlink:href="#mb59f54fab5" y="221.147974"/>
     <use style="fill:#008fd5;stroke:#008fd5;stroke-width:0.5;" x="195.566101" xlink:href="#mb59f54fab5" y="142.318934"/>
     <use style="fill:#008fd5;stroke:#008fd5;stroke-width:0.5;" x="227.863875" xlink:href="#mb59f54fab5" y="135.04129"/>
     <use style="fill:#008fd5;stroke:#008fd5;stroke-width:0.5;" x="135.059587" xlink:href="#mb59f54fab5" y="150.632785"/>
     <use style="fill:#008fd5;stroke:#008fd5;stroke-width:0.5;" x="239.55251" xlink:href="#mb59f54fab5" y="121.050823"/>
     <use style="fill:#008fd5;stroke:#008fd5;stroke-width:0.5;" x="237.833373" xlink:href="#mb59f54fab5" y="152.027471"/>
     <use style="fill:#008fd5;stroke:#008fd5;stroke-width:0.5;" x="94.169767" xlink:href="#mb59f54fab5" y="154.125373"/>
     <use style="fill:#008fd5;stroke:#008fd5;stroke-width:0.5;" x="127.055409" xlink:href="#mb59f54fab5" y="100.319782"/>
     <use style="fill:#008fd5;stroke:#008fd5;stroke-width:0.5;" x="211.838455" xlink:href="#mb59f54fab5" y="154.500194"/>
     <use style="fill:#008fd5;stroke:#008fd5;stroke-width:0.5;" x="158.534084" xlink:href="#mb59f54fab5" y="98.367687"/>
     <use style="fill:#008fd5;stroke:#008fd5;stroke-width:0.5;" x="312.8933" xlink:href="#mb59f54fab5" y="143.418944"/>
     <use style="fill:#008fd5;stroke:#008fd5;stroke-width:0.5;" x="136.626097" xlink:href="#mb59f54fab5" y="189.372627"/>
     <use style="fill:#008fd5;stroke:#008fd5;stroke-width:0.5;" x="220.447569" xlink:href="#mb59f54fab5" y="138.958116"/>
     <use style="fill:#008fd5;stroke:#008fd5;stroke-width:0.5;" x="187.009568" xlink:href="#mb59f54fab5" y="109.801707"/>
     <use style="fill:#008fd5;stroke:#008fd5;stroke-width:0.5;" x="189.979008" xlink:href="#mb59f54fab5" y="170.357087"/>
     <use style="fill:#008fd5;stroke:#008fd5;stroke-width:0.5;" x="118.663131" xlink:href="#mb59f54fab5" y="174.960591"/>
     <use style="fill:#008fd5;stroke:#008fd5;stroke-width:0.5;" x="224.81077" xlink:href="#mb59f54fab5" y="90.277689"/>
     <use style="fill:#008fd5;stroke:#008fd5;stroke-width:0.5;" x="202.37039" xlink:href="#mb59f54fab5" y="105.819508"/>
     <use style="fill:#008fd5;stroke:#008fd5;stroke-width:0.5;" x="239.6192" xlink:href="#mb59f54fab5" y="151.155346"/>
     <use style="fill:#008fd5;stroke:#008fd5;stroke-width:0.5;" x="174.896586" xlink:href="#mb59f54fab5" y="126.384056"/>
     <use style="fill:#008fd5;stroke:#008fd5;stroke-width:0.5;" x="213.376718" xlink:href="#mb59f54fab5" y="82.186278"/>
     <use style="fill:#008fd5;stroke:#008fd5;stroke-width:0.5;" x="283.692974" xlink:href="#mb59f54fab5" y="175.118255"/>
     <use style="fill:#008fd5;stroke:#008fd5;stroke-width:0.5;" x="146.058512" xlink:href="#mb59f54fab5" y="157.856156"/>
     <use style="fill:#008fd5;stroke:#008fd5;stroke-width:0.5;" x="186.091537" xlink:href="#mb59f54fab5" y="164.3352"/>
     <use style="fill:#008fd5;stroke:#008fd5;stroke-width:0.5;" x="250.822719" xlink:href="#mb59f54fab5" y="71.63431"/>
     <use style="fill:#008fd5;stroke:#008fd5;stroke-width:0.5;" x="275.327904" xlink:href="#mb59f54fab5" y="113.7658"/>
     <use style="fill:#008fd5;stroke:#008fd5;stroke-width:0.5;" x="248.202843" xlink:href="#mb59f54fab5" y="143.264488"/>
     <use style="fill:#008fd5;stroke:#008fd5;stroke-width:0.5;" x="235.676866" xlink:href="#mb59f54fab5" y="150.203606"/>
     <use style="fill:#008fd5;stroke:#008fd5;stroke-width:0.5;" x="270.940564" xlink:href="#mb59f54fab5" y="114.849874"/>
     <use style="fill:#008fd5;stroke:#008fd5;stroke-width:0.5;" x="220.56442" xlink:href="#mb59f54fab5" y="82.468969"/>
     <use style="fill:#008fd5;stroke:#008fd5;stroke-width:0.5;" x="284.162245" xlink:href="#mb59f54fab5" y="116.987732"/>
     <use style="fill:#008fd5;stroke:#008fd5;stroke-width:0.5;" x="172.264762" xlink:href="#mb59f54fab5" y="76.76207"/>
     <use style="fill:#008fd5;stroke:#008fd5;stroke-width:0.5;" x="197.353706" xlink:href="#mb59f54fab5" y="127.877967"/>
     <use style="fill:#008fd5;stroke:#008fd5;stroke-width:0.5;" x="228.140418" xlink:href="#mb59f54fab5" y="88.349029"/>
     <use style="fill:#008fd5;stroke:#008fd5;stroke-width:0.5;" x="282.375829" xlink:href="#mb59f54fab5" y="166.536463"/>
     <use style="fill:#008fd5;stroke:#008fd5;stroke-width:0.5;" x="235.785778" xlink:href="#mb59f54fab5" y="141.45255"/>
     <use style="fill:#008fd5;stroke:#008fd5;stroke-width:0.5;" x="247.617547" xlink:href="#mb59f54fab5" y="148.821828"/>
     <use style="fill:#008fd5;stroke:#008fd5;stroke-width:0.5;" x="178.846948" xlink:href="#mb59f54fab5" y="152.950788"/>
     <use style="fill:#008fd5;stroke:#008fd5;stroke-width:0.5;" x="241.510509" xlink:href="#mb59f54fab5" y="123.355078"/>
     <use style="fill:#008fd5;stroke:#008fd5;stroke-width:0.5;" x="246.879066" xlink:href="#mb59f54fab5" y="55.478813"/>
     <use style="fill:#008fd5;stroke:#008fd5;stroke-width:0.5;" x="177.488129" xlink:href="#mb59f54fab5" y="69.960433"/>
     <use style="fill:#008fd5;stroke:#008fd5;stroke-width:0.5;" x="98.047214" xlink:href="#mb59f54fab5" y="129.458219"/>
     <use style="fill:#008fd5;stroke:#008fd5;stroke-width:0.5;" x="204.759417" xlink:href="#mb59f54fab5" y="138.929071"/>
     <use style="fill:#008fd5;stroke:#008fd5;stroke-width:0.5;" x="205.977115" xlink:href="#mb59f54fab5" y="163.822163"/>
     <use style="fill:#008fd5;stroke:#008fd5;stroke-width:0.5;" x="167.553002" xlink:href="#mb59f54fab5" y="195.745928"/>
     <use style="fill:#008fd5;stroke:#008fd5;stroke-width:0.5;" x="269.580147" xlink:href="#mb59f54fab5" y="114.977091"/>
     <use style="fill:#008fd5;stroke:#008fd5;stroke-width:0.5;" x="177.532449" xlink:href="#mb59f54fab5" y="167.583555"/>
     <use style="fill:#008fd5;stroke:#008fd5;stroke-width:0.5;" x="212.592259" xlink:href="#mb59f54fab5" y="165.886114"/>
     <use style="fill:#008fd5;stroke:#008fd5;stroke-width:0.5;" x="130.673082" xlink:href="#mb59f54fab5" y="68.889301"/>
     <use style="fill:#008fd5;stroke:#008fd5;stroke-width:0.5;" x="100.403928" xlink:href="#mb59f54fab5" y="124.457911"/>
     <use style="fill:#008fd5;stroke:#008fd5;stroke-width:0.5;" x="365.470313" xlink:href="#mb59f54fab5" y="81.212029"/>
     <use style="fill:#008fd5;stroke:#008fd5;stroke-width:0.5;" x="174.250229" xlink:href="#mb59f54fab5" y="102.301831"/>
     <use style="fill:#008fd5;stroke:#008fd5;stroke-width:0.5;" x="159.915722" xlink:href="#mb59f54fab5" y="157.183401"/>
     <use style="fill:#008fd5;stroke:#008fd5;stroke-width:0.5;" x="229.953626" xlink:href="#mb59f54fab5" y="127.806318"/>
     <use style="fill:#008fd5;stroke:#008fd5;stroke-width:0.5;" x="257.100512" xlink:href="#mb59f54fab5" y="119.512746"/>
     <use style="fill:#008fd5;stroke:#008fd5;stroke-width:0.5;" x="171.239694" xlink:href="#mb59f54fab5" y="82.012115"/>
     <use style="fill:#008fd5;stroke:#008fd5;stroke-width:0.5;" x="185.760397" xlink:href="#mb59f54fab5" y="147.652378"/>
     <use style="fill:#008fd5;stroke:#008fd5;stroke-width:0.5;" x="174.58" xlink:href="#mb59f54fab5" y="75.007196"/>
     <use style="fill:#008fd5;stroke:#008fd5;stroke-width:0.5;" x="242.000595" xlink:href="#mb59f54fab5" y="171.92396"/>
     <use style="fill:#008fd5;stroke:#008fd5;stroke-width:0.5;" x="180.699789" xlink:href="#mb59f54fab5" y="90.003494"/>
     <use style="fill:#008fd5;stroke:#008fd5;stroke-width:0.5;" x="168.02308" xlink:href="#mb59f54fab5" y="180.976204"/>
     <use style="fill:#008fd5;stroke:#008fd5;stroke-width:0.5;" x="204.013247" xlink:href="#mb59f54fab5" y="166.198602"/>
     <use style="fill:#008fd5;stroke:#008fd5;stroke-width:0.5;" x="185.786727" xlink:href="#mb59f54fab5" y="133.192259"/>
     <use style="fill:#008fd5;stroke:#008fd5;stroke-width:0.5;" x="149.185761" xlink:href="#mb59f54fab5" y="68.077856"/>
     <use style="fill:#008fd5;stroke:#008fd5;stroke-width:0.5;" x="151.197011" xlink:href="#mb59f54fab5" y="135.579427"/>
     <use style="fill:#008fd5;stroke:#008fd5;stroke-width:0.5;" x="287.329753" xlink:href="#mb59f54fab5" y="141.021915"/>
     <use style="fill:#008fd5;stroke:#008fd5;stroke-width:0.5;" x="195.124897" xlink:href="#mb59f54fab5" y="131.027781"/>
     <use style="fill:#008fd5;stroke:#008fd5;stroke-width:0.5;" x="142.972861" xlink:href="#mb59f54fab5" y="138.041252"/>
     <use style="fill:#008fd5;stroke:#008fd5;stroke-width:0.5;" x="155.387662" xlink:href="#mb59f54fab5" y="90.169883"/>
     <use style="fill:#008fd5;stroke:#008fd5;stroke-width:0.5;" x="167.293019" xlink:href="#mb59f54fab5" y="128.27475"/>
     <use style="fill:#008fd5;stroke:#008fd5;stroke-width:0.5;" x="100.15901" xlink:href="#mb59f54fab5" y="36.944429"/>
     <use style="fill:#008fd5;stroke:#008fd5;stroke-width:0.5;" x="165.475342" xlink:href="#mb59f54fab5" y="98.779065"/>
     <use style="fill:#008fd5;stroke:#008fd5;stroke-width:0.5;" x="226.537995" xlink:href="#mb59f54fab5" y="103.284493"/>
     <use style="fill:#008fd5;stroke:#008fd5;stroke-width:0.5;" x="167.233242" xlink:href="#mb59f54fab5" y="184.815323"/>
     <use style="fill:#008fd5;stroke:#008fd5;stroke-width:0.5;" x="184.583065" xlink:href="#mb59f54fab5" y="185.274423"/>
     <use style="fill:#008fd5;stroke:#008fd5;stroke-width:0.5;" x="171.089307" xlink:href="#mb59f54fab5" y="90.560695"/>
     <use style="fill:#008fd5;stroke:#008fd5;stroke-width:0.5;" x="160.736091" xlink:href="#mb59f54fab5" y="155.590242"/>
     <use style="fill:#008fd5;stroke:#008fd5;stroke-width:0.5;" x="143.443517" xlink:href="#mb59f54fab5" y="117.628588"/>
     <use style="fill:#008fd5;stroke:#008fd5;stroke-width:0.5;" x="214.312009" xlink:href="#mb59f54fab5" y="134.132887"/>
     <use style="fill:#008fd5;stroke:#008fd5;stroke-width:0.5;" x="129.932758" xlink:href="#mb59f54fab5" y="98.248579"/>
     <use style="fill:#008fd5;stroke:#008fd5;stroke-width:0.5;" x="94.989585" xlink:href="#mb59f54fab5" y="38.748904"/>
     <use style="fill:#008fd5;stroke:#008fd5;stroke-width:0.5;" x="205.318287" xlink:href="#mb59f54fab5" y="140.71647"/>
     <use style="fill:#008fd5;stroke:#008fd5;stroke-width:0.5;" x="173.792239" xlink:href="#mb59f54fab5" y="118.44729"/>
     <use style="fill:#008fd5;stroke:#008fd5;stroke-width:0.5;" x="282.83607" xlink:href="#mb59f54fab5" y="128.195002"/>
     <use style="fill:#008fd5;stroke:#008fd5;stroke-width:0.5;" x="96.300281" xlink:href="#mb59f54fab5" y="145.537735"/>
     <use style="fill:#008fd5;stroke:#008fd5;stroke-width:0.5;" x="273.700441" xlink:href="#mb59f54fab5" y="176.553898"/>
     <use style="fill:#008fd5;stroke:#008fd5;stroke-width:0.5;" x="295.704854" xlink:href="#mb59f54fab5" y="214.081687"/>
     <use style="fill:#008fd5;stroke:#008fd5;stroke-width:0.5;" x="189.170162" xlink:href="#mb59f54fab5" y="152.715332"/>
     <use style="fill:#008fd5;stroke:#008fd5;stroke-width:0.5;" x="228.236521" xlink:href="#mb59f54fab5" y="139.899716"/>
     <use style="fill:#008fd5;stroke:#008fd5;stroke-width:0.5;" x="182.930545" xlink:href="#mb59f54fab5" y="129.208553"/>
     <use style="fill:#008fd5;stroke:#008fd5;stroke-width:0.5;" x="231.459369" xlink:href="#mb59f54fab5" y="117.402233"/>
     <use style="fill:#008fd5;stroke:#008fd5;stroke-width:0.5;" x="152.505501" xlink:href="#mb59f54fab5" y="175.469857"/>
     <use style="fill:#008fd5;stroke:#008fd5;stroke-width:0.5;" x="255.446886" xlink:href="#mb59f54fab5" y="148.575263"/>
     <use style="fill:#008fd5;stroke:#008fd5;stroke-width:0.5;" x="211.92919" xlink:href="#mb59f54fab5" y="165.048978"/>
     <use style="fill:#008fd5;stroke:#008fd5;stroke-width:0.5;" x="131.493323" xlink:href="#mb59f54fab5" y="101.085036"/>
     <use style="fill:#008fd5;stroke:#008fd5;stroke-width:0.5;" x="102.280276" xlink:href="#mb59f54fab5" y="105.210335"/>
     <use style="fill:#008fd5;stroke:#008fd5;stroke-width:0.5;" x="219.735616" xlink:href="#mb59f54fab5" y="74.470927"/>
     <use style="fill:#008fd5;stroke:#008fd5;stroke-width:0.5;" x="140.74825" xlink:href="#mb59f54fab5" y="96.41773"/>
     <use style="fill:#008fd5;stroke:#008fd5;stroke-width:0.5;" x="204.99553" xlink:href="#mb59f54fab5" y="139.779725"/>
     <use style="fill:#008fd5;stroke:#008fd5;stroke-width:0.5;" x="131.7681" xlink:href="#mb59f54fab5" y="132.180305"/>
     <use style="fill:#008fd5;stroke:#008fd5;stroke-width:0.5;" x="67.184598" xlink:href="#mb59f54fab5" y="144.143836"/>
     <use style="fill:#008fd5;stroke:#008fd5;stroke-width:0.5;" x="164.731505" xlink:href="#mb59f54fab5" y="150.714023"/>
     <use style="fill:#008fd5;stroke:#008fd5;stroke-width:0.5;" x="171.431355" xlink:href="#mb59f54fab5" y="120.417231"/>
     <use style="fill:#008fd5;stroke:#008fd5;stroke-width:0.5;" x="174.066417" xlink:href="#mb59f54fab5" y="180.098971"/>
     <use style="fill:#008fd5;stroke:#008fd5;stroke-width:0.5;" x="147.933286" xlink:href="#mb59f54fab5" y="149.181258"/>
     <use style="fill:#008fd5;stroke:#008fd5;stroke-width:0.5;" x="173.635606" xlink:href="#mb59f54fab5" y="221.980154"/>
     <use style="fill:#008fd5;stroke:#008fd5;stroke-width:0.5;" x="121.067334" xlink:href="#mb59f54fab5" y="110.763611"/>
     <use style="fill:#008fd5;stroke:#008fd5;stroke-width:0.5;" x="156.457629" xlink:href="#mb59f54fab5" y="189.079481"/>
     <use style="fill:#008fd5;stroke:#008fd5;stroke-width:0.5;" x="260.147298" xlink:href="#mb59f54fab5" y="136.278194"/>
     <use style="fill:#008fd5;stroke:#008fd5;stroke-width:0.5;" x="111.930686" xlink:href="#mb59f54fab5" y="125.184887"/>
     <use style="fill:#008fd5;stroke:#008fd5;stroke-width:0.5;" x="286.09082" xlink:href="#mb59f54fab5" y="126.367156"/>
     <use style="fill:#008fd5;stroke:#008fd5;stroke-width:0.5;" x="163.192345" xlink:href="#mb59f54fab5" y="77.919575"/>
     <use style="fill:#008fd5;stroke:#008fd5;stroke-width:0.5;" x="261.260009" xlink:href="#mb59f54fab5" y="95.607635"/>
     <use style="fill:#008fd5;stroke:#008fd5;stroke-width:0.5;" x="137.153587" xlink:href="#mb59f54fab5" y="142.364449"/>
     <use style="fill:#008fd5;stroke:#008fd5;stroke-width:0.5;" x="190.275407" xlink:href="#mb59f54fab5" y="149.703083"/>
     <use style="fill:#008fd5;stroke:#008fd5;stroke-width:0.5;" x="146.438816" xlink:href="#mb59f54fab5" y="68.844006"/>
     <use style="fill:#008fd5;stroke:#008fd5;stroke-width:0.5;" x="168.916961" xlink:href="#mb59f54fab5" y="121.844049"/>
     <use style="fill:#008fd5;stroke:#008fd5;stroke-width:0.5;" x="280.161821" xlink:href="#mb59f54fab5" y="122.648964"/>
     <use style="fill:#008fd5;stroke:#008fd5;stroke-width:0.5;" x="113.407837" xlink:href="#mb59f54fab5" y="111.191925"/>
     <use style="fill:#008fd5;stroke:#008fd5;stroke-width:0.5;" x="275.383811" xlink:href="#mb59f54fab5" y="86.297979"/>
     <use style="fill:#008fd5;stroke:#008fd5;stroke-width:0.5;" x="114.470914" xlink:href="#mb59f54fab5" y="144.833481"/>
     <use style="fill:#008fd5;stroke:#008fd5;stroke-width:0.5;" x="186.304514" xlink:href="#mb59f54fab5" y="172.247125"/>
     <use style="fill:#008fd5;stroke:#008fd5;stroke-width:0.5;" x="185.714182" xlink:href="#mb59f54fab5" y="28.819772"/>
     <use style="fill:#008fd5;stroke:#008fd5;stroke-width:0.5;" x="252.785633" xlink:href="#mb59f54fab5" y="161.59968"/>
     <use style="fill:#008fd5;stroke:#008fd5;stroke-width:0.5;" x="264.470194" xlink:href="#mb59f54fab5" y="91.368883"/>
     <use style="fill:#008fd5;stroke:#008fd5;stroke-width:0.5;" x="246.836904" xlink:href="#mb59f54fab5" y="213.837519"/>
     <use style="fill:#008fd5;stroke:#008fd5;stroke-width:0.5;" x="222.316792" xlink:href="#mb59f54fab5" y="116.874646"/>
     <use style="fill:#008fd5;stroke:#008fd5;stroke-width:0.5;" x="164.472421" xlink:href="#mb59f54fab5" y="149.128554"/>
     <use style="fill:#008fd5;stroke:#008fd5;stroke-width:0.5;" x="162.685675" xlink:href="#mb59f54fab5" y="90.884684"/>
     <use style="fill:#008fd5;stroke:#008fd5;stroke-width:0.5;" x="210.750476" xlink:href="#mb59f54fab5" y="49.780473"/>
     <use style="fill:#008fd5;stroke:#008fd5;stroke-width:0.5;" x="84.524582" xlink:href="#mb59f54fab5" y="96.913718"/>
     <use style="fill:#008fd5;stroke:#008fd5;stroke-width:0.5;" x="212.681549" xlink:href="#mb59f54fab5" y="86.486446"/>
     <use style="fill:#008fd5;stroke:#008fd5;stroke-width:0.5;" x="180.095108" xlink:href="#mb59f54fab5" y="159.416079"/>
     <use style="fill:#008fd5;stroke:#008fd5;stroke-width:0.5;" x="199.007874" xlink:href="#mb59f54fab5" y="160.020878"/>
     <use style="fill:#008fd5;stroke:#008fd5;stroke-width:0.5;" x="179.593787" xlink:href="#mb59f54fab5" y="94.286484"/>
     <use style="fill:#008fd5;stroke:#008fd5;stroke-width:0.5;" x="177.385105" xlink:href="#mb59f54fab5" y="184.512695"/>
     <use style="fill:#008fd5;stroke:#008fd5;stroke-width:0.5;" x="107.944831" xlink:href="#mb59f54fab5" y="103.69206"/>
     <use style="fill:#008fd5;stroke:#008fd5;stroke-width:0.5;" x="232.203274" xlink:href="#mb59f54fab5" y="121.667076"/>
     <use style="fill:#008fd5;stroke:#008fd5;stroke-width:0.5;" x="157.677704" xlink:href="#mb59f54fab5" y="120.760599"/>
     <use style="fill:#008fd5;stroke:#008fd5;stroke-width:0.5;" x="256.592959" xlink:href="#mb59f54fab5" y="180.619171"/>
     <use style="fill:#008fd5;stroke:#008fd5;stroke-width:0.5;" x="212.989577" xlink:href="#mb59f54fab5" y="115.75652"/>
     <use style="fill:#008fd5;stroke:#008fd5;stroke-width:0.5;" x="275.242992" xlink:href="#mb59f54fab5" y="131.701001"/>
     <use style="fill:#008fd5;stroke:#008fd5;stroke-width:0.5;" x="228.455503" xlink:href="#mb59f54fab5" y="170.839161"/>
     <use style="fill:#008fd5;stroke:#008fd5;stroke-width:0.5;" x="176.221655" xlink:href="#mb59f54fab5" y="149.888639"/>
     <use style="fill:#008fd5;stroke:#008fd5;stroke-width:0.5;" x="214.348111" xlink:href="#mb59f54fab5" y="102.888409"/>
     <use style="fill:#008fd5;stroke:#008fd5;stroke-width:0.5;" x="208.103036" xlink:href="#mb59f54fab5" y="184.420859"/>
     <use style="fill:#008fd5;stroke:#008fd5;stroke-width:0.5;" x="190.513567" xlink:href="#mb59f54fab5" y="125.526199"/>
     <use style="fill:#008fd5;stroke:#008fd5;stroke-width:0.5;" x="190.964348" xlink:href="#mb59f54fab5" y="77.728213"/>
     <use style="fill:#008fd5;stroke:#008fd5;stroke-width:0.5;" x="261.779047" xlink:href="#mb59f54fab5" y="79.834443"/>
     <use style="fill:#008fd5;stroke:#008fd5;stroke-width:0.5;" x="242.585565" xlink:href="#mb59f54fab5" y="17.803636"/>
     <use style="fill:#008fd5;stroke:#008fd5;stroke-width:0.5;" x="284.646246" xlink:href="#mb59f54fab5" y="212.78105"/>
     <use style="fill:#008fd5;stroke:#008fd5;stroke-width:0.5;" x="251.293135" xlink:href="#mb59f54fab5" y="133.727279"/>
     <use style="fill:#008fd5;stroke:#008fd5;stroke-width:0.5;" x="217.171754" xlink:href="#mb59f54fab5" y="96.697811"/>
     <use style="fill:#008fd5;stroke:#008fd5;stroke-width:0.5;" x="166.712318" xlink:href="#mb59f54fab5" y="103.064282"/>
     <use style="fill:#008fd5;stroke:#008fd5;stroke-width:0.5;" x="173.170526" xlink:href="#mb59f54fab5" y="119.51386"/>
     <use style="fill:#008fd5;stroke:#008fd5;stroke-width:0.5;" x="204.349657" xlink:href="#mb59f54fab5" y="135.687984"/>
     <use style="fill:#008fd5;stroke:#008fd5;stroke-width:0.5;" x="268.253343" xlink:href="#mb59f54fab5" y="57.400179"/>
     <use style="fill:#008fd5;stroke:#008fd5;stroke-width:0.5;" x="239.172311" xlink:href="#mb59f54fab5" y="125.411339"/>
     <use style="fill:#008fd5;stroke:#008fd5;stroke-width:0.5;" x="106.302879" xlink:href="#mb59f54fab5" y="115.193601"/>
     <use style="fill:#008fd5;stroke:#008fd5;stroke-width:0.5;" x="182.523238" xlink:href="#mb59f54fab5" y="103.895559"/>
     <use style="fill:#008fd5;stroke:#008fd5;stroke-width:0.5;" x="179.696704" xlink:href="#mb59f54fab5" y="166.843418"/>
     <use style="fill:#008fd5;stroke:#008fd5;stroke-width:0.5;" x="215.796326" xlink:href="#mb59f54fab5" y="84.62912"/>
     <use style="fill:#008fd5;stroke:#008fd5;stroke-width:0.5;" x="179.552359" xlink:href="#mb59f54fab5" y="93.5149"/>
     <use style="fill:#008fd5;stroke:#008fd5;stroke-width:0.5;" x="212.243567" xlink:href="#mb59f54fab5" y="229.876364"/>
     <use style="fill:#008fd5;stroke:#008fd5;stroke-width:0.5;" x="151.098625" xlink:href="#mb59f54fab5" y="117.085077"/>
     <use style="fill:#008fd5;stroke:#008fd5;stroke-width:0.5;" x="277.676825" xlink:href="#mb59f54fab5" y="120.70868"/>
     <use style="fill:#008fd5;stroke:#008fd5;stroke-width:0.5;" x="243.935825" xlink:href="#mb59f54fab5" y="135.80883"/>
     <use style="fill:#008fd5;stroke:#008fd5;stroke-width:0.5;" x="260.114869" xlink:href="#mb59f54fab5" y="152.307178"/>
     <use style="fill:#008fd5;stroke:#008fd5;stroke-width:0.5;" x="217.459704" xlink:href="#mb59f54fab5" y="155.029085"/>
     <use style="fill:#008fd5;stroke:#008fd5;stroke-width:0.5;" x="207.554589" xlink:href="#mb59f54fab5" y="133.518014"/>
    </g>
   </g>
   <g id="PathCollection_2">
    <defs>
     <path d="M 0 3 
C 0.795609 3 1.55874 2.683901 2.12132 2.12132 
C 2.683901 1.55874 3 0.795609 3 0 
C 3 -0.795609 2.683901 -1.55874 2.12132 -2.12132 
C 1.55874 -2.683901 0.795609 -3 0 -3 
C -0.795609 -3 -1.55874 -2.683901 -2.12132 -2.12132 
C -2.683901 -1.55874 -3 -0.795609 -3 0 
C -3 0.795609 -2.683901 1.55874 -2.12132 2.12132 
C -1.55874 2.683901 -0.795609 3 0 3 
z
" id="m8ed1111e90" style="stroke:#fc4f30;stroke-opacity:0.8;"/>
    </defs>
    <g clip-path="url(#pbffceaf94e)">
     <use style="fill:#fc4f30;fill-opacity:0.8;stroke:#fc4f30;stroke-opacity:0.8;" x="232.549955" xlink:href="#m8ed1111e90" y="79.507325"/>
     <use style="fill:#fc4f30;fill-opacity:0.8;stroke:#fc4f30;stroke-opacity:0.8;" x="264.910957" xlink:href="#m8ed1111e90" y="96.628517"/>
     <use style="fill:#fc4f30;fill-opacity:0.8;stroke:#fc4f30;stroke-opacity:0.8;" x="215.723055" xlink:href="#m8ed1111e90" y="58.672378"/>
     <use style="fill:#fc4f30;fill-opacity:0.8;stroke:#fc4f30;stroke-opacity:0.8;" x="190.780157" xlink:href="#m8ed1111e90" y="44.496264"/>
     <use style="fill:#fc4f30;fill-opacity:0.8;stroke:#fc4f30;stroke-opacity:0.8;" x="312.8933" xlink:href="#m8ed1111e90" y="143.418944"/>
     <use style="fill:#fc4f30;fill-opacity:0.8;stroke:#fc4f30;stroke-opacity:0.8;" x="250.822719" xlink:href="#m8ed1111e90" y="71.63431"/>
     <use style="fill:#fc4f30;fill-opacity:0.8;stroke:#fc4f30;stroke-opacity:0.8;" x="275.327904" xlink:href="#m8ed1111e90" y="113.7658"/>
     <use style="fill:#fc4f30;fill-opacity:0.8;stroke:#fc4f30;stroke-opacity:0.8;" x="284.162245" xlink:href="#m8ed1111e90" y="116.987732"/>
     <use style="fill:#fc4f30;fill-opacity:0.8;stroke:#fc4f30;stroke-opacity:0.8;" x="246.879066" xlink:href="#m8ed1111e90" y="55.478813"/>
     <use style="fill:#fc4f30;fill-opacity:0.8;stroke:#fc4f30;stroke-opacity:0.8;" x="365.470313" xlink:href="#m8ed1111e90" y="81.212029"/>
     <use style="fill:#fc4f30;fill-opacity:0.8;stroke:#fc4f30;stroke-opacity:0.8;" x="219.735616" xlink:href="#m8ed1111e90" y="74.470927"/>
     <use style="fill:#fc4f30;fill-opacity:0.8;stroke:#fc4f30;stroke-opacity:0.8;" x="286.09082" xlink:href="#m8ed1111e90" y="126.367156"/>
     <use style="fill:#fc4f30;fill-opacity:0.8;stroke:#fc4f30;stroke-opacity:0.8;" x="261.260009" xlink:href="#m8ed1111e90" y="95.607635"/>
     <use style="fill:#fc4f30;fill-opacity:0.8;stroke:#fc4f30;stroke-opacity:0.8;" x="275.383811" xlink:href="#m8ed1111e90" y="86.297979"/>
     <use style="fill:#fc4f30;fill-opacity:0.8;stroke:#fc4f30;stroke-opacity:0.8;" x="185.714182" xlink:href="#m8ed1111e90" y="28.819772"/>
     <use style="fill:#fc4f30;fill-opacity:0.8;stroke:#fc4f30;stroke-opacity:0.8;" x="264.470194" xlink:href="#m8ed1111e90" y="91.368883"/>
     <use style="fill:#fc4f30;fill-opacity:0.8;stroke:#fc4f30;stroke-opacity:0.8;" x="210.750476" xlink:href="#m8ed1111e90" y="49.780473"/>
     <use style="fill:#fc4f30;fill-opacity:0.8;stroke:#fc4f30;stroke-opacity:0.8;" x="261.779047" xlink:href="#m8ed1111e90" y="79.834443"/>
     <use style="fill:#fc4f30;fill-opacity:0.8;stroke:#fc4f30;stroke-opacity:0.8;" x="242.585565" xlink:href="#m8ed1111e90" y="17.803636"/>
     <use style="fill:#fc4f30;fill-opacity:0.8;stroke:#fc4f30;stroke-opacity:0.8;" x="268.253343" xlink:href="#m8ed1111e90" y="57.400179"/>
    </g>
   </g>
   <g id="line2d_25">
    <path clip-path="url(#pbffceaf94e)" d="M 185.714182 43.60999 
L 187.5299 44.513604 
L 189.345619 45.417218 
L 191.161337 46.320832 
L 192.977056 47.224446 
L 194.792774 48.128061 
L 196.608493 49.031675 
L 198.424211 49.935289 
L 200.23993 50.838903 
L 202.055648 51.742517 
L 203.871367 52.646131 
L 205.687085 53.549745 
L 207.502804 54.453359 
L 209.318522 55.356973 
L 211.134241 56.260587 
L 212.949959 57.164201 
L 214.765678 58.067815 
L 216.581396 58.971429 
L 218.397115 59.875044 
L 220.212833 60.778658 
L 222.028552 61.682272 
L 223.84427 62.585886 
L 225.659989 63.4895 
L 227.475707 64.393114 
L 229.291426 65.296728 
L 231.107144 66.200342 
L 232.922863 67.103956 
L 234.738581 68.00757 
L 236.5543 68.911184 
L 238.370018 69.814798 
L 240.185737 70.718413 
L 242.001455 71.622027 
L 243.817174 72.525641 
L 245.632892 73.429255 
L 247.448611 74.332869 
L 249.264329 75.236483 
L 251.080048 76.140097 
L 252.895766 77.043711 
L 254.711484 77.947325 
L 256.527203 78.850939 
L 258.342921 79.754553 
L 260.15864 80.658167 
L 261.974358 81.561781 
L 263.790077 82.465396 
L 265.605795 83.36901 
L 267.421514 84.272624 
L 269.237232 85.176238 
L 271.052951 86.079852 
L 272.868669 86.983466 
L 274.684388 87.88708 
L 276.500106 88.790694 
L 278.315825 89.694308 
L 280.131543 90.597922 
L 281.947262 91.501536 
L 283.76298 92.40515 
L 285.578699 93.308765 
L 287.394417 94.212379 
L 289.210136 95.115993 
L 291.025854 96.019607 
L 292.841573 96.923221 
L 294.657291 97.826835 
L 296.47301 98.730449 
L 298.288728 99.634063 
L 300.104447 100.537677 
L 301.920165 101.441291 
L 303.735884 102.344905 
L 305.551602 103.248519 
L 307.367321 104.152133 
L 309.183039 105.055748 
L 310.998758 105.959362 
L 312.814476 106.862976 
L 314.630195 107.76659 
L 316.445913 108.670204 
L 318.261632 109.573818 
L 320.07735 110.477432 
L 321.893069 111.381046 
L 323.708787 112.28466 
L 325.524506 113.188274 
L 327.340224 114.091888 
L 329.155943 114.995502 
L 330.971661 115.899117 
L 332.78738 116.802731 
L 334.603098 117.706345 
L 336.418817 118.609959 
L 338.234535 119.513573 
L 340.050254 120.417187 
L 341.865972 121.320801 
L 343.681691 122.224415 
L 345.497409 123.128029 
L 347.313128 124.031643 
L 349.128846 124.935257 
L 350.944565 125.838871 
L 352.760283 126.742486 
L 354.576002 127.6461 
L 356.39172 128.549714 
L 358.207439 129.453328 
L 360.023157 130.356942 
L 361.838876 131.260556 
L 363.654594 132.16417 
L 365.470313 133.067784 
" style="fill:none;stroke:#fc4f30;stroke-width:6;"/>
   </g>
   <g id="patch_3">
    <path d="M 52.270313 240.48 
L 52.270313 7.2 
" style="fill:none;stroke:#f0f0f0;stroke-linecap:square;stroke-linejoin:miter;stroke-width:3;"/>
   </g>
   <g id="patch_4">
    <path d="M 365.470312 240.48 
L 365.470312 7.2 
" style="fill:none;stroke:#f0f0f0;stroke-linecap:square;stroke-linejoin:miter;stroke-width:3;"/>
   </g>
   <g id="patch_5">
    <path d="M 52.270313 240.48 
L 365.470313 240.48 
" style="fill:none;stroke:#f0f0f0;stroke-linecap:square;stroke-linejoin:miter;stroke-width:3;"/>
   </g>
   <g id="patch_6">
    <path d="M 52.270313 7.2 
L 365.470313 7.2 
" style="fill:none;stroke:#f0f0f0;stroke-linecap:square;stroke-linejoin:miter;stroke-width:3;"/>
   </g>
   <g id="text_15">
    <!-- chọn -->
    <g transform="translate(289.512539 54.109746)scale(0.14 -0.14)">
     <defs>
      <path d="M 30.609375 48.390625 
Q 23.390625 48.390625 19.1875 42.75 
Q 14.984375 37.109375 14.984375 27.296875 
Q 14.984375 17.484375 19.15625 11.84375 
Q 23.34375 6.203125 30.609375 6.203125 
Q 37.796875 6.203125 41.984375 11.859375 
Q 46.1875 17.53125 46.1875 27.296875 
Q 46.1875 37.015625 41.984375 42.703125 
Q 37.796875 48.390625 30.609375 48.390625 
z
M 30.609375 56 
Q 42.328125 56 49.015625 48.375 
Q 55.71875 40.765625 55.71875 27.296875 
Q 55.71875 13.875 49.015625 6.21875 
Q 42.328125 -1.421875 30.609375 -1.421875 
Q 18.84375 -1.421875 12.171875 6.21875 
Q 5.515625 13.875 5.515625 27.296875 
Q 5.515625 40.765625 12.171875 48.375 
Q 18.84375 56 30.609375 56 
z
M 26.03125 -6.890625 
L 35.015625 -6.890625 
L 35.015625 -18.3125 
L 26.03125 -18.3125 
z
" id="DejaVuSans-7885"/>
     </defs>
     <use xlink:href="#DejaVuSans-99"/>
     <use x="54.980469" xlink:href="#DejaVuSans-104"/>
     <use x="118.359375" xlink:href="#DejaVuSans-7885"/>
     <use x="179.541016" xlink:href="#DejaVuSans-110"/>
    </g>
   </g>
   <g id="text_16">
    <!-- rớt -->
    <g transform="translate(193.508873 204.471198)scale(0.14 -0.14)">
     <defs>
      <path d="M 41.109375 46.296875 
Q 39.59375 47.171875 37.8125 47.578125 
Q 36.03125 48 33.890625 48 
Q 26.265625 48 22.1875 43.046875 
Q 18.109375 38.09375 18.109375 28.8125 
L 18.109375 0 
L 9.078125 0 
L 9.078125 54.6875 
L 18.109375 54.6875 
L 18.109375 46.1875 
Q 20.953125 51.171875 25.484375 53.578125 
Q 30.03125 56 36.53125 56 
Q 37.453125 56 38.578125 55.875 
Q 39.703125 55.765625 41.0625 55.515625 
z
" id="DejaVuSans-114"/>
      <path d="M 37.40625 79.984375 
L 47.125 79.984375 
L 31.203125 61.625 
L 23.734375 61.625 
z
M 41.015625 48.53125 
L 41.015625 54.34375 
Q 44 52.140625 46.140625 51.09375 
Q 48.296875 50.046875 49.8125 50.046875 
Q 52.046875 50.046875 53.171875 51.390625 
Q 54.296875 52.734375 54.296875 55.359375 
Q 54.296875 56.921875 53.921875 58.4375 
Q 53.5625 59.953125 52.828125 61.46875 
L 59.328125 61.46875 
Q 59.8125 59.609375 60.046875 57.953125 
Q 60.296875 56.296875 60.296875 54.828125 
Q 60.296875 48.875 58.171875 46.0625 
Q 56.0625 43.25 51.515625 43.25 
Q 49.171875 43.25 46.609375 44.546875 
Q 44.046875 45.84375 41.015625 48.53125 
z
M 30.859375 48.390625 
Q 23.640625 48.390625 19.4375 42.75 
Q 15.234375 37.109375 15.234375 27.296875 
Q 15.234375 17.484375 19.40625 11.84375 
Q 23.578125 6.203125 30.859375 6.203125 
Q 38.03125 6.203125 42.234375 11.859375 
Q 46.4375 17.53125 46.4375 27.296875 
Q 46.4375 37.015625 42.234375 42.703125 
Q 38.03125 48.390625 30.859375 48.390625 
z
M 30.859375 56 
Q 42.578125 56 49.265625 48.375 
Q 55.953125 40.765625 55.953125 27.296875 
Q 55.953125 13.875 49.265625 6.21875 
Q 42.578125 -1.421875 30.859375 -1.421875 
Q 19.09375 -1.421875 12.421875 6.21875 
Q 5.765625 13.875 5.765625 27.296875 
Q 5.765625 40.765625 12.421875 48.375 
Q 19.09375 56 30.859375 56 
z
" id="DejaVuSans-7899"/>
     </defs>
     <use xlink:href="#DejaVuSans-114"/>
     <use x="41.113281" xlink:href="#DejaVuSans-7899"/>
     <use x="102.294922" xlink:href="#DejaVuSans-116"/>
    </g>
   </g>
  </g>
 </g>
 <defs>
  <clipPath id="pbffceaf94e">
   <rect height="233.28" width="313.2" x="52.270313" y="7.2"/>
  </clipPath>
 </defs>
</svg>
