<?xml version="1.0" encoding="utf-8" standalone="no"?>
<!DOCTYPE svg PUBLIC "-//W3C//DTD SVG 1.1//EN"
  "http://www.w3.org/Graphics/SVG/1.1/DTD/svg11.dtd">
<!-- Created with matplotlib (https://matplotlib.org/) -->
<svg height="341.670275pt" version="1.1" viewBox="0 0 701.65975 341.670275" width="701.65975pt" xmlns="http://www.w3.org/2000/svg" xmlns:xlink="http://www.w3.org/1999/xlink">
 <metadata>
  <rdf:RDF xmlns:cc="http://creativecommons.org/ns#" xmlns:dc="http://purl.org/dc/elements/1.1/" xmlns:rdf="http://www.w3.org/1999/02/22-rdf-syntax-ns#">
   <cc:Work>
    <dc:type rdf:resource="http://purl.org/dc/dcmitype/StillImage"/>
    <dc:date>2021-03-04T17:15:48.983964</dc:date>
    <dc:format>image/svg+xml</dc:format>
    <dc:creator>
     <cc:Agent>
      <dc:title>Matplotlib v3.3.4, https://matplotlib.org/</dc:title>
     </cc:Agent>
    </dc:creator>
   </cc:Work>
  </rdf:RDF>
 </metadata>
 <defs>
  <style type="text/css">*{stroke-linecap:butt;stroke-linejoin:round;}</style>
 </defs>
 <g id="figure_1">
  <g id="patch_1">
   <path d="M 0 341.670275 
L 701.65975 341.670275 
L 701.65975 0 
L 0 0 
z
" style="fill:#f0f0f0;"/>
  </g>
  <g id="axes_1">
   <g id="patch_2">
    <path d="M 54.074125 295.442275 
L 282.441 295.442275 
L 282.441 30.2604 
L 54.074125 30.2604 
z
" style="fill:#f0f0f0;"/>
   </g>
   <g id="matplotlib.axis_1">
    <g id="xtick_1">
     <g id="line2d_1">
      <path clip-path="url(#p6f4f333ede)" d="M 108.36894 295.442275 
L 108.36894 30.2604 
" style="fill:none;stroke:#cbcbcb;"/>
     </g>
     <g id="line2d_2"/>
     <g id="text_1">
      <!-- 0.2 -->
      <g transform="translate(97.236753 309.580087)scale(0.14 -0.14)">
       <defs>
        <path d="M 31.78125 66.40625 
Q 24.171875 66.40625 20.328125 58.90625 
Q 16.5 51.421875 16.5 36.375 
Q 16.5 21.390625 20.328125 13.890625 
Q 24.171875 6.390625 31.78125 6.390625 
Q 39.453125 6.390625 43.28125 13.890625 
Q 47.125 21.390625 47.125 36.375 
Q 47.125 51.421875 43.28125 58.90625 
Q 39.453125 66.40625 31.78125 66.40625 
z
M 31.78125 74.21875 
Q 44.046875 74.21875 50.515625 64.515625 
Q 56.984375 54.828125 56.984375 36.375 
Q 56.984375 17.96875 50.515625 8.265625 
Q 44.046875 -1.421875 31.78125 -1.421875 
Q 19.53125 -1.421875 13.0625 8.265625 
Q 6.59375 17.96875 6.59375 36.375 
Q 6.59375 54.828125 13.0625 64.515625 
Q 19.53125 74.21875 31.78125 74.21875 
z
" id="DejaVuSans-48"/>
        <path d="M 10.6875 12.40625 
L 21 12.40625 
L 21 0 
L 10.6875 0 
z
" id="DejaVuSans-46"/>
        <path d="M 19.1875 8.296875 
L 53.609375 8.296875 
L 53.609375 0 
L 7.328125 0 
L 7.328125 8.296875 
Q 12.9375 14.109375 22.625 23.890625 
Q 32.328125 33.6875 34.8125 36.53125 
Q 39.546875 41.84375 41.421875 45.53125 
Q 43.3125 49.21875 43.3125 52.78125 
Q 43.3125 58.59375 39.234375 62.25 
Q 35.15625 65.921875 28.609375 65.921875 
Q 23.96875 65.921875 18.8125 64.3125 
Q 13.671875 62.703125 7.8125 59.421875 
L 7.8125 69.390625 
Q 13.765625 71.78125 18.9375 73 
Q 24.125 74.21875 28.421875 74.21875 
Q 39.75 74.21875 46.484375 68.546875 
Q 53.21875 62.890625 53.21875 53.421875 
Q 53.21875 48.921875 51.53125 44.890625 
Q 49.859375 40.875 45.40625 35.40625 
Q 44.1875 33.984375 37.640625 27.21875 
Q 31.109375 20.453125 19.1875 8.296875 
z
" id="DejaVuSans-50"/>
       </defs>
       <use xlink:href="#DejaVuSans-48"/>
       <use x="63.623047" xlink:href="#DejaVuSans-46"/>
       <use x="95.410156" xlink:href="#DejaVuSans-50"/>
      </g>
     </g>
    </g>
    <g id="xtick_2">
     <g id="line2d_3">
      <path clip-path="url(#p6f4f333ede)" d="M 166.978228 295.442275 
L 166.978228 30.2604 
" style="fill:none;stroke:#cbcbcb;"/>
     </g>
     <g id="line2d_4"/>
     <g id="text_2">
      <!-- 0.4 -->
      <g transform="translate(155.84604 309.580087)scale(0.14 -0.14)">
       <defs>
        <path d="M 37.796875 64.3125 
L 12.890625 25.390625 
L 37.796875 25.390625 
z
M 35.203125 72.90625 
L 47.609375 72.90625 
L 47.609375 25.390625 
L 58.015625 25.390625 
L 58.015625 17.1875 
L 47.609375 17.1875 
L 47.609375 0 
L 37.796875 0 
L 37.796875 17.1875 
L 4.890625 17.1875 
L 4.890625 26.703125 
z
" id="DejaVuSans-52"/>
       </defs>
       <use xlink:href="#DejaVuSans-48"/>
       <use x="63.623047" xlink:href="#DejaVuSans-46"/>
       <use x="95.410156" xlink:href="#DejaVuSans-52"/>
      </g>
     </g>
    </g>
    <g id="xtick_3">
     <g id="line2d_5">
      <path clip-path="url(#p6f4f333ede)" d="M 225.587515 295.442275 
L 225.587515 30.2604 
" style="fill:none;stroke:#cbcbcb;"/>
     </g>
     <g id="line2d_6"/>
     <g id="text_3">
      <!-- 0.6 -->
      <g transform="translate(214.455328 309.580087)scale(0.14 -0.14)">
       <defs>
        <path d="M 33.015625 40.375 
Q 26.375 40.375 22.484375 35.828125 
Q 18.609375 31.296875 18.609375 23.390625 
Q 18.609375 15.53125 22.484375 10.953125 
Q 26.375 6.390625 33.015625 6.390625 
Q 39.65625 6.390625 43.53125 10.953125 
Q 47.40625 15.53125 47.40625 23.390625 
Q 47.40625 31.296875 43.53125 35.828125 
Q 39.65625 40.375 33.015625 40.375 
z
M 52.59375 71.296875 
L 52.59375 62.3125 
Q 48.875 64.0625 45.09375 64.984375 
Q 41.3125 65.921875 37.59375 65.921875 
Q 27.828125 65.921875 22.671875 59.328125 
Q 17.53125 52.734375 16.796875 39.40625 
Q 19.671875 43.65625 24.015625 45.921875 
Q 28.375 48.1875 33.59375 48.1875 
Q 44.578125 48.1875 50.953125 41.515625 
Q 57.328125 34.859375 57.328125 23.390625 
Q 57.328125 12.15625 50.6875 5.359375 
Q 44.046875 -1.421875 33.015625 -1.421875 
Q 20.359375 -1.421875 13.671875 8.265625 
Q 6.984375 17.96875 6.984375 36.375 
Q 6.984375 53.65625 15.1875 63.9375 
Q 23.390625 74.21875 37.203125 74.21875 
Q 40.921875 74.21875 44.703125 73.484375 
Q 48.484375 72.75 52.59375 71.296875 
z
" id="DejaVuSans-54"/>
       </defs>
       <use xlink:href="#DejaVuSans-48"/>
       <use x="63.623047" xlink:href="#DejaVuSans-46"/>
       <use x="95.410156" xlink:href="#DejaVuSans-54"/>
      </g>
     </g>
    </g>
    <g id="text_4">
     <!-- độ gồ ghề (chuẩn hoá) -->
     <g transform="translate(72.907062 330.9764)scale(0.168 -0.168)">
      <defs>
       <path d="M 45.40625 46.390625 
L 45.40625 62.703125 
L 29.5 62.703125 
L 29.5 68.796875 
L 45.40625 68.796875 
L 45.40625 75.984375 
L 54.390625 75.984375 
L 54.390625 68.796875 
L 61.921875 68.796875 
L 61.921875 62.703125 
L 54.390625 62.703125 
L 54.390625 0 
L 45.40625 0 
L 45.40625 8.203125 
Q 42.578125 3.328125 38.25 0.953125 
Q 33.9375 -1.421875 27.875 -1.421875 
Q 17.96875 -1.421875 11.734375 6.484375 
Q 5.515625 14.40625 5.515625 27.296875 
Q 5.515625 40.1875 11.734375 48.09375 
Q 17.96875 56 27.875 56 
Q 33.9375 56 38.25 53.625 
Q 42.578125 51.265625 45.40625 46.390625 
z
M 14.796875 27.296875 
Q 14.796875 17.390625 18.875 11.75 
Q 22.953125 6.109375 30.078125 6.109375 
Q 37.203125 6.109375 41.296875 11.75 
Q 45.40625 17.390625 45.40625 27.296875 
Q 45.40625 37.203125 41.296875 42.84375 
Q 37.203125 48.484375 30.078125 48.484375 
Q 22.953125 48.484375 18.875 42.84375 
Q 14.796875 37.203125 14.796875 27.296875 
z
" id="DejaVuSans-273"/>
       <path d="M 26.03125 -6.890625 
L 35.015625 -6.890625 
L 35.015625 -18.3125 
L 26.03125 -18.3125 
z
M 30.609375 48.390625 
Q 23.390625 48.390625 19.1875 42.75 
Q 14.984375 37.109375 14.984375 27.296875 
Q 14.984375 17.484375 19.15625 11.84375 
Q 23.34375 6.203125 30.609375 6.203125 
Q 37.796875 6.203125 41.984375 11.859375 
Q 46.1875 17.53125 46.1875 27.296875 
Q 46.1875 37.015625 41.984375 42.703125 
Q 37.796875 48.390625 30.609375 48.390625 
z
M 30.609375 56 
Q 42.328125 56 49.015625 48.375 
Q 55.71875 40.765625 55.71875 27.296875 
Q 55.71875 13.875 49.015625 6.21875 
Q 42.328125 -1.421875 30.609375 -1.421875 
Q 18.84375 -1.421875 12.171875 6.21875 
Q 5.515625 13.875 5.515625 27.296875 
Q 5.515625 40.765625 12.171875 48.375 
Q 18.84375 56 30.609375 56 
z
M 26.03125 -6.890625 
L 35.015625 -6.890625 
L 35.015625 -18.3125 
L 26.03125 -18.3125 
z
M 27 79.984375 
L 34.234375 79.984375 
L 46.1875 61.625 
L 39.40625 61.625 
L 30.609375 73.578125 
L 21.828125 61.625 
L 15.046875 61.625 
z
" id="DejaVuSans-7897"/>
       <path id="DejaVuSans-32"/>
       <path d="M 45.40625 27.984375 
Q 45.40625 37.75 41.375 43.109375 
Q 37.359375 48.484375 30.078125 48.484375 
Q 22.859375 48.484375 18.828125 43.109375 
Q 14.796875 37.75 14.796875 27.984375 
Q 14.796875 18.265625 18.828125 12.890625 
Q 22.859375 7.515625 30.078125 7.515625 
Q 37.359375 7.515625 41.375 12.890625 
Q 45.40625 18.265625 45.40625 27.984375 
z
M 54.390625 6.78125 
Q 54.390625 -7.171875 48.1875 -13.984375 
Q 42 -20.796875 29.203125 -20.796875 
Q 24.46875 -20.796875 20.265625 -20.09375 
Q 16.0625 -19.390625 12.109375 -17.921875 
L 12.109375 -9.1875 
Q 16.0625 -11.328125 19.921875 -12.34375 
Q 23.78125 -13.375 27.78125 -13.375 
Q 36.625 -13.375 41.015625 -8.765625 
Q 45.40625 -4.15625 45.40625 5.171875 
L 45.40625 9.625 
Q 42.625 4.78125 38.28125 2.390625 
Q 33.9375 0 27.875 0 
Q 17.828125 0 11.671875 7.65625 
Q 5.515625 15.328125 5.515625 27.984375 
Q 5.515625 40.671875 11.671875 48.328125 
Q 17.828125 56 27.875 56 
Q 33.9375 56 38.28125 53.609375 
Q 42.625 51.21875 45.40625 46.390625 
L 45.40625 54.6875 
L 54.390625 54.6875 
z
" id="DejaVuSans-103"/>
       <path d="M 42.09375 84.671875 
L 51.65625 71.78125 
L 44.1875 71.78125 
L 32.953125 84.671875 
z
M 25.921875 74.65625 
L 35.109375 74.65625 
L 45.40625 61.671875 
L 38.625 61.671875 
L 30.515625 70.359375 
L 22.40625 61.671875 
L 15.625 61.671875 
z
M 30.609375 48.390625 
Q 23.390625 48.390625 19.1875 42.75 
Q 14.984375 37.109375 14.984375 27.296875 
Q 14.984375 17.484375 19.15625 11.84375 
Q 23.34375 6.203125 30.609375 6.203125 
Q 37.796875 6.203125 41.984375 11.859375 
Q 46.1875 17.53125 46.1875 27.296875 
Q 46.1875 37.015625 41.984375 42.703125 
Q 37.796875 48.390625 30.609375 48.390625 
z
M 30.609375 56 
Q 42.328125 56 49.015625 48.375 
Q 55.71875 40.765625 55.71875 27.296875 
Q 55.71875 13.875 49.015625 6.21875 
Q 42.328125 -1.421875 30.609375 -1.421875 
Q 18.84375 -1.421875 12.171875 6.21875 
Q 5.515625 13.875 5.515625 27.296875 
Q 5.515625 40.765625 12.171875 48.375 
Q 18.84375 56 30.609375 56 
z
" id="DejaVuSans-7891"/>
       <path d="M 54.890625 33.015625 
L 54.890625 0 
L 45.90625 0 
L 45.90625 32.71875 
Q 45.90625 40.484375 42.875 44.328125 
Q 39.84375 48.1875 33.796875 48.1875 
Q 26.515625 48.1875 22.3125 43.546875 
Q 18.109375 38.921875 18.109375 30.90625 
L 18.109375 0 
L 9.078125 0 
L 9.078125 75.984375 
L 18.109375 75.984375 
L 18.109375 46.1875 
Q 21.34375 51.125 25.703125 53.5625 
Q 30.078125 56 35.796875 56 
Q 45.21875 56 50.046875 50.171875 
Q 54.890625 44.34375 54.890625 33.015625 
z
" id="DejaVuSans-104"/>
       <path d="M 43.40625 84.671875 
L 52.984375 71.78125 
L 45.515625 71.78125 
L 34.28125 84.671875 
z
M 27.25 74.65625 
L 36.421875 74.65625 
L 46.734375 61.671875 
L 39.9375 61.671875 
L 31.84375 70.359375 
L 23.734375 61.671875 
L 16.9375 61.671875 
z
M 56.203125 29.59375 
L 56.203125 25.203125 
L 14.890625 25.203125 
Q 15.484375 15.921875 20.484375 11.0625 
Q 25.484375 6.203125 34.421875 6.203125 
Q 39.59375 6.203125 44.453125 7.46875 
Q 49.3125 8.734375 54.109375 11.28125 
L 54.109375 2.78125 
Q 49.265625 0.734375 44.1875 -0.34375 
Q 39.109375 -1.421875 33.890625 -1.421875 
Q 20.796875 -1.421875 13.15625 6.1875 
Q 5.515625 13.8125 5.515625 26.8125 
Q 5.515625 40.234375 12.765625 48.109375 
Q 20.015625 56 32.328125 56 
Q 43.359375 56 49.78125 48.890625 
Q 56.203125 41.796875 56.203125 29.59375 
z
M 47.21875 32.234375 
Q 47.125 39.59375 43.09375 43.984375 
Q 39.0625 48.390625 32.421875 48.390625 
Q 24.90625 48.390625 20.390625 44.140625 
Q 15.875 39.890625 15.1875 32.171875 
z
" id="DejaVuSans-7873"/>
       <path d="M 31 75.875 
Q 24.46875 64.65625 21.28125 53.65625 
Q 18.109375 42.671875 18.109375 31.390625 
Q 18.109375 20.125 21.3125 9.0625 
Q 24.515625 -2 31 -13.1875 
L 23.1875 -13.1875 
Q 15.875 -1.703125 12.234375 9.375 
Q 8.59375 20.453125 8.59375 31.390625 
Q 8.59375 42.28125 12.203125 53.3125 
Q 15.828125 64.359375 23.1875 75.875 
z
" id="DejaVuSans-40"/>
       <path d="M 48.78125 52.59375 
L 48.78125 44.1875 
Q 44.96875 46.296875 41.140625 47.34375 
Q 37.3125 48.390625 33.40625 48.390625 
Q 24.65625 48.390625 19.8125 42.84375 
Q 14.984375 37.3125 14.984375 27.296875 
Q 14.984375 17.28125 19.8125 11.734375 
Q 24.65625 6.203125 33.40625 6.203125 
Q 37.3125 6.203125 41.140625 7.25 
Q 44.96875 8.296875 48.78125 10.40625 
L 48.78125 2.09375 
Q 45.015625 0.34375 40.984375 -0.53125 
Q 36.96875 -1.421875 32.421875 -1.421875 
Q 20.0625 -1.421875 12.78125 6.34375 
Q 5.515625 14.109375 5.515625 27.296875 
Q 5.515625 40.671875 12.859375 48.328125 
Q 20.21875 56 33.015625 56 
Q 37.15625 56 41.109375 55.140625 
Q 45.0625 54.296875 48.78125 52.59375 
z
" id="DejaVuSans-99"/>
       <path d="M 8.5 21.578125 
L 8.5 54.6875 
L 17.484375 54.6875 
L 17.484375 21.921875 
Q 17.484375 14.15625 20.5 10.265625 
Q 23.53125 6.390625 29.59375 6.390625 
Q 36.859375 6.390625 41.078125 11.03125 
Q 45.3125 15.671875 45.3125 23.6875 
L 45.3125 54.6875 
L 54.296875 54.6875 
L 54.296875 0 
L 45.3125 0 
L 45.3125 8.40625 
Q 42.046875 3.421875 37.71875 1 
Q 33.40625 -1.421875 27.6875 -1.421875 
Q 18.265625 -1.421875 13.375 4.4375 
Q 8.5 10.296875 8.5 21.578125 
z
M 31.109375 56 
z
" id="DejaVuSans-117"/>
       <path d="M 35.796875 83.734375 
Q 41.265625 86.21875 46.390625 86.21875 
Q 51.46875 86.21875 54.5625 84.140625 
Q 57.671875 82.078125 57.671875 78.796875 
Q 57.671875 75.828125 53.375 72.65625 
L 51.21875 71.09375 
Q 49.515625 69.8125 49.3125 69.375 
Q 48.96875 68.59375 48.96875 67.03125 
L 43.171875 67.03125 
L 43.171875 67.625 
Q 43.171875 69.578125 43.890625 70.890625 
Q 44.625 72.21875 47.125 74.015625 
L 49.3125 75.671875 
Q 51.5625 77.34375 51.5625 79.296875 
Q 51.5625 80.3125 50.046875 81.1875 
Q 48.53125 82.078125 45.0625 82.078125 
Q 40.671875 82.078125 35.796875 79.53125 
z
M 24.421875 74.609375 
L 33.59375 74.609375 
L 43.890625 61.625 
L 37.109375 61.625 
L 29 70.3125 
L 20.90625 61.625 
L 14.109375 61.625 
z
M 34.28125 27.484375 
Q 23.390625 27.484375 19.1875 25 
Q 14.984375 22.515625 14.984375 16.5 
Q 14.984375 11.71875 18.140625 8.90625 
Q 21.296875 6.109375 26.703125 6.109375 
Q 34.1875 6.109375 38.703125 11.40625 
Q 43.21875 16.703125 43.21875 25.484375 
L 43.21875 27.484375 
z
M 52.203125 31.203125 
L 52.203125 0 
L 43.21875 0 
L 43.21875 8.296875 
Q 40.140625 3.328125 35.546875 0.953125 
Q 30.953125 -1.421875 24.3125 -1.421875 
Q 15.921875 -1.421875 10.953125 3.296875 
Q 6 8.015625 6 15.921875 
Q 6 25.140625 12.171875 29.828125 
Q 18.359375 34.515625 30.609375 34.515625 
L 43.21875 34.515625 
L 43.21875 35.40625 
Q 43.21875 41.609375 39.140625 45 
Q 35.0625 48.390625 27.6875 48.390625 
Q 23 48.390625 18.546875 47.265625 
Q 14.109375 46.140625 10.015625 43.890625 
L 10.015625 52.203125 
Q 14.9375 54.109375 19.578125 55.046875 
Q 24.21875 56 28.609375 56 
Q 40.484375 56 46.34375 49.84375 
Q 52.203125 43.703125 52.203125 31.203125 
z
" id="DejaVuSans-7849"/>
       <path d="M 54.890625 33.015625 
L 54.890625 0 
L 45.90625 0 
L 45.90625 32.71875 
Q 45.90625 40.484375 42.875 44.328125 
Q 39.84375 48.1875 33.796875 48.1875 
Q 26.515625 48.1875 22.3125 43.546875 
Q 18.109375 38.921875 18.109375 30.90625 
L 18.109375 0 
L 9.078125 0 
L 9.078125 54.6875 
L 18.109375 54.6875 
L 18.109375 46.1875 
Q 21.34375 51.125 25.703125 53.5625 
Q 30.078125 56 35.796875 56 
Q 45.21875 56 50.046875 50.171875 
Q 54.890625 44.34375 54.890625 33.015625 
z
" id="DejaVuSans-110"/>
       <path d="M 30.609375 48.390625 
Q 23.390625 48.390625 19.1875 42.75 
Q 14.984375 37.109375 14.984375 27.296875 
Q 14.984375 17.484375 19.15625 11.84375 
Q 23.34375 6.203125 30.609375 6.203125 
Q 37.796875 6.203125 41.984375 11.859375 
Q 46.1875 17.53125 46.1875 27.296875 
Q 46.1875 37.015625 41.984375 42.703125 
Q 37.796875 48.390625 30.609375 48.390625 
z
M 30.609375 56 
Q 42.328125 56 49.015625 48.375 
Q 55.71875 40.765625 55.71875 27.296875 
Q 55.71875 13.875 49.015625 6.21875 
Q 42.328125 -1.421875 30.609375 -1.421875 
Q 18.84375 -1.421875 12.171875 6.21875 
Q 5.515625 13.875 5.515625 27.296875 
Q 5.515625 40.765625 12.171875 48.375 
Q 18.84375 56 30.609375 56 
z
" id="DejaVuSans-111"/>
       <path d="M 34.28125 27.484375 
Q 23.390625 27.484375 19.1875 25 
Q 14.984375 22.515625 14.984375 16.5 
Q 14.984375 11.71875 18.140625 8.90625 
Q 21.296875 6.109375 26.703125 6.109375 
Q 34.1875 6.109375 38.703125 11.40625 
Q 43.21875 16.703125 43.21875 25.484375 
L 43.21875 27.484375 
z
M 52.203125 31.203125 
L 52.203125 0 
L 43.21875 0 
L 43.21875 8.296875 
Q 40.140625 3.328125 35.546875 0.953125 
Q 30.953125 -1.421875 24.3125 -1.421875 
Q 15.921875 -1.421875 10.953125 3.296875 
Q 6 8.015625 6 15.921875 
Q 6 25.140625 12.171875 29.828125 
Q 18.359375 34.515625 30.609375 34.515625 
L 43.21875 34.515625 
L 43.21875 35.40625 
Q 43.21875 41.609375 39.140625 45 
Q 35.0625 48.390625 27.6875 48.390625 
Q 23 48.390625 18.546875 47.265625 
Q 14.109375 46.140625 10.015625 43.890625 
L 10.015625 52.203125 
Q 14.9375 54.109375 19.578125 55.046875 
Q 24.21875 56 28.609375 56 
Q 40.484375 56 46.34375 49.84375 
Q 52.203125 43.703125 52.203125 31.203125 
z
M 35.796875 79.984375 
L 45.515625 79.984375 
L 29.59375 61.625 
L 22.125 61.625 
z
" id="DejaVuSans-225"/>
       <path d="M 8.015625 75.875 
L 15.828125 75.875 
Q 23.140625 64.359375 26.78125 53.3125 
Q 30.421875 42.28125 30.421875 31.390625 
Q 30.421875 20.453125 26.78125 9.375 
Q 23.140625 -1.703125 15.828125 -13.1875 
L 8.015625 -13.1875 
Q 14.5 -2 17.703125 9.0625 
Q 20.90625 20.125 20.90625 31.390625 
Q 20.90625 42.671875 17.703125 53.65625 
Q 14.5 64.65625 8.015625 75.875 
z
" id="DejaVuSans-41"/>
      </defs>
      <use xlink:href="#DejaVuSans-273"/>
      <use x="63.476562" xlink:href="#DejaVuSans-7897"/>
      <use x="124.658203" xlink:href="#DejaVuSans-32"/>
      <use x="156.445312" xlink:href="#DejaVuSans-103"/>
      <use x="219.921875" xlink:href="#DejaVuSans-7891"/>
      <use x="281.103516" xlink:href="#DejaVuSans-32"/>
      <use x="312.890625" xlink:href="#DejaVuSans-103"/>
      <use x="376.367188" xlink:href="#DejaVuSans-104"/>
      <use x="439.746094" xlink:href="#DejaVuSans-7873"/>
      <use x="501.269531" xlink:href="#DejaVuSans-32"/>
      <use x="533.056641" xlink:href="#DejaVuSans-40"/>
      <use x="572.070312" xlink:href="#DejaVuSans-99"/>
      <use x="627.050781" xlink:href="#DejaVuSans-104"/>
      <use x="690.429688" xlink:href="#DejaVuSans-117"/>
      <use x="753.808594" xlink:href="#DejaVuSans-7849"/>
      <use x="815.087891" xlink:href="#DejaVuSans-110"/>
      <use x="878.466797" xlink:href="#DejaVuSans-32"/>
      <use x="910.253906" xlink:href="#DejaVuSans-104"/>
      <use x="973.632812" xlink:href="#DejaVuSans-111"/>
      <use x="1034.814453" xlink:href="#DejaVuSans-225"/>
      <use x="1096.09375" xlink:href="#DejaVuSans-41"/>
     </g>
    </g>
   </g>
   <g id="matplotlib.axis_2">
    <g id="ytick_1">
     <g id="line2d_7">
      <path clip-path="url(#p6f4f333ede)" d="M 54.074125 239.262922 
L 282.441 239.262922 
" style="fill:none;stroke:#cbcbcb;"/>
     </g>
     <g id="line2d_8"/>
     <g id="text_5">
      <!-- 0.8 -->
      <g transform="translate(28.30975 244.581829)scale(0.14 -0.14)">
       <defs>
        <path d="M 31.78125 34.625 
Q 24.75 34.625 20.71875 30.859375 
Q 16.703125 27.09375 16.703125 20.515625 
Q 16.703125 13.921875 20.71875 10.15625 
Q 24.75 6.390625 31.78125 6.390625 
Q 38.8125 6.390625 42.859375 10.171875 
Q 46.921875 13.96875 46.921875 20.515625 
Q 46.921875 27.09375 42.890625 30.859375 
Q 38.875 34.625 31.78125 34.625 
z
M 21.921875 38.8125 
Q 15.578125 40.375 12.03125 44.71875 
Q 8.5 49.078125 8.5 55.328125 
Q 8.5 64.0625 14.71875 69.140625 
Q 20.953125 74.21875 31.78125 74.21875 
Q 42.671875 74.21875 48.875 69.140625 
Q 55.078125 64.0625 55.078125 55.328125 
Q 55.078125 49.078125 51.53125 44.71875 
Q 48 40.375 41.703125 38.8125 
Q 48.828125 37.15625 52.796875 32.3125 
Q 56.78125 27.484375 56.78125 20.515625 
Q 56.78125 9.90625 50.3125 4.234375 
Q 43.84375 -1.421875 31.78125 -1.421875 
Q 19.734375 -1.421875 13.25 4.234375 
Q 6.78125 9.90625 6.78125 20.515625 
Q 6.78125 27.484375 10.78125 32.3125 
Q 14.796875 37.15625 21.921875 38.8125 
z
M 18.3125 54.390625 
Q 18.3125 48.734375 21.84375 45.5625 
Q 25.390625 42.390625 31.78125 42.390625 
Q 38.140625 42.390625 41.71875 45.5625 
Q 45.3125 48.734375 45.3125 54.390625 
Q 45.3125 60.0625 41.71875 63.234375 
Q 38.140625 66.40625 31.78125 66.40625 
Q 25.390625 66.40625 21.84375 63.234375 
Q 18.3125 60.0625 18.3125 54.390625 
z
" id="DejaVuSans-56"/>
       </defs>
       <use xlink:href="#DejaVuSans-48"/>
       <use x="63.623047" xlink:href="#DejaVuSans-46"/>
       <use x="95.410156" xlink:href="#DejaVuSans-56"/>
      </g>
     </g>
    </g>
    <g id="ytick_2">
     <g id="line2d_9">
      <path clip-path="url(#p6f4f333ede)" d="M 54.074125 183.012147 
L 282.441 183.012147 
" style="fill:none;stroke:#cbcbcb;"/>
     </g>
     <g id="line2d_10"/>
     <g id="text_6">
      <!-- 0.9 -->
      <g transform="translate(28.30975 188.331053)scale(0.14 -0.14)">
       <defs>
        <path d="M 10.984375 1.515625 
L 10.984375 10.5 
Q 14.703125 8.734375 18.5 7.8125 
Q 22.3125 6.890625 25.984375 6.890625 
Q 35.75 6.890625 40.890625 13.453125 
Q 46.046875 20.015625 46.78125 33.40625 
Q 43.953125 29.203125 39.59375 26.953125 
Q 35.25 24.703125 29.984375 24.703125 
Q 19.046875 24.703125 12.671875 31.3125 
Q 6.296875 37.9375 6.296875 49.421875 
Q 6.296875 60.640625 12.9375 67.421875 
Q 19.578125 74.21875 30.609375 74.21875 
Q 43.265625 74.21875 49.921875 64.515625 
Q 56.59375 54.828125 56.59375 36.375 
Q 56.59375 19.140625 48.40625 8.859375 
Q 40.234375 -1.421875 26.421875 -1.421875 
Q 22.703125 -1.421875 18.890625 -0.6875 
Q 15.09375 0.046875 10.984375 1.515625 
z
M 30.609375 32.421875 
Q 37.25 32.421875 41.125 36.953125 
Q 45.015625 41.5 45.015625 49.421875 
Q 45.015625 57.28125 41.125 61.84375 
Q 37.25 66.40625 30.609375 66.40625 
Q 23.96875 66.40625 20.09375 61.84375 
Q 16.21875 57.28125 16.21875 49.421875 
Q 16.21875 41.5 20.09375 36.953125 
Q 23.96875 32.421875 30.609375 32.421875 
z
" id="DejaVuSans-57"/>
       </defs>
       <use xlink:href="#DejaVuSans-48"/>
       <use x="63.623047" xlink:href="#DejaVuSans-46"/>
       <use x="95.410156" xlink:href="#DejaVuSans-57"/>
      </g>
     </g>
    </g>
    <g id="ytick_3">
     <g id="line2d_11">
      <path clip-path="url(#p6f4f333ede)" d="M 54.074125 126.761372 
L 282.441 126.761372 
" style="fill:none;stroke:#cbcbcb;"/>
     </g>
     <g id="line2d_12"/>
     <g id="text_7">
      <!-- 1.0 -->
      <g transform="translate(28.30975 132.080278)scale(0.14 -0.14)">
       <defs>
        <path d="M 12.40625 8.296875 
L 28.515625 8.296875 
L 28.515625 63.921875 
L 10.984375 60.40625 
L 10.984375 69.390625 
L 28.421875 72.90625 
L 38.28125 72.90625 
L 38.28125 8.296875 
L 54.390625 8.296875 
L 54.390625 0 
L 12.40625 0 
z
" id="DejaVuSans-49"/>
       </defs>
       <use xlink:href="#DejaVuSans-49"/>
       <use x="63.623047" xlink:href="#DejaVuSans-46"/>
       <use x="95.410156" xlink:href="#DejaVuSans-48"/>
      </g>
     </g>
    </g>
    <g id="ytick_4">
     <g id="line2d_13">
      <path clip-path="url(#p6f4f333ede)" d="M 54.074125 70.510597 
L 282.441 70.510597 
" style="fill:none;stroke:#cbcbcb;"/>
     </g>
     <g id="line2d_14"/>
     <g id="text_8">
      <!-- 1.1 -->
      <g transform="translate(28.30975 75.829503)scale(0.14 -0.14)">
       <use xlink:href="#DejaVuSans-49"/>
       <use x="63.623047" xlink:href="#DejaVuSans-46"/>
       <use x="95.410156" xlink:href="#DejaVuSans-49"/>
      </g>
     </g>
    </g>
    <g id="text_9">
     <!-- log GDP (tỉ lệ với trung bình) -->
     <g transform="translate(20.815875 282.884712)rotate(-90)scale(0.168 -0.168)">
      <defs>
       <path d="M 9.421875 75.984375 
L 18.40625 75.984375 
L 18.40625 0 
L 9.421875 0 
z
" id="DejaVuSans-108"/>
       <path d="M 59.515625 10.40625 
L 59.515625 29.984375 
L 43.40625 29.984375 
L 43.40625 38.09375 
L 69.28125 38.09375 
L 69.28125 6.78125 
Q 63.578125 2.734375 56.6875 0.65625 
Q 49.8125 -1.421875 42 -1.421875 
Q 24.90625 -1.421875 15.25 8.5625 
Q 5.609375 18.5625 5.609375 36.375 
Q 5.609375 54.25 15.25 64.234375 
Q 24.90625 74.21875 42 74.21875 
Q 49.125 74.21875 55.546875 72.453125 
Q 61.96875 70.703125 67.390625 67.28125 
L 67.390625 56.78125 
Q 61.921875 61.421875 55.765625 63.765625 
Q 49.609375 66.109375 42.828125 66.109375 
Q 29.4375 66.109375 22.71875 58.640625 
Q 16.015625 51.171875 16.015625 36.375 
Q 16.015625 21.625 22.71875 14.15625 
Q 29.4375 6.6875 42.828125 6.6875 
Q 48.046875 6.6875 52.140625 7.59375 
Q 56.25 8.5 59.515625 10.40625 
z
" id="DejaVuSans-71"/>
       <path d="M 19.671875 64.796875 
L 19.671875 8.109375 
L 31.59375 8.109375 
Q 46.6875 8.109375 53.6875 14.9375 
Q 60.6875 21.78125 60.6875 36.53125 
Q 60.6875 51.171875 53.6875 57.984375 
Q 46.6875 64.796875 31.59375 64.796875 
z
M 9.8125 72.90625 
L 30.078125 72.90625 
Q 51.265625 72.90625 61.171875 64.09375 
Q 71.09375 55.28125 71.09375 36.53125 
Q 71.09375 17.671875 61.125 8.828125 
Q 51.171875 0 30.078125 0 
L 9.8125 0 
z
" id="DejaVuSans-68"/>
       <path d="M 19.671875 64.796875 
L 19.671875 37.40625 
L 32.078125 37.40625 
Q 38.96875 37.40625 42.71875 40.96875 
Q 46.484375 44.53125 46.484375 51.125 
Q 46.484375 57.671875 42.71875 61.234375 
Q 38.96875 64.796875 32.078125 64.796875 
z
M 9.8125 72.90625 
L 32.078125 72.90625 
Q 44.34375 72.90625 50.609375 67.359375 
Q 56.890625 61.8125 56.890625 51.125 
Q 56.890625 40.328125 50.609375 34.8125 
Q 44.34375 29.296875 32.078125 29.296875 
L 19.671875 29.296875 
L 19.671875 0 
L 9.8125 0 
z
" id="DejaVuSans-80"/>
       <path d="M 18.3125 70.21875 
L 18.3125 54.6875 
L 36.8125 54.6875 
L 36.8125 47.703125 
L 18.3125 47.703125 
L 18.3125 18.015625 
Q 18.3125 11.328125 20.140625 9.421875 
Q 21.96875 7.515625 27.59375 7.515625 
L 36.8125 7.515625 
L 36.8125 0 
L 27.59375 0 
Q 17.1875 0 13.234375 3.875 
Q 9.28125 7.765625 9.28125 18.015625 
L 9.28125 47.703125 
L 2.6875 47.703125 
L 2.6875 54.6875 
L 9.28125 54.6875 
L 9.28125 70.21875 
z
" id="DejaVuSans-116"/>
       <path d="M 9.421875 54.6875 
L 18.40625 54.6875 
L 18.40625 0 
L 9.421875 0 
z
M 13.921875 56 
z
M 3.328125 78.5625 
Q 8.796875 81.046875 13.921875 81.046875 
Q 19 81.046875 22.09375 78.96875 
Q 25.203125 76.90625 25.203125 73.625 
Q 25.203125 70.65625 20.90625 67.484375 
L 18.75 65.921875 
Q 17.046875 64.640625 16.84375 64.203125 
Q 16.5 63.421875 16.5 61.859375 
L 10.6875 61.859375 
L 10.6875 62.453125 
Q 10.6875 64.40625 11.421875 65.71875 
Q 12.15625 67.046875 14.65625 68.84375 
L 16.84375 70.5 
Q 19.09375 72.171875 19.09375 74.125 
Q 19.09375 75.140625 17.578125 76.015625 
Q 16.0625 76.90625 12.59375 76.90625 
Q 8.203125 76.90625 3.328125 74.359375 
z
" id="DejaVuSans-7881"/>
       <path d="M 27.203125 -6.890625 
L 36.1875 -6.890625 
L 36.1875 -18.3125 
L 27.203125 -18.3125 
z
M 56.203125 29.59375 
L 56.203125 25.203125 
L 14.890625 25.203125 
Q 15.484375 15.921875 20.484375 11.0625 
Q 25.484375 6.203125 34.421875 6.203125 
Q 39.59375 6.203125 44.453125 7.46875 
Q 49.3125 8.734375 54.109375 11.28125 
L 54.109375 2.78125 
Q 49.265625 0.734375 44.1875 -0.34375 
Q 39.109375 -1.421875 33.890625 -1.421875 
Q 20.796875 -1.421875 13.15625 6.1875 
Q 5.515625 13.8125 5.515625 26.8125 
Q 5.515625 40.234375 12.765625 48.109375 
Q 20.015625 56 32.328125 56 
Q 43.359375 56 49.78125 48.890625 
Q 56.203125 41.796875 56.203125 29.59375 
z
M 47.21875 32.234375 
Q 47.125 39.59375 43.09375 43.984375 
Q 39.0625 48.390625 32.421875 48.390625 
Q 24.90625 48.390625 20.390625 44.140625 
Q 15.875 39.890625 15.1875 32.171875 
z
M 27.203125 -6.890625 
L 36.1875 -6.890625 
L 36.1875 -18.3125 
L 27.203125 -18.3125 
z
M 28.171875 79.984375 
L 35.40625 79.984375 
L 47.359375 61.625 
L 40.578125 61.625 
L 31.78125 73.578125 
L 23 61.625 
L 16.21875 61.625 
z
" id="DejaVuSans-7879"/>
       <path d="M 2.984375 54.6875 
L 12.5 54.6875 
L 29.59375 8.796875 
L 46.6875 54.6875 
L 56.203125 54.6875 
L 35.6875 0 
L 23.484375 0 
z
" id="DejaVuSans-118"/>
       <path d="M 37.40625 79.984375 
L 47.125 79.984375 
L 31.203125 61.625 
L 23.734375 61.625 
z
M 41.015625 48.53125 
L 41.015625 54.34375 
Q 44 52.140625 46.140625 51.09375 
Q 48.296875 50.046875 49.8125 50.046875 
Q 52.046875 50.046875 53.171875 51.390625 
Q 54.296875 52.734375 54.296875 55.359375 
Q 54.296875 56.921875 53.921875 58.4375 
Q 53.5625 59.953125 52.828125 61.46875 
L 59.328125 61.46875 
Q 59.8125 59.609375 60.046875 57.953125 
Q 60.296875 56.296875 60.296875 54.828125 
Q 60.296875 48.875 58.171875 46.0625 
Q 56.0625 43.25 51.515625 43.25 
Q 49.171875 43.25 46.609375 44.546875 
Q 44.046875 45.84375 41.015625 48.53125 
z
M 30.859375 48.390625 
Q 23.640625 48.390625 19.4375 42.75 
Q 15.234375 37.109375 15.234375 27.296875 
Q 15.234375 17.484375 19.40625 11.84375 
Q 23.578125 6.203125 30.859375 6.203125 
Q 38.03125 6.203125 42.234375 11.859375 
Q 46.4375 17.53125 46.4375 27.296875 
Q 46.4375 37.015625 42.234375 42.703125 
Q 38.03125 48.390625 30.859375 48.390625 
z
M 30.859375 56 
Q 42.578125 56 49.265625 48.375 
Q 55.953125 40.765625 55.953125 27.296875 
Q 55.953125 13.875 49.265625 6.21875 
Q 42.578125 -1.421875 30.859375 -1.421875 
Q 19.09375 -1.421875 12.421875 6.21875 
Q 5.765625 13.875 5.765625 27.296875 
Q 5.765625 40.765625 12.421875 48.375 
Q 19.09375 56 30.859375 56 
z
" id="DejaVuSans-7899"/>
       <path d="M 9.421875 54.6875 
L 18.40625 54.6875 
L 18.40625 0 
L 9.421875 0 
z
M 9.421875 75.984375 
L 18.40625 75.984375 
L 18.40625 64.59375 
L 9.421875 64.59375 
z
" id="DejaVuSans-105"/>
       <path d="M 41.109375 46.296875 
Q 39.59375 47.171875 37.8125 47.578125 
Q 36.03125 48 33.890625 48 
Q 26.265625 48 22.1875 43.046875 
Q 18.109375 38.09375 18.109375 28.8125 
L 18.109375 0 
L 9.078125 0 
L 9.078125 54.6875 
L 18.109375 54.6875 
L 18.109375 46.1875 
Q 20.953125 51.171875 25.484375 53.578125 
Q 30.03125 56 36.53125 56 
Q 37.453125 56 38.578125 55.875 
Q 39.703125 55.765625 41.0625 55.515625 
z
" id="DejaVuSans-114"/>
       <path d="M 48.6875 27.296875 
Q 48.6875 37.203125 44.609375 42.84375 
Q 40.53125 48.484375 33.40625 48.484375 
Q 26.265625 48.484375 22.1875 42.84375 
Q 18.109375 37.203125 18.109375 27.296875 
Q 18.109375 17.390625 22.1875 11.75 
Q 26.265625 6.109375 33.40625 6.109375 
Q 40.53125 6.109375 44.609375 11.75 
Q 48.6875 17.390625 48.6875 27.296875 
z
M 18.109375 46.390625 
Q 20.953125 51.265625 25.265625 53.625 
Q 29.59375 56 35.59375 56 
Q 45.5625 56 51.78125 48.09375 
Q 58.015625 40.1875 58.015625 27.296875 
Q 58.015625 14.40625 51.78125 6.484375 
Q 45.5625 -1.421875 35.59375 -1.421875 
Q 29.59375 -1.421875 25.265625 0.953125 
Q 20.953125 3.328125 18.109375 8.203125 
L 18.109375 0 
L 9.078125 0 
L 9.078125 75.984375 
L 18.109375 75.984375 
z
" id="DejaVuSans-98"/>
       <path d="M 6.84375 79.984375 
L 20.609375 61.71875 
L 13.140625 61.71875 
L -2.78125 79.984375 
z
M 9.421875 54.6875 
L 18.40625 54.6875 
L 18.40625 0 
L 9.421875 0 
z
M 13.921875 56 
z
" id="DejaVuSans-236"/>
      </defs>
      <use xlink:href="#DejaVuSans-108"/>
      <use x="27.783203" xlink:href="#DejaVuSans-111"/>
      <use x="88.964844" xlink:href="#DejaVuSans-103"/>
      <use x="152.441406" xlink:href="#DejaVuSans-32"/>
      <use x="184.228516" xlink:href="#DejaVuSans-71"/>
      <use x="261.71875" xlink:href="#DejaVuSans-68"/>
      <use x="338.720703" xlink:href="#DejaVuSans-80"/>
      <use x="399.023438" xlink:href="#DejaVuSans-32"/>
      <use x="430.810547" xlink:href="#DejaVuSans-40"/>
      <use x="469.824219" xlink:href="#DejaVuSans-116"/>
      <use x="509.033203" xlink:href="#DejaVuSans-7881"/>
      <use x="536.816406" xlink:href="#DejaVuSans-32"/>
      <use x="568.603516" xlink:href="#DejaVuSans-108"/>
      <use x="596.386719" xlink:href="#DejaVuSans-7879"/>
      <use x="657.910156" xlink:href="#DejaVuSans-32"/>
      <use x="689.697266" xlink:href="#DejaVuSans-118"/>
      <use x="748.876953" xlink:href="#DejaVuSans-7899"/>
      <use x="810.058594" xlink:href="#DejaVuSans-105"/>
      <use x="837.841797" xlink:href="#DejaVuSans-32"/>
      <use x="869.628906" xlink:href="#DejaVuSans-116"/>
      <use x="908.837891" xlink:href="#DejaVuSans-114"/>
      <use x="949.951172" xlink:href="#DejaVuSans-117"/>
      <use x="1013.330078" xlink:href="#DejaVuSans-110"/>
      <use x="1076.708984" xlink:href="#DejaVuSans-103"/>
      <use x="1140.185547" xlink:href="#DejaVuSans-32"/>
      <use x="1171.972656" xlink:href="#DejaVuSans-98"/>
      <use x="1235.449219" xlink:href="#DejaVuSans-236"/>
      <use x="1263.232422" xlink:href="#DejaVuSans-110"/>
      <use x="1326.611328" xlink:href="#DejaVuSans-104"/>
      <use x="1389.990234" xlink:href="#DejaVuSans-41"/>
     </g>
    </g>
   </g>
   <g id="PathCollection_1">
    <defs>
     <path d="M 0 3 
C 0.795609 3 1.55874 2.683901 2.12132 2.12132 
C 2.683901 1.55874 3 0.795609 3 0 
C 3 -0.795609 2.683901 -1.55874 2.12132 -2.12132 
C 1.55874 -2.683901 0.795609 -3 0 -3 
C -0.795609 -3 -1.55874 -2.683901 -2.12132 -2.12132 
C -2.683901 -1.55874 -3 -0.795609 -3 0 
C -3 0.795609 -2.683901 1.55874 -2.12132 2.12132 
C -1.55874 2.683901 -0.795609 3 0 3 
z
" id="mdade73043d" style="stroke:#008fd5;stroke-opacity:0.8;"/>
    </defs>
    <g clip-path="url(#p6f4f333ede)">
     <use style="fill:#008fd5;fill-opacity:0.8;stroke:#008fd5;stroke-opacity:0.8;" x="81.949365" xlink:href="#mdade73043d" y="194.424379"/>
     <use style="fill:#008fd5;fill-opacity:0.8;stroke:#008fd5;stroke-opacity:0.8;" x="116.540175" xlink:href="#mdade73043d" y="264.446538"/>
     <use style="fill:#008fd5;fill-opacity:0.8;stroke:#008fd5;stroke-opacity:0.8;" x="55.049571" xlink:href="#mdade73043d" y="235.800311"/>
     <use style="fill:#008fd5;fill-opacity:0.8;stroke:#008fd5;stroke-opacity:0.8;" x="58.6137" xlink:href="#mdade73043d" y="233.155399"/>
     <use style="fill:#008fd5;fill-opacity:0.8;stroke:#008fd5;stroke-opacity:0.8;" x="56.550257" xlink:href="#mdade73043d" y="98.218061"/>
     <use style="fill:#008fd5;fill-opacity:0.8;stroke:#008fd5;stroke-opacity:0.8;" x="57.150531" xlink:href="#mdade73043d" y="223.932237"/>
     <use style="fill:#008fd5;fill-opacity:0.8;stroke:#008fd5;stroke-opacity:0.8;" x="58.163494" xlink:href="#mdade73043d" y="203.023365"/>
     <use style="fill:#008fd5;fill-opacity:0.8;stroke:#008fd5;stroke-opacity:0.8;" x="69.080984" xlink:href="#mdade73043d" y="191.264422"/>
     <use style="fill:#008fd5;fill-opacity:0.8;stroke:#008fd5;stroke-opacity:0.8;" x="66.379749" xlink:href="#mdade73043d" y="259.63192"/>
     <use style="fill:#008fd5;fill-opacity:0.8;stroke:#008fd5;stroke-opacity:0.8;" x="55.462259" xlink:href="#mdade73043d" y="235.925671"/>
     <use style="fill:#008fd5;fill-opacity:0.8;stroke:#008fd5;stroke-opacity:0.8;" x="174.616719" xlink:href="#mdade73043d" y="195.332578"/>
     <use style="fill:#008fd5;fill-opacity:0.8;stroke:#008fd5;stroke-opacity:0.8;" x="138.56274" xlink:href="#mdade73043d" y="128.64412"/>
     <use style="fill:#008fd5;fill-opacity:0.8;stroke:#008fd5;stroke-opacity:0.8;" x="141.001355" xlink:href="#mdade73043d" y="191.289684"/>
     <use style="fill:#008fd5;fill-opacity:0.8;stroke:#008fd5;stroke-opacity:0.8;" x="68.893398" xlink:href="#mdade73043d" y="121.454843"/>
     <use style="fill:#008fd5;fill-opacity:0.8;stroke:#008fd5;stroke-opacity:0.8;" x="76.88455" xlink:href="#mdade73043d" y="148.482882"/>
     <use style="fill:#008fd5;fill-opacity:0.8;stroke:#008fd5;stroke-opacity:0.8;" x="142.839695" xlink:href="#mdade73043d" y="239.1428"/>
     <use style="fill:#008fd5;fill-opacity:0.8;stroke:#008fd5;stroke-opacity:0.8;" x="108.661574" xlink:href="#mdade73043d" y="262.960925"/>
     <use style="fill:#008fd5;fill-opacity:0.8;stroke:#008fd5;stroke-opacity:0.8;" x="57.938391" xlink:href="#mdade73043d" y="113.421646"/>
     <use style="fill:#008fd5;fill-opacity:0.8;stroke:#008fd5;stroke-opacity:0.8;" x="58.313563" xlink:href="#mdade73043d" y="190.910329"/>
     <use style="fill:#008fd5;fill-opacity:0.8;stroke:#008fd5;stroke-opacity:0.8;" x="77.522342" xlink:href="#mdade73043d" y="188.076437"/>
     <use style="fill:#008fd5;fill-opacity:0.8;stroke:#008fd5;stroke-opacity:0.8;" x="63.003206" xlink:href="#mdade73043d" y="196.919192"/>
     <use style="fill:#008fd5;fill-opacity:0.8;stroke:#008fd5;stroke-opacity:0.8;" x="68.180572" xlink:href="#mdade73043d" y="249.250778"/>
     <use style="fill:#008fd5;fill-opacity:0.8;stroke:#008fd5;stroke-opacity:0.8;" x="70.731738" xlink:href="#mdade73043d" y="53.369895"/>
     <use style="fill:#008fd5;fill-opacity:0.8;stroke:#008fd5;stroke-opacity:0.8;" x="74.858625" xlink:href="#mdade73043d" y="231.825068"/>
     <use style="fill:#008fd5;fill-opacity:0.8;stroke:#008fd5;stroke-opacity:0.8;" x="282.441" xlink:href="#mdade73043d" y="183.344686"/>
     <use style="fill:#008fd5;fill-opacity:0.8;stroke:#008fd5;stroke-opacity:0.8;" x="140.288529" xlink:href="#mdade73043d" y="150.052217"/>
     <use style="fill:#008fd5;fill-opacity:0.8;stroke:#008fd5;stroke-opacity:0.8;" x="93.617198" xlink:href="#mdade73043d" y="245.736254"/>
     <use style="fill:#008fd5;fill-opacity:0.8;stroke:#008fd5;stroke-opacity:0.8;" x="55.274674" xlink:href="#mdade73043d" y="249.494311"/>
     <use style="fill:#008fd5;fill-opacity:0.8;stroke:#008fd5;stroke-opacity:0.8;" x="72.720147" xlink:href="#mdade73043d" y="241.728855"/>
     <use style="fill:#008fd5;fill-opacity:0.8;stroke:#008fd5;stroke-opacity:0.8;" x="54.074125" xlink:href="#mdade73043d" y="196.880605"/>
     <use style="fill:#008fd5;fill-opacity:0.8;stroke:#008fd5;stroke-opacity:0.8;" x="85.363426" xlink:href="#mdade73043d" y="83.519266"/>
     <use style="fill:#008fd5;fill-opacity:0.8;stroke:#008fd5;stroke-opacity:0.8;" x="88.289763" xlink:href="#mdade73043d" y="268.318768"/>
     <use style="fill:#008fd5;fill-opacity:0.8;stroke:#008fd5;stroke-opacity:0.8;" x="84.012808" xlink:href="#mdade73043d" y="114.081264"/>
     <use style="fill:#008fd5;fill-opacity:0.8;stroke:#008fd5;stroke-opacity:0.8;" x="56.437705" xlink:href="#mdade73043d" y="256.31139"/>
     <use style="fill:#008fd5;fill-opacity:0.8;stroke:#008fd5;stroke-opacity:0.8;" x="61.465003" xlink:href="#mdade73043d" y="241.299283"/>
     <use style="fill:#008fd5;fill-opacity:0.8;stroke:#008fd5;stroke-opacity:0.8;" x="173.903893" xlink:href="#mdade73043d" y="230.512997"/>
     <use style="fill:#008fd5;fill-opacity:0.8;stroke:#008fd5;stroke-opacity:0.8;" x="66.342232" xlink:href="#mdade73043d" y="198.68225"/>
     <use style="fill:#008fd5;fill-opacity:0.8;stroke:#008fd5;stroke-opacity:0.8;" x="58.913837" xlink:href="#mdade73043d" y="209.194019"/>
     <use style="fill:#008fd5;fill-opacity:0.8;stroke:#008fd5;stroke-opacity:0.8;" x="68.443192" xlink:href="#mdade73043d" y="283.388553"/>
     <use style="fill:#008fd5;fill-opacity:0.8;stroke:#008fd5;stroke-opacity:0.8;" x="164.674675" xlink:href="#mdade73043d" y="131.104145"/>
     <use style="fill:#008fd5;fill-opacity:0.8;stroke:#008fd5;stroke-opacity:0.8;" x="233.030917" xlink:href="#mdade73043d" y="42.314122"/>
     <use style="fill:#008fd5;fill-opacity:0.8;stroke:#008fd5;stroke-opacity:0.8;" x="65.479338" xlink:href="#mdade73043d" y="246.064713"/>
     <use style="fill:#008fd5;fill-opacity:0.8;stroke:#008fd5;stroke-opacity:0.8;" x="60.264454" xlink:href="#mdade73043d" y="209.112474"/>
     <use style="fill:#008fd5;fill-opacity:0.8;stroke:#008fd5;stroke-opacity:0.8;" x="76.997102" xlink:href="#mdade73043d" y="112.002606"/>
     <use style="fill:#008fd5;fill-opacity:0.8;stroke:#008fd5;stroke-opacity:0.8;" x="75.158762" xlink:href="#mdade73043d" y="276.007233"/>
     <use style="fill:#008fd5;fill-opacity:0.8;stroke:#008fd5;stroke-opacity:0.8;" x="84.012808" xlink:href="#mdade73043d" y="218.656908"/>
     <use style="fill:#008fd5;fill-opacity:0.8;stroke:#008fd5;stroke-opacity:0.8;" x="115.827349" xlink:href="#mdade73043d" y="84.930203"/>
     <use style="fill:#008fd5;fill-opacity:0.8;stroke:#008fd5;stroke-opacity:0.8;" x="69.756293" xlink:href="#mdade73043d" y="249.969323"/>
     <use style="fill:#008fd5;fill-opacity:0.8;stroke:#008fd5;stroke-opacity:0.8;" x="94.555127" xlink:href="#mdade73043d" y="172.555589"/>
    </g>
   </g>
   <g id="PolyCollection_1">
    <path clip-path="url(#p6f4f333ede)" d="M 54.074125 187.177809 
L 54.074125 226.660411 
L 56.380861 225.110744 
L 58.687597 223.956827 
L 60.994333 222.841375 
L 63.301069 221.386209 
L 65.607806 220.052887 
L 67.914542 219.003761 
L 70.221278 217.749823 
L 72.528014 216.797931 
L 74.83475 215.596136 
L 77.141486 214.625085 
L 79.448222 213.962055 
L 81.754958 212.933377 
L 84.061694 212.731406 
L 86.368431 211.733138 
L 88.675167 211.295387 
L 90.981903 210.729653 
L 93.288639 210.030204 
L 95.595375 209.463227 
L 97.902111 208.906802 
L 100.208847 208.336965 
L 102.515583 208.047936 
L 104.822319 207.854007 
L 107.129056 207.455789 
L 109.435792 206.907119 
L 111.742528 206.367597 
L 114.049264 206.419737 
L 116.356 205.788806 
L 118.662736 205.812027 
L 120.969472 205.586274 
L 123.276208 205.601741 
L 125.582944 205.313754 
L 127.889681 204.949603 
L 130.196417 204.773889 
L 132.503153 204.403331 
L 134.809889 204.116967 
L 137.116625 204.157658 
L 139.423361 203.916986 
L 141.730097 203.837426 
L 144.036833 203.883515 
L 146.343569 203.882039 
L 148.650306 204.070645 
L 150.957042 204.153552 
L 153.263778 204.230823 
L 155.570514 204.147993 
L 157.87725 203.976648 
L 160.183986 203.910267 
L 162.490722 203.879044 
L 164.797458 203.737834 
L 167.104194 203.596625 
L 169.410931 203.455415 
L 171.717667 203.310491 
L 174.024403 203.1621 
L 176.331139 203.013709 
L 178.637875 202.865318 
L 180.944611 202.714999 
L 183.251347 202.563004 
L 185.558083 202.724739 
L 187.864819 202.922776 
L 190.171556 203.120813 
L 192.478292 203.237953 
L 194.785028 203.015755 
L 197.091764 202.78942 
L 199.3985 202.874987 
L 201.705236 202.824821 
L 204.011972 202.961628 
L 206.318708 203.059726 
L 208.625444 203.204047 
L 210.932181 203.34472 
L 213.238917 203.292406 
L 215.545653 203.501313 
L 217.852389 203.434527 
L 220.159125 203.351701 
L 222.465861 203.267278 
L 224.772597 203.182856 
L 227.079333 203.098434 
L 229.386069 203.014012 
L 231.692806 202.929589 
L 233.999542 202.845167 
L 236.306278 202.760521 
L 238.613014 202.675688 
L 240.91975 202.590854 
L 243.226486 202.506021 
L 245.533222 202.421188 
L 247.839958 202.336355 
L 250.146694 202.251522 
L 252.453431 202.166688 
L 254.760167 202.081855 
L 257.066903 201.997022 
L 259.373639 201.912189 
L 261.680375 201.827355 
L 263.987111 201.924048 
L 266.293847 202.148884 
L 268.600583 202.37372 
L 270.907319 202.598556 
L 273.214056 202.823392 
L 275.520792 203.048228 
L 277.827528 203.273064 
L 280.134264 203.4979 
L 282.441 203.722736 
L 282.441 44.576845 
L 282.441 44.576845 
L 280.134264 46.351398 
L 277.827528 48.125951 
L 275.520792 49.900505 
L 273.214056 51.675058 
L 270.907319 53.384596 
L 268.600583 55.084598 
L 266.293847 56.7846 
L 263.987111 58.484602 
L 261.680375 60.180745 
L 259.373639 61.760906 
L 257.066903 63.341068 
L 254.760167 64.921229 
L 252.453431 66.501391 
L 250.146694 68.221739 
L 247.839958 69.995645 
L 245.533222 71.770302 
L 243.226486 73.544959 
L 240.91975 75.319616 
L 238.613014 77.057919 
L 236.306278 78.856477 
L 233.999542 80.575664 
L 231.692806 82.151805 
L 229.386069 83.652352 
L 227.079333 85.230327 
L 224.772597 86.875784 
L 222.465861 88.521242 
L 220.159125 90.166699 
L 217.852389 91.813592 
L 215.545653 93.467391 
L 213.238917 95.121191 
L 210.932181 96.77499 
L 208.625444 98.514641 
L 206.318708 100.347232 
L 204.011972 102.053909 
L 201.705236 103.807385 
L 199.3985 105.649279 
L 197.091764 107.543233 
L 194.785028 109.087804 
L 192.478292 110.50019 
L 190.171556 112.111236 
L 187.864819 113.747069 
L 185.558083 115.392164 
L 183.251347 117.041381 
L 180.944611 118.96721 
L 178.637875 120.524119 
L 176.331139 122.486397 
L 174.024403 124.126881 
L 171.717667 125.773779 
L 169.410931 127.333658 
L 167.104194 128.891754 
L 164.797458 130.452304 
L 162.490722 132.459023 
L 160.183986 134.506979 
L 157.87725 136.498154 
L 155.570514 138.279316 
L 153.263778 139.90112 
L 150.957042 141.077485 
L 148.650306 142.461037 
L 146.343569 144.269752 
L 144.036833 145.9139 
L 141.730097 147.798034 
L 139.423361 149.479178 
L 137.116625 151.409187 
L 134.809889 153.001888 
L 132.503153 154.540886 
L 130.196417 156.053515 
L 127.889681 157.421487 
L 125.582944 159.094835 
L 123.276208 160.778412 
L 120.969472 162.315646 
L 118.662736 163.784064 
L 116.356 165.213339 
L 114.049264 166.438458 
L 111.742528 168.242697 
L 109.435792 169.796115 
L 107.129056 170.989513 
L 104.822319 172.302848 
L 102.515583 173.387059 
L 100.208847 174.326254 
L 97.902111 175.431445 
L 95.595375 176.244932 
L 93.288639 177.221851 
L 90.981903 178.15279 
L 88.675167 178.828579 
L 86.368431 179.475811 
L 84.061694 180.174572 
L 81.754958 180.891102 
L 79.448222 181.560441 
L 77.141486 182.131031 
L 74.83475 182.937468 
L 72.528014 183.34417 
L 70.221278 183.82122 
L 67.914542 184.576584 
L 65.607806 184.937328 
L 63.301069 185.694455 
L 60.994333 185.971545 
L 58.687597 186.067343 
L 56.380861 186.619183 
L 54.074125 187.177809 
z
" style="fill:#008fd5;fill-opacity:0.15;"/>
   </g>
   <g id="line2d_15">
    <path clip-path="url(#p6f4f333ede)" d="M 54.074125 207.337326 
L 56.380861 206.563608 
L 58.687597 205.78989 
L 60.994333 205.016172 
L 63.301069 204.242454 
L 65.607806 203.468736 
L 67.914542 202.695018 
L 70.221278 201.9213 
L 72.528014 201.147583 
L 74.83475 200.373865 
L 77.141486 199.600147 
L 79.448222 198.826429 
L 81.754958 198.052711 
L 84.061694 197.278993 
L 86.368431 196.505275 
L 88.675167 195.731557 
L 90.981903 194.957839 
L 93.288639 194.184121 
L 95.595375 193.410403 
L 97.902111 192.636685 
L 100.208847 191.862967 
L 102.515583 191.08925 
L 104.822319 190.315532 
L 107.129056 189.541814 
L 109.435792 188.768096 
L 111.742528 187.994378 
L 114.049264 187.22066 
L 116.356 186.446942 
L 118.662736 185.673224 
L 120.969472 184.899506 
L 123.276208 184.125788 
L 125.582944 183.35207 
L 127.889681 182.578352 
L 130.196417 181.804635 
L 132.503153 181.030917 
L 134.809889 180.257199 
L 137.116625 179.483481 
L 139.423361 178.709763 
L 141.730097 177.936045 
L 144.036833 177.162327 
L 146.343569 176.388609 
L 148.650306 175.614891 
L 150.957042 174.841173 
L 153.263778 174.067455 
L 155.570514 173.293737 
L 157.87725 172.52002 
L 160.183986 171.746302 
L 162.490722 170.972584 
L 164.797458 170.198866 
L 167.104194 169.425148 
L 169.410931 168.65143 
L 171.717667 167.877712 
L 174.024403 167.103994 
L 176.331139 166.330276 
L 178.637875 165.556558 
L 180.944611 164.78284 
L 183.251347 164.009122 
L 185.558083 163.235405 
L 187.864819 162.461687 
L 190.171556 161.687969 
L 192.478292 160.914251 
L 194.785028 160.140533 
L 197.091764 159.366815 
L 199.3985 158.593097 
L 201.705236 157.819379 
L 204.011972 157.045661 
L 206.318708 156.271943 
L 208.625444 155.498225 
L 210.932181 154.724507 
L 213.238917 153.95079 
L 215.545653 153.177072 
L 217.852389 152.403354 
L 220.159125 151.629636 
L 222.465861 150.855918 
L 224.772597 150.0822 
L 227.079333 149.308482 
L 229.386069 148.534764 
L 231.692806 147.761046 
L 233.999542 146.987328 
L 236.306278 146.21361 
L 238.613014 145.439892 
L 240.91975 144.666174 
L 243.226486 143.892457 
L 245.533222 143.118739 
L 247.839958 142.345021 
L 250.146694 141.571303 
L 252.453431 140.797585 
L 254.760167 140.023867 
L 257.066903 139.250149 
L 259.373639 138.476431 
L 261.680375 137.702713 
L 263.987111 136.928995 
L 266.293847 136.155277 
L 268.600583 135.381559 
L 270.907319 134.607842 
L 273.214056 133.834124 
L 275.520792 133.060406 
L 277.827528 132.286688 
L 280.134264 131.51297 
L 282.441 130.739252 
" style="fill:none;stroke:#008fd5;stroke-width:6;"/>
   </g>
   <g id="patch_3">
    <path d="M 54.074125 295.442275 
L 54.074125 30.2604 
" style="fill:none;stroke:#f0f0f0;stroke-linecap:square;stroke-linejoin:miter;stroke-width:3;"/>
   </g>
   <g id="patch_4">
    <path d="M 282.441 295.442275 
L 282.441 30.2604 
" style="fill:none;stroke:#f0f0f0;stroke-linecap:square;stroke-linejoin:miter;stroke-width:3;"/>
   </g>
   <g id="patch_5">
    <path d="M 54.074125 295.442275 
L 282.441 295.442275 
" style="fill:none;stroke:#f0f0f0;stroke-linecap:square;stroke-linejoin:miter;stroke-width:3;"/>
   </g>
   <g id="patch_6">
    <path d="M 54.074125 30.2604 
L 282.441 30.2604 
" style="fill:none;stroke:#f0f0f0;stroke-linecap:square;stroke-linejoin:miter;stroke-width:3;"/>
   </g>
   <g id="text_10">
    <!-- Lesotho -->
    <g transform="translate(282.441 183.344686)scale(0.14 -0.14)">
     <defs>
      <path d="M 9.8125 72.90625 
L 19.671875 72.90625 
L 19.671875 8.296875 
L 55.171875 8.296875 
L 55.171875 0 
L 9.8125 0 
z
" id="DejaVuSans-76"/>
      <path d="M 56.203125 29.59375 
L 56.203125 25.203125 
L 14.890625 25.203125 
Q 15.484375 15.921875 20.484375 11.0625 
Q 25.484375 6.203125 34.421875 6.203125 
Q 39.59375 6.203125 44.453125 7.46875 
Q 49.3125 8.734375 54.109375 11.28125 
L 54.109375 2.78125 
Q 49.265625 0.734375 44.1875 -0.34375 
Q 39.109375 -1.421875 33.890625 -1.421875 
Q 20.796875 -1.421875 13.15625 6.1875 
Q 5.515625 13.8125 5.515625 26.8125 
Q 5.515625 40.234375 12.765625 48.109375 
Q 20.015625 56 32.328125 56 
Q 43.359375 56 49.78125 48.890625 
Q 56.203125 41.796875 56.203125 29.59375 
z
M 47.21875 32.234375 
Q 47.125 39.59375 43.09375 43.984375 
Q 39.0625 48.390625 32.421875 48.390625 
Q 24.90625 48.390625 20.390625 44.140625 
Q 15.875 39.890625 15.1875 32.171875 
z
" id="DejaVuSans-101"/>
      <path d="M 44.28125 53.078125 
L 44.28125 44.578125 
Q 40.484375 46.53125 36.375 47.5 
Q 32.28125 48.484375 27.875 48.484375 
Q 21.1875 48.484375 17.84375 46.4375 
Q 14.5 44.390625 14.5 40.28125 
Q 14.5 37.15625 16.890625 35.375 
Q 19.28125 33.59375 26.515625 31.984375 
L 29.59375 31.296875 
Q 39.15625 29.25 43.1875 25.515625 
Q 47.21875 21.78125 47.21875 15.09375 
Q 47.21875 7.46875 41.1875 3.015625 
Q 35.15625 -1.421875 24.609375 -1.421875 
Q 20.21875 -1.421875 15.453125 -0.5625 
Q 10.6875 0.296875 5.421875 2 
L 5.421875 11.28125 
Q 10.40625 8.6875 15.234375 7.390625 
Q 20.0625 6.109375 24.8125 6.109375 
Q 31.15625 6.109375 34.5625 8.28125 
Q 37.984375 10.453125 37.984375 14.40625 
Q 37.984375 18.0625 35.515625 20.015625 
Q 33.0625 21.96875 24.703125 23.78125 
L 21.578125 24.515625 
Q 13.234375 26.265625 9.515625 29.90625 
Q 5.8125 33.546875 5.8125 39.890625 
Q 5.8125 47.609375 11.28125 51.796875 
Q 16.75 56 26.8125 56 
Q 31.78125 56 36.171875 55.265625 
Q 40.578125 54.546875 44.28125 53.078125 
z
" id="DejaVuSans-115"/>
     </defs>
     <use xlink:href="#DejaVuSans-76"/>
     <use x="53.962891" xlink:href="#DejaVuSans-101"/>
     <use x="115.486328" xlink:href="#DejaVuSans-115"/>
     <use x="167.585938" xlink:href="#DejaVuSans-111"/>
     <use x="228.767578" xlink:href="#DejaVuSans-116"/>
     <use x="267.976562" xlink:href="#DejaVuSans-104"/>
     <use x="331.355469" xlink:href="#DejaVuSans-111"/>
    </g>
   </g>
   <g id="text_11">
    <!-- Seychelles -->
    <g transform="translate(233.030917 42.314122)scale(0.14 -0.14)">
     <defs>
      <path d="M 53.515625 70.515625 
L 53.515625 60.890625 
Q 47.90625 63.578125 42.921875 64.890625 
Q 37.9375 66.21875 33.296875 66.21875 
Q 25.25 66.21875 20.875 63.09375 
Q 16.5 59.96875 16.5 54.203125 
Q 16.5 49.359375 19.40625 46.890625 
Q 22.3125 44.4375 30.421875 42.921875 
L 36.375 41.703125 
Q 47.40625 39.59375 52.65625 34.296875 
Q 57.90625 29 57.90625 20.125 
Q 57.90625 9.515625 50.796875 4.046875 
Q 43.703125 -1.421875 29.984375 -1.421875 
Q 24.8125 -1.421875 18.96875 -0.25 
Q 13.140625 0.921875 6.890625 3.21875 
L 6.890625 13.375 
Q 12.890625 10.015625 18.65625 8.296875 
Q 24.421875 6.59375 29.984375 6.59375 
Q 38.421875 6.59375 43.015625 9.90625 
Q 47.609375 13.234375 47.609375 19.390625 
Q 47.609375 24.75 44.3125 27.78125 
Q 41.015625 30.8125 33.5 32.328125 
L 27.484375 33.5 
Q 16.453125 35.6875 11.515625 40.375 
Q 6.59375 45.0625 6.59375 53.421875 
Q 6.59375 63.09375 13.40625 68.65625 
Q 20.21875 74.21875 32.171875 74.21875 
Q 37.3125 74.21875 42.625 73.28125 
Q 47.953125 72.359375 53.515625 70.515625 
z
" id="DejaVuSans-83"/>
      <path d="M 32.171875 -5.078125 
Q 28.375 -14.84375 24.75 -17.8125 
Q 21.140625 -20.796875 15.09375 -20.796875 
L 7.90625 -20.796875 
L 7.90625 -13.28125 
L 13.1875 -13.28125 
Q 16.890625 -13.28125 18.9375 -11.515625 
Q 21 -9.765625 23.484375 -3.21875 
L 25.09375 0.875 
L 2.984375 54.6875 
L 12.5 54.6875 
L 29.59375 11.921875 
L 46.6875 54.6875 
L 56.203125 54.6875 
z
" id="DejaVuSans-121"/>
     </defs>
     <use xlink:href="#DejaVuSans-83"/>
     <use x="63.476562" xlink:href="#DejaVuSans-101"/>
     <use x="125" xlink:href="#DejaVuSans-121"/>
     <use x="184.179688" xlink:href="#DejaVuSans-99"/>
     <use x="239.160156" xlink:href="#DejaVuSans-104"/>
     <use x="302.539062" xlink:href="#DejaVuSans-101"/>
     <use x="364.0625" xlink:href="#DejaVuSans-108"/>
     <use x="391.845703" xlink:href="#DejaVuSans-108"/>
     <use x="419.628906" xlink:href="#DejaVuSans-101"/>
     <use x="481.152344" xlink:href="#DejaVuSans-115"/>
    </g>
   </g>
   <g id="text_12">
    <!-- Quốc gia Châu Phi -->
    <g transform="translate(75.978313 24.2604)scale(0.2016 -0.2016)">
     <defs>
      <path d="M 39.40625 66.21875 
Q 28.65625 66.21875 22.328125 58.203125 
Q 16.015625 50.203125 16.015625 36.375 
Q 16.015625 22.609375 22.328125 14.59375 
Q 28.65625 6.59375 39.40625 6.59375 
Q 50.140625 6.59375 56.421875 14.59375 
Q 62.703125 22.609375 62.703125 36.375 
Q 62.703125 50.203125 56.421875 58.203125 
Q 50.140625 66.21875 39.40625 66.21875 
z
M 53.21875 1.3125 
L 66.21875 -12.890625 
L 54.296875 -12.890625 
L 43.5 -1.21875 
Q 41.890625 -1.3125 41.03125 -1.359375 
Q 40.1875 -1.421875 39.40625 -1.421875 
Q 24.03125 -1.421875 14.8125 8.859375 
Q 5.609375 19.140625 5.609375 36.375 
Q 5.609375 53.65625 14.8125 63.9375 
Q 24.03125 74.21875 39.40625 74.21875 
Q 54.734375 74.21875 63.90625 63.9375 
Q 73.09375 53.65625 73.09375 36.375 
Q 73.09375 23.6875 67.984375 14.640625 
Q 62.890625 5.609375 53.21875 1.3125 
z
" id="DejaVuSans-81"/>
      <path d="M 25.984375 74.609375 
L 35.15625 74.609375 
L 45.453125 61.625 
L 38.671875 61.625 
L 30.5625 70.3125 
L 22.46875 61.625 
L 15.671875 61.625 
z
M 51.03125 84.625 
L 60.0625 84.625 
L 48.921875 71.734375 
L 41.453125 71.734375 
z
M 30.609375 48.390625 
Q 23.390625 48.390625 19.1875 42.75 
Q 14.984375 37.109375 14.984375 27.296875 
Q 14.984375 17.484375 19.15625 11.84375 
Q 23.34375 6.203125 30.609375 6.203125 
Q 37.796875 6.203125 41.984375 11.859375 
Q 46.1875 17.53125 46.1875 27.296875 
Q 46.1875 37.015625 41.984375 42.703125 
Q 37.796875 48.390625 30.609375 48.390625 
z
M 30.609375 56 
Q 42.328125 56 49.015625 48.375 
Q 55.71875 40.765625 55.71875 27.296875 
Q 55.71875 13.875 49.015625 6.21875 
Q 42.328125 -1.421875 30.609375 -1.421875 
Q 18.84375 -1.421875 12.171875 6.21875 
Q 5.515625 13.875 5.515625 27.296875 
Q 5.515625 40.765625 12.171875 48.375 
Q 18.84375 56 30.609375 56 
z
" id="DejaVuSans-7889"/>
      <path d="M 34.28125 27.484375 
Q 23.390625 27.484375 19.1875 25 
Q 14.984375 22.515625 14.984375 16.5 
Q 14.984375 11.71875 18.140625 8.90625 
Q 21.296875 6.109375 26.703125 6.109375 
Q 34.1875 6.109375 38.703125 11.40625 
Q 43.21875 16.703125 43.21875 25.484375 
L 43.21875 27.484375 
z
M 52.203125 31.203125 
L 52.203125 0 
L 43.21875 0 
L 43.21875 8.296875 
Q 40.140625 3.328125 35.546875 0.953125 
Q 30.953125 -1.421875 24.3125 -1.421875 
Q 15.921875 -1.421875 10.953125 3.296875 
Q 6 8.015625 6 15.921875 
Q 6 25.140625 12.171875 29.828125 
Q 18.359375 34.515625 30.609375 34.515625 
L 43.21875 34.515625 
L 43.21875 35.40625 
Q 43.21875 41.609375 39.140625 45 
Q 35.0625 48.390625 27.6875 48.390625 
Q 23 48.390625 18.546875 47.265625 
Q 14.109375 46.140625 10.015625 43.890625 
L 10.015625 52.203125 
Q 14.9375 54.109375 19.578125 55.046875 
Q 24.21875 56 28.609375 56 
Q 40.484375 56 46.34375 49.84375 
Q 52.203125 43.703125 52.203125 31.203125 
z
" id="DejaVuSans-97"/>
      <path d="M 64.40625 67.28125 
L 64.40625 56.890625 
Q 59.421875 61.53125 53.78125 63.8125 
Q 48.140625 66.109375 41.796875 66.109375 
Q 29.296875 66.109375 22.65625 58.46875 
Q 16.015625 50.828125 16.015625 36.375 
Q 16.015625 21.96875 22.65625 14.328125 
Q 29.296875 6.6875 41.796875 6.6875 
Q 48.140625 6.6875 53.78125 8.984375 
Q 59.421875 11.28125 64.40625 15.921875 
L 64.40625 5.609375 
Q 59.234375 2.09375 53.4375 0.328125 
Q 47.65625 -1.421875 41.21875 -1.421875 
Q 24.65625 -1.421875 15.125 8.703125 
Q 5.609375 18.84375 5.609375 36.375 
Q 5.609375 53.953125 15.125 64.078125 
Q 24.65625 74.21875 41.21875 74.21875 
Q 47.75 74.21875 53.53125 72.484375 
Q 59.328125 70.75 64.40625 67.28125 
z
" id="DejaVuSans-67"/>
      <path d="M 34.28125 27.484375 
Q 23.390625 27.484375 19.1875 25 
Q 14.984375 22.515625 14.984375 16.5 
Q 14.984375 11.71875 18.140625 8.90625 
Q 21.296875 6.109375 26.703125 6.109375 
Q 34.1875 6.109375 38.703125 11.40625 
Q 43.21875 16.703125 43.21875 25.484375 
L 43.21875 27.484375 
z
M 52.203125 31.203125 
L 52.203125 0 
L 43.21875 0 
L 43.21875 8.296875 
Q 40.140625 3.328125 35.546875 0.953125 
Q 30.953125 -1.421875 24.3125 -1.421875 
Q 15.921875 -1.421875 10.953125 3.296875 
Q 6 8.015625 6 15.921875 
Q 6 25.140625 12.171875 29.828125 
Q 18.359375 34.515625 30.609375 34.515625 
L 43.21875 34.515625 
L 43.21875 35.40625 
Q 43.21875 41.609375 39.140625 45 
Q 35.0625 48.390625 27.6875 48.390625 
Q 23 48.390625 18.546875 47.265625 
Q 14.109375 46.140625 10.015625 43.890625 
L 10.015625 52.203125 
Q 14.9375 54.109375 19.578125 55.046875 
Q 24.21875 56 28.609375 56 
Q 40.484375 56 46.34375 49.84375 
Q 52.203125 43.703125 52.203125 31.203125 
z
M 25.390625 79.984375 
L 32.625 79.984375 
L 44.578125 61.625 
L 37.796875 61.625 
L 29 73.578125 
L 20.21875 61.625 
L 13.421875 61.625 
z
" id="DejaVuSans-226"/>
     </defs>
     <use xlink:href="#DejaVuSans-81"/>
     <use x="78.710938" xlink:href="#DejaVuSans-117"/>
     <use x="142.089844" xlink:href="#DejaVuSans-7889"/>
     <use x="203.271484" xlink:href="#DejaVuSans-99"/>
     <use x="258.251953" xlink:href="#DejaVuSans-32"/>
     <use x="290.039062" xlink:href="#DejaVuSans-103"/>
     <use x="353.515625" xlink:href="#DejaVuSans-105"/>
     <use x="381.298828" xlink:href="#DejaVuSans-97"/>
     <use x="442.578125" xlink:href="#DejaVuSans-32"/>
     <use x="474.365234" xlink:href="#DejaVuSans-67"/>
     <use x="544.189453" xlink:href="#DejaVuSans-104"/>
     <use x="607.568359" xlink:href="#DejaVuSans-226"/>
     <use x="668.847656" xlink:href="#DejaVuSans-117"/>
     <use x="732.226562" xlink:href="#DejaVuSans-32"/>
     <use x="764.013672" xlink:href="#DejaVuSans-80"/>
     <use x="824.316406" xlink:href="#DejaVuSans-104"/>
     <use x="887.695312" xlink:href="#DejaVuSans-105"/>
    </g>
   </g>
  </g>
  <g id="axes_2">
   <g id="patch_7">
    <path d="M 401.264125 295.442275 
L 629.631 295.442275 
L 629.631 30.2604 
L 401.264125 30.2604 
z
" style="fill:#f0f0f0;"/>
   </g>
   <g id="matplotlib.axis_3">
    <g id="xtick_4">
     <g id="line2d_16">
      <path clip-path="url(#p6cf7afe2f0)" d="M 468.472436 295.442275 
L 468.472436 30.2604 
" style="fill:none;stroke:#cbcbcb;"/>
     </g>
     <g id="line2d_17"/>
     <g id="text_13">
      <!-- 0.2 -->
      <g transform="translate(457.340248 309.580087)scale(0.14 -0.14)">
       <use xlink:href="#DejaVuSans-48"/>
       <use x="63.623047" xlink:href="#DejaVuSans-46"/>
       <use x="95.410156" xlink:href="#DejaVuSans-50"/>
      </g>
     </g>
    </g>
    <g id="xtick_5">
     <g id="line2d_18">
      <path clip-path="url(#p6cf7afe2f0)" d="M 535.81006 295.442275 
L 535.81006 30.2604 
" style="fill:none;stroke:#cbcbcb;"/>
     </g>
     <g id="line2d_19"/>
     <g id="text_14">
      <!-- 0.4 -->
      <g transform="translate(524.677872 309.580087)scale(0.14 -0.14)">
       <use xlink:href="#DejaVuSans-48"/>
       <use x="63.623047" xlink:href="#DejaVuSans-46"/>
       <use x="95.410156" xlink:href="#DejaVuSans-52"/>
      </g>
     </g>
    </g>
    <g id="xtick_6">
     <g id="line2d_20">
      <path clip-path="url(#p6cf7afe2f0)" d="M 603.147684 295.442275 
L 603.147684 30.2604 
" style="fill:none;stroke:#cbcbcb;"/>
     </g>
     <g id="line2d_21"/>
     <g id="text_15">
      <!-- 0.6 -->
      <g transform="translate(592.015497 309.580087)scale(0.14 -0.14)">
       <use xlink:href="#DejaVuSans-48"/>
       <use x="63.623047" xlink:href="#DejaVuSans-46"/>
       <use x="95.410156" xlink:href="#DejaVuSans-54"/>
      </g>
     </g>
    </g>
    <g id="text_16">
     <!-- độ gồ ghề (chuẩn hoá) -->
     <g transform="translate(420.097062 330.9764)scale(0.168 -0.168)">
      <use xlink:href="#DejaVuSans-273"/>
      <use x="63.476562" xlink:href="#DejaVuSans-7897"/>
      <use x="124.658203" xlink:href="#DejaVuSans-32"/>
      <use x="156.445312" xlink:href="#DejaVuSans-103"/>
      <use x="219.921875" xlink:href="#DejaVuSans-7891"/>
      <use x="281.103516" xlink:href="#DejaVuSans-32"/>
      <use x="312.890625" xlink:href="#DejaVuSans-103"/>
      <use x="376.367188" xlink:href="#DejaVuSans-104"/>
      <use x="439.746094" xlink:href="#DejaVuSans-7873"/>
      <use x="501.269531" xlink:href="#DejaVuSans-32"/>
      <use x="533.056641" xlink:href="#DejaVuSans-40"/>
      <use x="572.070312" xlink:href="#DejaVuSans-99"/>
      <use x="627.050781" xlink:href="#DejaVuSans-104"/>
      <use x="690.429688" xlink:href="#DejaVuSans-117"/>
      <use x="753.808594" xlink:href="#DejaVuSans-7849"/>
      <use x="815.087891" xlink:href="#DejaVuSans-110"/>
      <use x="878.466797" xlink:href="#DejaVuSans-32"/>
      <use x="910.253906" xlink:href="#DejaVuSans-104"/>
      <use x="973.632812" xlink:href="#DejaVuSans-111"/>
      <use x="1034.814453" xlink:href="#DejaVuSans-225"/>
      <use x="1096.09375" xlink:href="#DejaVuSans-41"/>
     </g>
    </g>
   </g>
   <g id="matplotlib.axis_4">
    <g id="ytick_5">
     <g id="line2d_22">
      <path clip-path="url(#p6cf7afe2f0)" d="M 401.264125 275.1208 
L 629.631 275.1208 
" style="fill:none;stroke:#cbcbcb;"/>
     </g>
     <g id="line2d_23"/>
     <g id="text_17">
      <!-- 0.8 -->
      <g transform="translate(375.49975 280.439706)scale(0.14 -0.14)">
       <use xlink:href="#DejaVuSans-48"/>
       <use x="63.623047" xlink:href="#DejaVuSans-46"/>
       <use x="95.410156" xlink:href="#DejaVuSans-56"/>
      </g>
     </g>
    </g>
    <g id="ytick_6">
     <g id="line2d_24">
      <path clip-path="url(#p6cf7afe2f0)" d="M 401.264125 227.35199 
L 629.631 227.35199 
" style="fill:none;stroke:#cbcbcb;"/>
     </g>
     <g id="line2d_25"/>
     <g id="text_18">
      <!-- 0.9 -->
      <g transform="translate(375.49975 232.670896)scale(0.14 -0.14)">
       <use xlink:href="#DejaVuSans-48"/>
       <use x="63.623047" xlink:href="#DejaVuSans-46"/>
       <use x="95.410156" xlink:href="#DejaVuSans-57"/>
      </g>
     </g>
    </g>
    <g id="ytick_7">
     <g id="line2d_26">
      <path clip-path="url(#p6cf7afe2f0)" d="M 401.264125 179.583181 
L 629.631 179.583181 
" style="fill:none;stroke:#cbcbcb;"/>
     </g>
     <g id="line2d_27"/>
     <g id="text_19">
      <!-- 1.0 -->
      <g transform="translate(375.49975 184.902087)scale(0.14 -0.14)">
       <use xlink:href="#DejaVuSans-49"/>
       <use x="63.623047" xlink:href="#DejaVuSans-46"/>
       <use x="95.410156" xlink:href="#DejaVuSans-48"/>
      </g>
     </g>
    </g>
    <g id="ytick_8">
     <g id="line2d_28">
      <path clip-path="url(#p6cf7afe2f0)" d="M 401.264125 131.814371 
L 629.631 131.814371 
" style="fill:none;stroke:#cbcbcb;"/>
     </g>
     <g id="line2d_29"/>
     <g id="text_20">
      <!-- 1.1 -->
      <g transform="translate(375.49975 137.133277)scale(0.14 -0.14)">
       <use xlink:href="#DejaVuSans-49"/>
       <use x="63.623047" xlink:href="#DejaVuSans-46"/>
       <use x="95.410156" xlink:href="#DejaVuSans-49"/>
      </g>
     </g>
    </g>
    <g id="ytick_9">
     <g id="line2d_30">
      <path clip-path="url(#p6cf7afe2f0)" d="M 401.264125 84.045561 
L 629.631 84.045561 
" style="fill:none;stroke:#cbcbcb;"/>
     </g>
     <g id="line2d_31"/>
     <g id="text_21">
      <!-- 1.2 -->
      <g transform="translate(375.49975 89.364468)scale(0.14 -0.14)">
       <use xlink:href="#DejaVuSans-49"/>
       <use x="63.623047" xlink:href="#DejaVuSans-46"/>
       <use x="95.410156" xlink:href="#DejaVuSans-50"/>
      </g>
     </g>
    </g>
    <g id="ytick_10">
     <g id="line2d_32">
      <path clip-path="url(#p6cf7afe2f0)" d="M 401.264125 36.276752 
L 629.631 36.276752 
" style="fill:none;stroke:#cbcbcb;"/>
     </g>
     <g id="line2d_33"/>
     <g id="text_22">
      <!-- 1.3 -->
      <g transform="translate(375.49975 41.595658)scale(0.14 -0.14)">
       <defs>
        <path d="M 40.578125 39.3125 
Q 47.65625 37.796875 51.625 33 
Q 55.609375 28.21875 55.609375 21.1875 
Q 55.609375 10.40625 48.1875 4.484375 
Q 40.765625 -1.421875 27.09375 -1.421875 
Q 22.515625 -1.421875 17.65625 -0.515625 
Q 12.796875 0.390625 7.625 2.203125 
L 7.625 11.71875 
Q 11.71875 9.328125 16.59375 8.109375 
Q 21.484375 6.890625 26.8125 6.890625 
Q 36.078125 6.890625 40.9375 10.546875 
Q 45.796875 14.203125 45.796875 21.1875 
Q 45.796875 27.640625 41.28125 31.265625 
Q 36.765625 34.90625 28.71875 34.90625 
L 20.21875 34.90625 
L 20.21875 43.015625 
L 29.109375 43.015625 
Q 36.375 43.015625 40.234375 45.921875 
Q 44.09375 48.828125 44.09375 54.296875 
Q 44.09375 59.90625 40.109375 62.90625 
Q 36.140625 65.921875 28.71875 65.921875 
Q 24.65625 65.921875 20.015625 65.03125 
Q 15.375 64.15625 9.8125 62.3125 
L 9.8125 71.09375 
Q 15.4375 72.65625 20.34375 73.4375 
Q 25.25 74.21875 29.59375 74.21875 
Q 40.828125 74.21875 47.359375 69.109375 
Q 53.90625 64.015625 53.90625 55.328125 
Q 53.90625 49.265625 50.4375 45.09375 
Q 46.96875 40.921875 40.578125 39.3125 
z
" id="DejaVuSans-51"/>
       </defs>
       <use xlink:href="#DejaVuSans-49"/>
       <use x="63.623047" xlink:href="#DejaVuSans-46"/>
       <use x="95.410156" xlink:href="#DejaVuSans-51"/>
      </g>
     </g>
    </g>
    <g id="text_23">
     <!-- log GDP (tỉ lệ với trung bình) -->
     <g transform="translate(368.005875 282.884712)rotate(-90)scale(0.168 -0.168)">
      <use xlink:href="#DejaVuSans-108"/>
      <use x="27.783203" xlink:href="#DejaVuSans-111"/>
      <use x="88.964844" xlink:href="#DejaVuSans-103"/>
      <use x="152.441406" xlink:href="#DejaVuSans-32"/>
      <use x="184.228516" xlink:href="#DejaVuSans-71"/>
      <use x="261.71875" xlink:href="#DejaVuSans-68"/>
      <use x="338.720703" xlink:href="#DejaVuSans-80"/>
      <use x="399.023438" xlink:href="#DejaVuSans-32"/>
      <use x="430.810547" xlink:href="#DejaVuSans-40"/>
      <use x="469.824219" xlink:href="#DejaVuSans-116"/>
      <use x="509.033203" xlink:href="#DejaVuSans-7881"/>
      <use x="536.816406" xlink:href="#DejaVuSans-32"/>
      <use x="568.603516" xlink:href="#DejaVuSans-108"/>
      <use x="596.386719" xlink:href="#DejaVuSans-7879"/>
      <use x="657.910156" xlink:href="#DejaVuSans-32"/>
      <use x="689.697266" xlink:href="#DejaVuSans-118"/>
      <use x="748.876953" xlink:href="#DejaVuSans-7899"/>
      <use x="810.058594" xlink:href="#DejaVuSans-105"/>
      <use x="837.841797" xlink:href="#DejaVuSans-32"/>
      <use x="869.628906" xlink:href="#DejaVuSans-116"/>
      <use x="908.837891" xlink:href="#DejaVuSans-114"/>
      <use x="949.951172" xlink:href="#DejaVuSans-117"/>
      <use x="1013.330078" xlink:href="#DejaVuSans-110"/>
      <use x="1076.708984" xlink:href="#DejaVuSans-103"/>
      <use x="1140.185547" xlink:href="#DejaVuSans-32"/>
      <use x="1171.972656" xlink:href="#DejaVuSans-98"/>
      <use x="1235.449219" xlink:href="#DejaVuSans-236"/>
      <use x="1263.232422" xlink:href="#DejaVuSans-110"/>
      <use x="1326.611328" xlink:href="#DejaVuSans-104"/>
      <use x="1389.990234" xlink:href="#DejaVuSans-41"/>
     </g>
    </g>
   </g>
   <g id="PathCollection_2">
    <g clip-path="url(#p6cf7afe2f0)">
     <use style="fill:#008fd5;fill-opacity:0.8;stroke:#008fd5;stroke-opacity:0.8;" x="548.853438" xlink:href="#mdade73043d" y="196.419442"/>
     <use style="fill:#008fd5;fill-opacity:0.8;stroke:#008fd5;stroke-opacity:0.8;" x="434.282061" xlink:href="#mdade73043d" y="100.157743"/>
     <use style="fill:#008fd5;fill-opacity:0.8;stroke:#008fd5;stroke-opacity:0.8;" x="434.540687" xlink:href="#mdade73043d" y="129.67177"/>
     <use style="fill:#008fd5;fill-opacity:0.8;stroke:#008fd5;stroke-opacity:0.8;" x="516.999319" xlink:href="#mdade73043d" y="220.232645"/>
     <use style="fill:#008fd5;fill-opacity:0.8;stroke:#008fd5;stroke-opacity:0.8;" x="401.393438" xlink:href="#mdade73043d" y="140.579901"/>
     <use style="fill:#008fd5;fill-opacity:0.8;stroke:#008fd5;stroke-opacity:0.8;" x="407.298735" xlink:href="#mdade73043d" y="88.383795"/>
     <use style="fill:#008fd5;fill-opacity:0.8;stroke:#008fd5;stroke-opacity:0.8;" x="552.560413" xlink:href="#mdade73043d" y="81.011847"/>
     <use style="fill:#008fd5;fill-opacity:0.8;stroke:#008fd5;stroke-opacity:0.8;" x="473.205294" xlink:href="#mdade73043d" y="216.885134"/>
     <use style="fill:#008fd5;fill-opacity:0.8;stroke:#008fd5;stroke-opacity:0.8;" x="417.859302" xlink:href="#mdade73043d" y="84.370268"/>
     <use style="fill:#008fd5;fill-opacity:0.8;stroke:#008fd5;stroke-opacity:0.8;" x="409.152222" xlink:href="#mdade73043d" y="247.892021"/>
     <use style="fill:#008fd5;fill-opacity:0.8;stroke:#008fd5;stroke-opacity:0.8;" x="464.886154" xlink:href="#mdade73043d" y="169.548351"/>
     <use style="fill:#008fd5;fill-opacity:0.8;stroke:#008fd5;stroke-opacity:0.8;" x="411.091918" xlink:href="#mdade73043d" y="114.595499"/>
     <use style="fill:#008fd5;fill-opacity:0.8;stroke:#008fd5;stroke-opacity:0.8;" x="403.505551" xlink:href="#mdade73043d" y="111.017961"/>
     <use style="fill:#008fd5;fill-opacity:0.8;stroke:#008fd5;stroke-opacity:0.8;" x="500.748977" xlink:href="#mdade73043d" y="176.364085"/>
     <use style="fill:#008fd5;fill-opacity:0.8;stroke:#008fd5;stroke-opacity:0.8;" x="408.203926" xlink:href="#mdade73043d" y="181.843813"/>
     <use style="fill:#008fd5;fill-opacity:0.8;stroke:#008fd5;stroke-opacity:0.8;" x="427.299156" xlink:href="#mdade73043d" y="170.589186"/>
     <use style="fill:#008fd5;fill-opacity:0.8;stroke:#008fd5;stroke-opacity:0.8;" x="437.902827" xlink:href="#mdade73043d" y="220.770838"/>
     <use style="fill:#008fd5;fill-opacity:0.8;stroke:#008fd5;stroke-opacity:0.8;" x="411.479857" xlink:href="#mdade73043d" y="158.347434"/>
     <use style="fill:#008fd5;fill-opacity:0.8;stroke:#008fd5;stroke-opacity:0.8;" x="442.644306" xlink:href="#mdade73043d" y="116.886449"/>
     <use style="fill:#008fd5;fill-opacity:0.8;stroke:#008fd5;stroke-opacity:0.8;" x="434.540687" xlink:href="#mdade73043d" y="84.398479"/>
     <use style="fill:#008fd5;fill-opacity:0.8;stroke:#008fd5;stroke-opacity:0.8;" x="606.354648" xlink:href="#mdade73043d" y="78.786207"/>
     <use style="fill:#008fd5;fill-opacity:0.8;stroke:#008fd5;stroke-opacity:0.8;" x="508.076718" xlink:href="#mdade73043d" y="145.897502"/>
     <use style="fill:#008fd5;fill-opacity:0.8;stroke:#008fd5;stroke-opacity:0.8;" x="482.084791" xlink:href="#mdade73043d" y="193.108326"/>
     <use style="fill:#008fd5;fill-opacity:0.8;stroke:#008fd5;stroke-opacity:0.8;" x="439.282166" xlink:href="#mdade73043d" y="167.12074"/>
     <use style="fill:#008fd5;fill-opacity:0.8;stroke:#008fd5;stroke-opacity:0.8;" x="492.171211" xlink:href="#mdade73043d" y="149.023643"/>
     <use style="fill:#008fd5;fill-opacity:0.8;stroke:#008fd5;stroke-opacity:0.8;" x="518.29245" xlink:href="#mdade73043d" y="100.942963"/>
     <use style="fill:#008fd5;fill-opacity:0.8;stroke:#008fd5;stroke-opacity:0.8;" x="439.239062" xlink:href="#mdade73043d" y="116.584102"/>
     <use style="fill:#008fd5;fill-opacity:0.8;stroke:#008fd5;stroke-opacity:0.8;" x="426.868112" xlink:href="#mdade73043d" y="88.242773"/>
     <use style="fill:#008fd5;fill-opacity:0.8;stroke:#008fd5;stroke-opacity:0.8;" x="401.264125" xlink:href="#mdade73043d" y="169.995272"/>
     <use style="fill:#008fd5;fill-opacity:0.8;stroke:#008fd5;stroke-opacity:0.8;" x="409.281535" xlink:href="#mdade73043d" y="81.472728"/>
     <use style="fill:#008fd5;fill-opacity:0.8;stroke:#008fd5;stroke-opacity:0.8;" x="471.869059" xlink:href="#mdade73043d" y="165.639034"/>
     <use style="fill:#008fd5;fill-opacity:0.8;stroke:#008fd5;stroke-opacity:0.8;" x="456.222178" xlink:href="#mdade73043d" y="201.64933"/>
     <use style="fill:#008fd5;fill-opacity:0.8;stroke:#008fd5;stroke-opacity:0.8;" x="473.938068" xlink:href="#mdade73043d" y="97.084933"/>
     <use style="fill:#008fd5;fill-opacity:0.8;stroke:#008fd5;stroke-opacity:0.8;" x="406.436648" xlink:href="#mdade73043d" y="142.049935"/>
     <use style="fill:#008fd5;fill-opacity:0.8;stroke:#008fd5;stroke-opacity:0.8;" x="415.273041" xlink:href="#mdade73043d" y="88.083534"/>
     <use style="fill:#008fd5;fill-opacity:0.8;stroke:#008fd5;stroke-opacity:0.8;" x="461.308492" xlink:href="#mdade73043d" y="180.143769"/>
     <use style="fill:#008fd5;fill-opacity:0.8;stroke:#008fd5;stroke-opacity:0.8;" x="448.463394" xlink:href="#mdade73043d" y="87.768086"/>
     <use style="fill:#008fd5;fill-opacity:0.8;stroke:#008fd5;stroke-opacity:0.8;" x="425.618086" xlink:href="#mdade73043d" y="86.401095"/>
     <use style="fill:#008fd5;fill-opacity:0.8;stroke:#008fd5;stroke-opacity:0.8;" x="558.853648" xlink:href="#mdade73043d" y="234.426597"/>
     <use style="fill:#008fd5;fill-opacity:0.8;stroke:#008fd5;stroke-opacity:0.8;" x="534.887627" xlink:href="#mdade73043d" y="109.664944"/>
     <use style="fill:#008fd5;fill-opacity:0.8;stroke:#008fd5;stroke-opacity:0.8;" x="491.136706" xlink:href="#mdade73043d" y="156.566652"/>
     <use style="fill:#008fd5;fill-opacity:0.8;stroke:#008fd5;stroke-opacity:0.8;" x="479.024382" xlink:href="#mdade73043d" y="192.454089"/>
     <use style="fill:#008fd5;fill-opacity:0.8;stroke:#008fd5;stroke-opacity:0.8;" x="412.902301" xlink:href="#mdade73043d" y="191.091236"/>
     <use style="fill:#008fd5;fill-opacity:0.8;stroke:#008fd5;stroke-opacity:0.8;" x="508.938805" xlink:href="#mdade73043d" y="87.555"/>
     <use style="fill:#008fd5;fill-opacity:0.8;stroke:#008fd5;stroke-opacity:0.8;" x="493.809176" xlink:href="#mdade73043d" y="218.314932"/>
     <use style="fill:#008fd5;fill-opacity:0.8;stroke:#008fd5;stroke-opacity:0.8;" x="455.74803" xlink:href="#mdade73043d" y="143.312307"/>
     <use style="fill:#008fd5;fill-opacity:0.8;stroke:#008fd5;stroke-opacity:0.8;" x="502.947299" xlink:href="#mdade73043d" y="236.9286"/>
     <use style="fill:#008fd5;fill-opacity:0.8;stroke:#008fd5;stroke-opacity:0.8;" x="416.048919" xlink:href="#mdade73043d" y="125.031853"/>
     <use style="fill:#008fd5;fill-opacity:0.8;stroke:#008fd5;stroke-opacity:0.8;" x="442.816724" xlink:href="#mdade73043d" y="207.702809"/>
     <use style="fill:#008fd5;fill-opacity:0.8;stroke:#008fd5;stroke-opacity:0.8;" x="444.799524" xlink:href="#mdade73043d" y="220.39247"/>
     <use style="fill:#008fd5;fill-opacity:0.8;stroke:#008fd5;stroke-opacity:0.8;" x="423.247346" xlink:href="#mdade73043d" y="78.100495"/>
     <use style="fill:#008fd5;fill-opacity:0.8;stroke:#008fd5;stroke-opacity:0.8;" x="506.524961" xlink:href="#mdade73043d" y="170.997376"/>
     <use style="fill:#008fd5;fill-opacity:0.8;stroke:#008fd5;stroke-opacity:0.8;" x="464.584423" xlink:href="#mdade73043d" y="81.124973"/>
     <use style="fill:#008fd5;fill-opacity:0.8;stroke:#008fd5;stroke-opacity:0.8;" x="474.627738" xlink:href="#mdade73043d" y="91.935053"/>
     <use style="fill:#008fd5;fill-opacity:0.8;stroke:#008fd5;stroke-opacity:0.8;" x="507.085318" xlink:href="#mdade73043d" y="89.324539"/>
     <use style="fill:#008fd5;fill-opacity:0.8;stroke:#008fd5;stroke-opacity:0.8;" x="478.205399" xlink:href="#mdade73043d" y="197.223699"/>
     <use style="fill:#008fd5;fill-opacity:0.8;stroke:#008fd5;stroke-opacity:0.8;" x="448.42029" xlink:href="#mdade73043d" y="194.285929"/>
     <use style="fill:#008fd5;fill-opacity:0.8;stroke:#008fd5;stroke-opacity:0.8;" x="493.033298" xlink:href="#mdade73043d" y="86.640713"/>
     <use style="fill:#008fd5;fill-opacity:0.8;stroke:#008fd5;stroke-opacity:0.8;" x="417.169632" xlink:href="#mdade73043d" y="184.323339"/>
     <use style="fill:#008fd5;fill-opacity:0.8;stroke:#008fd5;stroke-opacity:0.8;" x="585.923184" xlink:href="#mdade73043d" y="244.904816"/>
     <use style="fill:#008fd5;fill-opacity:0.8;stroke:#008fd5;stroke-opacity:0.8;" x="424.411164" xlink:href="#mdade73043d" y="235.068134"/>
     <use style="fill:#008fd5;fill-opacity:0.8;stroke:#008fd5;stroke-opacity:0.8;" x="401.393438" xlink:href="#mdade73043d" y="134.223656"/>
     <use style="fill:#008fd5;fill-opacity:0.8;stroke:#008fd5;stroke-opacity:0.8;" x="485.619349" xlink:href="#mdade73043d" y="113.741736"/>
     <use style="fill:#008fd5;fill-opacity:0.8;stroke:#008fd5;stroke-opacity:0.8;" x="411.695379" xlink:href="#mdade73043d" y="114.487046"/>
     <use style="fill:#008fd5;fill-opacity:0.8;stroke:#008fd5;stroke-opacity:0.8;" x="511.180231" xlink:href="#mdade73043d" y="244.549976"/>
     <use style="fill:#008fd5;fill-opacity:0.8;stroke:#008fd5;stroke-opacity:0.8;" x="582.043792" xlink:href="#mdade73043d" y="189.140347"/>
     <use style="fill:#008fd5;fill-opacity:0.8;stroke:#008fd5;stroke-opacity:0.8;" x="493.679863" xlink:href="#mdade73043d" y="173.016415"/>
     <use style="fill:#008fd5;fill-opacity:0.8;stroke:#008fd5;stroke-opacity:0.8;" x="429.152643" xlink:href="#mdade73043d" y="197.6069"/>
     <use style="fill:#008fd5;fill-opacity:0.8;stroke:#008fd5;stroke-opacity:0.8;" x="408.678074" xlink:href="#mdade73043d" y="148.082179"/>
     <use style="fill:#008fd5;fill-opacity:0.8;stroke:#008fd5;stroke-opacity:0.8;" x="439.109749" xlink:href="#mdade73043d" y="42.314122"/>
     <use style="fill:#008fd5;fill-opacity:0.8;stroke:#008fd5;stroke-opacity:0.8;" x="407.772883" xlink:href="#mdade73043d" y="153.897502"/>
     <use style="fill:#008fd5;fill-opacity:0.8;stroke:#008fd5;stroke-opacity:0.8;" x="432.6872" xlink:href="#mdade73043d" y="105.952368"/>
     <use style="fill:#008fd5;fill-opacity:0.8;stroke:#008fd5;stroke-opacity:0.8;" x="435.575192" xlink:href="#mdade73043d" y="253.789287"/>
     <use style="fill:#008fd5;fill-opacity:0.8;stroke:#008fd5;stroke-opacity:0.8;" x="475.791556" xlink:href="#mdade73043d" y="146.324931"/>
     <use style="fill:#008fd5;fill-opacity:0.8;stroke:#008fd5;stroke-opacity:0.8;" x="516.007919" xlink:href="#mdade73043d" y="168.798035"/>
     <use style="fill:#008fd5;fill-opacity:0.8;stroke:#008fd5;stroke-opacity:0.8;" x="466.955163" xlink:href="#mdade73043d" y="106.945709"/>
     <use style="fill:#008fd5;fill-opacity:0.8;stroke:#008fd5;stroke-opacity:0.8;" x="446.696116" xlink:href="#mdade73043d" y="242.773032"/>
     <use style="fill:#008fd5;fill-opacity:0.8;stroke:#008fd5;stroke-opacity:0.8;" x="444.627107" xlink:href="#mdade73043d" y="147.07275"/>
     <use style="fill:#008fd5;fill-opacity:0.8;stroke:#008fd5;stroke-opacity:0.8;" x="469.49832" xlink:href="#mdade73043d" y="96.126398"/>
     <use style="fill:#008fd5;fill-opacity:0.8;stroke:#008fd5;stroke-opacity:0.8;" x="443.894333" xlink:href="#mdade73043d" y="203.264705"/>
     <use style="fill:#008fd5;fill-opacity:0.8;stroke:#008fd5;stroke-opacity:0.8;" x="402.729673" xlink:href="#mdade73043d" y="81.747463"/>
     <use style="fill:#008fd5;fill-opacity:0.8;stroke:#008fd5;stroke-opacity:0.8;" x="504.973204" xlink:href="#mdade73043d" y="71.725306"/>
     <use style="fill:#008fd5;fill-opacity:0.8;stroke:#008fd5;stroke-opacity:0.8;" x="618.510076" xlink:href="#mdade73043d" y="254.152214"/>
     <use style="fill:#008fd5;fill-opacity:0.8;stroke:#008fd5;stroke-opacity:0.8;" x="488.981488" xlink:href="#mdade73043d" y="102.918057"/>
     <use style="fill:#008fd5;fill-opacity:0.8;stroke:#008fd5;stroke-opacity:0.8;" x="448.937542" xlink:href="#mdade73043d" y="127.166851"/>
     <use style="fill:#008fd5;fill-opacity:0.8;stroke:#008fd5;stroke-opacity:0.8;" x="485.145201" xlink:href="#mdade73043d" y="233.101969"/>
     <use style="fill:#008fd5;fill-opacity:0.8;stroke:#008fd5;stroke-opacity:0.8;" x="467.515519" xlink:href="#mdade73043d" y="167.837713"/>
     <use style="fill:#008fd5;fill-opacity:0.8;stroke:#008fd5;stroke-opacity:0.8;" x="459.196379" xlink:href="#mdade73043d" y="182.781105"/>
     <use style="fill:#008fd5;fill-opacity:0.8;stroke:#008fd5;stroke-opacity:0.8;" x="488.550445" xlink:href="#mdade73043d" y="191.709148"/>
     <use style="fill:#008fd5;fill-opacity:0.8;stroke:#008fd5;stroke-opacity:0.8;" x="469.627633" xlink:href="#mdade73043d" y="222.506921"/>
     <use style="fill:#008fd5;fill-opacity:0.8;stroke:#008fd5;stroke-opacity:0.8;" x="413.936805" xlink:href="#mdade73043d" y="138.496269"/>
     <use style="fill:#008fd5;fill-opacity:0.8;stroke:#008fd5;stroke-opacity:0.8;" x="463.506814" xlink:href="#mdade73043d" y="95.868022"/>
     <use style="fill:#008fd5;fill-opacity:0.8;stroke:#008fd5;stroke-opacity:0.8;" x="457.342891" xlink:href="#mdade73043d" y="106.947091"/>
     <use style="fill:#008fd5;fill-opacity:0.8;stroke:#008fd5;stroke-opacity:0.8;" x="411.695379" xlink:href="#mdade73043d" y="184.830593"/>
     <use style="fill:#008fd5;fill-opacity:0.8;stroke:#008fd5;stroke-opacity:0.8;" x="490.447036" xlink:href="#mdade73043d" y="90.358009"/>
     <use style="fill:#008fd5;fill-opacity:0.8;stroke:#008fd5;stroke-opacity:0.8;" x="455.74803" xlink:href="#mdade73043d" y="170.397527"/>
     <use style="fill:#008fd5;fill-opacity:0.8;stroke:#008fd5;stroke-opacity:0.8;" x="441.652906" xlink:href="#mdade73043d" y="159.946179"/>
     <use style="fill:#008fd5;fill-opacity:0.8;stroke:#008fd5;stroke-opacity:0.8;" x="440.532193" xlink:href="#mdade73043d" y="128.755883"/>
     <use style="fill:#008fd5;fill-opacity:0.8;stroke:#008fd5;stroke-opacity:0.8;" x="401.824482" xlink:href="#mdade73043d" y="92.51714"/>
     <use style="fill:#008fd5;fill-opacity:0.8;stroke:#008fd5;stroke-opacity:0.8;" x="467.515519" xlink:href="#mdade73043d" y="234.965443"/>
     <use style="fill:#008fd5;fill-opacity:0.8;stroke:#008fd5;stroke-opacity:0.8;" x="476.567434" xlink:href="#mdade73043d" y="184.325304"/>
     <use style="fill:#008fd5;fill-opacity:0.8;stroke:#008fd5;stroke-opacity:0.8;" x="468.377606" xlink:href="#mdade73043d" y="133.830057"/>
     <use style="fill:#008fd5;fill-opacity:0.8;stroke:#008fd5;stroke-opacity:0.8;" x="508.723283" xlink:href="#mdade73043d" y="111.362159"/>
     <use style="fill:#008fd5;fill-opacity:0.8;stroke:#008fd5;stroke-opacity:0.8;" x="431.954426" xlink:href="#mdade73043d" y="87.329228"/>
     <use style="fill:#008fd5;fill-opacity:0.8;stroke:#008fd5;stroke-opacity:0.8;" x="433.721705" xlink:href="#mdade73043d" y="203.874529"/>
     <use style="fill:#008fd5;fill-opacity:0.8;stroke:#008fd5;stroke-opacity:0.8;" x="446.437489" xlink:href="#mdade73043d" y="166.799591"/>
     <use style="fill:#008fd5;fill-opacity:0.8;stroke:#008fd5;stroke-opacity:0.8;" x="629.631" xlink:href="#mdade73043d" y="283.388553"/>
     <use style="fill:#008fd5;fill-opacity:0.8;stroke:#008fd5;stroke-opacity:0.8;" x="413.376449" xlink:href="#mdade73043d" y="196.960589"/>
     <use style="fill:#008fd5;fill-opacity:0.8;stroke:#008fd5;stroke-opacity:0.8;" x="434.454479" xlink:href="#mdade73043d" y="164.274187"/>
     <use style="fill:#008fd5;fill-opacity:0.8;stroke:#008fd5;stroke-opacity:0.8;" x="427.126738" xlink:href="#mdade73043d" y="146.801263"/>
     <use style="fill:#008fd5;fill-opacity:0.8;stroke:#008fd5;stroke-opacity:0.8;" x="514.068223" xlink:href="#mdade73043d" y="164.774794"/>
     <use style="fill:#008fd5;fill-opacity:0.8;stroke:#008fd5;stroke-opacity:0.8;" x="419.066224" xlink:href="#mdade73043d" y="190.590436"/>
     <use style="fill:#008fd5;fill-opacity:0.8;stroke:#008fd5;stroke-opacity:0.8;" x="419.885207" xlink:href="#mdade73043d" y="147.990856"/>
     <use style="fill:#008fd5;fill-opacity:0.8;stroke:#008fd5;stroke-opacity:0.8;" x="447.385785" xlink:href="#mdade73043d" y="72.116306"/>
     <use style="fill:#008fd5;fill-opacity:0.8;stroke:#008fd5;stroke-opacity:0.8;" x="423.807703" xlink:href="#mdade73043d" y="246.52026"/>
     <use style="fill:#008fd5;fill-opacity:0.8;stroke:#008fd5;stroke-opacity:0.8;" x="533.508287" xlink:href="#mdade73043d" y="175.946887"/>
     <use style="fill:#008fd5;fill-opacity:0.8;stroke:#008fd5;stroke-opacity:0.8;" x="428.462973" xlink:href="#mdade73043d" y="172.376733"/>
     <use style="fill:#008fd5;fill-opacity:0.8;stroke:#008fd5;stroke-opacity:0.8;" x="489.671158" xlink:href="#mdade73043d" y="230.641354"/>
     <use style="fill:#008fd5;fill-opacity:0.8;stroke:#008fd5;stroke-opacity:0.8;" x="475.662242" xlink:href="#mdade73043d" y="205.099671"/>
     <use style="fill:#008fd5;fill-opacity:0.8;stroke:#008fd5;stroke-opacity:0.8;" x="473.420816" xlink:href="#mdade73043d" y="181.168633"/>
     <use style="fill:#008fd5;fill-opacity:0.8;stroke:#008fd5;stroke-opacity:0.8;" x="501.26623" xlink:href="#mdade73043d" y="283.225988"/>
    </g>
   </g>
   <g id="PolyCollection_2">
    <path clip-path="url(#p6cf7afe2f0)" d="M 401.264125 125.644867 
L 401.264125 156.161329 
L 403.570861 156.37147 
L 405.877597 156.663564 
L 408.184333 156.780565 
L 410.491069 156.884774 
L 412.797806 157.272341 
L 415.104542 157.401713 
L 417.411278 157.286812 
L 419.718014 157.463759 
L 422.02475 157.973964 
L 424.331486 158.362442 
L 426.638222 158.804901 
L 428.944958 159.185203 
L 431.251694 159.548467 
L 433.558431 159.947884 
L 435.865167 160.190217 
L 438.171903 160.438387 
L 440.478639 160.761719 
L 442.785375 161.221759 
L 445.092111 161.754413 
L 447.398847 162.369821 
L 449.705583 163.066007 
L 452.012319 163.716266 
L 454.319056 164.252824 
L 456.625792 164.6914 
L 458.932528 165.255486 
L 461.239264 165.777402 
L 463.546 166.349051 
L 465.852736 166.897205 
L 468.159472 167.52862 
L 470.466208 168.383295 
L 472.772944 169.050196 
L 475.079681 169.808097 
L 477.386417 170.498695 
L 479.693153 171.316216 
L 481.999889 172.431828 
L 484.306625 173.25016 
L 486.613361 173.888881 
L 488.920097 174.735123 
L 491.226833 175.618071 
L 493.533569 176.478299 
L 495.840306 177.598542 
L 498.147042 178.334213 
L 500.453778 179.475653 
L 502.760514 180.318922 
L 505.06725 181.480131 
L 507.373986 182.499135 
L 509.680722 183.191699 
L 511.987458 183.909597 
L 514.294194 184.897292 
L 516.600931 186.041368 
L 518.907667 187.11909 
L 521.214403 187.941344 
L 523.521139 189.040893 
L 525.827875 190.241217 
L 528.134611 191.439348 
L 530.441347 192.63748 
L 532.748083 193.667549 
L 535.054819 194.668682 
L 537.361556 195.66801 
L 539.668292 196.556007 
L 541.975028 197.63958 
L 544.281764 198.741949 
L 546.5885 199.882978 
L 548.895236 201.024007 
L 551.201972 202.164815 
L 553.508708 203.300569 
L 555.815444 204.436323 
L 558.122181 205.573547 
L 560.428917 206.693419 
L 562.735653 207.723603 
L 565.042389 208.753009 
L 567.349125 209.77944 
L 569.655861 210.805872 
L 571.962597 211.832303 
L 574.269333 212.892948 
L 576.576069 213.899552 
L 578.882806 214.918149 
L 581.189542 215.943294 
L 583.496278 216.96931 
L 585.803014 218.001583 
L 588.10975 219.031476 
L 590.416486 220.109466 
L 592.723222 221.199563 
L 595.029958 222.29224 
L 597.336694 223.474929 
L 599.643431 224.660603 
L 601.950167 225.812766 
L 604.256903 226.807719 
L 606.563639 227.802237 
L 608.870375 228.845826 
L 611.177111 229.914203 
L 613.483847 230.929728 
L 615.790583 231.945253 
L 618.097319 232.986798 
L 620.404056 234.210077 
L 622.710792 235.401896 
L 625.017528 236.498015 
L 627.324264 237.591498 
L 629.631 238.681209 
L 629.631 153.494811 
L 629.631 153.494811 
L 627.324264 153.442081 
L 625.017528 153.389352 
L 622.710792 153.336622 
L 620.404056 153.283893 
L 618.097319 153.231164 
L 615.790583 153.178434 
L 613.483847 153.125705 
L 611.177111 153.072975 
L 608.870375 153.020246 
L 606.563639 152.971317 
L 604.256903 152.922389 
L 601.950167 152.873462 
L 599.643431 152.90484 
L 597.336694 152.983543 
L 595.029958 153.062997 
L 592.723222 153.142451 
L 590.416486 153.221905 
L 588.10975 153.301359 
L 585.803014 153.380813 
L 583.496278 153.460268 
L 581.189542 153.507563 
L 578.882806 153.403184 
L 576.576069 153.417661 
L 574.269333 153.506909 
L 571.962597 153.596157 
L 569.655861 153.685405 
L 567.349125 153.774653 
L 565.042389 153.796154 
L 562.735653 153.697731 
L 560.428917 153.660568 
L 558.122181 153.590721 
L 555.815444 153.469177 
L 553.508708 153.317445 
L 551.201972 153.165713 
L 548.895236 153.013981 
L 546.5885 152.862249 
L 544.281764 152.711828 
L 541.975028 152.565222 
L 539.668292 152.418617 
L 537.361556 152.272122 
L 535.054819 152.126117 
L 532.748083 151.980112 
L 530.441347 151.979597 
L 528.134611 151.995695 
L 525.827875 152.011792 
L 523.521139 152.027889 
L 521.214403 152.043987 
L 518.907667 152.060084 
L 516.600931 151.954797 
L 514.294194 151.850223 
L 511.987458 151.836476 
L 509.680722 151.82274 
L 507.373986 151.815959 
L 505.06725 151.791385 
L 502.760514 151.522548 
L 500.453778 151.346869 
L 498.147042 151.22321 
L 495.840306 151.02709 
L 493.533569 150.83097 
L 491.226833 150.640357 
L 488.920097 150.640317 
L 486.613361 150.386315 
L 484.306625 150.208579 
L 481.999889 149.85933 
L 479.693153 149.455588 
L 477.386417 149.175387 
L 475.079681 148.985531 
L 472.772944 148.791598 
L 470.466208 148.371435 
L 468.159472 147.900076 
L 465.852736 147.624235 
L 463.546 147.102059 
L 461.239264 146.623408 
L 458.932528 146.122643 
L 456.625792 145.378914 
L 454.319056 144.827168 
L 452.012319 144.210781 
L 449.705583 143.64738 
L 447.398847 142.922513 
L 445.092111 142.325409 
L 442.785375 141.743432 
L 440.478639 141.186825 
L 438.171903 140.08792 
L 435.865167 139.454706 
L 433.558431 138.702897 
L 431.251694 137.842204 
L 428.944958 137.015593 
L 426.638222 136.288507 
L 424.331486 135.60313 
L 422.02475 134.70777 
L 419.718014 133.669971 
L 417.411278 132.737239 
L 415.104542 131.716941 
L 412.797806 130.74771 
L 410.491069 129.871647 
L 408.184333 128.864062 
L 405.877597 127.804049 
L 403.570861 126.723252 
L 401.264125 125.644867 
z
" style="fill:#008fd5;fill-opacity:0.15;"/>
   </g>
   <g id="line2d_34">
    <path clip-path="url(#p6cf7afe2f0)" d="M 401.264125 140.014735 
L 403.570861 140.623597 
L 405.877597 141.232458 
L 408.184333 141.84132 
L 410.491069 142.450182 
L 412.797806 143.059044 
L 415.104542 143.667906 
L 417.411278 144.276767 
L 419.718014 144.885629 
L 422.02475 145.494491 
L 424.331486 146.103353 
L 426.638222 146.712215 
L 428.944958 147.321076 
L 431.251694 147.929938 
L 433.558431 148.5388 
L 435.865167 149.147662 
L 438.171903 149.756524 
L 440.478639 150.365385 
L 442.785375 150.974247 
L 445.092111 151.583109 
L 447.398847 152.191971 
L 449.705583 152.800833 
L 452.012319 153.409694 
L 454.319056 154.018556 
L 456.625792 154.627418 
L 458.932528 155.23628 
L 461.239264 155.845142 
L 463.546 156.454003 
L 465.852736 157.062865 
L 468.159472 157.671727 
L 470.466208 158.280589 
L 472.772944 158.889451 
L 475.079681 159.498312 
L 477.386417 160.107174 
L 479.693153 160.716036 
L 481.999889 161.324898 
L 484.306625 161.933759 
L 486.613361 162.542621 
L 488.920097 163.151483 
L 491.226833 163.760345 
L 493.533569 164.369207 
L 495.840306 164.978068 
L 498.147042 165.58693 
L 500.453778 166.195792 
L 502.760514 166.804654 
L 505.06725 167.413516 
L 507.373986 168.022377 
L 509.680722 168.631239 
L 511.987458 169.240101 
L 514.294194 169.848963 
L 516.600931 170.457825 
L 518.907667 171.066686 
L 521.214403 171.675548 
L 523.521139 172.28441 
L 525.827875 172.893272 
L 528.134611 173.502134 
L 530.441347 174.110995 
L 532.748083 174.719857 
L 535.054819 175.328719 
L 537.361556 175.937581 
L 539.668292 176.546443 
L 541.975028 177.155304 
L 544.281764 177.764166 
L 546.5885 178.373028 
L 548.895236 178.98189 
L 551.201972 179.590751 
L 553.508708 180.199613 
L 555.815444 180.808475 
L 558.122181 181.417337 
L 560.428917 182.026199 
L 562.735653 182.63506 
L 565.042389 183.243922 
L 567.349125 183.852784 
L 569.655861 184.461646 
L 571.962597 185.070508 
L 574.269333 185.679369 
L 576.576069 186.288231 
L 578.882806 186.897093 
L 581.189542 187.505955 
L 583.496278 188.114817 
L 585.803014 188.723678 
L 588.10975 189.33254 
L 590.416486 189.941402 
L 592.723222 190.550264 
L 595.029958 191.159126 
L 597.336694 191.767987 
L 599.643431 192.376849 
L 601.950167 192.985711 
L 604.256903 193.594573 
L 606.563639 194.203435 
L 608.870375 194.812296 
L 611.177111 195.421158 
L 613.483847 196.03002 
L 615.790583 196.638882 
L 618.097319 197.247744 
L 620.404056 197.856605 
L 622.710792 198.465467 
L 625.017528 199.074329 
L 627.324264 199.683191 
L 629.631 200.292052 
" style="fill:none;stroke:#008fd5;stroke-width:6;"/>
   </g>
   <g id="patch_8">
    <path d="M 401.264125 295.442275 
L 401.264125 30.2604 
" style="fill:none;stroke:#f0f0f0;stroke-linecap:square;stroke-linejoin:miter;stroke-width:3;"/>
   </g>
   <g id="patch_9">
    <path d="M 629.631 295.442275 
L 629.631 30.2604 
" style="fill:none;stroke:#f0f0f0;stroke-linecap:square;stroke-linejoin:miter;stroke-width:3;"/>
   </g>
   <g id="patch_10">
    <path d="M 401.264125 295.442275 
L 629.631 295.442275 
" style="fill:none;stroke:#f0f0f0;stroke-linecap:square;stroke-linejoin:miter;stroke-width:3;"/>
   </g>
   <g id="patch_11">
    <path d="M 401.264125 30.2604 
L 629.631 30.2604 
" style="fill:none;stroke:#f0f0f0;stroke-linecap:square;stroke-linejoin:miter;stroke-width:3;"/>
   </g>
   <g id="text_24">
    <!-- Switzerland -->
    <g transform="translate(606.354648 78.786207)scale(0.14 -0.14)">
     <defs>
      <path d="M 4.203125 54.6875 
L 13.1875 54.6875 
L 24.421875 12.015625 
L 35.59375 54.6875 
L 46.1875 54.6875 
L 57.421875 12.015625 
L 68.609375 54.6875 
L 77.59375 54.6875 
L 63.28125 0 
L 52.6875 0 
L 40.921875 44.828125 
L 29.109375 0 
L 18.5 0 
z
" id="DejaVuSans-119"/>
      <path d="M 5.515625 54.6875 
L 48.1875 54.6875 
L 48.1875 46.484375 
L 14.40625 7.171875 
L 48.1875 7.171875 
L 48.1875 0 
L 4.296875 0 
L 4.296875 8.203125 
L 38.09375 47.515625 
L 5.515625 47.515625 
z
" id="DejaVuSans-122"/>
      <path d="M 45.40625 46.390625 
L 45.40625 75.984375 
L 54.390625 75.984375 
L 54.390625 0 
L 45.40625 0 
L 45.40625 8.203125 
Q 42.578125 3.328125 38.25 0.953125 
Q 33.9375 -1.421875 27.875 -1.421875 
Q 17.96875 -1.421875 11.734375 6.484375 
Q 5.515625 14.40625 5.515625 27.296875 
Q 5.515625 40.1875 11.734375 48.09375 
Q 17.96875 56 27.875 56 
Q 33.9375 56 38.25 53.625 
Q 42.578125 51.265625 45.40625 46.390625 
z
M 14.796875 27.296875 
Q 14.796875 17.390625 18.875 11.75 
Q 22.953125 6.109375 30.078125 6.109375 
Q 37.203125 6.109375 41.296875 11.75 
Q 45.40625 17.390625 45.40625 27.296875 
Q 45.40625 37.203125 41.296875 42.84375 
Q 37.203125 48.484375 30.078125 48.484375 
Q 22.953125 48.484375 18.875 42.84375 
Q 14.796875 37.203125 14.796875 27.296875 
z
" id="DejaVuSans-100"/>
     </defs>
     <use xlink:href="#DejaVuSans-83"/>
     <use x="63.476562" xlink:href="#DejaVuSans-119"/>
     <use x="145.263672" xlink:href="#DejaVuSans-105"/>
     <use x="173.046875" xlink:href="#DejaVuSans-116"/>
     <use x="212.255859" xlink:href="#DejaVuSans-122"/>
     <use x="264.746094" xlink:href="#DejaVuSans-101"/>
     <use x="326.269531" xlink:href="#DejaVuSans-114"/>
     <use x="367.382812" xlink:href="#DejaVuSans-108"/>
     <use x="395.166016" xlink:href="#DejaVuSans-97"/>
     <use x="456.445312" xlink:href="#DejaVuSans-110"/>
     <use x="519.824219" xlink:href="#DejaVuSans-100"/>
    </g>
   </g>
   <g id="text_25">
    <!-- Tajikistan -->
    <g transform="translate(629.631 283.388553)scale(0.14 -0.14)">
     <defs>
      <path d="M -0.296875 72.90625 
L 61.375 72.90625 
L 61.375 64.59375 
L 35.5 64.59375 
L 35.5 0 
L 25.59375 0 
L 25.59375 64.59375 
L -0.296875 64.59375 
z
" id="DejaVuSans-84"/>
      <path d="M 9.421875 54.6875 
L 18.40625 54.6875 
L 18.40625 -0.984375 
Q 18.40625 -11.421875 14.421875 -16.109375 
Q 10.453125 -20.796875 1.609375 -20.796875 
L -1.8125 -20.796875 
L -1.8125 -13.1875 
L 0.59375 -13.1875 
Q 5.71875 -13.1875 7.5625 -10.8125 
Q 9.421875 -8.453125 9.421875 -0.984375 
z
M 9.421875 75.984375 
L 18.40625 75.984375 
L 18.40625 64.59375 
L 9.421875 64.59375 
z
" id="DejaVuSans-106"/>
      <path d="M 9.078125 75.984375 
L 18.109375 75.984375 
L 18.109375 31.109375 
L 44.921875 54.6875 
L 56.390625 54.6875 
L 27.390625 29.109375 
L 57.625 0 
L 45.90625 0 
L 18.109375 26.703125 
L 18.109375 0 
L 9.078125 0 
z
" id="DejaVuSans-107"/>
     </defs>
     <use xlink:href="#DejaVuSans-84"/>
     <use x="44.583984" xlink:href="#DejaVuSans-97"/>
     <use x="105.863281" xlink:href="#DejaVuSans-106"/>
     <use x="133.646484" xlink:href="#DejaVuSans-105"/>
     <use x="161.429688" xlink:href="#DejaVuSans-107"/>
     <use x="219.339844" xlink:href="#DejaVuSans-105"/>
     <use x="247.123047" xlink:href="#DejaVuSans-115"/>
     <use x="299.222656" xlink:href="#DejaVuSans-116"/>
     <use x="338.431641" xlink:href="#DejaVuSans-97"/>
     <use x="399.710938" xlink:href="#DejaVuSans-110"/>
    </g>
   </g>
   <g id="text_26">
    <!-- Quốc gia không Châu Phi -->
    <g transform="translate(388.784488 24.2604)scale(0.2016 -0.2016)">
     <defs>
      <path d="M 30.609375 48.390625 
Q 23.390625 48.390625 19.1875 42.75 
Q 14.984375 37.109375 14.984375 27.296875 
Q 14.984375 17.484375 19.15625 11.84375 
Q 23.34375 6.203125 30.609375 6.203125 
Q 37.796875 6.203125 41.984375 11.859375 
Q 46.1875 17.53125 46.1875 27.296875 
Q 46.1875 37.015625 41.984375 42.703125 
Q 37.796875 48.390625 30.609375 48.390625 
z
M 30.609375 56 
Q 42.328125 56 49.015625 48.375 
Q 55.71875 40.765625 55.71875 27.296875 
Q 55.71875 13.875 49.015625 6.21875 
Q 42.328125 -1.421875 30.609375 -1.421875 
Q 18.84375 -1.421875 12.171875 6.21875 
Q 5.515625 13.875 5.515625 27.296875 
Q 5.515625 40.765625 12.171875 48.375 
Q 18.84375 56 30.609375 56 
z
M 27 79.984375 
L 34.234375 79.984375 
L 46.1875 61.625 
L 39.40625 61.625 
L 30.609375 73.578125 
L 21.828125 61.625 
L 15.046875 61.625 
z
" id="DejaVuSans-244"/>
     </defs>
     <use xlink:href="#DejaVuSans-81"/>
     <use x="78.710938" xlink:href="#DejaVuSans-117"/>
     <use x="142.089844" xlink:href="#DejaVuSans-7889"/>
     <use x="203.271484" xlink:href="#DejaVuSans-99"/>
     <use x="258.251953" xlink:href="#DejaVuSans-32"/>
     <use x="290.039062" xlink:href="#DejaVuSans-103"/>
     <use x="353.515625" xlink:href="#DejaVuSans-105"/>
     <use x="381.298828" xlink:href="#DejaVuSans-97"/>
     <use x="442.578125" xlink:href="#DejaVuSans-32"/>
     <use x="474.365234" xlink:href="#DejaVuSans-107"/>
     <use x="532.275391" xlink:href="#DejaVuSans-104"/>
     <use x="595.654297" xlink:href="#DejaVuSans-244"/>
     <use x="656.835938" xlink:href="#DejaVuSans-110"/>
     <use x="720.214844" xlink:href="#DejaVuSans-103"/>
     <use x="783.691406" xlink:href="#DejaVuSans-32"/>
     <use x="815.478516" xlink:href="#DejaVuSans-67"/>
     <use x="885.302734" xlink:href="#DejaVuSans-104"/>
     <use x="948.681641" xlink:href="#DejaVuSans-226"/>
     <use x="1009.960938" xlink:href="#DejaVuSans-117"/>
     <use x="1073.339844" xlink:href="#DejaVuSans-32"/>
     <use x="1105.126953" xlink:href="#DejaVuSans-80"/>
     <use x="1165.429688" xlink:href="#DejaVuSans-104"/>
     <use x="1228.808594" xlink:href="#DejaVuSans-105"/>
    </g>
   </g>
  </g>
 </g>
 <defs>
  <clipPath id="p6f4f333ede">
   <rect height="265.181875" width="228.366875" x="54.074125" y="30.2604"/>
  </clipPath>
  <clipPath id="p6cf7afe2f0">
   <rect height="265.181875" width="228.366875" x="401.264125" y="30.2604"/>
  </clipPath>
 </defs>
</svg>
