<?xml version="1.0" encoding="utf-8" standalone="no"?>
<!DOCTYPE svg PUBLIC "-//W3C//DTD SVG 1.1//EN"
  "http://www.w3.org/Graphics/SVG/1.1/DTD/svg11.dtd">
<!-- Created with matplotlib (https://matplotlib.org/) -->
<svg height="269.968625pt" version="1.1" viewBox="0 0 702.48425 269.968625" width="702.48425pt" xmlns="http://www.w3.org/2000/svg" xmlns:xlink="http://www.w3.org/1999/xlink">
 <metadata>
  <rdf:RDF xmlns:cc="http://creativecommons.org/ns#" xmlns:dc="http://purl.org/dc/elements/1.1/" xmlns:rdf="http://www.w3.org/1999/02/22-rdf-syntax-ns#">
   <cc:Work>
    <dc:type rdf:resource="http://purl.org/dc/dcmitype/StillImage"/>
    <dc:date>2021-03-15T13:47:34.011293</dc:date>
    <dc:format>image/svg+xml</dc:format>
    <dc:creator>
     <cc:Agent>
      <dc:title>Matplotlib v3.3.4, https://matplotlib.org/</dc:title>
     </cc:Agent>
    </dc:creator>
   </cc:Work>
  </rdf:RDF>
 </metadata>
 <defs>
  <style type="text/css">*{stroke-linecap:butt;stroke-linejoin:round;}</style>
 </defs>
 <g id="figure_1">
  <g id="patch_1">
   <path d="M 0 269.968625 
L 702.48425 269.968625 
L 702.48425 0 
L 0 0 
z
" style="fill:#f0f0f0;"/>
  </g>
  <g id="axes_1">
   <g id="patch_2">
    <path d="M 48.77425 225.46 
L 329.346574 225.46 
L 329.346574 7.2 
L 48.77425 7.2 
z
" style="fill:#f0f0f0;"/>
   </g>
   <g id="matplotlib.axis_1">
    <g id="xtick_1">
     <g id="line2d_1">
      <path clip-path="url(#p86831824f6)" d="M 58.951116 225.46 
L 58.951116 7.2 
" style="fill:none;stroke:#cbcbcb;"/>
     </g>
     <g id="line2d_2"/>
     <g id="text_1">
      <!-- 0 -->
      <g transform="translate(54.497366 239.597812)scale(0.14 -0.14)">
       <defs>
        <path d="M 31.78125 66.40625 
Q 24.171875 66.40625 20.328125 58.90625 
Q 16.5 51.421875 16.5 36.375 
Q 16.5 21.390625 20.328125 13.890625 
Q 24.171875 6.390625 31.78125 6.390625 
Q 39.453125 6.390625 43.28125 13.890625 
Q 47.125 21.390625 47.125 36.375 
Q 47.125 51.421875 43.28125 58.90625 
Q 39.453125 66.40625 31.78125 66.40625 
z
M 31.78125 74.21875 
Q 44.046875 74.21875 50.515625 64.515625 
Q 56.984375 54.828125 56.984375 36.375 
Q 56.984375 17.96875 50.515625 8.265625 
Q 44.046875 -1.421875 31.78125 -1.421875 
Q 19.53125 -1.421875 13.0625 8.265625 
Q 6.59375 17.96875 6.59375 36.375 
Q 6.59375 54.828125 13.0625 64.515625 
Q 19.53125 74.21875 31.78125 74.21875 
z
" id="DejaVuSans-48"/>
       </defs>
       <use xlink:href="#DejaVuSans-48"/>
      </g>
     </g>
    </g>
    <g id="xtick_2">
     <g id="line2d_3">
      <path clip-path="url(#p86831824f6)" d="M 110.47955 225.46 
L 110.47955 7.2 
" style="fill:none;stroke:#cbcbcb;"/>
     </g>
     <g id="line2d_4"/>
     <g id="text_2">
      <!-- 20 -->
      <g transform="translate(101.57205 239.597812)scale(0.14 -0.14)">
       <defs>
        <path d="M 19.1875 8.296875 
L 53.609375 8.296875 
L 53.609375 0 
L 7.328125 0 
L 7.328125 8.296875 
Q 12.9375 14.109375 22.625 23.890625 
Q 32.328125 33.6875 34.8125 36.53125 
Q 39.546875 41.84375 41.421875 45.53125 
Q 43.3125 49.21875 43.3125 52.78125 
Q 43.3125 58.59375 39.234375 62.25 
Q 35.15625 65.921875 28.609375 65.921875 
Q 23.96875 65.921875 18.8125 64.3125 
Q 13.671875 62.703125 7.8125 59.421875 
L 7.8125 69.390625 
Q 13.765625 71.78125 18.9375 73 
Q 24.125 74.21875 28.421875 74.21875 
Q 39.75 74.21875 46.484375 68.546875 
Q 53.21875 62.890625 53.21875 53.421875 
Q 53.21875 48.921875 51.53125 44.890625 
Q 49.859375 40.875 45.40625 35.40625 
Q 44.1875 33.984375 37.640625 27.21875 
Q 31.109375 20.453125 19.1875 8.296875 
z
" id="DejaVuSans-50"/>
       </defs>
       <use xlink:href="#DejaVuSans-50"/>
       <use x="63.623047" xlink:href="#DejaVuSans-48"/>
      </g>
     </g>
    </g>
    <g id="xtick_3">
     <g id="line2d_5">
      <path clip-path="url(#p86831824f6)" d="M 162.007984 225.46 
L 162.007984 7.2 
" style="fill:none;stroke:#cbcbcb;"/>
     </g>
     <g id="line2d_6"/>
     <g id="text_3">
      <!-- 40 -->
      <g transform="translate(153.100484 239.597812)scale(0.14 -0.14)">
       <defs>
        <path d="M 37.796875 64.3125 
L 12.890625 25.390625 
L 37.796875 25.390625 
z
M 35.203125 72.90625 
L 47.609375 72.90625 
L 47.609375 25.390625 
L 58.015625 25.390625 
L 58.015625 17.1875 
L 47.609375 17.1875 
L 47.609375 0 
L 37.796875 0 
L 37.796875 17.1875 
L 4.890625 17.1875 
L 4.890625 26.703125 
z
" id="DejaVuSans-52"/>
       </defs>
       <use xlink:href="#DejaVuSans-52"/>
       <use x="63.623047" xlink:href="#DejaVuSans-48"/>
      </g>
     </g>
    </g>
    <g id="xtick_4">
     <g id="line2d_7">
      <path clip-path="url(#p86831824f6)" d="M 213.536418 225.46 
L 213.536418 7.2 
" style="fill:none;stroke:#cbcbcb;"/>
     </g>
     <g id="line2d_8"/>
     <g id="text_4">
      <!-- 60 -->
      <g transform="translate(204.628918 239.597812)scale(0.14 -0.14)">
       <defs>
        <path d="M 33.015625 40.375 
Q 26.375 40.375 22.484375 35.828125 
Q 18.609375 31.296875 18.609375 23.390625 
Q 18.609375 15.53125 22.484375 10.953125 
Q 26.375 6.390625 33.015625 6.390625 
Q 39.65625 6.390625 43.53125 10.953125 
Q 47.40625 15.53125 47.40625 23.390625 
Q 47.40625 31.296875 43.53125 35.828125 
Q 39.65625 40.375 33.015625 40.375 
z
M 52.59375 71.296875 
L 52.59375 62.3125 
Q 48.875 64.0625 45.09375 64.984375 
Q 41.3125 65.921875 37.59375 65.921875 
Q 27.828125 65.921875 22.671875 59.328125 
Q 17.53125 52.734375 16.796875 39.40625 
Q 19.671875 43.65625 24.015625 45.921875 
Q 28.375 48.1875 33.59375 48.1875 
Q 44.578125 48.1875 50.953125 41.515625 
Q 57.328125 34.859375 57.328125 23.390625 
Q 57.328125 12.15625 50.6875 5.359375 
Q 44.046875 -1.421875 33.015625 -1.421875 
Q 20.359375 -1.421875 13.671875 8.265625 
Q 6.984375 17.96875 6.984375 36.375 
Q 6.984375 53.65625 15.1875 63.9375 
Q 23.390625 74.21875 37.203125 74.21875 
Q 40.921875 74.21875 44.703125 73.484375 
Q 48.484375 72.75 52.59375 71.296875 
z
" id="DejaVuSans-54"/>
       </defs>
       <use xlink:href="#DejaVuSans-54"/>
       <use x="63.623047" xlink:href="#DejaVuSans-48"/>
      </g>
     </g>
    </g>
    <g id="xtick_5">
     <g id="line2d_9">
      <path clip-path="url(#p86831824f6)" d="M 265.064853 225.46 
L 265.064853 7.2 
" style="fill:none;stroke:#cbcbcb;"/>
     </g>
     <g id="line2d_10"/>
     <g id="text_5">
      <!-- 80 -->
      <g transform="translate(256.157353 239.597812)scale(0.14 -0.14)">
       <defs>
        <path d="M 31.78125 34.625 
Q 24.75 34.625 20.71875 30.859375 
Q 16.703125 27.09375 16.703125 20.515625 
Q 16.703125 13.921875 20.71875 10.15625 
Q 24.75 6.390625 31.78125 6.390625 
Q 38.8125 6.390625 42.859375 10.171875 
Q 46.921875 13.96875 46.921875 20.515625 
Q 46.921875 27.09375 42.890625 30.859375 
Q 38.875 34.625 31.78125 34.625 
z
M 21.921875 38.8125 
Q 15.578125 40.375 12.03125 44.71875 
Q 8.5 49.078125 8.5 55.328125 
Q 8.5 64.0625 14.71875 69.140625 
Q 20.953125 74.21875 31.78125 74.21875 
Q 42.671875 74.21875 48.875 69.140625 
Q 55.078125 64.0625 55.078125 55.328125 
Q 55.078125 49.078125 51.53125 44.71875 
Q 48 40.375 41.703125 38.8125 
Q 48.828125 37.15625 52.796875 32.3125 
Q 56.78125 27.484375 56.78125 20.515625 
Q 56.78125 9.90625 50.3125 4.234375 
Q 43.84375 -1.421875 31.78125 -1.421875 
Q 19.734375 -1.421875 13.25 4.234375 
Q 6.78125 9.90625 6.78125 20.515625 
Q 6.78125 27.484375 10.78125 32.3125 
Q 14.796875 37.15625 21.921875 38.8125 
z
M 18.3125 54.390625 
Q 18.3125 48.734375 21.84375 45.5625 
Q 25.390625 42.390625 31.78125 42.390625 
Q 38.140625 42.390625 41.71875 45.5625 
Q 45.3125 48.734375 45.3125 54.390625 
Q 45.3125 60.0625 41.71875 63.234375 
Q 38.140625 66.40625 31.78125 66.40625 
Q 25.390625 66.40625 21.84375 63.234375 
Q 18.3125 60.0625 18.3125 54.390625 
z
" id="DejaVuSans-56"/>
       </defs>
       <use xlink:href="#DejaVuSans-56"/>
       <use x="63.623047" xlink:href="#DejaVuSans-48"/>
      </g>
     </g>
    </g>
    <g id="xtick_6">
     <g id="line2d_11">
      <path clip-path="url(#p86831824f6)" d="M 316.593287 225.46 
L 316.593287 7.2 
" style="fill:none;stroke:#cbcbcb;"/>
     </g>
     <g id="line2d_12"/>
     <g id="text_6">
      <!-- 100 -->
      <g transform="translate(303.232037 239.597812)scale(0.14 -0.14)">
       <defs>
        <path d="M 12.40625 8.296875 
L 28.515625 8.296875 
L 28.515625 63.921875 
L 10.984375 60.40625 
L 10.984375 69.390625 
L 28.421875 72.90625 
L 38.28125 72.90625 
L 38.28125 8.296875 
L 54.390625 8.296875 
L 54.390625 0 
L 12.40625 0 
z
" id="DejaVuSans-49"/>
       </defs>
       <use xlink:href="#DejaVuSans-49"/>
       <use x="63.623047" xlink:href="#DejaVuSans-48"/>
       <use x="127.246094" xlink:href="#DejaVuSans-48"/>
      </g>
     </g>
    </g>
    <g id="text_7">
     <!-- tuần -->
     <g transform="translate(169.972725 259.27475)scale(0.168 -0.168)">
      <defs>
       <path d="M 18.3125 70.21875 
L 18.3125 54.6875 
L 36.8125 54.6875 
L 36.8125 47.703125 
L 18.3125 47.703125 
L 18.3125 18.015625 
Q 18.3125 11.328125 20.140625 9.421875 
Q 21.96875 7.515625 27.59375 7.515625 
L 36.8125 7.515625 
L 36.8125 0 
L 27.59375 0 
Q 17.1875 0 13.234375 3.875 
Q 9.28125 7.765625 9.28125 18.015625 
L 9.28125 47.703125 
L 2.6875 47.703125 
L 2.6875 54.6875 
L 9.28125 54.6875 
L 9.28125 70.21875 
z
" id="DejaVuSans-116"/>
       <path d="M 8.5 21.578125 
L 8.5 54.6875 
L 17.484375 54.6875 
L 17.484375 21.921875 
Q 17.484375 14.15625 20.5 10.265625 
Q 23.53125 6.390625 29.59375 6.390625 
Q 36.859375 6.390625 41.078125 11.03125 
Q 45.3125 15.671875 45.3125 23.6875 
L 45.3125 54.6875 
L 54.296875 54.6875 
L 54.296875 0 
L 45.3125 0 
L 45.3125 8.40625 
Q 42.046875 3.421875 37.71875 1 
Q 33.40625 -1.421875 27.6875 -1.421875 
Q 18.265625 -1.421875 13.375 4.4375 
Q 8.5 10.296875 8.5 21.578125 
z
M 31.109375 56 
z
" id="DejaVuSans-117"/>
       <path d="M 34.28125 27.484375 
Q 23.390625 27.484375 19.1875 25 
Q 14.984375 22.515625 14.984375 16.5 
Q 14.984375 11.71875 18.140625 8.90625 
Q 21.296875 6.109375 26.703125 6.109375 
Q 34.1875 6.109375 38.703125 11.40625 
Q 43.21875 16.703125 43.21875 25.484375 
L 43.21875 27.484375 
z
M 52.203125 31.203125 
L 52.203125 0 
L 43.21875 0 
L 43.21875 8.296875 
Q 40.140625 3.328125 35.546875 0.953125 
Q 30.953125 -1.421875 24.3125 -1.421875 
Q 15.921875 -1.421875 10.953125 3.296875 
Q 6 8.015625 6 15.921875 
Q 6 25.140625 12.171875 29.828125 
Q 18.359375 34.515625 30.609375 34.515625 
L 43.21875 34.515625 
L 43.21875 35.40625 
Q 43.21875 41.609375 39.140625 45 
Q 35.0625 48.390625 27.6875 48.390625 
Q 23 48.390625 18.546875 47.265625 
Q 14.109375 46.140625 10.015625 43.890625 
L 10.015625 52.203125 
Q 14.9375 54.109375 19.578125 55.046875 
Q 24.21875 56 28.609375 56 
Q 40.484375 56 46.34375 49.84375 
Q 52.203125 43.703125 52.203125 31.203125 
z
M 40.484375 84.671875 
L 50.046875 71.78125 
L 42.578125 71.78125 
L 31.34375 84.671875 
z
M 24.3125 74.65625 
L 33.5 74.65625 
L 43.796875 61.671875 
L 37.015625 61.671875 
L 28.90625 70.359375 
L 20.796875 61.671875 
L 14.015625 61.671875 
z
" id="DejaVuSans-7847"/>
       <path d="M 54.890625 33.015625 
L 54.890625 0 
L 45.90625 0 
L 45.90625 32.71875 
Q 45.90625 40.484375 42.875 44.328125 
Q 39.84375 48.1875 33.796875 48.1875 
Q 26.515625 48.1875 22.3125 43.546875 
Q 18.109375 38.921875 18.109375 30.90625 
L 18.109375 0 
L 9.078125 0 
L 9.078125 54.6875 
L 18.109375 54.6875 
L 18.109375 46.1875 
Q 21.34375 51.125 25.703125 53.5625 
Q 30.078125 56 35.796875 56 
Q 45.21875 56 50.046875 50.171875 
Q 54.890625 44.34375 54.890625 33.015625 
z
" id="DejaVuSans-110"/>
      </defs>
      <use xlink:href="#DejaVuSans-116"/>
      <use x="39.208984" xlink:href="#DejaVuSans-117"/>
      <use x="102.587891" xlink:href="#DejaVuSans-7847"/>
      <use x="163.867188" xlink:href="#DejaVuSans-110"/>
     </g>
    </g>
   </g>
   <g id="matplotlib.axis_2">
    <g id="ytick_1">
     <g id="line2d_13">
      <path clip-path="url(#p86831824f6)" d="M 48.77425 193.492626 
L 329.346574 193.492626 
" style="fill:none;stroke:#cbcbcb;"/>
     </g>
     <g id="line2d_14"/>
     <g id="text_8">
      <!-- 2 -->
      <g transform="translate(36.36675 198.811533)scale(0.14 -0.14)">
       <use xlink:href="#DejaVuSans-50"/>
      </g>
     </g>
    </g>
    <g id="ytick_2">
     <g id="line2d_15">
      <path clip-path="url(#p86831824f6)" d="M 48.77425 149.399697 
L 329.346574 149.399697 
" style="fill:none;stroke:#cbcbcb;"/>
     </g>
     <g id="line2d_16"/>
     <g id="text_9">
      <!-- 4 -->
      <g transform="translate(36.36675 154.718603)scale(0.14 -0.14)">
       <use xlink:href="#DejaVuSans-52"/>
      </g>
     </g>
    </g>
    <g id="ytick_3">
     <g id="line2d_17">
      <path clip-path="url(#p86831824f6)" d="M 48.77425 105.306768 
L 329.346574 105.306768 
" style="fill:none;stroke:#cbcbcb;"/>
     </g>
     <g id="line2d_18"/>
     <g id="text_10">
      <!-- 6 -->
      <g transform="translate(36.36675 110.625674)scale(0.14 -0.14)">
       <use xlink:href="#DejaVuSans-54"/>
      </g>
     </g>
    </g>
    <g id="ytick_4">
     <g id="line2d_19">
      <path clip-path="url(#p86831824f6)" d="M 48.77425 61.213838 
L 329.346574 61.213838 
" style="fill:none;stroke:#cbcbcb;"/>
     </g>
     <g id="line2d_20"/>
     <g id="text_11">
      <!-- 8 -->
      <g transform="translate(36.36675 66.532745)scale(0.14 -0.14)">
       <use xlink:href="#DejaVuSans-56"/>
      </g>
     </g>
    </g>
    <g id="ytick_5">
     <g id="line2d_21">
      <path clip-path="url(#p86831824f6)" d="M 48.77425 17.120909 
L 329.346574 17.120909 
" style="fill:none;stroke:#cbcbcb;"/>
     </g>
     <g id="line2d_22"/>
     <g id="text_12">
      <!-- 10 -->
      <g transform="translate(27.45925 22.439815)scale(0.14 -0.14)">
       <use xlink:href="#DejaVuSans-49"/>
       <use x="63.623047" xlink:href="#DejaVuSans-48"/>
      </g>
     </g>
    </g>
    <g id="text_13">
     <!-- đảo -->
     <g transform="translate(19.965375 131.950062)rotate(-90)scale(0.168 -0.168)">
      <defs>
       <path d="M 45.40625 46.390625 
L 45.40625 62.703125 
L 29.5 62.703125 
L 29.5 68.796875 
L 45.40625 68.796875 
L 45.40625 75.984375 
L 54.390625 75.984375 
L 54.390625 68.796875 
L 61.921875 68.796875 
L 61.921875 62.703125 
L 54.390625 62.703125 
L 54.390625 0 
L 45.40625 0 
L 45.40625 8.203125 
Q 42.578125 3.328125 38.25 0.953125 
Q 33.9375 -1.421875 27.875 -1.421875 
Q 17.96875 -1.421875 11.734375 6.484375 
Q 5.515625 14.40625 5.515625 27.296875 
Q 5.515625 40.1875 11.734375 48.09375 
Q 17.96875 56 27.875 56 
Q 33.9375 56 38.25 53.625 
Q 42.578125 51.265625 45.40625 46.390625 
z
M 14.796875 27.296875 
Q 14.796875 17.390625 18.875 11.75 
Q 22.953125 6.109375 30.078125 6.109375 
Q 37.203125 6.109375 41.296875 11.75 
Q 45.40625 17.390625 45.40625 27.296875 
Q 45.40625 37.203125 41.296875 42.84375 
Q 37.203125 48.484375 30.078125 48.484375 
Q 22.953125 48.484375 18.875 42.84375 
Q 14.796875 37.203125 14.796875 27.296875 
z
" id="DejaVuSans-273"/>
       <path d="M 34.28125 27.484375 
Q 23.390625 27.484375 19.1875 25 
Q 14.984375 22.515625 14.984375 16.5 
Q 14.984375 11.71875 18.140625 8.90625 
Q 21.296875 6.109375 26.703125 6.109375 
Q 34.1875 6.109375 38.703125 11.40625 
Q 43.21875 16.703125 43.21875 25.484375 
L 43.21875 27.484375 
z
M 52.203125 31.203125 
L 52.203125 0 
L 43.21875 0 
L 43.21875 8.296875 
Q 40.140625 3.328125 35.546875 0.953125 
Q 30.953125 -1.421875 24.3125 -1.421875 
Q 15.921875 -1.421875 10.953125 3.296875 
Q 6 8.015625 6 15.921875 
Q 6 25.140625 12.171875 29.828125 
Q 18.359375 34.515625 30.609375 34.515625 
L 43.21875 34.515625 
L 43.21875 35.40625 
Q 43.21875 41.609375 39.140625 45 
Q 35.0625 48.390625 27.6875 48.390625 
Q 23 48.390625 18.546875 47.265625 
Q 14.109375 46.140625 10.015625 43.890625 
L 10.015625 52.203125 
Q 14.9375 54.109375 19.578125 55.046875 
Q 24.21875 56 28.609375 56 
Q 40.484375 56 46.34375 49.84375 
Q 52.203125 43.703125 52.203125 31.203125 
z
M 19.28125 78.515625 
Q 24.75 81 29.890625 81 
Q 34.96875 81 38.0625 78.921875 
Q 41.15625 76.859375 41.15625 73.578125 
Q 41.15625 70.609375 36.859375 67.4375 
L 34.71875 65.875 
Q 33.015625 64.59375 32.8125 64.15625 
Q 32.46875 63.375 32.46875 61.8125 
L 26.65625 61.8125 
L 26.65625 62.40625 
Q 26.65625 64.359375 27.390625 65.671875 
Q 28.125 67 30.609375 68.796875 
L 32.8125 70.453125 
Q 35.0625 72.125 35.0625 74.078125 
Q 35.0625 75.09375 33.546875 75.96875 
Q 32.03125 76.859375 28.5625 76.859375 
Q 24.171875 76.859375 19.28125 74.3125 
z
" id="DejaVuSans-7843"/>
       <path d="M 30.609375 48.390625 
Q 23.390625 48.390625 19.1875 42.75 
Q 14.984375 37.109375 14.984375 27.296875 
Q 14.984375 17.484375 19.15625 11.84375 
Q 23.34375 6.203125 30.609375 6.203125 
Q 37.796875 6.203125 41.984375 11.859375 
Q 46.1875 17.53125 46.1875 27.296875 
Q 46.1875 37.015625 41.984375 42.703125 
Q 37.796875 48.390625 30.609375 48.390625 
z
M 30.609375 56 
Q 42.328125 56 49.015625 48.375 
Q 55.71875 40.765625 55.71875 27.296875 
Q 55.71875 13.875 49.015625 6.21875 
Q 42.328125 -1.421875 30.609375 -1.421875 
Q 18.84375 -1.421875 12.171875 6.21875 
Q 5.515625 13.875 5.515625 27.296875 
Q 5.515625 40.765625 12.171875 48.375 
Q 18.84375 56 30.609375 56 
z
" id="DejaVuSans-111"/>
      </defs>
      <use xlink:href="#DejaVuSans-273"/>
      <use x="63.476562" xlink:href="#DejaVuSans-7843"/>
      <use x="124.755859" xlink:href="#DejaVuSans-111"/>
     </g>
    </g>
   </g>
   <g id="line2d_23">
    <defs>
     <path d="M 0 3 
C 0.795609 3 1.55874 2.683901 2.12132 2.12132 
C 2.683901 1.55874 3 0.795609 3 0 
C 3 -0.795609 2.683901 -1.55874 2.12132 -2.12132 
C 1.55874 -2.683901 0.795609 -3 0 -3 
C -0.795609 -3 -1.55874 -2.683901 -2.12132 -2.12132 
C -2.683901 -1.55874 -3 -0.795609 -3 0 
C -3 0.795609 -2.683901 1.55874 -2.12132 2.12132 
C -1.55874 2.683901 -0.795609 3 0 3 
z
" id="m619f5f7f21" style="stroke:#008fd5;"/>
    </defs>
    <g clip-path="url(#p86831824f6)">
     <use style="fill-opacity:0;stroke:#008fd5;" x="61.527537" xlink:href="#m619f5f7f21" y="17.120909"/>
     <use style="fill-opacity:0;stroke:#008fd5;" x="64.103959" xlink:href="#m619f5f7f21" y="39.167374"/>
     <use style="fill-opacity:0;stroke:#008fd5;" x="66.680381" xlink:href="#m619f5f7f21" y="17.120909"/>
     <use style="fill-opacity:0;stroke:#008fd5;" x="69.256803" xlink:href="#m619f5f7f21" y="17.120909"/>
     <use style="fill-opacity:0;stroke:#008fd5;" x="71.833224" xlink:href="#m619f5f7f21" y="39.167374"/>
     <use style="fill-opacity:0;stroke:#008fd5;" x="74.409646" xlink:href="#m619f5f7f21" y="61.213838"/>
     <use style="fill-opacity:0;stroke:#008fd5;" x="76.986068" xlink:href="#m619f5f7f21" y="83.260303"/>
     <use style="fill-opacity:0;stroke:#008fd5;" x="79.562489" xlink:href="#m619f5f7f21" y="105.306768"/>
     <use style="fill-opacity:0;stroke:#008fd5;" x="82.138911" xlink:href="#m619f5f7f21" y="83.260303"/>
     <use style="fill-opacity:0;stroke:#008fd5;" x="84.715333" xlink:href="#m619f5f7f21" y="105.306768"/>
     <use style="fill-opacity:0;stroke:#008fd5;" x="87.291755" xlink:href="#m619f5f7f21" y="83.260303"/>
     <use style="fill-opacity:0;stroke:#008fd5;" x="89.868176" xlink:href="#m619f5f7f21" y="61.213838"/>
     <use style="fill-opacity:0;stroke:#008fd5;" x="92.444598" xlink:href="#m619f5f7f21" y="83.260303"/>
     <use style="fill-opacity:0;stroke:#008fd5;" x="95.02102" xlink:href="#m619f5f7f21" y="83.260303"/>
     <use style="fill-opacity:0;stroke:#008fd5;" x="97.597441" xlink:href="#m619f5f7f21" y="105.306768"/>
     <use style="fill-opacity:0;stroke:#008fd5;" x="100.173863" xlink:href="#m619f5f7f21" y="127.353232"/>
     <use style="fill-opacity:0;stroke:#008fd5;" x="102.750285" xlink:href="#m619f5f7f21" y="105.306768"/>
     <use style="fill-opacity:0;stroke:#008fd5;" x="105.326707" xlink:href="#m619f5f7f21" y="105.306768"/>
     <use style="fill-opacity:0;stroke:#008fd5;" x="107.903128" xlink:href="#m619f5f7f21" y="127.353232"/>
     <use style="fill-opacity:0;stroke:#008fd5;" x="110.47955" xlink:href="#m619f5f7f21" y="105.306768"/>
     <use style="fill-opacity:0;stroke:#008fd5;" x="113.055972" xlink:href="#m619f5f7f21" y="127.353232"/>
     <use style="fill-opacity:0;stroke:#008fd5;" x="115.632393" xlink:href="#m619f5f7f21" y="105.306768"/>
     <use style="fill-opacity:0;stroke:#008fd5;" x="118.208815" xlink:href="#m619f5f7f21" y="105.306768"/>
     <use style="fill-opacity:0;stroke:#008fd5;" x="120.785237" xlink:href="#m619f5f7f21" y="127.353232"/>
     <use style="fill-opacity:0;stroke:#008fd5;" x="123.361659" xlink:href="#m619f5f7f21" y="105.306768"/>
     <use style="fill-opacity:0;stroke:#008fd5;" x="125.93808" xlink:href="#m619f5f7f21" y="127.353232"/>
     <use style="fill-opacity:0;stroke:#008fd5;" x="128.514502" xlink:href="#m619f5f7f21" y="105.306768"/>
     <use style="fill-opacity:0;stroke:#008fd5;" x="131.090924" xlink:href="#m619f5f7f21" y="127.353232"/>
     <use style="fill-opacity:0;stroke:#008fd5;" x="133.667345" xlink:href="#m619f5f7f21" y="149.399697"/>
     <use style="fill-opacity:0;stroke:#008fd5;" x="136.243767" xlink:href="#m619f5f7f21" y="127.353232"/>
     <use style="fill-opacity:0;stroke:#008fd5;" x="138.820189" xlink:href="#m619f5f7f21" y="105.306768"/>
     <use style="fill-opacity:0;stroke:#008fd5;" x="141.396611" xlink:href="#m619f5f7f21" y="83.260303"/>
     <use style="fill-opacity:0;stroke:#008fd5;" x="143.973032" xlink:href="#m619f5f7f21" y="83.260303"/>
     <use style="fill-opacity:0;stroke:#008fd5;" x="146.549454" xlink:href="#m619f5f7f21" y="105.306768"/>
     <use style="fill-opacity:0;stroke:#008fd5;" x="149.125876" xlink:href="#m619f5f7f21" y="83.260303"/>
     <use style="fill-opacity:0;stroke:#008fd5;" x="151.702297" xlink:href="#m619f5f7f21" y="61.213838"/>
     <use style="fill-opacity:0;stroke:#008fd5;" x="154.278719" xlink:href="#m619f5f7f21" y="83.260303"/>
     <use style="fill-opacity:0;stroke:#008fd5;" x="156.855141" xlink:href="#m619f5f7f21" y="61.213838"/>
     <use style="fill-opacity:0;stroke:#008fd5;" x="159.431563" xlink:href="#m619f5f7f21" y="83.260303"/>
     <use style="fill-opacity:0;stroke:#008fd5;" x="162.007984" xlink:href="#m619f5f7f21" y="105.306768"/>
     <use style="fill-opacity:0;stroke:#008fd5;" x="164.584406" xlink:href="#m619f5f7f21" y="127.353232"/>
     <use style="fill-opacity:0;stroke:#008fd5;" x="167.160828" xlink:href="#m619f5f7f21" y="127.353232"/>
     <use style="fill-opacity:0;stroke:#008fd5;" x="169.737249" xlink:href="#m619f5f7f21" y="105.306768"/>
     <use style="fill-opacity:0;stroke:#008fd5;" x="172.313671" xlink:href="#m619f5f7f21" y="83.260303"/>
     <use style="fill-opacity:0;stroke:#008fd5;" x="174.890093" xlink:href="#m619f5f7f21" y="61.213838"/>
     <use style="fill-opacity:0;stroke:#008fd5;" x="177.466514" xlink:href="#m619f5f7f21" y="83.260303"/>
     <use style="fill-opacity:0;stroke:#008fd5;" x="180.042936" xlink:href="#m619f5f7f21" y="61.213838"/>
     <use style="fill-opacity:0;stroke:#008fd5;" x="182.619358" xlink:href="#m619f5f7f21" y="39.167374"/>
     <use style="fill-opacity:0;stroke:#008fd5;" x="185.19578" xlink:href="#m619f5f7f21" y="61.213838"/>
     <use style="fill-opacity:0;stroke:#008fd5;" x="187.772201" xlink:href="#m619f5f7f21" y="83.260303"/>
     <use style="fill-opacity:0;stroke:#008fd5;" x="190.348623" xlink:href="#m619f5f7f21" y="105.306768"/>
     <use style="fill-opacity:0;stroke:#008fd5;" x="192.925045" xlink:href="#m619f5f7f21" y="127.353232"/>
     <use style="fill-opacity:0;stroke:#008fd5;" x="195.501466" xlink:href="#m619f5f7f21" y="127.353232"/>
     <use style="fill-opacity:0;stroke:#008fd5;" x="198.077888" xlink:href="#m619f5f7f21" y="149.399697"/>
     <use style="fill-opacity:0;stroke:#008fd5;" x="200.65431" xlink:href="#m619f5f7f21" y="127.353232"/>
     <use style="fill-opacity:0;stroke:#008fd5;" x="203.230732" xlink:href="#m619f5f7f21" y="149.399697"/>
     <use style="fill-opacity:0;stroke:#008fd5;" x="205.807153" xlink:href="#m619f5f7f21" y="171.446162"/>
     <use style="fill-opacity:0;stroke:#008fd5;" x="208.383575" xlink:href="#m619f5f7f21" y="193.492626"/>
     <use style="fill-opacity:0;stroke:#008fd5;" x="210.959997" xlink:href="#m619f5f7f21" y="171.446162"/>
     <use style="fill-opacity:0;stroke:#008fd5;" x="213.536418" xlink:href="#m619f5f7f21" y="149.399697"/>
     <use style="fill-opacity:0;stroke:#008fd5;" x="216.11284" xlink:href="#m619f5f7f21" y="127.353232"/>
     <use style="fill-opacity:0;stroke:#008fd5;" x="218.689262" xlink:href="#m619f5f7f21" y="149.399697"/>
     <use style="fill-opacity:0;stroke:#008fd5;" x="221.265684" xlink:href="#m619f5f7f21" y="127.353232"/>
     <use style="fill-opacity:0;stroke:#008fd5;" x="223.842105" xlink:href="#m619f5f7f21" y="105.306768"/>
     <use style="fill-opacity:0;stroke:#008fd5;" x="226.418527" xlink:href="#m619f5f7f21" y="127.353232"/>
     <use style="fill-opacity:0;stroke:#008fd5;" x="228.994949" xlink:href="#m619f5f7f21" y="127.353232"/>
     <use style="fill-opacity:0;stroke:#008fd5;" x="231.57137" xlink:href="#m619f5f7f21" y="149.399697"/>
     <use style="fill-opacity:0;stroke:#008fd5;" x="234.147792" xlink:href="#m619f5f7f21" y="127.353232"/>
     <use style="fill-opacity:0;stroke:#008fd5;" x="236.724214" xlink:href="#m619f5f7f21" y="105.306768"/>
     <use style="fill-opacity:0;stroke:#008fd5;" x="239.300636" xlink:href="#m619f5f7f21" y="83.260303"/>
     <use style="fill-opacity:0;stroke:#008fd5;" x="241.877057" xlink:href="#m619f5f7f21" y="105.306768"/>
     <use style="fill-opacity:0;stroke:#008fd5;" x="244.453479" xlink:href="#m619f5f7f21" y="83.260303"/>
     <use style="fill-opacity:0;stroke:#008fd5;" x="247.029901" xlink:href="#m619f5f7f21" y="83.260303"/>
     <use style="fill-opacity:0;stroke:#008fd5;" x="249.606322" xlink:href="#m619f5f7f21" y="105.306768"/>
     <use style="fill-opacity:0;stroke:#008fd5;" x="252.182744" xlink:href="#m619f5f7f21" y="127.353232"/>
     <use style="fill-opacity:0;stroke:#008fd5;" x="254.759166" xlink:href="#m619f5f7f21" y="105.306768"/>
     <use style="fill-opacity:0;stroke:#008fd5;" x="257.335588" xlink:href="#m619f5f7f21" y="127.353232"/>
     <use style="fill-opacity:0;stroke:#008fd5;" x="259.912009" xlink:href="#m619f5f7f21" y="149.399697"/>
     <use style="fill-opacity:0;stroke:#008fd5;" x="262.488431" xlink:href="#m619f5f7f21" y="127.353232"/>
     <use style="fill-opacity:0;stroke:#008fd5;" x="265.064853" xlink:href="#m619f5f7f21" y="105.306768"/>
     <use style="fill-opacity:0;stroke:#008fd5;" x="267.641274" xlink:href="#m619f5f7f21" y="83.260303"/>
     <use style="fill-opacity:0;stroke:#008fd5;" x="270.217696" xlink:href="#m619f5f7f21" y="105.306768"/>
     <use style="fill-opacity:0;stroke:#008fd5;" x="272.794118" xlink:href="#m619f5f7f21" y="83.260303"/>
     <use style="fill-opacity:0;stroke:#008fd5;" x="275.37054" xlink:href="#m619f5f7f21" y="61.213838"/>
     <use style="fill-opacity:0;stroke:#008fd5;" x="277.946961" xlink:href="#m619f5f7f21" y="39.167374"/>
     <use style="fill-opacity:0;stroke:#008fd5;" x="280.523383" xlink:href="#m619f5f7f21" y="61.213838"/>
     <use style="fill-opacity:0;stroke:#008fd5;" x="283.099805" xlink:href="#m619f5f7f21" y="39.167374"/>
     <use style="fill-opacity:0;stroke:#008fd5;" x="285.676226" xlink:href="#m619f5f7f21" y="17.120909"/>
     <use style="fill-opacity:0;stroke:#008fd5;" x="288.252648" xlink:href="#m619f5f7f21" y="17.120909"/>
     <use style="fill-opacity:0;stroke:#008fd5;" x="290.82907" xlink:href="#m619f5f7f21" y="17.120909"/>
     <use style="fill-opacity:0;stroke:#008fd5;" x="293.405492" xlink:href="#m619f5f7f21" y="39.167374"/>
     <use style="fill-opacity:0;stroke:#008fd5;" x="295.981913" xlink:href="#m619f5f7f21" y="17.120909"/>
     <use style="fill-opacity:0;stroke:#008fd5;" x="298.558335" xlink:href="#m619f5f7f21" y="17.120909"/>
     <use style="fill-opacity:0;stroke:#008fd5;" x="301.134757" xlink:href="#m619f5f7f21" y="215.539091"/>
     <use style="fill-opacity:0;stroke:#008fd5;" x="303.711178" xlink:href="#m619f5f7f21" y="193.492626"/>
     <use style="fill-opacity:0;stroke:#008fd5;" x="306.2876" xlink:href="#m619f5f7f21" y="215.539091"/>
     <use style="fill-opacity:0;stroke:#008fd5;" x="308.864022" xlink:href="#m619f5f7f21" y="17.120909"/>
     <use style="fill-opacity:0;stroke:#008fd5;" x="311.440443" xlink:href="#m619f5f7f21" y="17.120909"/>
     <use style="fill-opacity:0;stroke:#008fd5;" x="314.016865" xlink:href="#m619f5f7f21" y="17.120909"/>
     <use style="fill-opacity:0;stroke:#008fd5;" x="316.593287" xlink:href="#m619f5f7f21" y="39.167374"/>
    </g>
   </g>
   <g id="patch_3">
    <path d="M 48.77425 225.46 
L 48.77425 7.2 
" style="fill:none;stroke:#f0f0f0;stroke-linecap:square;stroke-linejoin:miter;stroke-width:3;"/>
   </g>
   <g id="patch_4">
    <path d="M 329.346574 225.46 
L 329.346574 7.2 
" style="fill:none;stroke:#f0f0f0;stroke-linecap:square;stroke-linejoin:miter;stroke-width:3;"/>
   </g>
   <g id="patch_5">
    <path d="M 48.77425 225.46 
L 329.346574 225.46 
" style="fill:none;stroke:#f0f0f0;stroke-linecap:square;stroke-linejoin:miter;stroke-width:3;"/>
   </g>
   <g id="patch_6">
    <path d="M 48.77425 7.2 
L 329.346574 7.2 
" style="fill:none;stroke:#f0f0f0;stroke-linecap:square;stroke-linejoin:miter;stroke-width:3;"/>
   </g>
  </g>
  <g id="axes_2">
   <g id="patch_7">
    <path d="M 414.711926 225.46 
L 695.28425 225.46 
L 695.28425 7.2 
L 414.711926 7.2 
z
" style="fill:#f0f0f0;"/>
   </g>
   <g id="matplotlib.axis_3">
    <g id="xtick_7">
     <g id="line2d_24">
      <path clip-path="url(#pd1c6f4877b)" d="M 456.895876 225.46 
L 456.895876 7.2 
" style="fill:none;stroke:#cbcbcb;"/>
     </g>
     <g id="line2d_25"/>
     <g id="text_14">
      <!-- 2 -->
      <g transform="translate(452.442126 239.597812)scale(0.14 -0.14)">
       <use xlink:href="#DejaVuSans-50"/>
      </g>
     </g>
    </g>
    <g id="xtick_8">
     <g id="line2d_26">
      <path clip-path="url(#pd1c6f4877b)" d="M 512.954283 225.46 
L 512.954283 7.2 
" style="fill:none;stroke:#cbcbcb;"/>
     </g>
     <g id="line2d_27"/>
     <g id="text_15">
      <!-- 4 -->
      <g transform="translate(508.500533 239.597812)scale(0.14 -0.14)">
       <use xlink:href="#DejaVuSans-52"/>
      </g>
     </g>
    </g>
    <g id="xtick_9">
     <g id="line2d_28">
      <path clip-path="url(#pd1c6f4877b)" d="M 569.012689 225.46 
L 569.012689 7.2 
" style="fill:none;stroke:#cbcbcb;"/>
     </g>
     <g id="line2d_29"/>
     <g id="text_16">
      <!-- 6 -->
      <g transform="translate(564.558939 239.597812)scale(0.14 -0.14)">
       <use xlink:href="#DejaVuSans-54"/>
      </g>
     </g>
    </g>
    <g id="xtick_10">
     <g id="line2d_30">
      <path clip-path="url(#pd1c6f4877b)" d="M 625.071096 225.46 
L 625.071096 7.2 
" style="fill:none;stroke:#cbcbcb;"/>
     </g>
     <g id="line2d_31"/>
     <g id="text_17">
      <!-- 8 -->
      <g transform="translate(620.617346 239.597812)scale(0.14 -0.14)">
       <use xlink:href="#DejaVuSans-56"/>
      </g>
     </g>
    </g>
    <g id="xtick_11">
     <g id="line2d_32">
      <path clip-path="url(#pd1c6f4877b)" d="M 681.129502 225.46 
L 681.129502 7.2 
" style="fill:none;stroke:#cbcbcb;"/>
     </g>
     <g id="line2d_33"/>
     <g id="text_18">
      <!-- 10 -->
      <g transform="translate(672.222002 239.597812)scale(0.14 -0.14)">
       <use xlink:href="#DejaVuSans-49"/>
       <use x="63.623047" xlink:href="#DejaVuSans-48"/>
      </g>
     </g>
    </g>
    <g id="text_19">
     <!-- đảo -->
     <g transform="translate(539.378025 259.27475)scale(0.168 -0.168)">
      <use xlink:href="#DejaVuSans-273"/>
      <use x="63.476562" xlink:href="#DejaVuSans-7843"/>
      <use x="124.755859" xlink:href="#DejaVuSans-111"/>
     </g>
    </g>
   </g>
   <g id="matplotlib.axis_4">
    <g id="ytick_6">
     <g id="line2d_34">
      <path clip-path="url(#pd1c6f4877b)" d="M 414.711926 225.46 
L 695.28425 225.46 
" style="fill:none;stroke:#cbcbcb;"/>
     </g>
     <g id="line2d_35"/>
     <g id="text_20">
      <!-- 0 -->
      <g transform="translate(402.304426 230.778906)scale(0.14 -0.14)">
       <use xlink:href="#DejaVuSans-48"/>
      </g>
     </g>
    </g>
    <g id="ytick_7">
     <g id="line2d_36">
      <path clip-path="url(#pd1c6f4877b)" d="M 414.711926 167.370724 
L 695.28425 167.370724 
" style="fill:none;stroke:#cbcbcb;"/>
     </g>
     <g id="line2d_37"/>
     <g id="text_21">
      <!-- 5000 -->
      <g transform="translate(375.581926 172.68963)scale(0.14 -0.14)">
       <defs>
        <path d="M 10.796875 72.90625 
L 49.515625 72.90625 
L 49.515625 64.59375 
L 19.828125 64.59375 
L 19.828125 46.734375 
Q 21.96875 47.46875 24.109375 47.828125 
Q 26.265625 48.1875 28.421875 48.1875 
Q 40.625 48.1875 47.75 41.5 
Q 54.890625 34.8125 54.890625 23.390625 
Q 54.890625 11.625 47.5625 5.09375 
Q 40.234375 -1.421875 26.90625 -1.421875 
Q 22.3125 -1.421875 17.546875 -0.640625 
Q 12.796875 0.140625 7.71875 1.703125 
L 7.71875 11.625 
Q 12.109375 9.234375 16.796875 8.0625 
Q 21.484375 6.890625 26.703125 6.890625 
Q 35.15625 6.890625 40.078125 11.328125 
Q 45.015625 15.765625 45.015625 23.390625 
Q 45.015625 31 40.078125 35.4375 
Q 35.15625 39.890625 26.703125 39.890625 
Q 22.75 39.890625 18.8125 39.015625 
Q 14.890625 38.140625 10.796875 36.28125 
z
" id="DejaVuSans-53"/>
       </defs>
       <use xlink:href="#DejaVuSans-53"/>
       <use x="63.623047" xlink:href="#DejaVuSans-48"/>
       <use x="127.246094" xlink:href="#DejaVuSans-48"/>
       <use x="190.869141" xlink:href="#DejaVuSans-48"/>
      </g>
     </g>
    </g>
    <g id="ytick_8">
     <g id="line2d_38">
      <path clip-path="url(#pd1c6f4877b)" d="M 414.711926 109.281447 
L 695.28425 109.281447 
" style="fill:none;stroke:#cbcbcb;"/>
     </g>
     <g id="line2d_39"/>
     <g id="text_22">
      <!-- 10000 -->
      <g transform="translate(366.674426 114.600353)scale(0.14 -0.14)">
       <use xlink:href="#DejaVuSans-49"/>
       <use x="63.623047" xlink:href="#DejaVuSans-48"/>
       <use x="127.246094" xlink:href="#DejaVuSans-48"/>
       <use x="190.869141" xlink:href="#DejaVuSans-48"/>
       <use x="254.492188" xlink:href="#DejaVuSans-48"/>
      </g>
     </g>
    </g>
    <g id="ytick_9">
     <g id="line2d_40">
      <path clip-path="url(#pd1c6f4877b)" d="M 414.711926 51.192171 
L 695.28425 51.192171 
" style="fill:none;stroke:#cbcbcb;"/>
     </g>
     <g id="line2d_41"/>
     <g id="text_23">
      <!-- 15000 -->
      <g transform="translate(366.674426 56.511077)scale(0.14 -0.14)">
       <use xlink:href="#DejaVuSans-49"/>
       <use x="63.623047" xlink:href="#DejaVuSans-53"/>
       <use x="127.246094" xlink:href="#DejaVuSans-48"/>
       <use x="190.869141" xlink:href="#DejaVuSans-48"/>
       <use x="254.492188" xlink:href="#DejaVuSans-48"/>
      </g>
     </g>
    </g>
    <g id="text_24">
     <!-- số tuần -->
     <g transform="translate(359.180551 147.602937)rotate(-90)scale(0.168 -0.168)">
      <defs>
       <path d="M 44.28125 53.078125 
L 44.28125 44.578125 
Q 40.484375 46.53125 36.375 47.5 
Q 32.28125 48.484375 27.875 48.484375 
Q 21.1875 48.484375 17.84375 46.4375 
Q 14.5 44.390625 14.5 40.28125 
Q 14.5 37.15625 16.890625 35.375 
Q 19.28125 33.59375 26.515625 31.984375 
L 29.59375 31.296875 
Q 39.15625 29.25 43.1875 25.515625 
Q 47.21875 21.78125 47.21875 15.09375 
Q 47.21875 7.46875 41.1875 3.015625 
Q 35.15625 -1.421875 24.609375 -1.421875 
Q 20.21875 -1.421875 15.453125 -0.5625 
Q 10.6875 0.296875 5.421875 2 
L 5.421875 11.28125 
Q 10.40625 8.6875 15.234375 7.390625 
Q 20.0625 6.109375 24.8125 6.109375 
Q 31.15625 6.109375 34.5625 8.28125 
Q 37.984375 10.453125 37.984375 14.40625 
Q 37.984375 18.0625 35.515625 20.015625 
Q 33.0625 21.96875 24.703125 23.78125 
L 21.578125 24.515625 
Q 13.234375 26.265625 9.515625 29.90625 
Q 5.8125 33.546875 5.8125 39.890625 
Q 5.8125 47.609375 11.28125 51.796875 
Q 16.75 56 26.8125 56 
Q 31.78125 56 36.171875 55.265625 
Q 40.578125 54.546875 44.28125 53.078125 
z
" id="DejaVuSans-115"/>
       <path d="M 25.984375 74.609375 
L 35.15625 74.609375 
L 45.453125 61.625 
L 38.671875 61.625 
L 30.5625 70.3125 
L 22.46875 61.625 
L 15.671875 61.625 
z
M 51.03125 84.625 
L 60.0625 84.625 
L 48.921875 71.734375 
L 41.453125 71.734375 
z
M 30.609375 48.390625 
Q 23.390625 48.390625 19.1875 42.75 
Q 14.984375 37.109375 14.984375 27.296875 
Q 14.984375 17.484375 19.15625 11.84375 
Q 23.34375 6.203125 30.609375 6.203125 
Q 37.796875 6.203125 41.984375 11.859375 
Q 46.1875 17.53125 46.1875 27.296875 
Q 46.1875 37.015625 41.984375 42.703125 
Q 37.796875 48.390625 30.609375 48.390625 
z
M 30.609375 56 
Q 42.328125 56 49.015625 48.375 
Q 55.71875 40.765625 55.71875 27.296875 
Q 55.71875 13.875 49.015625 6.21875 
Q 42.328125 -1.421875 30.609375 -1.421875 
Q 18.84375 -1.421875 12.171875 6.21875 
Q 5.515625 13.875 5.515625 27.296875 
Q 5.515625 40.765625 12.171875 48.375 
Q 18.84375 56 30.609375 56 
z
" id="DejaVuSans-7889"/>
       <path id="DejaVuSans-32"/>
      </defs>
      <use xlink:href="#DejaVuSans-115"/>
      <use x="52.099609" xlink:href="#DejaVuSans-7889"/>
      <use x="113.28125" xlink:href="#DejaVuSans-32"/>
      <use x="145.068359" xlink:href="#DejaVuSans-116"/>
      <use x="184.277344" xlink:href="#DejaVuSans-117"/>
      <use x="247.65625" xlink:href="#DejaVuSans-7847"/>
      <use x="308.935547" xlink:href="#DejaVuSans-110"/>
     </g>
    </g>
   </g>
   <g id="patch_8">
    <path clip-path="url(#pd1c6f4877b)" d="M 427.465213 225.46 
L 430.268133 225.46 
L 430.268133 203.060775 
L 427.465213 203.060775 
z
" style="fill:#008fd5;"/>
   </g>
   <g id="patch_9">
    <path clip-path="url(#pd1c6f4877b)" d="M 455.494416 225.46 
L 458.297337 225.46 
L 458.297337 181.590978 
L 455.494416 181.590978 
z
" style="fill:#008fd5;"/>
   </g>
   <g id="patch_10">
    <path clip-path="url(#pd1c6f4877b)" d="M 483.52362 225.46 
L 486.32654 225.46 
L 486.32654 159.191753 
L 483.52362 159.191753 
z
" style="fill:#008fd5;"/>
   </g>
   <g id="patch_11">
    <path clip-path="url(#pd1c6f4877b)" d="M 511.552823 225.46 
L 514.355743 225.46 
L 514.355743 137.210771 
L 511.552823 137.210771 
z
" style="fill:#008fd5;"/>
   </g>
   <g id="patch_12">
    <path clip-path="url(#pd1c6f4877b)" d="M 539.582026 225.46 
L 542.384946 225.46 
L 542.384946 116.891142 
L 539.582026 116.891142 
z
" style="fill:#008fd5;"/>
   </g>
   <g id="patch_13">
    <path clip-path="url(#pd1c6f4877b)" d="M 567.611229 225.46 
L 570.41415 225.46 
L 570.41415 97.768153 
L 567.611229 97.768153 
z
" style="fill:#008fd5;"/>
   </g>
   <g id="patch_14">
    <path clip-path="url(#pd1c6f4877b)" d="M 595.640433 225.46 
L 598.443353 225.46 
L 598.443353 78.656781 
L 595.640433 78.656781 
z
" style="fill:#008fd5;"/>
   </g>
   <g id="patch_15">
    <path clip-path="url(#pd1c6f4877b)" d="M 623.669636 225.46 
L 626.472556 225.46 
L 626.472556 60.962787 
L 623.669636 60.962787 
z
" style="fill:#008fd5;"/>
   </g>
   <g id="patch_16">
    <path clip-path="url(#pd1c6f4877b)" d="M 651.698839 225.46 
L 654.501759 225.46 
L 654.501759 39.887998 
L 651.698839 39.887998 
z
" style="fill:#008fd5;"/>
   </g>
   <g id="patch_17">
    <path clip-path="url(#pd1c6f4877b)" d="M 679.728042 225.46 
L 682.530963 225.46 
L 682.530963 17.593333 
L 679.728042 17.593333 
z
" style="fill:#008fd5;"/>
   </g>
   <g id="patch_18">
    <path d="M 414.711926 225.46 
L 414.711926 7.2 
" style="fill:none;stroke:#f0f0f0;stroke-linecap:square;stroke-linejoin:miter;stroke-width:3;"/>
   </g>
   <g id="patch_19">
    <path d="M 695.28425 225.46 
L 695.28425 7.2 
" style="fill:none;stroke:#f0f0f0;stroke-linecap:square;stroke-linejoin:miter;stroke-width:3;"/>
   </g>
   <g id="patch_20">
    <path d="M 414.711926 225.46 
L 695.28425 225.46 
" style="fill:none;stroke:#f0f0f0;stroke-linecap:square;stroke-linejoin:miter;stroke-width:3;"/>
   </g>
   <g id="patch_21">
    <path d="M 414.711926 7.2 
L 695.28425 7.2 
" style="fill:none;stroke:#f0f0f0;stroke-linecap:square;stroke-linejoin:miter;stroke-width:3;"/>
   </g>
  </g>
 </g>
 <defs>
  <clipPath id="p86831824f6">
   <rect height="218.26" width="280.572324" x="48.77425" y="7.2"/>
  </clipPath>
  <clipPath id="pd1c6f4877b">
   <rect height="218.26" width="280.572324" x="414.711926" y="7.2"/>
  </clipPath>
 </defs>
</svg>
