<?xml version="1.0" encoding="utf-8" standalone="no"?>
<!DOCTYPE svg PUBLIC "-//W3C//DTD SVG 1.1//EN"
  "http://www.w3.org/Graphics/SVG/1.1/DTD/svg11.dtd">
<!-- Created with matplotlib (https://matplotlib.org/) -->
<svg height="305.841005pt" version="1.1" viewBox="0 0 448.837812 305.841005" width="448.837812pt" xmlns="http://www.w3.org/2000/svg" xmlns:xlink="http://www.w3.org/1999/xlink">
 <metadata>
  <rdf:RDF xmlns:cc="http://creativecommons.org/ns#" xmlns:dc="http://purl.org/dc/elements/1.1/" xmlns:rdf="http://www.w3.org/1999/02/22-rdf-syntax-ns#">
   <cc:Work>
    <dc:type rdf:resource="http://purl.org/dc/dcmitype/StillImage"/>
    <dc:date>2021-02-20T18:27:22.518459</dc:date>
    <dc:format>image/svg+xml</dc:format>
    <dc:creator>
     <cc:Agent>
      <dc:title>Matplotlib v3.3.3, https://matplotlib.org/</dc:title>
     </cc:Agent>
    </dc:creator>
   </cc:Work>
  </rdf:RDF>
 </metadata>
 <defs>
  <style type="text/css">*{stroke-linecap:butt;stroke-linejoin:round;}</style>
 </defs>
 <g id="figure_1">
  <g id="patch_1">
   <path d="M 0 305.841005 
L 448.837812 305.841005 
L 448.837812 0 
L 0 0 
z
" style="fill:#f0f0f0;"/>
  </g>
  <g id="axes_1">
   <g id="patch_2">
    <path d="M 65.797813 260.489755 
L 441.637812 260.489755 
L 441.637812 27.209755 
L 65.797813 27.209755 
z
" style="fill:#f0f0f0;"/>
   </g>
   <g id="matplotlib.axis_1">
    <g id="xtick_1">
     <g id="line2d_1">
      <path clip-path="url(#p8674657ad5)" d="M 92.825344 260.489755 
L 92.825344 27.209755 
" style="fill:none;stroke:#cbcbcb;"/>
     </g>
     <g id="line2d_2"/>
     <g id="text_1">
      <!-- −3 -->
      <g transform="translate(82.505813 274.627567)scale(0.14 -0.14)">
       <defs>
        <path d="M 10.59375 35.5 
L 73.1875 35.5 
L 73.1875 27.203125 
L 10.59375 27.203125 
z
" id="DejaVuSans-8722"/>
        <path d="M 40.578125 39.3125 
Q 47.65625 37.796875 51.625 33 
Q 55.609375 28.21875 55.609375 21.1875 
Q 55.609375 10.40625 48.1875 4.484375 
Q 40.765625 -1.421875 27.09375 -1.421875 
Q 22.515625 -1.421875 17.65625 -0.515625 
Q 12.796875 0.390625 7.625 2.203125 
L 7.625 11.71875 
Q 11.71875 9.328125 16.59375 8.109375 
Q 21.484375 6.890625 26.8125 6.890625 
Q 36.078125 6.890625 40.9375 10.546875 
Q 45.796875 14.203125 45.796875 21.1875 
Q 45.796875 27.640625 41.28125 31.265625 
Q 36.765625 34.90625 28.71875 34.90625 
L 20.21875 34.90625 
L 20.21875 43.015625 
L 29.109375 43.015625 
Q 36.375 43.015625 40.234375 45.921875 
Q 44.09375 48.828125 44.09375 54.296875 
Q 44.09375 59.90625 40.109375 62.90625 
Q 36.140625 65.921875 28.71875 65.921875 
Q 24.65625 65.921875 20.015625 65.03125 
Q 15.375 64.15625 9.8125 62.3125 
L 9.8125 71.09375 
Q 15.4375 72.65625 20.34375 73.4375 
Q 25.25 74.21875 29.59375 74.21875 
Q 40.828125 74.21875 47.359375 69.109375 
Q 53.90625 64.015625 53.90625 55.328125 
Q 53.90625 49.265625 50.4375 45.09375 
Q 46.96875 40.921875 40.578125 39.3125 
z
" id="DejaVuSans-51"/>
       </defs>
       <use xlink:href="#DejaVuSans-8722"/>
       <use x="83.789062" xlink:href="#DejaVuSans-51"/>
      </g>
     </g>
    </g>
    <g id="xtick_2">
     <g id="line2d_3">
      <path clip-path="url(#p8674657ad5)" d="M 146.225441 260.489755 
L 146.225441 27.209755 
" style="fill:none;stroke:#cbcbcb;"/>
     </g>
     <g id="line2d_4"/>
     <g id="text_2">
      <!-- −2 -->
      <g transform="translate(135.90591 274.627567)scale(0.14 -0.14)">
       <defs>
        <path d="M 19.1875 8.296875 
L 53.609375 8.296875 
L 53.609375 0 
L 7.328125 0 
L 7.328125 8.296875 
Q 12.9375 14.109375 22.625 23.890625 
Q 32.328125 33.6875 34.8125 36.53125 
Q 39.546875 41.84375 41.421875 45.53125 
Q 43.3125 49.21875 43.3125 52.78125 
Q 43.3125 58.59375 39.234375 62.25 
Q 35.15625 65.921875 28.609375 65.921875 
Q 23.96875 65.921875 18.8125 64.3125 
Q 13.671875 62.703125 7.8125 59.421875 
L 7.8125 69.390625 
Q 13.765625 71.78125 18.9375 73 
Q 24.125 74.21875 28.421875 74.21875 
Q 39.75 74.21875 46.484375 68.546875 
Q 53.21875 62.890625 53.21875 53.421875 
Q 53.21875 48.921875 51.53125 44.890625 
Q 49.859375 40.875 45.40625 35.40625 
Q 44.1875 33.984375 37.640625 27.21875 
Q 31.109375 20.453125 19.1875 8.296875 
z
" id="DejaVuSans-50"/>
       </defs>
       <use xlink:href="#DejaVuSans-8722"/>
       <use x="83.789062" xlink:href="#DejaVuSans-50"/>
      </g>
     </g>
    </g>
    <g id="xtick_3">
     <g id="line2d_5">
      <path clip-path="url(#p8674657ad5)" d="M 199.625538 260.489755 
L 199.625538 27.209755 
" style="fill:none;stroke:#cbcbcb;"/>
     </g>
     <g id="line2d_6"/>
     <g id="text_3">
      <!-- −1 -->
      <g transform="translate(189.306007 274.627567)scale(0.14 -0.14)">
       <defs>
        <path d="M 12.40625 8.296875 
L 28.515625 8.296875 
L 28.515625 63.921875 
L 10.984375 60.40625 
L 10.984375 69.390625 
L 28.421875 72.90625 
L 38.28125 72.90625 
L 38.28125 8.296875 
L 54.390625 8.296875 
L 54.390625 0 
L 12.40625 0 
z
" id="DejaVuSans-49"/>
       </defs>
       <use xlink:href="#DejaVuSans-8722"/>
       <use x="83.789062" xlink:href="#DejaVuSans-49"/>
      </g>
     </g>
    </g>
    <g id="xtick_4">
     <g id="line2d_7">
      <path clip-path="url(#p8674657ad5)" d="M 253.025635 260.489755 
L 253.025635 27.209755 
" style="fill:none;stroke:#cbcbcb;"/>
     </g>
     <g id="line2d_8"/>
     <g id="text_4">
      <!-- 0 -->
      <g transform="translate(248.571885 274.627567)scale(0.14 -0.14)">
       <defs>
        <path d="M 31.78125 66.40625 
Q 24.171875 66.40625 20.328125 58.90625 
Q 16.5 51.421875 16.5 36.375 
Q 16.5 21.390625 20.328125 13.890625 
Q 24.171875 6.390625 31.78125 6.390625 
Q 39.453125 6.390625 43.28125 13.890625 
Q 47.125 21.390625 47.125 36.375 
Q 47.125 51.421875 43.28125 58.90625 
Q 39.453125 66.40625 31.78125 66.40625 
z
M 31.78125 74.21875 
Q 44.046875 74.21875 50.515625 64.515625 
Q 56.984375 54.828125 56.984375 36.375 
Q 56.984375 17.96875 50.515625 8.265625 
Q 44.046875 -1.421875 31.78125 -1.421875 
Q 19.53125 -1.421875 13.0625 8.265625 
Q 6.59375 17.96875 6.59375 36.375 
Q 6.59375 54.828125 13.0625 64.515625 
Q 19.53125 74.21875 31.78125 74.21875 
z
" id="DejaVuSans-48"/>
       </defs>
       <use xlink:href="#DejaVuSans-48"/>
      </g>
     </g>
    </g>
    <g id="xtick_5">
     <g id="line2d_9">
      <path clip-path="url(#p8674657ad5)" d="M 306.425732 260.489755 
L 306.425732 27.209755 
" style="fill:none;stroke:#cbcbcb;"/>
     </g>
     <g id="line2d_10"/>
     <g id="text_5">
      <!-- 1 -->
      <g transform="translate(301.971982 274.627567)scale(0.14 -0.14)">
       <use xlink:href="#DejaVuSans-49"/>
      </g>
     </g>
    </g>
    <g id="xtick_6">
     <g id="line2d_11">
      <path clip-path="url(#p8674657ad5)" d="M 359.825829 260.489755 
L 359.825829 27.209755 
" style="fill:none;stroke:#cbcbcb;"/>
     </g>
     <g id="line2d_12"/>
     <g id="text_6">
      <!-- 2 -->
      <g transform="translate(355.372079 274.627567)scale(0.14 -0.14)">
       <use xlink:href="#DejaVuSans-50"/>
      </g>
     </g>
    </g>
    <g id="xtick_7">
     <g id="line2d_13">
      <path clip-path="url(#p8674657ad5)" d="M 413.225926 260.489755 
L 413.225926 27.209755 
" style="fill:none;stroke:#cbcbcb;"/>
     </g>
     <g id="line2d_14"/>
     <g id="text_7">
      <!-- 3 -->
      <g transform="translate(408.772176 274.627567)scale(0.14 -0.14)">
       <use xlink:href="#DejaVuSans-51"/>
      </g>
     </g>
    </g>
    <g id="text_8">
     <!-- giáo dục của ông bà (G) -->
     <g transform="translate(152.71175 295.14713)scale(0.168 -0.168)">
      <defs>
       <path d="M 45.40625 27.984375 
Q 45.40625 37.75 41.375 43.109375 
Q 37.359375 48.484375 30.078125 48.484375 
Q 22.859375 48.484375 18.828125 43.109375 
Q 14.796875 37.75 14.796875 27.984375 
Q 14.796875 18.265625 18.828125 12.890625 
Q 22.859375 7.515625 30.078125 7.515625 
Q 37.359375 7.515625 41.375 12.890625 
Q 45.40625 18.265625 45.40625 27.984375 
z
M 54.390625 6.78125 
Q 54.390625 -7.171875 48.1875 -13.984375 
Q 42 -20.796875 29.203125 -20.796875 
Q 24.46875 -20.796875 20.265625 -20.09375 
Q 16.0625 -19.390625 12.109375 -17.921875 
L 12.109375 -9.1875 
Q 16.0625 -11.328125 19.921875 -12.34375 
Q 23.78125 -13.375 27.78125 -13.375 
Q 36.625 -13.375 41.015625 -8.765625 
Q 45.40625 -4.15625 45.40625 5.171875 
L 45.40625 9.625 
Q 42.625 4.78125 38.28125 2.390625 
Q 33.9375 0 27.875 0 
Q 17.828125 0 11.671875 7.65625 
Q 5.515625 15.328125 5.515625 27.984375 
Q 5.515625 40.671875 11.671875 48.328125 
Q 17.828125 56 27.875 56 
Q 33.9375 56 38.28125 53.609375 
Q 42.625 51.21875 45.40625 46.390625 
L 45.40625 54.6875 
L 54.390625 54.6875 
z
" id="DejaVuSans-103"/>
       <path d="M 9.421875 54.6875 
L 18.40625 54.6875 
L 18.40625 0 
L 9.421875 0 
z
M 9.421875 75.984375 
L 18.40625 75.984375 
L 18.40625 64.59375 
L 9.421875 64.59375 
z
" id="DejaVuSans-105"/>
       <path d="M 34.28125 27.484375 
Q 23.390625 27.484375 19.1875 25 
Q 14.984375 22.515625 14.984375 16.5 
Q 14.984375 11.71875 18.140625 8.90625 
Q 21.296875 6.109375 26.703125 6.109375 
Q 34.1875 6.109375 38.703125 11.40625 
Q 43.21875 16.703125 43.21875 25.484375 
L 43.21875 27.484375 
z
M 52.203125 31.203125 
L 52.203125 0 
L 43.21875 0 
L 43.21875 8.296875 
Q 40.140625 3.328125 35.546875 0.953125 
Q 30.953125 -1.421875 24.3125 -1.421875 
Q 15.921875 -1.421875 10.953125 3.296875 
Q 6 8.015625 6 15.921875 
Q 6 25.140625 12.171875 29.828125 
Q 18.359375 34.515625 30.609375 34.515625 
L 43.21875 34.515625 
L 43.21875 35.40625 
Q 43.21875 41.609375 39.140625 45 
Q 35.0625 48.390625 27.6875 48.390625 
Q 23 48.390625 18.546875 47.265625 
Q 14.109375 46.140625 10.015625 43.890625 
L 10.015625 52.203125 
Q 14.9375 54.109375 19.578125 55.046875 
Q 24.21875 56 28.609375 56 
Q 40.484375 56 46.34375 49.84375 
Q 52.203125 43.703125 52.203125 31.203125 
z
M 35.796875 79.984375 
L 45.515625 79.984375 
L 29.59375 61.625 
L 22.125 61.625 
z
" id="DejaVuSans-225"/>
       <path d="M 30.609375 48.390625 
Q 23.390625 48.390625 19.1875 42.75 
Q 14.984375 37.109375 14.984375 27.296875 
Q 14.984375 17.484375 19.15625 11.84375 
Q 23.34375 6.203125 30.609375 6.203125 
Q 37.796875 6.203125 41.984375 11.859375 
Q 46.1875 17.53125 46.1875 27.296875 
Q 46.1875 37.015625 41.984375 42.703125 
Q 37.796875 48.390625 30.609375 48.390625 
z
M 30.609375 56 
Q 42.328125 56 49.015625 48.375 
Q 55.71875 40.765625 55.71875 27.296875 
Q 55.71875 13.875 49.015625 6.21875 
Q 42.328125 -1.421875 30.609375 -1.421875 
Q 18.84375 -1.421875 12.171875 6.21875 
Q 5.515625 13.875 5.515625 27.296875 
Q 5.515625 40.765625 12.171875 48.375 
Q 18.84375 56 30.609375 56 
z
" id="DejaVuSans-111"/>
       <path id="DejaVuSans-32"/>
       <path d="M 45.40625 46.390625 
L 45.40625 75.984375 
L 54.390625 75.984375 
L 54.390625 0 
L 45.40625 0 
L 45.40625 8.203125 
Q 42.578125 3.328125 38.25 0.953125 
Q 33.9375 -1.421875 27.875 -1.421875 
Q 17.96875 -1.421875 11.734375 6.484375 
Q 5.515625 14.40625 5.515625 27.296875 
Q 5.515625 40.1875 11.734375 48.09375 
Q 17.96875 56 27.875 56 
Q 33.9375 56 38.25 53.625 
Q 42.578125 51.265625 45.40625 46.390625 
z
M 14.796875 27.296875 
Q 14.796875 17.390625 18.875 11.75 
Q 22.953125 6.109375 30.078125 6.109375 
Q 37.203125 6.109375 41.296875 11.75 
Q 45.40625 17.390625 45.40625 27.296875 
Q 45.40625 37.203125 41.296875 42.84375 
Q 37.203125 48.484375 30.078125 48.484375 
Q 22.953125 48.484375 18.875 42.84375 
Q 14.796875 37.203125 14.796875 27.296875 
z
" id="DejaVuSans-100"/>
       <path d="M 8.5 21.578125 
L 8.5 54.6875 
L 17.484375 54.6875 
L 17.484375 21.921875 
Q 17.484375 14.15625 20.5 10.265625 
Q 23.53125 6.390625 29.59375 6.390625 
Q 36.859375 6.390625 41.078125 11.03125 
Q 45.3125 15.671875 45.3125 23.6875 
L 45.3125 54.6875 
L 54.296875 54.6875 
L 54.296875 0 
L 45.3125 0 
L 45.3125 8.40625 
Q 42.046875 3.421875 37.71875 1 
Q 33.40625 -1.421875 27.6875 -1.421875 
Q 18.265625 -1.421875 13.375 4.4375 
Q 8.5 10.296875 8.5 21.578125 
z
M 31.109375 56 
z
M 26.421875 -6.890625 
L 35.40625 -6.890625 
L 35.40625 -18.3125 
L 26.421875 -18.3125 
z
" id="DejaVuSans-7909"/>
       <path d="M 48.78125 52.59375 
L 48.78125 44.1875 
Q 44.96875 46.296875 41.140625 47.34375 
Q 37.3125 48.390625 33.40625 48.390625 
Q 24.65625 48.390625 19.8125 42.84375 
Q 14.984375 37.3125 14.984375 27.296875 
Q 14.984375 17.28125 19.8125 11.734375 
Q 24.65625 6.203125 33.40625 6.203125 
Q 37.3125 6.203125 41.140625 7.25 
Q 44.96875 8.296875 48.78125 10.40625 
L 48.78125 2.09375 
Q 45.015625 0.34375 40.984375 -0.53125 
Q 36.96875 -1.421875 32.421875 -1.421875 
Q 20.0625 -1.421875 12.78125 6.34375 
Q 5.515625 14.109375 5.515625 27.296875 
Q 5.515625 40.671875 12.859375 48.328125 
Q 20.21875 56 33.015625 56 
Q 37.15625 56 41.109375 55.140625 
Q 45.0625 54.296875 48.78125 52.59375 
z
" id="DejaVuSans-99"/>
       <path d="M 8.5 21.578125 
L 8.5 54.6875 
L 17.484375 54.6875 
L 17.484375 21.921875 
Q 17.484375 14.15625 20.5 10.265625 
Q 23.53125 6.390625 29.59375 6.390625 
Q 36.859375 6.390625 41.078125 11.03125 
Q 45.3125 15.671875 45.3125 23.6875 
L 45.3125 54.6875 
L 54.296875 54.6875 
L 54.296875 0 
L 45.3125 0 
L 45.3125 8.40625 
Q 42.046875 3.421875 37.71875 1 
Q 33.40625 -1.421875 27.6875 -1.421875 
Q 18.265625 -1.421875 13.375 4.4375 
Q 8.5 10.296875 8.5 21.578125 
z
M 31.109375 56 
z
M 21.296875 78.515625 
Q 26.765625 81 31.890625 81 
Q 36.96875 81 40.0625 78.921875 
Q 43.171875 76.859375 43.171875 73.578125 
Q 43.171875 70.609375 38.875 67.4375 
L 36.71875 65.875 
Q 35.015625 64.59375 34.8125 64.15625 
Q 34.46875 63.375 34.46875 61.8125 
L 28.65625 61.8125 
L 28.65625 62.40625 
Q 28.65625 64.359375 29.390625 65.671875 
Q 30.125 67 32.625 68.796875 
L 34.8125 70.453125 
Q 37.0625 72.125 37.0625 74.078125 
Q 37.0625 75.09375 35.546875 75.96875 
Q 34.03125 76.859375 30.5625 76.859375 
Q 26.171875 76.859375 21.296875 74.3125 
z
" id="DejaVuSans-7911"/>
       <path d="M 34.28125 27.484375 
Q 23.390625 27.484375 19.1875 25 
Q 14.984375 22.515625 14.984375 16.5 
Q 14.984375 11.71875 18.140625 8.90625 
Q 21.296875 6.109375 26.703125 6.109375 
Q 34.1875 6.109375 38.703125 11.40625 
Q 43.21875 16.703125 43.21875 25.484375 
L 43.21875 27.484375 
z
M 52.203125 31.203125 
L 52.203125 0 
L 43.21875 0 
L 43.21875 8.296875 
Q 40.140625 3.328125 35.546875 0.953125 
Q 30.953125 -1.421875 24.3125 -1.421875 
Q 15.921875 -1.421875 10.953125 3.296875 
Q 6 8.015625 6 15.921875 
Q 6 25.140625 12.171875 29.828125 
Q 18.359375 34.515625 30.609375 34.515625 
L 43.21875 34.515625 
L 43.21875 35.40625 
Q 43.21875 41.609375 39.140625 45 
Q 35.0625 48.390625 27.6875 48.390625 
Q 23 48.390625 18.546875 47.265625 
Q 14.109375 46.140625 10.015625 43.890625 
L 10.015625 52.203125 
Q 14.9375 54.109375 19.578125 55.046875 
Q 24.21875 56 28.609375 56 
Q 40.484375 56 46.34375 49.84375 
Q 52.203125 43.703125 52.203125 31.203125 
z
" id="DejaVuSans-97"/>
       <path d="M 30.609375 48.390625 
Q 23.390625 48.390625 19.1875 42.75 
Q 14.984375 37.109375 14.984375 27.296875 
Q 14.984375 17.484375 19.15625 11.84375 
Q 23.34375 6.203125 30.609375 6.203125 
Q 37.796875 6.203125 41.984375 11.859375 
Q 46.1875 17.53125 46.1875 27.296875 
Q 46.1875 37.015625 41.984375 42.703125 
Q 37.796875 48.390625 30.609375 48.390625 
z
M 30.609375 56 
Q 42.328125 56 49.015625 48.375 
Q 55.71875 40.765625 55.71875 27.296875 
Q 55.71875 13.875 49.015625 6.21875 
Q 42.328125 -1.421875 30.609375 -1.421875 
Q 18.84375 -1.421875 12.171875 6.21875 
Q 5.515625 13.875 5.515625 27.296875 
Q 5.515625 40.765625 12.171875 48.375 
Q 18.84375 56 30.609375 56 
z
M 27 79.984375 
L 34.234375 79.984375 
L 46.1875 61.625 
L 39.40625 61.625 
L 30.609375 73.578125 
L 21.828125 61.625 
L 15.046875 61.625 
z
" id="DejaVuSans-244"/>
       <path d="M 54.890625 33.015625 
L 54.890625 0 
L 45.90625 0 
L 45.90625 32.71875 
Q 45.90625 40.484375 42.875 44.328125 
Q 39.84375 48.1875 33.796875 48.1875 
Q 26.515625 48.1875 22.3125 43.546875 
Q 18.109375 38.921875 18.109375 30.90625 
L 18.109375 0 
L 9.078125 0 
L 9.078125 54.6875 
L 18.109375 54.6875 
L 18.109375 46.1875 
Q 21.34375 51.125 25.703125 53.5625 
Q 30.078125 56 35.796875 56 
Q 45.21875 56 50.046875 50.171875 
Q 54.890625 44.34375 54.890625 33.015625 
z
" id="DejaVuSans-110"/>
       <path d="M 48.6875 27.296875 
Q 48.6875 37.203125 44.609375 42.84375 
Q 40.53125 48.484375 33.40625 48.484375 
Q 26.265625 48.484375 22.1875 42.84375 
Q 18.109375 37.203125 18.109375 27.296875 
Q 18.109375 17.390625 22.1875 11.75 
Q 26.265625 6.109375 33.40625 6.109375 
Q 40.53125 6.109375 44.609375 11.75 
Q 48.6875 17.390625 48.6875 27.296875 
z
M 18.109375 46.390625 
Q 20.953125 51.265625 25.265625 53.625 
Q 29.59375 56 35.59375 56 
Q 45.5625 56 51.78125 48.09375 
Q 58.015625 40.1875 58.015625 27.296875 
Q 58.015625 14.40625 51.78125 6.484375 
Q 45.5625 -1.421875 35.59375 -1.421875 
Q 29.59375 -1.421875 25.265625 0.953125 
Q 20.953125 3.328125 18.109375 8.203125 
L 18.109375 0 
L 9.078125 0 
L 9.078125 75.984375 
L 18.109375 75.984375 
z
" id="DejaVuSans-98"/>
       <path d="M 34.28125 27.484375 
Q 23.390625 27.484375 19.1875 25 
Q 14.984375 22.515625 14.984375 16.5 
Q 14.984375 11.71875 18.140625 8.90625 
Q 21.296875 6.109375 26.703125 6.109375 
Q 34.1875 6.109375 38.703125 11.40625 
Q 43.21875 16.703125 43.21875 25.484375 
L 43.21875 27.484375 
z
M 52.203125 31.203125 
L 52.203125 0 
L 43.21875 0 
L 43.21875 8.296875 
Q 40.140625 3.328125 35.546875 0.953125 
Q 30.953125 -1.421875 24.3125 -1.421875 
Q 15.921875 -1.421875 10.953125 3.296875 
Q 6 8.015625 6 15.921875 
Q 6 25.140625 12.171875 29.828125 
Q 18.359375 34.515625 30.609375 34.515625 
L 43.21875 34.515625 
L 43.21875 35.40625 
Q 43.21875 41.609375 39.140625 45 
Q 35.0625 48.390625 27.6875 48.390625 
Q 23 48.390625 18.546875 47.265625 
Q 14.109375 46.140625 10.015625 43.890625 
L 10.015625 52.203125 
Q 14.9375 54.109375 19.578125 55.046875 
Q 24.21875 56 28.609375 56 
Q 40.484375 56 46.34375 49.84375 
Q 52.203125 43.703125 52.203125 31.203125 
z
M 21.921875 79.984375 
L 35.6875 61.71875 
L 28.21875 61.71875 
L 12.3125 79.984375 
z
" id="DejaVuSans-224"/>
       <path d="M 31 75.875 
Q 24.46875 64.65625 21.28125 53.65625 
Q 18.109375 42.671875 18.109375 31.390625 
Q 18.109375 20.125 21.3125 9.0625 
Q 24.515625 -2 31 -13.1875 
L 23.1875 -13.1875 
Q 15.875 -1.703125 12.234375 9.375 
Q 8.59375 20.453125 8.59375 31.390625 
Q 8.59375 42.28125 12.203125 53.3125 
Q 15.828125 64.359375 23.1875 75.875 
z
" id="DejaVuSans-40"/>
       <path d="M 59.515625 10.40625 
L 59.515625 29.984375 
L 43.40625 29.984375 
L 43.40625 38.09375 
L 69.28125 38.09375 
L 69.28125 6.78125 
Q 63.578125 2.734375 56.6875 0.65625 
Q 49.8125 -1.421875 42 -1.421875 
Q 24.90625 -1.421875 15.25 8.5625 
Q 5.609375 18.5625 5.609375 36.375 
Q 5.609375 54.25 15.25 64.234375 
Q 24.90625 74.21875 42 74.21875 
Q 49.125 74.21875 55.546875 72.453125 
Q 61.96875 70.703125 67.390625 67.28125 
L 67.390625 56.78125 
Q 61.921875 61.421875 55.765625 63.765625 
Q 49.609375 66.109375 42.828125 66.109375 
Q 29.4375 66.109375 22.71875 58.640625 
Q 16.015625 51.171875 16.015625 36.375 
Q 16.015625 21.625 22.71875 14.15625 
Q 29.4375 6.6875 42.828125 6.6875 
Q 48.046875 6.6875 52.140625 7.59375 
Q 56.25 8.5 59.515625 10.40625 
z
" id="DejaVuSans-71"/>
       <path d="M 8.015625 75.875 
L 15.828125 75.875 
Q 23.140625 64.359375 26.78125 53.3125 
Q 30.421875 42.28125 30.421875 31.390625 
Q 30.421875 20.453125 26.78125 9.375 
Q 23.140625 -1.703125 15.828125 -13.1875 
L 8.015625 -13.1875 
Q 14.5 -2 17.703125 9.0625 
Q 20.90625 20.125 20.90625 31.390625 
Q 20.90625 42.671875 17.703125 53.65625 
Q 14.5 64.65625 8.015625 75.875 
z
" id="DejaVuSans-41"/>
      </defs>
      <use xlink:href="#DejaVuSans-103"/>
      <use x="63.476562" xlink:href="#DejaVuSans-105"/>
      <use x="91.259766" xlink:href="#DejaVuSans-225"/>
      <use x="152.539062" xlink:href="#DejaVuSans-111"/>
      <use x="213.720703" xlink:href="#DejaVuSans-32"/>
      <use x="245.507812" xlink:href="#DejaVuSans-100"/>
      <use x="308.984375" xlink:href="#DejaVuSans-7909"/>
      <use x="372.363281" xlink:href="#DejaVuSans-99"/>
      <use x="427.34375" xlink:href="#DejaVuSans-32"/>
      <use x="459.130859" xlink:href="#DejaVuSans-99"/>
      <use x="514.111328" xlink:href="#DejaVuSans-7911"/>
      <use x="577.490234" xlink:href="#DejaVuSans-97"/>
      <use x="638.769531" xlink:href="#DejaVuSans-32"/>
      <use x="670.556641" xlink:href="#DejaVuSans-244"/>
      <use x="731.738281" xlink:href="#DejaVuSans-110"/>
      <use x="795.117188" xlink:href="#DejaVuSans-103"/>
      <use x="858.59375" xlink:href="#DejaVuSans-32"/>
      <use x="890.380859" xlink:href="#DejaVuSans-98"/>
      <use x="953.857422" xlink:href="#DejaVuSans-224"/>
      <use x="1015.136719" xlink:href="#DejaVuSans-32"/>
      <use x="1046.923828" xlink:href="#DejaVuSans-40"/>
      <use x="1085.9375" xlink:href="#DejaVuSans-71"/>
      <use x="1163.427734" xlink:href="#DejaVuSans-41"/>
     </g>
    </g>
   </g>
   <g id="matplotlib.axis_2">
    <g id="ytick_1">
     <g id="line2d_15">
      <path clip-path="url(#p8674657ad5)" d="M 65.797813 235.983546 
L 441.637812 235.983546 
" style="fill:none;stroke:#cbcbcb;"/>
     </g>
     <g id="line2d_16"/>
     <g id="text_9">
      <!-- −7.5 -->
      <g transform="translate(28.301875 241.302452)scale(0.14 -0.14)">
       <defs>
        <path d="M 8.203125 72.90625 
L 55.078125 72.90625 
L 55.078125 68.703125 
L 28.609375 0 
L 18.3125 0 
L 43.21875 64.59375 
L 8.203125 64.59375 
z
" id="DejaVuSans-55"/>
        <path d="M 10.6875 12.40625 
L 21 12.40625 
L 21 0 
L 10.6875 0 
z
" id="DejaVuSans-46"/>
        <path d="M 10.796875 72.90625 
L 49.515625 72.90625 
L 49.515625 64.59375 
L 19.828125 64.59375 
L 19.828125 46.734375 
Q 21.96875 47.46875 24.109375 47.828125 
Q 26.265625 48.1875 28.421875 48.1875 
Q 40.625 48.1875 47.75 41.5 
Q 54.890625 34.8125 54.890625 23.390625 
Q 54.890625 11.625 47.5625 5.09375 
Q 40.234375 -1.421875 26.90625 -1.421875 
Q 22.3125 -1.421875 17.546875 -0.640625 
Q 12.796875 0.140625 7.71875 1.703125 
L 7.71875 11.625 
Q 12.109375 9.234375 16.796875 8.0625 
Q 21.484375 6.890625 26.703125 6.890625 
Q 35.15625 6.890625 40.078125 11.328125 
Q 45.015625 15.765625 45.015625 23.390625 
Q 45.015625 31 40.078125 35.4375 
Q 35.15625 39.890625 26.703125 39.890625 
Q 22.75 39.890625 18.8125 39.015625 
Q 14.890625 38.140625 10.796875 36.28125 
z
" id="DejaVuSans-53"/>
       </defs>
       <use xlink:href="#DejaVuSans-8722"/>
       <use x="83.789062" xlink:href="#DejaVuSans-55"/>
       <use x="147.412109" xlink:href="#DejaVuSans-46"/>
       <use x="179.199219" xlink:href="#DejaVuSans-53"/>
      </g>
     </g>
    </g>
    <g id="ytick_2">
     <g id="line2d_17">
      <path clip-path="url(#p8674657ad5)" d="M 65.797813 204.992682 
L 441.637812 204.992682 
" style="fill:none;stroke:#cbcbcb;"/>
     </g>
     <g id="line2d_18"/>
     <g id="text_10">
      <!-- −5.0 -->
      <g transform="translate(28.301875 210.311588)scale(0.14 -0.14)">
       <use xlink:href="#DejaVuSans-8722"/>
       <use x="83.789062" xlink:href="#DejaVuSans-53"/>
       <use x="147.412109" xlink:href="#DejaVuSans-46"/>
       <use x="179.199219" xlink:href="#DejaVuSans-48"/>
      </g>
     </g>
    </g>
    <g id="ytick_3">
     <g id="line2d_19">
      <path clip-path="url(#p8674657ad5)" d="M 65.797813 174.001818 
L 441.637812 174.001818 
" style="fill:none;stroke:#cbcbcb;"/>
     </g>
     <g id="line2d_20"/>
     <g id="text_11">
      <!-- −2.5 -->
      <g transform="translate(28.301875 179.320725)scale(0.14 -0.14)">
       <use xlink:href="#DejaVuSans-8722"/>
       <use x="83.789062" xlink:href="#DejaVuSans-50"/>
       <use x="147.412109" xlink:href="#DejaVuSans-46"/>
       <use x="179.199219" xlink:href="#DejaVuSans-53"/>
      </g>
     </g>
    </g>
    <g id="ytick_4">
     <g id="line2d_21">
      <path clip-path="url(#p8674657ad5)" d="M 65.797813 143.010955 
L 441.637812 143.010955 
" style="fill:none;stroke:#cbcbcb;"/>
     </g>
     <g id="line2d_22"/>
     <g id="text_12">
      <!-- 0.0 -->
      <g transform="translate(40.033438 148.329861)scale(0.14 -0.14)">
       <use xlink:href="#DejaVuSans-48"/>
       <use x="63.623047" xlink:href="#DejaVuSans-46"/>
       <use x="95.410156" xlink:href="#DejaVuSans-48"/>
      </g>
     </g>
    </g>
    <g id="ytick_5">
     <g id="line2d_23">
      <path clip-path="url(#p8674657ad5)" d="M 65.797813 112.020091 
L 441.637812 112.020091 
" style="fill:none;stroke:#cbcbcb;"/>
     </g>
     <g id="line2d_24"/>
     <g id="text_13">
      <!-- 2.5 -->
      <g transform="translate(40.033438 117.338997)scale(0.14 -0.14)">
       <use xlink:href="#DejaVuSans-50"/>
       <use x="63.623047" xlink:href="#DejaVuSans-46"/>
       <use x="95.410156" xlink:href="#DejaVuSans-53"/>
      </g>
     </g>
    </g>
    <g id="ytick_6">
     <g id="line2d_25">
      <path clip-path="url(#p8674657ad5)" d="M 65.797813 81.029227 
L 441.637812 81.029227 
" style="fill:none;stroke:#cbcbcb;"/>
     </g>
     <g id="line2d_26"/>
     <g id="text_14">
      <!-- 5.0 -->
      <g transform="translate(40.033438 86.348134)scale(0.14 -0.14)">
       <use xlink:href="#DejaVuSans-53"/>
       <use x="63.623047" xlink:href="#DejaVuSans-46"/>
       <use x="95.410156" xlink:href="#DejaVuSans-48"/>
      </g>
     </g>
    </g>
    <g id="ytick_7">
     <g id="line2d_27">
      <path clip-path="url(#p8674657ad5)" d="M 65.797813 50.038364 
L 441.637812 50.038364 
" style="fill:none;stroke:#cbcbcb;"/>
     </g>
     <g id="line2d_28"/>
     <g id="text_15">
      <!-- 7.5 -->
      <g transform="translate(40.033438 55.35727)scale(0.14 -0.14)">
       <use xlink:href="#DejaVuSans-55"/>
       <use x="63.623047" xlink:href="#DejaVuSans-46"/>
       <use x="95.410156" xlink:href="#DejaVuSans-53"/>
      </g>
     </g>
    </g>
    <g id="text_16">
     <!-- giáo dục của con cái(C) -->
     <g transform="translate(20.808 242.448692)rotate(-90)scale(0.168 -0.168)">
      <defs>
       <path d="M 64.40625 67.28125 
L 64.40625 56.890625 
Q 59.421875 61.53125 53.78125 63.8125 
Q 48.140625 66.109375 41.796875 66.109375 
Q 29.296875 66.109375 22.65625 58.46875 
Q 16.015625 50.828125 16.015625 36.375 
Q 16.015625 21.96875 22.65625 14.328125 
Q 29.296875 6.6875 41.796875 6.6875 
Q 48.140625 6.6875 53.78125 8.984375 
Q 59.421875 11.28125 64.40625 15.921875 
L 64.40625 5.609375 
Q 59.234375 2.09375 53.4375 0.328125 
Q 47.65625 -1.421875 41.21875 -1.421875 
Q 24.65625 -1.421875 15.125 8.703125 
Q 5.609375 18.84375 5.609375 36.375 
Q 5.609375 53.953125 15.125 64.078125 
Q 24.65625 74.21875 41.21875 74.21875 
Q 47.75 74.21875 53.53125 72.484375 
Q 59.328125 70.75 64.40625 67.28125 
z
" id="DejaVuSans-67"/>
      </defs>
      <use xlink:href="#DejaVuSans-103"/>
      <use x="63.476562" xlink:href="#DejaVuSans-105"/>
      <use x="91.259766" xlink:href="#DejaVuSans-225"/>
      <use x="152.539062" xlink:href="#DejaVuSans-111"/>
      <use x="213.720703" xlink:href="#DejaVuSans-32"/>
      <use x="245.507812" xlink:href="#DejaVuSans-100"/>
      <use x="308.984375" xlink:href="#DejaVuSans-7909"/>
      <use x="372.363281" xlink:href="#DejaVuSans-99"/>
      <use x="427.34375" xlink:href="#DejaVuSans-32"/>
      <use x="459.130859" xlink:href="#DejaVuSans-99"/>
      <use x="514.111328" xlink:href="#DejaVuSans-7911"/>
      <use x="577.490234" xlink:href="#DejaVuSans-97"/>
      <use x="638.769531" xlink:href="#DejaVuSans-32"/>
      <use x="670.556641" xlink:href="#DejaVuSans-99"/>
      <use x="725.537109" xlink:href="#DejaVuSans-111"/>
      <use x="786.71875" xlink:href="#DejaVuSans-110"/>
      <use x="850.097656" xlink:href="#DejaVuSans-32"/>
      <use x="881.884766" xlink:href="#DejaVuSans-99"/>
      <use x="936.865234" xlink:href="#DejaVuSans-225"/>
      <use x="998.144531" xlink:href="#DejaVuSans-105"/>
      <use x="1025.927734" xlink:href="#DejaVuSans-40"/>
      <use x="1064.941406" xlink:href="#DejaVuSans-67"/>
      <use x="1134.765625" xlink:href="#DejaVuSans-41"/>
     </g>
    </g>
   </g>
   <g id="PathCollection_1">
    <defs>
     <path d="M 0 3.535534 
C 0.937635 3.535534 1.836992 3.163008 2.5 2.5 
C 3.163008 1.836992 3.535534 0.937635 3.535534 0 
C 3.535534 -0.937635 3.163008 -1.836992 2.5 -2.5 
C 1.836992 -3.163008 0.937635 -3.535534 0 -3.535534 
C -0.937635 -3.535534 -1.836992 -3.163008 -2.5 -2.5 
C -3.163008 -1.836992 -3.535534 -0.937635 -3.535534 0 
C -3.535534 0.937635 -3.163008 1.836992 -2.5 2.5 
C -1.836992 3.163008 -0.937635 3.535534 0 3.535534 
z
" id="m6aae00b1b4" style="stroke:#008fd5;stroke-width:0.5;"/>
    </defs>
    <g clip-path="url(#p8674657ad5)">
     <use style="fill:#ffffff;stroke:#008fd5;stroke-width:0.5;" x="250.894967" xlink:href="#m6aae00b1b4" y="195.376688"/>
     <use style="fill:#ffffff;stroke:#008fd5;stroke-width:0.5;" x="271.46584" xlink:href="#m6aae00b1b4" y="226.176956"/>
     <use style="fill:#ffffff;stroke:#008fd5;stroke-width:0.5;" x="264.307144" xlink:href="#m6aae00b1b4" y="168.81618"/>
     <use style="fill:#ffffff;stroke:#008fd5;stroke-width:0.5;" x="239.345936" xlink:href="#m6aae00b1b4" y="168.275021"/>
     <use style="fill:#ffffff;stroke:#008fd5;stroke-width:0.5;" x="298.388871" xlink:href="#m6aae00b1b4" y="185.134396"/>
     <use style="fill:#ffffff;stroke:#008fd5;stroke-width:0.5;" x="94.046939" xlink:href="#m6aae00b1b4" y="221.414391"/>
     <use style="fill:#ffffff;stroke:#008fd5;stroke-width:0.5;" x="325.145865" xlink:href="#m6aae00b1b4" y="204.854931"/>
     <use style="fill:#ffffff;stroke:#008fd5;stroke-width:0.5;" x="215.870544" xlink:href="#m6aae00b1b4" y="207.874089"/>
     <use style="fill:#ffffff;stroke:#008fd5;stroke-width:0.5;" x="188.292418" xlink:href="#m6aae00b1b4" y="194.123447"/>
     <use style="fill:#ffffff;stroke:#008fd5;stroke-width:0.5;" x="230.294208" xlink:href="#m6aae00b1b4" y="208.139476"/>
     <use style="fill:#ffffff;stroke:#008fd5;stroke-width:0.5;" x="212.133843" xlink:href="#m6aae00b1b4" y="182.17942"/>
     <use style="fill:#ffffff;stroke:#008fd5;stroke-width:0.5;" x="339.185425" xlink:href="#m6aae00b1b4" y="152.435097"/>
     <use style="fill:#ffffff;stroke:#008fd5;stroke-width:0.5;" x="251.850715" xlink:href="#m6aae00b1b4" y="239.726037"/>
     <use style="fill:#ffffff;stroke:#008fd5;stroke-width:0.5;" x="282.514274" xlink:href="#m6aae00b1b4" y="174.340332"/>
     <use style="fill:#ffffff;stroke:#008fd5;stroke-width:0.5;" x="270.819404" xlink:href="#m6aae00b1b4" y="191.075967"/>
     <use style="fill:#ffffff;stroke:#008fd5;stroke-width:0.5;" x="121.111377" xlink:href="#m6aae00b1b4" y="233.415336"/>
     <use style="fill:#ffffff;stroke:#008fd5;stroke-width:0.5;" x="288.656253" xlink:href="#m6aae00b1b4" y="163.807466"/>
     <use style="fill:#ffffff;stroke:#008fd5;stroke-width:0.5;" x="259.769523" xlink:href="#m6aae00b1b4" y="186.34406"/>
     <use style="fill:#ffffff;stroke:#008fd5;stroke-width:0.5;" x="210.872341" xlink:href="#m6aae00b1b4" y="206.006597"/>
     <use style="fill:#ffffff;stroke:#008fd5;stroke-width:0.5;" x="301.522825" xlink:href="#m6aae00b1b4" y="135.559966"/>
     <use style="fill:#ffffff;stroke:#008fd5;stroke-width:0.5;" x="228.377885" xlink:href="#m6aae00b1b4" y="231.27953"/>
     <use style="fill:#ffffff;stroke:#008fd5;stroke-width:0.5;" x="328.991653" xlink:href="#m6aae00b1b4" y="166.7876"/>
     <use style="fill:#ffffff;stroke:#008fd5;stroke-width:0.5;" x="207.334768" xlink:href="#m6aae00b1b4" y="187.964465"/>
     <use style="fill:#ffffff;stroke:#008fd5;stroke-width:0.5;" x="126.115994" xlink:href="#m6aae00b1b4" y="217.467656"/>
     <use style="fill:#ffffff;stroke:#008fd5;stroke-width:0.5;" x="221.289112" xlink:href="#m6aae00b1b4" y="185.054963"/>
     <use style="fill:#ffffff;stroke:#008fd5;stroke-width:0.5;" x="287.877358" xlink:href="#m6aae00b1b4" y="183.085831"/>
     <use style="fill:#ffffff;stroke:#008fd5;stroke-width:0.5;" x="174.28927" xlink:href="#m6aae00b1b4" y="217.244225"/>
     <use style="fill:#ffffff;stroke:#008fd5;stroke-width:0.5;" x="213.805569" xlink:href="#m6aae00b1b4" y="191.03537"/>
     <use style="fill:#ffffff;stroke:#008fd5;stroke-width:0.5;" x="157.404763" xlink:href="#m6aae00b1b4" y="194.53748"/>
     <use style="fill:#ffffff;stroke:#008fd5;stroke-width:0.5;" x="251.184095" xlink:href="#m6aae00b1b4" y="221.809657"/>
     <use style="fill:#ffffff;stroke:#008fd5;stroke-width:0.5;" x="327.255429" xlink:href="#m6aae00b1b4" y="188.821415"/>
     <use style="fill:#ffffff;stroke:#008fd5;stroke-width:0.5;" x="244.837606" xlink:href="#m6aae00b1b4" y="190.829019"/>
     <use style="fill:#ffffff;stroke:#008fd5;stroke-width:0.5;" x="197.365575" xlink:href="#m6aae00b1b4" y="167.949498"/>
     <use style="fill:#ffffff;stroke:#008fd5;stroke-width:0.5;" x="231.840361" xlink:href="#m6aae00b1b4" y="196.989396"/>
     <use style="fill:#ffffff;stroke:#008fd5;stroke-width:0.5;" x="167.96537" xlink:href="#m6aae00b1b4" y="220.006039"/>
     <use style="fill:#ffffff;stroke:#008fd5;stroke-width:0.5;" x="307.032786" xlink:href="#m6aae00b1b4" y="189.959018"/>
     <use style="fill:#ffffff;stroke:#008fd5;stroke-width:0.5;" x="424.554176" xlink:href="#m6aae00b1b4" y="143.546448"/>
     <use style="fill:#ffffff;stroke:#008fd5;stroke-width:0.5;" x="297.275253" xlink:href="#m6aae00b1b4" y="158.273636"/>
     <use style="fill:#ffffff;stroke:#008fd5;stroke-width:0.5;" x="181.599429" xlink:href="#m6aae00b1b4" y="194.539555"/>
     <use style="fill:#ffffff;stroke:#008fd5;stroke-width:0.5;" x="204.3433" xlink:href="#m6aae00b1b4" y="193.105017"/>
     <use style="fill:#ffffff;stroke:#008fd5;stroke-width:0.5;" x="248.616287" xlink:href="#m6aae00b1b4" y="215.691306"/>
     <use style="fill:#ffffff;stroke:#008fd5;stroke-width:0.5;" x="153.435402" xlink:href="#m6aae00b1b4" y="205.624767"/>
     <use style="fill:#ffffff;stroke:#008fd5;stroke-width:0.5;" x="263.078632" xlink:href="#m6aae00b1b4" y="190.074522"/>
     <use style="fill:#ffffff;stroke:#008fd5;stroke-width:0.5;" x="196.943154" xlink:href="#m6aae00b1b4" y="206.319355"/>
     <use style="fill:#ffffff;stroke:#008fd5;stroke-width:0.5;" x="297.355013" xlink:href="#m6aae00b1b4" y="149.070328"/>
     <use style="fill:#ffffff;stroke:#008fd5;stroke-width:0.5;" x="322.869504" xlink:href="#m6aae00b1b4" y="162.243462"/>
     <use style="fill:#ffffff;stroke:#008fd5;stroke-width:0.5;" x="219.153075" xlink:href="#m6aae00b1b4" y="185.270793"/>
     <use style="fill:#ffffff;stroke:#008fd5;stroke-width:0.5;" x="292.695269" xlink:href="#m6aae00b1b4" y="175.277639"/>
     <use style="fill:#ffffff;stroke:#008fd5;stroke-width:0.5;" x="226.285791" xlink:href="#m6aae00b1b4" y="203.485639"/>
     <use style="fill:#ffffff;stroke:#008fd5;stroke-width:0.5;" x="133.071687" xlink:href="#m6aae00b1b4" y="231.355699"/>
     <use style="fill:#ffffff;stroke:#008fd5;stroke-width:0.5;" x="308.275159" xlink:href="#m6aae00b1b4" y="190.805517"/>
     <use style="fill:#ffffff;stroke:#008fd5;stroke-width:0.5;" x="284.362447" xlink:href="#m6aae00b1b4" y="202.885001"/>
     <use style="fill:#ffffff;stroke:#008fd5;stroke-width:0.5;" x="323.915543" xlink:href="#m6aae00b1b4" y="173.567449"/>
     <use style="fill:#ffffff;stroke:#008fd5;stroke-width:0.5;" x="312.272001" xlink:href="#m6aae00b1b4" y="185.90328"/>
     <use style="fill:#ffffff;stroke:#008fd5;stroke-width:0.5;" x="231.710825" xlink:href="#m6aae00b1b4" y="186.077845"/>
     <use style="fill:#ffffff;stroke:#008fd5;stroke-width:0.5;" x="307.068403" xlink:href="#m6aae00b1b4" y="182.836462"/>
     <use style="fill:#ffffff;stroke:#008fd5;stroke-width:0.5;" x="145.138508" xlink:href="#m6aae00b1b4" y="249.886118"/>
     <use style="fill:#ffffff;stroke:#008fd5;stroke-width:0.5;" x="245.793312" xlink:href="#m6aae00b1b4" y="167.427619"/>
     <use style="fill:#ffffff;stroke:#008fd5;stroke-width:0.5;" x="235.206411" xlink:href="#m6aae00b1b4" y="199.656362"/>
     <use style="fill:#ffffff;stroke:#008fd5;stroke-width:0.5;" x="306.555047" xlink:href="#m6aae00b1b4" y="172.230505"/>
     <use style="fill:#ffffff;stroke:#008fd5;stroke-width:0.5;" x="230.081489" xlink:href="#m6aae00b1b4" y="191.795435"/>
     <use style="fill:#ffffff;stroke:#008fd5;stroke-width:0.5;" x="340.321781" xlink:href="#m6aae00b1b4" y="204.09859"/>
     <use style="fill:#ffffff;stroke:#008fd5;stroke-width:0.5;" x="259.04669" xlink:href="#m6aae00b1b4" y="181.010457"/>
     <use style="fill:#ffffff;stroke:#008fd5;stroke-width:0.5;" x="268.703911" xlink:href="#m6aae00b1b4" y="190.34883"/>
     <use style="fill:#ffffff;stroke:#008fd5;stroke-width:0.5;" x="290.71902" xlink:href="#m6aae00b1b4" y="176.223795"/>
     <use style="fill:#ffffff;stroke:#008fd5;stroke-width:0.5;" x="182.726886" xlink:href="#m6aae00b1b4" y="225.771264"/>
     <use style="fill:#ffffff;stroke:#008fd5;stroke-width:0.5;" x="216.692982" xlink:href="#m6aae00b1b4" y="174.301147"/>
     <use style="fill:#ffffff;stroke:#008fd5;stroke-width:0.5;" x="244.680008" xlink:href="#m6aae00b1b4" y="199.136469"/>
     <use style="fill:#ffffff;stroke:#008fd5;stroke-width:0.5;" x="250.471979" xlink:href="#m6aae00b1b4" y="209.784063"/>
     <use style="fill:#ffffff;stroke:#008fd5;stroke-width:0.5;" x="308.292518" xlink:href="#m6aae00b1b4" y="195.014436"/>
     <use style="fill:#ffffff;stroke:#008fd5;stroke-width:0.5;" x="308.248187" xlink:href="#m6aae00b1b4" y="142.34308"/>
     <use style="fill:#ffffff;stroke:#008fd5;stroke-width:0.5;" x="220.432656" xlink:href="#m6aae00b1b4" y="222.531879"/>
     <use style="fill:#ffffff;stroke:#008fd5;stroke-width:0.5;" x="227.287097" xlink:href="#m6aae00b1b4" y="179.443287"/>
     <use style="fill:#ffffff;stroke:#008fd5;stroke-width:0.5;" x="293.323891" xlink:href="#m6aae00b1b4" y="176.963677"/>
     <use style="fill:#ffffff;stroke:#008fd5;stroke-width:0.5;" x="193.643302" xlink:href="#m6aae00b1b4" y="227.741608"/>
     <use style="fill:#ffffff;stroke:#008fd5;stroke-width:0.5;" x="210.569304" xlink:href="#m6aae00b1b4" y="177.71979"/>
     <use style="fill:#ffffff;stroke:#008fd5;stroke-width:0.5;" x="258.403795" xlink:href="#m6aae00b1b4" y="208.537644"/>
     <use style="fill:#ffffff;stroke:#008fd5;stroke-width:0.5;" x="380.893289" xlink:href="#m6aae00b1b4" y="182.340269"/>
     <use style="fill:#ffffff;stroke:#008fd5;stroke-width:0.5;" x="282.854977" xlink:href="#m6aae00b1b4" y="173.69289"/>
     <use style="fill:#ffffff;stroke:#008fd5;stroke-width:0.5;" x="283.51073" xlink:href="#m6aae00b1b4" y="176.891873"/>
     <use style="fill:#ffffff;stroke:#008fd5;stroke-width:0.5;" x="290.543423" xlink:href="#m6aae00b1b4" y="185.82005"/>
     <use style="fill:#ffffff;stroke:#008fd5;stroke-width:0.5;" x="275.965774" xlink:href="#m6aae00b1b4" y="174.88741"/>
     <use style="fill:#ffffff;stroke:#008fd5;stroke-width:0.5;" x="340.034137" xlink:href="#m6aae00b1b4" y="120.22044"/>
     <use style="fill:#ffffff;stroke:#008fd5;stroke-width:0.5;" x="274.475055" xlink:href="#m6aae00b1b4" y="205.810687"/>
     <use style="fill:#ffffff;stroke:#008fd5;stroke-width:0.5;" x="213.101525" xlink:href="#m6aae00b1b4" y="211.012318"/>
     <use style="fill:#ffffff;stroke:#008fd5;stroke-width:0.5;" x="228.334263" xlink:href="#m6aae00b1b4" y="178.58245"/>
     <use style="fill:#ffffff;stroke:#008fd5;stroke-width:0.5;" x="264.066732" xlink:href="#m6aae00b1b4" y="192.984798"/>
     <use style="fill:#ffffff;stroke:#008fd5;stroke-width:0.5;" x="179.83976" xlink:href="#m6aae00b1b4" y="227.508565"/>
     <use style="fill:#ffffff;stroke:#008fd5;stroke-width:0.5;" x="176.285027" xlink:href="#m6aae00b1b4" y="210.461575"/>
     <use style="fill:#ffffff;stroke:#008fd5;stroke-width:0.5;" x="257.064667" xlink:href="#m6aae00b1b4" y="166.197074"/>
     <use style="fill:#ffffff;stroke:#008fd5;stroke-width:0.5;" x="267.654914" xlink:href="#m6aae00b1b4" y="190.511111"/>
     <use style="fill:#ffffff;stroke:#008fd5;stroke-width:0.5;" x="255.540345" xlink:href="#m6aae00b1b4" y="211.006377"/>
     <use style="fill:#ffffff;stroke:#008fd5;stroke-width:0.5;" x="384.362057" xlink:href="#m6aae00b1b4" y="173.205584"/>
    </g>
   </g>
   <g id="PathCollection_2">
    <defs>
     <path d="M 0 3.535534 
C 0.937635 3.535534 1.836992 3.163008 2.5 2.5 
C 3.163008 1.836992 3.535534 0.937635 3.535534 0 
C 3.535534 -0.937635 3.163008 -1.836992 2.5 -2.5 
C 1.836992 -3.163008 0.937635 -3.535534 0 -3.535534 
C -0.937635 -3.535534 -1.836992 -3.163008 -2.5 -2.5 
C -3.163008 -1.836992 -3.535534 -0.937635 -3.535534 0 
C -3.535534 0.937635 -3.163008 1.836992 -2.5 2.5 
C -1.836992 3.163008 -0.937635 3.535534 0 3.535534 
z
" id="m8cafd67edf" style="stroke:#fc4f30;stroke-width:0.5;"/>
    </defs>
    <g clip-path="url(#p8674657ad5)">
     <use style="fill:#ffffff;stroke:#fc4f30;stroke-width:0.5;" x="236.593616" xlink:href="#m8cafd67edf" y="100.304626"/>
     <use style="fill:#ffffff;stroke:#fc4f30;stroke-width:0.5;" x="377.773913" xlink:href="#m8cafd67edf" y="37.813391"/>
     <use style="fill:#ffffff;stroke:#fc4f30;stroke-width:0.5;" x="244.828596" xlink:href="#m8cafd67edf" y="114.238427"/>
     <use style="fill:#ffffff;stroke:#fc4f30;stroke-width:0.5;" x="234.021373" xlink:href="#m8cafd67edf" y="120.488571"/>
     <use style="fill:#ffffff;stroke:#fc4f30;stroke-width:0.5;" x="221.190073" xlink:href="#m8cafd67edf" y="91.315971"/>
     <use style="fill:#ffffff;stroke:#fc4f30;stroke-width:0.5;" x="252.169906" xlink:href="#m8cafd67edf" y="87.138563"/>
     <use style="fill:#ffffff;stroke:#fc4f30;stroke-width:0.5;" x="201.697175" xlink:href="#m8cafd67edf" y="100.364623"/>
     <use style="fill:#ffffff;stroke:#fc4f30;stroke-width:0.5;" x="149.626707" xlink:href="#m8cafd67edf" y="98.39224"/>
     <use style="fill:#ffffff;stroke:#fc4f30;stroke-width:0.5;" x="284.332521" xlink:href="#m8cafd67edf" y="113.326345"/>
     <use style="fill:#ffffff;stroke:#fc4f30;stroke-width:0.5;" x="306.418752" xlink:href="#m8cafd67edf" y="94.583486"/>
     <use style="fill:#ffffff;stroke:#fc4f30;stroke-width:0.5;" x="237.633493" xlink:href="#m8cafd67edf" y="105.009227"/>
     <use style="fill:#ffffff;stroke:#fc4f30;stroke-width:0.5;" x="355.191682" xlink:href="#m8cafd67edf" y="86.322787"/>
     <use style="fill:#ffffff;stroke:#fc4f30;stroke-width:0.5;" x="261.43008" xlink:href="#m8cafd67edf" y="117.597229"/>
     <use style="fill:#ffffff;stroke:#fc4f30;stroke-width:0.5;" x="188.027334" xlink:href="#m8cafd67edf" y="94.590899"/>
     <use style="fill:#ffffff;stroke:#fc4f30;stroke-width:0.5;" x="241.091299" xlink:href="#m8cafd67edf" y="84.494928"/>
     <use style="fill:#ffffff;stroke:#fc4f30;stroke-width:0.5;" x="242.598174" xlink:href="#m8cafd67edf" y="77.867023"/>
     <use style="fill:#ffffff;stroke:#fc4f30;stroke-width:0.5;" x="207.977582" xlink:href="#m8cafd67edf" y="102.624141"/>
     <use style="fill:#ffffff;stroke:#fc4f30;stroke-width:0.5;" x="222.817821" xlink:href="#m8cafd67edf" y="113.726277"/>
     <use style="fill:#ffffff;stroke:#fc4f30;stroke-width:0.5;" x="255.518029" xlink:href="#m8cafd67edf" y="65.875956"/>
     <use style="fill:#ffffff;stroke:#fc4f30;stroke-width:0.5;" x="195.441949" xlink:href="#m8cafd67edf" y="113.519302"/>
     <use style="fill:#ffffff;stroke:#fc4f30;stroke-width:0.5;" x="211.519328" xlink:href="#m8cafd67edf" y="106.481759"/>
     <use style="fill:#ffffff;stroke:#fc4f30;stroke-width:0.5;" x="278.708663" xlink:href="#m8cafd67edf" y="103.512363"/>
     <use style="fill:#ffffff;stroke:#fc4f30;stroke-width:0.5;" x="327.142341" xlink:href="#m8cafd67edf" y="62.372673"/>
     <use style="fill:#ffffff;stroke:#fc4f30;stroke-width:0.5;" x="237.871118" xlink:href="#m8cafd67edf" y="109.666549"/>
     <use style="fill:#ffffff;stroke:#fc4f30;stroke-width:0.5;" x="265.85464" xlink:href="#m8cafd67edf" y="97.455219"/>
     <use style="fill:#ffffff;stroke:#fc4f30;stroke-width:0.5;" x="192.58674" xlink:href="#m8cafd67edf" y="138.400336"/>
     <use style="fill:#ffffff;stroke:#fc4f30;stroke-width:0.5;" x="276.534632" xlink:href="#m8cafd67edf" y="84.721711"/>
     <use style="fill:#ffffff;stroke:#fc4f30;stroke-width:0.5;" x="367.527783" xlink:href="#m8cafd67edf" y="75.801032"/>
     <use style="fill:#ffffff;stroke:#fc4f30;stroke-width:0.5;" x="240.578094" xlink:href="#m8cafd67edf" y="108.112375"/>
     <use style="fill:#ffffff;stroke:#fc4f30;stroke-width:0.5;" x="215.135967" xlink:href="#m8cafd67edf" y="115.569374"/>
     <use style="fill:#ffffff;stroke:#fc4f30;stroke-width:0.5;" x="252.429354" xlink:href="#m8cafd67edf" y="80.090401"/>
     <use style="fill:#ffffff;stroke:#fc4f30;stroke-width:0.5;" x="175.473339" xlink:href="#m8cafd67edf" y="150.894746"/>
     <use style="fill:#ffffff;stroke:#fc4f30;stroke-width:0.5;" x="335.734124" xlink:href="#m8cafd67edf" y="40.618439"/>
     <use style="fill:#ffffff;stroke:#fc4f30;stroke-width:0.5;" x="325.898899" xlink:href="#m8cafd67edf" y="71.362522"/>
     <use style="fill:#ffffff;stroke:#fc4f30;stroke-width:0.5;" x="236.919853" xlink:href="#m8cafd67edf" y="98.767091"/>
     <use style="fill:#ffffff;stroke:#fc4f30;stroke-width:0.5;" x="243.716833" xlink:href="#m8cafd67edf" y="83.210767"/>
     <use style="fill:#ffffff;stroke:#fc4f30;stroke-width:0.5;" x="275.976239" xlink:href="#m8cafd67edf" y="81.140591"/>
     <use style="fill:#ffffff;stroke:#fc4f30;stroke-width:0.5;" x="255.399507" xlink:href="#m8cafd67edf" y="73.895444"/>
     <use style="fill:#ffffff;stroke:#fc4f30;stroke-width:0.5;" x="292.629421" xlink:href="#m8cafd67edf" y="81.991527"/>
     <use style="fill:#ffffff;stroke:#fc4f30;stroke-width:0.5;" x="259.320808" xlink:href="#m8cafd67edf" y="117.607813"/>
     <use style="fill:#ffffff;stroke:#fc4f30;stroke-width:0.5;" x="331.8421" xlink:href="#m8cafd67edf" y="108.686407"/>
     <use style="fill:#ffffff;stroke:#fc4f30;stroke-width:0.5;" x="193.514248" xlink:href="#m8cafd67edf" y="93.378503"/>
     <use style="fill:#ffffff;stroke:#fc4f30;stroke-width:0.5;" x="327.505178" xlink:href="#m8cafd67edf" y="85.457943"/>
     <use style="fill:#ffffff;stroke:#fc4f30;stroke-width:0.5;" x="294.412536" xlink:href="#m8cafd67edf" y="109.317869"/>
     <use style="fill:#ffffff;stroke:#fc4f30;stroke-width:0.5;" x="316.098005" xlink:href="#m8cafd67edf" y="89.70153"/>
     <use style="fill:#ffffff;stroke:#fc4f30;stroke-width:0.5;" x="316.469926" xlink:href="#m8cafd67edf" y="76.829045"/>
     <use style="fill:#ffffff;stroke:#fc4f30;stroke-width:0.5;" x="214.569228" xlink:href="#m8cafd67edf" y="95.888957"/>
     <use style="fill:#ffffff;stroke:#fc4f30;stroke-width:0.5;" x="258.97978" xlink:href="#m8cafd67edf" y="93.468386"/>
     <use style="fill:#ffffff;stroke:#fc4f30;stroke-width:0.5;" x="265.653473" xlink:href="#m8cafd67edf" y="72.265818"/>
     <use style="fill:#ffffff;stroke:#fc4f30;stroke-width:0.5;" x="259.292417" xlink:href="#m8cafd67edf" y="106.932857"/>
     <use style="fill:#ffffff;stroke:#fc4f30;stroke-width:0.5;" x="240.952541" xlink:href="#m8cafd67edf" y="47.924186"/>
     <use style="fill:#ffffff;stroke:#fc4f30;stroke-width:0.5;" x="195.853866" xlink:href="#m8cafd67edf" y="125.894274"/>
     <use style="fill:#ffffff;stroke:#fc4f30;stroke-width:0.5;" x="300.316597" xlink:href="#m8cafd67edf" y="120.459381"/>
     <use style="fill:#ffffff;stroke:#fc4f30;stroke-width:0.5;" x="287.660323" xlink:href="#m8cafd67edf" y="61.124285"/>
     <use style="fill:#ffffff;stroke:#fc4f30;stroke-width:0.5;" x="267.064759" xlink:href="#m8cafd67edf" y="107.77025"/>
     <use style="fill:#ffffff;stroke:#fc4f30;stroke-width:0.5;" x="275.228013" xlink:href="#m8cafd67edf" y="88.613651"/>
     <use style="fill:#ffffff;stroke:#fc4f30;stroke-width:0.5;" x="256.282956" xlink:href="#m8cafd67edf" y="93.655444"/>
     <use style="fill:#ffffff;stroke:#fc4f30;stroke-width:0.5;" x="228.271372" xlink:href="#m8cafd67edf" y="101.320692"/>
     <use style="fill:#ffffff;stroke:#fc4f30;stroke-width:0.5;" x="248.748526" xlink:href="#m8cafd67edf" y="98.428572"/>
     <use style="fill:#ffffff;stroke:#fc4f30;stroke-width:0.5;" x="382.478637" xlink:href="#m8cafd67edf" y="75.604585"/>
     <use style="fill:#ffffff;stroke:#fc4f30;stroke-width:0.5;" x="239.58349" xlink:href="#m8cafd67edf" y="93.721491"/>
     <use style="fill:#ffffff;stroke:#fc4f30;stroke-width:0.5;" x="192.305086" xlink:href="#m8cafd67edf" y="85.26785"/>
     <use style="fill:#ffffff;stroke:#fc4f30;stroke-width:0.5;" x="300.044329" xlink:href="#m8cafd67edf" y="54.703018"/>
     <use style="fill:#ffffff;stroke:#fc4f30;stroke-width:0.5;" x="322.331041" xlink:href="#m8cafd67edf" y="97.787694"/>
     <use style="fill:#ffffff;stroke:#fc4f30;stroke-width:0.5;" x="200.056597" xlink:href="#m8cafd67edf" y="126.22251"/>
     <use style="fill:#ffffff;stroke:#fc4f30;stroke-width:0.5;" x="237.085965" xlink:href="#m8cafd67edf" y="93.432087"/>
     <use style="fill:#ffffff;stroke:#fc4f30;stroke-width:0.5;" x="236.210771" xlink:href="#m8cafd67edf" y="97.467984"/>
     <use style="fill:#ffffff;stroke:#fc4f30;stroke-width:0.5;" x="283.089448" xlink:href="#m8cafd67edf" y="61.440733"/>
     <use style="fill:#ffffff;stroke:#fc4f30;stroke-width:0.5;" x="286.75774" xlink:href="#m8cafd67edf" y="73.811726"/>
     <use style="fill:#ffffff;stroke:#fc4f30;stroke-width:0.5;" x="248.124183" xlink:href="#m8cafd67edf" y="110.695309"/>
     <use style="fill:#ffffff;stroke:#fc4f30;stroke-width:0.5;" x="245.447863" xlink:href="#m8cafd67edf" y="108.732333"/>
     <use style="fill:#ffffff;stroke:#fc4f30;stroke-width:0.5;" x="311.586056" xlink:href="#m8cafd67edf" y="137.955959"/>
     <use style="fill:#ffffff;stroke:#fc4f30;stroke-width:0.5;" x="292.877865" xlink:href="#m8cafd67edf" y="98.734628"/>
     <use style="fill:#ffffff;stroke:#fc4f30;stroke-width:0.5;" x="82.881449" xlink:href="#m8cafd67edf" y="152.179403"/>
     <use style="fill:#ffffff;stroke:#fc4f30;stroke-width:0.5;" x="284.40173" xlink:href="#m8cafd67edf" y="82.917319"/>
     <use style="fill:#ffffff;stroke:#fc4f30;stroke-width:0.5;" x="238.845897" xlink:href="#m8cafd67edf" y="98.119247"/>
     <use style="fill:#ffffff;stroke:#fc4f30;stroke-width:0.5;" x="130.025517" xlink:href="#m8cafd67edf" y="125.368631"/>
     <use style="fill:#ffffff;stroke:#fc4f30;stroke-width:0.5;" x="208.448545" xlink:href="#m8cafd67edf" y="113.183688"/>
     <use style="fill:#ffffff;stroke:#fc4f30;stroke-width:0.5;" x="176.557375" xlink:href="#m8cafd67edf" y="92.409897"/>
     <use style="fill:#ffffff;stroke:#fc4f30;stroke-width:0.5;" x="269.305558" xlink:href="#m8cafd67edf" y="92.639629"/>
     <use style="fill:#ffffff;stroke:#fc4f30;stroke-width:0.5;" x="222.405522" xlink:href="#m8cafd67edf" y="55.608169"/>
     <use style="fill:#ffffff;stroke:#fc4f30;stroke-width:0.5;" x="327.244862" xlink:href="#m8cafd67edf" y="86.608231"/>
     <use style="fill:#ffffff;stroke:#fc4f30;stroke-width:0.5;" x="297.480422" xlink:href="#m8cafd67edf" y="90.479978"/>
     <use style="fill:#ffffff;stroke:#fc4f30;stroke-width:0.5;" x="239.938098" xlink:href="#m8cafd67edf" y="96.79318"/>
     <use style="fill:#ffffff;stroke:#fc4f30;stroke-width:0.5;" x="226.856324" xlink:href="#m8cafd67edf" y="110.022908"/>
     <use style="fill:#ffffff;stroke:#fc4f30;stroke-width:0.5;" x="295.003399" xlink:href="#m8cafd67edf" y="92.700064"/>
     <use style="fill:#ffffff;stroke:#fc4f30;stroke-width:0.5;" x="202.490072" xlink:href="#m8cafd67edf" y="98.265492"/>
     <use style="fill:#ffffff;stroke:#fc4f30;stroke-width:0.5;" x="285.367086" xlink:href="#m8cafd67edf" y="92.696115"/>
     <use style="fill:#ffffff;stroke:#fc4f30;stroke-width:0.5;" x="206.284601" xlink:href="#m8cafd67edf" y="114.929262"/>
     <use style="fill:#ffffff;stroke:#fc4f30;stroke-width:0.5;" x="210.459007" xlink:href="#m8cafd67edf" y="113.725473"/>
     <use style="fill:#ffffff;stroke:#fc4f30;stroke-width:0.5;" x="265.312157" xlink:href="#m8cafd67edf" y="104.076336"/>
     <use style="fill:#ffffff;stroke:#fc4f30;stroke-width:0.5;" x="285.233754" xlink:href="#m8cafd67edf" y="61.204758"/>
     <use style="fill:#ffffff;stroke:#fc4f30;stroke-width:0.5;" x="342.495889" xlink:href="#m8cafd67edf" y="76.593797"/>
     <use style="fill:#ffffff;stroke:#fc4f30;stroke-width:0.5;" x="333.401228" xlink:href="#m8cafd67edf" y="63.910477"/>
     <use style="fill:#ffffff;stroke:#fc4f30;stroke-width:0.5;" x="216.844787" xlink:href="#m8cafd67edf" y="104.31909"/>
     <use style="fill:#ffffff;stroke:#fc4f30;stroke-width:0.5;" x="225.07455" xlink:href="#m8cafd67edf" y="104.501561"/>
     <use style="fill:#ffffff;stroke:#fc4f30;stroke-width:0.5;" x="128.805807" xlink:href="#m8cafd67edf" y="119.969156"/>
     <use style="fill:#ffffff;stroke:#fc4f30;stroke-width:0.5;" x="264.010955" xlink:href="#m8cafd67edf" y="90.921663"/>
     <use style="fill:#ffffff;stroke:#fc4f30;stroke-width:0.5;" x="259.817699" xlink:href="#m8cafd67edf" y="68.865452"/>
     <use style="fill:#ffffff;stroke:#fc4f30;stroke-width:0.5;" x="238.628685" xlink:href="#m8cafd67edf" y="93.150857"/>
     <use style="fill:#ffffff;stroke:#fc4f30;stroke-width:0.5;" x="231.816053" xlink:href="#m8cafd67edf" y="65.415799"/>
     <use style="fill:#ffffff;stroke:#fc4f30;stroke-width:0.5;" x="241.704539" xlink:href="#m8cafd67edf" y="66.618968"/>
     <use style="fill:#ffffff;stroke:#fc4f30;stroke-width:0.5;" x="258.099515" xlink:href="#m8cafd67edf" y="74.943311"/>
     <use style="fill:#ffffff;stroke:#fc4f30;stroke-width:0.5;" x="191.403557" xlink:href="#m8cafd67edf" y="119.077412"/>
     <use style="fill:#ffffff;stroke:#fc4f30;stroke-width:0.5;" x="206.635203" xlink:href="#m8cafd67edf" y="138.038944"/>
     <use style="fill:#ffffff;stroke:#fc4f30;stroke-width:0.5;" x="269.767023" xlink:href="#m8cafd67edf" y="76.175869"/>
     <use style="fill:#ffffff;stroke:#fc4f30;stroke-width:0.5;" x="339.777933" xlink:href="#m8cafd67edf" y="78.257222"/>
    </g>
   </g>
   <g id="PathCollection_3">
    <defs>
     <path d="M 0 3.535534 
C 0.937635 3.535534 1.836992 3.163008 2.5 2.5 
C 3.163008 1.836992 3.535534 0.937635 3.535534 0 
C 3.535534 -0.937635 3.163008 -1.836992 2.5 -2.5 
C 1.836992 -3.163008 0.937635 -3.535534 0 -3.535534 
C -0.937635 -3.535534 -1.836992 -3.163008 -2.5 -2.5 
C -3.163008 -1.836992 -3.535534 -0.937635 -3.535534 0 
C -3.535534 0.937635 -3.163008 1.836992 -2.5 2.5 
C -1.836992 3.163008 -0.937635 3.535534 0 3.535534 
z
" id="m8a6d0944c6" style="stroke:#008fd5;stroke-width:0.5;"/>
    </defs>
    <g clip-path="url(#p8674657ad5)">
     <use style="fill:#008fd5;stroke:#008fd5;stroke-width:0.5;" x="339.185425" xlink:href="#m8a6d0944c6" y="152.435097"/>
     <use style="fill:#008fd5;stroke:#008fd5;stroke-width:0.5;" x="288.656253" xlink:href="#m8a6d0944c6" y="163.807466"/>
     <use style="fill:#008fd5;stroke:#008fd5;stroke-width:0.5;" x="301.522825" xlink:href="#m8a6d0944c6" y="135.559966"/>
     <use style="fill:#008fd5;stroke:#008fd5;stroke-width:0.5;" x="322.869504" xlink:href="#m8a6d0944c6" y="162.243462"/>
     <use style="fill:#008fd5;stroke:#008fd5;stroke-width:0.5;" x="292.695269" xlink:href="#m8a6d0944c6" y="175.277639"/>
     <use style="fill:#008fd5;stroke:#008fd5;stroke-width:0.5;" x="308.248187" xlink:href="#m8a6d0944c6" y="142.34308"/>
     <use style="fill:#008fd5;stroke:#008fd5;stroke-width:0.5;" x="282.854977" xlink:href="#m8a6d0944c6" y="173.69289"/>
     <use style="fill:#008fd5;stroke:#008fd5;stroke-width:0.5;" x="340.034137" xlink:href="#m8a6d0944c6" y="120.22044"/>
     <use style="fill:#008fd5;stroke:#008fd5;stroke-width:0.5;" x="384.362057" xlink:href="#m8a6d0944c6" y="173.205584"/>
    </g>
   </g>
   <g id="PathCollection_4">
    <defs>
     <path d="M 0 3.535534 
C 0.937635 3.535534 1.836992 3.163008 2.5 2.5 
C 3.163008 1.836992 3.535534 0.937635 3.535534 0 
C 3.535534 -0.937635 3.163008 -1.836992 2.5 -2.5 
C 1.836992 -3.163008 0.937635 -3.535534 0 -3.535534 
C -0.937635 -3.535534 -1.836992 -3.163008 -2.5 -2.5 
C -3.163008 -1.836992 -3.535534 -0.937635 -3.535534 0 
C -3.535534 0.937635 -3.163008 1.836992 -2.5 2.5 
C -1.836992 3.163008 -0.937635 3.535534 0 3.535534 
z
" id="m621a24df6e" style="stroke:#fc4f30;stroke-width:0.5;"/>
    </defs>
    <g clip-path="url(#p8674657ad5)">
     <use style="fill:#fc4f30;stroke:#fc4f30;stroke-width:0.5;" x="149.626707" xlink:href="#m621a24df6e" y="98.39224"/>
     <use style="fill:#fc4f30;stroke:#fc4f30;stroke-width:0.5;" x="261.43008" xlink:href="#m621a24df6e" y="117.597229"/>
     <use style="fill:#fc4f30;stroke:#fc4f30;stroke-width:0.5;" x="188.027334" xlink:href="#m621a24df6e" y="94.590899"/>
     <use style="fill:#fc4f30;stroke:#fc4f30;stroke-width:0.5;" x="222.817821" xlink:href="#m621a24df6e" y="113.726277"/>
     <use style="fill:#fc4f30;stroke:#fc4f30;stroke-width:0.5;" x="195.441949" xlink:href="#m621a24df6e" y="113.519302"/>
     <use style="fill:#fc4f30;stroke:#fc4f30;stroke-width:0.5;" x="211.519328" xlink:href="#m621a24df6e" y="106.481759"/>
     <use style="fill:#fc4f30;stroke:#fc4f30;stroke-width:0.5;" x="237.871118" xlink:href="#m621a24df6e" y="109.666549"/>
     <use style="fill:#fc4f30;stroke:#fc4f30;stroke-width:0.5;" x="192.58674" xlink:href="#m621a24df6e" y="138.400336"/>
     <use style="fill:#fc4f30;stroke:#fc4f30;stroke-width:0.5;" x="240.578094" xlink:href="#m621a24df6e" y="108.112375"/>
     <use style="fill:#fc4f30;stroke:#fc4f30;stroke-width:0.5;" x="236.919853" xlink:href="#m621a24df6e" y="98.767091"/>
     <use style="fill:#fc4f30;stroke:#fc4f30;stroke-width:0.5;" x="193.514248" xlink:href="#m621a24df6e" y="93.378503"/>
     <use style="fill:#fc4f30;stroke:#fc4f30;stroke-width:0.5;" x="258.97978" xlink:href="#m621a24df6e" y="93.468386"/>
     <use style="fill:#fc4f30;stroke:#fc4f30;stroke-width:0.5;" x="195.853866" xlink:href="#m621a24df6e" y="125.894274"/>
     <use style="fill:#fc4f30;stroke:#fc4f30;stroke-width:0.5;" x="192.305086" xlink:href="#m621a24df6e" y="85.26785"/>
     <use style="fill:#fc4f30;stroke:#fc4f30;stroke-width:0.5;" x="208.448545" xlink:href="#m621a24df6e" y="113.183688"/>
     <use style="fill:#fc4f30;stroke:#fc4f30;stroke-width:0.5;" x="269.305558" xlink:href="#m621a24df6e" y="92.639629"/>
     <use style="fill:#fc4f30;stroke:#fc4f30;stroke-width:0.5;" x="202.490072" xlink:href="#m621a24df6e" y="98.265492"/>
     <use style="fill:#fc4f30;stroke:#fc4f30;stroke-width:0.5;" x="206.284601" xlink:href="#m621a24df6e" y="114.929262"/>
     <use style="fill:#fc4f30;stroke:#fc4f30;stroke-width:0.5;" x="216.844787" xlink:href="#m621a24df6e" y="104.31909"/>
     <use style="fill:#fc4f30;stroke:#fc4f30;stroke-width:0.5;" x="225.07455" xlink:href="#m621a24df6e" y="104.501561"/>
     <use style="fill:#fc4f30;stroke:#fc4f30;stroke-width:0.5;" x="191.403557" xlink:href="#m621a24df6e" y="119.077412"/>
    </g>
   </g>
   <g id="line2d_29">
    <path clip-path="url(#p8674657ad5)" d="M 92.825344 116.606739 
L 96.061713 117.140157 
L 99.298083 117.673576 
L 102.534452 118.206994 
L 105.770822 118.740413 
L 109.007191 119.273831 
L 112.243561 119.80725 
L 115.47993 120.340668 
L 118.7163 120.874087 
L 121.95267 121.407505 
L 125.189039 121.940924 
L 128.425409 122.474342 
L 131.661778 123.007761 
L 134.898148 123.541179 
L 138.134517 124.074598 
L 141.370887 124.608016 
L 144.607256 125.141435 
L 147.843626 125.674853 
L 151.079995 126.208272 
L 154.316365 126.74169 
L 157.552734 127.275109 
L 160.789104 127.808527 
L 164.025473 128.341946 
L 167.261843 128.875364 
L 170.498212 129.408783 
L 173.734582 129.942201 
L 176.970951 130.47562 
L 180.207321 131.009038 
L 183.44369 131.542457 
L 186.68006 132.075875 
L 189.916429 132.609294 
L 193.152799 133.142712 
L 196.389168 133.676131 
L 199.625538 134.209549 
L 202.861907 134.742968 
L 206.098277 135.276386 
L 209.334646 135.809805 
L 212.571016 136.343223 
L 215.807386 136.876642 
L 219.043755 137.41006 
L 222.280125 137.943479 
L 225.516494 138.476897 
L 228.752864 139.010316 
L 231.989233 139.543734 
L 235.225603 140.077153 
L 238.461972 140.610571 
L 241.698342 141.14399 
L 244.934711 141.677408 
L 248.171081 142.210827 
L 251.40745 142.744245 
L 254.64382 143.277664 
L 257.880189 143.811082 
L 261.116559 144.344501 
L 264.352928 144.877919 
L 267.589298 145.411338 
L 270.825667 145.944756 
L 274.062037 146.478175 
L 277.298406 147.011593 
L 280.534776 147.545012 
L 283.771145 148.07843 
L 287.007515 148.611849 
L 290.243884 149.145267 
L 293.480254 149.678686 
L 296.716623 150.212104 
L 299.952993 150.745523 
L 303.189362 151.278941 
L 306.425732 151.81236 
L 309.662101 152.345778 
L 312.898471 152.879197 
L 316.134841 153.412615 
L 319.37121 153.946034 
L 322.60758 154.479452 
L 325.843949 155.012871 
L 329.080319 155.54629 
L 332.316688 156.079708 
L 335.553058 156.613127 
L 338.789427 157.146545 
L 342.025797 157.679964 
L 345.262166 158.213382 
L 348.498536 158.746801 
L 351.734905 159.280219 
L 354.971275 159.813638 
L 358.207644 160.347056 
L 361.444014 160.880475 
L 364.680383 161.413893 
L 367.916753 161.947312 
L 371.153122 162.48073 
L 374.389492 163.014149 
L 377.625861 163.547567 
L 380.862231 164.080986 
L 384.0986 164.614404 
L 387.33497 165.147823 
L 390.571339 165.681241 
L 393.807709 166.21466 
L 397.044078 166.748078 
L 400.280448 167.281497 
L 403.516817 167.814915 
L 406.753187 168.348334 
L 409.989557 168.881752 
L 413.225926 169.415171 
" style="fill:none;stroke:#008fd5;stroke-width:4;"/>
   </g>
   <g id="patch_3">
    <path d="M 65.797813 260.489755 
L 65.797813 27.209755 
" style="fill:none;stroke:#f0f0f0;stroke-linecap:square;stroke-linejoin:miter;stroke-width:3;"/>
   </g>
   <g id="patch_4">
    <path d="M 441.637812 260.489755 
L 441.637812 27.209755 
" style="fill:none;stroke:#f0f0f0;stroke-linecap:square;stroke-linejoin:miter;stroke-width:3;"/>
   </g>
   <g id="patch_5">
    <path d="M 65.797813 260.489755 
L 441.637812 260.489755 
" style="fill:none;stroke:#f0f0f0;stroke-linecap:square;stroke-linejoin:miter;stroke-width:3;"/>
   </g>
   <g id="patch_6">
    <path d="M 65.797813 27.209755 
L 441.637812 27.209755 
" style="fill:none;stroke:#f0f0f0;stroke-linecap:square;stroke-linejoin:miter;stroke-width:3;"/>
   </g>
   <g id="text_17">
    <!-- Hàng xóm tốt -->
    <g style="fill:#fc4f30;" transform="translate(146.225441 43.840191)scale(0.14 -0.14)">
     <defs>
      <path d="M 9.8125 72.90625 
L 19.671875 72.90625 
L 19.671875 43.015625 
L 55.515625 43.015625 
L 55.515625 72.90625 
L 65.375 72.90625 
L 65.375 0 
L 55.515625 0 
L 55.515625 34.71875 
L 19.671875 34.71875 
L 19.671875 0 
L 9.8125 0 
z
" id="DejaVuSans-72"/>
      <path d="M 54.890625 54.6875 
L 35.109375 28.078125 
L 55.90625 0 
L 45.3125 0 
L 29.390625 21.484375 
L 13.484375 0 
L 2.875 0 
L 24.125 28.609375 
L 4.6875 54.6875 
L 15.28125 54.6875 
L 29.78125 35.203125 
L 44.28125 54.6875 
z
" id="DejaVuSans-120"/>
      <path d="M 30.609375 48.390625 
Q 23.390625 48.390625 19.1875 42.75 
Q 14.984375 37.109375 14.984375 27.296875 
Q 14.984375 17.484375 19.15625 11.84375 
Q 23.34375 6.203125 30.609375 6.203125 
Q 37.796875 6.203125 41.984375 11.859375 
Q 46.1875 17.53125 46.1875 27.296875 
Q 46.1875 37.015625 41.984375 42.703125 
Q 37.796875 48.390625 30.609375 48.390625 
z
M 30.609375 56 
Q 42.328125 56 49.015625 48.375 
Q 55.71875 40.765625 55.71875 27.296875 
Q 55.71875 13.875 49.015625 6.21875 
Q 42.328125 -1.421875 30.609375 -1.421875 
Q 18.84375 -1.421875 12.171875 6.21875 
Q 5.515625 13.875 5.515625 27.296875 
Q 5.515625 40.765625 12.171875 48.375 
Q 18.84375 56 30.609375 56 
z
M 37.40625 79.984375 
L 47.125 79.984375 
L 31.203125 61.625 
L 23.734375 61.625 
z
" id="DejaVuSans-243"/>
      <path d="M 52 44.1875 
Q 55.375 50.25 60.0625 53.125 
Q 64.75 56 71.09375 56 
Q 79.640625 56 84.28125 50.015625 
Q 88.921875 44.046875 88.921875 33.015625 
L 88.921875 0 
L 79.890625 0 
L 79.890625 32.71875 
Q 79.890625 40.578125 77.09375 44.375 
Q 74.3125 48.1875 68.609375 48.1875 
Q 61.625 48.1875 57.5625 43.546875 
Q 53.515625 38.921875 53.515625 30.90625 
L 53.515625 0 
L 44.484375 0 
L 44.484375 32.71875 
Q 44.484375 40.625 41.703125 44.40625 
Q 38.921875 48.1875 33.109375 48.1875 
Q 26.21875 48.1875 22.15625 43.53125 
Q 18.109375 38.875 18.109375 30.90625 
L 18.109375 0 
L 9.078125 0 
L 9.078125 54.6875 
L 18.109375 54.6875 
L 18.109375 46.1875 
Q 21.1875 51.21875 25.484375 53.609375 
Q 29.78125 56 35.6875 56 
Q 41.65625 56 45.828125 52.96875 
Q 50 49.953125 52 44.1875 
z
" id="DejaVuSans-109"/>
      <path d="M 18.3125 70.21875 
L 18.3125 54.6875 
L 36.8125 54.6875 
L 36.8125 47.703125 
L 18.3125 47.703125 
L 18.3125 18.015625 
Q 18.3125 11.328125 20.140625 9.421875 
Q 21.96875 7.515625 27.59375 7.515625 
L 36.8125 7.515625 
L 36.8125 0 
L 27.59375 0 
Q 17.1875 0 13.234375 3.875 
Q 9.28125 7.765625 9.28125 18.015625 
L 9.28125 47.703125 
L 2.6875 47.703125 
L 2.6875 54.6875 
L 9.28125 54.6875 
L 9.28125 70.21875 
z
" id="DejaVuSans-116"/>
      <path d="M 25.984375 74.609375 
L 35.15625 74.609375 
L 45.453125 61.625 
L 38.671875 61.625 
L 30.5625 70.3125 
L 22.46875 61.625 
L 15.671875 61.625 
z
M 51.03125 84.625 
L 60.0625 84.625 
L 48.921875 71.734375 
L 41.453125 71.734375 
z
M 30.609375 48.390625 
Q 23.390625 48.390625 19.1875 42.75 
Q 14.984375 37.109375 14.984375 27.296875 
Q 14.984375 17.484375 19.15625 11.84375 
Q 23.34375 6.203125 30.609375 6.203125 
Q 37.796875 6.203125 41.984375 11.859375 
Q 46.1875 17.53125 46.1875 27.296875 
Q 46.1875 37.015625 41.984375 42.703125 
Q 37.796875 48.390625 30.609375 48.390625 
z
M 30.609375 56 
Q 42.328125 56 49.015625 48.375 
Q 55.71875 40.765625 55.71875 27.296875 
Q 55.71875 13.875 49.015625 6.21875 
Q 42.328125 -1.421875 30.609375 -1.421875 
Q 18.84375 -1.421875 12.171875 6.21875 
Q 5.515625 13.875 5.515625 27.296875 
Q 5.515625 40.765625 12.171875 48.375 
Q 18.84375 56 30.609375 56 
z
" id="DejaVuSans-7889"/>
     </defs>
     <use xlink:href="#DejaVuSans-72"/>
     <use x="75.195312" xlink:href="#DejaVuSans-224"/>
     <use x="136.474609" xlink:href="#DejaVuSans-110"/>
     <use x="199.853516" xlink:href="#DejaVuSans-103"/>
     <use x="263.330078" xlink:href="#DejaVuSans-32"/>
     <use x="295.117188" xlink:href="#DejaVuSans-120"/>
     <use x="351.171875" xlink:href="#DejaVuSans-243"/>
     <use x="412.353516" xlink:href="#DejaVuSans-109"/>
     <use x="509.765625" xlink:href="#DejaVuSans-32"/>
     <use x="541.552734" xlink:href="#DejaVuSans-116"/>
     <use x="580.761719" xlink:href="#DejaVuSans-7889"/>
     <use x="641.943359" xlink:href="#DejaVuSans-116"/>
    </g>
   </g>
   <g id="text_18">
    <!-- Hàng xóm xấu -->
    <g style="fill:#008fd5;" transform="translate(306.425732 242.181718)scale(0.14 -0.14)">
     <defs>
      <path d="M 24.46875 74.609375 
L 33.640625 74.609375 
L 43.953125 61.625 
L 37.15625 61.625 
L 29.046875 70.3125 
L 20.953125 61.625 
L 14.15625 61.625 
z
M 49.515625 84.625 
L 58.546875 84.625 
L 47.40625 71.734375 
L 39.9375 71.734375 
z
M 34.28125 27.484375 
Q 23.390625 27.484375 19.1875 25 
Q 14.984375 22.515625 14.984375 16.5 
Q 14.984375 11.71875 18.140625 8.90625 
Q 21.296875 6.109375 26.703125 6.109375 
Q 34.1875 6.109375 38.703125 11.40625 
Q 43.21875 16.703125 43.21875 25.484375 
L 43.21875 27.484375 
z
M 52.203125 31.203125 
L 52.203125 0 
L 43.21875 0 
L 43.21875 8.296875 
Q 40.140625 3.328125 35.546875 0.953125 
Q 30.953125 -1.421875 24.3125 -1.421875 
Q 15.921875 -1.421875 10.953125 3.296875 
Q 6 8.015625 6 15.921875 
Q 6 25.140625 12.171875 29.828125 
Q 18.359375 34.515625 30.609375 34.515625 
L 43.21875 34.515625 
L 43.21875 35.40625 
Q 43.21875 41.609375 39.140625 45 
Q 35.0625 48.390625 27.6875 48.390625 
Q 23 48.390625 18.546875 47.265625 
Q 14.109375 46.140625 10.015625 43.890625 
L 10.015625 52.203125 
Q 14.9375 54.109375 19.578125 55.046875 
Q 24.21875 56 28.609375 56 
Q 40.484375 56 46.34375 49.84375 
Q 52.203125 43.703125 52.203125 31.203125 
z
" id="DejaVuSans-7845"/>
      <path d="M 8.5 21.578125 
L 8.5 54.6875 
L 17.484375 54.6875 
L 17.484375 21.921875 
Q 17.484375 14.15625 20.5 10.265625 
Q 23.53125 6.390625 29.59375 6.390625 
Q 36.859375 6.390625 41.078125 11.03125 
Q 45.3125 15.671875 45.3125 23.6875 
L 45.3125 54.6875 
L 54.296875 54.6875 
L 54.296875 0 
L 45.3125 0 
L 45.3125 8.40625 
Q 42.046875 3.421875 37.71875 1 
Q 33.40625 -1.421875 27.6875 -1.421875 
Q 18.265625 -1.421875 13.375 4.4375 
Q 8.5 10.296875 8.5 21.578125 
z
M 31.109375 56 
z
" id="DejaVuSans-117"/>
     </defs>
     <use xlink:href="#DejaVuSans-72"/>
     <use x="75.195312" xlink:href="#DejaVuSans-224"/>
     <use x="136.474609" xlink:href="#DejaVuSans-110"/>
     <use x="199.853516" xlink:href="#DejaVuSans-103"/>
     <use x="263.330078" xlink:href="#DejaVuSans-32"/>
     <use x="295.117188" xlink:href="#DejaVuSans-120"/>
     <use x="351.171875" xlink:href="#DejaVuSans-243"/>
     <use x="412.353516" xlink:href="#DejaVuSans-109"/>
     <use x="509.765625" xlink:href="#DejaVuSans-32"/>
     <use x="541.552734" xlink:href="#DejaVuSans-120"/>
     <use x="600.732422" xlink:href="#DejaVuSans-7845"/>
     <use x="662.011719" xlink:href="#DejaVuSans-117"/>
    </g>
   </g>
   <g id="text_19">
    <!-- Cha mẹ ở khoảng 45 đến 60 percentile -->
    <g transform="translate(119.525392 19.0475)scale(0.14 -0.14)">
     <defs>
      <path d="M 54.890625 33.015625 
L 54.890625 0 
L 45.90625 0 
L 45.90625 32.71875 
Q 45.90625 40.484375 42.875 44.328125 
Q 39.84375 48.1875 33.796875 48.1875 
Q 26.515625 48.1875 22.3125 43.546875 
Q 18.109375 38.921875 18.109375 30.90625 
L 18.109375 0 
L 9.078125 0 
L 9.078125 75.984375 
L 18.109375 75.984375 
L 18.109375 46.1875 
Q 21.34375 51.125 25.703125 53.5625 
Q 30.078125 56 35.796875 56 
Q 45.21875 56 50.046875 50.171875 
Q 54.890625 44.34375 54.890625 33.015625 
z
" id="DejaVuSans-104"/>
      <path d="M 56.203125 29.59375 
L 56.203125 25.203125 
L 14.890625 25.203125 
Q 15.484375 15.921875 20.484375 11.0625 
Q 25.484375 6.203125 34.421875 6.203125 
Q 39.59375 6.203125 44.453125 7.46875 
Q 49.3125 8.734375 54.109375 11.28125 
L 54.109375 2.78125 
Q 49.265625 0.734375 44.1875 -0.34375 
Q 39.109375 -1.421875 33.890625 -1.421875 
Q 20.796875 -1.421875 13.15625 6.1875 
Q 5.515625 13.8125 5.515625 26.8125 
Q 5.515625 40.234375 12.765625 48.109375 
Q 20.015625 56 32.328125 56 
Q 43.359375 56 49.78125 48.890625 
Q 56.203125 41.796875 56.203125 29.59375 
z
M 47.21875 32.234375 
Q 47.125 39.59375 43.09375 43.984375 
Q 39.0625 48.390625 32.421875 48.390625 
Q 24.90625 48.390625 20.390625 44.140625 
Q 15.875 39.890625 15.1875 32.171875 
z
M 27.203125 -6.890625 
L 36.1875 -6.890625 
L 36.1875 -18.3125 
L 27.203125 -18.3125 
z
" id="DejaVuSans-7865"/>
      <path d="M 41.015625 48.53125 
L 41.015625 54.34375 
Q 44 52.140625 46.140625 51.09375 
Q 48.296875 50.046875 49.8125 50.046875 
Q 52.046875 50.046875 53.171875 51.390625 
Q 54.296875 52.734375 54.296875 55.359375 
Q 54.296875 56.921875 53.921875 58.4375 
Q 53.5625 59.953125 52.828125 61.46875 
L 59.328125 61.46875 
Q 59.8125 59.609375 60.046875 57.953125 
Q 60.296875 56.296875 60.296875 54.828125 
Q 60.296875 48.875 58.171875 46.0625 
Q 56.0625 43.25 51.515625 43.25 
Q 49.171875 43.25 46.609375 44.546875 
Q 44.046875 45.84375 41.015625 48.53125 
z
M 30.859375 48.390625 
Q 23.640625 48.390625 19.4375 42.75 
Q 15.234375 37.109375 15.234375 27.296875 
Q 15.234375 17.484375 19.40625 11.84375 
Q 23.578125 6.203125 30.859375 6.203125 
Q 38.03125 6.203125 42.234375 11.859375 
Q 46.4375 17.53125 46.4375 27.296875 
Q 46.4375 37.015625 42.234375 42.703125 
Q 38.03125 48.390625 30.859375 48.390625 
z
M 30.859375 56 
Q 42.578125 56 49.265625 48.375 
Q 55.953125 40.765625 55.953125 27.296875 
Q 55.953125 13.875 49.265625 6.21875 
Q 42.578125 -1.421875 30.859375 -1.421875 
Q 19.09375 -1.421875 12.421875 6.21875 
Q 5.765625 13.875 5.765625 27.296875 
Q 5.765625 40.765625 12.421875 48.375 
Q 19.09375 56 30.859375 56 
z
M 21.296875 78.515625 
Q 26.765625 81 31.890625 81 
Q 36.96875 81 40.0625 78.921875 
Q 43.171875 76.859375 43.171875 73.578125 
Q 43.171875 70.609375 38.875 67.4375 
L 36.71875 65.875 
Q 35.015625 64.59375 34.8125 64.15625 
Q 34.46875 63.375 34.46875 61.8125 
L 28.65625 61.8125 
L 28.65625 62.40625 
Q 28.65625 64.359375 29.390625 65.671875 
Q 30.125 67 32.625 68.796875 
L 34.8125 70.453125 
Q 37.0625 72.125 37.0625 74.078125 
Q 37.0625 75.09375 35.546875 75.96875 
Q 34.03125 76.859375 30.5625 76.859375 
Q 26.171875 76.859375 21.296875 74.3125 
z
" id="DejaVuSans-7903"/>
      <path d="M 9.078125 75.984375 
L 18.109375 75.984375 
L 18.109375 31.109375 
L 44.921875 54.6875 
L 56.390625 54.6875 
L 27.390625 29.109375 
L 57.625 0 
L 45.90625 0 
L 18.109375 26.703125 
L 18.109375 0 
L 9.078125 0 
z
" id="DejaVuSans-107"/>
      <path d="M 34.28125 27.484375 
Q 23.390625 27.484375 19.1875 25 
Q 14.984375 22.515625 14.984375 16.5 
Q 14.984375 11.71875 18.140625 8.90625 
Q 21.296875 6.109375 26.703125 6.109375 
Q 34.1875 6.109375 38.703125 11.40625 
Q 43.21875 16.703125 43.21875 25.484375 
L 43.21875 27.484375 
z
M 52.203125 31.203125 
L 52.203125 0 
L 43.21875 0 
L 43.21875 8.296875 
Q 40.140625 3.328125 35.546875 0.953125 
Q 30.953125 -1.421875 24.3125 -1.421875 
Q 15.921875 -1.421875 10.953125 3.296875 
Q 6 8.015625 6 15.921875 
Q 6 25.140625 12.171875 29.828125 
Q 18.359375 34.515625 30.609375 34.515625 
L 43.21875 34.515625 
L 43.21875 35.40625 
Q 43.21875 41.609375 39.140625 45 
Q 35.0625 48.390625 27.6875 48.390625 
Q 23 48.390625 18.546875 47.265625 
Q 14.109375 46.140625 10.015625 43.890625 
L 10.015625 52.203125 
Q 14.9375 54.109375 19.578125 55.046875 
Q 24.21875 56 28.609375 56 
Q 40.484375 56 46.34375 49.84375 
Q 52.203125 43.703125 52.203125 31.203125 
z
M 19.28125 78.515625 
Q 24.75 81 29.890625 81 
Q 34.96875 81 38.0625 78.921875 
Q 41.15625 76.859375 41.15625 73.578125 
Q 41.15625 70.609375 36.859375 67.4375 
L 34.71875 65.875 
Q 33.015625 64.59375 32.8125 64.15625 
Q 32.46875 63.375 32.46875 61.8125 
L 26.65625 61.8125 
L 26.65625 62.40625 
Q 26.65625 64.359375 27.390625 65.671875 
Q 28.125 67 30.609375 68.796875 
L 32.8125 70.453125 
Q 35.0625 72.125 35.0625 74.078125 
Q 35.0625 75.09375 33.546875 75.96875 
Q 32.03125 76.859375 28.5625 76.859375 
Q 24.171875 76.859375 19.28125 74.3125 
z
" id="DejaVuSans-7843"/>
      <path d="M 37.796875 64.3125 
L 12.890625 25.390625 
L 37.796875 25.390625 
z
M 35.203125 72.90625 
L 47.609375 72.90625 
L 47.609375 25.390625 
L 58.015625 25.390625 
L 58.015625 17.1875 
L 47.609375 17.1875 
L 47.609375 0 
L 37.796875 0 
L 37.796875 17.1875 
L 4.890625 17.1875 
L 4.890625 26.703125 
z
" id="DejaVuSans-52"/>
      <path d="M 45.40625 46.390625 
L 45.40625 62.703125 
L 29.5 62.703125 
L 29.5 68.796875 
L 45.40625 68.796875 
L 45.40625 75.984375 
L 54.390625 75.984375 
L 54.390625 68.796875 
L 61.921875 68.796875 
L 61.921875 62.703125 
L 54.390625 62.703125 
L 54.390625 0 
L 45.40625 0 
L 45.40625 8.203125 
Q 42.578125 3.328125 38.25 0.953125 
Q 33.9375 -1.421875 27.875 -1.421875 
Q 17.96875 -1.421875 11.734375 6.484375 
Q 5.515625 14.40625 5.515625 27.296875 
Q 5.515625 40.1875 11.734375 48.09375 
Q 17.96875 56 27.875 56 
Q 33.9375 56 38.25 53.625 
Q 42.578125 51.265625 45.40625 46.390625 
z
M 14.796875 27.296875 
Q 14.796875 17.390625 18.875 11.75 
Q 22.953125 6.109375 30.078125 6.109375 
Q 37.203125 6.109375 41.296875 11.75 
Q 45.40625 17.390625 45.40625 27.296875 
Q 45.40625 37.203125 41.296875 42.84375 
Q 37.203125 48.484375 30.078125 48.484375 
Q 22.953125 48.484375 18.875 42.84375 
Q 14.796875 37.203125 14.796875 27.296875 
z
" id="DejaVuSans-273"/>
      <path d="M 27.25 74.609375 
L 36.421875 74.609375 
L 46.734375 61.625 
L 39.9375 61.625 
L 31.84375 70.3125 
L 23.734375 61.625 
L 16.9375 61.625 
z
M 52.296875 84.625 
L 61.328125 84.625 
L 50.203125 71.734375 
L 42.71875 71.734375 
z
M 56.203125 29.59375 
L 56.203125 25.203125 
L 14.890625 25.203125 
Q 15.484375 15.921875 20.484375 11.0625 
Q 25.484375 6.203125 34.421875 6.203125 
Q 39.59375 6.203125 44.453125 7.46875 
Q 49.3125 8.734375 54.109375 11.28125 
L 54.109375 2.78125 
Q 49.265625 0.734375 44.1875 -0.34375 
Q 39.109375 -1.421875 33.890625 -1.421875 
Q 20.796875 -1.421875 13.15625 6.1875 
Q 5.515625 13.8125 5.515625 26.8125 
Q 5.515625 40.234375 12.765625 48.109375 
Q 20.015625 56 32.328125 56 
Q 43.359375 56 49.78125 48.890625 
Q 56.203125 41.796875 56.203125 29.59375 
z
M 47.21875 32.234375 
Q 47.125 39.59375 43.09375 43.984375 
Q 39.0625 48.390625 32.421875 48.390625 
Q 24.90625 48.390625 20.390625 44.140625 
Q 15.875 39.890625 15.1875 32.171875 
z
" id="DejaVuSans-7871"/>
      <path d="M 33.015625 40.375 
Q 26.375 40.375 22.484375 35.828125 
Q 18.609375 31.296875 18.609375 23.390625 
Q 18.609375 15.53125 22.484375 10.953125 
Q 26.375 6.390625 33.015625 6.390625 
Q 39.65625 6.390625 43.53125 10.953125 
Q 47.40625 15.53125 47.40625 23.390625 
Q 47.40625 31.296875 43.53125 35.828125 
Q 39.65625 40.375 33.015625 40.375 
z
M 52.59375 71.296875 
L 52.59375 62.3125 
Q 48.875 64.0625 45.09375 64.984375 
Q 41.3125 65.921875 37.59375 65.921875 
Q 27.828125 65.921875 22.671875 59.328125 
Q 17.53125 52.734375 16.796875 39.40625 
Q 19.671875 43.65625 24.015625 45.921875 
Q 28.375 48.1875 33.59375 48.1875 
Q 44.578125 48.1875 50.953125 41.515625 
Q 57.328125 34.859375 57.328125 23.390625 
Q 57.328125 12.15625 50.6875 5.359375 
Q 44.046875 -1.421875 33.015625 -1.421875 
Q 20.359375 -1.421875 13.671875 8.265625 
Q 6.984375 17.96875 6.984375 36.375 
Q 6.984375 53.65625 15.1875 63.9375 
Q 23.390625 74.21875 37.203125 74.21875 
Q 40.921875 74.21875 44.703125 73.484375 
Q 48.484375 72.75 52.59375 71.296875 
z
" id="DejaVuSans-54"/>
      <path d="M 18.109375 8.203125 
L 18.109375 -20.796875 
L 9.078125 -20.796875 
L 9.078125 54.6875 
L 18.109375 54.6875 
L 18.109375 46.390625 
Q 20.953125 51.265625 25.265625 53.625 
Q 29.59375 56 35.59375 56 
Q 45.5625 56 51.78125 48.09375 
Q 58.015625 40.1875 58.015625 27.296875 
Q 58.015625 14.40625 51.78125 6.484375 
Q 45.5625 -1.421875 35.59375 -1.421875 
Q 29.59375 -1.421875 25.265625 0.953125 
Q 20.953125 3.328125 18.109375 8.203125 
z
M 48.6875 27.296875 
Q 48.6875 37.203125 44.609375 42.84375 
Q 40.53125 48.484375 33.40625 48.484375 
Q 26.265625 48.484375 22.1875 42.84375 
Q 18.109375 37.203125 18.109375 27.296875 
Q 18.109375 17.390625 22.1875 11.75 
Q 26.265625 6.109375 33.40625 6.109375 
Q 40.53125 6.109375 44.609375 11.75 
Q 48.6875 17.390625 48.6875 27.296875 
z
" id="DejaVuSans-112"/>
      <path d="M 56.203125 29.59375 
L 56.203125 25.203125 
L 14.890625 25.203125 
Q 15.484375 15.921875 20.484375 11.0625 
Q 25.484375 6.203125 34.421875 6.203125 
Q 39.59375 6.203125 44.453125 7.46875 
Q 49.3125 8.734375 54.109375 11.28125 
L 54.109375 2.78125 
Q 49.265625 0.734375 44.1875 -0.34375 
Q 39.109375 -1.421875 33.890625 -1.421875 
Q 20.796875 -1.421875 13.15625 6.1875 
Q 5.515625 13.8125 5.515625 26.8125 
Q 5.515625 40.234375 12.765625 48.109375 
Q 20.015625 56 32.328125 56 
Q 43.359375 56 49.78125 48.890625 
Q 56.203125 41.796875 56.203125 29.59375 
z
M 47.21875 32.234375 
Q 47.125 39.59375 43.09375 43.984375 
Q 39.0625 48.390625 32.421875 48.390625 
Q 24.90625 48.390625 20.390625 44.140625 
Q 15.875 39.890625 15.1875 32.171875 
z
" id="DejaVuSans-101"/>
      <path d="M 41.109375 46.296875 
Q 39.59375 47.171875 37.8125 47.578125 
Q 36.03125 48 33.890625 48 
Q 26.265625 48 22.1875 43.046875 
Q 18.109375 38.09375 18.109375 28.8125 
L 18.109375 0 
L 9.078125 0 
L 9.078125 54.6875 
L 18.109375 54.6875 
L 18.109375 46.1875 
Q 20.953125 51.171875 25.484375 53.578125 
Q 30.03125 56 36.53125 56 
Q 37.453125 56 38.578125 55.875 
Q 39.703125 55.765625 41.0625 55.515625 
z
" id="DejaVuSans-114"/>
      <path d="M 9.421875 75.984375 
L 18.40625 75.984375 
L 18.40625 0 
L 9.421875 0 
z
" id="DejaVuSans-108"/>
     </defs>
     <use xlink:href="#DejaVuSans-67"/>
     <use x="69.824219" xlink:href="#DejaVuSans-104"/>
     <use x="133.203125" xlink:href="#DejaVuSans-97"/>
     <use x="194.482422" xlink:href="#DejaVuSans-32"/>
     <use x="226.269531" xlink:href="#DejaVuSans-109"/>
     <use x="323.681641" xlink:href="#DejaVuSans-7865"/>
     <use x="385.205078" xlink:href="#DejaVuSans-32"/>
     <use x="416.992188" xlink:href="#DejaVuSans-7903"/>
     <use x="478.173828" xlink:href="#DejaVuSans-32"/>
     <use x="509.960938" xlink:href="#DejaVuSans-107"/>
     <use x="567.871094" xlink:href="#DejaVuSans-104"/>
     <use x="631.25" xlink:href="#DejaVuSans-111"/>
     <use x="692.431641" xlink:href="#DejaVuSans-7843"/>
     <use x="753.710938" xlink:href="#DejaVuSans-110"/>
     <use x="817.089844" xlink:href="#DejaVuSans-103"/>
     <use x="880.566406" xlink:href="#DejaVuSans-32"/>
     <use x="912.353516" xlink:href="#DejaVuSans-52"/>
     <use x="975.976562" xlink:href="#DejaVuSans-53"/>
     <use x="1039.599609" xlink:href="#DejaVuSans-32"/>
     <use x="1071.386719" xlink:href="#DejaVuSans-273"/>
     <use x="1134.863281" xlink:href="#DejaVuSans-7871"/>
     <use x="1196.386719" xlink:href="#DejaVuSans-110"/>
     <use x="1259.765625" xlink:href="#DejaVuSans-32"/>
     <use x="1291.552734" xlink:href="#DejaVuSans-54"/>
     <use x="1355.175781" xlink:href="#DejaVuSans-48"/>
     <use x="1418.798828" xlink:href="#DejaVuSans-32"/>
     <use x="1450.585938" xlink:href="#DejaVuSans-112"/>
     <use x="1514.0625" xlink:href="#DejaVuSans-101"/>
     <use x="1575.585938" xlink:href="#DejaVuSans-114"/>
     <use x="1614.449219" xlink:href="#DejaVuSans-99"/>
     <use x="1669.429688" xlink:href="#DejaVuSans-101"/>
     <use x="1730.953125" xlink:href="#DejaVuSans-110"/>
     <use x="1794.332031" xlink:href="#DejaVuSans-116"/>
     <use x="1833.541016" xlink:href="#DejaVuSans-105"/>
     <use x="1861.324219" xlink:href="#DejaVuSans-108"/>
     <use x="1889.107422" xlink:href="#DejaVuSans-101"/>
    </g>
   </g>
  </g>
 </g>
 <defs>
  <clipPath id="p8674657ad5">
   <rect height="233.28" width="375.84" x="65.797813" y="27.209755"/>
  </clipPath>
 </defs>
</svg>
