<?xml version="1.0" encoding="utf-8" standalone="no"?>
<!DOCTYPE svg PUBLIC "-//W3C//DTD SVG 1.1//EN"
  "http://www.w3.org/Graphics/SVG/1.1/DTD/svg11.dtd">
<!-- Created with matplotlib (https://matplotlib.org/) -->
<svg height="343.984312pt" version="1.1" viewBox="0 0 703.807187 343.984312" width="703.807187pt" xmlns="http://www.w3.org/2000/svg" xmlns:xlink="http://www.w3.org/1999/xlink">
 <metadata>
  <rdf:RDF xmlns:cc="http://creativecommons.org/ns#" xmlns:dc="http://purl.org/dc/elements/1.1/" xmlns:rdf="http://www.w3.org/1999/02/22-rdf-syntax-ns#">
   <cc:Work>
    <dc:type rdf:resource="http://purl.org/dc/dcmitype/StillImage"/>
    <dc:date>2021-02-15T10:07:50.141874</dc:date>
    <dc:format>image/svg+xml</dc:format>
    <dc:creator>
     <cc:Agent>
      <dc:title>Matplotlib v3.3.3, https://matplotlib.org/</dc:title>
     </cc:Agent>
    </dc:creator>
   </cc:Work>
  </rdf:RDF>
 </metadata>
 <defs>
  <style type="text/css">*{stroke-linecap:butt;stroke-linejoin:round;}</style>
 </defs>
 <g id="figure_1">
  <g id="patch_1">
   <path d="M 0 343.984312 
L 703.807187 343.984312 
L 703.807187 0 
L 0 0 
z
" style="fill:#f0f0f0;"/>
  </g>
  <g id="axes_1">
   <g id="patch_2">
    <path d="M 64.847188 301.21775 
L 344.167188 301.21775 
L 344.167188 27.95775 
L 64.847188 27.95775 
z
" style="fill:#f0f0f0;"/>
   </g>
   <g id="matplotlib.axis_1">
    <g id="xtick_1">
     <g id="line2d_1">
      <path clip-path="url(#pacbcae7513)" d="M 82.334632 301.21775 
L 82.334632 27.95775 
" style="fill:none;stroke:#cbcbcb;"/>
     </g>
     <g id="line2d_2"/>
     <g id="text_1">
      <!-- 35 -->
      <g transform="translate(73.427132 315.355563)scale(0.14 -0.14)">
       <defs>
        <path d="M 40.578125 39.3125 
Q 47.65625 37.796875 51.625 33 
Q 55.609375 28.21875 55.609375 21.1875 
Q 55.609375 10.40625 48.1875 4.484375 
Q 40.765625 -1.421875 27.09375 -1.421875 
Q 22.515625 -1.421875 17.65625 -0.515625 
Q 12.796875 0.390625 7.625 2.203125 
L 7.625 11.71875 
Q 11.71875 9.328125 16.59375 8.109375 
Q 21.484375 6.890625 26.8125 6.890625 
Q 36.078125 6.890625 40.9375 10.546875 
Q 45.796875 14.203125 45.796875 21.1875 
Q 45.796875 27.640625 41.28125 31.265625 
Q 36.765625 34.90625 28.71875 34.90625 
L 20.21875 34.90625 
L 20.21875 43.015625 
L 29.109375 43.015625 
Q 36.375 43.015625 40.234375 45.921875 
Q 44.09375 48.828125 44.09375 54.296875 
Q 44.09375 59.90625 40.109375 62.90625 
Q 36.140625 65.921875 28.71875 65.921875 
Q 24.65625 65.921875 20.015625 65.03125 
Q 15.375 64.15625 9.8125 62.3125 
L 9.8125 71.09375 
Q 15.4375 72.65625 20.34375 73.4375 
Q 25.25 74.21875 29.59375 74.21875 
Q 40.828125 74.21875 47.359375 69.109375 
Q 53.90625 64.015625 53.90625 55.328125 
Q 53.90625 49.265625 50.4375 45.09375 
Q 46.96875 40.921875 40.578125 39.3125 
z
" id="DejaVuSans-51"/>
        <path d="M 10.796875 72.90625 
L 49.515625 72.90625 
L 49.515625 64.59375 
L 19.828125 64.59375 
L 19.828125 46.734375 
Q 21.96875 47.46875 24.109375 47.828125 
Q 26.265625 48.1875 28.421875 48.1875 
Q 40.625 48.1875 47.75 41.5 
Q 54.890625 34.8125 54.890625 23.390625 
Q 54.890625 11.625 47.5625 5.09375 
Q 40.234375 -1.421875 26.90625 -1.421875 
Q 22.3125 -1.421875 17.546875 -0.640625 
Q 12.796875 0.140625 7.71875 1.703125 
L 7.71875 11.625 
Q 12.109375 9.234375 16.796875 8.0625 
Q 21.484375 6.890625 26.703125 6.890625 
Q 35.15625 6.890625 40.078125 11.328125 
Q 45.015625 15.765625 45.015625 23.390625 
Q 45.015625 31 40.078125 35.4375 
Q 35.15625 39.890625 26.703125 39.890625 
Q 22.75 39.890625 18.8125 39.015625 
Q 14.890625 38.140625 10.796875 36.28125 
z
" id="DejaVuSans-53"/>
       </defs>
       <use xlink:href="#DejaVuSans-51"/>
       <use x="63.623047" xlink:href="#DejaVuSans-53"/>
      </g>
     </g>
    </g>
    <g id="xtick_2">
     <g id="line2d_3">
      <path clip-path="url(#pacbcae7513)" d="M 130.245438 301.21775 
L 130.245438 27.95775 
" style="fill:none;stroke:#cbcbcb;"/>
     </g>
     <g id="line2d_4"/>
     <g id="text_2">
      <!-- 40 -->
      <g transform="translate(121.337938 315.355563)scale(0.14 -0.14)">
       <defs>
        <path d="M 37.796875 64.3125 
L 12.890625 25.390625 
L 37.796875 25.390625 
z
M 35.203125 72.90625 
L 47.609375 72.90625 
L 47.609375 25.390625 
L 58.015625 25.390625 
L 58.015625 17.1875 
L 47.609375 17.1875 
L 47.609375 0 
L 37.796875 0 
L 37.796875 17.1875 
L 4.890625 17.1875 
L 4.890625 26.703125 
z
" id="DejaVuSans-52"/>
        <path d="M 31.78125 66.40625 
Q 24.171875 66.40625 20.328125 58.90625 
Q 16.5 51.421875 16.5 36.375 
Q 16.5 21.390625 20.328125 13.890625 
Q 24.171875 6.390625 31.78125 6.390625 
Q 39.453125 6.390625 43.28125 13.890625 
Q 47.125 21.390625 47.125 36.375 
Q 47.125 51.421875 43.28125 58.90625 
Q 39.453125 66.40625 31.78125 66.40625 
z
M 31.78125 74.21875 
Q 44.046875 74.21875 50.515625 64.515625 
Q 56.984375 54.828125 56.984375 36.375 
Q 56.984375 17.96875 50.515625 8.265625 
Q 44.046875 -1.421875 31.78125 -1.421875 
Q 19.53125 -1.421875 13.0625 8.265625 
Q 6.59375 17.96875 6.59375 36.375 
Q 6.59375 54.828125 13.0625 64.515625 
Q 19.53125 74.21875 31.78125 74.21875 
z
" id="DejaVuSans-48"/>
       </defs>
       <use xlink:href="#DejaVuSans-52"/>
       <use x="63.623047" xlink:href="#DejaVuSans-48"/>
      </g>
     </g>
    </g>
    <g id="xtick_3">
     <g id="line2d_5">
      <path clip-path="url(#pacbcae7513)" d="M 178.156244 301.21775 
L 178.156244 27.95775 
" style="fill:none;stroke:#cbcbcb;"/>
     </g>
     <g id="line2d_6"/>
     <g id="text_3">
      <!-- 45 -->
      <g transform="translate(169.248744 315.355563)scale(0.14 -0.14)">
       <use xlink:href="#DejaVuSans-52"/>
       <use x="63.623047" xlink:href="#DejaVuSans-53"/>
      </g>
     </g>
    </g>
    <g id="xtick_4">
     <g id="line2d_7">
      <path clip-path="url(#pacbcae7513)" d="M 226.06705 301.21775 
L 226.06705 27.95775 
" style="fill:none;stroke:#cbcbcb;"/>
     </g>
     <g id="line2d_8"/>
     <g id="text_4">
      <!-- 50 -->
      <g transform="translate(217.15955 315.355563)scale(0.14 -0.14)">
       <use xlink:href="#DejaVuSans-53"/>
       <use x="63.623047" xlink:href="#DejaVuSans-48"/>
      </g>
     </g>
    </g>
    <g id="xtick_5">
     <g id="line2d_9">
      <path clip-path="url(#pacbcae7513)" d="M 273.977856 301.21775 
L 273.977856 27.95775 
" style="fill:none;stroke:#cbcbcb;"/>
     </g>
     <g id="line2d_10"/>
     <g id="text_5">
      <!-- 55 -->
      <g transform="translate(265.070356 315.355563)scale(0.14 -0.14)">
       <use xlink:href="#DejaVuSans-53"/>
       <use x="63.623047" xlink:href="#DejaVuSans-53"/>
      </g>
     </g>
    </g>
    <g id="xtick_6">
     <g id="line2d_11">
      <path clip-path="url(#pacbcae7513)" d="M 321.888663 301.21775 
L 321.888663 27.95775 
" style="fill:none;stroke:#cbcbcb;"/>
     </g>
     <g id="line2d_12"/>
     <g id="text_6">
      <!-- 60 -->
      <g transform="translate(312.981163 315.355563)scale(0.14 -0.14)">
       <defs>
        <path d="M 33.015625 40.375 
Q 26.375 40.375 22.484375 35.828125 
Q 18.609375 31.296875 18.609375 23.390625 
Q 18.609375 15.53125 22.484375 10.953125 
Q 26.375 6.390625 33.015625 6.390625 
Q 39.65625 6.390625 43.53125 10.953125 
Q 47.40625 15.53125 47.40625 23.390625 
Q 47.40625 31.296875 43.53125 35.828125 
Q 39.65625 40.375 33.015625 40.375 
z
M 52.59375 71.296875 
L 52.59375 62.3125 
Q 48.875 64.0625 45.09375 64.984375 
Q 41.3125 65.921875 37.59375 65.921875 
Q 27.828125 65.921875 22.671875 59.328125 
Q 17.53125 52.734375 16.796875 39.40625 
Q 19.671875 43.65625 24.015625 45.921875 
Q 28.375 48.1875 33.59375 48.1875 
Q 44.578125 48.1875 50.953125 41.515625 
Q 57.328125 34.859375 57.328125 23.390625 
Q 57.328125 12.15625 50.6875 5.359375 
Q 44.046875 -1.421875 33.015625 -1.421875 
Q 20.359375 -1.421875 13.671875 8.265625 
Q 6.984375 17.96875 6.984375 36.375 
Q 6.984375 53.65625 15.1875 63.9375 
Q 23.390625 74.21875 37.203125 74.21875 
Q 40.921875 74.21875 44.703125 73.484375 
Q 48.484375 72.75 52.59375 71.296875 
z
" id="DejaVuSans-54"/>
       </defs>
       <use xlink:href="#DejaVuSans-54"/>
       <use x="63.623047" xlink:href="#DejaVuSans-48"/>
      </g>
     </g>
    </g>
    <g id="text_7">
     <!-- body mass(kg) -->
     <g transform="translate(148.900547 333.664781)scale(0.15 -0.15)">
      <defs>
       <path d="M 48.6875 27.296875 
Q 48.6875 37.203125 44.609375 42.84375 
Q 40.53125 48.484375 33.40625 48.484375 
Q 26.265625 48.484375 22.1875 42.84375 
Q 18.109375 37.203125 18.109375 27.296875 
Q 18.109375 17.390625 22.1875 11.75 
Q 26.265625 6.109375 33.40625 6.109375 
Q 40.53125 6.109375 44.609375 11.75 
Q 48.6875 17.390625 48.6875 27.296875 
z
M 18.109375 46.390625 
Q 20.953125 51.265625 25.265625 53.625 
Q 29.59375 56 35.59375 56 
Q 45.5625 56 51.78125 48.09375 
Q 58.015625 40.1875 58.015625 27.296875 
Q 58.015625 14.40625 51.78125 6.484375 
Q 45.5625 -1.421875 35.59375 -1.421875 
Q 29.59375 -1.421875 25.265625 0.953125 
Q 20.953125 3.328125 18.109375 8.203125 
L 18.109375 0 
L 9.078125 0 
L 9.078125 75.984375 
L 18.109375 75.984375 
z
" id="DejaVuSans-98"/>
       <path d="M 30.609375 48.390625 
Q 23.390625 48.390625 19.1875 42.75 
Q 14.984375 37.109375 14.984375 27.296875 
Q 14.984375 17.484375 19.15625 11.84375 
Q 23.34375 6.203125 30.609375 6.203125 
Q 37.796875 6.203125 41.984375 11.859375 
Q 46.1875 17.53125 46.1875 27.296875 
Q 46.1875 37.015625 41.984375 42.703125 
Q 37.796875 48.390625 30.609375 48.390625 
z
M 30.609375 56 
Q 42.328125 56 49.015625 48.375 
Q 55.71875 40.765625 55.71875 27.296875 
Q 55.71875 13.875 49.015625 6.21875 
Q 42.328125 -1.421875 30.609375 -1.421875 
Q 18.84375 -1.421875 12.171875 6.21875 
Q 5.515625 13.875 5.515625 27.296875 
Q 5.515625 40.765625 12.171875 48.375 
Q 18.84375 56 30.609375 56 
z
" id="DejaVuSans-111"/>
       <path d="M 45.40625 46.390625 
L 45.40625 75.984375 
L 54.390625 75.984375 
L 54.390625 0 
L 45.40625 0 
L 45.40625 8.203125 
Q 42.578125 3.328125 38.25 0.953125 
Q 33.9375 -1.421875 27.875 -1.421875 
Q 17.96875 -1.421875 11.734375 6.484375 
Q 5.515625 14.40625 5.515625 27.296875 
Q 5.515625 40.1875 11.734375 48.09375 
Q 17.96875 56 27.875 56 
Q 33.9375 56 38.25 53.625 
Q 42.578125 51.265625 45.40625 46.390625 
z
M 14.796875 27.296875 
Q 14.796875 17.390625 18.875 11.75 
Q 22.953125 6.109375 30.078125 6.109375 
Q 37.203125 6.109375 41.296875 11.75 
Q 45.40625 17.390625 45.40625 27.296875 
Q 45.40625 37.203125 41.296875 42.84375 
Q 37.203125 48.484375 30.078125 48.484375 
Q 22.953125 48.484375 18.875 42.84375 
Q 14.796875 37.203125 14.796875 27.296875 
z
" id="DejaVuSans-100"/>
       <path d="M 32.171875 -5.078125 
Q 28.375 -14.84375 24.75 -17.8125 
Q 21.140625 -20.796875 15.09375 -20.796875 
L 7.90625 -20.796875 
L 7.90625 -13.28125 
L 13.1875 -13.28125 
Q 16.890625 -13.28125 18.9375 -11.515625 
Q 21 -9.765625 23.484375 -3.21875 
L 25.09375 0.875 
L 2.984375 54.6875 
L 12.5 54.6875 
L 29.59375 11.921875 
L 46.6875 54.6875 
L 56.203125 54.6875 
z
" id="DejaVuSans-121"/>
       <path id="DejaVuSans-32"/>
       <path d="M 52 44.1875 
Q 55.375 50.25 60.0625 53.125 
Q 64.75 56 71.09375 56 
Q 79.640625 56 84.28125 50.015625 
Q 88.921875 44.046875 88.921875 33.015625 
L 88.921875 0 
L 79.890625 0 
L 79.890625 32.71875 
Q 79.890625 40.578125 77.09375 44.375 
Q 74.3125 48.1875 68.609375 48.1875 
Q 61.625 48.1875 57.5625 43.546875 
Q 53.515625 38.921875 53.515625 30.90625 
L 53.515625 0 
L 44.484375 0 
L 44.484375 32.71875 
Q 44.484375 40.625 41.703125 44.40625 
Q 38.921875 48.1875 33.109375 48.1875 
Q 26.21875 48.1875 22.15625 43.53125 
Q 18.109375 38.875 18.109375 30.90625 
L 18.109375 0 
L 9.078125 0 
L 9.078125 54.6875 
L 18.109375 54.6875 
L 18.109375 46.1875 
Q 21.1875 51.21875 25.484375 53.609375 
Q 29.78125 56 35.6875 56 
Q 41.65625 56 45.828125 52.96875 
Q 50 49.953125 52 44.1875 
z
" id="DejaVuSans-109"/>
       <path d="M 34.28125 27.484375 
Q 23.390625 27.484375 19.1875 25 
Q 14.984375 22.515625 14.984375 16.5 
Q 14.984375 11.71875 18.140625 8.90625 
Q 21.296875 6.109375 26.703125 6.109375 
Q 34.1875 6.109375 38.703125 11.40625 
Q 43.21875 16.703125 43.21875 25.484375 
L 43.21875 27.484375 
z
M 52.203125 31.203125 
L 52.203125 0 
L 43.21875 0 
L 43.21875 8.296875 
Q 40.140625 3.328125 35.546875 0.953125 
Q 30.953125 -1.421875 24.3125 -1.421875 
Q 15.921875 -1.421875 10.953125 3.296875 
Q 6 8.015625 6 15.921875 
Q 6 25.140625 12.171875 29.828125 
Q 18.359375 34.515625 30.609375 34.515625 
L 43.21875 34.515625 
L 43.21875 35.40625 
Q 43.21875 41.609375 39.140625 45 
Q 35.0625 48.390625 27.6875 48.390625 
Q 23 48.390625 18.546875 47.265625 
Q 14.109375 46.140625 10.015625 43.890625 
L 10.015625 52.203125 
Q 14.9375 54.109375 19.578125 55.046875 
Q 24.21875 56 28.609375 56 
Q 40.484375 56 46.34375 49.84375 
Q 52.203125 43.703125 52.203125 31.203125 
z
" id="DejaVuSans-97"/>
       <path d="M 44.28125 53.078125 
L 44.28125 44.578125 
Q 40.484375 46.53125 36.375 47.5 
Q 32.28125 48.484375 27.875 48.484375 
Q 21.1875 48.484375 17.84375 46.4375 
Q 14.5 44.390625 14.5 40.28125 
Q 14.5 37.15625 16.890625 35.375 
Q 19.28125 33.59375 26.515625 31.984375 
L 29.59375 31.296875 
Q 39.15625 29.25 43.1875 25.515625 
Q 47.21875 21.78125 47.21875 15.09375 
Q 47.21875 7.46875 41.1875 3.015625 
Q 35.15625 -1.421875 24.609375 -1.421875 
Q 20.21875 -1.421875 15.453125 -0.5625 
Q 10.6875 0.296875 5.421875 2 
L 5.421875 11.28125 
Q 10.40625 8.6875 15.234375 7.390625 
Q 20.0625 6.109375 24.8125 6.109375 
Q 31.15625 6.109375 34.5625 8.28125 
Q 37.984375 10.453125 37.984375 14.40625 
Q 37.984375 18.0625 35.515625 20.015625 
Q 33.0625 21.96875 24.703125 23.78125 
L 21.578125 24.515625 
Q 13.234375 26.265625 9.515625 29.90625 
Q 5.8125 33.546875 5.8125 39.890625 
Q 5.8125 47.609375 11.28125 51.796875 
Q 16.75 56 26.8125 56 
Q 31.78125 56 36.171875 55.265625 
Q 40.578125 54.546875 44.28125 53.078125 
z
" id="DejaVuSans-115"/>
       <path d="M 31 75.875 
Q 24.46875 64.65625 21.28125 53.65625 
Q 18.109375 42.671875 18.109375 31.390625 
Q 18.109375 20.125 21.3125 9.0625 
Q 24.515625 -2 31 -13.1875 
L 23.1875 -13.1875 
Q 15.875 -1.703125 12.234375 9.375 
Q 8.59375 20.453125 8.59375 31.390625 
Q 8.59375 42.28125 12.203125 53.3125 
Q 15.828125 64.359375 23.1875 75.875 
z
" id="DejaVuSans-40"/>
       <path d="M 9.078125 75.984375 
L 18.109375 75.984375 
L 18.109375 31.109375 
L 44.921875 54.6875 
L 56.390625 54.6875 
L 27.390625 29.109375 
L 57.625 0 
L 45.90625 0 
L 18.109375 26.703125 
L 18.109375 0 
L 9.078125 0 
z
" id="DejaVuSans-107"/>
       <path d="M 45.40625 27.984375 
Q 45.40625 37.75 41.375 43.109375 
Q 37.359375 48.484375 30.078125 48.484375 
Q 22.859375 48.484375 18.828125 43.109375 
Q 14.796875 37.75 14.796875 27.984375 
Q 14.796875 18.265625 18.828125 12.890625 
Q 22.859375 7.515625 30.078125 7.515625 
Q 37.359375 7.515625 41.375 12.890625 
Q 45.40625 18.265625 45.40625 27.984375 
z
M 54.390625 6.78125 
Q 54.390625 -7.171875 48.1875 -13.984375 
Q 42 -20.796875 29.203125 -20.796875 
Q 24.46875 -20.796875 20.265625 -20.09375 
Q 16.0625 -19.390625 12.109375 -17.921875 
L 12.109375 -9.1875 
Q 16.0625 -11.328125 19.921875 -12.34375 
Q 23.78125 -13.375 27.78125 -13.375 
Q 36.625 -13.375 41.015625 -8.765625 
Q 45.40625 -4.15625 45.40625 5.171875 
L 45.40625 9.625 
Q 42.625 4.78125 38.28125 2.390625 
Q 33.9375 0 27.875 0 
Q 17.828125 0 11.671875 7.65625 
Q 5.515625 15.328125 5.515625 27.984375 
Q 5.515625 40.671875 11.671875 48.328125 
Q 17.828125 56 27.875 56 
Q 33.9375 56 38.28125 53.609375 
Q 42.625 51.21875 45.40625 46.390625 
L 45.40625 54.6875 
L 54.390625 54.6875 
z
" id="DejaVuSans-103"/>
       <path d="M 8.015625 75.875 
L 15.828125 75.875 
Q 23.140625 64.359375 26.78125 53.3125 
Q 30.421875 42.28125 30.421875 31.390625 
Q 30.421875 20.453125 26.78125 9.375 
Q 23.140625 -1.703125 15.828125 -13.1875 
L 8.015625 -13.1875 
Q 14.5 -2 17.703125 9.0625 
Q 20.90625 20.125 20.90625 31.390625 
Q 20.90625 42.671875 17.703125 53.65625 
Q 14.5 64.65625 8.015625 75.875 
z
" id="DejaVuSans-41"/>
      </defs>
      <use xlink:href="#DejaVuSans-98"/>
      <use x="63.476562" xlink:href="#DejaVuSans-111"/>
      <use x="124.658203" xlink:href="#DejaVuSans-100"/>
      <use x="188.134766" xlink:href="#DejaVuSans-121"/>
      <use x="247.314453" xlink:href="#DejaVuSans-32"/>
      <use x="279.101562" xlink:href="#DejaVuSans-109"/>
      <use x="376.513672" xlink:href="#DejaVuSans-97"/>
      <use x="437.792969" xlink:href="#DejaVuSans-115"/>
      <use x="489.892578" xlink:href="#DejaVuSans-115"/>
      <use x="541.992188" xlink:href="#DejaVuSans-40"/>
      <use x="581.005859" xlink:href="#DejaVuSans-107"/>
      <use x="638.916016" xlink:href="#DejaVuSans-103"/>
      <use x="702.392578" xlink:href="#DejaVuSans-41"/>
     </g>
    </g>
   </g>
   <g id="matplotlib.axis_2">
    <g id="ytick_1">
     <g id="line2d_13">
      <path clip-path="url(#pacbcae7513)" d="M 64.847188 299.147598 
L 344.167188 299.147598 
" style="fill:none;stroke:#cbcbcb;"/>
     </g>
     <g id="line2d_14"/>
     <g id="text_8">
      <!-- 400 -->
      <g transform="translate(34.624688 304.466505)scale(0.14 -0.14)">
       <use xlink:href="#DejaVuSans-52"/>
       <use x="63.623047" xlink:href="#DejaVuSans-48"/>
       <use x="127.246094" xlink:href="#DejaVuSans-48"/>
      </g>
     </g>
    </g>
    <g id="ytick_2">
     <g id="line2d_15">
      <path clip-path="url(#pacbcae7513)" d="M 64.847188 244.669927 
L 344.167188 244.669927 
" style="fill:none;stroke:#cbcbcb;"/>
     </g>
     <g id="line2d_16"/>
     <g id="text_9">
      <!-- 600 -->
      <g transform="translate(34.624688 249.988833)scale(0.14 -0.14)">
       <use xlink:href="#DejaVuSans-54"/>
       <use x="63.623047" xlink:href="#DejaVuSans-48"/>
       <use x="127.246094" xlink:href="#DejaVuSans-48"/>
      </g>
     </g>
    </g>
    <g id="ytick_3">
     <g id="line2d_17">
      <path clip-path="url(#pacbcae7513)" d="M 64.847188 190.192256 
L 344.167188 190.192256 
" style="fill:none;stroke:#cbcbcb;"/>
     </g>
     <g id="line2d_18"/>
     <g id="text_10">
      <!-- 800 -->
      <g transform="translate(34.624688 195.511162)scale(0.14 -0.14)">
       <defs>
        <path d="M 31.78125 34.625 
Q 24.75 34.625 20.71875 30.859375 
Q 16.703125 27.09375 16.703125 20.515625 
Q 16.703125 13.921875 20.71875 10.15625 
Q 24.75 6.390625 31.78125 6.390625 
Q 38.8125 6.390625 42.859375 10.171875 
Q 46.921875 13.96875 46.921875 20.515625 
Q 46.921875 27.09375 42.890625 30.859375 
Q 38.875 34.625 31.78125 34.625 
z
M 21.921875 38.8125 
Q 15.578125 40.375 12.03125 44.71875 
Q 8.5 49.078125 8.5 55.328125 
Q 8.5 64.0625 14.71875 69.140625 
Q 20.953125 74.21875 31.78125 74.21875 
Q 42.671875 74.21875 48.875 69.140625 
Q 55.078125 64.0625 55.078125 55.328125 
Q 55.078125 49.078125 51.53125 44.71875 
Q 48 40.375 41.703125 38.8125 
Q 48.828125 37.15625 52.796875 32.3125 
Q 56.78125 27.484375 56.78125 20.515625 
Q 56.78125 9.90625 50.3125 4.234375 
Q 43.84375 -1.421875 31.78125 -1.421875 
Q 19.734375 -1.421875 13.25 4.234375 
Q 6.78125 9.90625 6.78125 20.515625 
Q 6.78125 27.484375 10.78125 32.3125 
Q 14.796875 37.15625 21.921875 38.8125 
z
M 18.3125 54.390625 
Q 18.3125 48.734375 21.84375 45.5625 
Q 25.390625 42.390625 31.78125 42.390625 
Q 38.140625 42.390625 41.71875 45.5625 
Q 45.3125 48.734375 45.3125 54.390625 
Q 45.3125 60.0625 41.71875 63.234375 
Q 38.140625 66.40625 31.78125 66.40625 
Q 25.390625 66.40625 21.84375 63.234375 
Q 18.3125 60.0625 18.3125 54.390625 
z
" id="DejaVuSans-56"/>
       </defs>
       <use xlink:href="#DejaVuSans-56"/>
       <use x="63.623047" xlink:href="#DejaVuSans-48"/>
       <use x="127.246094" xlink:href="#DejaVuSans-48"/>
      </g>
     </g>
    </g>
    <g id="ytick_4">
     <g id="line2d_19">
      <path clip-path="url(#pacbcae7513)" d="M 64.847188 135.714584 
L 344.167188 135.714584 
" style="fill:none;stroke:#cbcbcb;"/>
     </g>
     <g id="line2d_20"/>
     <g id="text_11">
      <!-- 1000 -->
      <g transform="translate(25.717188 141.03349)scale(0.14 -0.14)">
       <defs>
        <path d="M 12.40625 8.296875 
L 28.515625 8.296875 
L 28.515625 63.921875 
L 10.984375 60.40625 
L 10.984375 69.390625 
L 28.421875 72.90625 
L 38.28125 72.90625 
L 38.28125 8.296875 
L 54.390625 8.296875 
L 54.390625 0 
L 12.40625 0 
z
" id="DejaVuSans-49"/>
       </defs>
       <use xlink:href="#DejaVuSans-49"/>
       <use x="63.623047" xlink:href="#DejaVuSans-48"/>
       <use x="127.246094" xlink:href="#DejaVuSans-48"/>
       <use x="190.869141" xlink:href="#DejaVuSans-48"/>
      </g>
     </g>
    </g>
    <g id="ytick_5">
     <g id="line2d_21">
      <path clip-path="url(#pacbcae7513)" d="M 64.847188 81.236913 
L 344.167188 81.236913 
" style="fill:none;stroke:#cbcbcb;"/>
     </g>
     <g id="line2d_22"/>
     <g id="text_12">
      <!-- 1200 -->
      <g transform="translate(25.717188 86.555819)scale(0.14 -0.14)">
       <defs>
        <path d="M 19.1875 8.296875 
L 53.609375 8.296875 
L 53.609375 0 
L 7.328125 0 
L 7.328125 8.296875 
Q 12.9375 14.109375 22.625 23.890625 
Q 32.328125 33.6875 34.8125 36.53125 
Q 39.546875 41.84375 41.421875 45.53125 
Q 43.3125 49.21875 43.3125 52.78125 
Q 43.3125 58.59375 39.234375 62.25 
Q 35.15625 65.921875 28.609375 65.921875 
Q 23.96875 65.921875 18.8125 64.3125 
Q 13.671875 62.703125 7.8125 59.421875 
L 7.8125 69.390625 
Q 13.765625 71.78125 18.9375 73 
Q 24.125 74.21875 28.421875 74.21875 
Q 39.75 74.21875 46.484375 68.546875 
Q 53.21875 62.890625 53.21875 53.421875 
Q 53.21875 48.921875 51.53125 44.890625 
Q 49.859375 40.875 45.40625 35.40625 
Q 44.1875 33.984375 37.640625 27.21875 
Q 31.109375 20.453125 19.1875 8.296875 
z
" id="DejaVuSans-50"/>
       </defs>
       <use xlink:href="#DejaVuSans-49"/>
       <use x="63.623047" xlink:href="#DejaVuSans-50"/>
       <use x="127.246094" xlink:href="#DejaVuSans-48"/>
       <use x="190.869141" xlink:href="#DejaVuSans-48"/>
      </g>
     </g>
    </g>
    <g id="text_13">
     <!-- brain volume(cc) -->
     <g transform="translate(18.597656 228.133844)rotate(-90)scale(0.15 -0.15)">
      <defs>
       <path d="M 41.109375 46.296875 
Q 39.59375 47.171875 37.8125 47.578125 
Q 36.03125 48 33.890625 48 
Q 26.265625 48 22.1875 43.046875 
Q 18.109375 38.09375 18.109375 28.8125 
L 18.109375 0 
L 9.078125 0 
L 9.078125 54.6875 
L 18.109375 54.6875 
L 18.109375 46.1875 
Q 20.953125 51.171875 25.484375 53.578125 
Q 30.03125 56 36.53125 56 
Q 37.453125 56 38.578125 55.875 
Q 39.703125 55.765625 41.0625 55.515625 
z
" id="DejaVuSans-114"/>
       <path d="M 9.421875 54.6875 
L 18.40625 54.6875 
L 18.40625 0 
L 9.421875 0 
z
M 9.421875 75.984375 
L 18.40625 75.984375 
L 18.40625 64.59375 
L 9.421875 64.59375 
z
" id="DejaVuSans-105"/>
       <path d="M 54.890625 33.015625 
L 54.890625 0 
L 45.90625 0 
L 45.90625 32.71875 
Q 45.90625 40.484375 42.875 44.328125 
Q 39.84375 48.1875 33.796875 48.1875 
Q 26.515625 48.1875 22.3125 43.546875 
Q 18.109375 38.921875 18.109375 30.90625 
L 18.109375 0 
L 9.078125 0 
L 9.078125 54.6875 
L 18.109375 54.6875 
L 18.109375 46.1875 
Q 21.34375 51.125 25.703125 53.5625 
Q 30.078125 56 35.796875 56 
Q 45.21875 56 50.046875 50.171875 
Q 54.890625 44.34375 54.890625 33.015625 
z
" id="DejaVuSans-110"/>
       <path d="M 2.984375 54.6875 
L 12.5 54.6875 
L 29.59375 8.796875 
L 46.6875 54.6875 
L 56.203125 54.6875 
L 35.6875 0 
L 23.484375 0 
z
" id="DejaVuSans-118"/>
       <path d="M 9.421875 75.984375 
L 18.40625 75.984375 
L 18.40625 0 
L 9.421875 0 
z
" id="DejaVuSans-108"/>
       <path d="M 8.5 21.578125 
L 8.5 54.6875 
L 17.484375 54.6875 
L 17.484375 21.921875 
Q 17.484375 14.15625 20.5 10.265625 
Q 23.53125 6.390625 29.59375 6.390625 
Q 36.859375 6.390625 41.078125 11.03125 
Q 45.3125 15.671875 45.3125 23.6875 
L 45.3125 54.6875 
L 54.296875 54.6875 
L 54.296875 0 
L 45.3125 0 
L 45.3125 8.40625 
Q 42.046875 3.421875 37.71875 1 
Q 33.40625 -1.421875 27.6875 -1.421875 
Q 18.265625 -1.421875 13.375 4.4375 
Q 8.5 10.296875 8.5 21.578125 
z
M 31.109375 56 
z
" id="DejaVuSans-117"/>
       <path d="M 56.203125 29.59375 
L 56.203125 25.203125 
L 14.890625 25.203125 
Q 15.484375 15.921875 20.484375 11.0625 
Q 25.484375 6.203125 34.421875 6.203125 
Q 39.59375 6.203125 44.453125 7.46875 
Q 49.3125 8.734375 54.109375 11.28125 
L 54.109375 2.78125 
Q 49.265625 0.734375 44.1875 -0.34375 
Q 39.109375 -1.421875 33.890625 -1.421875 
Q 20.796875 -1.421875 13.15625 6.1875 
Q 5.515625 13.8125 5.515625 26.8125 
Q 5.515625 40.234375 12.765625 48.109375 
Q 20.015625 56 32.328125 56 
Q 43.359375 56 49.78125 48.890625 
Q 56.203125 41.796875 56.203125 29.59375 
z
M 47.21875 32.234375 
Q 47.125 39.59375 43.09375 43.984375 
Q 39.0625 48.390625 32.421875 48.390625 
Q 24.90625 48.390625 20.390625 44.140625 
Q 15.875 39.890625 15.1875 32.171875 
z
" id="DejaVuSans-101"/>
       <path d="M 48.78125 52.59375 
L 48.78125 44.1875 
Q 44.96875 46.296875 41.140625 47.34375 
Q 37.3125 48.390625 33.40625 48.390625 
Q 24.65625 48.390625 19.8125 42.84375 
Q 14.984375 37.3125 14.984375 27.296875 
Q 14.984375 17.28125 19.8125 11.734375 
Q 24.65625 6.203125 33.40625 6.203125 
Q 37.3125 6.203125 41.140625 7.25 
Q 44.96875 8.296875 48.78125 10.40625 
L 48.78125 2.09375 
Q 45.015625 0.34375 40.984375 -0.53125 
Q 36.96875 -1.421875 32.421875 -1.421875 
Q 20.0625 -1.421875 12.78125 6.34375 
Q 5.515625 14.109375 5.515625 27.296875 
Q 5.515625 40.671875 12.859375 48.328125 
Q 20.21875 56 33.015625 56 
Q 37.15625 56 41.109375 55.140625 
Q 45.0625 54.296875 48.78125 52.59375 
z
" id="DejaVuSans-99"/>
      </defs>
      <use xlink:href="#DejaVuSans-98"/>
      <use x="63.476562" xlink:href="#DejaVuSans-114"/>
      <use x="104.589844" xlink:href="#DejaVuSans-97"/>
      <use x="165.869141" xlink:href="#DejaVuSans-105"/>
      <use x="193.652344" xlink:href="#DejaVuSans-110"/>
      <use x="257.03125" xlink:href="#DejaVuSans-32"/>
      <use x="288.818359" xlink:href="#DejaVuSans-118"/>
      <use x="347.998047" xlink:href="#DejaVuSans-111"/>
      <use x="409.179688" xlink:href="#DejaVuSans-108"/>
      <use x="436.962891" xlink:href="#DejaVuSans-117"/>
      <use x="500.341797" xlink:href="#DejaVuSans-109"/>
      <use x="597.753906" xlink:href="#DejaVuSans-101"/>
      <use x="659.277344" xlink:href="#DejaVuSans-40"/>
      <use x="698.291016" xlink:href="#DejaVuSans-99"/>
      <use x="753.271484" xlink:href="#DejaVuSans-99"/>
      <use x="808.251953" xlink:href="#DejaVuSans-41"/>
     </g>
    </g>
   </g>
   <g id="line2d_23">
    <path clip-path="url(#pacbcae7513)" d="M 101.498954 288.796841 
L 87.125712 284.983404 
L 77.543551 241.401267 
L 144.61868 266.188607 
L 278.768937 203.266897 
L 331.470824 170.852682 
L 259.604615 40.378659 
" style="fill:none;"/>
    <defs>
     <path d="M 0 5 
C 1.326016 5 2.597899 4.473168 3.535534 3.535534 
C 4.473168 2.597899 5 1.326016 5 0 
C 5 -1.326016 4.473168 -2.597899 3.535534 -3.535534 
C 2.597899 -4.473168 1.326016 -5 0 -5 
C -1.326016 -5 -2.597899 -4.473168 -3.535534 -3.535534 
C -4.473168 -2.597899 -5 -1.326016 -5 0 
C -5 1.326016 -4.473168 2.597899 -3.535534 3.535534 
C -2.597899 4.473168 -1.326016 5 0 5 
z
" id="m2dd4d482b0" style="stroke:#008fd5;"/>
    </defs>
    <g clip-path="url(#pacbcae7513)">
     <use style="fill:#008fd5;stroke:#008fd5;" x="101.498954" xlink:href="#m2dd4d482b0" y="288.796841"/>
     <use style="fill:#008fd5;stroke:#008fd5;" x="87.125712" xlink:href="#m2dd4d482b0" y="284.983404"/>
     <use style="fill:#008fd5;stroke:#008fd5;" x="77.543551" xlink:href="#m2dd4d482b0" y="241.401267"/>
     <use style="fill:#008fd5;stroke:#008fd5;" x="144.61868" xlink:href="#m2dd4d482b0" y="266.188607"/>
     <use style="fill:#008fd5;stroke:#008fd5;" x="278.768937" xlink:href="#m2dd4d482b0" y="203.266897"/>
     <use style="fill:#008fd5;stroke:#008fd5;" x="331.470824" xlink:href="#m2dd4d482b0" y="170.852682"/>
     <use style="fill:#008fd5;stroke:#008fd5;" x="259.604615" xlink:href="#m2dd4d482b0" y="40.378659"/>
    </g>
   </g>
   <g id="line2d_24">
    <path clip-path="url(#pacbcae7513)" d="M 77.543551 263.582431 
L 80.108478 262.198178 
L 82.673405 260.813941 
L 85.238296 259.429689 
L 87.803223 258.045419 
L 90.36815 256.661183 
L 92.933077 255.27693 
L 95.498004 253.892677 
L 98.062932 252.508441 
L 100.627859 251.124204 
L 103.192749 249.739968 
L 105.757676 248.355732 
L 108.322603 246.971462 
L 110.887531 245.587226 
L 113.452458 244.20299 
L 116.017385 242.818754 
L 118.582312 241.434451 
L 121.147202 240.050215 
L 123.71213 238.665978 
L 126.277057 237.281742 
L 128.841984 235.897506 
L 131.406911 234.513253 
L 133.971838 233.129 
L 136.536765 231.744747 
L 139.101656 230.360494 
L 141.666583 228.976258 
L 144.23151 227.592005 
L 146.796437 226.207785 
L 149.361364 224.823532 
L 151.926291 223.439296 
L 154.491218 222.055043 
L 157.056146 220.670824 
L 159.621036 219.286554 
L 162.186 217.902334 
L 164.75089 216.518048 
L 167.315817 215.133795 
L 169.880745 213.749543 
L 172.445672 212.365323 
L 175.010599 210.98107 
L 177.575489 209.596834 
L 180.140416 208.212597 
L 182.705344 206.828311 
L 185.270271 205.444075 
L 187.835198 204.059822 
L 190.400125 202.675569 
L 192.965052 201.291366 
L 195.529943 199.907097 
L 198.09487 198.52286 
L 200.659797 197.138591 
L 203.224724 195.754355 
L 205.789651 194.370118 
L 208.354578 192.985882 
L 210.919505 191.601629 
L 213.484432 190.217393 
L 216.04936 188.833107 
L 218.61425 187.448904 
L 221.179177 186.064634 
L 223.744104 184.680365 
L 226.309031 183.296112 
L 228.873959 181.911909 
L 231.438886 180.527706 
L 234.003813 179.14337 
L 236.568703 177.759167 
L 239.13363 176.374897 
L 241.698558 174.990694 
L 244.263485 173.606408 
L 246.828412 172.222122 
L 249.393302 170.837952 
L 251.958229 169.453683 
L 254.523157 168.069463 
L 257.088084 166.68516 
L 259.653011 165.300941 
L 262.217938 163.916704 
L 264.782865 162.532451 
L 267.347792 161.148215 
L 269.912719 159.763962 
L 272.477646 158.379709 
L 275.042537 156.99549 
L 277.607464 155.611237 
L 280.172391 154.226967 
L 282.737318 152.842665 
L 285.302209 151.458495 
L 287.867136 150.074242 
L 290.432063 148.690022 
L 292.99699 147.305753 
L 295.561917 145.921483 
L 298.126844 144.537247 
L 300.691772 143.153044 
L 303.256699 141.768741 
L 305.821626 140.384571 
L 308.386553 139.000269 
L 310.951443 137.616049 
L 313.516371 136.231746 
L 316.081298 134.84751 
L 318.646225 133.463274 
L 321.211152 132.079071 
L 323.776079 130.694834 
L 326.34097 129.310532 
L 328.905897 127.926345 
L 331.470824 126.542026 
" style="fill:none;stroke:#000000;"/>
   </g>
   <g id="line2d_25">
    <path clip-path="url(#pacbcae7513)" d="M 77.543551 267.199357 
L 80.108478 265.778878 
L 82.673405 264.358398 
L 85.238332 262.937936 
L 87.803223 261.517456 
L 90.36815 260.09701 
L 92.933077 258.676514 
L 95.498004 257.256051 
L 98.062932 255.835555 
L 100.627859 254.415093 
L 103.192749 252.994597 
L 105.757676 251.574134 
L 108.322603 250.153671 
L 110.887531 248.733175 
L 113.452458 247.312713 
L 116.017385 245.892233 
L 118.582312 244.471787 
L 121.147239 243.051308 
L 123.712166 241.630812 
L 126.277057 240.210316 
L 128.841984 238.789836 
L 131.406911 237.36939 
L 133.971838 235.948894 
L 136.536765 234.528448 
L 139.101692 233.107986 
L 141.666583 231.687473 
L 144.23151 230.267044 
L 146.796437 228.846548 
L 149.361364 227.426085 
L 151.926291 226.005589 
L 154.491218 224.585109 
L 157.056146 223.164663 
L 159.621036 221.744184 
L 162.185963 220.323705 
L 164.75089 218.903225 
L 167.315817 217.482729 
L 169.880745 216.06225 
L 172.445672 214.641821 
L 175.010599 213.221358 
L 177.575489 211.800862 
L 180.140416 210.380383 
L 182.705344 208.959936 
L 185.270271 207.539424 
L 187.835198 206.118978 
L 190.400125 204.698498 
L 192.965052 203.278002 
L 195.529943 201.857556 
L 198.09487 200.437077 
L 200.659797 199.016598 
L 203.224724 197.596085 
L 205.789651 196.175656 
L 208.354578 194.755176 
L 210.919469 193.334713 
L 213.484432 191.914251 
L 216.049323 190.493788 
L 218.61425 189.073275 
L 221.179177 187.652796 
L 223.744104 186.232333 
L 226.309031 184.811871 
L 228.873959 183.391425 
L 231.438849 181.970945 
L 234.003776 180.550449 
L 236.568703 179.129986 
L 239.13363 177.709491 
L 241.698558 176.289028 
L 244.263485 174.868565 
L 246.828412 173.448069 
L 249.393302 172.027606 
L 251.958229 170.60711 
L 254.523157 169.186648 
L 257.088084 167.766168 
L 259.653011 166.345689 
L 262.217938 164.925176 
L 264.782829 163.504747 
L 267.347756 162.084301 
L 269.912683 160.663805 
L 272.47761 159.243342 
L 275.042537 157.822846 
L 277.607464 156.402383 
L 280.172355 154.981921 
L 282.737282 153.561408 
L 285.302209 152.140962 
L 287.867136 150.720499 
L 290.432063 149.300037 
L 292.99699 147.879557 
L 295.561917 146.459028 
L 298.126844 145.038615 
L 300.691772 143.618119 
L 303.256699 142.197656 
L 305.821626 140.77716 
L 308.386516 139.356648 
L 310.951443 137.936235 
L 313.516371 136.515722 
L 316.081298 135.09526 
L 318.646225 133.67478 
L 321.211115 132.254318 
L 323.776079 130.833855 
L 326.34097 129.413392 
L 328.905897 127.992913 
L 331.470824 126.57245 
" style="fill:none;stroke:#000000;"/>
   </g>
   <g id="line2d_26">
    <path clip-path="url(#pacbcae7513)" d="M 87.125712 282.59565 
L 89.593847 280.955526 
L 92.061982 279.31541 
L 94.530116 277.67527 
L 96.998251 276.035162 
L 99.466386 274.395055 
L 101.93452 272.754922 
L 104.402655 271.114831 
L 106.87079 269.474691 
L 109.338924 267.834592 
L 111.807022 266.194459 
L 114.275157 264.554327 
L 116.743292 262.914228 
L 119.211426 261.274079 
L 121.679561 259.63398 
L 124.147696 257.993864 
L 126.61583 256.353732 
L 129.083965 254.713599 
L 131.5521 253.073467 
L 134.020234 251.433368 
L 136.488369 249.793235 
L 138.956504 248.15312 
L 141.424602 246.513004 
L 143.892773 244.872872 
L 146.360908 243.232756 
L 148.829006 241.592657 
L 151.297177 239.952508 
L 153.765275 238.312409 
L 156.23341 236.672293 
L 158.701544 235.032177 
L 161.169679 233.392028 
L 163.637814 231.751929 
L 166.105948 230.111813 
L 168.574083 228.471698 
L 171.042218 226.831565 
L 173.510352 225.19145 
L 175.978487 223.551284 
L 178.446621 221.911218 
L 180.914756 220.271086 
L 183.382891 218.630953 
L 185.851025 216.990804 
L 188.31916 215.350722 
L 190.787295 213.71059 
L 193.255429 212.070457 
L 195.723528 210.430358 
L 198.191662 208.790209 
L 200.659797 207.15011 
L 203.127931 205.510027 
L 205.596066 203.869879 
L 208.064201 202.229713 
L 210.532335 200.589597 
L 213.00047 198.949515 
L 215.468605 197.309382 
L 217.936739 195.669233 
L 220.404874 194.029101 
L 222.873009 192.389035 
L 225.341107 190.748886 
L 227.809241 189.108737 
L 230.277376 187.468671 
L 232.745511 185.828539 
L 235.213645 184.188407 
L 237.68178 182.548258 
L 240.149915 180.908225 
L 242.618049 179.268043 
L 245.086184 177.627944 
L 247.554319 175.987811 
L 250.022453 174.347679 
L 252.490588 172.707547 
L 254.958723 171.067464 
L 257.426857 169.427315 
L 259.894992 167.787183 
L 262.363127 166.14705 
L 264.831261 164.506968 
L 267.299396 162.866819 
L 269.767494 161.226736 
L 272.235629 159.586571 
L 274.703763 157.946472 
L 277.171935 156.306356 
L 279.640033 154.666207 
L 282.108167 153.026124 
L 284.576302 151.385959 
L 287.044437 149.74586 
L 289.512571 148.105761 
L 291.980706 146.465578 
L 294.448841 144.825479 
L 296.916975 143.185413 
L 299.385073 141.545298 
L 301.853245 139.905132 
L 304.321343 138.26505 
L 306.789514 136.624934 
L 309.257649 134.984768 
L 311.725747 133.344686 
L 314.193881 131.70457 
L 316.662016 130.064487 
L 319.130151 128.424272 
L 321.598285 126.78419 
L 324.06642 125.144041 
L 326.534555 123.503925 
L 329.002689 121.863842 
L 331.470824 120.22376 
" style="fill:none;stroke:#000000;"/>
   </g>
   <g id="line2d_27">
    <path clip-path="url(#pacbcae7513)" d="M 77.543551 266.126179 
L 80.108478 264.680546 
L 82.673405 263.234929 
L 85.238332 261.789329 
L 87.80326 260.343729 
L 90.36815 258.898129 
L 92.933077 257.452462 
L 95.498004 256.006829 
L 98.062932 254.561262 
L 100.627859 253.115645 
L 103.192749 251.670012 
L 105.757676 250.224412 
L 108.322603 248.778762 
L 110.887531 247.333162 
L 113.452458 245.887545 
L 116.017385 244.441928 
L 118.582312 242.996311 
L 121.147239 241.550695 
L 123.712166 240.105078 
L 126.277093 238.659461 
L 128.841984 237.213861 
L 131.406911 235.768228 
L 133.971838 234.322628 
L 136.536765 232.876978 
L 139.101692 231.431394 
L 141.666583 229.985761 
L 144.23151 228.540177 
L 146.796437 227.094544 
L 149.361364 225.648877 
L 151.926291 224.203277 
L 154.491218 222.757677 
L 157.056146 221.31206 
L 159.621036 219.866427 
L 162.186 218.420827 
L 164.75089 216.975193 
L 167.315817 215.529593 
L 169.880745 214.08396 
L 172.445672 212.638343 
L 175.010599 211.19271 
L 177.575489 209.747143 
L 180.140416 208.301543 
L 182.705344 206.855893 
L 185.270271 205.410276 
L 187.835198 203.964676 
L 190.400125 202.519009 
L 192.965052 201.073409 
L 195.529979 199.627809 
L 198.09487 198.182176 
L 200.659797 196.736559 
L 203.224724 195.290942 
L 205.789651 193.845342 
L 208.354578 192.399725 
L 210.919469 190.954059 
L 213.484396 189.508475 
L 216.049323 188.062842 
L 218.61425 186.617291 
L 221.179177 185.171658 
L 223.744104 183.725991 
L 226.309031 182.280391 
L 228.873959 180.834741 
L 231.438886 179.389208 
L 234.003776 177.943558 
L 236.568703 176.497908 
L 239.13363 175.052324 
L 241.698558 173.606707 
L 244.263485 172.161107 
L 246.828412 170.715441 
L 249.393302 169.269857 
L 251.958229 167.824224 
L 254.523157 166.378574 
L 257.088084 164.932974 
L 259.653011 163.487374 
L 262.217938 162.041773 
L 264.782829 160.596123 
L 267.347792 159.150523 
L 269.912683 157.70494 
L 272.47761 156.259306 
L 275.042537 154.813656 
L 277.607464 153.36804 
L 280.172391 151.92239 
L 282.737318 150.476806 
L 285.302209 149.031256 
L 287.867136 147.585606 
L 290.432063 146.139989 
L 292.99699 144.694389 
L 295.561917 143.248756 
L 298.126844 141.803089 
L 300.691772 140.357506 
L 303.256699 138.911872 
L 305.821626 137.466255 
L 308.386553 136.020655 
L 310.951443 134.575005 
L 313.516371 133.129355 
L 316.081298 131.683788 
L 318.646188 130.238188 
L 321.211152 128.792555 
L 323.776043 127.346955 
L 326.34097 125.901288 
L 328.905897 124.455755 
L 331.470824 123.010088 
" style="fill:none;stroke:#000000;"/>
   </g>
   <g id="line2d_28">
    <path clip-path="url(#pacbcae7513)" d="M 77.543551 274.259451 
L 80.108478 272.520007 
L 82.673405 270.780614 
L 85.238332 269.041212 
L 87.80326 267.301769 
L 90.36815 265.562367 
L 92.933077 263.822915 
L 95.498004 262.08353 
L 98.062932 260.344145 
L 100.627859 258.604693 
L 103.192749 256.865291 
L 105.757676 255.125889 
L 108.322603 253.386454 
L 110.887531 251.647036 
L 113.452458 249.907634 
L 116.017385 248.168215 
L 118.582312 246.42878 
L 121.147239 244.689395 
L 123.712166 242.949944 
L 126.277057 241.210542 
L 128.841984 239.47114 
L 131.406911 237.731721 
L 133.971838 235.99227 
L 136.536765 234.252885 
L 139.101692 232.513433 
L 141.666583 230.774031 
L 144.23151 229.034629 
L 146.796437 227.295211 
L 149.361364 225.555776 
L 151.926291 223.816374 
L 154.491218 222.076955 
L 157.056146 220.337537 
L 159.621036 218.598118 
L 162.185963 216.8587 
L 164.75089 215.119282 
L 167.315817 213.379863 
L 169.880745 211.640478 
L 172.445672 209.901059 
L 175.010599 208.161641 
L 177.575526 206.422223 
L 180.140416 204.682804 
L 182.705344 202.943352 
L 185.270271 201.203984 
L 187.835198 199.464516 
L 190.400125 197.725097 
L 192.965052 195.985712 
L 195.529943 194.246293 
L 198.09487 192.506892 
L 200.659797 190.767423 
L 203.224724 189.028055 
L 205.789651 187.288653 
L 208.354578 185.549201 
L 210.919505 183.809799 
L 213.484396 182.070398 
L 216.049323 180.330962 
L 218.61425 178.591527 
L 221.179177 176.852142 
L 223.744104 175.112757 
L 226.309031 173.373289 
L 228.873959 171.633887 
L 231.438886 169.894468 
L 234.003813 168.15505 
L 236.568703 166.415615 
L 239.13363 164.676213 
L 241.698558 162.936795 
L 244.263485 161.197376 
L 246.828412 159.457958 
L 249.393302 157.718572 
L 251.958229 155.979154 
L 254.523157 154.239702 
L 257.088084 152.500334 
L 259.653011 150.760865 
L 262.217938 149.02148 
L 264.782829 147.282078 
L 267.347756 145.542643 
L 269.912683 143.803192 
L 272.47761 142.063806 
L 275.042537 140.324388 
L 277.607501 138.584936 
L 280.172355 136.845568 
L 282.737282 135.106199 
L 285.302209 133.366731 
L 287.867136 131.627296 
L 290.432063 129.887894 
L 292.99699 128.148459 
L 295.561917 126.40909 
L 298.126844 124.669655 
L 300.691735 122.930253 
L 303.256699 121.190785 
L 305.821626 119.45135 
L 308.386516 117.712015 
L 310.951443 115.97258 
L 313.516371 114.233111 
L 316.081298 112.493743 
L 318.646188 110.754308 
L 321.211115 109.014906 
L 323.776043 107.275437 
L 326.34097 105.536069 
L 328.905897 103.796667 
L 331.470824 102.057232 
" style="fill:none;stroke:#000000;"/>
   </g>
   <g id="line2d_29">
    <path clip-path="url(#pacbcae7513)" d="M 77.543551 281.744528 
L 79.57612 280.16359 
L 81.608725 278.582635 
L 83.641293 277.001705 
L 85.673862 275.420775 
L 87.706467 273.839812 
L 89.739036 272.258899 
L 91.771604 270.677944 
L 93.804173 269.096965 
L 95.836778 267.516068 
L 97.869347 265.935122 
L 99.901952 264.354175 
L 101.93452 262.773246 
L 103.967089 261.192332 
L 105.999657 259.611386 
L 108.032226 258.030423 
L 110.064831 256.449493 
L 112.0974 254.868547 
L 114.130005 253.287634 
L 116.162573 251.706671 
L 118.195142 250.125724 
L 120.227747 248.544794 
L 122.260316 246.963865 
L 124.292884 245.382935 
L 126.325453 243.801988 
L 128.358021 242.221025 
L 130.390627 240.640096 
L 132.423195 239.059166 
L 134.4558 237.478236 
L 136.488369 235.89729 
L 138.520937 234.31636 
L 140.553506 232.735397 
L 142.586111 231.154467 
L 144.61868 229.573537 
L 146.651248 227.992591 
L 148.683853 226.411694 
L 150.716422 224.830715 
L 152.748991 223.249768 
L 154.781596 221.668822 
L 156.814164 220.087892 
L 158.846733 218.506995 
L 160.879302 216.926032 
L 162.911907 215.345103 
L 164.944475 213.76414 
L 166.977044 212.183193 
L 169.009649 210.602263 
L 171.042218 209.021334 
L 173.074786 207.44037 
L 175.107391 205.859474 
L 177.13996 204.278511 
L 179.172528 202.697598 
L 181.205097 201.116668 
L 183.237702 199.535672 
L 185.270271 197.954759 
L 187.302839 196.373812 
L 189.335444 194.792899 
L 191.368013 193.211953 
L 193.400582 191.631006 
L 195.433187 190.050043 
L 197.465755 188.469163 
L 199.498324 186.888167 
L 201.530929 185.30722 
L 203.563498 183.726291 
L 205.596066 182.145361 
L 207.628671 180.564414 
L 209.66124 178.983485 
L 211.693808 177.402538 
L 213.726377 175.821608 
L 215.758946 174.240679 
L 217.791551 172.659716 
L 219.824119 171.078786 
L 221.856724 169.497839 
L 223.889293 167.91691 
L 225.921862 166.336013 
L 227.95443 164.75505 
L 229.987035 163.17412 
L 232.019604 161.593157 
L 234.052172 160.012178 
L 236.084778 158.431281 
L 238.117346 156.850368 
L 240.149915 155.269421 
L 242.182483 153.688475 
L 244.215088 152.107512 
L 246.247657 150.526566 
L 248.280226 148.945619 
L 250.312831 147.364723 
L 252.345399 145.783743 
L 254.377968 144.202846 
L 256.410573 142.621883 
L 258.443142 141.04092 
L 260.475747 139.46004 
L 262.508315 137.879061 
L 264.540884 136.298197 
L 266.573452 134.717185 
L 268.606021 133.136238 
L 270.638626 131.555308 
L 272.671195 129.974362 
L 274.703763 128.393482 
L 276.736368 126.812452 
L 278.768937 125.231556 
" style="fill:none;stroke:#000000;"/>
   </g>
   <g id="line2d_30">
    <path clip-path="url(#pacbcae7513)" d="M 77.543551 278.25988 
L 80.108478 277.256022 
L 82.673405 276.252122 
L 85.238332 275.248321 
L 87.803223 274.244455 
L 90.368187 273.240613 
L 92.933077 272.236771 
L 95.498004 271.232896 
L 98.062932 270.229037 
L 100.627859 269.225195 
L 103.192749 268.221362 
L 105.757676 267.217495 
L 108.322603 266.213662 
L 110.887531 265.209778 
L 113.452458 264.205961 
L 116.017385 263.202094 
L 118.582312 262.198261 
L 121.147239 261.194377 
L 123.712166 260.190527 
L 126.277093 259.186677 
L 128.841984 258.182827 
L 131.406911 257.178977 
L 133.971838 256.17511 
L 136.536765 255.17126 
L 139.101692 254.167409 
L 141.666583 253.163526 
L 144.23151 252.159692 
L 146.796437 251.155859 
L 149.361364 250.152025 
L 151.926291 249.148159 
L 154.491218 248.144308 
L 157.056146 247.140442 
L 159.621036 246.136591 
L 162.186 245.132758 
L 164.75089 244.128908 
L 167.315817 243.125041 
L 169.880745 242.121191 
L 172.445672 241.11734 
L 175.010599 240.113474 
L 177.575526 239.10964 
L 180.140416 238.105807 
L 182.705344 237.101973 
L 185.270271 236.09809 
L 187.835198 235.094239 
L 190.400125 234.090406 
L 192.965052 233.086506 
L 195.529979 232.082672 
L 198.09487 231.078789 
L 200.659797 230.074955 
L 203.224724 229.071138 
L 205.789651 228.067271 
L 208.354578 227.063421 
L 210.919505 226.059571 
L 213.484432 225.055721 
L 216.04936 224.051854 
L 218.61425 223.048037 
L 221.179177 222.044154 
L 223.744104 221.04032 
L 226.309031 220.03647 
L 228.873959 219.032587 
L 231.438886 218.028753 
L 234.003813 217.024903 
L 236.568703 216.021053 
L 239.13363 215.017169 
L 241.698558 214.013369 
L 244.263485 213.009502 
L 246.828412 212.005619 
L 249.393302 211.001802 
L 251.958229 209.997935 
L 254.523157 208.994085 
L 257.088084 207.990218 
L 259.653011 206.986384 
L 262.217938 205.982518 
L 264.782865 204.978701 
L 267.347756 203.97485 
L 269.912719 202.971 
L 272.477646 201.967133 
L 275.042537 200.96325 
L 277.607464 199.959416 
L 280.172355 198.955583 
L 282.737318 197.951749 
L 285.302209 196.947899 
L 287.867136 195.944016 
L 290.4321 194.940166 
L 292.99699 193.936332 
L 295.561917 192.932465 
L 298.126844 191.928632 
L 300.691772 190.924748 
L 303.256699 189.920898 
L 305.821626 188.917081 
L 308.386553 187.913198 
L 310.951443 186.909347 
L 313.516371 185.905514 
L 316.081298 184.90163 
L 318.646225 183.897814 
L 321.211152 182.893947 
L 323.776043 181.890097 
L 326.34097 180.886246 
L 328.905897 179.88238 
L 331.470824 178.878529 
" style="fill:none;stroke:#000000;"/>
   </g>
   <g id="patch_3">
    <path d="M 64.847188 301.21775 
L 64.847188 27.95775 
" style="fill:none;stroke:#f0f0f0;stroke-linecap:square;stroke-linejoin:miter;stroke-width:3;"/>
   </g>
   <g id="patch_4">
    <path d="M 344.167188 301.21775 
L 344.167188 27.95775 
" style="fill:none;stroke:#f0f0f0;stroke-linecap:square;stroke-linejoin:miter;stroke-width:3;"/>
   </g>
   <g id="patch_5">
    <path d="M 64.847188 301.21775 
L 344.167188 301.21775 
" style="fill:none;stroke:#f0f0f0;stroke-linecap:square;stroke-linejoin:miter;stroke-width:3;"/>
   </g>
   <g id="patch_6">
    <path d="M 64.847188 27.95775 
L 344.167188 27.95775 
" style="fill:none;stroke:#f0f0f0;stroke-linecap:square;stroke-linejoin:miter;stroke-width:3;"/>
   </g>
   <g id="text_14">
    <!-- m7_1 -->
    <g transform="translate(176.821837 21.95775)scale(0.2016 -0.2016)">
     <defs>
      <path d="M 8.203125 72.90625 
L 55.078125 72.90625 
L 55.078125 68.703125 
L 28.609375 0 
L 18.3125 0 
L 43.21875 64.59375 
L 8.203125 64.59375 
z
" id="DejaVuSans-55"/>
      <path d="M 50.984375 -16.609375 
L 50.984375 -23.578125 
L -0.984375 -23.578125 
L -0.984375 -16.609375 
z
" id="DejaVuSans-95"/>
     </defs>
     <use xlink:href="#DejaVuSans-109"/>
     <use x="97.412109" xlink:href="#DejaVuSans-55"/>
     <use x="161.035156" xlink:href="#DejaVuSans-95"/>
     <use x="211.035156" xlink:href="#DejaVuSans-49"/>
    </g>
   </g>
  </g>
  <g id="axes_2">
   <g id="patch_7">
    <path d="M 417.287187 301.21775 
L 696.607187 301.21775 
L 696.607187 27.95775 
L 417.287187 27.95775 
z
" style="fill:#f0f0f0;"/>
   </g>
   <g id="matplotlib.axis_3">
    <g id="xtick_7">
     <g id="line2d_31">
      <path clip-path="url(#p7722a896ef)" d="M 434.774632 301.21775 
L 434.774632 27.95775 
" style="fill:none;stroke:#cbcbcb;"/>
     </g>
     <g id="line2d_32"/>
     <g id="text_15">
      <!-- 35 -->
      <g transform="translate(425.867132 315.355563)scale(0.14 -0.14)">
       <use xlink:href="#DejaVuSans-51"/>
       <use x="63.623047" xlink:href="#DejaVuSans-53"/>
      </g>
     </g>
    </g>
    <g id="xtick_8">
     <g id="line2d_33">
      <path clip-path="url(#p7722a896ef)" d="M 482.685438 301.21775 
L 482.685438 27.95775 
" style="fill:none;stroke:#cbcbcb;"/>
     </g>
     <g id="line2d_34"/>
     <g id="text_16">
      <!-- 40 -->
      <g transform="translate(473.777938 315.355563)scale(0.14 -0.14)">
       <use xlink:href="#DejaVuSans-52"/>
       <use x="63.623047" xlink:href="#DejaVuSans-48"/>
      </g>
     </g>
    </g>
    <g id="xtick_9">
     <g id="line2d_35">
      <path clip-path="url(#p7722a896ef)" d="M 530.596244 301.21775 
L 530.596244 27.95775 
" style="fill:none;stroke:#cbcbcb;"/>
     </g>
     <g id="line2d_36"/>
     <g id="text_17">
      <!-- 45 -->
      <g transform="translate(521.688744 315.355563)scale(0.14 -0.14)">
       <use xlink:href="#DejaVuSans-52"/>
       <use x="63.623047" xlink:href="#DejaVuSans-53"/>
      </g>
     </g>
    </g>
    <g id="xtick_10">
     <g id="line2d_37">
      <path clip-path="url(#p7722a896ef)" d="M 578.50705 301.21775 
L 578.50705 27.95775 
" style="fill:none;stroke:#cbcbcb;"/>
     </g>
     <g id="line2d_38"/>
     <g id="text_18">
      <!-- 50 -->
      <g transform="translate(569.59955 315.355563)scale(0.14 -0.14)">
       <use xlink:href="#DejaVuSans-53"/>
       <use x="63.623047" xlink:href="#DejaVuSans-48"/>
      </g>
     </g>
    </g>
    <g id="xtick_11">
     <g id="line2d_39">
      <path clip-path="url(#p7722a896ef)" d="M 626.417856 301.21775 
L 626.417856 27.95775 
" style="fill:none;stroke:#cbcbcb;"/>
     </g>
     <g id="line2d_40"/>
     <g id="text_19">
      <!-- 55 -->
      <g transform="translate(617.510356 315.355563)scale(0.14 -0.14)">
       <use xlink:href="#DejaVuSans-53"/>
       <use x="63.623047" xlink:href="#DejaVuSans-53"/>
      </g>
     </g>
    </g>
    <g id="xtick_12">
     <g id="line2d_41">
      <path clip-path="url(#p7722a896ef)" d="M 674.328663 301.21775 
L 674.328663 27.95775 
" style="fill:none;stroke:#cbcbcb;"/>
     </g>
     <g id="line2d_42"/>
     <g id="text_20">
      <!-- 60 -->
      <g transform="translate(665.421163 315.355563)scale(0.14 -0.14)">
       <use xlink:href="#DejaVuSans-54"/>
       <use x="63.623047" xlink:href="#DejaVuSans-48"/>
      </g>
     </g>
    </g>
    <g id="text_21">
     <!-- body mass(kg) -->
     <g transform="translate(501.340547 333.664781)scale(0.15 -0.15)">
      <use xlink:href="#DejaVuSans-98"/>
      <use x="63.476562" xlink:href="#DejaVuSans-111"/>
      <use x="124.658203" xlink:href="#DejaVuSans-100"/>
      <use x="188.134766" xlink:href="#DejaVuSans-121"/>
      <use x="247.314453" xlink:href="#DejaVuSans-32"/>
      <use x="279.101562" xlink:href="#DejaVuSans-109"/>
      <use x="376.513672" xlink:href="#DejaVuSans-97"/>
      <use x="437.792969" xlink:href="#DejaVuSans-115"/>
      <use x="489.892578" xlink:href="#DejaVuSans-115"/>
      <use x="541.992188" xlink:href="#DejaVuSans-40"/>
      <use x="581.005859" xlink:href="#DejaVuSans-107"/>
      <use x="638.916016" xlink:href="#DejaVuSans-103"/>
      <use x="702.392578" xlink:href="#DejaVuSans-41"/>
     </g>
    </g>
   </g>
   <g id="matplotlib.axis_4">
    <g id="ytick_6">
     <g id="line2d_43">
      <path clip-path="url(#p7722a896ef)" d="M 417.287187 293.665786 
L 696.607187 293.665786 
" style="fill:none;stroke:#cbcbcb;"/>
     </g>
     <g id="line2d_44"/>
     <g id="text_22">
      <!-- 0 -->
      <g transform="translate(404.879687 298.984692)scale(0.14 -0.14)">
       <use xlink:href="#DejaVuSans-48"/>
      </g>
     </g>
    </g>
    <g id="ytick_7">
     <g id="line2d_45">
      <path clip-path="url(#p7722a896ef)" d="M 417.287187 243.566028 
L 696.607187 243.566028 
" style="fill:none;stroke:#cbcbcb;"/>
     </g>
     <g id="line2d_46"/>
     <g id="text_23">
      <!-- 500 -->
      <g transform="translate(387.064687 248.884935)scale(0.14 -0.14)">
       <use xlink:href="#DejaVuSans-53"/>
       <use x="63.623047" xlink:href="#DejaVuSans-48"/>
       <use x="127.246094" xlink:href="#DejaVuSans-48"/>
      </g>
     </g>
    </g>
    <g id="ytick_8">
     <g id="line2d_47">
      <path clip-path="url(#p7722a896ef)" d="M 417.287187 193.466271 
L 696.607187 193.466271 
" style="fill:none;stroke:#cbcbcb;"/>
     </g>
     <g id="line2d_48"/>
     <g id="text_24">
      <!-- 1000 -->
      <g transform="translate(378.157187 198.785177)scale(0.14 -0.14)">
       <use xlink:href="#DejaVuSans-49"/>
       <use x="63.623047" xlink:href="#DejaVuSans-48"/>
       <use x="127.246094" xlink:href="#DejaVuSans-48"/>
       <use x="190.869141" xlink:href="#DejaVuSans-48"/>
      </g>
     </g>
    </g>
    <g id="ytick_9">
     <g id="line2d_49">
      <path clip-path="url(#p7722a896ef)" d="M 417.287187 143.366514 
L 696.607187 143.366514 
" style="fill:none;stroke:#cbcbcb;"/>
     </g>
     <g id="line2d_50"/>
     <g id="text_25">
      <!-- 1500 -->
      <g transform="translate(378.157187 148.68542)scale(0.14 -0.14)">
       <use xlink:href="#DejaVuSans-49"/>
       <use x="63.623047" xlink:href="#DejaVuSans-53"/>
       <use x="127.246094" xlink:href="#DejaVuSans-48"/>
       <use x="190.869141" xlink:href="#DejaVuSans-48"/>
      </g>
     </g>
    </g>
    <g id="ytick_10">
     <g id="line2d_51">
      <path clip-path="url(#p7722a896ef)" d="M 417.287187 93.266757 
L 696.607187 93.266757 
" style="fill:none;stroke:#cbcbcb;"/>
     </g>
     <g id="line2d_52"/>
     <g id="text_26">
      <!-- 2000 -->
      <g transform="translate(378.157187 98.585663)scale(0.14 -0.14)">
       <use xlink:href="#DejaVuSans-50"/>
       <use x="63.623047" xlink:href="#DejaVuSans-48"/>
       <use x="127.246094" xlink:href="#DejaVuSans-48"/>
       <use x="190.869141" xlink:href="#DejaVuSans-48"/>
      </g>
     </g>
    </g>
    <g id="ytick_11">
     <g id="line2d_53">
      <path clip-path="url(#p7722a896ef)" d="M 417.287187 43.166999 
L 696.607187 43.166999 
" style="fill:none;stroke:#cbcbcb;"/>
     </g>
     <g id="line2d_54"/>
     <g id="text_27">
      <!-- 2500 -->
      <g transform="translate(378.157187 48.485905)scale(0.14 -0.14)">
       <use xlink:href="#DejaVuSans-50"/>
       <use x="63.623047" xlink:href="#DejaVuSans-53"/>
       <use x="127.246094" xlink:href="#DejaVuSans-48"/>
       <use x="190.869141" xlink:href="#DejaVuSans-48"/>
      </g>
     </g>
    </g>
    <g id="text_28">
     <!-- brain volume(cc) -->
     <g transform="translate(371.037656 228.133844)rotate(-90)scale(0.15 -0.15)">
      <use xlink:href="#DejaVuSans-98"/>
      <use x="63.476562" xlink:href="#DejaVuSans-114"/>
      <use x="104.589844" xlink:href="#DejaVuSans-97"/>
      <use x="165.869141" xlink:href="#DejaVuSans-105"/>
      <use x="193.652344" xlink:href="#DejaVuSans-110"/>
      <use x="257.03125" xlink:href="#DejaVuSans-32"/>
      <use x="288.818359" xlink:href="#DejaVuSans-118"/>
      <use x="347.998047" xlink:href="#DejaVuSans-111"/>
      <use x="409.179688" xlink:href="#DejaVuSans-108"/>
      <use x="436.962891" xlink:href="#DejaVuSans-117"/>
      <use x="500.341797" xlink:href="#DejaVuSans-109"/>
      <use x="597.753906" xlink:href="#DejaVuSans-101"/>
      <use x="659.277344" xlink:href="#DejaVuSans-40"/>
      <use x="698.291016" xlink:href="#DejaVuSans-99"/>
      <use x="753.271484" xlink:href="#DejaVuSans-99"/>
      <use x="808.251953" xlink:href="#DejaVuSans-41"/>
     </g>
    </g>
   </g>
   <g id="line2d_55">
    <path clip-path="url(#p7722a896ef)" d="M 453.938954 249.778398 
L 439.565712 248.375605 
L 429.983551 232.343683 
L 497.05868 241.461839 
L 631.208937 218.315751 
L 683.910824 206.392008 
L 612.044615 158.396441 
" style="fill:none;"/>
    <g clip-path="url(#p7722a896ef)">
     <use style="fill:#008fd5;stroke:#008fd5;" x="453.938954" xlink:href="#m2dd4d482b0" y="249.778398"/>
     <use style="fill:#008fd5;stroke:#008fd5;" x="439.565712" xlink:href="#m2dd4d482b0" y="248.375605"/>
     <use style="fill:#008fd5;stroke:#008fd5;" x="429.983551" xlink:href="#m2dd4d482b0" y="232.343683"/>
     <use style="fill:#008fd5;stroke:#008fd5;" x="497.05868" xlink:href="#m2dd4d482b0" y="241.461839"/>
     <use style="fill:#008fd5;stroke:#008fd5;" x="631.208937" xlink:href="#m2dd4d482b0" y="218.315751"/>
     <use style="fill:#008fd5;stroke:#008fd5;" x="683.910824" xlink:href="#m2dd4d482b0" y="206.392008"/>
     <use style="fill:#008fd5;stroke:#008fd5;" x="612.044615" xlink:href="#m2dd4d482b0" y="158.396441"/>
    </g>
   </g>
   <g id="line2d_56">
    <path clip-path="url(#p7722a896ef)" d="M 429.983551 222.933527 
L 432.548478 234.878032 
L 435.113405 245.434553 
L 437.678296 254.670323 
L 440.243223 262.651259 
L 442.80815 269.441978 
L 445.373077 275.105747 
L 447.938004 279.704495 
L 450.502932 283.298776 
L 453.067859 285.94789 
L 455.632749 287.70974 
L 458.197676 288.640966 
L 460.762603 288.796841 
L 463.327531 288.231286 
L 465.892458 286.996894 
L 468.457385 285.144973 
L 471.022312 282.725437 
L 473.587202 279.78691 
L 476.15213 276.376668 
L 478.717057 272.540676 
L 481.281984 268.32353 
L 483.846911 263.768508 
L 486.411838 258.917604 
L 488.976765 253.811383 
L 491.541656 248.489183 
L 494.106583 242.988952 
L 496.67151 237.347249 
L 499.236437 231.599476 
L 501.801364 225.779544 
L 504.366291 219.920062 
L 506.931218 214.052324 
L 509.496146 208.206363 
L 512.061036 202.410766 
L 514.626 196.692825 
L 517.19089 191.078558 
L 519.755817 185.592549 
L 522.320745 180.258135 
L 524.885672 175.097286 
L 527.450599 170.130658 
L 530.015489 165.377541 
L 532.580416 160.855965 
L 535.145344 156.582526 
L 537.710271 152.572577 
L 540.275198 148.840035 
L 542.840125 145.397621 
L 545.405052 142.256675 
L 547.969943 139.427164 
L 550.53487 136.917687 
L 553.099797 134.735632 
L 555.664724 132.887005 
L 558.229651 131.376429 
L 560.794578 130.207243 
L 563.359505 129.381428 
L 565.924432 128.899756 
L 568.48936 128.761432 
L 571.05425 128.964509 
L 573.619177 129.505699 
L 576.184104 130.380304 
L 578.749031 131.582307 
L 581.313959 133.104405 
L 583.878886 134.938 
L 586.443813 137.07305 
L 589.008703 139.498216 
L 591.57363 142.200887 
L 594.138558 145.167096 
L 596.703485 148.381492 
L 599.268412 151.827441 
L 601.833302 155.486937 
L 604.398229 159.340753 
L 606.963157 163.368169 
L 609.528084 167.547279 
L 612.093011 171.854708 
L 614.657938 176.26586 
L 617.222865 180.75473 
L 619.787792 185.294066 
L 622.352719 189.855248 
L 624.917646 194.408296 
L 627.482537 198.921861 
L 630.047464 203.363377 
L 632.612391 207.698865 
L 635.177318 211.893025 
L 637.742209 215.909262 
L 640.307136 219.709627 
L 642.872063 223.254809 
L 645.43699 226.504181 
L 648.001917 229.415783 
L 650.566844 231.946401 
L 653.131772 234.051374 
L 655.696699 235.684796 
L 658.261626 236.79932 
L 660.826553 237.346424 
L 663.391443 237.276099 
L 665.956371 236.537073 
L 668.521298 235.076774 
L 671.086225 232.841304 
L 673.651152 229.775336 
L 676.216079 225.822269 
L 678.78097 220.924216 
L 681.345897 215.021887 
L 683.910824 208.05467 
" style="fill:none;stroke:#000000;"/>
   </g>
   <g id="line2d_57">
    <path clip-path="url(#p7722a896ef)" d="M 429.983551 226.542251 
L 432.548478 233.270681 
L 435.113405 239.210799 
L 437.678332 244.400099 
L 440.243223 248.875248 
L 442.80815 252.672225 
L 445.373077 255.82629 
L 447.938004 258.371932 
L 450.502932 260.342968 
L 453.067859 261.772468 
L 455.632749 262.692779 
L 458.197676 263.135528 
L 460.762603 263.131598 
L 463.327531 262.711172 
L 465.892458 261.903692 
L 468.457385 260.737888 
L 471.022312 259.241742 
L 473.587239 257.44253 
L 476.152166 255.366812 
L 478.717057 253.040377 
L 481.281984 250.488357 
L 483.846911 247.735102 
L 486.411838 244.804264 
L 488.976765 241.718765 
L 491.541692 238.500797 
L 494.106583 235.17183 
L 496.67151 231.752613 
L 499.236437 228.263146 
L 501.801364 224.722759 
L 504.366291 221.149989 
L 506.931218 217.562707 
L 509.496146 213.978018 
L 512.061036 210.412331 
L 514.625963 206.88127 
L 517.19089 203.399851 
L 519.755817 199.982248 
L 522.320745 196.641949 
L 524.885672 193.39177 
L 527.450599 190.243705 
L 530.015489 187.209098 
L 532.580416 184.298529 
L 535.145344 181.521858 
L 537.710271 178.888269 
L 540.275198 176.406154 
L 542.840125 174.083206 
L 545.405052 171.926397 
L 547.969943 169.941952 
L 550.53487 168.135401 
L 553.099797 166.51155 
L 555.664724 165.074484 
L 558.229651 163.827494 
L 560.794578 162.773259 
L 563.359469 161.913601 
L 565.924432 161.249718 
L 568.489323 160.782112 
L 571.05425 160.510416 
L 573.619177 160.433652 
L 576.184104 160.550046 
L 578.749031 160.857237 
L 581.313959 161.351972 
L 583.878849 162.030361 
L 586.443776 162.887745 
L 589.008703 163.918826 
L 591.57363 165.117465 
L 594.138558 166.476874 
L 596.703485 167.989493 
L 599.268412 169.647127 
L 601.833302 171.440725 
L 604.398229 173.360612 
L 606.963157 175.396355 
L 609.528084 177.536787 
L 612.093011 179.77003 
L 614.657938 182.08345 
L 617.222829 184.463714 
L 619.787756 186.896806 
L 622.352683 189.367913 
L 624.91761 191.861544 
L 627.482537 194.361425 
L 630.047464 196.850622 
L 632.612355 199.311436 
L 635.177282 201.725484 
L 637.742209 204.073629 
L 640.307136 206.335964 
L 642.872063 208.491942 
L 645.43699 210.520254 
L 648.001917 212.398836 
L 650.566844 214.10498 
L 653.131772 215.615134 
L 655.696699 216.905148 
L 658.261626 217.950051 
L 660.826516 218.724181 
L 663.391443 219.201169 
L 665.956371 219.353877 
L 668.521298 219.154494 
L 671.086225 218.574463 
L 673.651115 217.584473 
L 676.216079 216.154538 
L 678.78097 214.253885 
L 681.345897 211.851084 
L 683.910824 208.913955 
" style="fill:none;stroke:#000000;"/>
   </g>
   <g id="line2d_58">
    <path clip-path="url(#p7722a896ef)" d="M 439.565712 238.899675 
L 442.033847 245.42511 
L 444.501982 251.050649 
L 446.970116 255.821978 
L 449.438251 259.783846 
L 451.906386 262.980085 
L 454.37452 265.453528 
L 456.842655 267.246175 
L 459.31079 268.399054 
L 461.778924 268.952304 
L 464.247022 268.945106 
L 466.715157 268.41576 
L 469.183292 267.40159 
L 471.651426 265.939056 
L 474.119561 264.06366 
L 476.587696 261.809988 
L 479.05583 259.211699 
L 481.523965 256.301528 
L 483.9921 253.11131 
L 486.460234 249.671939 
L 488.928369 246.013397 
L 491.396504 242.164727 
L 493.864602 238.154068 
L 496.332773 234.008582 
L 498.800908 229.75461 
L 501.269006 225.417514 
L 503.737177 221.021694 
L 506.205275 216.590697 
L 508.67341 212.147114 
L 511.141544 207.712607 
L 513.609679 203.307913 
L 516.077814 198.952904 
L 518.545948 194.666488 
L 521.014083 190.466548 
L 523.482218 186.370281 
L 525.950352 182.393723 
L 528.418487 178.552138 
L 530.886621 174.85985 
L 533.354756 171.330104 
L 535.822891 167.9755 
L 538.291025 164.807473 
L 540.75916 161.836653 
L 543.227295 159.072702 
L 545.695429 156.524427 
L 548.163528 154.199596 
L 550.631662 152.105179 
L 553.099797 150.247133 
L 555.567931 148.630584 
L 558.036066 147.259593 
L 560.504201 146.137388 
L 562.972335 145.266354 
L 565.44047 144.647776 
L 567.908605 144.282229 
L 570.376739 144.169125 
L 572.844874 144.307132 
L 575.313009 144.693901 
L 577.781107 145.326251 
L 580.249241 146.199988 
L 582.717376 147.310096 
L 585.185511 148.650485 
L 587.653645 150.214292 
L 590.12178 151.993628 
L 592.589915 153.979749 
L 595.058049 156.162965 
L 597.526184 158.532674 
L 599.994319 161.077328 
L 602.462453 163.784452 
L 604.930588 166.640689 
L 607.398723 169.631727 
L 609.866857 172.742365 
L 612.334992 175.956406 
L 614.803127 179.256838 
L 617.271261 182.625618 
L 619.739396 186.043838 
L 622.207494 189.491682 
L 624.675629 192.94837 
L 627.143763 196.392245 
L 629.611935 199.800686 
L 632.080033 203.150135 
L 634.548167 206.416184 
L 637.016302 209.573465 
L 639.484437 212.595657 
L 641.952571 215.455545 
L 644.420706 218.125027 
L 646.888841 220.574992 
L 649.356975 222.775443 
L 651.825073 224.695519 
L 654.293245 226.303384 
L 656.761343 227.566262 
L 659.229514 228.4505 
L 661.697649 228.921494 
L 664.165747 228.943731 
L 666.633881 228.480779 
L 669.102016 227.495222 
L 671.570151 225.948808 
L 674.038285 223.802347 
L 676.50642 221.015676 
L 678.974555 217.547773 
L 681.442689 213.356627 
L 683.910824 208.399344 
" style="fill:none;stroke:#000000;"/>
   </g>
   <g id="line2d_59">
    <path clip-path="url(#p7722a896ef)" d="M 429.983551 231.329163 
L 432.548478 238.236116 
L 435.113405 243.744744 
L 437.678332 247.935648 
L 440.24326 250.887727 
L 442.80815 252.678169 
L 445.373077 253.3823 
L 447.938004 253.07383 
L 450.502932 251.824602 
L 453.067859 249.704839 
L 455.632749 246.782862 
L 458.197676 243.125405 
L 460.762603 238.797353 
L 463.327531 233.861885 
L 465.892458 228.380408 
L 468.457385 222.412653 
L 471.022312 216.016519 
L 473.587239 209.248214 
L 476.152166 202.162132 
L 478.717093 194.810977 
L 481.281984 187.245755 
L 483.846911 179.515629 
L 486.411838 171.668094 
L 488.976765 163.74881 
L 491.541692 155.80176 
L 494.106583 147.869181 
L 496.67151 139.99152 
L 499.236437 132.207551 
L 501.801364 124.554226 
L 504.366291 117.066747 
L 506.931218 109.778651 
L 509.496146 102.721691 
L 512.061036 95.925823 
L 514.626 89.419301 
L 517.19089 83.228727 
L 519.755817 77.378749 
L 522.320745 71.892409 
L 524.885672 66.79109 
L 527.450599 62.094091 
L 530.015489 57.819368 
L 532.580416 53.98292 
L 535.145344 50.598985 
L 537.710271 47.680136 
L 540.275198 45.237112 
L 542.840125 43.279088 
L 545.405052 41.813181 
L 547.969979 40.84514 
L 550.53487 40.378659 
L 553.099797 40.415818 
L 555.664724 40.956983 
L 558.229651 42.000688 
L 560.794578 43.543701 
L 563.359469 45.581181 
L 565.924396 48.106498 
L 568.489323 51.111113 
L 571.05425 54.584974 
L 573.619177 58.516092 
L 576.184104 62.890941 
L 578.749031 67.694035 
L 581.313959 72.908226 
L 583.878886 78.514678 
L 586.443776 84.492694 
L 589.008703 90.819929 
L 591.57363 97.47236 
L 594.138558 104.423933 
L 596.703485 111.647117 
L 599.268412 119.112556 
L 601.833302 126.789096 
L 604.398229 134.643994 
L 606.963157 142.642514 
L 609.528084 150.748388 
L 612.093011 158.92354 
L 614.657938 167.128061 
L 617.222829 175.320386 
L 619.787792 183.457206 
L 622.352683 191.493459 
L 624.91761 199.382317 
L 627.482537 207.07518 
L 630.047464 214.521722 
L 632.612391 221.669939 
L 635.177318 228.466021 
L 637.742209 234.854358 
L 640.307136 240.7777 
L 642.872063 246.176995 
L 645.43699 250.991461 
L 648.001917 255.158526 
L 650.566844 258.613945 
L 653.131772 261.291667 
L 655.696699 263.123929 
L 658.261626 264.041286 
L 660.826553 263.972301 
L 663.391443 262.844118 
L 665.956371 260.581905 
L 668.521298 257.10916 
L 671.086188 252.34768 
L 673.651152 246.217447 
L 676.216043 238.636694 
L 678.78097 229.522024 
L 681.345897 218.788041 
L 683.910824 206.347878 
" style="fill:none;stroke:#000000;"/>
   </g>
   <g id="line2d_60">
    <path clip-path="url(#p7722a896ef)" d="M 429.983551 234.257895 
L 432.548478 237.299596 
L 435.113405 240.05211 
L 437.678332 242.524385 
L 440.24326 244.725325 
L 442.80815 246.663728 
L 445.373077 248.348292 
L 447.938004 249.787621 
L 450.502932 250.990263 
L 453.067859 251.964655 
L 455.632749 252.719135 
L 458.197676 253.262001 
L 460.762603 253.601388 
L 463.327531 253.745385 
L 465.892458 253.702022 
L 468.457385 253.479185 
L 471.022312 253.084707 
L 473.587239 252.526292 
L 476.152166 251.811612 
L 478.717057 250.948214 
L 481.281984 249.943574 
L 483.846911 248.805043 
L 486.411838 247.539935 
L 488.976765 246.15545 
L 491.541692 244.658689 
L 494.106583 243.056689 
L 496.67151 241.356361 
L 499.236437 239.564579 
L 501.801364 237.688095 
L 504.366291 235.733569 
L 506.931218 233.707599 
L 509.496146 231.616655 
L 512.061036 229.46716 
L 514.625963 227.265401 
L 517.19089 225.017676 
L 519.755817 222.730027 
L 522.320745 220.408571 
L 524.885672 218.059265 
L 527.450599 215.687954 
L 530.015526 213.30043 
L 532.580416 210.902405 
L 535.145344 208.499464 
L 537.710271 206.097159 
L 540.275198 203.700871 
L 542.840125 201.316014 
L 545.405052 198.947779 
L 547.969943 196.601353 
L 550.53487 194.281774 
L 553.099797 191.99412 
L 555.664724 189.743221 
L 558.229651 187.53389 
L 560.794578 185.370867 
L 563.359505 183.258813 
L 565.924396 181.202203 
L 568.489323 179.205515 
L 571.05425 177.273213 
L 573.619177 175.409443 
L 576.184104 173.618474 
L 578.749031 171.904331 
L 581.313959 170.271148 
L 583.878886 168.722752 
L 586.443813 167.263022 
L 589.008703 165.895724 
L 591.57363 164.624455 
L 594.138558 163.452847 
L 596.703485 162.384362 
L 599.268412 161.422351 
L 601.833302 160.570215 
L 604.398229 159.831097 
L 606.963157 159.208152 
L 609.528084 158.704403 
L 612.093011 158.322833 
L 614.657938 158.066279 
L 617.222829 157.937483 
L 619.787756 157.939207 
L 622.352683 158.074034 
L 624.91761 158.344421 
L 627.482537 158.752815 
L 630.047501 159.3016 
L 632.612355 159.992906 
L 635.177282 160.82897 
L 637.742209 161.811872 
L 640.307136 162.943532 
L 642.872063 164.225883 
L 645.43699 165.660722 
L 648.001917 167.249738 
L 650.566844 168.994558 
L 653.131735 170.896746 
L 655.696699 172.957735 
L 658.261626 175.178869 
L 660.826516 177.561445 
L 663.391443 180.106552 
L 665.956371 182.815461 
L 668.521298 185.688993 
L 671.086188 188.728187 
L 673.651115 191.933807 
L 676.216043 195.306636 
L 678.78097 198.847225 
L 681.345897 202.556295 
L 683.910824 206.434213 
" style="fill:none;stroke:#000000;"/>
   </g>
   <g id="line2d_61">
    <path clip-path="url(#p7722a896ef)" d="M 429.983551 234.495777 
L 432.01612 236.626662 
L 434.048725 238.657702 
L 436.081293 240.585246 
L 438.113862 242.40579 
L 440.146467 244.116065 
L 442.179036 245.713025 
L 444.211604 247.193873 
L 446.244173 248.556012 
L 448.276778 249.797079 
L 450.309347 250.914917 
L 452.341952 251.907617 
L 454.37452 252.773458 
L 456.407089 253.510974 
L 458.439657 254.118901 
L 460.472226 254.596222 
L 462.504831 254.94212 
L 464.5374 255.155998 
L 466.570005 255.237498 
L 468.602573 255.186475 
L 470.635142 255.003007 
L 472.667747 254.687413 
L 474.700316 254.240197 
L 476.732884 253.662123 
L 478.765453 252.954155 
L 480.798021 252.117492 
L 482.830627 251.153533 
L 484.863195 250.063946 
L 486.8958 248.850562 
L 488.928369 247.515485 
L 490.960937 246.061014 
L 492.993506 244.489688 
L 495.026111 242.804261 
L 497.05868 241.007687 
L 499.091248 239.103187 
L 501.123853 237.094157 
L 503.156422 234.984256 
L 505.188991 232.777359 
L 507.221596 230.47754 
L 509.254164 228.089117 
L 511.286733 225.616604 
L 513.319302 223.064782 
L 515.351907 220.43863 
L 517.384475 217.743316 
L 519.417044 214.984331 
L 521.449649 212.167247 
L 523.482218 209.29796 
L 525.514786 206.382615 
L 527.547391 203.427445 
L 529.57996 200.439036 
L 531.612528 197.42414 
L 533.645097 194.389735 
L 535.677702 191.343019 
L 537.710271 188.291416 
L 539.742839 185.242609 
L 541.775444 182.204467 
L 543.808013 179.185076 
L 545.840582 176.192704 
L 547.873187 173.235987 
L 549.905755 170.323632 
L 551.938324 167.464644 
L 553.970929 164.668194 
L 556.003498 161.9438 
L 558.036066 159.301062 
L 560.068671 156.749803 
L 562.10124 154.300174 
L 564.133808 151.962585 
L 566.166377 149.747444 
L 568.198946 147.665589 
L 570.231551 145.728003 
L 572.264119 143.94589 
L 574.296724 142.330662 
L 576.329293 140.894037 
L 578.361862 139.647867 
L 580.39443 138.604273 
L 582.427035 137.775511 
L 584.459604 137.174277 
L 586.492172 136.81317 
L 588.524778 136.705325 
L 590.557346 136.863869 
L 592.589915 137.30229 
L 594.622483 138.034204 
L 596.655088 139.073579 
L 598.687657 140.43443 
L 600.720226 142.131132 
L 602.752831 144.178286 
L 604.785399 146.590597 
L 606.817968 149.383071 
L 608.850573 152.570987 
L 610.883142 156.169717 
L 612.915747 160.194993 
L 614.948315 164.662629 
L 616.980884 169.588795 
L 619.013452 174.989845 
L 621.046021 180.882254 
L 623.078626 187.282926 
L 625.111195 194.208741 
L 627.143763 201.676956 
L 629.176368 209.705063 
L 631.208937 218.310699 
" style="fill:none;stroke:#000000;"/>
   </g>
   <g id="line2d_62">
    <path clip-path="url(#p7722a896ef)" d="M 429.983551 234.160386 
L 432.548478 237.381106 
L 435.113405 240.249421 
L 437.678332 242.781761 
L 440.243223 244.994367 
L 442.808187 246.903047 
L 445.373077 248.523336 
L 447.938004 249.870409 
L 450.502932 250.959149 
L 453.067859 251.804099 
L 455.632749 252.419457 
L 458.197676 252.819139 
L 460.762603 253.016704 
L 463.327531 253.025394 
L 465.892458 252.858124 
L 468.457385 252.527485 
L 471.022312 252.045758 
L 473.587239 251.424862 
L 476.152166 250.676427 
L 478.717093 249.811744 
L 481.281984 248.841783 
L 483.846911 247.777172 
L 486.411838 246.628238 
L 488.976765 245.404965 
L 491.541692 244.117022 
L 494.106583 242.773756 
L 496.67151 241.384163 
L 499.236437 239.956938 
L 501.801364 238.500467 
L 504.366291 237.022781 
L 506.931218 235.53158 
L 509.496146 234.034262 
L 512.061036 232.537893 
L 514.626 231.049217 
L 517.19089 229.574619 
L 519.755817 228.120228 
L 522.320745 226.691786 
L 524.885672 225.294747 
L 527.450599 223.934207 
L 530.015526 222.614942 
L 532.580416 221.341447 
L 535.145344 220.117838 
L 537.710271 218.947936 
L 540.275198 217.83521 
L 542.840125 216.782877 
L 545.405052 215.793712 
L 547.969979 214.870237 
L 550.53487 214.014676 
L 553.099797 213.228858 
L 555.664724 212.514343 
L 558.229651 211.872312 
L 560.794578 211.303656 
L 563.359505 210.80897 
L 565.924432 210.388449 
L 568.48936 210.042031 
L 571.05425 209.769278 
L 573.619177 209.569466 
L 576.184104 209.441538 
L 578.749031 209.384099 
L 581.313959 209.395407 
L 583.878886 209.473431 
L 586.443813 209.615853 
L 589.008703 209.819928 
L 591.57363 210.082652 
L 594.138558 210.400705 
L 596.703485 210.770417 
L 599.268412 211.187752 
L 601.833302 211.648441 
L 604.398229 212.147824 
L 606.963157 212.680941 
L 609.528084 213.242496 
L 612.093011 213.826881 
L 614.657938 214.428145 
L 617.222865 215.040008 
L 619.787756 215.655895 
L 622.352719 216.268889 
L 624.917646 216.871732 
L 627.482537 217.456875 
L 630.047464 218.016394 
L 632.612355 218.542105 
L 635.177318 219.025452 
L 637.742209 219.457557 
L 640.307136 219.829238 
L 642.8721 220.13098 
L 645.43699 220.352906 
L 648.001917 220.484889 
L 650.566844 220.516409 
L 653.131772 220.436661 
L 655.696699 220.234464 
L 658.261626 219.898406 
L 660.826553 219.416643 
L 663.391443 218.777076 
L 665.956371 217.967242 
L 668.521298 216.974414 
L 671.086225 215.785438 
L 673.651152 214.386913 
L 676.216043 212.765117 
L 678.78097 210.905983 
L 681.345897 208.795054 
L 683.910824 206.417664 
" style="fill:none;stroke:#000000;"/>
   </g>
   <g id="patch_8">
    <path d="M 417.287187 301.21775 
L 417.287187 27.95775 
" style="fill:none;stroke:#f0f0f0;stroke-linecap:square;stroke-linejoin:miter;stroke-width:3;"/>
   </g>
   <g id="patch_9">
    <path d="M 696.607187 301.21775 
L 696.607187 27.95775 
" style="fill:none;stroke:#f0f0f0;stroke-linecap:square;stroke-linejoin:miter;stroke-width:3;"/>
   </g>
   <g id="patch_10">
    <path d="M 417.287187 301.21775 
L 696.607187 301.21775 
" style="fill:none;stroke:#f0f0f0;stroke-linecap:square;stroke-linejoin:miter;stroke-width:3;"/>
   </g>
   <g id="patch_11">
    <path d="M 417.287187 27.95775 
L 696.607187 27.95775 
" style="fill:none;stroke:#f0f0f0;stroke-linecap:square;stroke-linejoin:miter;stroke-width:3;"/>
   </g>
   <g id="text_29">
    <!-- m7_4 -->
    <g transform="translate(529.261837 21.95775)scale(0.2016 -0.2016)">
     <use xlink:href="#DejaVuSans-109"/>
     <use x="97.412109" xlink:href="#DejaVuSans-55"/>
     <use x="161.035156" xlink:href="#DejaVuSans-95"/>
     <use x="211.035156" xlink:href="#DejaVuSans-52"/>
    </g>
   </g>
  </g>
 </g>
 <defs>
  <clipPath id="pacbcae7513">
   <rect height="273.26" width="279.32" x="64.847188" y="27.95775"/>
  </clipPath>
  <clipPath id="p7722a896ef">
   <rect height="273.26" width="279.32" x="417.287187" y="27.95775"/>
  </clipPath>
 </defs>
</svg>
