<?xml version="1.0" encoding="utf-8" standalone="no"?>
<!DOCTYPE svg PUBLIC "-//W3C//DTD SVG 1.1//EN"
  "http://www.w3.org/Graphics/SVG/1.1/DTD/svg11.dtd">
<!-- Created with matplotlib (https://matplotlib.org/) -->
<svg height="286.708pt" version="1.1" viewBox="0 0 621.185875 286.708" width="621.185875pt" xmlns="http://www.w3.org/2000/svg" xmlns:xlink="http://www.w3.org/1999/xlink">
 <metadata>
  <rdf:RDF xmlns:cc="http://creativecommons.org/ns#" xmlns:dc="http://purl.org/dc/elements/1.1/" xmlns:rdf="http://www.w3.org/1999/02/22-rdf-syntax-ns#">
   <cc:Work>
    <dc:type rdf:resource="http://purl.org/dc/dcmitype/StillImage"/>
    <dc:date>2021-02-06T23:25:53.918850</dc:date>
    <dc:format>image/svg+xml</dc:format>
    <dc:creator>
     <cc:Agent>
      <dc:title>Matplotlib v3.3.3, https://matplotlib.org/</dc:title>
     </cc:Agent>
    </dc:creator>
   </cc:Work>
  </rdf:RDF>
 </metadata>
 <defs>
  <style type="text/css">*{stroke-linecap:butt;stroke-linejoin:round;}</style>
 </defs>
 <g id="figure_1">
  <g id="patch_1">
   <path d="M 0 286.708 
L 621.185875 286.708 
L 621.185875 0 
L 0 0 
z
" style="fill:#f0f0f0;"/>
  </g>
  <g id="axes_1">
   <g id="patch_2">
    <path d="M 50.225875 240.48 
L 306.48042 240.48 
L 306.48042 7.2 
L 50.225875 7.2 
z
" style="fill:#f0f0f0;"/>
   </g>
   <g id="matplotlib.axis_1">
    <g id="xtick_1">
     <g id="line2d_1">
      <path clip-path="url(#p60b2e4d3be)" d="M 72.573655 240.48 
L 72.573655 7.2 
" style="fill:none;stroke:#cbcbcb;"/>
     </g>
     <g id="line2d_2"/>
     <g id="text_1">
      <!-- 15 -->
      <g transform="translate(63.666155 254.617813)scale(0.14 -0.14)">
       <defs>
        <path d="M 12.40625 8.296875 
L 28.515625 8.296875 
L 28.515625 63.921875 
L 10.984375 60.40625 
L 10.984375 69.390625 
L 28.421875 72.90625 
L 38.28125 72.90625 
L 38.28125 8.296875 
L 54.390625 8.296875 
L 54.390625 0 
L 12.40625 0 
z
" id="DejaVuSans-49"/>
        <path d="M 10.796875 72.90625 
L 49.515625 72.90625 
L 49.515625 64.59375 
L 19.828125 64.59375 
L 19.828125 46.734375 
Q 21.96875 47.46875 24.109375 47.828125 
Q 26.265625 48.1875 28.421875 48.1875 
Q 40.625 48.1875 47.75 41.5 
Q 54.890625 34.8125 54.890625 23.390625 
Q 54.890625 11.625 47.5625 5.09375 
Q 40.234375 -1.421875 26.90625 -1.421875 
Q 22.3125 -1.421875 17.546875 -0.640625 
Q 12.796875 0.140625 7.71875 1.703125 
L 7.71875 11.625 
Q 12.109375 9.234375 16.796875 8.0625 
Q 21.484375 6.890625 26.703125 6.890625 
Q 35.15625 6.890625 40.078125 11.328125 
Q 45.015625 15.765625 45.015625 23.390625 
Q 45.015625 31 40.078125 35.4375 
Q 35.15625 39.890625 26.703125 39.890625 
Q 22.75 39.890625 18.8125 39.015625 
Q 14.890625 38.140625 10.796875 36.28125 
z
" id="DejaVuSans-53"/>
       </defs>
       <use xlink:href="#DejaVuSans-49"/>
       <use x="63.623047" xlink:href="#DejaVuSans-53"/>
      </g>
     </g>
    </g>
    <g id="xtick_2">
     <g id="line2d_3">
      <path clip-path="url(#p60b2e4d3be)" d="M 147.066256 240.48 
L 147.066256 7.2 
" style="fill:none;stroke:#cbcbcb;"/>
     </g>
     <g id="line2d_4"/>
     <g id="text_2">
      <!-- 20 -->
      <g transform="translate(138.158756 254.617813)scale(0.14 -0.14)">
       <defs>
        <path d="M 19.1875 8.296875 
L 53.609375 8.296875 
L 53.609375 0 
L 7.328125 0 
L 7.328125 8.296875 
Q 12.9375 14.109375 22.625 23.890625 
Q 32.328125 33.6875 34.8125 36.53125 
Q 39.546875 41.84375 41.421875 45.53125 
Q 43.3125 49.21875 43.3125 52.78125 
Q 43.3125 58.59375 39.234375 62.25 
Q 35.15625 65.921875 28.609375 65.921875 
Q 23.96875 65.921875 18.8125 64.3125 
Q 13.671875 62.703125 7.8125 59.421875 
L 7.8125 69.390625 
Q 13.765625 71.78125 18.9375 73 
Q 24.125 74.21875 28.421875 74.21875 
Q 39.75 74.21875 46.484375 68.546875 
Q 53.21875 62.890625 53.21875 53.421875 
Q 53.21875 48.921875 51.53125 44.890625 
Q 49.859375 40.875 45.40625 35.40625 
Q 44.1875 33.984375 37.640625 27.21875 
Q 31.109375 20.453125 19.1875 8.296875 
z
" id="DejaVuSans-50"/>
        <path d="M 31.78125 66.40625 
Q 24.171875 66.40625 20.328125 58.90625 
Q 16.5 51.421875 16.5 36.375 
Q 16.5 21.390625 20.328125 13.890625 
Q 24.171875 6.390625 31.78125 6.390625 
Q 39.453125 6.390625 43.28125 13.890625 
Q 47.125 21.390625 47.125 36.375 
Q 47.125 51.421875 43.28125 58.90625 
Q 39.453125 66.40625 31.78125 66.40625 
z
M 31.78125 74.21875 
Q 44.046875 74.21875 50.515625 64.515625 
Q 56.984375 54.828125 56.984375 36.375 
Q 56.984375 17.96875 50.515625 8.265625 
Q 44.046875 -1.421875 31.78125 -1.421875 
Q 19.53125 -1.421875 13.0625 8.265625 
Q 6.59375 17.96875 6.59375 36.375 
Q 6.59375 54.828125 13.0625 64.515625 
Q 19.53125 74.21875 31.78125 74.21875 
z
" id="DejaVuSans-48"/>
       </defs>
       <use xlink:href="#DejaVuSans-50"/>
       <use x="63.623047" xlink:href="#DejaVuSans-48"/>
      </g>
     </g>
    </g>
    <g id="xtick_3">
     <g id="line2d_5">
      <path clip-path="url(#p60b2e4d3be)" d="M 221.558856 240.48 
L 221.558856 7.2 
" style="fill:none;stroke:#cbcbcb;"/>
     </g>
     <g id="line2d_6"/>
     <g id="text_3">
      <!-- 25 -->
      <g transform="translate(212.651356 254.617813)scale(0.14 -0.14)">
       <use xlink:href="#DejaVuSans-50"/>
       <use x="63.623047" xlink:href="#DejaVuSans-53"/>
      </g>
     </g>
    </g>
    <g id="xtick_4">
     <g id="line2d_7">
      <path clip-path="url(#p60b2e4d3be)" d="M 296.051456 240.48 
L 296.051456 7.2 
" style="fill:none;stroke:#cbcbcb;"/>
     </g>
     <g id="line2d_8"/>
     <g id="text_4">
      <!-- 30 -->
      <g transform="translate(287.143956 254.617813)scale(0.14 -0.14)">
       <defs>
        <path d="M 40.578125 39.3125 
Q 47.65625 37.796875 51.625 33 
Q 55.609375 28.21875 55.609375 21.1875 
Q 55.609375 10.40625 48.1875 4.484375 
Q 40.765625 -1.421875 27.09375 -1.421875 
Q 22.515625 -1.421875 17.65625 -0.515625 
Q 12.796875 0.390625 7.625 2.203125 
L 7.625 11.71875 
Q 11.71875 9.328125 16.59375 8.109375 
Q 21.484375 6.890625 26.8125 6.890625 
Q 36.078125 6.890625 40.9375 10.546875 
Q 45.796875 14.203125 45.796875 21.1875 
Q 45.796875 27.640625 41.28125 31.265625 
Q 36.765625 34.90625 28.71875 34.90625 
L 20.21875 34.90625 
L 20.21875 43.015625 
L 29.109375 43.015625 
Q 36.375 43.015625 40.234375 45.921875 
Q 44.09375 48.828125 44.09375 54.296875 
Q 44.09375 59.90625 40.109375 62.90625 
Q 36.140625 65.921875 28.71875 65.921875 
Q 24.65625 65.921875 20.015625 65.03125 
Q 15.375 64.15625 9.8125 62.3125 
L 9.8125 71.09375 
Q 15.4375 72.65625 20.34375 73.4375 
Q 25.25 74.21875 29.59375 74.21875 
Q 40.828125 74.21875 47.359375 69.109375 
Q 53.90625 64.015625 53.90625 55.328125 
Q 53.90625 49.265625 50.4375 45.09375 
Q 46.96875 40.921875 40.578125 39.3125 
z
" id="DejaVuSans-51"/>
       </defs>
       <use xlink:href="#DejaVuSans-51"/>
       <use x="63.623047" xlink:href="#DejaVuSans-48"/>
      </g>
     </g>
    </g>
    <g id="text_5">
     <!-- Tỉ suất kết hôn -->
     <g transform="translate(115.62746 274.29475)scale(0.168 -0.168)">
      <defs>
       <path d="M -0.296875 72.90625 
L 61.375 72.90625 
L 61.375 64.59375 
L 35.5 64.59375 
L 35.5 0 
L 25.59375 0 
L 25.59375 64.59375 
L -0.296875 64.59375 
z
" id="DejaVuSans-84"/>
       <path d="M 9.421875 54.6875 
L 18.40625 54.6875 
L 18.40625 0 
L 9.421875 0 
z
M 13.921875 56 
z
M 3.328125 78.5625 
Q 8.796875 81.046875 13.921875 81.046875 
Q 19 81.046875 22.09375 78.96875 
Q 25.203125 76.90625 25.203125 73.625 
Q 25.203125 70.65625 20.90625 67.484375 
L 18.75 65.921875 
Q 17.046875 64.640625 16.84375 64.203125 
Q 16.5 63.421875 16.5 61.859375 
L 10.6875 61.859375 
L 10.6875 62.453125 
Q 10.6875 64.40625 11.421875 65.71875 
Q 12.15625 67.046875 14.65625 68.84375 
L 16.84375 70.5 
Q 19.09375 72.171875 19.09375 74.125 
Q 19.09375 75.140625 17.578125 76.015625 
Q 16.0625 76.90625 12.59375 76.90625 
Q 8.203125 76.90625 3.328125 74.359375 
z
" id="DejaVuSans-7881"/>
       <path id="DejaVuSans-32"/>
       <path d="M 44.28125 53.078125 
L 44.28125 44.578125 
Q 40.484375 46.53125 36.375 47.5 
Q 32.28125 48.484375 27.875 48.484375 
Q 21.1875 48.484375 17.84375 46.4375 
Q 14.5 44.390625 14.5 40.28125 
Q 14.5 37.15625 16.890625 35.375 
Q 19.28125 33.59375 26.515625 31.984375 
L 29.59375 31.296875 
Q 39.15625 29.25 43.1875 25.515625 
Q 47.21875 21.78125 47.21875 15.09375 
Q 47.21875 7.46875 41.1875 3.015625 
Q 35.15625 -1.421875 24.609375 -1.421875 
Q 20.21875 -1.421875 15.453125 -0.5625 
Q 10.6875 0.296875 5.421875 2 
L 5.421875 11.28125 
Q 10.40625 8.6875 15.234375 7.390625 
Q 20.0625 6.109375 24.8125 6.109375 
Q 31.15625 6.109375 34.5625 8.28125 
Q 37.984375 10.453125 37.984375 14.40625 
Q 37.984375 18.0625 35.515625 20.015625 
Q 33.0625 21.96875 24.703125 23.78125 
L 21.578125 24.515625 
Q 13.234375 26.265625 9.515625 29.90625 
Q 5.8125 33.546875 5.8125 39.890625 
Q 5.8125 47.609375 11.28125 51.796875 
Q 16.75 56 26.8125 56 
Q 31.78125 56 36.171875 55.265625 
Q 40.578125 54.546875 44.28125 53.078125 
z
" id="DejaVuSans-115"/>
       <path d="M 8.5 21.578125 
L 8.5 54.6875 
L 17.484375 54.6875 
L 17.484375 21.921875 
Q 17.484375 14.15625 20.5 10.265625 
Q 23.53125 6.390625 29.59375 6.390625 
Q 36.859375 6.390625 41.078125 11.03125 
Q 45.3125 15.671875 45.3125 23.6875 
L 45.3125 54.6875 
L 54.296875 54.6875 
L 54.296875 0 
L 45.3125 0 
L 45.3125 8.40625 
Q 42.046875 3.421875 37.71875 1 
Q 33.40625 -1.421875 27.6875 -1.421875 
Q 18.265625 -1.421875 13.375 4.4375 
Q 8.5 10.296875 8.5 21.578125 
z
M 31.109375 56 
z
" id="DejaVuSans-117"/>
       <path d="M 24.46875 74.609375 
L 33.640625 74.609375 
L 43.953125 61.625 
L 37.15625 61.625 
L 29.046875 70.3125 
L 20.953125 61.625 
L 14.15625 61.625 
z
M 49.515625 84.625 
L 58.546875 84.625 
L 47.40625 71.734375 
L 39.9375 71.734375 
z
M 34.28125 27.484375 
Q 23.390625 27.484375 19.1875 25 
Q 14.984375 22.515625 14.984375 16.5 
Q 14.984375 11.71875 18.140625 8.90625 
Q 21.296875 6.109375 26.703125 6.109375 
Q 34.1875 6.109375 38.703125 11.40625 
Q 43.21875 16.703125 43.21875 25.484375 
L 43.21875 27.484375 
z
M 52.203125 31.203125 
L 52.203125 0 
L 43.21875 0 
L 43.21875 8.296875 
Q 40.140625 3.328125 35.546875 0.953125 
Q 30.953125 -1.421875 24.3125 -1.421875 
Q 15.921875 -1.421875 10.953125 3.296875 
Q 6 8.015625 6 15.921875 
Q 6 25.140625 12.171875 29.828125 
Q 18.359375 34.515625 30.609375 34.515625 
L 43.21875 34.515625 
L 43.21875 35.40625 
Q 43.21875 41.609375 39.140625 45 
Q 35.0625 48.390625 27.6875 48.390625 
Q 23 48.390625 18.546875 47.265625 
Q 14.109375 46.140625 10.015625 43.890625 
L 10.015625 52.203125 
Q 14.9375 54.109375 19.578125 55.046875 
Q 24.21875 56 28.609375 56 
Q 40.484375 56 46.34375 49.84375 
Q 52.203125 43.703125 52.203125 31.203125 
z
" id="DejaVuSans-7845"/>
       <path d="M 18.3125 70.21875 
L 18.3125 54.6875 
L 36.8125 54.6875 
L 36.8125 47.703125 
L 18.3125 47.703125 
L 18.3125 18.015625 
Q 18.3125 11.328125 20.140625 9.421875 
Q 21.96875 7.515625 27.59375 7.515625 
L 36.8125 7.515625 
L 36.8125 0 
L 27.59375 0 
Q 17.1875 0 13.234375 3.875 
Q 9.28125 7.765625 9.28125 18.015625 
L 9.28125 47.703125 
L 2.6875 47.703125 
L 2.6875 54.6875 
L 9.28125 54.6875 
L 9.28125 70.21875 
z
" id="DejaVuSans-116"/>
       <path d="M 9.078125 75.984375 
L 18.109375 75.984375 
L 18.109375 31.109375 
L 44.921875 54.6875 
L 56.390625 54.6875 
L 27.390625 29.109375 
L 57.625 0 
L 45.90625 0 
L 18.109375 26.703125 
L 18.109375 0 
L 9.078125 0 
z
" id="DejaVuSans-107"/>
       <path d="M 27.25 74.609375 
L 36.421875 74.609375 
L 46.734375 61.625 
L 39.9375 61.625 
L 31.84375 70.3125 
L 23.734375 61.625 
L 16.9375 61.625 
z
M 52.296875 84.625 
L 61.328125 84.625 
L 50.203125 71.734375 
L 42.71875 71.734375 
z
M 56.203125 29.59375 
L 56.203125 25.203125 
L 14.890625 25.203125 
Q 15.484375 15.921875 20.484375 11.0625 
Q 25.484375 6.203125 34.421875 6.203125 
Q 39.59375 6.203125 44.453125 7.46875 
Q 49.3125 8.734375 54.109375 11.28125 
L 54.109375 2.78125 
Q 49.265625 0.734375 44.1875 -0.34375 
Q 39.109375 -1.421875 33.890625 -1.421875 
Q 20.796875 -1.421875 13.15625 6.1875 
Q 5.515625 13.8125 5.515625 26.8125 
Q 5.515625 40.234375 12.765625 48.109375 
Q 20.015625 56 32.328125 56 
Q 43.359375 56 49.78125 48.890625 
Q 56.203125 41.796875 56.203125 29.59375 
z
M 47.21875 32.234375 
Q 47.125 39.59375 43.09375 43.984375 
Q 39.0625 48.390625 32.421875 48.390625 
Q 24.90625 48.390625 20.390625 44.140625 
Q 15.875 39.890625 15.1875 32.171875 
z
" id="DejaVuSans-7871"/>
       <path d="M 54.890625 33.015625 
L 54.890625 0 
L 45.90625 0 
L 45.90625 32.71875 
Q 45.90625 40.484375 42.875 44.328125 
Q 39.84375 48.1875 33.796875 48.1875 
Q 26.515625 48.1875 22.3125 43.546875 
Q 18.109375 38.921875 18.109375 30.90625 
L 18.109375 0 
L 9.078125 0 
L 9.078125 75.984375 
L 18.109375 75.984375 
L 18.109375 46.1875 
Q 21.34375 51.125 25.703125 53.5625 
Q 30.078125 56 35.796875 56 
Q 45.21875 56 50.046875 50.171875 
Q 54.890625 44.34375 54.890625 33.015625 
z
" id="DejaVuSans-104"/>
       <path d="M 30.609375 48.390625 
Q 23.390625 48.390625 19.1875 42.75 
Q 14.984375 37.109375 14.984375 27.296875 
Q 14.984375 17.484375 19.15625 11.84375 
Q 23.34375 6.203125 30.609375 6.203125 
Q 37.796875 6.203125 41.984375 11.859375 
Q 46.1875 17.53125 46.1875 27.296875 
Q 46.1875 37.015625 41.984375 42.703125 
Q 37.796875 48.390625 30.609375 48.390625 
z
M 30.609375 56 
Q 42.328125 56 49.015625 48.375 
Q 55.71875 40.765625 55.71875 27.296875 
Q 55.71875 13.875 49.015625 6.21875 
Q 42.328125 -1.421875 30.609375 -1.421875 
Q 18.84375 -1.421875 12.171875 6.21875 
Q 5.515625 13.875 5.515625 27.296875 
Q 5.515625 40.765625 12.171875 48.375 
Q 18.84375 56 30.609375 56 
z
M 27 79.984375 
L 34.234375 79.984375 
L 46.1875 61.625 
L 39.40625 61.625 
L 30.609375 73.578125 
L 21.828125 61.625 
L 15.046875 61.625 
z
" id="DejaVuSans-244"/>
       <path d="M 54.890625 33.015625 
L 54.890625 0 
L 45.90625 0 
L 45.90625 32.71875 
Q 45.90625 40.484375 42.875 44.328125 
Q 39.84375 48.1875 33.796875 48.1875 
Q 26.515625 48.1875 22.3125 43.546875 
Q 18.109375 38.921875 18.109375 30.90625 
L 18.109375 0 
L 9.078125 0 
L 9.078125 54.6875 
L 18.109375 54.6875 
L 18.109375 46.1875 
Q 21.34375 51.125 25.703125 53.5625 
Q 30.078125 56 35.796875 56 
Q 45.21875 56 50.046875 50.171875 
Q 54.890625 44.34375 54.890625 33.015625 
z
" id="DejaVuSans-110"/>
      </defs>
      <use xlink:href="#DejaVuSans-84"/>
      <use x="61.083984" xlink:href="#DejaVuSans-7881"/>
      <use x="88.867188" xlink:href="#DejaVuSans-32"/>
      <use x="120.654297" xlink:href="#DejaVuSans-115"/>
      <use x="172.753906" xlink:href="#DejaVuSans-117"/>
      <use x="236.132812" xlink:href="#DejaVuSans-7845"/>
      <use x="297.412109" xlink:href="#DejaVuSans-116"/>
      <use x="336.621094" xlink:href="#DejaVuSans-32"/>
      <use x="368.408203" xlink:href="#DejaVuSans-107"/>
      <use x="426.318359" xlink:href="#DejaVuSans-7871"/>
      <use x="487.841797" xlink:href="#DejaVuSans-116"/>
      <use x="527.050781" xlink:href="#DejaVuSans-32"/>
      <use x="558.837891" xlink:href="#DejaVuSans-104"/>
      <use x="622.216797" xlink:href="#DejaVuSans-244"/>
      <use x="683.398438" xlink:href="#DejaVuSans-110"/>
     </g>
    </g>
   </g>
   <g id="matplotlib.axis_2">
    <g id="ytick_1">
     <g id="line2d_9">
      <path clip-path="url(#p60b2e4d3be)" d="M 50.225875 232.742211 
L 306.48042 232.742211 
" style="fill:none;stroke:#cbcbcb;"/>
     </g>
     <g id="line2d_10"/>
     <g id="text_6">
      <!-- 6 -->
      <g transform="translate(37.818375 238.061118)scale(0.14 -0.14)">
       <defs>
        <path d="M 33.015625 40.375 
Q 26.375 40.375 22.484375 35.828125 
Q 18.609375 31.296875 18.609375 23.390625 
Q 18.609375 15.53125 22.484375 10.953125 
Q 26.375 6.390625 33.015625 6.390625 
Q 39.65625 6.390625 43.53125 10.953125 
Q 47.40625 15.53125 47.40625 23.390625 
Q 47.40625 31.296875 43.53125 35.828125 
Q 39.65625 40.375 33.015625 40.375 
z
M 52.59375 71.296875 
L 52.59375 62.3125 
Q 48.875 64.0625 45.09375 64.984375 
Q 41.3125 65.921875 37.59375 65.921875 
Q 27.828125 65.921875 22.671875 59.328125 
Q 17.53125 52.734375 16.796875 39.40625 
Q 19.671875 43.65625 24.015625 45.921875 
Q 28.375 48.1875 33.59375 48.1875 
Q 44.578125 48.1875 50.953125 41.515625 
Q 57.328125 34.859375 57.328125 23.390625 
Q 57.328125 12.15625 50.6875 5.359375 
Q 44.046875 -1.421875 33.015625 -1.421875 
Q 20.359375 -1.421875 13.671875 8.265625 
Q 6.984375 17.96875 6.984375 36.375 
Q 6.984375 53.65625 15.1875 63.9375 
Q 23.390625 74.21875 37.203125 74.21875 
Q 40.921875 74.21875 44.703125 73.484375 
Q 48.484375 72.75 52.59375 71.296875 
z
" id="DejaVuSans-54"/>
       </defs>
       <use xlink:href="#DejaVuSans-54"/>
      </g>
     </g>
    </g>
    <g id="ytick_2">
     <g id="line2d_11">
      <path clip-path="url(#p60b2e4d3be)" d="M 50.225875 175.425258 
L 306.48042 175.425258 
" style="fill:none;stroke:#cbcbcb;"/>
     </g>
     <g id="line2d_12"/>
     <g id="text_7">
      <!-- 8 -->
      <g transform="translate(37.818375 180.744164)scale(0.14 -0.14)">
       <defs>
        <path d="M 31.78125 34.625 
Q 24.75 34.625 20.71875 30.859375 
Q 16.703125 27.09375 16.703125 20.515625 
Q 16.703125 13.921875 20.71875 10.15625 
Q 24.75 6.390625 31.78125 6.390625 
Q 38.8125 6.390625 42.859375 10.171875 
Q 46.921875 13.96875 46.921875 20.515625 
Q 46.921875 27.09375 42.890625 30.859375 
Q 38.875 34.625 31.78125 34.625 
z
M 21.921875 38.8125 
Q 15.578125 40.375 12.03125 44.71875 
Q 8.5 49.078125 8.5 55.328125 
Q 8.5 64.0625 14.71875 69.140625 
Q 20.953125 74.21875 31.78125 74.21875 
Q 42.671875 74.21875 48.875 69.140625 
Q 55.078125 64.0625 55.078125 55.328125 
Q 55.078125 49.078125 51.53125 44.71875 
Q 48 40.375 41.703125 38.8125 
Q 48.828125 37.15625 52.796875 32.3125 
Q 56.78125 27.484375 56.78125 20.515625 
Q 56.78125 9.90625 50.3125 4.234375 
Q 43.84375 -1.421875 31.78125 -1.421875 
Q 19.734375 -1.421875 13.25 4.234375 
Q 6.78125 9.90625 6.78125 20.515625 
Q 6.78125 27.484375 10.78125 32.3125 
Q 14.796875 37.15625 21.921875 38.8125 
z
M 18.3125 54.390625 
Q 18.3125 48.734375 21.84375 45.5625 
Q 25.390625 42.390625 31.78125 42.390625 
Q 38.140625 42.390625 41.71875 45.5625 
Q 45.3125 48.734375 45.3125 54.390625 
Q 45.3125 60.0625 41.71875 63.234375 
Q 38.140625 66.40625 31.78125 66.40625 
Q 25.390625 66.40625 21.84375 63.234375 
Q 18.3125 60.0625 18.3125 54.390625 
z
" id="DejaVuSans-56"/>
       </defs>
       <use xlink:href="#DejaVuSans-56"/>
      </g>
     </g>
    </g>
    <g id="ytick_3">
     <g id="line2d_13">
      <path clip-path="url(#p60b2e4d3be)" d="M 50.225875 118.108305 
L 306.48042 118.108305 
" style="fill:none;stroke:#cbcbcb;"/>
     </g>
     <g id="line2d_14"/>
     <g id="text_8">
      <!-- 10 -->
      <g transform="translate(28.910875 123.427211)scale(0.14 -0.14)">
       <use xlink:href="#DejaVuSans-49"/>
       <use x="63.623047" xlink:href="#DejaVuSans-48"/>
      </g>
     </g>
    </g>
    <g id="ytick_4">
     <g id="line2d_15">
      <path clip-path="url(#p60b2e4d3be)" d="M 50.225875 60.791351 
L 306.48042 60.791351 
" style="fill:none;stroke:#cbcbcb;"/>
     </g>
     <g id="line2d_16"/>
     <g id="text_9">
      <!-- 12 -->
      <g transform="translate(28.910875 66.110258)scale(0.14 -0.14)">
       <use xlink:href="#DejaVuSans-49"/>
       <use x="63.623047" xlink:href="#DejaVuSans-50"/>
      </g>
     </g>
    </g>
    <g id="text_10">
     <!-- Tỉ suất ly dị -->
     <g transform="translate(21.417 172.424813)rotate(-90)scale(0.168 -0.168)">
      <defs>
       <path d="M 9.421875 75.984375 
L 18.40625 75.984375 
L 18.40625 0 
L 9.421875 0 
z
" id="DejaVuSans-108"/>
       <path d="M 32.171875 -5.078125 
Q 28.375 -14.84375 24.75 -17.8125 
Q 21.140625 -20.796875 15.09375 -20.796875 
L 7.90625 -20.796875 
L 7.90625 -13.28125 
L 13.1875 -13.28125 
Q 16.890625 -13.28125 18.9375 -11.515625 
Q 21 -9.765625 23.484375 -3.21875 
L 25.09375 0.875 
L 2.984375 54.6875 
L 12.5 54.6875 
L 29.59375 11.921875 
L 46.6875 54.6875 
L 56.203125 54.6875 
z
" id="DejaVuSans-121"/>
       <path d="M 45.40625 46.390625 
L 45.40625 75.984375 
L 54.390625 75.984375 
L 54.390625 0 
L 45.40625 0 
L 45.40625 8.203125 
Q 42.578125 3.328125 38.25 0.953125 
Q 33.9375 -1.421875 27.875 -1.421875 
Q 17.96875 -1.421875 11.734375 6.484375 
Q 5.515625 14.40625 5.515625 27.296875 
Q 5.515625 40.1875 11.734375 48.09375 
Q 17.96875 56 27.875 56 
Q 33.9375 56 38.25 53.625 
Q 42.578125 51.265625 45.40625 46.390625 
z
M 14.796875 27.296875 
Q 14.796875 17.390625 18.875 11.75 
Q 22.953125 6.109375 30.078125 6.109375 
Q 37.203125 6.109375 41.296875 11.75 
Q 45.40625 17.390625 45.40625 27.296875 
Q 45.40625 37.203125 41.296875 42.84375 
Q 37.203125 48.484375 30.078125 48.484375 
Q 22.953125 48.484375 18.875 42.84375 
Q 14.796875 37.203125 14.796875 27.296875 
z
" id="DejaVuSans-100"/>
       <path d="M 9.421875 54.6875 
L 18.40625 54.6875 
L 18.40625 0 
L 9.421875 0 
z
M 9.421875 75.984375 
L 18.40625 75.984375 
L 18.40625 64.59375 
L 9.421875 64.59375 
z
M 9.328125 -6.890625 
L 18.3125 -6.890625 
L 18.3125 -18.3125 
L 9.328125 -18.3125 
z
" id="DejaVuSans-7883"/>
      </defs>
      <use xlink:href="#DejaVuSans-84"/>
      <use x="61.083984" xlink:href="#DejaVuSans-7881"/>
      <use x="88.867188" xlink:href="#DejaVuSans-32"/>
      <use x="120.654297" xlink:href="#DejaVuSans-115"/>
      <use x="172.753906" xlink:href="#DejaVuSans-117"/>
      <use x="236.132812" xlink:href="#DejaVuSans-7845"/>
      <use x="297.412109" xlink:href="#DejaVuSans-116"/>
      <use x="336.621094" xlink:href="#DejaVuSans-32"/>
      <use x="368.408203" xlink:href="#DejaVuSans-108"/>
      <use x="396.191406" xlink:href="#DejaVuSans-121"/>
      <use x="455.371094" xlink:href="#DejaVuSans-32"/>
      <use x="487.158203" xlink:href="#DejaVuSans-100"/>
      <use x="550.634766" xlink:href="#DejaVuSans-7883"/>
     </g>
    </g>
   </g>
   <g id="PathCollection_1">
    <defs>
     <path d="M 0 3 
C 0.795609 3 1.55874 2.683901 2.12132 2.12132 
C 2.683901 1.55874 3 0.795609 3 0 
C 3 -0.795609 2.683901 -1.55874 2.12132 -2.12132 
C 1.55874 -2.683901 0.795609 -3 0 -3 
C -0.795609 -3 -1.55874 -2.683901 -2.12132 -2.12132 
C -2.683901 -1.55874 -3 -0.795609 -3 0 
C -3 0.795609 -2.683901 1.55874 -2.12132 2.12132 
C -1.55874 2.683901 -0.795609 3 0 3 
z
" id="m33704dc5bc" style="stroke:#008fd5;stroke-opacity:0.8;"/>
    </defs>
    <g clip-path="url(#p60b2e4d3be)">
     <use style="fill:#008fd5;fill-opacity:0.8;stroke:#008fd5;stroke-opacity:0.8;" x="150.04596" xlink:href="#m33704dc5bc" y="40.730418"/>
     <use style="fill:#008fd5;fill-opacity:0.8;stroke:#008fd5;stroke-opacity:0.8;" x="236.457376" xlink:href="#m33704dc5bc" y="46.462113"/>
     <use style="fill:#008fd5;fill-opacity:0.8;stroke:#008fd5;stroke-opacity:0.8;" x="151.535812" xlink:href="#m33704dc5bc" y="95.181523"/>
     <use style="fill:#008fd5;fill-opacity:0.8;stroke:#008fd5;stroke-opacity:0.8;" x="242.416784" xlink:href="#m33704dc5bc" y="17.803636"/>
     <use style="fill:#008fd5;fill-opacity:0.8;stroke:#008fd5;stroke-opacity:0.8;" x="133.657587" xlink:href="#m33704dc5bc" y="175.425258"/>
     <use style="fill:#008fd5;fill-opacity:0.8;stroke:#008fd5;stroke-opacity:0.8;" x="199.211076" xlink:href="#m33704dc5bc" y="72.254742"/>
     <use style="fill:#008fd5;fill-opacity:0.8;stroke:#008fd5;stroke-opacity:0.8;" x="103.860547" xlink:href="#m33704dc5bc" y="212.681278"/>
     <use style="fill:#008fd5;fill-opacity:0.8;stroke:#008fd5;stroke-opacity:0.8;" x="193.251668" xlink:href="#m33704dc5bc" y="149.632629"/>
     <use style="fill:#008fd5;fill-opacity:0.8;stroke:#008fd5;stroke-opacity:0.8;" x="112.799659" xlink:href="#m33704dc5bc" y="224.144668"/>
     <use style="fill:#008fd5;fill-opacity:0.8;stroke:#008fd5;stroke-opacity:0.8;" x="102.370695" xlink:href="#m33704dc5bc" y="161.09602"/>
     <use style="fill:#008fd5;fill-opacity:0.8;stroke:#008fd5;stroke-opacity:0.8;" x="178.353148" xlink:href="#m33704dc5bc" y="75.12059"/>
     <use style="fill:#008fd5;fill-opacity:0.8;stroke:#008fd5;stroke-opacity:0.8;" x="220.069004" xlink:href="#m33704dc5bc" y="166.827715"/>
     <use style="fill:#008fd5;fill-opacity:0.8;stroke:#008fd5;stroke-opacity:0.8;" x="233.477672" xlink:href="#m33704dc5bc" y="184.022801"/>
     <use style="fill:#008fd5;fill-opacity:0.8;stroke:#008fd5;stroke-opacity:0.8;" x="115.779363" xlink:href="#m33704dc5bc" y="175.425258"/>
     <use style="fill:#008fd5;fill-opacity:0.8;stroke:#008fd5;stroke-opacity:0.8;" x="144.086552" xlink:href="#m33704dc5bc" y="89.449828"/>
     <use style="fill:#008fd5;fill-opacity:0.8;stroke:#008fd5;stroke-opacity:0.8;" x="169.414036" xlink:href="#m33704dc5bc" y="112.376609"/>
     <use style="fill:#008fd5;fill-opacity:0.8;stroke:#008fd5;stroke-opacity:0.8;" x="178.353148" xlink:href="#m33704dc5bc" y="100.913219"/>
     <use style="fill:#008fd5;fill-opacity:0.8;stroke:#008fd5;stroke-opacity:0.8;" x="179.843" xlink:href="#m33704dc5bc" y="43.596265"/>
     <use style="fill:#008fd5;fill-opacity:0.8;stroke:#008fd5;stroke-opacity:0.8;" x="156.005368" xlink:href="#m33704dc5bc" y="89.449828"/>
     <use style="fill:#008fd5;fill-opacity:0.8;stroke:#008fd5;stroke-opacity:0.8;" x="50.225875" xlink:href="#m33704dc5bc" y="32.132875"/>
     <use style="fill:#008fd5;fill-opacity:0.8;stroke:#008fd5;stroke-opacity:0.8;" x="121.738771" xlink:href="#m33704dc5bc" y="152.498477"/>
     <use style="fill:#008fd5;fill-opacity:0.8;stroke:#008fd5;stroke-opacity:0.8;" x="84.492471" xlink:href="#m33704dc5bc" y="181.156953"/>
     <use style="fill:#008fd5;fill-opacity:0.8;stroke:#008fd5;stroke-opacity:0.8;" x="94.921435" xlink:href="#m33704dc5bc" y="141.035086"/>
     <use style="fill:#008fd5;fill-opacity:0.8;stroke:#008fd5;stroke-opacity:0.8;" x="77.043211" xlink:href="#m33704dc5bc" y="192.620344"/>
     <use style="fill:#008fd5;fill-opacity:0.8;stroke:#008fd5;stroke-opacity:0.8;" x="136.637291" xlink:href="#m33704dc5bc" y="86.58398"/>
     <use style="fill:#008fd5;fill-opacity:0.8;stroke:#008fd5;stroke-opacity:0.8;" x="126.208327" xlink:href="#m33704dc5bc" y="132.437543"/>
     <use style="fill:#008fd5;fill-opacity:0.8;stroke:#008fd5;stroke-opacity:0.8;" x="124.718475" xlink:href="#m33704dc5bc" y="143.900934"/>
     <use style="fill:#008fd5;fill-opacity:0.8;stroke:#008fd5;stroke-opacity:0.8;" x="141.106848" xlink:href="#m33704dc5bc" y="152.498477"/>
     <use style="fill:#008fd5;fill-opacity:0.8;stroke:#008fd5;stroke-opacity:0.8;" x="97.901139" xlink:href="#m33704dc5bc" y="115.242457"/>
     <use style="fill:#008fd5;fill-opacity:0.8;stroke:#008fd5;stroke-opacity:0.8;" x="69.593951" xlink:href="#m33704dc5bc" y="229.876364"/>
     <use style="fill:#008fd5;fill-opacity:0.8;stroke:#008fd5;stroke-opacity:0.8;" x="153.025664" xlink:href="#m33704dc5bc" y="112.376609"/>
     <use style="fill:#008fd5;fill-opacity:0.8;stroke:#008fd5;stroke-opacity:0.8;" x="99.390991" xlink:href="#m33704dc5bc" y="215.547125"/>
     <use style="fill:#008fd5;fill-opacity:0.8;stroke:#008fd5;stroke-opacity:0.8;" x="153.025664" xlink:href="#m33704dc5bc" y="120.974152"/>
     <use style="fill:#008fd5;fill-opacity:0.8;stroke:#008fd5;stroke-opacity:0.8;" x="246.88634" xlink:href="#m33704dc5bc" y="175.425258"/>
     <use style="fill:#008fd5;fill-opacity:0.8;stroke:#008fd5;stroke-opacity:0.8;" x="100.880843" xlink:href="#m33704dc5bc" y="132.437543"/>
     <use style="fill:#008fd5;fill-opacity:0.8;stroke:#008fd5;stroke-opacity:0.8;" x="203.680632" xlink:href="#m33704dc5bc" y="37.86457"/>
     <use style="fill:#008fd5;fill-opacity:0.8;stroke:#008fd5;stroke-opacity:0.8;" x="130.677883" xlink:href="#m33704dc5bc" y="106.644914"/>
     <use style="fill:#008fd5;fill-opacity:0.8;stroke:#008fd5;stroke-opacity:0.8;" x="80.022915" xlink:href="#m33704dc5bc" y="184.022801"/>
     <use style="fill:#008fd5;fill-opacity:0.8;stroke:#008fd5;stroke-opacity:0.8;" x="72.573655" xlink:href="#m33704dc5bc" y="135.303391"/>
     <use style="fill:#008fd5;fill-opacity:0.8;stroke:#008fd5;stroke-opacity:0.8;" x="118.759067" xlink:href="#m33704dc5bc" y="172.55941"/>
     <use style="fill:#008fd5;fill-opacity:0.8;stroke:#008fd5;stroke-opacity:0.8;" x="148.556108" xlink:href="#m33704dc5bc" y="92.315676"/>
     <use style="fill:#008fd5;fill-opacity:0.8;stroke:#008fd5;stroke-opacity:0.8;" x="138.127143" xlink:href="#m33704dc5bc" y="77.986437"/>
     <use style="fill:#008fd5;fill-opacity:0.8;stroke:#008fd5;stroke-opacity:0.8;" x="169.414036" xlink:href="#m33704dc5bc" y="118.108305"/>
     <use style="fill:#008fd5;fill-opacity:0.8;stroke:#008fd5;stroke-opacity:0.8;" x="290.092048" xlink:href="#m33704dc5bc" y="112.376609"/>
     <use style="fill:#008fd5;fill-opacity:0.8;stroke:#008fd5;stroke-opacity:0.8;" x="93.431583" xlink:href="#m33704dc5bc" y="129.571695"/>
     <use style="fill:#008fd5;fill-opacity:0.8;stroke:#008fd5;stroke-opacity:0.8;" x="154.515516" xlink:href="#m33704dc5bc" y="149.632629"/>
     <use style="fill:#008fd5;fill-opacity:0.8;stroke:#008fd5;stroke-opacity:0.8;" x="167.924184" xlink:href="#m33704dc5bc" y="118.108305"/>
     <use style="fill:#008fd5;fill-opacity:0.8;stroke:#008fd5;stroke-opacity:0.8;" x="179.843" xlink:href="#m33704dc5bc" y="92.315676"/>
     <use style="fill:#008fd5;fill-opacity:0.8;stroke:#008fd5;stroke-opacity:0.8;" x="105.350399" xlink:href="#m33704dc5bc" y="166.827715"/>
     <use style="fill:#008fd5;fill-opacity:0.8;stroke:#008fd5;stroke-opacity:0.8;" x="306.48042" xlink:href="#m33704dc5bc" y="109.510762"/>
    </g>
   </g>
   <g id="PolyCollection_1">
    <path clip-path="url(#p60b2e4d3be)" d="M 50.225875 137.404981 
L 50.225875 188.164768 
L 52.814305 186.496979 
L 55.402735 184.704854 
L 57.991164 183.138129 
L 60.579594 181.714948 
L 63.168024 180.235731 
L 65.756454 178.704549 
L 68.344883 177.146414 
L 70.933313 175.599687 
L 73.521743 174.109714 
L 76.110173 172.592749 
L 78.698602 171.206277 
L 81.287032 169.71538 
L 83.875462 168.308457 
L 86.463892 166.855312 
L 89.052321 165.389373 
L 91.640751 163.945101 
L 94.229181 162.50332 
L 96.817611 161.193817 
L 99.40604 159.629143 
L 101.99447 158.142647 
L 104.5829 156.692505 
L 107.17133 155.406134 
L 109.759759 154.230437 
L 112.348189 152.925434 
L 114.936619 151.718032 
L 117.525049 150.546379 
L 120.113478 149.29937 
L 122.701908 147.817011 
L 125.290338 146.90459 
L 127.878768 145.772548 
L 130.467197 144.776644 
L 133.055627 143.446972 
L 135.644057 142.465979 
L 138.232487 141.517968 
L 140.820916 140.496792 
L 143.409346 139.57648 
L 145.997776 138.666036 
L 148.586206 137.697746 
L 151.174635 136.669459 
L 153.763065 135.848383 
L 156.351495 135.121285 
L 158.939925 134.392466 
L 161.528354 133.62538 
L 164.116784 133.184991 
L 166.705214 132.616957 
L 169.293644 131.865442 
L 171.882073 131.207405 
L 174.470503 130.75104 
L 177.058933 130.257819 
L 179.647363 129.559956 
L 182.235792 128.901854 
L 184.824222 128.148762 
L 187.412652 127.412418 
L 190.001082 126.74795 
L 192.589511 126.191256 
L 195.177941 125.60921 
L 197.766371 125.070026 
L 200.354801 124.678874 
L 202.94323 124.158331 
L 205.53166 123.756889 
L 208.12009 123.31692 
L 210.70852 122.9688 
L 213.296949 122.565063 
L 215.885379 122.157608 
L 218.473809 121.951983 
L 221.062239 121.480229 
L 223.650668 121.20169 
L 226.239098 120.884354 
L 228.827528 120.533728 
L 231.415958 120.135504 
L 234.004387 119.468539 
L 236.592817 119.049329 
L 239.181247 118.663769 
L 241.769677 118.275363 
L 244.358106 117.79993 
L 246.946536 117.352907 
L 249.534966 116.96014 
L 252.123396 116.563306 
L 254.711825 116.264959 
L 257.300255 115.818745 
L 259.888685 115.502245 
L 262.477115 115.079296 
L 265.065544 114.79102 
L 267.653974 114.186283 
L 270.242404 113.785473 
L 272.830834 113.38864 
L 275.419263 112.991379 
L 278.007693 112.593341 
L 280.596123 112.195303 
L 283.184553 111.849927 
L 285.772982 111.436215 
L 288.361412 111.121754 
L 290.949842 110.707953 
L 293.538272 110.201506 
L 296.126701 109.801677 
L 298.715131 109.401849 
L 301.303561 108.986427 
L 303.891991 108.547588 
L 306.48042 108.108749 
L 306.48042 24.387514 
L 306.48042 24.387514 
L 303.891991 25.922956 
L 301.303561 27.316824 
L 298.715131 28.790383 
L 296.126701 30.402283 
L 293.538272 32.014183 
L 290.949842 33.626426 
L 288.361412 35.24991 
L 285.772982 36.873393 
L 283.184553 38.431168 
L 280.596123 39.987673 
L 278.007693 41.544179 
L 275.419263 43.078979 
L 272.830834 44.466237 
L 270.242404 45.855223 
L 267.653974 47.291356 
L 265.065544 48.963896 
L 262.477115 50.641926 
L 259.888685 52.327827 
L 257.300255 54.013728 
L 254.711825 55.660599 
L 252.123396 57.369317 
L 249.534966 58.888777 
L 246.946536 60.395275 
L 244.358106 62.202245 
L 241.769677 64.041703 
L 239.181247 65.784417 
L 236.592817 67.471002 
L 234.004387 69.220466 
L 231.415958 70.843119 
L 228.827528 72.49942 
L 226.239098 74.16317 
L 223.650668 75.825643 
L 221.062239 77.413098 
L 218.473809 79.009979 
L 215.885379 80.60686 
L 213.296949 82.186922 
L 210.70852 83.777599 
L 208.12009 85.194995 
L 205.53166 86.700505 
L 202.94323 88.502884 
L 200.354801 90.099596 
L 197.766371 91.686317 
L 195.177941 93.237902 
L 192.589511 94.842899 
L 190.001082 96.2567 
L 187.412652 97.595209 
L 184.824222 99.010487 
L 182.235792 100.346403 
L 179.647363 101.751732 
L 177.058933 102.934068 
L 174.470503 104.442625 
L 171.882073 106.028309 
L 169.293644 107.433417 
L 166.705214 108.427499 
L 164.116784 109.575522 
L 161.528354 110.923814 
L 158.939925 111.796664 
L 156.351495 112.775875 
L 153.763065 113.872111 
L 151.174635 114.823455 
L 148.586206 115.95983 
L 145.997776 117.049193 
L 143.409346 118.108121 
L 140.820916 119.190724 
L 138.232487 120.221374 
L 135.644057 121.096298 
L 133.055627 121.940995 
L 130.467197 122.515615 
L 127.878768 123.070934 
L 125.290338 123.870581 
L 122.701908 124.448183 
L 120.113478 125.188632 
L 117.525049 125.884381 
L 114.936619 126.592084 
L 112.348189 127.066079 
L 109.759759 127.50771 
L 107.17133 127.885366 
L 104.5829 128.25028 
L 101.99447 128.829551 
L 99.40604 129.167339 
L 96.817611 129.710779 
L 94.229181 130.151393 
L 91.640751 130.597153 
L 89.052321 131.094653 
L 86.463892 131.605951 
L 83.875462 132.094468 
L 81.287032 132.514157 
L 78.698602 132.798306 
L 76.110173 133.229926 
L 73.521743 133.575692 
L 70.933313 133.96141 
L 68.344883 134.453787 
L 65.756454 134.925711 
L 63.168024 135.403587 
L 60.579594 135.77821 
L 57.991164 136.167471 
L 55.402735 136.656713 
L 52.814305 137.095965 
L 50.225875 137.404981 
z
" style="fill:#008fd5;fill-opacity:0.15;"/>
   </g>
   <g id="line2d_17">
    <path clip-path="url(#p60b2e4d3be)" d="M 50.225875 161.012146 
L 52.814305 160.120018 
L 55.402735 159.227889 
L 57.991164 158.335761 
L 60.579594 157.443632 
L 63.168024 156.551504 
L 65.756454 155.659375 
L 68.344883 154.767247 
L 70.933313 153.875119 
L 73.521743 152.98299 
L 76.110173 152.090862 
L 78.698602 151.198733 
L 81.287032 150.306605 
L 83.875462 149.414476 
L 86.463892 148.522348 
L 89.052321 147.630219 
L 91.640751 146.738091 
L 94.229181 145.845962 
L 96.817611 144.953834 
L 99.40604 144.061706 
L 101.99447 143.169577 
L 104.5829 142.277449 
L 107.17133 141.38532 
L 109.759759 140.493192 
L 112.348189 139.601063 
L 114.936619 138.708935 
L 117.525049 137.816806 
L 120.113478 136.924678 
L 122.701908 136.032549 
L 125.290338 135.140421 
L 127.878768 134.248292 
L 130.467197 133.356164 
L 133.055627 132.464036 
L 135.644057 131.571907 
L 138.232487 130.679779 
L 140.820916 129.78765 
L 143.409346 128.895522 
L 145.997776 128.003393 
L 148.586206 127.111265 
L 151.174635 126.219136 
L 153.763065 125.327008 
L 156.351495 124.434879 
L 158.939925 123.542751 
L 161.528354 122.650622 
L 164.116784 121.758494 
L 166.705214 120.866366 
L 169.293644 119.974237 
L 171.882073 119.082109 
L 174.470503 118.18998 
L 177.058933 117.297852 
L 179.647363 116.405723 
L 182.235792 115.513595 
L 184.824222 114.621466 
L 187.412652 113.729338 
L 190.001082 112.837209 
L 192.589511 111.945081 
L 195.177941 111.052952 
L 197.766371 110.160824 
L 200.354801 109.268696 
L 202.94323 108.376567 
L 205.53166 107.484439 
L 208.12009 106.59231 
L 210.70852 105.700182 
L 213.296949 104.808053 
L 215.885379 103.915925 
L 218.473809 103.023796 
L 221.062239 102.131668 
L 223.650668 101.239539 
L 226.239098 100.347411 
L 228.827528 99.455282 
L 231.415958 98.563154 
L 234.004387 97.671026 
L 236.592817 96.778897 
L 239.181247 95.886769 
L 241.769677 94.99464 
L 244.358106 94.102512 
L 246.946536 93.210383 
L 249.534966 92.318255 
L 252.123396 91.426126 
L 254.711825 90.533998 
L 257.300255 89.641869 
L 259.888685 88.749741 
L 262.477115 87.857612 
L 265.065544 86.965484 
L 267.653974 86.073356 
L 270.242404 85.181227 
L 272.830834 84.289099 
L 275.419263 83.39697 
L 278.007693 82.504842 
L 280.596123 81.612713 
L 283.184553 80.720585 
L 285.772982 79.828456 
L 288.361412 78.936328 
L 290.949842 78.044199 
L 293.538272 77.152071 
L 296.126701 76.259943 
L 298.715131 75.367814 
L 301.303561 74.475686 
L 303.891991 73.583557 
L 306.48042 72.691429 
" style="fill:none;stroke:#008fd5;stroke-width:6;"/>
   </g>
   <g id="patch_3">
    <path d="M 50.225875 240.48 
L 50.225875 7.2 
" style="fill:none;stroke:#f0f0f0;stroke-linecap:square;stroke-linejoin:miter;stroke-width:3;"/>
   </g>
   <g id="patch_4">
    <path d="M 306.48042 240.48 
L 306.48042 7.2 
" style="fill:none;stroke:#f0f0f0;stroke-linecap:square;stroke-linejoin:miter;stroke-width:3;"/>
   </g>
   <g id="patch_5">
    <path d="M 50.225875 240.48 
L 306.48042 240.48 
" style="fill:none;stroke:#f0f0f0;stroke-linecap:square;stroke-linejoin:miter;stroke-width:3;"/>
   </g>
   <g id="patch_6">
    <path d="M 50.225875 7.2 
L 306.48042 7.2 
" style="fill:none;stroke:#f0f0f0;stroke-linecap:square;stroke-linejoin:miter;stroke-width:3;"/>
   </g>
  </g>
  <g id="axes_2">
   <g id="patch_7">
    <path d="M 357.73133 240.48 
L 613.985875 240.48 
L 613.985875 7.2 
L 357.73133 7.2 
z
" style="fill:#f0f0f0;"/>
   </g>
   <g id="matplotlib.axis_3">
    <g id="xtick_5">
     <g id="line2d_18">
      <path clip-path="url(#paebdebbda4)" d="M 389.270351 240.48 
L 389.270351 7.2 
" style="fill:none;stroke:#cbcbcb;"/>
     </g>
     <g id="line2d_19"/>
     <g id="text_11">
      <!-- 24 -->
      <g transform="translate(380.362851 254.617813)scale(0.14 -0.14)">
       <defs>
        <path d="M 37.796875 64.3125 
L 12.890625 25.390625 
L 37.796875 25.390625 
z
M 35.203125 72.90625 
L 47.609375 72.90625 
L 47.609375 25.390625 
L 58.015625 25.390625 
L 58.015625 17.1875 
L 47.609375 17.1875 
L 47.609375 0 
L 37.796875 0 
L 37.796875 17.1875 
L 4.890625 17.1875 
L 4.890625 26.703125 
z
" id="DejaVuSans-52"/>
       </defs>
       <use xlink:href="#DejaVuSans-50"/>
       <use x="63.623047" xlink:href="#DejaVuSans-52"/>
      </g>
     </g>
    </g>
    <g id="xtick_6">
     <g id="line2d_20">
      <path clip-path="url(#paebdebbda4)" d="M 468.117903 240.48 
L 468.117903 7.2 
" style="fill:none;stroke:#cbcbcb;"/>
     </g>
     <g id="line2d_21"/>
     <g id="text_12">
      <!-- 26 -->
      <g transform="translate(459.210403 254.617813)scale(0.14 -0.14)">
       <use xlink:href="#DejaVuSans-50"/>
       <use x="63.623047" xlink:href="#DejaVuSans-54"/>
      </g>
     </g>
    </g>
    <g id="xtick_7">
     <g id="line2d_22">
      <path clip-path="url(#paebdebbda4)" d="M 546.965455 240.48 
L 546.965455 7.2 
" style="fill:none;stroke:#cbcbcb;"/>
     </g>
     <g id="line2d_23"/>
     <g id="text_13">
      <!-- 28 -->
      <g transform="translate(538.057955 254.617813)scale(0.14 -0.14)">
       <use xlink:href="#DejaVuSans-50"/>
       <use x="63.623047" xlink:href="#DejaVuSans-56"/>
      </g>
     </g>
    </g>
    <g id="text_14">
     <!-- Độ tuổi kết hôn trung vị -->
     <g transform="translate(385.628227 276.014125)scale(0.168 -0.168)">
      <defs>
       <path d="M 10.296875 72.90625 
L 30.609375 72.90625 
Q 51.765625 72.90625 61.671875 64.09375 
Q 71.578125 55.28125 71.578125 36.53125 
Q 71.578125 17.671875 61.640625 8.828125 
Q 51.703125 0 30.609375 0 
L 10.296875 0 
L 10.296875 34.1875 
L 0.484375 34.1875 
L 0.484375 41.21875 
L 10.296875 41.21875 
z
M 20.21875 64.796875 
L 20.21875 41.21875 
L 36.625 41.21875 
L 36.625 34.1875 
L 20.21875 34.1875 
L 20.21875 8.109375 
L 32.078125 8.109375 
Q 47.171875 8.109375 54.171875 14.9375 
Q 61.1875 21.78125 61.1875 36.53125 
Q 61.1875 51.171875 54.171875 57.984375 
Q 47.171875 64.796875 32.078125 64.796875 
z
" id="DejaVuSans-272"/>
       <path d="M 26.03125 -6.890625 
L 35.015625 -6.890625 
L 35.015625 -18.3125 
L 26.03125 -18.3125 
z
M 30.609375 48.390625 
Q 23.390625 48.390625 19.1875 42.75 
Q 14.984375 37.109375 14.984375 27.296875 
Q 14.984375 17.484375 19.15625 11.84375 
Q 23.34375 6.203125 30.609375 6.203125 
Q 37.796875 6.203125 41.984375 11.859375 
Q 46.1875 17.53125 46.1875 27.296875 
Q 46.1875 37.015625 41.984375 42.703125 
Q 37.796875 48.390625 30.609375 48.390625 
z
M 30.609375 56 
Q 42.328125 56 49.015625 48.375 
Q 55.71875 40.765625 55.71875 27.296875 
Q 55.71875 13.875 49.015625 6.21875 
Q 42.328125 -1.421875 30.609375 -1.421875 
Q 18.84375 -1.421875 12.171875 6.21875 
Q 5.515625 13.875 5.515625 27.296875 
Q 5.515625 40.765625 12.171875 48.375 
Q 18.84375 56 30.609375 56 
z
M 26.03125 -6.890625 
L 35.015625 -6.890625 
L 35.015625 -18.3125 
L 26.03125 -18.3125 
z
M 27 79.984375 
L 34.234375 79.984375 
L 46.1875 61.625 
L 39.40625 61.625 
L 30.609375 73.578125 
L 21.828125 61.625 
L 15.046875 61.625 
z
" id="DejaVuSans-7897"/>
       <path d="M 37.359375 83.734375 
Q 42.828125 86.21875 47.953125 86.21875 
Q 53.03125 86.21875 56.125 84.140625 
Q 59.234375 82.078125 59.234375 78.796875 
Q 59.234375 75.828125 54.9375 72.65625 
L 52.78125 71.09375 
Q 51.078125 69.8125 50.875 69.375 
Q 50.53125 68.59375 50.53125 67.03125 
L 44.734375 67.03125 
L 44.734375 67.625 
Q 44.734375 69.578125 45.453125 70.890625 
Q 46.1875 72.21875 48.6875 74.015625 
L 50.875 75.671875 
Q 53.125 77.34375 53.125 79.296875 
Q 53.125 80.3125 51.609375 81.1875 
Q 50.09375 82.078125 46.625 82.078125 
Q 42.234375 82.078125 37.359375 79.53125 
z
M 25.984375 74.609375 
L 35.15625 74.609375 
L 45.453125 61.625 
L 38.671875 61.625 
L 30.5625 70.3125 
L 22.46875 61.625 
L 15.671875 61.625 
z
M 30.609375 48.390625 
Q 23.390625 48.390625 19.1875 42.75 
Q 14.984375 37.109375 14.984375 27.296875 
Q 14.984375 17.484375 19.15625 11.84375 
Q 23.34375 6.203125 30.609375 6.203125 
Q 37.796875 6.203125 41.984375 11.859375 
Q 46.1875 17.53125 46.1875 27.296875 
Q 46.1875 37.015625 41.984375 42.703125 
Q 37.796875 48.390625 30.609375 48.390625 
z
M 30.609375 56 
Q 42.328125 56 49.015625 48.375 
Q 55.71875 40.765625 55.71875 27.296875 
Q 55.71875 13.875 49.015625 6.21875 
Q 42.328125 -1.421875 30.609375 -1.421875 
Q 18.84375 -1.421875 12.171875 6.21875 
Q 5.515625 13.875 5.515625 27.296875 
Q 5.515625 40.765625 12.171875 48.375 
Q 18.84375 56 30.609375 56 
z
" id="DejaVuSans-7893"/>
       <path d="M 9.421875 54.6875 
L 18.40625 54.6875 
L 18.40625 0 
L 9.421875 0 
z
M 9.421875 75.984375 
L 18.40625 75.984375 
L 18.40625 64.59375 
L 9.421875 64.59375 
z
" id="DejaVuSans-105"/>
       <path d="M 41.109375 46.296875 
Q 39.59375 47.171875 37.8125 47.578125 
Q 36.03125 48 33.890625 48 
Q 26.265625 48 22.1875 43.046875 
Q 18.109375 38.09375 18.109375 28.8125 
L 18.109375 0 
L 9.078125 0 
L 9.078125 54.6875 
L 18.109375 54.6875 
L 18.109375 46.1875 
Q 20.953125 51.171875 25.484375 53.578125 
Q 30.03125 56 36.53125 56 
Q 37.453125 56 38.578125 55.875 
Q 39.703125 55.765625 41.0625 55.515625 
z
" id="DejaVuSans-114"/>
       <path d="M 45.40625 27.984375 
Q 45.40625 37.75 41.375 43.109375 
Q 37.359375 48.484375 30.078125 48.484375 
Q 22.859375 48.484375 18.828125 43.109375 
Q 14.796875 37.75 14.796875 27.984375 
Q 14.796875 18.265625 18.828125 12.890625 
Q 22.859375 7.515625 30.078125 7.515625 
Q 37.359375 7.515625 41.375 12.890625 
Q 45.40625 18.265625 45.40625 27.984375 
z
M 54.390625 6.78125 
Q 54.390625 -7.171875 48.1875 -13.984375 
Q 42 -20.796875 29.203125 -20.796875 
Q 24.46875 -20.796875 20.265625 -20.09375 
Q 16.0625 -19.390625 12.109375 -17.921875 
L 12.109375 -9.1875 
Q 16.0625 -11.328125 19.921875 -12.34375 
Q 23.78125 -13.375 27.78125 -13.375 
Q 36.625 -13.375 41.015625 -8.765625 
Q 45.40625 -4.15625 45.40625 5.171875 
L 45.40625 9.625 
Q 42.625 4.78125 38.28125 2.390625 
Q 33.9375 0 27.875 0 
Q 17.828125 0 11.671875 7.65625 
Q 5.515625 15.328125 5.515625 27.984375 
Q 5.515625 40.671875 11.671875 48.328125 
Q 17.828125 56 27.875 56 
Q 33.9375 56 38.28125 53.609375 
Q 42.625 51.21875 45.40625 46.390625 
L 45.40625 54.6875 
L 54.390625 54.6875 
z
" id="DejaVuSans-103"/>
       <path d="M 2.984375 54.6875 
L 12.5 54.6875 
L 29.59375 8.796875 
L 46.6875 54.6875 
L 56.203125 54.6875 
L 35.6875 0 
L 23.484375 0 
z
" id="DejaVuSans-118"/>
      </defs>
      <use xlink:href="#DejaVuSans-272"/>
      <use x="77.490234" xlink:href="#DejaVuSans-7897"/>
      <use x="138.671875" xlink:href="#DejaVuSans-32"/>
      <use x="170.458984" xlink:href="#DejaVuSans-116"/>
      <use x="209.667969" xlink:href="#DejaVuSans-117"/>
      <use x="273.046875" xlink:href="#DejaVuSans-7893"/>
      <use x="334.228516" xlink:href="#DejaVuSans-105"/>
      <use x="362.011719" xlink:href="#DejaVuSans-32"/>
      <use x="393.798828" xlink:href="#DejaVuSans-107"/>
      <use x="451.708984" xlink:href="#DejaVuSans-7871"/>
      <use x="513.232422" xlink:href="#DejaVuSans-116"/>
      <use x="552.441406" xlink:href="#DejaVuSans-32"/>
      <use x="584.228516" xlink:href="#DejaVuSans-104"/>
      <use x="647.607422" xlink:href="#DejaVuSans-244"/>
      <use x="708.789062" xlink:href="#DejaVuSans-110"/>
      <use x="772.167969" xlink:href="#DejaVuSans-32"/>
      <use x="803.955078" xlink:href="#DejaVuSans-116"/>
      <use x="843.164062" xlink:href="#DejaVuSans-114"/>
      <use x="884.277344" xlink:href="#DejaVuSans-117"/>
      <use x="947.65625" xlink:href="#DejaVuSans-110"/>
      <use x="1011.035156" xlink:href="#DejaVuSans-103"/>
      <use x="1074.511719" xlink:href="#DejaVuSans-32"/>
      <use x="1106.298828" xlink:href="#DejaVuSans-118"/>
      <use x="1165.478516" xlink:href="#DejaVuSans-7883"/>
     </g>
    </g>
   </g>
   <g id="matplotlib.axis_4">
    <g id="ytick_5">
     <g id="line2d_24">
      <path clip-path="url(#paebdebbda4)" d="M 357.73133 209.18018 
L 613.985875 209.18018 
" style="fill:none;stroke:#cbcbcb;"/>
     </g>
     <g id="line2d_25"/>
     <g id="text_15">
      <!-- 6 -->
      <g transform="translate(345.32383 214.499086)scale(0.14 -0.14)">
       <use xlink:href="#DejaVuSans-54"/>
      </g>
     </g>
    </g>
    <g id="ytick_6">
     <g id="line2d_26">
      <path clip-path="url(#paebdebbda4)" d="M 357.73133 158.146435 
L 613.985875 158.146435 
" style="fill:none;stroke:#cbcbcb;"/>
     </g>
     <g id="line2d_27"/>
     <g id="text_16">
      <!-- 8 -->
      <g transform="translate(345.32383 163.465341)scale(0.14 -0.14)">
       <use xlink:href="#DejaVuSans-56"/>
      </g>
     </g>
    </g>
    <g id="ytick_7">
     <g id="line2d_28">
      <path clip-path="url(#paebdebbda4)" d="M 357.73133 107.11269 
L 613.985875 107.11269 
" style="fill:none;stroke:#cbcbcb;"/>
     </g>
     <g id="line2d_29"/>
     <g id="text_17">
      <!-- 10 -->
      <g transform="translate(336.41633 112.431596)scale(0.14 -0.14)">
       <use xlink:href="#DejaVuSans-49"/>
       <use x="63.623047" xlink:href="#DejaVuSans-48"/>
      </g>
     </g>
    </g>
    <g id="ytick_8">
     <g id="line2d_30">
      <path clip-path="url(#paebdebbda4)" d="M 357.73133 56.078945 
L 613.985875 56.078945 
" style="fill:none;stroke:#cbcbcb;"/>
     </g>
     <g id="line2d_31"/>
     <g id="text_18">
      <!-- 12 -->
      <g transform="translate(336.41633 61.397851)scale(0.14 -0.14)">
       <use xlink:href="#DejaVuSans-49"/>
       <use x="63.623047" xlink:href="#DejaVuSans-50"/>
      </g>
     </g>
    </g>
    <g id="text_19">
     <!-- Tỉ suất ly dị -->
     <g transform="translate(328.922455 172.424813)rotate(-90)scale(0.168 -0.168)">
      <use xlink:href="#DejaVuSans-84"/>
      <use x="61.083984" xlink:href="#DejaVuSans-7881"/>
      <use x="88.867188" xlink:href="#DejaVuSans-32"/>
      <use x="120.654297" xlink:href="#DejaVuSans-115"/>
      <use x="172.753906" xlink:href="#DejaVuSans-117"/>
      <use x="236.132812" xlink:href="#DejaVuSans-7845"/>
      <use x="297.412109" xlink:href="#DejaVuSans-116"/>
      <use x="336.621094" xlink:href="#DejaVuSans-32"/>
      <use x="368.408203" xlink:href="#DejaVuSans-108"/>
      <use x="396.191406" xlink:href="#DejaVuSans-121"/>
      <use x="455.371094" xlink:href="#DejaVuSans-32"/>
      <use x="487.158203" xlink:href="#DejaVuSans-100"/>
      <use x="550.634766" xlink:href="#DejaVuSans-7883"/>
     </g>
    </g>
   </g>
   <g id="PathCollection_2">
    <g clip-path="url(#paebdebbda4)">
     <use style="fill:#008fd5;fill-opacity:0.8;stroke:#008fd5;stroke-opacity:0.8;" x="440.52126" xlink:href="#m33704dc5bc" y="38.217134"/>
     <use style="fill:#008fd5;fill-opacity:0.8;stroke:#008fd5;stroke-opacity:0.8;" x="436.578882" xlink:href="#m33704dc5bc" y="43.320509"/>
     <use style="fill:#008fd5;fill-opacity:0.8;stroke:#008fd5;stroke-opacity:0.8;" x="460.233148" xlink:href="#m33704dc5bc" y="86.699192"/>
     <use style="fill:#008fd5;fill-opacity:0.8;stroke:#008fd5;stroke-opacity:0.8;" x="401.097483" xlink:href="#m33704dc5bc" y="17.803636"/>
     <use style="fill:#008fd5;fill-opacity:0.8;stroke:#008fd5;stroke-opacity:0.8;" x="499.656924" xlink:href="#m33704dc5bc" y="158.146435"/>
     <use style="fill:#008fd5;fill-opacity:0.8;stroke:#008fd5;stroke-opacity:0.8;" x="456.29077" xlink:href="#m33704dc5bc" y="66.285694"/>
     <use style="fill:#008fd5;fill-opacity:0.8;stroke:#008fd5;stroke-opacity:0.8;" x="531.195945" xlink:href="#m33704dc5bc" y="191.318369"/>
     <use style="fill:#008fd5;fill-opacity:0.8;stroke:#008fd5;stroke-opacity:0.8;" x="491.772169" xlink:href="#m33704dc5bc" y="135.18125"/>
     <use style="fill:#008fd5;fill-opacity:0.8;stroke:#008fd5;stroke-opacity:0.8;" x="613.985875" xlink:href="#m33704dc5bc" y="201.525118"/>
     <use style="fill:#008fd5;fill-opacity:0.8;stroke:#008fd5;stroke-opacity:0.8;" x="483.887413" xlink:href="#m33704dc5bc" y="145.387999"/>
     <use style="fill:#008fd5;fill-opacity:0.8;stroke:#008fd5;stroke-opacity:0.8;" x="464.175525" xlink:href="#m33704dc5bc" y="68.837381"/>
     <use style="fill:#008fd5;fill-opacity:0.8;stroke:#008fd5;stroke-opacity:0.8;" x="503.599302" xlink:href="#m33704dc5bc" y="150.491373"/>
     <use style="fill:#008fd5;fill-opacity:0.8;stroke:#008fd5;stroke-opacity:0.8;" x="357.73133" xlink:href="#m33704dc5bc" y="165.801497"/>
     <use style="fill:#008fd5;fill-opacity:0.8;stroke:#008fd5;stroke-opacity:0.8;" x="507.541679" xlink:href="#m33704dc5bc" y="158.146435"/>
     <use style="fill:#008fd5;fill-opacity:0.8;stroke:#008fd5;stroke-opacity:0.8;" x="456.29077" xlink:href="#m33704dc5bc" y="81.595818"/>
     <use style="fill:#008fd5;fill-opacity:0.8;stroke:#008fd5;stroke-opacity:0.8;" x="444.463637" xlink:href="#m33704dc5bc" y="102.009315"/>
     <use style="fill:#008fd5;fill-opacity:0.8;stroke:#008fd5;stroke-opacity:0.8;" x="428.694127" xlink:href="#m33704dc5bc" y="91.802567"/>
     <use style="fill:#008fd5;fill-opacity:0.8;stroke:#008fd5;stroke-opacity:0.8;" x="420.809372" xlink:href="#m33704dc5bc" y="40.768822"/>
     <use style="fill:#008fd5;fill-opacity:0.8;stroke:#008fd5;stroke-opacity:0.8;" x="464.175525" xlink:href="#m33704dc5bc" y="81.595818"/>
     <use style="fill:#008fd5;fill-opacity:0.8;stroke:#008fd5;stroke-opacity:0.8;" x="483.887413" xlink:href="#m33704dc5bc" y="30.562073"/>
     <use style="fill:#008fd5;fill-opacity:0.8;stroke:#008fd5;stroke-opacity:0.8;" x="519.368812" xlink:href="#m33704dc5bc" y="137.732937"/>
     <use style="fill:#008fd5;fill-opacity:0.8;stroke:#008fd5;stroke-opacity:0.8;" x="566.677344" xlink:href="#m33704dc5bc" y="163.249809"/>
     <use style="fill:#008fd5;fill-opacity:0.8;stroke:#008fd5;stroke-opacity:0.8;" x="483.887413" xlink:href="#m33704dc5bc" y="127.526188"/>
     <use style="fill:#008fd5;fill-opacity:0.8;stroke:#008fd5;stroke-opacity:0.8;" x="479.945036" xlink:href="#m33704dc5bc" y="173.456558"/>
     <use style="fill:#008fd5;fill-opacity:0.8;stroke:#008fd5;stroke-opacity:0.8;" x="460.233148" xlink:href="#m33704dc5bc" y="79.04413"/>
     <use style="fill:#008fd5;fill-opacity:0.8;stroke:#008fd5;stroke-opacity:0.8;" x="452.348392" xlink:href="#m33704dc5bc" y="119.871126"/>
     <use style="fill:#008fd5;fill-opacity:0.8;stroke:#008fd5;stroke-opacity:0.8;" x="456.29077" xlink:href="#m33704dc5bc" y="130.077875"/>
     <use style="fill:#008fd5;fill-opacity:0.8;stroke:#008fd5;stroke-opacity:0.8;" x="444.463637" xlink:href="#m33704dc5bc" y="137.732937"/>
     <use style="fill:#008fd5;fill-opacity:0.8;stroke:#008fd5;stroke-opacity:0.8;" x="499.656924" xlink:href="#m33704dc5bc" y="104.561003"/>
     <use style="fill:#008fd5;fill-opacity:0.8;stroke:#008fd5;stroke-opacity:0.8;" x="535.138323" xlink:href="#m33704dc5bc" y="206.628493"/>
     <use style="fill:#008fd5;fill-opacity:0.8;stroke:#008fd5;stroke-opacity:0.8;" x="460.233148" xlink:href="#m33704dc5bc" y="102.009315"/>
     <use style="fill:#008fd5;fill-opacity:0.8;stroke:#008fd5;stroke-opacity:0.8;" x="562.734966" xlink:href="#m33704dc5bc" y="193.870056"/>
     <use style="fill:#008fd5;fill-opacity:0.8;stroke:#008fd5;stroke-opacity:0.8;" x="456.29077" xlink:href="#m33704dc5bc" y="109.664377"/>
     <use style="fill:#008fd5;fill-opacity:0.8;stroke:#008fd5;stroke-opacity:0.8;" x="440.52126" xlink:href="#m33704dc5bc" y="158.146435"/>
     <use style="fill:#008fd5;fill-opacity:0.8;stroke:#008fd5;stroke-opacity:0.8;" x="479.945036" xlink:href="#m33704dc5bc" y="119.871126"/>
     <use style="fill:#008fd5;fill-opacity:0.8;stroke:#008fd5;stroke-opacity:0.8;" x="405.039861" xlink:href="#m33704dc5bc" y="35.665447"/>
     <use style="fill:#008fd5;fill-opacity:0.8;stroke:#008fd5;stroke-opacity:0.8;" x="468.117903" xlink:href="#m33704dc5bc" y="96.905941"/>
     <use style="fill:#008fd5;fill-opacity:0.8;stroke:#008fd5;stroke-opacity:0.8;" x="511.484057" xlink:href="#m33704dc5bc" y="165.801497"/>
     <use style="fill:#008fd5;fill-opacity:0.8;stroke:#008fd5;stroke-opacity:0.8;" x="554.850211" xlink:href="#m33704dc5bc" y="122.422813"/>
     <use style="fill:#008fd5;fill-opacity:0.8;stroke:#008fd5;stroke-opacity:0.8;" x="483.887413" xlink:href="#m33704dc5bc" y="155.594748"/>
     <use style="fill:#008fd5;fill-opacity:0.8;stroke:#008fd5;stroke-opacity:0.8;" x="452.348392" xlink:href="#m33704dc5bc" y="84.147505"/>
     <use style="fill:#008fd5;fill-opacity:0.8;stroke:#008fd5;stroke-opacity:0.8;" x="436.578882" xlink:href="#m33704dc5bc" y="71.389069"/>
     <use style="fill:#008fd5;fill-opacity:0.8;stroke:#008fd5;stroke-opacity:0.8;" x="436.578882" xlink:href="#m33704dc5bc" y="107.11269"/>
     <use style="fill:#008fd5;fill-opacity:0.8;stroke:#008fd5;stroke-opacity:0.8;" x="361.673707" xlink:href="#m33704dc5bc" y="102.009315"/>
     <use style="fill:#008fd5;fill-opacity:0.8;stroke:#008fd5;stroke-opacity:0.8;" x="503.599302" xlink:href="#m33704dc5bc" y="117.319439"/>
     <use style="fill:#008fd5;fill-opacity:0.8;stroke:#008fd5;stroke-opacity:0.8;" x="483.887413" xlink:href="#m33704dc5bc" y="135.18125"/>
     <use style="fill:#008fd5;fill-opacity:0.8;stroke:#008fd5;stroke-opacity:0.8;" x="464.175525" xlink:href="#m33704dc5bc" y="107.11269"/>
     <use style="fill:#008fd5;fill-opacity:0.8;stroke:#008fd5;stroke-opacity:0.8;" x="428.694127" xlink:href="#m33704dc5bc" y="84.147505"/>
     <use style="fill:#008fd5;fill-opacity:0.8;stroke:#008fd5;stroke-opacity:0.8;" x="479.945036" xlink:href="#m33704dc5bc" y="150.491373"/>
     <use style="fill:#008fd5;fill-opacity:0.8;stroke:#008fd5;stroke-opacity:0.8;" x="397.155106" xlink:href="#m33704dc5bc" y="99.457628"/>
    </g>
   </g>
   <g id="PolyCollection_2">
    <path clip-path="url(#paebdebbda4)" d="M 357.73133 19.309434 
L 357.73133 80.013073 
L 360.319759 80.985567 
L 362.908189 82.008124 
L 365.496619 83.021075 
L 368.085049 83.979045 
L 370.673478 84.854208 
L 373.261908 85.973344 
L 375.850338 86.964911 
L 378.438768 87.984484 
L 381.027197 89.02791 
L 383.615627 90.071335 
L 386.204057 91.049367 
L 388.792487 91.807209 
L 391.380916 92.690012 
L 393.969346 93.842225 
L 396.557776 94.663052 
L 399.146206 95.461903 
L 401.734635 96.318746 
L 404.323065 97.048694 
L 406.911495 97.842089 
L 409.499925 98.669247 
L 412.088354 99.484997 
L 414.676784 100.638878 
L 417.265214 101.643869 
L 419.853644 102.617928 
L 422.442073 103.529767 
L 425.030503 104.559683 
L 427.618933 105.509794 
L 430.207363 106.529067 
L 432.795792 107.505769 
L 435.384222 108.396636 
L 437.972652 109.298992 
L 440.561082 110.373159 
L 443.149511 111.446399 
L 445.737941 112.295837 
L 448.326371 113.24916 
L 450.914801 114.279094 
L 453.50323 115.450346 
L 456.09166 116.806165 
L 458.68009 117.966782 
L 461.26852 119.242553 
L 463.856949 120.24763 
L 466.445379 121.448479 
L 469.033809 122.881713 
L 471.622239 124.106067 
L 474.210668 125.428894 
L 476.799098 126.72587 
L 479.387528 128.083292 
L 481.975958 129.373517 
L 484.564387 130.706053 
L 487.152817 132.007134 
L 489.741247 133.552974 
L 492.329677 135.098607 
L 494.918106 136.60462 
L 497.506536 138.370706 
L 500.094966 140.258103 
L 502.683396 142.014899 
L 505.271825 143.991154 
L 507.860255 145.914784 
L 510.448685 147.741959 
L 513.037115 149.518143 
L 515.625544 151.402547 
L 518.213974 153.124186 
L 520.802404 155.064315 
L 523.390834 157.083383 
L 525.979263 159.238917 
L 528.567693 161.33493 
L 531.156123 163.48358 
L 533.744553 165.590831 
L 536.332982 167.789859 
L 538.921412 169.944611 
L 541.509842 171.779085 
L 544.098272 173.842431 
L 546.686701 175.934541 
L 549.275131 178.014569 
L 551.863561 179.83639 
L 554.451991 181.624709 
L 557.04042 183.572999 
L 559.62885 185.687283 
L 562.21728 187.801568 
L 564.80571 189.924237 
L 567.394139 192.059613 
L 569.982569 194.194989 
L 572.570999 196.325343 
L 575.159429 198.446823 
L 577.747858 200.568153 
L 580.336288 202.689482 
L 582.924718 204.808759 
L 585.513148 206.925485 
L 588.101577 209.04221 
L 590.690007 211.037993 
L 593.278437 213.01758 
L 595.866867 215.002299 
L 598.455296 216.996826 
L 601.043726 218.991353 
L 603.632156 221.096245 
L 606.220586 223.291274 
L 608.809015 225.486304 
L 611.397445 227.681334 
L 613.985875 229.876364 
L 613.985875 163.841057 
L 613.985875 163.841057 
L 611.397445 163.154501 
L 608.809015 162.398905 
L 606.220586 161.628999 
L 603.632156 160.743885 
L 601.043726 159.703919 
L 598.455296 158.697368 
L 595.866867 157.935952 
L 593.278437 157.153729 
L 590.690007 156.227268 
L 588.101577 155.304815 
L 585.513148 154.378175 
L 582.924718 153.40318 
L 580.336288 152.533284 
L 577.747858 151.647206 
L 575.159429 150.671028 
L 572.570999 149.756698 
L 569.982569 148.87792 
L 567.394139 148.083273 
L 564.80571 147.218785 
L 562.21728 146.357941 
L 559.62885 145.506341 
L 557.04042 144.422933 
L 554.451991 143.417892 
L 551.863561 142.606163 
L 549.275131 141.775673 
L 546.686701 140.7957 
L 544.098272 140.035822 
L 541.509842 139.074261 
L 538.921412 137.994796 
L 536.332982 136.988591 
L 533.744553 136.110315 
L 531.156123 134.9664 
L 528.567693 133.915694 
L 525.979263 132.951658 
L 523.390834 132.039712 
L 520.802404 131.113809 
L 518.213974 130.181278 
L 515.625544 129.097202 
L 513.037115 128.128703 
L 510.448685 127.183032 
L 507.860255 126.213328 
L 505.271825 125.228556 
L 502.683396 124.110902 
L 500.094966 122.877792 
L 497.506536 121.580483 
L 494.918106 120.402364 
L 492.329677 119.172239 
L 489.741247 117.885741 
L 487.152817 116.584854 
L 484.564387 115.120786 
L 481.975958 113.767715 
L 479.387528 112.385651 
L 476.799098 110.747847 
L 474.210668 109.1408 
L 471.622239 107.576772 
L 469.033809 105.807696 
L 466.445379 104.052026 
L 463.856949 102.211177 
L 461.26852 100.198492 
L 458.68009 98.335513 
L 456.09166 96.492051 
L 453.50323 94.690495 
L 450.914801 92.788253 
L 448.326371 90.977516 
L 445.737941 89.068747 
L 443.149511 87.078919 
L 440.561082 85.049768 
L 437.972652 83.171746 
L 435.384222 81.167238 
L 432.795792 79.235074 
L 430.207363 77.304405 
L 427.618933 75.369646 
L 425.030503 73.314684 
L 422.442073 71.314395 
L 419.853644 69.172416 
L 417.265214 67.165379 
L 414.676784 65.095655 
L 412.088354 62.840366 
L 409.499925 60.720765 
L 406.911495 58.823955 
L 404.323065 56.647018 
L 401.734635 54.547966 
L 399.146206 52.322714 
L 396.557776 50.271389 
L 393.969346 48.152256 
L 391.380916 46.091254 
L 388.792487 44.031785 
L 386.204057 41.965102 
L 383.615627 39.901746 
L 381.027197 37.846158 
L 378.438768 35.794576 
L 375.850338 33.882455 
L 373.261908 31.736419 
L 370.673478 29.751876 
L 368.085049 27.767837 
L 365.496619 25.650651 
L 362.908189 23.502329 
L 360.319759 21.374584 
L 357.73133 19.309434 
z
" style="fill:#008fd5;fill-opacity:0.15;"/>
   </g>
   <g id="line2d_32">
    <path clip-path="url(#paebdebbda4)" d="M 357.73133 51.393818 
L 360.319759 52.858786 
L 362.908189 54.323754 
L 365.496619 55.788722 
L 368.085049 57.253691 
L 370.673478 58.718659 
L 373.261908 60.183627 
L 375.850338 61.648595 
L 378.438768 63.113563 
L 381.027197 64.578531 
L 383.615627 66.043499 
L 386.204057 67.508467 
L 388.792487 68.973436 
L 391.380916 70.438404 
L 393.969346 71.903372 
L 396.557776 73.36834 
L 399.146206 74.833308 
L 401.734635 76.298276 
L 404.323065 77.763244 
L 406.911495 79.228212 
L 409.499925 80.693181 
L 412.088354 82.158149 
L 414.676784 83.623117 
L 417.265214 85.088085 
L 419.853644 86.553053 
L 422.442073 88.018021 
L 425.030503 89.482989 
L 427.618933 90.947958 
L 430.207363 92.412926 
L 432.795792 93.877894 
L 435.384222 95.342862 
L 437.972652 96.80783 
L 440.561082 98.272798 
L 443.149511 99.737766 
L 445.737941 101.202734 
L 448.326371 102.667703 
L 450.914801 104.132671 
L 453.50323 105.597639 
L 456.09166 107.062607 
L 458.68009 108.527575 
L 461.26852 109.992543 
L 463.856949 111.457511 
L 466.445379 112.922479 
L 469.033809 114.387448 
L 471.622239 115.852416 
L 474.210668 117.317384 
L 476.799098 118.782352 
L 479.387528 120.24732 
L 481.975958 121.712288 
L 484.564387 123.177256 
L 487.152817 124.642224 
L 489.741247 126.107193 
L 492.329677 127.572161 
L 494.918106 129.037129 
L 497.506536 130.502097 
L 500.094966 131.967065 
L 502.683396 133.432033 
L 505.271825 134.897001 
L 507.860255 136.36197 
L 510.448685 137.826938 
L 513.037115 139.291906 
L 515.625544 140.756874 
L 518.213974 142.221842 
L 520.802404 143.68681 
L 523.390834 145.151778 
L 525.979263 146.616746 
L 528.567693 148.081715 
L 531.156123 149.546683 
L 533.744553 151.011651 
L 536.332982 152.476619 
L 538.921412 153.941587 
L 541.509842 155.406555 
L 544.098272 156.871523 
L 546.686701 158.336491 
L 549.275131 159.80146 
L 551.863561 161.266428 
L 554.451991 162.731396 
L 557.04042 164.196364 
L 559.62885 165.661332 
L 562.21728 167.1263 
L 564.80571 168.591268 
L 567.394139 170.056237 
L 569.982569 171.521205 
L 572.570999 172.986173 
L 575.159429 174.451141 
L 577.747858 175.916109 
L 580.336288 177.381077 
L 582.924718 178.846045 
L 585.513148 180.311013 
L 588.101577 181.775982 
L 590.690007 183.24095 
L 593.278437 184.705918 
L 595.866867 186.170886 
L 598.455296 187.635854 
L 601.043726 189.100822 
L 603.632156 190.56579 
L 606.220586 192.030758 
L 608.809015 193.495727 
L 611.397445 194.960695 
L 613.985875 196.425663 
" style="fill:none;stroke:#008fd5;stroke-width:6;"/>
   </g>
   <g id="patch_8">
    <path d="M 357.73133 240.48 
L 357.73133 7.2 
" style="fill:none;stroke:#f0f0f0;stroke-linecap:square;stroke-linejoin:miter;stroke-width:3;"/>
   </g>
   <g id="patch_9">
    <path d="M 613.985875 240.48 
L 613.985875 7.2 
" style="fill:none;stroke:#f0f0f0;stroke-linecap:square;stroke-linejoin:miter;stroke-width:3;"/>
   </g>
   <g id="patch_10">
    <path d="M 357.73133 240.48 
L 613.985875 240.48 
" style="fill:none;stroke:#f0f0f0;stroke-linecap:square;stroke-linejoin:miter;stroke-width:3;"/>
   </g>
   <g id="patch_11">
    <path d="M 357.73133 7.2 
L 613.985875 7.2 
" style="fill:none;stroke:#f0f0f0;stroke-linecap:square;stroke-linejoin:miter;stroke-width:3;"/>
   </g>
  </g>
 </g>
 <defs>
  <clipPath id="p60b2e4d3be">
   <rect height="233.28" width="256.254545" x="50.225875" y="7.2"/>
  </clipPath>
  <clipPath id="paebdebbda4">
   <rect height="233.28" width="256.254545" x="357.73133" y="7.2"/>
  </clipPath>
 </defs>
</svg>
