<?xml version="1.0" encoding="utf-8" standalone="no"?>
<!DOCTYPE svg PUBLIC "-//W3C//DTD SVG 1.1//EN"
  "http://www.w3.org/Graphics/SVG/1.1/DTD/svg11.dtd">
<!-- Created with matplotlib (https://matplotlib.org/) -->
<svg height="288pt" version="1.1" viewBox="0 0 432 288" width="432pt" xmlns="http://www.w3.org/2000/svg" xmlns:xlink="http://www.w3.org/1999/xlink">
 <defs>
  <style type="text/css">
*{stroke-linecap:butt;stroke-linejoin:round;}
  </style>
 </defs>
 <g id="figure_1">
  <g id="patch_1">
   <path d="M 0 288 
L 432 288 
L 432 0 
L 0 0 
z
" style="fill:#f0f0f0;"/>
  </g>
  <g id="axes_1">
   <g id="patch_2">
    <path d="M 34.56 267.84 
L 410.4 267.84 
L 410.4 34.56 
L 34.56 34.56 
z
" style="fill:#f0f0f0;"/>
   </g>
   <g id="matplotlib.axis_1">
    <g id="xtick_1">
     <g id="line2d_1">
      <path clip-path="url(#p812158f14b)" d="M 51.643636 267.84 
L 51.643636 34.56 
" style="fill:none;stroke:#cbcbcb;"/>
     </g>
     <g id="line2d_2"/>
     <g id="text_1">
      <!-- −3 -->
      <defs>
       <path d="M 10.59375 35.5 
L 73.1875 35.5 
L 73.1875 27.203125 
L 10.59375 27.203125 
z
" id="DejaVuSans-8722"/>
       <path d="M 40.578125 39.3125 
Q 47.65625 37.796875 51.625 33 
Q 55.609375 28.21875 55.609375 21.1875 
Q 55.609375 10.40625 48.1875 4.484375 
Q 40.765625 -1.421875 27.09375 -1.421875 
Q 22.515625 -1.421875 17.65625 -0.515625 
Q 12.796875 0.390625 7.625 2.203125 
L 7.625 11.71875 
Q 11.71875 9.328125 16.59375 8.109375 
Q 21.484375 6.890625 26.8125 6.890625 
Q 36.078125 6.890625 40.9375 10.546875 
Q 45.796875 14.203125 45.796875 21.1875 
Q 45.796875 27.640625 41.28125 31.265625 
Q 36.765625 34.90625 28.71875 34.90625 
L 20.21875 34.90625 
L 20.21875 43.015625 
L 29.109375 43.015625 
Q 36.375 43.015625 40.234375 45.921875 
Q 44.09375 48.828125 44.09375 54.296875 
Q 44.09375 59.90625 40.109375 62.90625 
Q 36.140625 65.921875 28.71875 65.921875 
Q 24.65625 65.921875 20.015625 65.03125 
Q 15.375 64.15625 9.8125 62.3125 
L 9.8125 71.09375 
Q 15.4375 72.65625 20.34375 73.4375 
Q 25.25 74.21875 29.59375 74.21875 
Q 40.828125 74.21875 47.359375 69.109375 
Q 53.90625 64.015625 53.90625 55.328125 
Q 53.90625 49.265625 50.4375 45.09375 
Q 46.96875 40.921875 40.578125 39.3125 
z
" id="DejaVuSans-51"/>
      </defs>
      <g transform="translate(41.324105 281.977813)scale(0.14 -0.14)">
       <use xlink:href="#DejaVuSans-8722"/>
       <use x="83.789062" xlink:href="#DejaVuSans-51"/>
      </g>
     </g>
    </g>
    <g id="xtick_2">
     <g id="line2d_3">
      <path clip-path="url(#p812158f14b)" d="M 108.589091 267.84 
L 108.589091 34.56 
" style="fill:none;stroke:#cbcbcb;"/>
     </g>
     <g id="line2d_4"/>
     <g id="text_2">
      <!-- −2 -->
      <defs>
       <path d="M 19.1875 8.296875 
L 53.609375 8.296875 
L 53.609375 0 
L 7.328125 0 
L 7.328125 8.296875 
Q 12.9375 14.109375 22.625 23.890625 
Q 32.328125 33.6875 34.8125 36.53125 
Q 39.546875 41.84375 41.421875 45.53125 
Q 43.3125 49.21875 43.3125 52.78125 
Q 43.3125 58.59375 39.234375 62.25 
Q 35.15625 65.921875 28.609375 65.921875 
Q 23.96875 65.921875 18.8125 64.3125 
Q 13.671875 62.703125 7.8125 59.421875 
L 7.8125 69.390625 
Q 13.765625 71.78125 18.9375 73 
Q 24.125 74.21875 28.421875 74.21875 
Q 39.75 74.21875 46.484375 68.546875 
Q 53.21875 62.890625 53.21875 53.421875 
Q 53.21875 48.921875 51.53125 44.890625 
Q 49.859375 40.875 45.40625 35.40625 
Q 44.1875 33.984375 37.640625 27.21875 
Q 31.109375 20.453125 19.1875 8.296875 
z
" id="DejaVuSans-50"/>
      </defs>
      <g transform="translate(98.26956 281.977813)scale(0.14 -0.14)">
       <use xlink:href="#DejaVuSans-8722"/>
       <use x="83.789062" xlink:href="#DejaVuSans-50"/>
      </g>
     </g>
    </g>
    <g id="xtick_3">
     <g id="line2d_5">
      <path clip-path="url(#p812158f14b)" d="M 165.534545 267.84 
L 165.534545 34.56 
" style="fill:none;stroke:#cbcbcb;"/>
     </g>
     <g id="line2d_6"/>
     <g id="text_3">
      <!-- −1 -->
      <defs>
       <path d="M 12.40625 8.296875 
L 28.515625 8.296875 
L 28.515625 63.921875 
L 10.984375 60.40625 
L 10.984375 69.390625 
L 28.421875 72.90625 
L 38.28125 72.90625 
L 38.28125 8.296875 
L 54.390625 8.296875 
L 54.390625 0 
L 12.40625 0 
z
" id="DejaVuSans-49"/>
      </defs>
      <g transform="translate(155.215014 281.977813)scale(0.14 -0.14)">
       <use xlink:href="#DejaVuSans-8722"/>
       <use x="83.789062" xlink:href="#DejaVuSans-49"/>
      </g>
     </g>
    </g>
    <g id="xtick_4">
     <g id="line2d_7">
      <path clip-path="url(#p812158f14b)" d="M 222.48 267.84 
L 222.48 34.56 
" style="fill:none;stroke:#cbcbcb;"/>
     </g>
     <g id="line2d_8"/>
     <g id="text_4">
      <!-- 0 -->
      <defs>
       <path d="M 31.78125 66.40625 
Q 24.171875 66.40625 20.328125 58.90625 
Q 16.5 51.421875 16.5 36.375 
Q 16.5 21.390625 20.328125 13.890625 
Q 24.171875 6.390625 31.78125 6.390625 
Q 39.453125 6.390625 43.28125 13.890625 
Q 47.125 21.390625 47.125 36.375 
Q 47.125 51.421875 43.28125 58.90625 
Q 39.453125 66.40625 31.78125 66.40625 
z
M 31.78125 74.21875 
Q 44.046875 74.21875 50.515625 64.515625 
Q 56.984375 54.828125 56.984375 36.375 
Q 56.984375 17.96875 50.515625 8.265625 
Q 44.046875 -1.421875 31.78125 -1.421875 
Q 19.53125 -1.421875 13.0625 8.265625 
Q 6.59375 17.96875 6.59375 36.375 
Q 6.59375 54.828125 13.0625 64.515625 
Q 19.53125 74.21875 31.78125 74.21875 
z
" id="DejaVuSans-48"/>
      </defs>
      <g transform="translate(218.02625 281.977813)scale(0.14 -0.14)">
       <use xlink:href="#DejaVuSans-48"/>
      </g>
     </g>
    </g>
    <g id="xtick_5">
     <g id="line2d_9">
      <path clip-path="url(#p812158f14b)" d="M 279.425455 267.84 
L 279.425455 34.56 
" style="fill:none;stroke:#cbcbcb;"/>
     </g>
     <g id="line2d_10"/>
     <g id="text_5">
      <!-- 1 -->
      <g transform="translate(274.971705 281.977813)scale(0.14 -0.14)">
       <use xlink:href="#DejaVuSans-49"/>
      </g>
     </g>
    </g>
    <g id="xtick_6">
     <g id="line2d_11">
      <path clip-path="url(#p812158f14b)" d="M 336.370909 267.84 
L 336.370909 34.56 
" style="fill:none;stroke:#cbcbcb;"/>
     </g>
     <g id="line2d_12"/>
     <g id="text_6">
      <!-- 2 -->
      <g transform="translate(331.917159 281.977813)scale(0.14 -0.14)">
       <use xlink:href="#DejaVuSans-50"/>
      </g>
     </g>
    </g>
    <g id="xtick_7">
     <g id="line2d_13">
      <path clip-path="url(#p812158f14b)" d="M 393.316364 267.84 
L 393.316364 34.56 
" style="fill:none;stroke:#cbcbcb;"/>
     </g>
     <g id="line2d_14"/>
     <g id="text_7">
      <!-- 3 -->
      <g transform="translate(388.862614 281.977813)scale(0.14 -0.14)">
       <use xlink:href="#DejaVuSans-51"/>
      </g>
     </g>
    </g>
   </g>
   <g id="matplotlib.axis_2">
    <g id="ytick_1">
     <g id="line2d_15">
      <path clip-path="url(#p812158f14b)" d="M 34.56 257.236364 
L 410.4 257.236364 
" style="fill:none;stroke:#cbcbcb;"/>
     </g>
     <g id="line2d_16"/>
     <g id="text_8">
      <!-- 0.0 -->
      <defs>
       <path d="M 10.6875 12.40625 
L 21 12.40625 
L 21 0 
L 10.6875 0 
z
" id="DejaVuSans-46"/>
      </defs>
      <g transform="translate(8.795625 262.55527)scale(0.14 -0.14)">
       <use xlink:href="#DejaVuSans-48"/>
       <use x="63.623047" xlink:href="#DejaVuSans-46"/>
       <use x="95.410156" xlink:href="#DejaVuSans-48"/>
      </g>
     </g>
    </g>
    <g id="ytick_2">
     <g id="line2d_17">
      <path clip-path="url(#p812158f14b)" d="M 34.56 203.463919 
L 410.4 203.463919 
" style="fill:none;stroke:#cbcbcb;"/>
     </g>
     <g id="line2d_18"/>
     <g id="text_9">
      <!-- 0.5 -->
      <defs>
       <path d="M 10.796875 72.90625 
L 49.515625 72.90625 
L 49.515625 64.59375 
L 19.828125 64.59375 
L 19.828125 46.734375 
Q 21.96875 47.46875 24.109375 47.828125 
Q 26.265625 48.1875 28.421875 48.1875 
Q 40.625 48.1875 47.75 41.5 
Q 54.890625 34.8125 54.890625 23.390625 
Q 54.890625 11.625 47.5625 5.09375 
Q 40.234375 -1.421875 26.90625 -1.421875 
Q 22.3125 -1.421875 17.546875 -0.640625 
Q 12.796875 0.140625 7.71875 1.703125 
L 7.71875 11.625 
Q 12.109375 9.234375 16.796875 8.0625 
Q 21.484375 6.890625 26.703125 6.890625 
Q 35.15625 6.890625 40.078125 11.328125 
Q 45.015625 15.765625 45.015625 23.390625 
Q 45.015625 31 40.078125 35.4375 
Q 35.15625 39.890625 26.703125 39.890625 
Q 22.75 39.890625 18.8125 39.015625 
Q 14.890625 38.140625 10.796875 36.28125 
z
" id="DejaVuSans-53"/>
      </defs>
      <g transform="translate(8.795625 208.782825)scale(0.14 -0.14)">
       <use xlink:href="#DejaVuSans-48"/>
       <use x="63.623047" xlink:href="#DejaVuSans-46"/>
       <use x="95.410156" xlink:href="#DejaVuSans-53"/>
      </g>
     </g>
    </g>
    <g id="ytick_3">
     <g id="line2d_19">
      <path clip-path="url(#p812158f14b)" d="M 34.56 149.691474 
L 410.4 149.691474 
" style="fill:none;stroke:#cbcbcb;"/>
     </g>
     <g id="line2d_20"/>
     <g id="text_10">
      <!-- 1.0 -->
      <g transform="translate(8.795625 155.010381)scale(0.14 -0.14)">
       <use xlink:href="#DejaVuSans-49"/>
       <use x="63.623047" xlink:href="#DejaVuSans-46"/>
       <use x="95.410156" xlink:href="#DejaVuSans-48"/>
      </g>
     </g>
    </g>
    <g id="ytick_4">
     <g id="line2d_21">
      <path clip-path="url(#p812158f14b)" d="M 34.56 95.91903 
L 410.4 95.91903 
" style="fill:none;stroke:#cbcbcb;"/>
     </g>
     <g id="line2d_22"/>
     <g id="text_11">
      <!-- 1.5 -->
      <g transform="translate(8.795625 101.237936)scale(0.14 -0.14)">
       <use xlink:href="#DejaVuSans-49"/>
       <use x="63.623047" xlink:href="#DejaVuSans-46"/>
       <use x="95.410156" xlink:href="#DejaVuSans-53"/>
      </g>
     </g>
    </g>
    <g id="ytick_5">
     <g id="line2d_23">
      <path clip-path="url(#p812158f14b)" d="M 34.56 42.146585 
L 410.4 42.146585 
" style="fill:none;stroke:#cbcbcb;"/>
     </g>
     <g id="line2d_24"/>
     <g id="text_12">
      <!-- 2.0 -->
      <g transform="translate(8.795625 47.465491)scale(0.14 -0.14)">
       <use xlink:href="#DejaVuSans-50"/>
       <use x="63.623047" xlink:href="#DejaVuSans-46"/>
       <use x="95.410156" xlink:href="#DejaVuSans-48"/>
      </g>
     </g>
    </g>
   </g>
   <g id="line2d_25">
    <path clip-path="url(#p812158f14b)" d="M 51.643636 256.759741 
L 55.094873 256.665754 
L 58.546109 256.555736 
L 61.997345 256.427484 
L 65.448582 256.278589 
L 68.899832 256.106443 
L 72.351082 255.908245 
L 75.802318 255.681004 
L 79.253555 255.421562 
L 82.704804 255.126604 
L 86.156027 254.792705 
L 89.607264 254.416334 
L 93.058527 253.993925 
L 96.509764 253.521916 
L 99.961 252.996796 
L 103.412236 252.41518 
L 106.863473 251.773875 
L 110.314709 251.069956 
L 113.765945 250.300848 
L 117.217182 249.464412 
L 120.668425 248.559028 
L 124.119675 247.583695 
L 127.570905 246.538106 
L 131.022155 245.422725 
L 134.473391 244.238892 
L 137.924614 242.988859 
L 141.375877 241.675845 
L 144.827107 240.304153 
L 148.278336 238.879097 
L 151.729593 237.407058 
L 155.180836 235.895518 
L 158.632066 234.352969 
L 162.083309 232.788881 
L 165.534552 231.213645 
L 168.985782 229.638474 
L 172.437018 228.075263 
L 175.888268 226.536472 
L 179.339498 225.034988 
L 182.790748 223.583894 
L 186.241984 222.196357 
L 189.693227 220.885374 
L 193.144464 219.663604 
L 196.5957 218.543157 
L 200.046943 217.535388 
L 203.49818 216.650726 
L 206.94943 215.898463 
L 210.400659 215.286628 
L 213.851909 214.821816 
L 217.303145 214.509083 
L 220.754375 214.351854 
L 224.205618 214.351854 
L 227.656855 214.509083 
L 231.108091 214.821816 
L 234.559341 215.286628 
L 238.010591 215.898466 
L 241.461827 216.650726 
L 244.91305 217.535388 
L 248.3643 218.543157 
L 251.815536 219.663604 
L 255.266773 220.885374 
L 258.718023 222.196357 
L 262.169273 223.5839 
L 265.620482 225.034978 
L 269.071732 226.536472 
L 272.522982 228.075263 
L 275.974218 229.638474 
L 279.425455 231.213648 
L 282.876691 232.788881 
L 286.327927 234.352965 
L 289.779164 235.895518 
L 293.230407 237.407058 
L 296.681664 238.879097 
L 300.1329 240.304156 
L 303.584116 241.675843 
L 307.035373 242.988852 
L 310.486609 244.238892 
L 313.937845 245.422725 
L 317.389102 246.538109 
L 320.840345 247.583701 
L 324.291555 248.559024 
L 327.742811 249.464409 
L 331.194055 250.300848 
L 334.645291 251.069956 
L 338.096527 251.773875 
L 341.547764 252.41518 
L 344.999 252.996796 
L 348.450236 253.521916 
L 351.901473 253.993925 
L 355.352736 254.416334 
L 358.803973 254.792705 
L 362.255209 255.126606 
L 365.706445 255.421562 
L 369.157682 255.681004 
L 372.608918 255.908245 
L 376.060182 256.106445 
L 379.511418 256.278589 
L 382.962655 256.427484 
L 386.413891 256.555736 
L 389.865127 256.665754 
L 393.316364 256.759741 
" style="fill:none;stroke:#008fd5;stroke-dasharray:14.8,6.4;stroke-dashoffset:0;stroke-width:4;"/>
   </g>
   <g id="line2d_26">
    <path clip-path="url(#p812158f14b)" d="M 51.643636 257.236362 
L 55.094873 257.236361 
L 58.546109 257.236358 
L 61.997345 257.236353 
L 65.448582 257.236342 
L 68.899832 257.236322 
L 72.351082 257.236285 
L 75.802318 257.236215 
L 79.253555 257.236089 
L 82.704804 257.235862 
L 86.156027 257.235461 
L 89.607264 257.234762 
L 93.058527 257.233565 
L 96.509764 257.231543 
L 99.961 257.228182 
L 103.412236 257.222682 
L 106.863473 257.213816 
L 110.314709 257.199749 
L 113.765945 257.177771 
L 117.217182 257.143968 
L 120.668425 257.09279 
L 124.119675 257.016517 
L 127.570905 256.904635 
L 131.022155 256.743116 
L 134.473391 256.51365 
L 137.924614 256.19288 
L 141.375877 255.751705 
L 144.827107 255.154822 
L 148.278336 254.360538 
L 151.729593 253.321105 
L 155.180836 251.983732 
L 158.632066 250.292325 
L 162.083309 248.190146 
L 165.534552 245.623454 
L 168.985782 242.545954 
L 172.437018 238.92393 
L 175.888268 234.741787 
L 179.339498 230.007582 
L 182.790748 224.75769 
L 186.241984 219.060644 
L 189.693227 213.018733 
L 193.144464 206.767589 
L 196.5957 200.472854 
L 200.046943 194.324138 
L 203.49818 188.526365 
L 206.94943 183.288759 
L 210.400659 178.812668 
L 213.851909 175.278655 
L 217.303145 172.834616 
L 220.754375 171.585401 
L 224.205618 171.585401 
L 227.656855 172.834616 
L 231.108091 175.278655 
L 234.559341 178.812668 
L 238.010591 183.288791 
L 241.461827 188.526378 
L 244.91305 194.324125 
L 248.3643 200.472854 
L 251.815536 206.767589 
L 255.266773 213.018733 
L 258.718023 219.06066 
L 262.169273 224.757725 
L 265.620482 230.007553 
L 269.071732 234.741787 
L 272.522982 238.92393 
L 275.974218 242.545954 
L 279.425455 245.62346 
L 282.876691 248.190146 
L 286.327927 250.29232 
L 289.779164 251.983732 
L 293.230407 253.321105 
L 296.681664 254.360538 
L 300.1329 255.154824 
L 303.584116 255.751704 
L 307.035373 256.192878 
L 310.486609 256.51365 
L 313.937845 256.743116 
L 317.389102 256.904636 
L 320.840345 257.016517 
L 324.291555 257.092789 
L 327.742811 257.143968 
L 331.194055 257.177771 
L 334.645291 257.199749 
L 338.096527 257.213816 
L 341.547764 257.222682 
L 344.999 257.228182 
L 348.450236 257.231543 
L 351.901473 257.233565 
L 355.352736 257.234762 
L 358.803973 257.235461 
L 362.255209 257.235862 
L 365.706445 257.236089 
L 369.157682 257.236215 
L 372.608918 257.236285 
L 376.060182 257.236322 
L 379.511418 257.236342 
L 382.962655 257.236353 
L 386.413891 257.236358 
L 389.865127 257.236361 
L 393.316364 257.236362 
" style="fill:none;stroke:#fc4f30;stroke-width:2;"/>
   </g>
   <g id="line2d_27">
    <path clip-path="url(#p812158f14b)" d="M 51.643636 257.236364 
L 55.094873 257.236364 
L 58.546109 257.236364 
L 61.997345 257.236364 
L 65.448582 257.236364 
L 68.899832 257.236364 
L 72.351082 257.236364 
L 75.802318 257.236364 
L 79.253555 257.236364 
L 82.704804 257.236364 
L 86.156027 257.236364 
L 89.607264 257.236364 
L 93.058527 257.236364 
L 96.509764 257.236364 
L 99.961 257.236364 
L 103.412236 257.236364 
L 106.863473 257.236364 
L 110.314709 257.236364 
L 113.765945 257.236364 
L 117.217182 257.236364 
L 120.668425 257.236364 
L 124.119675 257.236364 
L 127.570905 257.236364 
L 131.022155 257.236364 
L 134.473391 257.236364 
L 137.924614 257.236364 
L 141.375877 257.236364 
L 144.827107 257.236364 
L 148.278336 257.236364 
L 151.729593 257.236363 
L 155.180836 257.236358 
L 158.632066 257.236332 
L 162.083309 257.236196 
L 165.534552 257.235564 
L 168.985782 257.232889 
L 172.437018 257.222589 
L 175.888268 257.186545 
L 179.339498 257.071989 
L 182.790748 256.7416 
L 186.241984 255.877805 
L 189.693227 253.833222 
L 193.144464 249.459569 
L 196.5957 241.024188 
L 200.046943 226.404313 
L 203.49818 203.745092 
L 206.94943 172.575235 
L 210.400659 134.998982 
L 213.851909 96.229385 
L 217.303145 63.770297 
L 220.754375 45.163649 
L 224.205618 45.163636 
L 227.656855 63.770297 
L 231.108091 96.229385 
L 234.559341 134.998982 
L 238.010591 172.57544 
L 241.461827 203.745149 
L 244.91305 226.404278 
L 248.3643 241.024188 
L 251.815536 249.459569 
L 255.266773 253.833222 
L 258.718023 255.877807 
L 262.169273 256.741603 
L 265.620482 257.071988 
L 269.071732 257.186545 
L 272.522982 257.222589 
L 275.974218 257.232889 
L 279.425455 257.235564 
L 282.876691 257.236196 
L 286.327927 257.236332 
L 289.779164 257.236358 
L 293.230407 257.236363 
L 296.681664 257.236364 
L 300.1329 257.236364 
L 303.584116 257.236364 
L 307.035373 257.236364 
L 310.486609 257.236364 
L 313.937845 257.236364 
L 317.389102 257.236364 
L 320.840345 257.236364 
L 324.291555 257.236364 
L 327.742811 257.236364 
L 331.194055 257.236364 
L 334.645291 257.236364 
L 338.096527 257.236364 
L 341.547764 257.236364 
L 344.999 257.236364 
L 348.450236 257.236364 
L 351.901473 257.236364 
L 355.352736 257.236364 
L 358.803973 257.236364 
L 362.255209 257.236364 
L 365.706445 257.236364 
L 369.157682 257.236364 
L 372.608918 257.236364 
L 376.060182 257.236364 
L 379.511418 257.236364 
L 382.962655 257.236364 
L 386.413891 257.236364 
L 389.865127 257.236364 
L 393.316364 257.236364 
" style="fill:none;stroke:#e5ae38;"/>
   </g>
   <g id="patch_3">
    <path d="M 34.56 267.84 
L 34.56 34.56 
" style="fill:none;stroke:#f0f0f0;stroke-linecap:square;stroke-linejoin:miter;stroke-width:3;"/>
   </g>
   <g id="patch_4">
    <path d="M 410.4 267.84 
L 410.4 34.56 
" style="fill:none;stroke:#f0f0f0;stroke-linecap:square;stroke-linejoin:miter;stroke-width:3;"/>
   </g>
   <g id="patch_5">
    <path d="M 34.56 267.84 
L 410.4 267.84 
" style="fill:none;stroke:#f0f0f0;stroke-linecap:square;stroke-linejoin:miter;stroke-width:3;"/>
   </g>
   <g id="patch_6">
    <path d="M 34.56 34.56 
L 410.4 34.56 
" style="fill:none;stroke:#f0f0f0;stroke-linecap:square;stroke-linejoin:miter;stroke-width:3;"/>
   </g>
  </g>
 </g>
 <defs>
  <clipPath id="p812158f14b">
   <rect height="233.28" width="375.84" x="34.56" y="34.56"/>
  </clipPath>
 </defs>
</svg>
