<?xml version="1.0" encoding="utf-8" standalone="no"?>
<!DOCTYPE svg PUBLIC "-//W3C//DTD SVG 1.1//EN"
  "http://www.w3.org/Graphics/SVG/1.1/DTD/svg11.dtd">
<!-- Created with matplotlib (https://matplotlib.org/) -->
<svg height="296.39952pt" version="1.1" viewBox="0 0 440.39952 296.39952" width="440.39952pt" xmlns="http://www.w3.org/2000/svg" xmlns:xlink="http://www.w3.org/1999/xlink">
 <metadata>
  <rdf:RDF xmlns:cc="http://creativecommons.org/ns#" xmlns:dc="http://purl.org/dc/elements/1.1/" xmlns:rdf="http://www.w3.org/1999/02/22-rdf-syntax-ns#">
   <cc:Work>
    <dc:type rdf:resource="http://purl.org/dc/dcmitype/StillImage"/>
    <dc:date>2021-02-01T15:22:53.235246</dc:date>
    <dc:format>image/svg+xml</dc:format>
    <dc:creator>
     <cc:Agent>
      <dc:title>Matplotlib v3.3.3, https://matplotlib.org/</dc:title>
     </cc:Agent>
    </dc:creator>
   </cc:Work>
  </rdf:RDF>
 </metadata>
 <defs>
  <style type="text/css">*{stroke-linecap:butt;stroke-linejoin:round;}</style>
 </defs>
 <g id="figure_1">
  <g id="patch_1">
   <path d="M 0 296.39952 
L 440.39952 296.39952 
L 440.39952 0 
L 0 0 
z
" style="fill:#f0f0f0;"/>
  </g>
  <g id="axes_1">
   <g id="patch_2">
    <path d="M 53.47825 251.350145 
L 433.19952 251.350145 
L 433.19952 7.2 
L 53.47825 7.2 
z
" style="fill:#f0f0f0;"/>
   </g>
   <g id="matplotlib.axis_1">
    <g id="xtick_1">
     <g id="line2d_1">
      <path clip-path="url(#p4856abd00f)" d="M 122.288087 251.350145 
L 122.288087 7.2 
" style="fill:none;stroke:#cbcbcb;"/>
     </g>
     <g id="line2d_2"/>
     <g id="text_1">
      <!-- 158.5 -->
      <g transform="translate(102.2484 265.487957)scale(0.14 -0.14)">
       <defs>
        <path d="M 12.40625 8.296875 
L 28.515625 8.296875 
L 28.515625 63.921875 
L 10.984375 60.40625 
L 10.984375 69.390625 
L 28.421875 72.90625 
L 38.28125 72.90625 
L 38.28125 8.296875 
L 54.390625 8.296875 
L 54.390625 0 
L 12.40625 0 
z
" id="DejaVuSans-49"/>
        <path d="M 10.796875 72.90625 
L 49.515625 72.90625 
L 49.515625 64.59375 
L 19.828125 64.59375 
L 19.828125 46.734375 
Q 21.96875 47.46875 24.109375 47.828125 
Q 26.265625 48.1875 28.421875 48.1875 
Q 40.625 48.1875 47.75 41.5 
Q 54.890625 34.8125 54.890625 23.390625 
Q 54.890625 11.625 47.5625 5.09375 
Q 40.234375 -1.421875 26.90625 -1.421875 
Q 22.3125 -1.421875 17.546875 -0.640625 
Q 12.796875 0.140625 7.71875 1.703125 
L 7.71875 11.625 
Q 12.109375 9.234375 16.796875 8.0625 
Q 21.484375 6.890625 26.703125 6.890625 
Q 35.15625 6.890625 40.078125 11.328125 
Q 45.015625 15.765625 45.015625 23.390625 
Q 45.015625 31 40.078125 35.4375 
Q 35.15625 39.890625 26.703125 39.890625 
Q 22.75 39.890625 18.8125 39.015625 
Q 14.890625 38.140625 10.796875 36.28125 
z
" id="DejaVuSans-53"/>
        <path d="M 31.78125 34.625 
Q 24.75 34.625 20.71875 30.859375 
Q 16.703125 27.09375 16.703125 20.515625 
Q 16.703125 13.921875 20.71875 10.15625 
Q 24.75 6.390625 31.78125 6.390625 
Q 38.8125 6.390625 42.859375 10.171875 
Q 46.921875 13.96875 46.921875 20.515625 
Q 46.921875 27.09375 42.890625 30.859375 
Q 38.875 34.625 31.78125 34.625 
z
M 21.921875 38.8125 
Q 15.578125 40.375 12.03125 44.71875 
Q 8.5 49.078125 8.5 55.328125 
Q 8.5 64.0625 14.71875 69.140625 
Q 20.953125 74.21875 31.78125 74.21875 
Q 42.671875 74.21875 48.875 69.140625 
Q 55.078125 64.0625 55.078125 55.328125 
Q 55.078125 49.078125 51.53125 44.71875 
Q 48 40.375 41.703125 38.8125 
Q 48.828125 37.15625 52.796875 32.3125 
Q 56.78125 27.484375 56.78125 20.515625 
Q 56.78125 9.90625 50.3125 4.234375 
Q 43.84375 -1.421875 31.78125 -1.421875 
Q 19.734375 -1.421875 13.25 4.234375 
Q 6.78125 9.90625 6.78125 20.515625 
Q 6.78125 27.484375 10.78125 32.3125 
Q 14.796875 37.15625 21.921875 38.8125 
z
M 18.3125 54.390625 
Q 18.3125 48.734375 21.84375 45.5625 
Q 25.390625 42.390625 31.78125 42.390625 
Q 38.140625 42.390625 41.71875 45.5625 
Q 45.3125 48.734375 45.3125 54.390625 
Q 45.3125 60.0625 41.71875 63.234375 
Q 38.140625 66.40625 31.78125 66.40625 
Q 25.390625 66.40625 21.84375 63.234375 
Q 18.3125 60.0625 18.3125 54.390625 
z
" id="DejaVuSans-56"/>
        <path d="M 10.6875 12.40625 
L 21 12.40625 
L 21 0 
L 10.6875 0 
z
" id="DejaVuSans-46"/>
       </defs>
       <use xlink:href="#DejaVuSans-49"/>
       <use x="63.623047" xlink:href="#DejaVuSans-53"/>
       <use x="127.246094" xlink:href="#DejaVuSans-56"/>
       <use x="190.869141" xlink:href="#DejaVuSans-46"/>
       <use x="222.65625" xlink:href="#DejaVuSans-53"/>
      </g>
     </g>
    </g>
    <g id="xtick_2">
     <g id="line2d_3">
      <path clip-path="url(#p4856abd00f)" d="M 201.52802 251.350145 
L 201.52802 7.2 
" style="fill:none;stroke:#cbcbcb;"/>
     </g>
     <g id="line2d_4"/>
     <g id="text_2">
      <!-- 159.0 -->
      <g transform="translate(181.488332 265.487957)scale(0.14 -0.14)">
       <defs>
        <path d="M 10.984375 1.515625 
L 10.984375 10.5 
Q 14.703125 8.734375 18.5 7.8125 
Q 22.3125 6.890625 25.984375 6.890625 
Q 35.75 6.890625 40.890625 13.453125 
Q 46.046875 20.015625 46.78125 33.40625 
Q 43.953125 29.203125 39.59375 26.953125 
Q 35.25 24.703125 29.984375 24.703125 
Q 19.046875 24.703125 12.671875 31.3125 
Q 6.296875 37.9375 6.296875 49.421875 
Q 6.296875 60.640625 12.9375 67.421875 
Q 19.578125 74.21875 30.609375 74.21875 
Q 43.265625 74.21875 49.921875 64.515625 
Q 56.59375 54.828125 56.59375 36.375 
Q 56.59375 19.140625 48.40625 8.859375 
Q 40.234375 -1.421875 26.421875 -1.421875 
Q 22.703125 -1.421875 18.890625 -0.6875 
Q 15.09375 0.046875 10.984375 1.515625 
z
M 30.609375 32.421875 
Q 37.25 32.421875 41.125 36.953125 
Q 45.015625 41.5 45.015625 49.421875 
Q 45.015625 57.28125 41.125 61.84375 
Q 37.25 66.40625 30.609375 66.40625 
Q 23.96875 66.40625 20.09375 61.84375 
Q 16.21875 57.28125 16.21875 49.421875 
Q 16.21875 41.5 20.09375 36.953125 
Q 23.96875 32.421875 30.609375 32.421875 
z
" id="DejaVuSans-57"/>
        <path d="M 31.78125 66.40625 
Q 24.171875 66.40625 20.328125 58.90625 
Q 16.5 51.421875 16.5 36.375 
Q 16.5 21.390625 20.328125 13.890625 
Q 24.171875 6.390625 31.78125 6.390625 
Q 39.453125 6.390625 43.28125 13.890625 
Q 47.125 21.390625 47.125 36.375 
Q 47.125 51.421875 43.28125 58.90625 
Q 39.453125 66.40625 31.78125 66.40625 
z
M 31.78125 74.21875 
Q 44.046875 74.21875 50.515625 64.515625 
Q 56.984375 54.828125 56.984375 36.375 
Q 56.984375 17.96875 50.515625 8.265625 
Q 44.046875 -1.421875 31.78125 -1.421875 
Q 19.53125 -1.421875 13.0625 8.265625 
Q 6.59375 17.96875 6.59375 36.375 
Q 6.59375 54.828125 13.0625 64.515625 
Q 19.53125 74.21875 31.78125 74.21875 
z
" id="DejaVuSans-48"/>
       </defs>
       <use xlink:href="#DejaVuSans-49"/>
       <use x="63.623047" xlink:href="#DejaVuSans-53"/>
       <use x="127.246094" xlink:href="#DejaVuSans-57"/>
       <use x="190.869141" xlink:href="#DejaVuSans-46"/>
       <use x="222.65625" xlink:href="#DejaVuSans-48"/>
      </g>
     </g>
    </g>
    <g id="xtick_3">
     <g id="line2d_5">
      <path clip-path="url(#p4856abd00f)" d="M 280.767952 251.350145 
L 280.767952 7.2 
" style="fill:none;stroke:#cbcbcb;"/>
     </g>
     <g id="line2d_6"/>
     <g id="text_3">
      <!-- 159.5 -->
      <g transform="translate(260.728265 265.487957)scale(0.14 -0.14)">
       <use xlink:href="#DejaVuSans-49"/>
       <use x="63.623047" xlink:href="#DejaVuSans-53"/>
       <use x="127.246094" xlink:href="#DejaVuSans-57"/>
       <use x="190.869141" xlink:href="#DejaVuSans-46"/>
       <use x="222.65625" xlink:href="#DejaVuSans-53"/>
      </g>
     </g>
    </g>
    <g id="xtick_4">
     <g id="line2d_7">
      <path clip-path="url(#p4856abd00f)" d="M 360.007885 251.350145 
L 360.007885 7.2 
" style="fill:none;stroke:#cbcbcb;"/>
     </g>
     <g id="line2d_8"/>
     <g id="text_4">
      <!-- 160.0 -->
      <g transform="translate(339.968197 265.487957)scale(0.14 -0.14)">
       <defs>
        <path d="M 33.015625 40.375 
Q 26.375 40.375 22.484375 35.828125 
Q 18.609375 31.296875 18.609375 23.390625 
Q 18.609375 15.53125 22.484375 10.953125 
Q 26.375 6.390625 33.015625 6.390625 
Q 39.65625 6.390625 43.53125 10.953125 
Q 47.40625 15.53125 47.40625 23.390625 
Q 47.40625 31.296875 43.53125 35.828125 
Q 39.65625 40.375 33.015625 40.375 
z
M 52.59375 71.296875 
L 52.59375 62.3125 
Q 48.875 64.0625 45.09375 64.984375 
Q 41.3125 65.921875 37.59375 65.921875 
Q 27.828125 65.921875 22.671875 59.328125 
Q 17.53125 52.734375 16.796875 39.40625 
Q 19.671875 43.65625 24.015625 45.921875 
Q 28.375 48.1875 33.59375 48.1875 
Q 44.578125 48.1875 50.953125 41.515625 
Q 57.328125 34.859375 57.328125 23.390625 
Q 57.328125 12.15625 50.6875 5.359375 
Q 44.046875 -1.421875 33.015625 -1.421875 
Q 20.359375 -1.421875 13.671875 8.265625 
Q 6.984375 17.96875 6.984375 36.375 
Q 6.984375 53.65625 15.1875 63.9375 
Q 23.390625 74.21875 37.203125 74.21875 
Q 40.921875 74.21875 44.703125 73.484375 
Q 48.484375 72.75 52.59375 71.296875 
z
" id="DejaVuSans-54"/>
       </defs>
       <use xlink:href="#DejaVuSans-49"/>
       <use x="63.623047" xlink:href="#DejaVuSans-54"/>
       <use x="127.246094" xlink:href="#DejaVuSans-48"/>
       <use x="190.869141" xlink:href="#DejaVuSans-46"/>
       <use x="222.65625" xlink:href="#DejaVuSans-48"/>
      </g>
     </g>
    </g>
    <g id="text_5">
     <!-- mu|weight=50 -->
     <g transform="translate(180.954448 285.238395)scale(0.168 -0.168)">
      <defs>
       <path d="M 52 44.1875 
Q 55.375 50.25 60.0625 53.125 
Q 64.75 56 71.09375 56 
Q 79.640625 56 84.28125 50.015625 
Q 88.921875 44.046875 88.921875 33.015625 
L 88.921875 0 
L 79.890625 0 
L 79.890625 32.71875 
Q 79.890625 40.578125 77.09375 44.375 
Q 74.3125 48.1875 68.609375 48.1875 
Q 61.625 48.1875 57.5625 43.546875 
Q 53.515625 38.921875 53.515625 30.90625 
L 53.515625 0 
L 44.484375 0 
L 44.484375 32.71875 
Q 44.484375 40.625 41.703125 44.40625 
Q 38.921875 48.1875 33.109375 48.1875 
Q 26.21875 48.1875 22.15625 43.53125 
Q 18.109375 38.875 18.109375 30.90625 
L 18.109375 0 
L 9.078125 0 
L 9.078125 54.6875 
L 18.109375 54.6875 
L 18.109375 46.1875 
Q 21.1875 51.21875 25.484375 53.609375 
Q 29.78125 56 35.6875 56 
Q 41.65625 56 45.828125 52.96875 
Q 50 49.953125 52 44.1875 
z
" id="DejaVuSans-109"/>
       <path d="M 8.5 21.578125 
L 8.5 54.6875 
L 17.484375 54.6875 
L 17.484375 21.921875 
Q 17.484375 14.15625 20.5 10.265625 
Q 23.53125 6.390625 29.59375 6.390625 
Q 36.859375 6.390625 41.078125 11.03125 
Q 45.3125 15.671875 45.3125 23.6875 
L 45.3125 54.6875 
L 54.296875 54.6875 
L 54.296875 0 
L 45.3125 0 
L 45.3125 8.40625 
Q 42.046875 3.421875 37.71875 1 
Q 33.40625 -1.421875 27.6875 -1.421875 
Q 18.265625 -1.421875 13.375 4.4375 
Q 8.5 10.296875 8.5 21.578125 
z
M 31.109375 56 
z
" id="DejaVuSans-117"/>
       <path d="M 21 76.421875 
L 21 -23.578125 
L 12.703125 -23.578125 
L 12.703125 76.421875 
z
" id="DejaVuSans-124"/>
       <path d="M 4.203125 54.6875 
L 13.1875 54.6875 
L 24.421875 12.015625 
L 35.59375 54.6875 
L 46.1875 54.6875 
L 57.421875 12.015625 
L 68.609375 54.6875 
L 77.59375 54.6875 
L 63.28125 0 
L 52.6875 0 
L 40.921875 44.828125 
L 29.109375 0 
L 18.5 0 
z
" id="DejaVuSans-119"/>
       <path d="M 56.203125 29.59375 
L 56.203125 25.203125 
L 14.890625 25.203125 
Q 15.484375 15.921875 20.484375 11.0625 
Q 25.484375 6.203125 34.421875 6.203125 
Q 39.59375 6.203125 44.453125 7.46875 
Q 49.3125 8.734375 54.109375 11.28125 
L 54.109375 2.78125 
Q 49.265625 0.734375 44.1875 -0.34375 
Q 39.109375 -1.421875 33.890625 -1.421875 
Q 20.796875 -1.421875 13.15625 6.1875 
Q 5.515625 13.8125 5.515625 26.8125 
Q 5.515625 40.234375 12.765625 48.109375 
Q 20.015625 56 32.328125 56 
Q 43.359375 56 49.78125 48.890625 
Q 56.203125 41.796875 56.203125 29.59375 
z
M 47.21875 32.234375 
Q 47.125 39.59375 43.09375 43.984375 
Q 39.0625 48.390625 32.421875 48.390625 
Q 24.90625 48.390625 20.390625 44.140625 
Q 15.875 39.890625 15.1875 32.171875 
z
" id="DejaVuSans-101"/>
       <path d="M 9.421875 54.6875 
L 18.40625 54.6875 
L 18.40625 0 
L 9.421875 0 
z
M 9.421875 75.984375 
L 18.40625 75.984375 
L 18.40625 64.59375 
L 9.421875 64.59375 
z
" id="DejaVuSans-105"/>
       <path d="M 45.40625 27.984375 
Q 45.40625 37.75 41.375 43.109375 
Q 37.359375 48.484375 30.078125 48.484375 
Q 22.859375 48.484375 18.828125 43.109375 
Q 14.796875 37.75 14.796875 27.984375 
Q 14.796875 18.265625 18.828125 12.890625 
Q 22.859375 7.515625 30.078125 7.515625 
Q 37.359375 7.515625 41.375 12.890625 
Q 45.40625 18.265625 45.40625 27.984375 
z
M 54.390625 6.78125 
Q 54.390625 -7.171875 48.1875 -13.984375 
Q 42 -20.796875 29.203125 -20.796875 
Q 24.46875 -20.796875 20.265625 -20.09375 
Q 16.0625 -19.390625 12.109375 -17.921875 
L 12.109375 -9.1875 
Q 16.0625 -11.328125 19.921875 -12.34375 
Q 23.78125 -13.375 27.78125 -13.375 
Q 36.625 -13.375 41.015625 -8.765625 
Q 45.40625 -4.15625 45.40625 5.171875 
L 45.40625 9.625 
Q 42.625 4.78125 38.28125 2.390625 
Q 33.9375 0 27.875 0 
Q 17.828125 0 11.671875 7.65625 
Q 5.515625 15.328125 5.515625 27.984375 
Q 5.515625 40.671875 11.671875 48.328125 
Q 17.828125 56 27.875 56 
Q 33.9375 56 38.28125 53.609375 
Q 42.625 51.21875 45.40625 46.390625 
L 45.40625 54.6875 
L 54.390625 54.6875 
z
" id="DejaVuSans-103"/>
       <path d="M 54.890625 33.015625 
L 54.890625 0 
L 45.90625 0 
L 45.90625 32.71875 
Q 45.90625 40.484375 42.875 44.328125 
Q 39.84375 48.1875 33.796875 48.1875 
Q 26.515625 48.1875 22.3125 43.546875 
Q 18.109375 38.921875 18.109375 30.90625 
L 18.109375 0 
L 9.078125 0 
L 9.078125 75.984375 
L 18.109375 75.984375 
L 18.109375 46.1875 
Q 21.34375 51.125 25.703125 53.5625 
Q 30.078125 56 35.796875 56 
Q 45.21875 56 50.046875 50.171875 
Q 54.890625 44.34375 54.890625 33.015625 
z
" id="DejaVuSans-104"/>
       <path d="M 18.3125 70.21875 
L 18.3125 54.6875 
L 36.8125 54.6875 
L 36.8125 47.703125 
L 18.3125 47.703125 
L 18.3125 18.015625 
Q 18.3125 11.328125 20.140625 9.421875 
Q 21.96875 7.515625 27.59375 7.515625 
L 36.8125 7.515625 
L 36.8125 0 
L 27.59375 0 
Q 17.1875 0 13.234375 3.875 
Q 9.28125 7.765625 9.28125 18.015625 
L 9.28125 47.703125 
L 2.6875 47.703125 
L 2.6875 54.6875 
L 9.28125 54.6875 
L 9.28125 70.21875 
z
" id="DejaVuSans-116"/>
       <path d="M 10.59375 45.40625 
L 73.1875 45.40625 
L 73.1875 37.203125 
L 10.59375 37.203125 
z
M 10.59375 25.484375 
L 73.1875 25.484375 
L 73.1875 17.1875 
L 10.59375 17.1875 
z
" id="DejaVuSans-61"/>
      </defs>
      <use xlink:href="#DejaVuSans-109"/>
      <use x="97.412109" xlink:href="#DejaVuSans-117"/>
      <use x="160.791016" xlink:href="#DejaVuSans-124"/>
      <use x="194.482422" xlink:href="#DejaVuSans-119"/>
      <use x="276.269531" xlink:href="#DejaVuSans-101"/>
      <use x="337.792969" xlink:href="#DejaVuSans-105"/>
      <use x="365.576172" xlink:href="#DejaVuSans-103"/>
      <use x="429.052734" xlink:href="#DejaVuSans-104"/>
      <use x="492.431641" xlink:href="#DejaVuSans-116"/>
      <use x="531.640625" xlink:href="#DejaVuSans-61"/>
      <use x="615.429688" xlink:href="#DejaVuSans-53"/>
      <use x="679.052734" xlink:href="#DejaVuSans-48"/>
     </g>
    </g>
   </g>
   <g id="matplotlib.axis_2">
    <g id="ytick_1">
     <g id="line2d_9">
      <path clip-path="url(#p4856abd00f)" d="M 53.47825 240.252411 
L 433.19952 240.252411 
" style="fill:none;stroke:#cbcbcb;"/>
     </g>
     <g id="line2d_10"/>
     <g id="text_6">
      <!-- 0.0 -->
      <g transform="translate(27.713875 245.571317)scale(0.14 -0.14)">
       <use xlink:href="#DejaVuSans-48"/>
       <use x="63.623047" xlink:href="#DejaVuSans-46"/>
       <use x="95.410156" xlink:href="#DejaVuSans-48"/>
      </g>
     </g>
    </g>
    <g id="ytick_2">
     <g id="line2d_11">
      <path clip-path="url(#p4856abd00f)" d="M 53.47825 205.153451 
L 433.19952 205.153451 
" style="fill:none;stroke:#cbcbcb;"/>
     </g>
     <g id="line2d_12"/>
     <g id="text_7">
      <!-- 0.2 -->
      <g transform="translate(27.713875 210.472357)scale(0.14 -0.14)">
       <defs>
        <path d="M 19.1875 8.296875 
L 53.609375 8.296875 
L 53.609375 0 
L 7.328125 0 
L 7.328125 8.296875 
Q 12.9375 14.109375 22.625 23.890625 
Q 32.328125 33.6875 34.8125 36.53125 
Q 39.546875 41.84375 41.421875 45.53125 
Q 43.3125 49.21875 43.3125 52.78125 
Q 43.3125 58.59375 39.234375 62.25 
Q 35.15625 65.921875 28.609375 65.921875 
Q 23.96875 65.921875 18.8125 64.3125 
Q 13.671875 62.703125 7.8125 59.421875 
L 7.8125 69.390625 
Q 13.765625 71.78125 18.9375 73 
Q 24.125 74.21875 28.421875 74.21875 
Q 39.75 74.21875 46.484375 68.546875 
Q 53.21875 62.890625 53.21875 53.421875 
Q 53.21875 48.921875 51.53125 44.890625 
Q 49.859375 40.875 45.40625 35.40625 
Q 44.1875 33.984375 37.640625 27.21875 
Q 31.109375 20.453125 19.1875 8.296875 
z
" id="DejaVuSans-50"/>
       </defs>
       <use xlink:href="#DejaVuSans-48"/>
       <use x="63.623047" xlink:href="#DejaVuSans-46"/>
       <use x="95.410156" xlink:href="#DejaVuSans-50"/>
      </g>
     </g>
    </g>
    <g id="ytick_3">
     <g id="line2d_13">
      <path clip-path="url(#p4856abd00f)" d="M 53.47825 170.054491 
L 433.19952 170.054491 
" style="fill:none;stroke:#cbcbcb;"/>
     </g>
     <g id="line2d_14"/>
     <g id="text_8">
      <!-- 0.4 -->
      <g transform="translate(27.713875 175.373397)scale(0.14 -0.14)">
       <defs>
        <path d="M 37.796875 64.3125 
L 12.890625 25.390625 
L 37.796875 25.390625 
z
M 35.203125 72.90625 
L 47.609375 72.90625 
L 47.609375 25.390625 
L 58.015625 25.390625 
L 58.015625 17.1875 
L 47.609375 17.1875 
L 47.609375 0 
L 37.796875 0 
L 37.796875 17.1875 
L 4.890625 17.1875 
L 4.890625 26.703125 
z
" id="DejaVuSans-52"/>
       </defs>
       <use xlink:href="#DejaVuSans-48"/>
       <use x="63.623047" xlink:href="#DejaVuSans-46"/>
       <use x="95.410156" xlink:href="#DejaVuSans-52"/>
      </g>
     </g>
    </g>
    <g id="ytick_4">
     <g id="line2d_15">
      <path clip-path="url(#p4856abd00f)" d="M 53.47825 134.955531 
L 433.19952 134.955531 
" style="fill:none;stroke:#cbcbcb;"/>
     </g>
     <g id="line2d_16"/>
     <g id="text_9">
      <!-- 0.6 -->
      <g transform="translate(27.713875 140.274437)scale(0.14 -0.14)">
       <use xlink:href="#DejaVuSans-48"/>
       <use x="63.623047" xlink:href="#DejaVuSans-46"/>
       <use x="95.410156" xlink:href="#DejaVuSans-54"/>
      </g>
     </g>
    </g>
    <g id="ytick_5">
     <g id="line2d_17">
      <path clip-path="url(#p4856abd00f)" d="M 53.47825 99.856571 
L 433.19952 99.856571 
" style="fill:none;stroke:#cbcbcb;"/>
     </g>
     <g id="line2d_18"/>
     <g id="text_10">
      <!-- 0.8 -->
      <g transform="translate(27.713875 105.175478)scale(0.14 -0.14)">
       <use xlink:href="#DejaVuSans-48"/>
       <use x="63.623047" xlink:href="#DejaVuSans-46"/>
       <use x="95.410156" xlink:href="#DejaVuSans-56"/>
      </g>
     </g>
    </g>
    <g id="ytick_6">
     <g id="line2d_19">
      <path clip-path="url(#p4856abd00f)" d="M 53.47825 64.757611 
L 433.19952 64.757611 
" style="fill:none;stroke:#cbcbcb;"/>
     </g>
     <g id="line2d_20"/>
     <g id="text_11">
      <!-- 1.0 -->
      <g transform="translate(27.713875 70.076518)scale(0.14 -0.14)">
       <use xlink:href="#DejaVuSans-49"/>
       <use x="63.623047" xlink:href="#DejaVuSans-46"/>
       <use x="95.410156" xlink:href="#DejaVuSans-48"/>
      </g>
     </g>
    </g>
    <g id="ytick_7">
     <g id="line2d_21">
      <path clip-path="url(#p4856abd00f)" d="M 53.47825 29.658651 
L 433.19952 29.658651 
" style="fill:none;stroke:#cbcbcb;"/>
     </g>
     <g id="line2d_22"/>
     <g id="text_12">
      <!-- 1.2 -->
      <g transform="translate(27.713875 34.977558)scale(0.14 -0.14)">
       <use xlink:href="#DejaVuSans-49"/>
       <use x="63.623047" xlink:href="#DejaVuSans-46"/>
       <use x="95.410156" xlink:href="#DejaVuSans-50"/>
      </g>
     </g>
    </g>
    <g id="text_13">
     <!-- mật độ -->
     <g transform="translate(20.22 159.039947)rotate(-90)scale(0.168 -0.168)">
      <defs>
       <path d="M 34.28125 27.484375 
Q 23.390625 27.484375 19.1875 25 
Q 14.984375 22.515625 14.984375 16.5 
Q 14.984375 11.71875 18.140625 8.90625 
Q 21.296875 6.109375 26.703125 6.109375 
Q 34.1875 6.109375 38.703125 11.40625 
Q 43.21875 16.703125 43.21875 25.484375 
L 43.21875 27.484375 
z
M 52.203125 31.203125 
L 52.203125 0 
L 43.21875 0 
L 43.21875 8.296875 
Q 40.140625 3.328125 35.546875 0.953125 
Q 30.953125 -1.421875 24.3125 -1.421875 
Q 15.921875 -1.421875 10.953125 3.296875 
Q 6 8.015625 6 15.921875 
Q 6 25.140625 12.171875 29.828125 
Q 18.359375 34.515625 30.609375 34.515625 
L 43.21875 34.515625 
L 43.21875 35.40625 
Q 43.21875 41.609375 39.140625 45 
Q 35.0625 48.390625 27.6875 48.390625 
Q 23 48.390625 18.546875 47.265625 
Q 14.109375 46.140625 10.015625 43.890625 
L 10.015625 52.203125 
Q 14.9375 54.109375 19.578125 55.046875 
Q 24.21875 56 28.609375 56 
Q 40.484375 56 46.34375 49.84375 
Q 52.203125 43.703125 52.203125 31.203125 
z
M 25.390625 79.984375 
L 32.625 79.984375 
L 44.578125 61.625 
L 37.796875 61.625 
L 29 73.578125 
L 20.21875 61.625 
L 13.421875 61.625 
z
M 22.078125 -6.890625 
L 31.0625 -6.890625 
L 31.0625 -18.3125 
L 22.078125 -18.3125 
z
" id="DejaVuSans-7853"/>
       <path id="DejaVuSans-32"/>
       <path d="M 45.40625 46.390625 
L 45.40625 62.703125 
L 29.5 62.703125 
L 29.5 68.796875 
L 45.40625 68.796875 
L 45.40625 75.984375 
L 54.390625 75.984375 
L 54.390625 68.796875 
L 61.921875 68.796875 
L 61.921875 62.703125 
L 54.390625 62.703125 
L 54.390625 0 
L 45.40625 0 
L 45.40625 8.203125 
Q 42.578125 3.328125 38.25 0.953125 
Q 33.9375 -1.421875 27.875 -1.421875 
Q 17.96875 -1.421875 11.734375 6.484375 
Q 5.515625 14.40625 5.515625 27.296875 
Q 5.515625 40.1875 11.734375 48.09375 
Q 17.96875 56 27.875 56 
Q 33.9375 56 38.25 53.625 
Q 42.578125 51.265625 45.40625 46.390625 
z
M 14.796875 27.296875 
Q 14.796875 17.390625 18.875 11.75 
Q 22.953125 6.109375 30.078125 6.109375 
Q 37.203125 6.109375 41.296875 11.75 
Q 45.40625 17.390625 45.40625 27.296875 
Q 45.40625 37.203125 41.296875 42.84375 
Q 37.203125 48.484375 30.078125 48.484375 
Q 22.953125 48.484375 18.875 42.84375 
Q 14.796875 37.203125 14.796875 27.296875 
z
" id="DejaVuSans-273"/>
       <path d="M 26.03125 -6.890625 
L 35.015625 -6.890625 
L 35.015625 -18.3125 
L 26.03125 -18.3125 
z
M 30.609375 48.390625 
Q 23.390625 48.390625 19.1875 42.75 
Q 14.984375 37.109375 14.984375 27.296875 
Q 14.984375 17.484375 19.15625 11.84375 
Q 23.34375 6.203125 30.609375 6.203125 
Q 37.796875 6.203125 41.984375 11.859375 
Q 46.1875 17.53125 46.1875 27.296875 
Q 46.1875 37.015625 41.984375 42.703125 
Q 37.796875 48.390625 30.609375 48.390625 
z
M 30.609375 56 
Q 42.328125 56 49.015625 48.375 
Q 55.71875 40.765625 55.71875 27.296875 
Q 55.71875 13.875 49.015625 6.21875 
Q 42.328125 -1.421875 30.609375 -1.421875 
Q 18.84375 -1.421875 12.171875 6.21875 
Q 5.515625 13.875 5.515625 27.296875 
Q 5.515625 40.765625 12.171875 48.375 
Q 18.84375 56 30.609375 56 
z
M 26.03125 -6.890625 
L 35.015625 -6.890625 
L 35.015625 -18.3125 
L 26.03125 -18.3125 
z
M 27 79.984375 
L 34.234375 79.984375 
L 46.1875 61.625 
L 39.40625 61.625 
L 30.609375 73.578125 
L 21.828125 61.625 
L 15.046875 61.625 
z
" id="DejaVuSans-7897"/>
      </defs>
      <use xlink:href="#DejaVuSans-109"/>
      <use x="97.412109" xlink:href="#DejaVuSans-7853"/>
      <use x="158.691406" xlink:href="#DejaVuSans-116"/>
      <use x="197.900391" xlink:href="#DejaVuSans-32"/>
      <use x="229.6875" xlink:href="#DejaVuSans-273"/>
      <use x="293.164062" xlink:href="#DejaVuSans-7897"/>
     </g>
    </g>
   </g>
   <g id="PolyCollection_1">
    <defs>
     <path d="M 70.738308 -56.147109 
L 70.738308 -67.002629 
L 71.413848 -67.023902 
L 72.089389 -67.035028 
L 72.764929 -67.04769 
L 73.440469 -67.104827 
L 74.11601 -67.159355 
L 74.79155 -67.220535 
L 75.467091 -67.287765 
L 76.142631 -67.372886 
L 76.818172 -67.453465 
L 77.493712 -67.550908 
L 78.169252 -67.64274 
L 78.844793 -67.740711 
L 79.520333 -67.847014 
L 80.195874 -67.958236 
L 80.871414 -68.061425 
L 81.546954 -68.1779 
L 82.222495 -68.307443 
L 82.898035 -68.428294 
L 83.573576 -68.550002 
L 84.249116 -68.672402 
L 84.924657 -68.798206 
L 85.600197 -68.927239 
L 86.275737 -69.084573 
L 86.951278 -69.21735 
L 87.626818 -69.376389 
L 88.302359 -69.527684 
L 88.977899 -69.681015 
L 89.653439 -69.836324 
L 90.32898 -70.005997 
L 91.00452 -70.168122 
L 91.680061 -70.322298 
L 92.355601 -70.50225 
L 93.031142 -70.673292 
L 93.706682 -70.844555 
L 94.382222 -71.027986 
L 95.057763 -71.20423 
L 95.733303 -71.372695 
L 96.408844 -71.564174 
L 97.084384 -71.756636 
L 97.759925 -71.95038 
L 98.435465 -72.158371 
L 99.111005 -72.362454 
L 99.786546 -72.560495 
L 100.462086 -72.75951 
L 101.137627 -72.972352 
L 101.813167 -73.1903 
L 102.488707 -73.414402 
L 103.164248 -73.645803 
L 103.839788 -73.876078 
L 104.515329 -74.105955 
L 105.190869 -74.367582 
L 105.86641 -74.643246 
L 106.54195 -74.947379 
L 107.21749 -75.270131 
L 107.893031 -75.589222 
L 108.568571 -75.976031 
L 109.244112 -76.345925 
L 109.919652 -76.742398 
L 110.595192 -77.167243 
L 111.270733 -77.609494 
L 111.946273 -78.107628 
L 112.621814 -78.653792 
L 113.297354 -79.262905 
L 113.972895 -79.86868 
L 114.648435 -80.510182 
L 115.323975 -81.187082 
L 115.999516 -81.910899 
L 116.675056 -82.658202 
L 117.350597 -83.44866 
L 118.026137 -84.263145 
L 118.701678 -85.122956 
L 119.377218 -85.996349 
L 120.052758 -86.897803 
L 120.728299 -87.790505 
L 121.403839 -88.712243 
L 122.07938 -89.634867 
L 122.75492 -90.555071 
L 123.43046 -91.453874 
L 124.106001 -92.368704 
L 124.781541 -93.252908 
L 125.457082 -94.113716 
L 126.132622 -94.933689 
L 126.808163 -95.730225 
L 127.483703 -96.490222 
L 128.159243 -97.185998 
L 128.834784 -97.862162 
L 129.510324 -98.54655 
L 130.185865 -99.138488 
L 130.861405 -99.688362 
L 131.536946 -100.214902 
L 132.212486 -100.701068 
L 132.888026 -101.184696 
L 133.563567 -101.642269 
L 134.239107 -102.107886 
L 134.914648 -102.56995 
L 135.590188 -103.029693 
L 136.265728 -103.541943 
L 136.941269 -104.093547 
L 137.616809 -104.721775 
L 138.29235 -105.404961 
L 138.96789 -106.152121 
L 139.643431 -106.960874 
L 140.318971 -107.883203 
L 140.994511 -108.903883 
L 141.670052 -110.005673 
L 142.345592 -111.259791 
L 143.021133 -112.613923 
L 143.696673 -114.054424 
L 144.372213 -115.636646 
L 145.047754 -117.286016 
L 145.723294 -118.99737 
L 146.398835 -120.805585 
L 147.074375 -122.665506 
L 147.749916 -124.586843 
L 148.425456 -126.534247 
L 149.100996 -128.557168 
L 149.776537 -130.574476 
L 150.452077 -132.571298 
L 151.127618 -134.519979 
L 151.803158 -136.474727 
L 152.478699 -138.347549 
L 153.154239 -140.130452 
L 153.829779 -141.878788 
L 154.50532 -143.509169 
L 155.18086 -145.074881 
L 155.856401 -146.531253 
L 156.531941 -147.908397 
L 157.207481 -149.26776 
L 157.883022 -150.42656 
L 158.558562 -151.557195 
L 159.234103 -152.648525 
L 159.909643 -153.683519 
L 160.585184 -154.672895 
L 161.260724 -155.574382 
L 161.936264 -156.504987 
L 162.611805 -157.397229 
L 163.287345 -158.347971 
L 163.962886 -159.297812 
L 164.638426 -160.280074 
L 165.313967 -161.373304 
L 165.989507 -162.518657 
L 166.665047 -163.69707 
L 167.340588 -164.935157 
L 168.016128 -166.283922 
L 168.691669 -167.758384 
L 169.367209 -169.290676 
L 170.042749 -170.906904 
L 170.71829 -172.651618 
L 171.39383 -174.470687 
L 172.069371 -176.342913 
L 172.744911 -178.310593 
L 173.420452 -180.310779 
L 174.095992 -182.329216 
L 174.771532 -184.34351 
L 175.447073 -186.401812 
L 176.122613 -188.398606 
L 176.798154 -190.368923 
L 177.473694 -192.316752 
L 178.149234 -194.175152 
L 178.824775 -195.924452 
L 179.500315 -197.596863 
L 180.175856 -199.233559 
L 180.851396 -200.678059 
L 181.526937 -202.014454 
L 182.202477 -203.230713 
L 182.878017 -204.330567 
L 183.553558 -205.258154 
L 184.229098 -206.078625 
L 184.904639 -206.812584 
L 185.580179 -207.453265 
L 186.25572 -207.966135 
L 186.93126 -208.411923 
L 187.6068 -208.797106 
L 188.282341 -209.171843 
L 188.957881 -209.498014 
L 189.633422 -209.766379 
L 190.308962 -210.025573 
L 190.984502 -210.376874 
L 191.660043 -210.74049 
L 192.335583 -211.180894 
L 193.011124 -211.724218 
L 193.686664 -212.373051 
L 194.362205 -213.189095 
L 195.037745 -214.158936 
L 195.713285 -215.279356 
L 196.388826 -216.576007 
L 197.064366 -217.986611 
L 197.739907 -219.625733 
L 198.415447 -221.387351 
L 199.090987 -223.418396 
L 199.766528 -225.593898 
L 200.442068 -227.999587 
L 201.117609 -230.5321 
L 201.793149 -233.229175 
L 202.46869 -236.110495 
L 203.14423 -239.036241 
L 203.81977 -242.004004 
L 204.495311 -245.02803 
L 205.170851 -248.082388 
L 205.846392 -251.159869 
L 206.521932 -254.152217 
L 207.197473 -257.141072 
L 207.873013 -259.959393 
L 208.548553 -262.639501 
L 209.224094 -265.174108 
L 209.899634 -267.513031 
L 210.575175 -269.66008 
L 211.250715 -271.530893 
L 211.926255 -273.229052 
L 212.601796 -274.619228 
L 213.277336 -275.824331 
L 213.952877 -276.784094 
L 214.628417 -277.398239 
L 215.303958 -277.866502 
L 215.979498 -278.081113 
L 216.655038 -278.101786 
L 217.330579 -277.883345 
L 218.006119 -277.457243 
L 218.68166 -276.859229 
L 219.3572 -276.15151 
L 220.032741 -275.242943 
L 220.708281 -274.283429 
L 221.383821 -273.201486 
L 222.059362 -272.056737 
L 222.734902 -270.963836 
L 223.410443 -269.811518 
L 224.085983 -268.68319 
L 224.761523 -267.533571 
L 225.437064 -266.443721 
L 226.112604 -265.404818 
L 226.788145 -264.436552 
L 227.463685 -263.543362 
L 228.139226 -262.730043 
L 228.814766 -262.03912 
L 229.490306 -261.430262 
L 230.165847 -260.951363 
L 230.841387 -260.576687 
L 231.516928 -260.272905 
L 232.192468 -260.005946 
L 232.868008 -259.879432 
L 233.543549 -259.817102 
L 234.219089 -259.691085 
L 234.89463 -259.576285 
L 235.57017 -259.480093 
L 236.245711 -259.338363 
L 236.921251 -259.116142 
L 237.596791 -258.813546 
L 238.272332 -258.445582 
L 238.947872 -258.039095 
L 239.623413 -257.470369 
L 240.298953 -256.687218 
L 240.974494 -255.801493 
L 241.650034 -254.804659 
L 242.325574 -253.631065 
L 243.001115 -252.333652 
L 243.676655 -250.914767 
L 244.352196 -249.395587 
L 245.027736 -247.770422 
L 245.703276 -246.11294 
L 246.378817 -244.461472 
L 247.054357 -242.723456 
L 247.729898 -241.039636 
L 248.405438 -239.278403 
L 249.080979 -237.621522 
L 249.756519 -235.985091 
L 250.432059 -234.341545 
L 251.1076 -232.796779 
L 251.78314 -231.292739 
L 252.458681 -229.835177 
L 253.134221 -228.456829 
L 253.809762 -227.074731 
L 254.485302 -225.6565 
L 255.160842 -224.197493 
L 255.836383 -222.743667 
L 256.511923 -221.304964 
L 257.187464 -219.854689 
L 257.863004 -218.331458 
L 258.538544 -216.697504 
L 259.214085 -215.030154 
L 259.889625 -213.294061 
L 260.565166 -211.501962 
L 261.240706 -209.625309 
L 261.916247 -207.724229 
L 262.591787 -205.742249 
L 263.267327 -203.723465 
L 263.942868 -201.758185 
L 264.618408 -199.734186 
L 265.293949 -197.809156 
L 265.969489 -195.883918 
L 266.645029 -194.114923 
L 267.32057 -192.373572 
L 267.99611 -190.736505 
L 268.671651 -189.171847 
L 269.347191 -187.719188 
L 270.022732 -186.386009 
L 270.698272 -185.180778 
L 271.373812 -184.069182 
L 272.049353 -182.932252 
L 272.724893 -181.973055 
L 273.400434 -181.05853 
L 274.075974 -180.205086 
L 274.751515 -179.359277 
L 275.427055 -178.551348 
L 276.102595 -177.705005 
L 276.778136 -176.873457 
L 277.453676 -176.008843 
L 278.129217 -175.084631 
L 278.804757 -174.040034 
L 279.480297 -172.991068 
L 280.155838 -171.853782 
L 280.831378 -170.625272 
L 281.506919 -169.390329 
L 282.182459 -168.010886 
L 282.858 -166.575157 
L 283.53354 -165.139743 
L 284.20908 -163.639575 
L 284.884621 -162.072997 
L 285.560161 -160.513244 
L 286.235702 -158.938265 
L 286.911242 -157.345522 
L 287.586783 -155.775154 
L 288.262323 -154.178498 
L 288.937863 -152.662891 
L 289.613404 -151.182661 
L 290.288944 -149.810133 
L 290.964485 -148.429077 
L 291.640025 -147.142091 
L 292.315565 -145.92061 
L 292.991106 -144.807122 
L 293.666646 -143.759439 
L 294.342187 -142.800094 
L 295.017727 -141.886943 
L 295.693268 -141.056854 
L 296.368808 -140.317545 
L 297.044348 -139.634853 
L 297.719889 -139.051935 
L 298.395429 -138.498456 
L 299.07097 -137.992971 
L 299.74651 -137.623077 
L 300.42205 -137.248307 
L 301.097591 -136.898749 
L 301.773131 -136.631911 
L 302.448672 -136.38089 
L 303.124212 -136.128141 
L 303.799753 -135.937687 
L 304.475293 -135.742803 
L 305.150833 -135.529493 
L 305.826374 -135.285629 
L 306.501914 -135.039371 
L 307.177455 -134.737474 
L 307.852995 -134.452826 
L 308.528536 -134.08367 
L 309.204076 -133.665782 
L 309.879616 -133.168947 
L 310.555157 -132.600422 
L 311.230697 -131.984589 
L 311.906238 -131.256664 
L 312.581778 -130.443396 
L 313.257318 -129.509284 
L 313.932859 -128.495199 
L 314.608399 -127.37792 
L 315.28394 -126.167692 
L 315.95948 -124.784042 
L 316.635021 -123.373064 
L 317.310561 -121.864855 
L 317.986101 -120.256835 
L 318.661642 -118.578961 
L 319.337182 -116.789387 
L 320.012723 -114.975341 
L 320.688263 -113.11263 
L 321.363803 -111.231803 
L 322.039344 -109.307696 
L 322.714884 -107.402357 
L 323.390425 -105.474898 
L 324.065965 -103.553271 
L 324.741506 -101.641429 
L 325.417046 -99.764154 
L 326.092586 -97.895149 
L 326.768127 -96.109977 
L 327.443667 -94.368351 
L 328.119208 -92.692473 
L 328.794748 -91.068557 
L 329.470289 -89.513396 
L 330.145829 -88.03741 
L 330.821369 -86.612427 
L 331.49691 -85.284995 
L 332.17245 -84.023239 
L 332.847991 -82.854351 
L 333.523531 -81.768179 
L 334.199071 -80.786254 
L 334.874612 -79.838097 
L 335.550152 -79.024798 
L 336.225693 -78.278308 
L 336.901233 -77.610968 
L 337.576774 -77.043393 
L 338.252314 -76.561139 
L 338.927854 -76.180673 
L 339.603395 -75.818889 
L 340.278935 -75.604593 
L 340.954476 -75.454691 
L 341.630016 -75.341115 
L 342.305557 -75.271074 
L 342.981097 -75.257008 
L 343.656637 -75.276536 
L 344.332178 -75.329098 
L 345.007718 -75.382597 
L 345.683259 -75.448832 
L 346.358799 -75.496019 
L 347.034339 -75.539769 
L 347.70988 -75.559513 
L 348.38542 -75.555146 
L 349.060961 -75.48965 
L 349.736501 -75.402446 
L 350.412042 -75.265911 
L 351.087582 -75.069229 
L 351.763122 -74.834143 
L 352.438663 -74.562026 
L 353.114203 -74.233768 
L 353.789744 -73.852818 
L 354.465284 -73.43535 
L 355.140824 -72.975919 
L 355.816365 -72.491207 
L 356.491905 -71.995342 
L 357.167446 -71.480976 
L 357.842986 -70.96293 
L 358.518527 -70.434115 
L 359.194067 -69.899574 
L 359.869607 -69.354142 
L 360.545148 -68.813741 
L 361.220688 -68.290902 
L 361.896229 -67.776037 
L 362.571769 -67.2716 
L 363.24731 -66.779509 
L 363.92285 -66.304147 
L 364.59839 -65.846669 
L 365.273931 -65.405065 
L 365.949471 -64.979949 
L 366.625012 -64.571672 
L 367.300552 -64.18037 
L 367.976092 -63.806002 
L 368.651633 -63.448391 
L 369.327173 -63.107251 
L 370.002714 -62.772539 
L 370.678254 -62.465484 
L 371.353795 -62.173122 
L 372.029335 -61.866036 
L 372.704875 -61.599093 
L 373.380416 -61.356028 
L 374.055956 -61.10485 
L 374.731497 -60.879093 
L 375.407037 -60.675263 
L 376.082578 -60.461505 
L 376.758118 -60.281134 
L 377.433658 -60.109078 
L 378.109199 -59.935691 
L 378.784739 -59.782539 
L 379.46028 -59.636931 
L 380.13582 -59.49866 
L 380.81136 -59.367404 
L 381.486901 -59.24273 
L 382.162441 -59.114433 
L 382.837982 -59.003554 
L 383.513522 -58.887243 
L 384.189063 -58.786526 
L 384.864603 -58.678561 
L 385.540143 -58.584415 
L 386.215684 -58.491001 
L 386.891224 -58.39785 
L 387.566765 -58.304527 
L 388.242305 -58.210665 
L 388.917845 -58.106308 
L 389.593386 -58.003265 
L 390.268926 -57.910648 
L 390.944467 -57.816138 
L 391.620007 -57.732731 
L 392.295548 -57.651994 
L 392.971088 -57.562796 
L 393.646628 -57.475774 
L 394.322169 -57.391983 
L 394.997709 -57.312552 
L 395.67325 -57.238661 
L 396.34879 -57.161841 
L 397.024331 -57.104951 
L 397.699871 -57.05667 
L 398.375411 -57.018215 
L 399.050952 -56.990697 
L 399.726492 -56.9751 
L 400.402033 -56.972254 
L 401.077573 -56.982808 
L 401.753113 -56.997539 
L 402.428654 -57.038331 
L 403.104194 -57.092674 
L 403.779735 -57.160393 
L 404.455275 -57.241019 
L 405.130816 -57.333784 
L 405.806356 -57.437617 
L 406.481896 -57.551149 
L 407.157437 -57.672726 
L 407.832977 -57.800427 
L 408.508518 -57.932099 
L 409.184058 -58.065391 
L 409.859598 -58.197805 
L 410.535139 -58.326753 
L 411.210679 -58.449616 
L 411.88622 -58.56382 
L 412.56176 -58.6669 
L 413.237301 -58.746902 
L 413.912841 -58.823451 
L 414.588381 -58.882338 
L 415.263922 -58.922315 
L 415.939462 -58.942521 
L 415.939462 -56.147109 
L 415.939462 -56.147109 
L 415.263922 -56.147109 
L 414.588381 -56.147109 
L 413.912841 -56.147109 
L 413.237301 -56.147109 
L 412.56176 -56.147109 
L 411.88622 -56.147109 
L 411.210679 -56.147109 
L 410.535139 -56.147109 
L 409.859598 -56.147109 
L 409.184058 -56.147109 
L 408.508518 -56.147109 
L 407.832977 -56.147109 
L 407.157437 -56.147109 
L 406.481896 -56.147109 
L 405.806356 -56.147109 
L 405.130816 -56.147109 
L 404.455275 -56.147109 
L 403.779735 -56.147109 
L 403.104194 -56.147109 
L 402.428654 -56.147109 
L 401.753113 -56.147109 
L 401.077573 -56.147109 
L 400.402033 -56.147109 
L 399.726492 -56.147109 
L 399.050952 -56.147109 
L 398.375411 -56.147109 
L 397.699871 -56.147109 
L 397.024331 -56.147109 
L 396.34879 -56.147109 
L 395.67325 -56.147109 
L 394.997709 -56.147109 
L 394.322169 -56.147109 
L 393.646628 -56.147109 
L 392.971088 -56.147109 
L 392.295548 -56.147109 
L 391.620007 -56.147109 
L 390.944467 -56.147109 
L 390.268926 -56.147109 
L 389.593386 -56.147109 
L 388.917845 -56.147109 
L 388.242305 -56.147109 
L 387.566765 -56.147109 
L 386.891224 -56.147109 
L 386.215684 -56.147109 
L 385.540143 -56.147109 
L 384.864603 -56.147109 
L 384.189063 -56.147109 
L 383.513522 -56.147109 
L 382.837982 -56.147109 
L 382.162441 -56.147109 
L 381.486901 -56.147109 
L 380.81136 -56.147109 
L 380.13582 -56.147109 
L 379.46028 -56.147109 
L 378.784739 -56.147109 
L 378.109199 -56.147109 
L 377.433658 -56.147109 
L 376.758118 -56.147109 
L 376.082578 -56.147109 
L 375.407037 -56.147109 
L 374.731497 -56.147109 
L 374.055956 -56.147109 
L 373.380416 -56.147109 
L 372.704875 -56.147109 
L 372.029335 -56.147109 
L 371.353795 -56.147109 
L 370.678254 -56.147109 
L 370.002714 -56.147109 
L 369.327173 -56.147109 
L 368.651633 -56.147109 
L 367.976092 -56.147109 
L 367.300552 -56.147109 
L 366.625012 -56.147109 
L 365.949471 -56.147109 
L 365.273931 -56.147109 
L 364.59839 -56.147109 
L 363.92285 -56.147109 
L 363.24731 -56.147109 
L 362.571769 -56.147109 
L 361.896229 -56.147109 
L 361.220688 -56.147109 
L 360.545148 -56.147109 
L 359.869607 -56.147109 
L 359.194067 -56.147109 
L 358.518527 -56.147109 
L 357.842986 -56.147109 
L 357.167446 -56.147109 
L 356.491905 -56.147109 
L 355.816365 -56.147109 
L 355.140824 -56.147109 
L 354.465284 -56.147109 
L 353.789744 -56.147109 
L 353.114203 -56.147109 
L 352.438663 -56.147109 
L 351.763122 -56.147109 
L 351.087582 -56.147109 
L 350.412042 -56.147109 
L 349.736501 -56.147109 
L 349.060961 -56.147109 
L 348.38542 -56.147109 
L 347.70988 -56.147109 
L 347.034339 -56.147109 
L 346.358799 -56.147109 
L 345.683259 -56.147109 
L 345.007718 -56.147109 
L 344.332178 -56.147109 
L 343.656637 -56.147109 
L 342.981097 -56.147109 
L 342.305557 -56.147109 
L 341.630016 -56.147109 
L 340.954476 -56.147109 
L 340.278935 -56.147109 
L 339.603395 -56.147109 
L 338.927854 -56.147109 
L 338.252314 -56.147109 
L 337.576774 -56.147109 
L 336.901233 -56.147109 
L 336.225693 -56.147109 
L 335.550152 -56.147109 
L 334.874612 -56.147109 
L 334.199071 -56.147109 
L 333.523531 -56.147109 
L 332.847991 -56.147109 
L 332.17245 -56.147109 
L 331.49691 -56.147109 
L 330.821369 -56.147109 
L 330.145829 -56.147109 
L 329.470289 -56.147109 
L 328.794748 -56.147109 
L 328.119208 -56.147109 
L 327.443667 -56.147109 
L 326.768127 -56.147109 
L 326.092586 -56.147109 
L 325.417046 -56.147109 
L 324.741506 -56.147109 
L 324.065965 -56.147109 
L 323.390425 -56.147109 
L 322.714884 -56.147109 
L 322.039344 -56.147109 
L 321.363803 -56.147109 
L 320.688263 -56.147109 
L 320.012723 -56.147109 
L 319.337182 -56.147109 
L 318.661642 -56.147109 
L 317.986101 -56.147109 
L 317.310561 -56.147109 
L 316.635021 -56.147109 
L 315.95948 -56.147109 
L 315.28394 -56.147109 
L 314.608399 -56.147109 
L 313.932859 -56.147109 
L 313.257318 -56.147109 
L 312.581778 -56.147109 
L 311.906238 -56.147109 
L 311.230697 -56.147109 
L 310.555157 -56.147109 
L 309.879616 -56.147109 
L 309.204076 -56.147109 
L 308.528536 -56.147109 
L 307.852995 -56.147109 
L 307.177455 -56.147109 
L 306.501914 -56.147109 
L 305.826374 -56.147109 
L 305.150833 -56.147109 
L 304.475293 -56.147109 
L 303.799753 -56.147109 
L 303.124212 -56.147109 
L 302.448672 -56.147109 
L 301.773131 -56.147109 
L 301.097591 -56.147109 
L 300.42205 -56.147109 
L 299.74651 -56.147109 
L 299.07097 -56.147109 
L 298.395429 -56.147109 
L 297.719889 -56.147109 
L 297.044348 -56.147109 
L 296.368808 -56.147109 
L 295.693268 -56.147109 
L 295.017727 -56.147109 
L 294.342187 -56.147109 
L 293.666646 -56.147109 
L 292.991106 -56.147109 
L 292.315565 -56.147109 
L 291.640025 -56.147109 
L 290.964485 -56.147109 
L 290.288944 -56.147109 
L 289.613404 -56.147109 
L 288.937863 -56.147109 
L 288.262323 -56.147109 
L 287.586783 -56.147109 
L 286.911242 -56.147109 
L 286.235702 -56.147109 
L 285.560161 -56.147109 
L 284.884621 -56.147109 
L 284.20908 -56.147109 
L 283.53354 -56.147109 
L 282.858 -56.147109 
L 282.182459 -56.147109 
L 281.506919 -56.147109 
L 280.831378 -56.147109 
L 280.155838 -56.147109 
L 279.480297 -56.147109 
L 278.804757 -56.147109 
L 278.129217 -56.147109 
L 277.453676 -56.147109 
L 276.778136 -56.147109 
L 276.102595 -56.147109 
L 275.427055 -56.147109 
L 274.751515 -56.147109 
L 274.075974 -56.147109 
L 273.400434 -56.147109 
L 272.724893 -56.147109 
L 272.049353 -56.147109 
L 271.373812 -56.147109 
L 270.698272 -56.147109 
L 270.022732 -56.147109 
L 269.347191 -56.147109 
L 268.671651 -56.147109 
L 267.99611 -56.147109 
L 267.32057 -56.147109 
L 266.645029 -56.147109 
L 265.969489 -56.147109 
L 265.293949 -56.147109 
L 264.618408 -56.147109 
L 263.942868 -56.147109 
L 263.267327 -56.147109 
L 262.591787 -56.147109 
L 261.916247 -56.147109 
L 261.240706 -56.147109 
L 260.565166 -56.147109 
L 259.889625 -56.147109 
L 259.214085 -56.147109 
L 258.538544 -56.147109 
L 257.863004 -56.147109 
L 257.187464 -56.147109 
L 256.511923 -56.147109 
L 255.836383 -56.147109 
L 255.160842 -56.147109 
L 254.485302 -56.147109 
L 253.809762 -56.147109 
L 253.134221 -56.147109 
L 252.458681 -56.147109 
L 251.78314 -56.147109 
L 251.1076 -56.147109 
L 250.432059 -56.147109 
L 249.756519 -56.147109 
L 249.080979 -56.147109 
L 248.405438 -56.147109 
L 247.729898 -56.147109 
L 247.054357 -56.147109 
L 246.378817 -56.147109 
L 245.703276 -56.147109 
L 245.027736 -56.147109 
L 244.352196 -56.147109 
L 243.676655 -56.147109 
L 243.001115 -56.147109 
L 242.325574 -56.147109 
L 241.650034 -56.147109 
L 240.974494 -56.147109 
L 240.298953 -56.147109 
L 239.623413 -56.147109 
L 238.947872 -56.147109 
L 238.272332 -56.147109 
L 237.596791 -56.147109 
L 236.921251 -56.147109 
L 236.245711 -56.147109 
L 235.57017 -56.147109 
L 234.89463 -56.147109 
L 234.219089 -56.147109 
L 233.543549 -56.147109 
L 232.868008 -56.147109 
L 232.192468 -56.147109 
L 231.516928 -56.147109 
L 230.841387 -56.147109 
L 230.165847 -56.147109 
L 229.490306 -56.147109 
L 228.814766 -56.147109 
L 228.139226 -56.147109 
L 227.463685 -56.147109 
L 226.788145 -56.147109 
L 226.112604 -56.147109 
L 225.437064 -56.147109 
L 224.761523 -56.147109 
L 224.085983 -56.147109 
L 223.410443 -56.147109 
L 222.734902 -56.147109 
L 222.059362 -56.147109 
L 221.383821 -56.147109 
L 220.708281 -56.147109 
L 220.032741 -56.147109 
L 219.3572 -56.147109 
L 218.68166 -56.147109 
L 218.006119 -56.147109 
L 217.330579 -56.147109 
L 216.655038 -56.147109 
L 215.979498 -56.147109 
L 215.303958 -56.147109 
L 214.628417 -56.147109 
L 213.952877 -56.147109 
L 213.277336 -56.147109 
L 212.601796 -56.147109 
L 211.926255 -56.147109 
L 211.250715 -56.147109 
L 210.575175 -56.147109 
L 209.899634 -56.147109 
L 209.224094 -56.147109 
L 208.548553 -56.147109 
L 207.873013 -56.147109 
L 207.197473 -56.147109 
L 206.521932 -56.147109 
L 205.846392 -56.147109 
L 205.170851 -56.147109 
L 204.495311 -56.147109 
L 203.81977 -56.147109 
L 203.14423 -56.147109 
L 202.46869 -56.147109 
L 201.793149 -56.147109 
L 201.117609 -56.147109 
L 200.442068 -56.147109 
L 199.766528 -56.147109 
L 199.090987 -56.147109 
L 198.415447 -56.147109 
L 197.739907 -56.147109 
L 197.064366 -56.147109 
L 196.388826 -56.147109 
L 195.713285 -56.147109 
L 195.037745 -56.147109 
L 194.362205 -56.147109 
L 193.686664 -56.147109 
L 193.011124 -56.147109 
L 192.335583 -56.147109 
L 191.660043 -56.147109 
L 190.984502 -56.147109 
L 190.308962 -56.147109 
L 189.633422 -56.147109 
L 188.957881 -56.147109 
L 188.282341 -56.147109 
L 187.6068 -56.147109 
L 186.93126 -56.147109 
L 186.25572 -56.147109 
L 185.580179 -56.147109 
L 184.904639 -56.147109 
L 184.229098 -56.147109 
L 183.553558 -56.147109 
L 182.878017 -56.147109 
L 182.202477 -56.147109 
L 181.526937 -56.147109 
L 180.851396 -56.147109 
L 180.175856 -56.147109 
L 179.500315 -56.147109 
L 178.824775 -56.147109 
L 178.149234 -56.147109 
L 177.473694 -56.147109 
L 176.798154 -56.147109 
L 176.122613 -56.147109 
L 175.447073 -56.147109 
L 174.771532 -56.147109 
L 174.095992 -56.147109 
L 173.420452 -56.147109 
L 172.744911 -56.147109 
L 172.069371 -56.147109 
L 171.39383 -56.147109 
L 170.71829 -56.147109 
L 170.042749 -56.147109 
L 169.367209 -56.147109 
L 168.691669 -56.147109 
L 168.016128 -56.147109 
L 167.340588 -56.147109 
L 166.665047 -56.147109 
L 165.989507 -56.147109 
L 165.313967 -56.147109 
L 164.638426 -56.147109 
L 163.962886 -56.147109 
L 163.287345 -56.147109 
L 162.611805 -56.147109 
L 161.936264 -56.147109 
L 161.260724 -56.147109 
L 160.585184 -56.147109 
L 159.909643 -56.147109 
L 159.234103 -56.147109 
L 158.558562 -56.147109 
L 157.883022 -56.147109 
L 157.207481 -56.147109 
L 156.531941 -56.147109 
L 155.856401 -56.147109 
L 155.18086 -56.147109 
L 154.50532 -56.147109 
L 153.829779 -56.147109 
L 153.154239 -56.147109 
L 152.478699 -56.147109 
L 151.803158 -56.147109 
L 151.127618 -56.147109 
L 150.452077 -56.147109 
L 149.776537 -56.147109 
L 149.100996 -56.147109 
L 148.425456 -56.147109 
L 147.749916 -56.147109 
L 147.074375 -56.147109 
L 146.398835 -56.147109 
L 145.723294 -56.147109 
L 145.047754 -56.147109 
L 144.372213 -56.147109 
L 143.696673 -56.147109 
L 143.021133 -56.147109 
L 142.345592 -56.147109 
L 141.670052 -56.147109 
L 140.994511 -56.147109 
L 140.318971 -56.147109 
L 139.643431 -56.147109 
L 138.96789 -56.147109 
L 138.29235 -56.147109 
L 137.616809 -56.147109 
L 136.941269 -56.147109 
L 136.265728 -56.147109 
L 135.590188 -56.147109 
L 134.914648 -56.147109 
L 134.239107 -56.147109 
L 133.563567 -56.147109 
L 132.888026 -56.147109 
L 132.212486 -56.147109 
L 131.536946 -56.147109 
L 130.861405 -56.147109 
L 130.185865 -56.147109 
L 129.510324 -56.147109 
L 128.834784 -56.147109 
L 128.159243 -56.147109 
L 127.483703 -56.147109 
L 126.808163 -56.147109 
L 126.132622 -56.147109 
L 125.457082 -56.147109 
L 124.781541 -56.147109 
L 124.106001 -56.147109 
L 123.43046 -56.147109 
L 122.75492 -56.147109 
L 122.07938 -56.147109 
L 121.403839 -56.147109 
L 120.728299 -56.147109 
L 120.052758 -56.147109 
L 119.377218 -56.147109 
L 118.701678 -56.147109 
L 118.026137 -56.147109 
L 117.350597 -56.147109 
L 116.675056 -56.147109 
L 115.999516 -56.147109 
L 115.323975 -56.147109 
L 114.648435 -56.147109 
L 113.972895 -56.147109 
L 113.297354 -56.147109 
L 112.621814 -56.147109 
L 111.946273 -56.147109 
L 111.270733 -56.147109 
L 110.595192 -56.147109 
L 109.919652 -56.147109 
L 109.244112 -56.147109 
L 108.568571 -56.147109 
L 107.893031 -56.147109 
L 107.21749 -56.147109 
L 106.54195 -56.147109 
L 105.86641 -56.147109 
L 105.190869 -56.147109 
L 104.515329 -56.147109 
L 103.839788 -56.147109 
L 103.164248 -56.147109 
L 102.488707 -56.147109 
L 101.813167 -56.147109 
L 101.137627 -56.147109 
L 100.462086 -56.147109 
L 99.786546 -56.147109 
L 99.111005 -56.147109 
L 98.435465 -56.147109 
L 97.759925 -56.147109 
L 97.084384 -56.147109 
L 96.408844 -56.147109 
L 95.733303 -56.147109 
L 95.057763 -56.147109 
L 94.382222 -56.147109 
L 93.706682 -56.147109 
L 93.031142 -56.147109 
L 92.355601 -56.147109 
L 91.680061 -56.147109 
L 91.00452 -56.147109 
L 90.32898 -56.147109 
L 89.653439 -56.147109 
L 88.977899 -56.147109 
L 88.302359 -56.147109 
L 87.626818 -56.147109 
L 86.951278 -56.147109 
L 86.275737 -56.147109 
L 85.600197 -56.147109 
L 84.924657 -56.147109 
L 84.249116 -56.147109 
L 83.573576 -56.147109 
L 82.898035 -56.147109 
L 82.222495 -56.147109 
L 81.546954 -56.147109 
L 80.871414 -56.147109 
L 80.195874 -56.147109 
L 79.520333 -56.147109 
L 78.844793 -56.147109 
L 78.169252 -56.147109 
L 77.493712 -56.147109 
L 76.818172 -56.147109 
L 76.142631 -56.147109 
L 75.467091 -56.147109 
L 74.79155 -56.147109 
L 74.11601 -56.147109 
L 73.440469 -56.147109 
L 72.764929 -56.147109 
L 72.089389 -56.147109 
L 71.413848 -56.147109 
L 70.738308 -56.147109 
z
" id="md73c321908" style="stroke:#008fd5;stroke-opacity:0;stroke-width:0.5;"/>
    </defs>
    <g clip-path="url(#p4856abd00f)">
     <use style="fill:#008fd5;fill-opacity:0;stroke:#008fd5;stroke-opacity:0;stroke-width:0.5;" x="0" xlink:href="#md73c321908" y="296.39952"/>
    </g>
   </g>
   <g id="line2d_23">
    <path clip-path="url(#p4856abd00f)" d="M 70.738308 229.396891 
L 74.79155 229.178985 
L 78.169252 228.75678 
L 82.898035 227.971226 
L 87.626818 227.023131 
L 93.706682 225.554965 
L 101.137627 223.427168 
L 105.190869 222.031938 
L 107.893031 220.810298 
L 111.270733 218.790026 
L 112.621814 217.745728 
L 115.323975 215.212438 
L 117.350597 212.95086 
L 119.377218 210.403171 
L 126.808163 200.669295 
L 128.834784 198.537358 
L 130.185865 197.261032 
L 132.212486 195.698452 
L 136.941269 192.305973 
L 138.29235 190.994559 
L 139.643431 189.438646 
L 140.994511 187.495637 
L 142.345592 185.139729 
L 143.696673 182.345096 
L 145.723294 177.40215 
L 148.425456 169.865273 
L 152.478699 158.051971 
L 154.50532 152.890351 
L 155.856401 149.868267 
L 157.883022 145.97296 
L 159.909643 142.716001 
L 161.936264 139.894533 
L 163.962886 137.101708 
L 165.313967 135.026216 
L 167.340588 131.464363 
L 168.691669 128.641136 
L 170.042749 125.492616 
L 172.069371 120.056607 
L 178.824775 100.475068 
L 180.851396 95.721461 
L 182.202477 93.168807 
L 183.553558 91.141366 
L 184.904639 89.586936 
L 186.25572 88.433385 
L 188.282341 87.227677 
L 189.633422 86.633141 
L 190.984502 86.022646 
L 192.335583 85.218626 
L 193.686664 84.026469 
L 195.037745 82.240584 
L 196.388826 79.823513 
L 197.739907 76.773787 
L 199.090987 72.981124 
L 200.442068 68.399933 
L 201.793149 63.170345 
L 205.170851 48.317132 
L 207.873013 36.440127 
L 209.224094 31.225412 
L 210.575175 26.73944 
L 211.926255 23.170468 
L 213.277336 20.575189 
L 213.952877 19.615426 
L 215.303958 18.533018 
L 215.979498 18.318407 
L 216.655038 18.297734 
L 217.330579 18.516175 
L 218.006119 18.942277 
L 219.3572 20.24801 
L 220.708281 22.116091 
L 224.085983 27.71633 
L 226.112604 30.994702 
L 227.463685 32.856158 
L 228.814766 34.3604 
L 230.165847 35.448157 
L 231.516928 36.126615 
L 232.192468 36.393574 
L 236.921251 37.283378 
L 238.272332 37.953938 
L 238.947872 38.360425 
L 239.623413 38.929151 
L 240.974494 40.598027 
L 242.325574 42.768455 
L 243.676655 45.484753 
L 245.703276 50.28658 
L 252.458681 66.564343 
L 255.836383 73.655853 
L 257.863004 78.068062 
L 259.889625 83.105459 
L 261.916247 88.675291 
L 266.645029 102.284597 
L 268.671651 107.227673 
L 270.022732 110.013511 
L 272.049353 113.467268 
L 274.075974 116.194434 
L 278.129217 121.314889 
L 280.155838 124.545738 
L 282.182459 128.388634 
L 284.884621 134.326523 
L 290.288944 146.589387 
L 291.640025 149.257429 
L 292.991106 151.592398 
L 294.342187 153.599426 
L 295.693268 155.342666 
L 297.044348 156.764667 
L 299.07097 158.406549 
L 301.773131 159.767609 
L 304.475293 160.656717 
L 306.501914 161.360149 
L 308.528536 162.31585 
L 309.879616 163.230573 
L 311.230697 164.414931 
L 312.581778 165.956124 
L 313.932859 167.904321 
L 315.28394 170.231828 
L 317.310561 174.534665 
L 319.337182 179.610133 
L 322.714884 188.997163 
L 326.768127 200.289543 
L 328.794748 205.330963 
L 330.821369 209.787093 
L 332.847991 213.545169 
L 334.199071 215.613266 
L 335.550152 217.374722 
L 336.901233 218.788552 
L 338.252314 219.838381 
L 339.603395 220.580631 
L 340.954476 220.944829 
L 342.305557 221.128446 
L 344.332178 221.070422 
L 348.38542 220.844374 
L 350.412042 221.133609 
L 352.438663 221.837494 
L 353.789744 222.546702 
L 355.816365 223.908313 
L 359.194067 226.499946 
L 362.571769 229.12792 
L 365.273931 230.994455 
L 367.976092 232.593518 
L 370.678254 233.934036 
L 374.055956 235.29467 
L 376.758118 236.118386 
L 380.13582 236.90086 
L 384.864603 237.720959 
L 396.34879 239.237679 
L 399.726492 239.42442 
L 402.428654 239.361189 
L 405.130816 239.065736 
L 409.184058 238.334129 
L 413.237301 237.652618 
L 415.939462 237.456999 
L 415.939462 237.456999 
" style="fill:none;stroke:#008fd5;stroke-width:4;"/>
   </g>
   <g id="patch_3">
    <path d="M 53.47825 251.350145 
L 53.47825 7.2 
" style="fill:none;stroke:#f0f0f0;stroke-linecap:square;stroke-linejoin:miter;stroke-width:3;"/>
   </g>
   <g id="patch_4">
    <path d="M 433.19952 251.350145 
L 433.19952 7.2 
" style="fill:none;stroke:#f0f0f0;stroke-linecap:square;stroke-linejoin:miter;stroke-width:3;"/>
   </g>
   <g id="patch_5">
    <path d="M 53.47825 251.350145 
L 433.19952 251.350145 
" style="fill:none;stroke:#f0f0f0;stroke-linecap:square;stroke-linejoin:miter;stroke-width:3;"/>
   </g>
   <g id="patch_6">
    <path d="M 53.47825 7.2 
L 433.19952 7.2 
" style="fill:none;stroke:#f0f0f0;stroke-linecap:square;stroke-linejoin:miter;stroke-width:3;"/>
   </g>
  </g>
 </g>
 <defs>
  <clipPath id="p4856abd00f">
   <rect height="244.150145" width="379.72127" x="53.47825" y="7.2"/>
  </clipPath>
 </defs>
</svg>
