<?xml version="1.0" encoding="utf-8" standalone="no"?>
<!DOCTYPE svg PUBLIC "-//W3C//DTD SVG 1.1//EN"
  "http://www.w3.org/Graphics/SVG/1.1/DTD/svg11.dtd">
<!-- Created with matplotlib (https://matplotlib.org/) -->
<svg height="270.610825pt" version="1.1" viewBox="0 0 702.300557 270.610825" width="702.300557pt" xmlns="http://www.w3.org/2000/svg" xmlns:xlink="http://www.w3.org/1999/xlink">
 <defs>
  <style type="text/css">
*{stroke-linecap:butt;stroke-linejoin:round;}
  </style>
 </defs>
 <g id="figure_1">
  <g id="patch_1">
   <path d="M 0 270.610825 
L 702.300557 270.610825 
L 702.300557 0 
L 0 0 
z
" style="fill:#f0f0f0;"/>
  </g>
  <g id="axes_1">
   <g id="patch_2">
    <path d="M 53.47825 225.669075 
L 246.400915 225.669075 
L 246.400915 28.51845 
L 53.47825 28.51845 
z
" style="fill:#f0f0f0;"/>
   </g>
   <g id="matplotlib.axis_1">
    <g id="xtick_1">
     <g id="line2d_1">
      <path clip-path="url(#pb754264bbb)" d="M 62.247462 225.669075 
L 62.247462 28.51845 
" style="fill:none;stroke:#cbcbcb;"/>
     </g>
     <g id="line2d_2"/>
     <g id="text_1">
      <!-- 0.0 -->
      <defs>
       <path d="M 31.78125 66.40625 
Q 24.171875 66.40625 20.328125 58.90625 
Q 16.5 51.421875 16.5 36.375 
Q 16.5 21.390625 20.328125 13.890625 
Q 24.171875 6.390625 31.78125 6.390625 
Q 39.453125 6.390625 43.28125 13.890625 
Q 47.125 21.390625 47.125 36.375 
Q 47.125 51.421875 43.28125 58.90625 
Q 39.453125 66.40625 31.78125 66.40625 
z
M 31.78125 74.21875 
Q 44.046875 74.21875 50.515625 64.515625 
Q 56.984375 54.828125 56.984375 36.375 
Q 56.984375 17.96875 50.515625 8.265625 
Q 44.046875 -1.421875 31.78125 -1.421875 
Q 19.53125 -1.421875 13.0625 8.265625 
Q 6.59375 17.96875 6.59375 36.375 
Q 6.59375 54.828125 13.0625 64.515625 
Q 19.53125 74.21875 31.78125 74.21875 
z
" id="DejaVuSans-48"/>
       <path d="M 10.6875 12.40625 
L 21 12.40625 
L 21 0 
L 10.6875 0 
z
" id="DejaVuSans-46"/>
      </defs>
      <g transform="translate(51.115275 239.806887)scale(0.14 -0.14)">
       <use xlink:href="#DejaVuSans-48"/>
       <use x="63.623047" xlink:href="#DejaVuSans-46"/>
       <use x="95.410156" xlink:href="#DejaVuSans-48"/>
      </g>
     </g>
    </g>
    <g id="xtick_2">
     <g id="line2d_3">
      <path clip-path="url(#pb754264bbb)" d="M 149.939582 225.669075 
L 149.939582 28.51845 
" style="fill:none;stroke:#cbcbcb;"/>
     </g>
     <g id="line2d_4"/>
     <g id="text_2">
      <!-- 0.5 -->
      <defs>
       <path d="M 10.796875 72.90625 
L 49.515625 72.90625 
L 49.515625 64.59375 
L 19.828125 64.59375 
L 19.828125 46.734375 
Q 21.96875 47.46875 24.109375 47.828125 
Q 26.265625 48.1875 28.421875 48.1875 
Q 40.625 48.1875 47.75 41.5 
Q 54.890625 34.8125 54.890625 23.390625 
Q 54.890625 11.625 47.5625 5.09375 
Q 40.234375 -1.421875 26.90625 -1.421875 
Q 22.3125 -1.421875 17.546875 -0.640625 
Q 12.796875 0.140625 7.71875 1.703125 
L 7.71875 11.625 
Q 12.109375 9.234375 16.796875 8.0625 
Q 21.484375 6.890625 26.703125 6.890625 
Q 35.15625 6.890625 40.078125 11.328125 
Q 45.015625 15.765625 45.015625 23.390625 
Q 45.015625 31 40.078125 35.4375 
Q 35.15625 39.890625 26.703125 39.890625 
Q 22.75 39.890625 18.8125 39.015625 
Q 14.890625 38.140625 10.796875 36.28125 
z
" id="DejaVuSans-53"/>
      </defs>
      <g transform="translate(138.807395 239.806887)scale(0.14 -0.14)">
       <use xlink:href="#DejaVuSans-48"/>
       <use x="63.623047" xlink:href="#DejaVuSans-46"/>
       <use x="95.410156" xlink:href="#DejaVuSans-53"/>
      </g>
     </g>
    </g>
    <g id="xtick_3">
     <g id="line2d_5">
      <path clip-path="url(#pb754264bbb)" d="M 237.631703 225.669075 
L 237.631703 28.51845 
" style="fill:none;stroke:#cbcbcb;"/>
     </g>
     <g id="line2d_6"/>
     <g id="text_3">
      <!-- 1.0 -->
      <defs>
       <path d="M 12.40625 8.296875 
L 28.515625 8.296875 
L 28.515625 63.921875 
L 10.984375 60.40625 
L 10.984375 69.390625 
L 28.421875 72.90625 
L 38.28125 72.90625 
L 38.28125 8.296875 
L 54.390625 8.296875 
L 54.390625 0 
L 12.40625 0 
z
" id="DejaVuSans-49"/>
      </defs>
      <g transform="translate(226.499515 239.806887)scale(0.14 -0.14)">
       <use xlink:href="#DejaVuSans-49"/>
       <use x="63.623047" xlink:href="#DejaVuSans-46"/>
       <use x="95.410156" xlink:href="#DejaVuSans-48"/>
      </g>
     </g>
    </g>
    <g id="text_4">
     <!-- tỉ lệ nước -->
     <defs>
      <path d="M 18.3125 70.21875 
L 18.3125 54.6875 
L 36.8125 54.6875 
L 36.8125 47.703125 
L 18.3125 47.703125 
L 18.3125 18.015625 
Q 18.3125 11.328125 20.140625 9.421875 
Q 21.96875 7.515625 27.59375 7.515625 
L 36.8125 7.515625 
L 36.8125 0 
L 27.59375 0 
Q 17.1875 0 13.234375 3.875 
Q 9.28125 7.765625 9.28125 18.015625 
L 9.28125 47.703125 
L 2.6875 47.703125 
L 2.6875 54.6875 
L 9.28125 54.6875 
L 9.28125 70.21875 
z
" id="DejaVuSans-116"/>
      <path d="M 9.421875 54.6875 
L 18.40625 54.6875 
L 18.40625 0 
L 9.421875 0 
z
M 13.921875 56 
z
M 3.328125 78.5625 
Q 8.796875 81.046875 13.921875 81.046875 
Q 19 81.046875 22.09375 78.96875 
Q 25.203125 76.90625 25.203125 73.625 
Q 25.203125 70.65625 20.90625 67.484375 
L 18.75 65.921875 
Q 17.046875 64.640625 16.84375 64.203125 
Q 16.5 63.421875 16.5 61.859375 
L 10.6875 61.859375 
L 10.6875 62.453125 
Q 10.6875 64.40625 11.421875 65.71875 
Q 12.15625 67.046875 14.65625 68.84375 
L 16.84375 70.5 
Q 19.09375 72.171875 19.09375 74.125 
Q 19.09375 75.140625 17.578125 76.015625 
Q 16.0625 76.90625 12.59375 76.90625 
Q 8.203125 76.90625 3.328125 74.359375 
z
" id="DejaVuSans-7881"/>
      <path id="DejaVuSans-32"/>
      <path d="M 9.421875 75.984375 
L 18.40625 75.984375 
L 18.40625 0 
L 9.421875 0 
z
" id="DejaVuSans-108"/>
      <path d="M 27.203125 -6.890625 
L 36.1875 -6.890625 
L 36.1875 -18.3125 
L 27.203125 -18.3125 
z
M 56.203125 29.59375 
L 56.203125 25.203125 
L 14.890625 25.203125 
Q 15.484375 15.921875 20.484375 11.0625 
Q 25.484375 6.203125 34.421875 6.203125 
Q 39.59375 6.203125 44.453125 7.46875 
Q 49.3125 8.734375 54.109375 11.28125 
L 54.109375 2.78125 
Q 49.265625 0.734375 44.1875 -0.34375 
Q 39.109375 -1.421875 33.890625 -1.421875 
Q 20.796875 -1.421875 13.15625 6.1875 
Q 5.515625 13.8125 5.515625 26.8125 
Q 5.515625 40.234375 12.765625 48.109375 
Q 20.015625 56 32.328125 56 
Q 43.359375 56 49.78125 48.890625 
Q 56.203125 41.796875 56.203125 29.59375 
z
M 47.21875 32.234375 
Q 47.125 39.59375 43.09375 43.984375 
Q 39.0625 48.390625 32.421875 48.390625 
Q 24.90625 48.390625 20.390625 44.140625 
Q 15.875 39.890625 15.1875 32.171875 
z
M 27.203125 -6.890625 
L 36.1875 -6.890625 
L 36.1875 -18.3125 
L 27.203125 -18.3125 
z
M 28.171875 79.984375 
L 35.40625 79.984375 
L 47.359375 61.625 
L 40.578125 61.625 
L 31.78125 73.578125 
L 23 61.625 
L 16.21875 61.625 
z
" id="DejaVuSans-7879"/>
      <path d="M 54.890625 33.015625 
L 54.890625 0 
L 45.90625 0 
L 45.90625 32.71875 
Q 45.90625 40.484375 42.875 44.328125 
Q 39.84375 48.1875 33.796875 48.1875 
Q 26.515625 48.1875 22.3125 43.546875 
Q 18.109375 38.921875 18.109375 30.90625 
L 18.109375 0 
L 9.078125 0 
L 9.078125 54.6875 
L 18.109375 54.6875 
L 18.109375 46.1875 
Q 21.34375 51.125 25.703125 53.5625 
Q 30.078125 56 35.796875 56 
Q 45.21875 56 50.046875 50.171875 
Q 54.890625 44.34375 54.890625 33.015625 
z
" id="DejaVuSans-110"/>
      <path d="M 48.34375 48.53125 
L 48.34375 54.34375 
Q 51.3125 52.140625 53.453125 51.09375 
Q 55.609375 50.046875 57.125 50.046875 
Q 59.375 50.046875 60.5 51.390625 
Q 61.625 52.734375 61.625 55.359375 
Q 61.625 56.921875 61.25 58.4375 
Q 60.890625 59.953125 60.15625 61.46875 
L 66.65625 61.46875 
Q 67.140625 59.609375 67.375 57.953125 
Q 67.625 56.296875 67.625 54.828125 
Q 67.625 48.875 65.5 46.0625 
Q 63.375 43.25 58.84375 43.25 
Q 56.5 43.25 53.9375 44.546875 
Q 51.375 45.84375 48.34375 48.53125 
z
M 8.59375 21.578125 
L 8.59375 54.6875 
L 17.578125 54.6875 
L 17.578125 21.921875 
Q 17.578125 14.15625 20.609375 10.265625 
Q 23.640625 6.390625 29.6875 6.390625 
Q 36.96875 6.390625 41.1875 11.03125 
Q 45.40625 15.671875 45.40625 23.6875 
L 45.40625 54.6875 
L 54.390625 54.6875 
L 54.390625 0 
L 45.40625 0 
L 45.40625 8.40625 
Q 42.140625 3.421875 37.8125 1 
Q 33.5 -1.421875 27.78125 -1.421875 
Q 18.359375 -1.421875 13.46875 4.4375 
Q 8.59375 10.296875 8.59375 21.578125 
z
M 31.203125 56 
z
" id="DejaVuSans-432"/>
      <path d="M 37.40625 79.984375 
L 47.125 79.984375 
L 31.203125 61.625 
L 23.734375 61.625 
z
M 41.015625 48.53125 
L 41.015625 54.34375 
Q 44 52.140625 46.140625 51.09375 
Q 48.296875 50.046875 49.8125 50.046875 
Q 52.046875 50.046875 53.171875 51.390625 
Q 54.296875 52.734375 54.296875 55.359375 
Q 54.296875 56.921875 53.921875 58.4375 
Q 53.5625 59.953125 52.828125 61.46875 
L 59.328125 61.46875 
Q 59.8125 59.609375 60.046875 57.953125 
Q 60.296875 56.296875 60.296875 54.828125 
Q 60.296875 48.875 58.171875 46.0625 
Q 56.0625 43.25 51.515625 43.25 
Q 49.171875 43.25 46.609375 44.546875 
Q 44.046875 45.84375 41.015625 48.53125 
z
M 30.859375 48.390625 
Q 23.640625 48.390625 19.4375 42.75 
Q 15.234375 37.109375 15.234375 27.296875 
Q 15.234375 17.484375 19.40625 11.84375 
Q 23.578125 6.203125 30.859375 6.203125 
Q 38.03125 6.203125 42.234375 11.859375 
Q 46.4375 17.53125 46.4375 27.296875 
Q 46.4375 37.015625 42.234375 42.703125 
Q 38.03125 48.390625 30.859375 48.390625 
z
M 30.859375 56 
Q 42.578125 56 49.265625 48.375 
Q 55.953125 40.765625 55.953125 27.296875 
Q 55.953125 13.875 49.265625 6.21875 
Q 42.578125 -1.421875 30.859375 -1.421875 
Q 19.09375 -1.421875 12.421875 6.21875 
Q 5.765625 13.875 5.765625 27.296875 
Q 5.765625 40.765625 12.421875 48.375 
Q 19.09375 56 30.859375 56 
z
" id="DejaVuSans-7899"/>
      <path d="M 48.78125 52.59375 
L 48.78125 44.1875 
Q 44.96875 46.296875 41.140625 47.34375 
Q 37.3125 48.390625 33.40625 48.390625 
Q 24.65625 48.390625 19.8125 42.84375 
Q 14.984375 37.3125 14.984375 27.296875 
Q 14.984375 17.28125 19.8125 11.734375 
Q 24.65625 6.203125 33.40625 6.203125 
Q 37.3125 6.203125 41.140625 7.25 
Q 44.96875 8.296875 48.78125 10.40625 
L 48.78125 2.09375 
Q 45.015625 0.34375 40.984375 -0.53125 
Q 36.96875 -1.421875 32.421875 -1.421875 
Q 20.0625 -1.421875 12.78125 6.34375 
Q 5.515625 14.109375 5.515625 27.296875 
Q 5.515625 40.671875 12.859375 48.328125 
Q 20.21875 56 33.015625 56 
Q 37.15625 56 41.109375 55.140625 
Q 45.0625 54.296875 48.78125 52.59375 
z
" id="DejaVuSans-99"/>
     </defs>
     <g transform="translate(111.065957 259.91695)scale(0.168 -0.168)">
      <use xlink:href="#DejaVuSans-116"/>
      <use x="39.208984" xlink:href="#DejaVuSans-7881"/>
      <use x="66.992188" xlink:href="#DejaVuSans-32"/>
      <use x="98.779297" xlink:href="#DejaVuSans-108"/>
      <use x="126.5625" xlink:href="#DejaVuSans-7879"/>
      <use x="188.085938" xlink:href="#DejaVuSans-32"/>
      <use x="219.873047" xlink:href="#DejaVuSans-110"/>
      <use x="283.251953" xlink:href="#DejaVuSans-432"/>
      <use x="346.630859" xlink:href="#DejaVuSans-7899"/>
      <use x="407.8125" xlink:href="#DejaVuSans-99"/>
     </g>
    </g>
   </g>
   <g id="matplotlib.axis_2">
    <g id="ytick_1">
     <g id="line2d_7">
      <path clip-path="url(#pb754264bbb)" d="M 53.47825 216.707683 
L 246.400915 216.707683 
" style="fill:none;stroke:#cbcbcb;"/>
     </g>
     <g id="line2d_8"/>
     <g id="text_5">
      <!-- 0.0 -->
      <g transform="translate(27.713875 222.026589)scale(0.14 -0.14)">
       <use xlink:href="#DejaVuSans-48"/>
       <use x="63.623047" xlink:href="#DejaVuSans-46"/>
       <use x="95.410156" xlink:href="#DejaVuSans-48"/>
      </g>
     </g>
    </g>
    <g id="ytick_2">
     <g id="line2d_9">
      <path clip-path="url(#pb754264bbb)" d="M 53.47825 185.922099 
L 246.400915 185.922099 
" style="fill:none;stroke:#cbcbcb;"/>
     </g>
     <g id="line2d_10"/>
     <g id="text_6">
      <!-- 0.5 -->
      <g transform="translate(27.713875 191.241006)scale(0.14 -0.14)">
       <use xlink:href="#DejaVuSans-48"/>
       <use x="63.623047" xlink:href="#DejaVuSans-46"/>
       <use x="95.410156" xlink:href="#DejaVuSans-53"/>
      </g>
     </g>
    </g>
    <g id="ytick_3">
     <g id="line2d_11">
      <path clip-path="url(#pb754264bbb)" d="M 53.47825 155.136516 
L 246.400915 155.136516 
" style="fill:none;stroke:#cbcbcb;"/>
     </g>
     <g id="line2d_12"/>
     <g id="text_7">
      <!-- 1.0 -->
      <g transform="translate(27.713875 160.455422)scale(0.14 -0.14)">
       <use xlink:href="#DejaVuSans-49"/>
       <use x="63.623047" xlink:href="#DejaVuSans-46"/>
       <use x="95.410156" xlink:href="#DejaVuSans-48"/>
      </g>
     </g>
    </g>
    <g id="ytick_4">
     <g id="line2d_13">
      <path clip-path="url(#pb754264bbb)" d="M 53.47825 124.350932 
L 246.400915 124.350932 
" style="fill:none;stroke:#cbcbcb;"/>
     </g>
     <g id="line2d_14"/>
     <g id="text_8">
      <!-- 1.5 -->
      <g transform="translate(27.713875 129.669838)scale(0.14 -0.14)">
       <use xlink:href="#DejaVuSans-49"/>
       <use x="63.623047" xlink:href="#DejaVuSans-46"/>
       <use x="95.410156" xlink:href="#DejaVuSans-53"/>
      </g>
     </g>
    </g>
    <g id="ytick_5">
     <g id="line2d_15">
      <path clip-path="url(#pb754264bbb)" d="M 53.47825 93.565348 
L 246.400915 93.565348 
" style="fill:none;stroke:#cbcbcb;"/>
     </g>
     <g id="line2d_16"/>
     <g id="text_9">
      <!-- 2.0 -->
      <defs>
       <path d="M 19.1875 8.296875 
L 53.609375 8.296875 
L 53.609375 0 
L 7.328125 0 
L 7.328125 8.296875 
Q 12.9375 14.109375 22.625 23.890625 
Q 32.328125 33.6875 34.8125 36.53125 
Q 39.546875 41.84375 41.421875 45.53125 
Q 43.3125 49.21875 43.3125 52.78125 
Q 43.3125 58.59375 39.234375 62.25 
Q 35.15625 65.921875 28.609375 65.921875 
Q 23.96875 65.921875 18.8125 64.3125 
Q 13.671875 62.703125 7.8125 59.421875 
L 7.8125 69.390625 
Q 13.765625 71.78125 18.9375 73 
Q 24.125 74.21875 28.421875 74.21875 
Q 39.75 74.21875 46.484375 68.546875 
Q 53.21875 62.890625 53.21875 53.421875 
Q 53.21875 48.921875 51.53125 44.890625 
Q 49.859375 40.875 45.40625 35.40625 
Q 44.1875 33.984375 37.640625 27.21875 
Q 31.109375 20.453125 19.1875 8.296875 
z
" id="DejaVuSans-50"/>
      </defs>
      <g transform="translate(27.713875 98.884255)scale(0.14 -0.14)">
       <use xlink:href="#DejaVuSans-50"/>
       <use x="63.623047" xlink:href="#DejaVuSans-46"/>
       <use x="95.410156" xlink:href="#DejaVuSans-48"/>
      </g>
     </g>
    </g>
    <g id="ytick_6">
     <g id="line2d_17">
      <path clip-path="url(#pb754264bbb)" d="M 53.47825 62.779765 
L 246.400915 62.779765 
" style="fill:none;stroke:#cbcbcb;"/>
     </g>
     <g id="line2d_18"/>
     <g id="text_10">
      <!-- 2.5 -->
      <g transform="translate(27.713875 68.098671)scale(0.14 -0.14)">
       <use xlink:href="#DejaVuSans-50"/>
       <use x="63.623047" xlink:href="#DejaVuSans-46"/>
       <use x="95.410156" xlink:href="#DejaVuSans-53"/>
      </g>
     </g>
    </g>
    <g id="ytick_7">
     <g id="line2d_19">
      <path clip-path="url(#pb754264bbb)" d="M 53.47825 31.994181 
L 246.400915 31.994181 
" style="fill:none;stroke:#cbcbcb;"/>
     </g>
     <g id="line2d_20"/>
     <g id="text_11">
      <!-- 3.0 -->
      <defs>
       <path d="M 40.578125 39.3125 
Q 47.65625 37.796875 51.625 33 
Q 55.609375 28.21875 55.609375 21.1875 
Q 55.609375 10.40625 48.1875 4.484375 
Q 40.765625 -1.421875 27.09375 -1.421875 
Q 22.515625 -1.421875 17.65625 -0.515625 
Q 12.796875 0.390625 7.625 2.203125 
L 7.625 11.71875 
Q 11.71875 9.328125 16.59375 8.109375 
Q 21.484375 6.890625 26.8125 6.890625 
Q 36.078125 6.890625 40.9375 10.546875 
Q 45.796875 14.203125 45.796875 21.1875 
Q 45.796875 27.640625 41.28125 31.265625 
Q 36.765625 34.90625 28.71875 34.90625 
L 20.21875 34.90625 
L 20.21875 43.015625 
L 29.109375 43.015625 
Q 36.375 43.015625 40.234375 45.921875 
Q 44.09375 48.828125 44.09375 54.296875 
Q 44.09375 59.90625 40.109375 62.90625 
Q 36.140625 65.921875 28.71875 65.921875 
Q 24.65625 65.921875 20.015625 65.03125 
Q 15.375 64.15625 9.8125 62.3125 
L 9.8125 71.09375 
Q 15.4375 72.65625 20.34375 73.4375 
Q 25.25 74.21875 29.59375 74.21875 
Q 40.828125 74.21875 47.359375 69.109375 
Q 53.90625 64.015625 53.90625 55.328125 
Q 53.90625 49.265625 50.4375 45.09375 
Q 46.96875 40.921875 40.578125 39.3125 
z
" id="DejaVuSans-51"/>
      </defs>
      <g transform="translate(27.713875 37.313087)scale(0.14 -0.14)">
       <use xlink:href="#DejaVuSans-51"/>
       <use x="63.623047" xlink:href="#DejaVuSans-46"/>
       <use x="95.410156" xlink:href="#DejaVuSans-48"/>
      </g>
     </g>
    </g>
    <g id="text_12">
     <!-- mật độ -->
     <defs>
      <path d="M 52 44.1875 
Q 55.375 50.25 60.0625 53.125 
Q 64.75 56 71.09375 56 
Q 79.640625 56 84.28125 50.015625 
Q 88.921875 44.046875 88.921875 33.015625 
L 88.921875 0 
L 79.890625 0 
L 79.890625 32.71875 
Q 79.890625 40.578125 77.09375 44.375 
Q 74.3125 48.1875 68.609375 48.1875 
Q 61.625 48.1875 57.5625 43.546875 
Q 53.515625 38.921875 53.515625 30.90625 
L 53.515625 0 
L 44.484375 0 
L 44.484375 32.71875 
Q 44.484375 40.625 41.703125 44.40625 
Q 38.921875 48.1875 33.109375 48.1875 
Q 26.21875 48.1875 22.15625 43.53125 
Q 18.109375 38.875 18.109375 30.90625 
L 18.109375 0 
L 9.078125 0 
L 9.078125 54.6875 
L 18.109375 54.6875 
L 18.109375 46.1875 
Q 21.1875 51.21875 25.484375 53.609375 
Q 29.78125 56 35.6875 56 
Q 41.65625 56 45.828125 52.96875 
Q 50 49.953125 52 44.1875 
z
" id="DejaVuSans-109"/>
      <path d="M 34.28125 27.484375 
Q 23.390625 27.484375 19.1875 25 
Q 14.984375 22.515625 14.984375 16.5 
Q 14.984375 11.71875 18.140625 8.90625 
Q 21.296875 6.109375 26.703125 6.109375 
Q 34.1875 6.109375 38.703125 11.40625 
Q 43.21875 16.703125 43.21875 25.484375 
L 43.21875 27.484375 
z
M 52.203125 31.203125 
L 52.203125 0 
L 43.21875 0 
L 43.21875 8.296875 
Q 40.140625 3.328125 35.546875 0.953125 
Q 30.953125 -1.421875 24.3125 -1.421875 
Q 15.921875 -1.421875 10.953125 3.296875 
Q 6 8.015625 6 15.921875 
Q 6 25.140625 12.171875 29.828125 
Q 18.359375 34.515625 30.609375 34.515625 
L 43.21875 34.515625 
L 43.21875 35.40625 
Q 43.21875 41.609375 39.140625 45 
Q 35.0625 48.390625 27.6875 48.390625 
Q 23 48.390625 18.546875 47.265625 
Q 14.109375 46.140625 10.015625 43.890625 
L 10.015625 52.203125 
Q 14.9375 54.109375 19.578125 55.046875 
Q 24.21875 56 28.609375 56 
Q 40.484375 56 46.34375 49.84375 
Q 52.203125 43.703125 52.203125 31.203125 
z
M 25.390625 79.984375 
L 32.625 79.984375 
L 44.578125 61.625 
L 37.796875 61.625 
L 29 73.578125 
L 20.21875 61.625 
L 13.421875 61.625 
z
M 22.078125 -6.890625 
L 31.0625 -6.890625 
L 31.0625 -18.3125 
L 22.078125 -18.3125 
z
" id="DejaVuSans-7853"/>
      <path d="M 45.40625 46.390625 
L 45.40625 62.703125 
L 29.5 62.703125 
L 29.5 68.796875 
L 45.40625 68.796875 
L 45.40625 75.984375 
L 54.390625 75.984375 
L 54.390625 68.796875 
L 61.921875 68.796875 
L 61.921875 62.703125 
L 54.390625 62.703125 
L 54.390625 0 
L 45.40625 0 
L 45.40625 8.203125 
Q 42.578125 3.328125 38.25 0.953125 
Q 33.9375 -1.421875 27.875 -1.421875 
Q 17.96875 -1.421875 11.734375 6.484375 
Q 5.515625 14.40625 5.515625 27.296875 
Q 5.515625 40.1875 11.734375 48.09375 
Q 17.96875 56 27.875 56 
Q 33.9375 56 38.25 53.625 
Q 42.578125 51.265625 45.40625 46.390625 
z
M 14.796875 27.296875 
Q 14.796875 17.390625 18.875 11.75 
Q 22.953125 6.109375 30.078125 6.109375 
Q 37.203125 6.109375 41.296875 11.75 
Q 45.40625 17.390625 45.40625 27.296875 
Q 45.40625 37.203125 41.296875 42.84375 
Q 37.203125 48.484375 30.078125 48.484375 
Q 22.953125 48.484375 18.875 42.84375 
Q 14.796875 37.203125 14.796875 27.296875 
z
" id="DejaVuSans-273"/>
      <path d="M 26.03125 -6.890625 
L 35.015625 -6.890625 
L 35.015625 -18.3125 
L 26.03125 -18.3125 
z
M 30.609375 48.390625 
Q 23.390625 48.390625 19.1875 42.75 
Q 14.984375 37.109375 14.984375 27.296875 
Q 14.984375 17.484375 19.15625 11.84375 
Q 23.34375 6.203125 30.609375 6.203125 
Q 37.796875 6.203125 41.984375 11.859375 
Q 46.1875 17.53125 46.1875 27.296875 
Q 46.1875 37.015625 41.984375 42.703125 
Q 37.796875 48.390625 30.609375 48.390625 
z
M 30.609375 56 
Q 42.328125 56 49.015625 48.375 
Q 55.71875 40.765625 55.71875 27.296875 
Q 55.71875 13.875 49.015625 6.21875 
Q 42.328125 -1.421875 30.609375 -1.421875 
Q 18.84375 -1.421875 12.171875 6.21875 
Q 5.515625 13.875 5.515625 27.296875 
Q 5.515625 40.765625 12.171875 48.375 
Q 18.84375 56 30.609375 56 
z
M 26.03125 -6.890625 
L 35.015625 -6.890625 
L 35.015625 -18.3125 
L 26.03125 -18.3125 
z
M 27 79.984375 
L 34.234375 79.984375 
L 46.1875 61.625 
L 39.40625 61.625 
L 30.609375 73.578125 
L 21.828125 61.625 
L 15.046875 61.625 
z
" id="DejaVuSans-7897"/>
     </defs>
     <g transform="translate(20.22 156.858637)rotate(-90)scale(0.168 -0.168)">
      <use xlink:href="#DejaVuSans-109"/>
      <use x="97.412109" xlink:href="#DejaVuSans-7853"/>
      <use x="158.691406" xlink:href="#DejaVuSans-116"/>
      <use x="197.900391" xlink:href="#DejaVuSans-32"/>
      <use x="229.6875" xlink:href="#DejaVuSans-273"/>
      <use x="293.164062" xlink:href="#DejaVuSans-7897"/>
     </g>
    </g>
   </g>
   <g id="line2d_21">
    <path clip-path="url(#pb754264bbb)" d="M 62.247462 216.707683 
L 64.01902 216.707683 
L 65.790578 216.70768 
L 67.562136 216.70765 
L 69.333694 216.707504 
L 71.105252 216.707022 
L 72.87681 216.705771 
L 74.648367 216.703015 
L 76.419926 216.697617 
L 78.191484 216.687942 
L 79.963042 216.671762 
L 81.7346 216.646167 
L 83.506159 216.607492 
L 85.277716 216.551246 
L 87.049273 216.472065 
L 88.820833 216.363674 
L 90.59239 216.218875 
L 92.363947 216.029543 
L 94.135507 215.786652 
L 95.907064 215.480313 
L 97.678621 215.099835 
L 99.450181 214.633806 
L 101.221738 214.070186 
L 102.993295 213.396434 
L 104.764855 212.599638 
L 106.53641 211.666657 
L 108.307969 210.584288 
L 110.079529 209.339437 
L 111.851084 207.919339 
L 113.622643 206.311688 
L 115.394203 204.5049 
L 117.165758 202.4883 
L 118.937318 200.252291 
L 120.708877 197.788639 
L 122.480432 195.09058 
L 124.251992 192.153134 
L 126.023552 188.973158 
L 127.795106 185.549704 
L 129.566666 181.883983 
L 131.338226 177.979679 
L 133.10978 173.842981 
L 134.88134 169.482795 
L 136.6529 164.910736 
L 138.424454 160.141288 
L 140.196014 155.191675 
L 141.967574 150.082233 
L 143.739128 144.835902 
L 145.510688 139.478579 
L 147.282248 134.038814 
L 149.053803 128.547935 
L 150.825357 123.039513 
L 152.596917 117.549485 
L 154.368477 112.115937 
L 156.140036 106.778622 
L 157.911596 101.578885 
L 159.683156 96.559253 
L 161.454705 91.76312 
L 163.226265 87.23421 
L 164.997825 83.016347 
L 166.769385 79.152853 
L 168.540944 75.686254 
L 170.312504 72.657507 
L 172.084054 70.105968 
L 173.855613 68.068042 
L 175.627173 66.577582 
L 177.398733 65.664621 
L 179.170293 65.355291 
L 180.941842 65.670934 
L 182.713402 66.627845 
L 184.484962 68.236448 
L 186.256521 70.501336 
L 188.028081 73.420294 
L 189.799641 76.983984 
L 191.57119 81.175967 
L 193.34275 85.97196 
L 195.11431 91.340125 
L 196.88587 97.240392 
L 198.657429 103.624965 
L 200.428989 110.438024 
L 202.200539 117.616175 
L 203.972098 125.088903 
L 205.743658 132.778789 
L 207.515218 140.602575 
L 209.286778 148.471891 
L 211.058337 156.294304 
L 212.829887 163.974777 
L 214.601447 171.417448 
L 216.373006 178.527067 
L 218.144566 185.211502 
L 219.916126 191.384177 
L 221.687686 196.966816 
L 223.459235 201.892653 
L 225.230795 206.110141 
L 227.002355 209.586782 
L 228.773914 212.313676 
L 230.545474 214.31048 
L 232.317034 215.630787 
L 234.088583 216.368131 
L 235.860143 216.662545 
L 237.631703 216.707683 
" style="fill:none;stroke:#008fd5;stroke-width:4;"/>
   </g>
   <g id="line2d_22">
    <path clip-path="url(#pb754264bbb)" d="M 62.247462 216.701046 
L 64.01902 216.698449 
L 65.790578 216.694904 
L 67.562136 216.690095 
L 69.333694 216.683606 
L 71.105252 216.674903 
L 72.87681 216.663296 
L 74.648367 216.647904 
L 76.419926 216.627612 
L 78.191484 216.601012 
L 79.963042 216.566346 
L 81.7346 216.521429 
L 83.506159 216.463568 
L 85.277716 216.389466 
L 87.049273 216.295119 
L 88.820833 216.175697 
L 90.59239 216.025424 
L 92.363947 215.837445 
L 94.135507 215.60369 
L 95.907064 215.314735 
L 97.678621 214.959678 
L 99.450181 214.526005 
L 101.221738 213.999497 
L 102.993295 213.364143 
L 104.764855 212.602105 
L 106.53641 211.693716 
L 108.307969 210.617518 
L 110.079529 209.350417 
L 111.851084 207.867866 
L 113.622643 206.144119 
L 115.394203 204.152663 
L 117.165758 201.866651 
L 118.937318 199.259484 
L 120.708877 196.305471 
L 122.480432 192.980645 
L 124.251992 189.263535 
L 126.023552 185.136137 
L 127.795106 180.584865 
L 129.566666 175.601459 
L 131.338226 170.184085 
L 133.10978 164.338136 
L 134.88134 158.077089 
L 136.6529 151.423261 
L 138.424454 144.408283 
L 140.196014 137.073455 
L 141.967574 129.469886 
L 143.739128 121.658277 
L 145.510688 113.708421 
L 147.282248 105.698562 
L 149.053803 97.714253 
L 150.825357 89.846963 
L 152.596917 82.192492 
L 154.368477 74.849188 
L 156.140036 67.915799 
L 157.911596 61.48936 
L 159.683156 55.662924 
L 161.454705 50.523381 
L 163.226265 46.14918 
L 164.997825 42.608566 
L 166.769385 39.957572 
L 168.540944 38.238739 
L 170.312504 37.479842 
L 172.084054 37.693197 
L 173.855613 38.875369 
L 175.627173 41.007142 
L 177.398733 44.054165 
L 179.170293 47.967864 
L 180.941842 52.686598 
L 182.713402 58.137483 
L 184.484962 64.238062 
L 186.256521 70.898467 
L 188.028081 78.02366 
L 189.799641 85.515553 
L 191.57119 93.275277 
L 193.34275 101.205477 
L 195.11431 109.211938 
L 196.88587 117.205627 
L 198.657429 125.104031 
L 200.428989 132.832531 
L 202.200539 140.325158 
L 203.972098 147.52549 
L 205.743658 154.386683 
L 207.515218 160.871662 
L 209.286778 166.952948 
L 211.058337 172.612197 
L 212.829887 177.83951 
L 214.601447 182.632861 
L 216.373006 186.996979 
L 218.144566 190.94256 
L 219.916126 194.48527 
L 221.687686 197.644723 
L 223.459235 200.443599 
L 225.230795 202.906759 
L 227.002355 205.060346 
L 228.773914 206.931141 
L 230.545474 208.545928 
L 232.317034 209.930931 
L 234.088583 211.111392 
L 235.860143 212.11128 
L 237.631703 212.952978 
" style="fill:none;stroke:#000000;stroke-width:4;"/>
   </g>
   <g id="patch_3">
    <path d="M 53.47825 225.669075 
L 53.47825 28.51845 
" style="fill:none;stroke:#f0f0f0;stroke-linecap:square;stroke-linejoin:miter;stroke-width:3;"/>
   </g>
   <g id="patch_4">
    <path d="M 246.400915 225.669075 
L 246.400915 28.51845 
" style="fill:none;stroke:#f0f0f0;stroke-linecap:square;stroke-linejoin:miter;stroke-width:3;"/>
   </g>
   <g id="patch_5">
    <path d="M 53.47825 225.669075 
L 246.400915 225.669075 
" style="fill:none;stroke:#f0f0f0;stroke-linecap:square;stroke-linejoin:miter;stroke-width:3;"/>
   </g>
   <g id="patch_6">
    <path d="M 53.47825 28.51845 
L 246.400915 28.51845 
" style="fill:none;stroke:#f0f0f0;stroke-linecap:square;stroke-linejoin:miter;stroke-width:3;"/>
   </g>
   <g id="text_13">
    <!-- n=9 -->
    <defs>
     <path d="M 10.59375 45.40625 
L 73.1875 45.40625 
L 73.1875 37.203125 
L 10.59375 37.203125 
z
M 10.59375 25.484375 
L 73.1875 25.484375 
L 73.1875 17.1875 
L 10.59375 17.1875 
z
" id="DejaVuSans-61"/>
     <path d="M 10.984375 1.515625 
L 10.984375 10.5 
Q 14.703125 8.734375 18.5 7.8125 
Q 22.3125 6.890625 25.984375 6.890625 
Q 35.75 6.890625 40.890625 13.453125 
Q 46.046875 20.015625 46.78125 33.40625 
Q 43.953125 29.203125 39.59375 26.953125 
Q 35.25 24.703125 29.984375 24.703125 
Q 19.046875 24.703125 12.671875 31.3125 
Q 6.296875 37.9375 6.296875 49.421875 
Q 6.296875 60.640625 12.9375 67.421875 
Q 19.578125 74.21875 30.609375 74.21875 
Q 43.265625 74.21875 49.921875 64.515625 
Q 56.59375 54.828125 56.59375 36.375 
Q 56.59375 19.140625 48.40625 8.859375 
Q 40.234375 -1.421875 26.421875 -1.421875 
Q 22.703125 -1.421875 18.890625 -0.6875 
Q 15.09375 0.046875 10.984375 1.515625 
z
M 30.609375 32.421875 
Q 37.25 32.421875 41.125 36.953125 
Q 45.015625 41.5 45.015625 49.421875 
Q 45.015625 57.28125 41.125 61.84375 
Q 37.25 66.40625 30.609375 66.40625 
Q 23.96875 66.40625 20.09375 61.84375 
Q 16.21875 57.28125 16.21875 49.421875 
Q 16.21875 41.5 20.09375 36.953125 
Q 23.96875 32.421875 30.609375 32.421875 
z
" id="DejaVuSans-57"/>
    </defs>
    <g transform="translate(128.691257 22.51845)scale(0.2016 -0.2016)">
     <use xlink:href="#DejaVuSans-110"/>
     <use x="63.378906" xlink:href="#DejaVuSans-61"/>
     <use x="147.167969" xlink:href="#DejaVuSans-57"/>
    </g>
   </g>
  </g>
  <g id="axes_2">
   <g id="patch_7">
    <path d="M 276.646583 225.669075 
L 469.569248 225.669075 
L 469.569248 28.51845 
L 276.646583 28.51845 
z
" style="fill:#f0f0f0;"/>
   </g>
   <g id="matplotlib.axis_3">
    <g id="xtick_4">
     <g id="line2d_23">
      <path clip-path="url(#p15be0c7610)" d="M 285.415795 225.669075 
L 285.415795 28.51845 
" style="fill:none;stroke:#cbcbcb;"/>
     </g>
     <g id="line2d_24"/>
     <g id="text_14">
      <!-- 0.0 -->
      <g transform="translate(274.283608 239.806887)scale(0.14 -0.14)">
       <use xlink:href="#DejaVuSans-48"/>
       <use x="63.623047" xlink:href="#DejaVuSans-46"/>
       <use x="95.410156" xlink:href="#DejaVuSans-48"/>
      </g>
     </g>
    </g>
    <g id="xtick_5">
     <g id="line2d_25">
      <path clip-path="url(#p15be0c7610)" d="M 373.107916 225.669075 
L 373.107916 28.51845 
" style="fill:none;stroke:#cbcbcb;"/>
     </g>
     <g id="line2d_26"/>
     <g id="text_15">
      <!-- 0.5 -->
      <g transform="translate(361.975728 239.806887)scale(0.14 -0.14)">
       <use xlink:href="#DejaVuSans-48"/>
       <use x="63.623047" xlink:href="#DejaVuSans-46"/>
       <use x="95.410156" xlink:href="#DejaVuSans-53"/>
      </g>
     </g>
    </g>
    <g id="xtick_6">
     <g id="line2d_27">
      <path clip-path="url(#p15be0c7610)" d="M 460.800036 225.669075 
L 460.800036 28.51845 
" style="fill:none;stroke:#cbcbcb;"/>
     </g>
     <g id="line2d_28"/>
     <g id="text_16">
      <!-- 1.0 -->
      <g transform="translate(449.667849 239.806887)scale(0.14 -0.14)">
       <use xlink:href="#DejaVuSans-49"/>
       <use x="63.623047" xlink:href="#DejaVuSans-46"/>
       <use x="95.410156" xlink:href="#DejaVuSans-48"/>
      </g>
     </g>
    </g>
    <g id="text_17">
     <!-- tỉ lệ nước -->
     <g transform="translate(334.234291 259.91695)scale(0.168 -0.168)">
      <use xlink:href="#DejaVuSans-116"/>
      <use x="39.208984" xlink:href="#DejaVuSans-7881"/>
      <use x="66.992188" xlink:href="#DejaVuSans-32"/>
      <use x="98.779297" xlink:href="#DejaVuSans-108"/>
      <use x="126.5625" xlink:href="#DejaVuSans-7879"/>
      <use x="188.085938" xlink:href="#DejaVuSans-32"/>
      <use x="219.873047" xlink:href="#DejaVuSans-110"/>
      <use x="283.251953" xlink:href="#DejaVuSans-432"/>
      <use x="346.630859" xlink:href="#DejaVuSans-7899"/>
      <use x="407.8125" xlink:href="#DejaVuSans-99"/>
     </g>
    </g>
   </g>
   <g id="matplotlib.axis_4">
    <g id="ytick_8">
     <g id="line2d_29">
      <path clip-path="url(#p15be0c7610)" d="M 276.646583 216.707683 
L 469.569248 216.707683 
" style="fill:none;stroke:#cbcbcb;"/>
     </g>
     <g id="line2d_30"/>
     <g id="text_18">
      <!-- 0 -->
      <g transform="translate(264.239083 222.026589)scale(0.14 -0.14)">
       <use xlink:href="#DejaVuSans-48"/>
      </g>
     </g>
    </g>
    <g id="ytick_9">
     <g id="line2d_31">
      <path clip-path="url(#p15be0c7610)" d="M 276.646583 170.128467 
L 469.569248 170.128467 
" style="fill:none;stroke:#cbcbcb;"/>
     </g>
     <g id="line2d_32"/>
     <g id="text_19">
      <!-- 1 -->
      <g transform="translate(264.239083 175.447373)scale(0.14 -0.14)">
       <use xlink:href="#DejaVuSans-49"/>
      </g>
     </g>
    </g>
    <g id="ytick_10">
     <g id="line2d_33">
      <path clip-path="url(#p15be0c7610)" d="M 276.646583 123.549251 
L 469.569248 123.549251 
" style="fill:none;stroke:#cbcbcb;"/>
     </g>
     <g id="line2d_34"/>
     <g id="text_20">
      <!-- 2 -->
      <g transform="translate(264.239083 128.868157)scale(0.14 -0.14)">
       <use xlink:href="#DejaVuSans-50"/>
      </g>
     </g>
    </g>
    <g id="ytick_11">
     <g id="line2d_35">
      <path clip-path="url(#p15be0c7610)" d="M 276.646583 76.970035 
L 469.569248 76.970035 
" style="fill:none;stroke:#cbcbcb;"/>
     </g>
     <g id="line2d_36"/>
     <g id="text_21">
      <!-- 3 -->
      <g transform="translate(264.239083 82.288941)scale(0.14 -0.14)">
       <use xlink:href="#DejaVuSans-51"/>
      </g>
     </g>
    </g>
    <g id="ytick_12">
     <g id="line2d_37">
      <path clip-path="url(#p15be0c7610)" d="M 276.646583 30.390819 
L 469.569248 30.390819 
" style="fill:none;stroke:#cbcbcb;"/>
     </g>
     <g id="line2d_38"/>
     <g id="text_22">
      <!-- 4 -->
      <defs>
       <path d="M 37.796875 64.3125 
L 12.890625 25.390625 
L 37.796875 25.390625 
z
M 35.203125 72.90625 
L 47.609375 72.90625 
L 47.609375 25.390625 
L 58.015625 25.390625 
L 58.015625 17.1875 
L 47.609375 17.1875 
L 47.609375 0 
L 37.796875 0 
L 37.796875 17.1875 
L 4.890625 17.1875 
L 4.890625 26.703125 
z
" id="DejaVuSans-52"/>
      </defs>
      <g transform="translate(264.239083 35.709726)scale(0.14 -0.14)">
       <use xlink:href="#DejaVuSans-52"/>
      </g>
     </g>
    </g>
   </g>
   <g id="line2d_39">
    <path clip-path="url(#p15be0c7610)" d="M 285.415795 216.707683 
L 287.187353 216.707683 
L 288.958911 216.707683 
L 290.730469 216.707683 
L 292.502027 216.707683 
L 294.273585 216.707683 
L 296.045144 216.707683 
L 297.816701 216.707683 
L 299.588259 216.707682 
L 301.359818 216.70768 
L 303.131375 216.707674 
L 304.902933 216.707656 
L 306.674492 216.707611 
L 308.446049 216.707507 
L 310.217606 216.707284 
L 311.989166 216.706833 
L 313.760723 216.705967 
L 315.53228 216.704379 
L 317.30384 216.701589 
L 319.075397 216.696862 
L 320.846954 216.689112 
L 322.618514 216.676787 
L 324.390071 216.657712 
L 326.161629 216.628921 
L 327.933188 216.586455 
L 329.704743 216.525137 
L 331.476303 216.438333 
L 333.247862 216.317685 
L 335.019417 216.152869 
L 336.790977 215.931319 
L 338.562537 215.638009 
L 340.334091 215.255254 
L 342.105651 214.762548 
L 343.877211 214.136507 
L 345.648765 213.35086 
L 347.420325 212.376591 
L 349.191885 211.182141 
L 350.963439 209.733842 
L 352.734999 207.996377 
L 354.506559 205.933516 
L 356.278114 203.508925 
L 358.049673 200.68721 
L 359.821233 197.435026 
L 361.592788 193.722367 
L 363.364347 189.523909 
L 365.135907 184.820679 
L 366.907462 179.601162 
L 368.679022 173.863146 
L 370.450581 167.614932 
L 372.222136 160.876849 
L 373.99369 153.682015 
L 375.76525 146.077432 
L 377.53681 138.124746 
L 379.30837 129.899935 
L 381.07993 121.493551 
L 382.851489 113.009852 
L 384.623039 104.565732 
L 386.394598 96.288681 
L 388.166158 88.315072 
L 389.937718 80.787122 
L 391.709278 73.849987 
L 393.480838 67.647727 
L 395.252387 62.32039 
L 397.023947 57.998243 
L 398.795506 54.799447 
L 400.567066 52.824271 
L 402.338626 52.152331 
L 404.110175 52.837953 
L 405.881735 54.907802 
L 407.653295 58.357701 
L 409.424855 63.152014 
L 411.196415 69.222188 
L 412.967974 76.467129 
L 414.739524 84.755908 
L 416.511083 93.929271 
L 418.282643 103.805126 
L 420.054203 114.182288 
L 421.825763 124.847794 
L 423.597323 135.583187 
L 425.368872 146.17241 
L 427.140432 156.40975 
L 428.911991 166.106992 
L 430.683551 175.101196 
L 432.455111 183.260627 
L 434.226671 190.489677 
L 435.99822 196.732218 
L 437.76978 201.972939 
L 439.54134 206.235932 
L 441.312899 209.581631 
L 443.084459 212.101077 
L 444.856019 213.908277 
L 446.627568 215.131021 
L 448.399128 215.900924 
L 450.170688 216.34343 
L 451.942248 216.56899 
L 453.713807 216.666403 
L 455.485367 216.699352 
L 457.256917 216.706855 
L 459.028476 216.707668 
L 460.800036 216.707683 
" style="fill:none;stroke:#008fd5;stroke-width:4;"/>
   </g>
   <g id="line2d_40">
    <path clip-path="url(#p15be0c7610)" d="M 285.415795 216.707682 
L 287.187353 216.707681 
L 288.958911 216.707679 
L 290.730469 216.707677 
L 292.502027 216.707672 
L 294.273585 216.707664 
L 296.045144 216.70765 
L 297.816701 216.707627 
L 299.588259 216.707588 
L 301.359818 216.707523 
L 303.131375 216.707416 
L 304.902933 216.707244 
L 306.674492 216.706965 
L 308.446049 216.706522 
L 310.217606 216.705823 
L 311.989166 216.70473 
L 313.760723 216.70304 
L 315.53228 216.700452 
L 317.30384 216.696527 
L 319.075397 216.690635 
L 320.846954 216.681877 
L 322.618514 216.668989 
L 324.390071 216.650211 
L 326.161629 216.623128 
L 327.933188 216.584459 
L 329.704743 216.529801 
L 331.476303 216.453325 
L 333.247862 216.347407 
L 335.019417 216.202205 
L 336.790977 216.005184 
L 338.562537 215.740595 
L 340.334091 215.388932 
L 342.105651 214.926384 
L 343.877211 214.324335 
L 345.648765 213.548937 
L 347.420325 212.560828 
L 349.191885 211.315064 
L 350.963439 209.761326 
L 352.734999 207.844462 
L 354.506559 205.505493 
L 356.278114 202.683075 
L 358.049673 199.315437 
L 359.821233 195.342956 
L 361.592788 190.711146 
L 363.364347 185.374053 
L 365.135907 179.298113 
L 366.907462 172.466041 
L 368.679022 164.8806 
L 370.450581 156.56829 
L 372.222136 147.582251 
L 373.99369 138.00427 
L 375.76525 127.94587 
L 377.53681 117.547909 
L 379.30837 106.978613 
L 381.07993 96.43013 
L 382.851489 86.11337 
L 384.623039 76.251597 
L 386.394598 67.072458 
L 388.166158 58.799783 
L 389.937718 51.644339 
L 391.709278 45.795029 
L 393.480838 41.410659 
L 395.252387 38.612721 
L 397.023947 37.479842 
L 398.795506 38.044049 
L 400.567066 40.289407 
L 402.338626 44.152581 
L 404.110175 49.525927 
L 405.881735 56.262521 
L 407.653295 64.182635 
L 409.424855 73.081874 
L 411.196415 82.739842 
L 412.967974 92.929135 
L 414.739524 103.424035 
L 416.511083 114.008822 
L 418.282643 124.484355 
L 420.054203 134.673897 
L 421.825763 144.427132 
L 423.597323 153.622562 
L 425.368872 162.168379 
L 427.140432 170.002116 
L 428.911991 177.088601 
L 430.683551 183.417435 
L 432.455111 188.999606 
L 434.226671 193.863666 
L 435.99822 198.051792 
L 437.76978 201.61607 
L 439.54134 204.614734 
L 441.312899 207.109138 
L 443.084459 209.161013 
L 444.856019 210.830324 
L 446.627568 212.173633 
L 448.399128 213.242975 
L 450.170688 214.085133 
L 451.942248 214.741348 
L 453.713807 215.247295 
L 455.485367 215.633309 
L 457.256917 215.924757 
L 459.028476 216.142536 
L 460.800036 216.303592 
" style="fill:none;stroke:#000000;stroke-width:4;"/>
   </g>
   <g id="patch_8">
    <path d="M 276.646583 225.669075 
L 276.646583 28.51845 
" style="fill:none;stroke:#f0f0f0;stroke-linecap:square;stroke-linejoin:miter;stroke-width:3;"/>
   </g>
   <g id="patch_9">
    <path d="M 469.569248 225.669075 
L 469.569248 28.51845 
" style="fill:none;stroke:#f0f0f0;stroke-linecap:square;stroke-linejoin:miter;stroke-width:3;"/>
   </g>
   <g id="patch_10">
    <path d="M 276.646583 225.669075 
L 469.569248 225.669075 
" style="fill:none;stroke:#f0f0f0;stroke-linecap:square;stroke-linejoin:miter;stroke-width:3;"/>
   </g>
   <g id="patch_11">
    <path d="M 276.646583 28.51845 
L 469.569248 28.51845 
" style="fill:none;stroke:#f0f0f0;stroke-linecap:square;stroke-linejoin:miter;stroke-width:3;"/>
   </g>
   <g id="text_23">
    <!-- n=18 -->
    <defs>
     <path d="M 31.78125 34.625 
Q 24.75 34.625 20.71875 30.859375 
Q 16.703125 27.09375 16.703125 20.515625 
Q 16.703125 13.921875 20.71875 10.15625 
Q 24.75 6.390625 31.78125 6.390625 
Q 38.8125 6.390625 42.859375 10.171875 
Q 46.921875 13.96875 46.921875 20.515625 
Q 46.921875 27.09375 42.890625 30.859375 
Q 38.875 34.625 31.78125 34.625 
z
M 21.921875 38.8125 
Q 15.578125 40.375 12.03125 44.71875 
Q 8.5 49.078125 8.5 55.328125 
Q 8.5 64.0625 14.71875 69.140625 
Q 20.953125 74.21875 31.78125 74.21875 
Q 42.671875 74.21875 48.875 69.140625 
Q 55.078125 64.0625 55.078125 55.328125 
Q 55.078125 49.078125 51.53125 44.71875 
Q 48 40.375 41.703125 38.8125 
Q 48.828125 37.15625 52.796875 32.3125 
Q 56.78125 27.484375 56.78125 20.515625 
Q 56.78125 9.90625 50.3125 4.234375 
Q 43.84375 -1.421875 31.78125 -1.421875 
Q 19.734375 -1.421875 13.25 4.234375 
Q 6.78125 9.90625 6.78125 20.515625 
Q 6.78125 27.484375 10.78125 32.3125 
Q 14.796875 37.15625 21.921875 38.8125 
z
M 18.3125 54.390625 
Q 18.3125 48.734375 21.84375 45.5625 
Q 25.390625 42.390625 31.78125 42.390625 
Q 38.140625 42.390625 41.71875 45.5625 
Q 45.3125 48.734375 45.3125 54.390625 
Q 45.3125 60.0625 41.71875 63.234375 
Q 38.140625 66.40625 31.78125 66.40625 
Q 25.390625 66.40625 21.84375 63.234375 
Q 18.3125 60.0625 18.3125 54.390625 
z
" id="DejaVuSans-56"/>
    </defs>
    <g transform="translate(345.446191 22.51845)scale(0.2016 -0.2016)">
     <use xlink:href="#DejaVuSans-110"/>
     <use x="63.378906" xlink:href="#DejaVuSans-61"/>
     <use x="147.167969" xlink:href="#DejaVuSans-49"/>
     <use x="210.791016" xlink:href="#DejaVuSans-56"/>
    </g>
   </g>
  </g>
  <g id="axes_3">
   <g id="patch_12">
    <path d="M 499.814917 225.669075 
L 692.737582 225.669075 
L 692.737582 28.51845 
L 499.814917 28.51845 
z
" style="fill:#f0f0f0;"/>
   </g>
   <g id="matplotlib.axis_5">
    <g id="xtick_7">
     <g id="line2d_41">
      <path clip-path="url(#p11c4335771)" d="M 508.584129 225.669075 
L 508.584129 28.51845 
" style="fill:none;stroke:#cbcbcb;"/>
     </g>
     <g id="line2d_42"/>
     <g id="text_24">
      <!-- 0.0 -->
      <g transform="translate(497.451941 239.806887)scale(0.14 -0.14)">
       <use xlink:href="#DejaVuSans-48"/>
       <use x="63.623047" xlink:href="#DejaVuSans-46"/>
       <use x="95.410156" xlink:href="#DejaVuSans-48"/>
      </g>
     </g>
    </g>
    <g id="xtick_8">
     <g id="line2d_43">
      <path clip-path="url(#p11c4335771)" d="M 596.276249 225.669075 
L 596.276249 28.51845 
" style="fill:none;stroke:#cbcbcb;"/>
     </g>
     <g id="line2d_44"/>
     <g id="text_25">
      <!-- 0.5 -->
      <g transform="translate(585.144062 239.806887)scale(0.14 -0.14)">
       <use xlink:href="#DejaVuSans-48"/>
       <use x="63.623047" xlink:href="#DejaVuSans-46"/>
       <use x="95.410156" xlink:href="#DejaVuSans-53"/>
      </g>
     </g>
    </g>
    <g id="xtick_9">
     <g id="line2d_45">
      <path clip-path="url(#p11c4335771)" d="M 683.96837 225.669075 
L 683.96837 28.51845 
" style="fill:none;stroke:#cbcbcb;"/>
     </g>
     <g id="line2d_46"/>
     <g id="text_26">
      <!-- 1.0 -->
      <g transform="translate(672.836182 239.806887)scale(0.14 -0.14)">
       <use xlink:href="#DejaVuSans-49"/>
       <use x="63.623047" xlink:href="#DejaVuSans-46"/>
       <use x="95.410156" xlink:href="#DejaVuSans-48"/>
      </g>
     </g>
    </g>
    <g id="text_27">
     <!-- tỉ lệ nước -->
     <g transform="translate(557.402624 259.91695)scale(0.168 -0.168)">
      <use xlink:href="#DejaVuSans-116"/>
      <use x="39.208984" xlink:href="#DejaVuSans-7881"/>
      <use x="66.992188" xlink:href="#DejaVuSans-32"/>
      <use x="98.779297" xlink:href="#DejaVuSans-108"/>
      <use x="126.5625" xlink:href="#DejaVuSans-7879"/>
      <use x="188.085938" xlink:href="#DejaVuSans-32"/>
      <use x="219.873047" xlink:href="#DejaVuSans-110"/>
      <use x="283.251953" xlink:href="#DejaVuSans-432"/>
      <use x="346.630859" xlink:href="#DejaVuSans-7899"/>
      <use x="407.8125" xlink:href="#DejaVuSans-99"/>
     </g>
    </g>
   </g>
   <g id="matplotlib.axis_6">
    <g id="ytick_13">
     <g id="line2d_47">
      <path clip-path="url(#p11c4335771)" d="M 499.814917 216.707683 
L 692.737582 216.707683 
" style="fill:none;stroke:#cbcbcb;"/>
     </g>
     <g id="line2d_48"/>
     <g id="text_28">
      <!-- 0 -->
      <g transform="translate(487.407417 222.026589)scale(0.14 -0.14)">
       <use xlink:href="#DejaVuSans-48"/>
      </g>
     </g>
    </g>
    <g id="ytick_14">
     <g id="line2d_49">
      <path clip-path="url(#p11c4335771)" d="M 499.814917 182.534054 
L 692.737582 182.534054 
" style="fill:none;stroke:#cbcbcb;"/>
     </g>
     <g id="line2d_50"/>
     <g id="text_29">
      <!-- 1 -->
      <g transform="translate(487.407417 187.85296)scale(0.14 -0.14)">
       <use xlink:href="#DejaVuSans-49"/>
      </g>
     </g>
    </g>
    <g id="ytick_15">
     <g id="line2d_51">
      <path clip-path="url(#p11c4335771)" d="M 499.814917 148.360424 
L 692.737582 148.360424 
" style="fill:none;stroke:#cbcbcb;"/>
     </g>
     <g id="line2d_52"/>
     <g id="text_30">
      <!-- 2 -->
      <g transform="translate(487.407417 153.679331)scale(0.14 -0.14)">
       <use xlink:href="#DejaVuSans-50"/>
      </g>
     </g>
    </g>
    <g id="ytick_16">
     <g id="line2d_53">
      <path clip-path="url(#p11c4335771)" d="M 499.814917 114.186795 
L 692.737582 114.186795 
" style="fill:none;stroke:#cbcbcb;"/>
     </g>
     <g id="line2d_54"/>
     <g id="text_31">
      <!-- 3 -->
      <g transform="translate(487.407417 119.505701)scale(0.14 -0.14)">
       <use xlink:href="#DejaVuSans-51"/>
      </g>
     </g>
    </g>
    <g id="ytick_17">
     <g id="line2d_55">
      <path clip-path="url(#p11c4335771)" d="M 499.814917 80.013166 
L 692.737582 80.013166 
" style="fill:none;stroke:#cbcbcb;"/>
     </g>
     <g id="line2d_56"/>
     <g id="text_32">
      <!-- 4 -->
      <g transform="translate(487.407417 85.332072)scale(0.14 -0.14)">
       <use xlink:href="#DejaVuSans-52"/>
      </g>
     </g>
    </g>
    <g id="ytick_18">
     <g id="line2d_57">
      <path clip-path="url(#p11c4335771)" d="M 499.814917 45.839537 
L 692.737582 45.839537 
" style="fill:none;stroke:#cbcbcb;"/>
     </g>
     <g id="line2d_58"/>
     <g id="text_33">
      <!-- 5 -->
      <g transform="translate(487.407417 51.158443)scale(0.14 -0.14)">
       <use xlink:href="#DejaVuSans-53"/>
      </g>
     </g>
    </g>
   </g>
   <g id="line2d_59">
    <path clip-path="url(#p11c4335771)" d="M 508.584129 216.707683 
L 510.355687 216.707683 
L 512.127245 216.707683 
L 513.898803 216.707683 
L 515.670361 216.707683 
L 517.441918 216.707683 
L 519.213477 216.707683 
L 520.985034 216.707683 
L 522.756593 216.707683 
L 524.528151 216.707683 
L 526.299708 216.707683 
L 528.071267 216.707683 
L 529.842825 216.707683 
L 531.614382 216.707683 
L 533.38594 216.707683 
L 535.157499 216.707683 
L 536.929056 216.707683 
L 538.700614 216.707683 
L 540.472173 216.707683 
L 542.243731 216.707682 
L 544.015288 216.707681 
L 545.786848 216.707677 
L 547.558405 216.707667 
L 549.329962 216.707644 
L 551.101522 216.70759 
L 552.873076 216.707471 
L 554.644636 216.707222 
L 556.416196 216.706716 
L 558.18775 216.705726 
L 559.95931 216.703852 
L 561.73087 216.70041 
L 563.502424 216.694274 
L 565.273984 216.683633 
L 567.045544 216.665661 
L 568.817099 216.636057 
L 570.588658 216.588447 
L 572.360218 216.51361 
L 574.131773 216.398541 
L 575.903333 216.225312 
L 577.674892 215.96981 
L 579.446447 215.600344 
L 581.218007 215.076267 
L 582.989566 214.346675 
L 584.761121 213.349416 
L 586.532681 212.010541 
L 588.304241 210.244571 
L 590.075795 207.955534 
L 591.847355 205.039447 
L 593.618915 201.388028 
L 595.390469 196.894126 
L 597.162024 191.458391 
L 598.933584 184.997721 
L 600.705143 177.454867 
L 602.476703 168.808164 
L 604.248263 159.081876 
L 606.019823 148.355308 
L 607.791372 136.770203 
L 609.562932 124.534576 
L 611.334492 111.923848 
L 613.106051 99.276212 
L 614.877611 86.983315 
L 616.649171 75.474693 
L 618.42072 65.199083 
L 620.19228 56.597225 
L 621.96384 50.078096 
L 623.7354 45.987758 
L 625.506959 44.584949 
L 627.278509 46.016242 
L 629.050069 50.301047 
L 630.821628 57.32163 
L 632.593188 66.826898 
L 634.364748 78.442466 
L 636.136308 91.692872 
L 637.907857 106.033904 
L 639.679417 120.887217 
L 641.450977 135.682169 
L 643.222536 149.892191 
L 644.994096 163.07049 
L 646.765656 174.874758 
L 648.537205 185.082947 
L 650.308765 193.596663 
L 652.080325 200.432453 
L 653.851885 205.704044 
L 655.623444 209.596693 
L 657.395004 212.33837 
L 659.166553 214.17134 
L 660.938113 215.327618 
L 662.709673 216.010651 
L 664.481233 216.384898 
L 666.252793 216.572794 
L 668.024352 216.65787 
L 669.795902 216.691882 
L 671.567461 216.703546 
L 673.339021 216.70684 
L 675.110581 216.707561 
L 676.882141 216.707672 
L 678.653701 216.707683 
L 680.42525 216.707683 
L 682.19681 216.707683 
L 683.96837 216.707683 
" style="fill:none;stroke:#008fd5;stroke-width:4;"/>
   </g>
   <g id="line2d_60">
    <path clip-path="url(#p11c4335771)" d="M 508.584129 216.707683 
L 510.355687 216.707683 
L 512.127245 216.707683 
L 513.898803 216.707683 
L 515.670361 216.707683 
L 517.441918 216.707683 
L 519.213477 216.707683 
L 520.985034 216.707683 
L 522.756593 216.707683 
L 524.528151 216.707683 
L 526.299708 216.707683 
L 528.071267 216.707683 
L 529.842825 216.707683 
L 531.614382 216.707683 
L 533.38594 216.707683 
L 535.157499 216.707683 
L 536.929056 216.707683 
L 538.700614 216.707683 
L 540.472173 216.707682 
L 542.243731 216.707681 
L 544.015288 216.707678 
L 545.786848 216.707672 
L 547.558405 216.70766 
L 549.329962 216.707635 
L 551.101522 216.707584 
L 552.873076 216.707482 
L 554.644636 216.707283 
L 556.416196 216.706902 
L 558.18775 216.706184 
L 559.95931 216.704857 
L 561.73087 216.702448 
L 563.502424 216.698157 
L 565.273984 216.69065 
L 567.045544 216.677762 
L 568.817099 216.656044 
L 570.588658 216.620122 
L 572.360218 216.561814 
L 574.131773 216.468936 
L 575.903333 216.323765 
L 577.674892 216.101142 
L 579.446447 215.766217 
L 581.218007 215.271952 
L 582.989566 214.556565 
L 584.761121 213.541192 
L 586.532681 212.128205 
L 588.304241 210.200751 
L 590.075795 207.624052 
L 591.847355 204.24917 
L 593.618915 199.919799 
L 595.390469 194.482347 
L 597.162024 187.799293 
L 598.933584 179.765482 
L 600.705143 170.326194 
L 602.476703 159.495348 
L 604.248263 147.371856 
L 606.019823 134.151654 
L 607.791372 120.133179 
L 609.562932 105.713629 
L 611.334492 91.376255 
L 613.106051 77.666551 
L 614.877611 65.159877 
L 616.649171 54.422444 
L 618.42072 45.969214 
L 620.19228 40.223051 
L 621.96384 37.479842 
L 623.7354 37.883166 
L 625.506959 41.41179 
L 627.278509 47.881577 
L 629.050069 56.961538 
L 630.821628 68.201598 
L 632.593188 81.06975 
L 634.364748 94.993533 
L 636.136308 109.401677 
L 637.907857 123.761733 
L 639.679417 137.610762 
L 641.450977 150.575667 
L 643.222536 162.384273 
L 644.994096 172.8662 
L 646.765656 181.945538 
L 648.537205 189.627503 
L 650.308765 195.98152 
L 652.080325 201.122585 
L 653.851885 205.193769 
L 655.623444 208.350508 
L 657.395004 210.748053 
L 659.166553 212.532238 
L 660.938113 213.833538 
L 662.709673 214.763946 
L 664.481233 215.416199 
L 666.252793 215.864612 
L 668.024352 216.166976 
L 669.795902 216.366973 
L 671.567461 216.496758 
L 673.339021 216.579392 
L 675.110581 216.63102 
L 676.882141 216.662674 
L 678.653701 216.681721 
L 680.42525 216.69297 
L 682.19681 216.699491 
L 683.96837 216.703202 
" style="fill:none;stroke:#000000;stroke-width:4;"/>
   </g>
   <g id="patch_13">
    <path d="M 499.814917 225.669075 
L 499.814917 28.51845 
" style="fill:none;stroke:#f0f0f0;stroke-linecap:square;stroke-linejoin:miter;stroke-width:3;"/>
   </g>
   <g id="patch_14">
    <path d="M 692.737582 225.669075 
L 692.737582 28.51845 
" style="fill:none;stroke:#f0f0f0;stroke-linecap:square;stroke-linejoin:miter;stroke-width:3;"/>
   </g>
   <g id="patch_15">
    <path d="M 499.814917 225.669075 
L 692.737582 225.669075 
" style="fill:none;stroke:#f0f0f0;stroke-linecap:square;stroke-linejoin:miter;stroke-width:3;"/>
   </g>
   <g id="patch_16">
    <path d="M 499.814917 28.51845 
L 692.737582 28.51845 
" style="fill:none;stroke:#f0f0f0;stroke-linecap:square;stroke-linejoin:miter;stroke-width:3;"/>
   </g>
   <g id="text_34">
    <!-- n=36 -->
    <defs>
     <path d="M 33.015625 40.375 
Q 26.375 40.375 22.484375 35.828125 
Q 18.609375 31.296875 18.609375 23.390625 
Q 18.609375 15.53125 22.484375 10.953125 
Q 26.375 6.390625 33.015625 6.390625 
Q 39.65625 6.390625 43.53125 10.953125 
Q 47.40625 15.53125 47.40625 23.390625 
Q 47.40625 31.296875 43.53125 35.828125 
Q 39.65625 40.375 33.015625 40.375 
z
M 52.59375 71.296875 
L 52.59375 62.3125 
Q 48.875 64.0625 45.09375 64.984375 
Q 41.3125 65.921875 37.59375 65.921875 
Q 27.828125 65.921875 22.671875 59.328125 
Q 17.53125 52.734375 16.796875 39.40625 
Q 19.671875 43.65625 24.015625 45.921875 
Q 28.375 48.1875 33.59375 48.1875 
Q 44.578125 48.1875 50.953125 41.515625 
Q 57.328125 34.859375 57.328125 23.390625 
Q 57.328125 12.15625 50.6875 5.359375 
Q 44.046875 -1.421875 33.015625 -1.421875 
Q 20.359375 -1.421875 13.671875 8.265625 
Q 6.984375 17.96875 6.984375 36.375 
Q 6.984375 53.65625 15.1875 63.9375 
Q 23.390625 74.21875 37.203125 74.21875 
Q 40.921875 74.21875 44.703125 73.484375 
Q 48.484375 72.75 52.59375 71.296875 
z
" id="DejaVuSans-54"/>
    </defs>
    <g transform="translate(568.614524 22.51845)scale(0.2016 -0.2016)">
     <use xlink:href="#DejaVuSans-110"/>
     <use x="63.378906" xlink:href="#DejaVuSans-61"/>
     <use x="147.167969" xlink:href="#DejaVuSans-51"/>
     <use x="210.791016" xlink:href="#DejaVuSans-54"/>
    </g>
   </g>
  </g>
 </g>
 <defs>
  <clipPath id="pb754264bbb">
   <rect height="197.150625" width="192.922665" x="53.47825" y="28.51845"/>
  </clipPath>
  <clipPath id="p15be0c7610">
   <rect height="197.150625" width="192.922665" x="276.646583" y="28.51845"/>
  </clipPath>
  <clipPath id="p11c4335771">
   <rect height="197.150625" width="192.922665" x="499.814917" y="28.51845"/>
  </clipPath>
 </defs>
</svg>
