<?xml version="1.0" encoding="utf-8" standalone="no"?>
<!DOCTYPE svg PUBLIC "-//W3C//DTD SVG 1.1//EN"
  "http://www.w3.org/Graphics/SVG/1.1/DTD/svg11.dtd">
<!-- Created with matplotlib (https://matplotlib.org/) -->
<svg height="269.5706pt" version="1.1" viewBox="0 0 703.708705 269.5706" width="703.708705pt" xmlns="http://www.w3.org/2000/svg" xmlns:xlink="http://www.w3.org/1999/xlink">
 <defs>
  <style type="text/css">
*{stroke-linecap:butt;stroke-linejoin:round;}
  </style>
 </defs>
 <g id="figure_1">
  <g id="patch_1">
   <path d="M 0 269.5706 
L 703.708705 269.5706 
L 703.708705 0 
L 0 0 
z
" style="fill:#f0f0f0;"/>
  </g>
  <g id="axes_1">
   <g id="patch_2">
    <path d="M 71.29325 224.211475 
L 335.516143 224.211475 
L 335.516143 29.5296 
L 71.29325 29.5296 
z
" style="fill:#f0f0f0;"/>
   </g>
   <g id="matplotlib.axis_1">
    <g id="xtick_1">
     <g id="line2d_1">
      <path clip-path="url(#p5376c2e98a)" d="M 83.303381 224.211475 
L 83.303381 29.5296 
" style="fill:none;stroke:#cbcbcb;"/>
     </g>
     <g id="line2d_2"/>
     <g id="text_1">
      <!-- 0.00 -->
      <defs>
       <path d="M 31.78125 66.40625 
Q 24.171875 66.40625 20.328125 58.90625 
Q 16.5 51.421875 16.5 36.375 
Q 16.5 21.390625 20.328125 13.890625 
Q 24.171875 6.390625 31.78125 6.390625 
Q 39.453125 6.390625 43.28125 13.890625 
Q 47.125 21.390625 47.125 36.375 
Q 47.125 51.421875 43.28125 58.90625 
Q 39.453125 66.40625 31.78125 66.40625 
z
M 31.78125 74.21875 
Q 44.046875 74.21875 50.515625 64.515625 
Q 56.984375 54.828125 56.984375 36.375 
Q 56.984375 17.96875 50.515625 8.265625 
Q 44.046875 -1.421875 31.78125 -1.421875 
Q 19.53125 -1.421875 13.0625 8.265625 
Q 6.59375 17.96875 6.59375 36.375 
Q 6.59375 54.828125 13.0625 64.515625 
Q 19.53125 74.21875 31.78125 74.21875 
z
" id="DejaVuSans-48"/>
       <path d="M 10.6875 12.40625 
L 21 12.40625 
L 21 0 
L 10.6875 0 
z
" id="DejaVuSans-46"/>
      </defs>
      <g transform="translate(67.717444 238.349288)scale(0.14 -0.14)">
       <use xlink:href="#DejaVuSans-48"/>
       <use x="63.623047" xlink:href="#DejaVuSans-46"/>
       <use x="95.410156" xlink:href="#DejaVuSans-48"/>
       <use x="159.033203" xlink:href="#DejaVuSans-48"/>
      </g>
     </g>
    </g>
    <g id="xtick_2">
     <g id="line2d_3">
      <path clip-path="url(#p5376c2e98a)" d="M 143.354039 224.211475 
L 143.354039 29.5296 
" style="fill:none;stroke:#cbcbcb;"/>
     </g>
     <g id="line2d_4"/>
     <g id="text_2">
      <!-- 0.25 -->
      <defs>
       <path d="M 19.1875 8.296875 
L 53.609375 8.296875 
L 53.609375 0 
L 7.328125 0 
L 7.328125 8.296875 
Q 12.9375 14.109375 22.625 23.890625 
Q 32.328125 33.6875 34.8125 36.53125 
Q 39.546875 41.84375 41.421875 45.53125 
Q 43.3125 49.21875 43.3125 52.78125 
Q 43.3125 58.59375 39.234375 62.25 
Q 35.15625 65.921875 28.609375 65.921875 
Q 23.96875 65.921875 18.8125 64.3125 
Q 13.671875 62.703125 7.8125 59.421875 
L 7.8125 69.390625 
Q 13.765625 71.78125 18.9375 73 
Q 24.125 74.21875 28.421875 74.21875 
Q 39.75 74.21875 46.484375 68.546875 
Q 53.21875 62.890625 53.21875 53.421875 
Q 53.21875 48.921875 51.53125 44.890625 
Q 49.859375 40.875 45.40625 35.40625 
Q 44.1875 33.984375 37.640625 27.21875 
Q 31.109375 20.453125 19.1875 8.296875 
z
" id="DejaVuSans-50"/>
       <path d="M 10.796875 72.90625 
L 49.515625 72.90625 
L 49.515625 64.59375 
L 19.828125 64.59375 
L 19.828125 46.734375 
Q 21.96875 47.46875 24.109375 47.828125 
Q 26.265625 48.1875 28.421875 48.1875 
Q 40.625 48.1875 47.75 41.5 
Q 54.890625 34.8125 54.890625 23.390625 
Q 54.890625 11.625 47.5625 5.09375 
Q 40.234375 -1.421875 26.90625 -1.421875 
Q 22.3125 -1.421875 17.546875 -0.640625 
Q 12.796875 0.140625 7.71875 1.703125 
L 7.71875 11.625 
Q 12.109375 9.234375 16.796875 8.0625 
Q 21.484375 6.890625 26.703125 6.890625 
Q 35.15625 6.890625 40.078125 11.328125 
Q 45.015625 15.765625 45.015625 23.390625 
Q 45.015625 31 40.078125 35.4375 
Q 35.15625 39.890625 26.703125 39.890625 
Q 22.75 39.890625 18.8125 39.015625 
Q 14.890625 38.140625 10.796875 36.28125 
z
" id="DejaVuSans-53"/>
      </defs>
      <g transform="translate(127.768101 238.349288)scale(0.14 -0.14)">
       <use xlink:href="#DejaVuSans-48"/>
       <use x="63.623047" xlink:href="#DejaVuSans-46"/>
       <use x="95.410156" xlink:href="#DejaVuSans-50"/>
       <use x="159.033203" xlink:href="#DejaVuSans-53"/>
      </g>
     </g>
    </g>
    <g id="xtick_3">
     <g id="line2d_5">
      <path clip-path="url(#p5376c2e98a)" d="M 203.404696 224.211475 
L 203.404696 29.5296 
" style="fill:none;stroke:#cbcbcb;"/>
     </g>
     <g id="line2d_6"/>
     <g id="text_3">
      <!-- 0.50 -->
      <g transform="translate(187.818759 238.349288)scale(0.14 -0.14)">
       <use xlink:href="#DejaVuSans-48"/>
       <use x="63.623047" xlink:href="#DejaVuSans-46"/>
       <use x="95.410156" xlink:href="#DejaVuSans-53"/>
       <use x="159.033203" xlink:href="#DejaVuSans-48"/>
      </g>
     </g>
    </g>
    <g id="xtick_4">
     <g id="line2d_7">
      <path clip-path="url(#p5376c2e98a)" d="M 263.455354 224.211475 
L 263.455354 29.5296 
" style="fill:none;stroke:#cbcbcb;"/>
     </g>
     <g id="line2d_8"/>
     <g id="text_4">
      <!-- 0.75 -->
      <defs>
       <path d="M 8.203125 72.90625 
L 55.078125 72.90625 
L 55.078125 68.703125 
L 28.609375 0 
L 18.3125 0 
L 43.21875 64.59375 
L 8.203125 64.59375 
z
" id="DejaVuSans-55"/>
      </defs>
      <g transform="translate(247.869416 238.349288)scale(0.14 -0.14)">
       <use xlink:href="#DejaVuSans-48"/>
       <use x="63.623047" xlink:href="#DejaVuSans-46"/>
       <use x="95.410156" xlink:href="#DejaVuSans-55"/>
       <use x="159.033203" xlink:href="#DejaVuSans-53"/>
      </g>
     </g>
    </g>
    <g id="xtick_5">
     <g id="line2d_9">
      <path clip-path="url(#p5376c2e98a)" d="M 323.506011 224.211475 
L 323.506011 29.5296 
" style="fill:none;stroke:#cbcbcb;"/>
     </g>
     <g id="line2d_10"/>
     <g id="text_5">
      <!-- 1.00 -->
      <defs>
       <path d="M 12.40625 8.296875 
L 28.515625 8.296875 
L 28.515625 63.921875 
L 10.984375 60.40625 
L 10.984375 69.390625 
L 28.421875 72.90625 
L 38.28125 72.90625 
L 38.28125 8.296875 
L 54.390625 8.296875 
L 54.390625 0 
L 12.40625 0 
z
" id="DejaVuSans-49"/>
      </defs>
      <g transform="translate(307.920074 238.349288)scale(0.14 -0.14)">
       <use xlink:href="#DejaVuSans-49"/>
       <use x="63.623047" xlink:href="#DejaVuSans-46"/>
       <use x="95.410156" xlink:href="#DejaVuSans-48"/>
       <use x="159.033203" xlink:href="#DejaVuSans-48"/>
      </g>
     </g>
    </g>
    <g id="text_6">
     <!-- tỉ lệ nước (p) -->
     <defs>
      <path d="M 18.3125 70.21875 
L 18.3125 54.6875 
L 36.8125 54.6875 
L 36.8125 47.703125 
L 18.3125 47.703125 
L 18.3125 18.015625 
Q 18.3125 11.328125 20.140625 9.421875 
Q 21.96875 7.515625 27.59375 7.515625 
L 36.8125 7.515625 
L 36.8125 0 
L 27.59375 0 
Q 17.1875 0 13.234375 3.875 
Q 9.28125 7.765625 9.28125 18.015625 
L 9.28125 47.703125 
L 2.6875 47.703125 
L 2.6875 54.6875 
L 9.28125 54.6875 
L 9.28125 70.21875 
z
" id="DejaVuSans-116"/>
      <path d="M 9.421875 54.6875 
L 18.40625 54.6875 
L 18.40625 0 
L 9.421875 0 
z
M 13.921875 56 
z
M 3.328125 78.5625 
Q 8.796875 81.046875 13.921875 81.046875 
Q 19 81.046875 22.09375 78.96875 
Q 25.203125 76.90625 25.203125 73.625 
Q 25.203125 70.65625 20.90625 67.484375 
L 18.75 65.921875 
Q 17.046875 64.640625 16.84375 64.203125 
Q 16.5 63.421875 16.5 61.859375 
L 10.6875 61.859375 
L 10.6875 62.453125 
Q 10.6875 64.40625 11.421875 65.71875 
Q 12.15625 67.046875 14.65625 68.84375 
L 16.84375 70.5 
Q 19.09375 72.171875 19.09375 74.125 
Q 19.09375 75.140625 17.578125 76.015625 
Q 16.0625 76.90625 12.59375 76.90625 
Q 8.203125 76.90625 3.328125 74.359375 
z
" id="DejaVuSans-7881"/>
      <path id="DejaVuSans-32"/>
      <path d="M 9.421875 75.984375 
L 18.40625 75.984375 
L 18.40625 0 
L 9.421875 0 
z
" id="DejaVuSans-108"/>
      <path d="M 27.203125 -6.890625 
L 36.1875 -6.890625 
L 36.1875 -18.3125 
L 27.203125 -18.3125 
z
M 56.203125 29.59375 
L 56.203125 25.203125 
L 14.890625 25.203125 
Q 15.484375 15.921875 20.484375 11.0625 
Q 25.484375 6.203125 34.421875 6.203125 
Q 39.59375 6.203125 44.453125 7.46875 
Q 49.3125 8.734375 54.109375 11.28125 
L 54.109375 2.78125 
Q 49.265625 0.734375 44.1875 -0.34375 
Q 39.109375 -1.421875 33.890625 -1.421875 
Q 20.796875 -1.421875 13.15625 6.1875 
Q 5.515625 13.8125 5.515625 26.8125 
Q 5.515625 40.234375 12.765625 48.109375 
Q 20.015625 56 32.328125 56 
Q 43.359375 56 49.78125 48.890625 
Q 56.203125 41.796875 56.203125 29.59375 
z
M 47.21875 32.234375 
Q 47.125 39.59375 43.09375 43.984375 
Q 39.0625 48.390625 32.421875 48.390625 
Q 24.90625 48.390625 20.390625 44.140625 
Q 15.875 39.890625 15.1875 32.171875 
z
M 27.203125 -6.890625 
L 36.1875 -6.890625 
L 36.1875 -18.3125 
L 27.203125 -18.3125 
z
M 28.171875 79.984375 
L 35.40625 79.984375 
L 47.359375 61.625 
L 40.578125 61.625 
L 31.78125 73.578125 
L 23 61.625 
L 16.21875 61.625 
z
" id="DejaVuSans-7879"/>
      <path d="M 54.890625 33.015625 
L 54.890625 0 
L 45.90625 0 
L 45.90625 32.71875 
Q 45.90625 40.484375 42.875 44.328125 
Q 39.84375 48.1875 33.796875 48.1875 
Q 26.515625 48.1875 22.3125 43.546875 
Q 18.109375 38.921875 18.109375 30.90625 
L 18.109375 0 
L 9.078125 0 
L 9.078125 54.6875 
L 18.109375 54.6875 
L 18.109375 46.1875 
Q 21.34375 51.125 25.703125 53.5625 
Q 30.078125 56 35.796875 56 
Q 45.21875 56 50.046875 50.171875 
Q 54.890625 44.34375 54.890625 33.015625 
z
" id="DejaVuSans-110"/>
      <path d="M 48.34375 48.53125 
L 48.34375 54.34375 
Q 51.3125 52.140625 53.453125 51.09375 
Q 55.609375 50.046875 57.125 50.046875 
Q 59.375 50.046875 60.5 51.390625 
Q 61.625 52.734375 61.625 55.359375 
Q 61.625 56.921875 61.25 58.4375 
Q 60.890625 59.953125 60.15625 61.46875 
L 66.65625 61.46875 
Q 67.140625 59.609375 67.375 57.953125 
Q 67.625 56.296875 67.625 54.828125 
Q 67.625 48.875 65.5 46.0625 
Q 63.375 43.25 58.84375 43.25 
Q 56.5 43.25 53.9375 44.546875 
Q 51.375 45.84375 48.34375 48.53125 
z
M 8.59375 21.578125 
L 8.59375 54.6875 
L 17.578125 54.6875 
L 17.578125 21.921875 
Q 17.578125 14.15625 20.609375 10.265625 
Q 23.640625 6.390625 29.6875 6.390625 
Q 36.96875 6.390625 41.1875 11.03125 
Q 45.40625 15.671875 45.40625 23.6875 
L 45.40625 54.6875 
L 54.390625 54.6875 
L 54.390625 0 
L 45.40625 0 
L 45.40625 8.40625 
Q 42.140625 3.421875 37.8125 1 
Q 33.5 -1.421875 27.78125 -1.421875 
Q 18.359375 -1.421875 13.46875 4.4375 
Q 8.59375 10.296875 8.59375 21.578125 
z
M 31.203125 56 
z
" id="DejaVuSans-432"/>
      <path d="M 37.40625 79.984375 
L 47.125 79.984375 
L 31.203125 61.625 
L 23.734375 61.625 
z
M 41.015625 48.53125 
L 41.015625 54.34375 
Q 44 52.140625 46.140625 51.09375 
Q 48.296875 50.046875 49.8125 50.046875 
Q 52.046875 50.046875 53.171875 51.390625 
Q 54.296875 52.734375 54.296875 55.359375 
Q 54.296875 56.921875 53.921875 58.4375 
Q 53.5625 59.953125 52.828125 61.46875 
L 59.328125 61.46875 
Q 59.8125 59.609375 60.046875 57.953125 
Q 60.296875 56.296875 60.296875 54.828125 
Q 60.296875 48.875 58.171875 46.0625 
Q 56.0625 43.25 51.515625 43.25 
Q 49.171875 43.25 46.609375 44.546875 
Q 44.046875 45.84375 41.015625 48.53125 
z
M 30.859375 48.390625 
Q 23.640625 48.390625 19.4375 42.75 
Q 15.234375 37.109375 15.234375 27.296875 
Q 15.234375 17.484375 19.40625 11.84375 
Q 23.578125 6.203125 30.859375 6.203125 
Q 38.03125 6.203125 42.234375 11.859375 
Q 46.4375 17.53125 46.4375 27.296875 
Q 46.4375 37.015625 42.234375 42.703125 
Q 38.03125 48.390625 30.859375 48.390625 
z
M 30.859375 56 
Q 42.578125 56 49.265625 48.375 
Q 55.953125 40.765625 55.953125 27.296875 
Q 55.953125 13.875 49.265625 6.21875 
Q 42.578125 -1.421875 30.859375 -1.421875 
Q 19.09375 -1.421875 12.421875 6.21875 
Q 5.765625 13.875 5.765625 27.296875 
Q 5.765625 40.765625 12.421875 48.375 
Q 19.09375 56 30.859375 56 
z
" id="DejaVuSans-7899"/>
      <path d="M 48.78125 52.59375 
L 48.78125 44.1875 
Q 44.96875 46.296875 41.140625 47.34375 
Q 37.3125 48.390625 33.40625 48.390625 
Q 24.65625 48.390625 19.8125 42.84375 
Q 14.984375 37.3125 14.984375 27.296875 
Q 14.984375 17.28125 19.8125 11.734375 
Q 24.65625 6.203125 33.40625 6.203125 
Q 37.3125 6.203125 41.140625 7.25 
Q 44.96875 8.296875 48.78125 10.40625 
L 48.78125 2.09375 
Q 45.015625 0.34375 40.984375 -0.53125 
Q 36.96875 -1.421875 32.421875 -1.421875 
Q 20.0625 -1.421875 12.78125 6.34375 
Q 5.515625 14.109375 5.515625 27.296875 
Q 5.515625 40.671875 12.859375 48.328125 
Q 20.21875 56 33.015625 56 
Q 37.15625 56 41.109375 55.140625 
Q 45.0625 54.296875 48.78125 52.59375 
z
" id="DejaVuSans-99"/>
      <path d="M 31 75.875 
Q 24.46875 64.65625 21.28125 53.65625 
Q 18.109375 42.671875 18.109375 31.390625 
Q 18.109375 20.125 21.3125 9.0625 
Q 24.515625 -2 31 -13.1875 
L 23.1875 -13.1875 
Q 15.875 -1.703125 12.234375 9.375 
Q 8.59375 20.453125 8.59375 31.390625 
Q 8.59375 42.28125 12.203125 53.3125 
Q 15.828125 64.359375 23.1875 75.875 
z
" id="DejaVuSans-40"/>
      <path d="M 18.109375 8.203125 
L 18.109375 -20.796875 
L 9.078125 -20.796875 
L 9.078125 54.6875 
L 18.109375 54.6875 
L 18.109375 46.390625 
Q 20.953125 51.265625 25.265625 53.625 
Q 29.59375 56 35.59375 56 
Q 45.5625 56 51.78125 48.09375 
Q 58.015625 40.1875 58.015625 27.296875 
Q 58.015625 14.40625 51.78125 6.484375 
Q 45.5625 -1.421875 35.59375 -1.421875 
Q 29.59375 -1.421875 25.265625 0.953125 
Q 20.953125 3.328125 18.109375 8.203125 
z
M 48.6875 27.296875 
Q 48.6875 37.203125 44.609375 42.84375 
Q 40.53125 48.484375 33.40625 48.484375 
Q 26.265625 48.484375 22.1875 42.84375 
Q 18.109375 37.203125 18.109375 27.296875 
Q 18.109375 17.390625 22.1875 11.75 
Q 26.265625 6.109375 33.40625 6.109375 
Q 40.53125 6.109375 44.609375 11.75 
Q 48.6875 17.390625 48.6875 27.296875 
z
" id="DejaVuSans-112"/>
      <path d="M 8.015625 75.875 
L 15.828125 75.875 
Q 23.140625 64.359375 26.78125 53.3125 
Q 30.421875 42.28125 30.421875 31.390625 
Q 30.421875 20.453125 26.78125 9.375 
Q 23.140625 -1.703125 15.828125 -13.1875 
L 8.015625 -13.1875 
Q 14.5 -2 17.703125 9.0625 
Q 20.90625 20.125 20.90625 31.390625 
Q 20.90625 42.671875 17.703125 53.65625 
Q 14.5 64.65625 8.015625 75.875 
z
" id="DejaVuSans-41"/>
     </defs>
     <g transform="translate(149.974134 258.876725)scale(0.168 -0.168)">
      <use xlink:href="#DejaVuSans-116"/>
      <use x="39.208984" xlink:href="#DejaVuSans-7881"/>
      <use x="66.992188" xlink:href="#DejaVuSans-32"/>
      <use x="98.779297" xlink:href="#DejaVuSans-108"/>
      <use x="126.5625" xlink:href="#DejaVuSans-7879"/>
      <use x="188.085938" xlink:href="#DejaVuSans-32"/>
      <use x="219.873047" xlink:href="#DejaVuSans-110"/>
      <use x="283.251953" xlink:href="#DejaVuSans-432"/>
      <use x="346.630859" xlink:href="#DejaVuSans-7899"/>
      <use x="407.8125" xlink:href="#DejaVuSans-99"/>
      <use x="462.792969" xlink:href="#DejaVuSans-32"/>
      <use x="494.580078" xlink:href="#DejaVuSans-40"/>
      <use x="533.59375" xlink:href="#DejaVuSans-112"/>
      <use x="597.070312" xlink:href="#DejaVuSans-41"/>
     </g>
    </g>
   </g>
   <g id="matplotlib.axis_2">
    <g id="ytick_1">
     <g id="line2d_11">
      <path clip-path="url(#p5376c2e98a)" d="M 71.29325 215.362299 
L 335.516143 215.362299 
" style="fill:none;stroke:#cbcbcb;"/>
     </g>
     <g id="line2d_12"/>
     <g id="text_7">
      <!-- 0.000 -->
      <g transform="translate(27.713875 220.681205)scale(0.14 -0.14)">
       <use xlink:href="#DejaVuSans-48"/>
       <use x="63.623047" xlink:href="#DejaVuSans-46"/>
       <use x="95.410156" xlink:href="#DejaVuSans-48"/>
       <use x="159.033203" xlink:href="#DejaVuSans-48"/>
       <use x="222.65625" xlink:href="#DejaVuSans-48"/>
      </g>
     </g>
    </g>
    <g id="ytick_2">
     <g id="line2d_13">
      <path clip-path="url(#p5376c2e98a)" d="M 71.29325 171.072125 
L 335.516143 171.072125 
" style="fill:none;stroke:#cbcbcb;"/>
     </g>
     <g id="line2d_14"/>
     <g id="text_8">
      <!-- 0.001 -->
      <g transform="translate(27.713875 176.391031)scale(0.14 -0.14)">
       <use xlink:href="#DejaVuSans-48"/>
       <use x="63.623047" xlink:href="#DejaVuSans-46"/>
       <use x="95.410156" xlink:href="#DejaVuSans-48"/>
       <use x="159.033203" xlink:href="#DejaVuSans-48"/>
       <use x="222.65625" xlink:href="#DejaVuSans-49"/>
      </g>
     </g>
    </g>
    <g id="ytick_3">
     <g id="line2d_15">
      <path clip-path="url(#p5376c2e98a)" d="M 71.29325 126.78195 
L 335.516143 126.78195 
" style="fill:none;stroke:#cbcbcb;"/>
     </g>
     <g id="line2d_16"/>
     <g id="text_9">
      <!-- 0.002 -->
      <g transform="translate(27.713875 132.100857)scale(0.14 -0.14)">
       <use xlink:href="#DejaVuSans-48"/>
       <use x="63.623047" xlink:href="#DejaVuSans-46"/>
       <use x="95.410156" xlink:href="#DejaVuSans-48"/>
       <use x="159.033203" xlink:href="#DejaVuSans-48"/>
       <use x="222.65625" xlink:href="#DejaVuSans-50"/>
      </g>
     </g>
    </g>
    <g id="ytick_4">
     <g id="line2d_17">
      <path clip-path="url(#p5376c2e98a)" d="M 71.29325 82.491776 
L 335.516143 82.491776 
" style="fill:none;stroke:#cbcbcb;"/>
     </g>
     <g id="line2d_18"/>
     <g id="text_10">
      <!-- 0.003 -->
      <defs>
       <path d="M 40.578125 39.3125 
Q 47.65625 37.796875 51.625 33 
Q 55.609375 28.21875 55.609375 21.1875 
Q 55.609375 10.40625 48.1875 4.484375 
Q 40.765625 -1.421875 27.09375 -1.421875 
Q 22.515625 -1.421875 17.65625 -0.515625 
Q 12.796875 0.390625 7.625 2.203125 
L 7.625 11.71875 
Q 11.71875 9.328125 16.59375 8.109375 
Q 21.484375 6.890625 26.8125 6.890625 
Q 36.078125 6.890625 40.9375 10.546875 
Q 45.796875 14.203125 45.796875 21.1875 
Q 45.796875 27.640625 41.28125 31.265625 
Q 36.765625 34.90625 28.71875 34.90625 
L 20.21875 34.90625 
L 20.21875 43.015625 
L 29.109375 43.015625 
Q 36.375 43.015625 40.234375 45.921875 
Q 44.09375 48.828125 44.09375 54.296875 
Q 44.09375 59.90625 40.109375 62.90625 
Q 36.140625 65.921875 28.71875 65.921875 
Q 24.65625 65.921875 20.015625 65.03125 
Q 15.375 64.15625 9.8125 62.3125 
L 9.8125 71.09375 
Q 15.4375 72.65625 20.34375 73.4375 
Q 25.25 74.21875 29.59375 74.21875 
Q 40.828125 74.21875 47.359375 69.109375 
Q 53.90625 64.015625 53.90625 55.328125 
Q 53.90625 49.265625 50.4375 45.09375 
Q 46.96875 40.921875 40.578125 39.3125 
z
" id="DejaVuSans-51"/>
      </defs>
      <g transform="translate(27.713875 87.810682)scale(0.14 -0.14)">
       <use xlink:href="#DejaVuSans-48"/>
       <use x="63.623047" xlink:href="#DejaVuSans-46"/>
       <use x="95.410156" xlink:href="#DejaVuSans-48"/>
       <use x="159.033203" xlink:href="#DejaVuSans-48"/>
       <use x="222.65625" xlink:href="#DejaVuSans-51"/>
      </g>
     </g>
    </g>
    <g id="ytick_5">
     <g id="line2d_19">
      <path clip-path="url(#p5376c2e98a)" d="M 71.29325 38.201602 
L 335.516143 38.201602 
" style="fill:none;stroke:#cbcbcb;"/>
     </g>
     <g id="line2d_20"/>
     <g id="text_11">
      <!-- 0.004 -->
      <defs>
       <path d="M 37.796875 64.3125 
L 12.890625 25.390625 
L 37.796875 25.390625 
z
M 35.203125 72.90625 
L 47.609375 72.90625 
L 47.609375 25.390625 
L 58.015625 25.390625 
L 58.015625 17.1875 
L 47.609375 17.1875 
L 47.609375 0 
L 37.796875 0 
L 37.796875 17.1875 
L 4.890625 17.1875 
L 4.890625 26.703125 
z
" id="DejaVuSans-52"/>
      </defs>
      <g transform="translate(27.713875 43.520508)scale(0.14 -0.14)">
       <use xlink:href="#DejaVuSans-48"/>
       <use x="63.623047" xlink:href="#DejaVuSans-46"/>
       <use x="95.410156" xlink:href="#DejaVuSans-48"/>
       <use x="159.033203" xlink:href="#DejaVuSans-48"/>
       <use x="222.65625" xlink:href="#DejaVuSans-52"/>
      </g>
     </g>
    </g>
    <g id="text_12">
     <!-- mật độ -->
     <defs>
      <path d="M 52 44.1875 
Q 55.375 50.25 60.0625 53.125 
Q 64.75 56 71.09375 56 
Q 79.640625 56 84.28125 50.015625 
Q 88.921875 44.046875 88.921875 33.015625 
L 88.921875 0 
L 79.890625 0 
L 79.890625 32.71875 
Q 79.890625 40.578125 77.09375 44.375 
Q 74.3125 48.1875 68.609375 48.1875 
Q 61.625 48.1875 57.5625 43.546875 
Q 53.515625 38.921875 53.515625 30.90625 
L 53.515625 0 
L 44.484375 0 
L 44.484375 32.71875 
Q 44.484375 40.625 41.703125 44.40625 
Q 38.921875 48.1875 33.109375 48.1875 
Q 26.21875 48.1875 22.15625 43.53125 
Q 18.109375 38.875 18.109375 30.90625 
L 18.109375 0 
L 9.078125 0 
L 9.078125 54.6875 
L 18.109375 54.6875 
L 18.109375 46.1875 
Q 21.1875 51.21875 25.484375 53.609375 
Q 29.78125 56 35.6875 56 
Q 41.65625 56 45.828125 52.96875 
Q 50 49.953125 52 44.1875 
z
" id="DejaVuSans-109"/>
      <path d="M 34.28125 27.484375 
Q 23.390625 27.484375 19.1875 25 
Q 14.984375 22.515625 14.984375 16.5 
Q 14.984375 11.71875 18.140625 8.90625 
Q 21.296875 6.109375 26.703125 6.109375 
Q 34.1875 6.109375 38.703125 11.40625 
Q 43.21875 16.703125 43.21875 25.484375 
L 43.21875 27.484375 
z
M 52.203125 31.203125 
L 52.203125 0 
L 43.21875 0 
L 43.21875 8.296875 
Q 40.140625 3.328125 35.546875 0.953125 
Q 30.953125 -1.421875 24.3125 -1.421875 
Q 15.921875 -1.421875 10.953125 3.296875 
Q 6 8.015625 6 15.921875 
Q 6 25.140625 12.171875 29.828125 
Q 18.359375 34.515625 30.609375 34.515625 
L 43.21875 34.515625 
L 43.21875 35.40625 
Q 43.21875 41.609375 39.140625 45 
Q 35.0625 48.390625 27.6875 48.390625 
Q 23 48.390625 18.546875 47.265625 
Q 14.109375 46.140625 10.015625 43.890625 
L 10.015625 52.203125 
Q 14.9375 54.109375 19.578125 55.046875 
Q 24.21875 56 28.609375 56 
Q 40.484375 56 46.34375 49.84375 
Q 52.203125 43.703125 52.203125 31.203125 
z
M 25.390625 79.984375 
L 32.625 79.984375 
L 44.578125 61.625 
L 37.796875 61.625 
L 29 73.578125 
L 20.21875 61.625 
L 13.421875 61.625 
z
M 22.078125 -6.890625 
L 31.0625 -6.890625 
L 31.0625 -18.3125 
L 22.078125 -18.3125 
z
" id="DejaVuSans-7853"/>
      <path d="M 45.40625 46.390625 
L 45.40625 62.703125 
L 29.5 62.703125 
L 29.5 68.796875 
L 45.40625 68.796875 
L 45.40625 75.984375 
L 54.390625 75.984375 
L 54.390625 68.796875 
L 61.921875 68.796875 
L 61.921875 62.703125 
L 54.390625 62.703125 
L 54.390625 0 
L 45.40625 0 
L 45.40625 8.203125 
Q 42.578125 3.328125 38.25 0.953125 
Q 33.9375 -1.421875 27.875 -1.421875 
Q 17.96875 -1.421875 11.734375 6.484375 
Q 5.515625 14.40625 5.515625 27.296875 
Q 5.515625 40.1875 11.734375 48.09375 
Q 17.96875 56 27.875 56 
Q 33.9375 56 38.25 53.625 
Q 42.578125 51.265625 45.40625 46.390625 
z
M 14.796875 27.296875 
Q 14.796875 17.390625 18.875 11.75 
Q 22.953125 6.109375 30.078125 6.109375 
Q 37.203125 6.109375 41.296875 11.75 
Q 45.40625 17.390625 45.40625 27.296875 
Q 45.40625 37.203125 41.296875 42.84375 
Q 37.203125 48.484375 30.078125 48.484375 
Q 22.953125 48.484375 18.875 42.84375 
Q 14.796875 37.203125 14.796875 27.296875 
z
" id="DejaVuSans-273"/>
      <path d="M 26.03125 -6.890625 
L 35.015625 -6.890625 
L 35.015625 -18.3125 
L 26.03125 -18.3125 
z
M 30.609375 48.390625 
Q 23.390625 48.390625 19.1875 42.75 
Q 14.984375 37.109375 14.984375 27.296875 
Q 14.984375 17.484375 19.15625 11.84375 
Q 23.34375 6.203125 30.609375 6.203125 
Q 37.796875 6.203125 41.984375 11.859375 
Q 46.1875 17.53125 46.1875 27.296875 
Q 46.1875 37.015625 41.984375 42.703125 
Q 37.796875 48.390625 30.609375 48.390625 
z
M 30.609375 56 
Q 42.328125 56 49.015625 48.375 
Q 55.71875 40.765625 55.71875 27.296875 
Q 55.71875 13.875 49.015625 6.21875 
Q 42.328125 -1.421875 30.609375 -1.421875 
Q 18.84375 -1.421875 12.171875 6.21875 
Q 5.515625 13.875 5.515625 27.296875 
Q 5.515625 40.765625 12.171875 48.375 
Q 18.84375 56 30.609375 56 
z
M 26.03125 -6.890625 
L 35.015625 -6.890625 
L 35.015625 -18.3125 
L 26.03125 -18.3125 
z
M 27 79.984375 
L 34.234375 79.984375 
L 46.1875 61.625 
L 39.40625 61.625 
L 30.609375 73.578125 
L 21.828125 61.625 
L 15.046875 61.625 
z
" id="DejaVuSans-7897"/>
     </defs>
     <g transform="translate(20.22 156.635413)rotate(-90)scale(0.168 -0.168)">
      <use xlink:href="#DejaVuSans-109"/>
      <use x="97.412109" xlink:href="#DejaVuSans-7853"/>
      <use x="158.691406" xlink:href="#DejaVuSans-116"/>
      <use x="197.900391" xlink:href="#DejaVuSans-32"/>
      <use x="229.6875" xlink:href="#DejaVuSans-273"/>
      <use x="293.164062" xlink:href="#DejaVuSans-7897"/>
     </g>
    </g>
   </g>
   <g id="PolyCollection_1">
    <path clip-path="url(#p5376c2e98a)" d="M 253.537076 215.362299 
L 253.537076 152.362939 
L 253.777519 152.095613 
L 254.017962 151.827545 
L 254.258404 151.558708 
L 254.498847 151.289113 
L 254.73929 151.018756 
L 254.979733 150.747645 
L 255.220176 150.475782 
L 255.460619 150.20315 
L 255.701062 149.92975 
L 255.941505 149.655598 
L 256.181948 149.380672 
L 256.422391 149.104988 
L 256.662834 148.82853 
L 256.903277 148.55131 
L 257.14372 148.273316 
L 257.384163 147.994549 
L 257.624605 147.715019 
L 257.865048 147.43471 
L 258.105491 147.153638 
L 258.345934 146.871777 
L 258.586377 146.589148 
L 258.82682 146.305745 
L 259.067263 146.021564 
L 259.307706 145.736599 
L 259.548149 145.450861 
L 259.788592 145.164334 
L 260.029035 144.877033 
L 260.269478 144.588954 
L 260.509921 144.300076 
L 260.750364 144.010414 
L 260.990806 143.719978 
L 261.231249 143.428754 
L 261.471692 143.136736 
L 261.712135 142.843923 
L 261.952578 142.550332 
L 262.193021 142.255953 
L 262.433464 141.960768 
L 262.673907 141.66479 
L 262.91435 141.368028 
L 263.154793 141.070467 
L 263.395236 140.772092 
L 263.635693 140.472927 
L 263.876136 140.172963 
L 264.116579 139.872216 
L 264.357022 139.570648 
L 264.597465 139.268287 
L 264.837908 138.965132 
L 265.078351 138.661161 
L 265.318794 138.356392 
L 265.559236 138.050819 
L 265.799679 137.744425 
L 266.040122 137.437243 
L 266.280565 137.129225 
L 266.521008 136.820409 
L 266.761451 136.510788 
L 267.001894 136.200352 
L 267.242337 135.889096 
L 267.48278 135.577036 
L 267.723223 135.264157 
L 267.963666 134.950447 
L 268.204109 134.635922 
L 268.444552 134.320588 
L 268.684995 134.00444 
L 268.925437 133.687461 
L 269.16588 133.369652 
L 269.406323 133.051039 
L 269.646766 132.73159 
L 269.887209 132.411306 
L 270.127652 132.090213 
L 270.368095 131.768279 
L 270.608538 131.445526 
L 270.848981 131.121942 
L 271.089424 130.797528 
L 271.329867 130.472279 
L 271.57031 130.146195 
L 271.810753 129.819275 
L 272.051196 129.491536 
L 272.291638 129.162945 
L 272.532081 128.83352 
L 272.772524 128.503264 
L 273.012967 128.172153 
L 273.25341 127.840216 
L 273.493853 127.507434 
L 273.734296 127.173806 
L 273.974739 126.839333 
L 274.215182 126.504024 
L 274.455625 126.16787 
L 274.696068 125.83086 
L 274.936511 125.493015 
L 275.176954 125.154303 
L 275.417397 124.814746 
L 275.65784 124.474343 
L 275.898282 124.133085 
L 276.138725 123.790981 
L 276.379168 123.44802 
L 276.619611 123.104204 
L 276.860054 122.759522 
L 277.100497 122.413994 
L 277.34094 122.0676 
L 277.581383 121.720361 
L 277.821826 121.372234 
L 278.062269 121.023262 
L 278.302712 120.673424 
L 278.543155 120.32274 
L 278.783598 119.971169 
L 279.024041 119.618742 
L 279.264483 119.265439 
L 279.504926 118.91128 
L 279.745369 118.556244 
L 279.985812 118.200342 
L 280.226255 117.843564 
L 280.466698 117.48592 
L 280.707141 117.127398 
L 280.947584 116.768001 
L 281.188027 116.407716 
L 281.42847 116.046576 
L 281.668913 115.684549 
L 281.909356 115.321655 
L 282.149799 114.957875 
L 282.390242 114.593208 
L 282.630684 114.227654 
L 282.871127 113.861223 
L 283.11157 113.493916 
L 283.352013 113.125722 
L 283.592456 112.756631 
L 283.832899 112.386664 
L 284.073342 112.015809 
L 284.313785 111.644058 
L 284.554228 111.271409 
L 284.794671 110.897884 
L 285.035114 110.523451 
L 285.275557 110.148142 
L 285.516 109.771925 
L 285.756443 109.394822 
L 285.996885 109.016811 
L 286.237328 108.637902 
L 286.477771 108.258107 
L 286.718214 107.877405 
L 286.958657 107.495805 
L 287.1991 107.113309 
L 287.439543 106.729894 
L 287.68 106.345562 
L 287.920443 105.960343 
L 288.160886 105.574226 
L 288.401329 105.187192 
L 288.641772 104.799251 
L 288.882215 104.410401 
L 289.122658 104.020635 
L 289.363101 103.629971 
L 289.603544 103.238379 
L 289.843987 102.845889 
L 290.08443 102.452472 
L 290.324873 102.058137 
L 290.565315 101.662884 
L 290.805758 101.266734 
L 291.046201 100.869646 
L 291.286644 100.47164 
L 291.527087 100.072716 
L 291.76753 99.672864 
L 292.007973 99.272094 
L 292.248416 98.870406 
L 292.488859 98.46778 
L 292.729302 98.064226 
L 292.969745 97.659744 
L 293.210188 97.254344 
L 293.450631 96.848016 
L 293.691074 96.440749 
L 293.931516 96.032555 
L 294.171959 95.623422 
L 294.412402 95.213361 
L 294.652845 94.802372 
L 294.893288 94.390434 
L 295.133731 93.977558 
L 295.374174 93.563743 
L 295.614617 93.149 
L 295.85506 92.733298 
L 296.095503 92.316679 
L 296.335946 91.89909 
L 296.576389 91.480583 
L 296.816832 91.061107 
L 297.057275 90.640713 
L 297.297717 90.21935 
L 297.53816 89.797039 
L 297.778603 89.373788 
L 298.019046 88.949589 
L 298.259489 88.524431 
L 298.499932 88.098325 
L 298.740375 87.671269 
L 298.980818 87.243255 
L 299.221261 86.814281 
L 299.461704 86.384359 
L 299.702147 85.953468 
L 299.94259 85.521638 
L 300.183033 85.088828 
L 300.423476 84.65507 
L 300.663918 84.220353 
L 300.904361 83.784656 
L 301.144804 83.34801 
L 301.385247 82.910385 
L 301.62569 82.4718 
L 301.866133 82.032267 
L 302.106576 81.591734 
L 302.347019 81.150252 
L 302.587462 80.707801 
L 302.827905 80.26437 
L 303.068348 79.819969 
L 303.308791 79.374589 
L 303.549234 78.92825 
L 303.789677 78.480921 
L 304.030119 78.032612 
L 304.270562 77.583345 
L 304.511005 77.133087 
L 304.751448 76.68185 
L 304.991891 76.229633 
L 305.232334 75.776426 
L 305.472777 75.32225 
L 305.71322 74.867083 
L 305.953663 74.410927 
L 306.194106 73.953781 
L 306.434549 73.495666 
L 306.674992 73.03655 
L 306.915435 72.576444 
L 306.915435 215.362299 
L 306.915435 215.362299 
L 306.674992 215.362299 
L 306.434549 215.362299 
L 306.194106 215.362299 
L 305.953663 215.362299 
L 305.71322 215.362299 
L 305.472777 215.362299 
L 305.232334 215.362299 
L 304.991891 215.362299 
L 304.751448 215.362299 
L 304.511005 215.362299 
L 304.270562 215.362299 
L 304.030119 215.362299 
L 303.789677 215.362299 
L 303.549234 215.362299 
L 303.308791 215.362299 
L 303.068348 215.362299 
L 302.827905 215.362299 
L 302.587462 215.362299 
L 302.347019 215.362299 
L 302.106576 215.362299 
L 301.866133 215.362299 
L 301.62569 215.362299 
L 301.385247 215.362299 
L 301.144804 215.362299 
L 300.904361 215.362299 
L 300.663918 215.362299 
L 300.423476 215.362299 
L 300.183033 215.362299 
L 299.94259 215.362299 
L 299.702147 215.362299 
L 299.461704 215.362299 
L 299.221261 215.362299 
L 298.980818 215.362299 
L 298.740375 215.362299 
L 298.499932 215.362299 
L 298.259489 215.362299 
L 298.019046 215.362299 
L 297.778603 215.362299 
L 297.53816 215.362299 
L 297.297717 215.362299 
L 297.057275 215.362299 
L 296.816832 215.362299 
L 296.576389 215.362299 
L 296.335946 215.362299 
L 296.095503 215.362299 
L 295.85506 215.362299 
L 295.614617 215.362299 
L 295.374174 215.362299 
L 295.133731 215.362299 
L 294.893288 215.362299 
L 294.652845 215.362299 
L 294.412402 215.362299 
L 294.171959 215.362299 
L 293.931516 215.362299 
L 293.691074 215.362299 
L 293.450631 215.362299 
L 293.210188 215.362299 
L 292.969745 215.362299 
L 292.729302 215.362299 
L 292.488859 215.362299 
L 292.248416 215.362299 
L 292.007973 215.362299 
L 291.76753 215.362299 
L 291.527087 215.362299 
L 291.286644 215.362299 
L 291.046201 215.362299 
L 290.805758 215.362299 
L 290.565315 215.362299 
L 290.324873 215.362299 
L 290.08443 215.362299 
L 289.843987 215.362299 
L 289.603544 215.362299 
L 289.363101 215.362299 
L 289.122658 215.362299 
L 288.882215 215.362299 
L 288.641772 215.362299 
L 288.401329 215.362299 
L 288.160886 215.362299 
L 287.920443 215.362299 
L 287.68 215.362299 
L 287.439543 215.362299 
L 287.1991 215.362299 
L 286.958657 215.362299 
L 286.718214 215.362299 
L 286.477771 215.362299 
L 286.237328 215.362299 
L 285.996885 215.362299 
L 285.756443 215.362299 
L 285.516 215.362299 
L 285.275557 215.362299 
L 285.035114 215.362299 
L 284.794671 215.362299 
L 284.554228 215.362299 
L 284.313785 215.362299 
L 284.073342 215.362299 
L 283.832899 215.362299 
L 283.592456 215.362299 
L 283.352013 215.362299 
L 283.11157 215.362299 
L 282.871127 215.362299 
L 282.630684 215.362299 
L 282.390242 215.362299 
L 282.149799 215.362299 
L 281.909356 215.362299 
L 281.668913 215.362299 
L 281.42847 215.362299 
L 281.188027 215.362299 
L 280.947584 215.362299 
L 280.707141 215.362299 
L 280.466698 215.362299 
L 280.226255 215.362299 
L 279.985812 215.362299 
L 279.745369 215.362299 
L 279.504926 215.362299 
L 279.264483 215.362299 
L 279.024041 215.362299 
L 278.783598 215.362299 
L 278.543155 215.362299 
L 278.302712 215.362299 
L 278.062269 215.362299 
L 277.821826 215.362299 
L 277.581383 215.362299 
L 277.34094 215.362299 
L 277.100497 215.362299 
L 276.860054 215.362299 
L 276.619611 215.362299 
L 276.379168 215.362299 
L 276.138725 215.362299 
L 275.898282 215.362299 
L 275.65784 215.362299 
L 275.417397 215.362299 
L 275.176954 215.362299 
L 274.936511 215.362299 
L 274.696068 215.362299 
L 274.455625 215.362299 
L 274.215182 215.362299 
L 273.974739 215.362299 
L 273.734296 215.362299 
L 273.493853 215.362299 
L 273.25341 215.362299 
L 273.012967 215.362299 
L 272.772524 215.362299 
L 272.532081 215.362299 
L 272.291638 215.362299 
L 272.051196 215.362299 
L 271.810753 215.362299 
L 271.57031 215.362299 
L 271.329867 215.362299 
L 271.089424 215.362299 
L 270.848981 215.362299 
L 270.608538 215.362299 
L 270.368095 215.362299 
L 270.127652 215.362299 
L 269.887209 215.362299 
L 269.646766 215.362299 
L 269.406323 215.362299 
L 269.16588 215.362299 
L 268.925437 215.362299 
L 268.684995 215.362299 
L 268.444552 215.362299 
L 268.204109 215.362299 
L 267.963666 215.362299 
L 267.723223 215.362299 
L 267.48278 215.362299 
L 267.242337 215.362299 
L 267.001894 215.362299 
L 266.761451 215.362299 
L 266.521008 215.362299 
L 266.280565 215.362299 
L 266.040122 215.362299 
L 265.799679 215.362299 
L 265.559236 215.362299 
L 265.318794 215.362299 
L 265.078351 215.362299 
L 264.837908 215.362299 
L 264.597465 215.362299 
L 264.357022 215.362299 
L 264.116579 215.362299 
L 263.876136 215.362299 
L 263.635693 215.362299 
L 263.395236 215.362299 
L 263.154793 215.362299 
L 262.91435 215.362299 
L 262.673907 215.362299 
L 262.433464 215.362299 
L 262.193021 215.362299 
L 261.952578 215.362299 
L 261.712135 215.362299 
L 261.471692 215.362299 
L 261.231249 215.362299 
L 260.990806 215.362299 
L 260.750364 215.362299 
L 260.509921 215.362299 
L 260.269478 215.362299 
L 260.029035 215.362299 
L 259.788592 215.362299 
L 259.548149 215.362299 
L 259.307706 215.362299 
L 259.067263 215.362299 
L 258.82682 215.362299 
L 258.586377 215.362299 
L 258.345934 215.362299 
L 258.105491 215.362299 
L 257.865048 215.362299 
L 257.624605 215.362299 
L 257.384163 215.362299 
L 257.14372 215.362299 
L 256.903277 215.362299 
L 256.662834 215.362299 
L 256.422391 215.362299 
L 256.181948 215.362299 
L 255.941505 215.362299 
L 255.701062 215.362299 
L 255.460619 215.362299 
L 255.220176 215.362299 
L 254.979733 215.362299 
L 254.73929 215.362299 
L 254.498847 215.362299 
L 254.258404 215.362299 
L 254.017962 215.362299 
L 253.777519 215.362299 
L 253.537076 215.362299 
z
" style="fill:#008fd5;"/>
   </g>
   <g id="line2d_21">
    <path clip-path="url(#p5376c2e98a)" d="M 83.303381 215.362299 
L 103.741043 215.253282 
L 114.801423 214.963228 
L 123.938262 214.505465 
L 132.113325 213.877306 
L 139.567059 213.087809 
L 146.539908 212.133035 
L 153.272317 210.98793 
L 159.764276 209.653855 
L 166.015799 208.136071 
L 172.026873 206.443314 
L 177.79751 204.587377 
L 183.327697 202.582727 
L 188.857892 200.343683 
L 194.388079 197.857294 
L 199.677831 195.235604 
L 204.967575 192.36441 
L 210.25732 189.232377 
L 215.306621 185.988961 
L 220.355937 182.487659 
L 225.405239 178.71864 
L 230.45454 174.672023 
L 235.503842 170.337952 
L 240.553158 165.706531 
L 245.602459 160.767948 
L 250.651761 155.512304 
L 255.701062 149.92975 
L 260.750364 144.010414 
L 265.799679 137.744425 
L 270.848981 131.121942 
L 275.898282 124.133085 
L 280.947584 116.768001 
L 285.996885 109.016811 
L 291.046201 100.869646 
L 296.335946 91.89909 
L 301.62569 82.4718 
L 306.915435 72.576444 
L 312.205193 62.201637 
L 317.494938 51.336086 
L 322.784682 39.968429 
L 323.506011 38.378776 
L 323.506011 38.378776 
" style="fill:none;stroke:#008fd5;stroke-width:4;"/>
   </g>
   <g id="patch_3">
    <path d="M 71.29325 224.211475 
L 71.29325 29.5296 
" style="fill:none;stroke:#f0f0f0;stroke-linecap:square;stroke-linejoin:miter;stroke-width:3;"/>
   </g>
   <g id="patch_4">
    <path d="M 335.516143 224.211475 
L 335.516143 29.5296 
" style="fill:none;stroke:#f0f0f0;stroke-linecap:square;stroke-linejoin:miter;stroke-width:3;"/>
   </g>
   <g id="patch_5">
    <path d="M 71.29325 224.211475 
L 335.516143 224.211475 
" style="fill:none;stroke:#f0f0f0;stroke-linecap:square;stroke-linejoin:miter;stroke-width:3;"/>
   </g>
   <g id="patch_6">
    <path d="M 71.29325 29.5296 
L 335.516143 29.5296 
" style="fill:none;stroke:#f0f0f0;stroke-linecap:square;stroke-linejoin:miter;stroke-width:3;"/>
   </g>
   <g id="text_13">
    <!-- Khoảng tin cậy 50% percentile -->
    <defs>
     <path d="M 9.8125 72.90625 
L 19.671875 72.90625 
L 19.671875 42.09375 
L 52.390625 72.90625 
L 65.09375 72.90625 
L 28.90625 38.921875 
L 67.671875 0 
L 54.6875 0 
L 19.671875 35.109375 
L 19.671875 0 
L 9.8125 0 
z
" id="DejaVuSans-75"/>
     <path d="M 54.890625 33.015625 
L 54.890625 0 
L 45.90625 0 
L 45.90625 32.71875 
Q 45.90625 40.484375 42.875 44.328125 
Q 39.84375 48.1875 33.796875 48.1875 
Q 26.515625 48.1875 22.3125 43.546875 
Q 18.109375 38.921875 18.109375 30.90625 
L 18.109375 0 
L 9.078125 0 
L 9.078125 75.984375 
L 18.109375 75.984375 
L 18.109375 46.1875 
Q 21.34375 51.125 25.703125 53.5625 
Q 30.078125 56 35.796875 56 
Q 45.21875 56 50.046875 50.171875 
Q 54.890625 44.34375 54.890625 33.015625 
z
" id="DejaVuSans-104"/>
     <path d="M 30.609375 48.390625 
Q 23.390625 48.390625 19.1875 42.75 
Q 14.984375 37.109375 14.984375 27.296875 
Q 14.984375 17.484375 19.15625 11.84375 
Q 23.34375 6.203125 30.609375 6.203125 
Q 37.796875 6.203125 41.984375 11.859375 
Q 46.1875 17.53125 46.1875 27.296875 
Q 46.1875 37.015625 41.984375 42.703125 
Q 37.796875 48.390625 30.609375 48.390625 
z
M 30.609375 56 
Q 42.328125 56 49.015625 48.375 
Q 55.71875 40.765625 55.71875 27.296875 
Q 55.71875 13.875 49.015625 6.21875 
Q 42.328125 -1.421875 30.609375 -1.421875 
Q 18.84375 -1.421875 12.171875 6.21875 
Q 5.515625 13.875 5.515625 27.296875 
Q 5.515625 40.765625 12.171875 48.375 
Q 18.84375 56 30.609375 56 
z
" id="DejaVuSans-111"/>
     <path d="M 34.28125 27.484375 
Q 23.390625 27.484375 19.1875 25 
Q 14.984375 22.515625 14.984375 16.5 
Q 14.984375 11.71875 18.140625 8.90625 
Q 21.296875 6.109375 26.703125 6.109375 
Q 34.1875 6.109375 38.703125 11.40625 
Q 43.21875 16.703125 43.21875 25.484375 
L 43.21875 27.484375 
z
M 52.203125 31.203125 
L 52.203125 0 
L 43.21875 0 
L 43.21875 8.296875 
Q 40.140625 3.328125 35.546875 0.953125 
Q 30.953125 -1.421875 24.3125 -1.421875 
Q 15.921875 -1.421875 10.953125 3.296875 
Q 6 8.015625 6 15.921875 
Q 6 25.140625 12.171875 29.828125 
Q 18.359375 34.515625 30.609375 34.515625 
L 43.21875 34.515625 
L 43.21875 35.40625 
Q 43.21875 41.609375 39.140625 45 
Q 35.0625 48.390625 27.6875 48.390625 
Q 23 48.390625 18.546875 47.265625 
Q 14.109375 46.140625 10.015625 43.890625 
L 10.015625 52.203125 
Q 14.9375 54.109375 19.578125 55.046875 
Q 24.21875 56 28.609375 56 
Q 40.484375 56 46.34375 49.84375 
Q 52.203125 43.703125 52.203125 31.203125 
z
M 19.28125 78.515625 
Q 24.75 81 29.890625 81 
Q 34.96875 81 38.0625 78.921875 
Q 41.15625 76.859375 41.15625 73.578125 
Q 41.15625 70.609375 36.859375 67.4375 
L 34.71875 65.875 
Q 33.015625 64.59375 32.8125 64.15625 
Q 32.46875 63.375 32.46875 61.8125 
L 26.65625 61.8125 
L 26.65625 62.40625 
Q 26.65625 64.359375 27.390625 65.671875 
Q 28.125 67 30.609375 68.796875 
L 32.8125 70.453125 
Q 35.0625 72.125 35.0625 74.078125 
Q 35.0625 75.09375 33.546875 75.96875 
Q 32.03125 76.859375 28.5625 76.859375 
Q 24.171875 76.859375 19.28125 74.3125 
z
" id="DejaVuSans-7843"/>
     <path d="M 45.40625 27.984375 
Q 45.40625 37.75 41.375 43.109375 
Q 37.359375 48.484375 30.078125 48.484375 
Q 22.859375 48.484375 18.828125 43.109375 
Q 14.796875 37.75 14.796875 27.984375 
Q 14.796875 18.265625 18.828125 12.890625 
Q 22.859375 7.515625 30.078125 7.515625 
Q 37.359375 7.515625 41.375 12.890625 
Q 45.40625 18.265625 45.40625 27.984375 
z
M 54.390625 6.78125 
Q 54.390625 -7.171875 48.1875 -13.984375 
Q 42 -20.796875 29.203125 -20.796875 
Q 24.46875 -20.796875 20.265625 -20.09375 
Q 16.0625 -19.390625 12.109375 -17.921875 
L 12.109375 -9.1875 
Q 16.0625 -11.328125 19.921875 -12.34375 
Q 23.78125 -13.375 27.78125 -13.375 
Q 36.625 -13.375 41.015625 -8.765625 
Q 45.40625 -4.15625 45.40625 5.171875 
L 45.40625 9.625 
Q 42.625 4.78125 38.28125 2.390625 
Q 33.9375 0 27.875 0 
Q 17.828125 0 11.671875 7.65625 
Q 5.515625 15.328125 5.515625 27.984375 
Q 5.515625 40.671875 11.671875 48.328125 
Q 17.828125 56 27.875 56 
Q 33.9375 56 38.28125 53.609375 
Q 42.625 51.21875 45.40625 46.390625 
L 45.40625 54.6875 
L 54.390625 54.6875 
z
" id="DejaVuSans-103"/>
     <path d="M 9.421875 54.6875 
L 18.40625 54.6875 
L 18.40625 0 
L 9.421875 0 
z
M 9.421875 75.984375 
L 18.40625 75.984375 
L 18.40625 64.59375 
L 9.421875 64.59375 
z
" id="DejaVuSans-105"/>
     <path d="M 32.171875 -5.078125 
Q 28.375 -14.84375 24.75 -17.8125 
Q 21.140625 -20.796875 15.09375 -20.796875 
L 7.90625 -20.796875 
L 7.90625 -13.28125 
L 13.1875 -13.28125 
Q 16.890625 -13.28125 18.9375 -11.515625 
Q 21 -9.765625 23.484375 -3.21875 
L 25.09375 0.875 
L 2.984375 54.6875 
L 12.5 54.6875 
L 29.59375 11.921875 
L 46.6875 54.6875 
L 56.203125 54.6875 
z
" id="DejaVuSans-121"/>
     <path d="M 72.703125 32.078125 
Q 68.453125 32.078125 66.03125 28.46875 
Q 63.625 24.859375 63.625 18.40625 
Q 63.625 12.0625 66.03125 8.421875 
Q 68.453125 4.78125 72.703125 4.78125 
Q 76.859375 4.78125 79.265625 8.421875 
Q 81.6875 12.0625 81.6875 18.40625 
Q 81.6875 24.8125 79.265625 28.4375 
Q 76.859375 32.078125 72.703125 32.078125 
z
M 72.703125 38.28125 
Q 80.421875 38.28125 84.953125 32.90625 
Q 89.5 27.546875 89.5 18.40625 
Q 89.5 9.28125 84.9375 3.921875 
Q 80.375 -1.421875 72.703125 -1.421875 
Q 64.890625 -1.421875 60.34375 3.921875 
Q 55.8125 9.28125 55.8125 18.40625 
Q 55.8125 27.59375 60.375 32.9375 
Q 64.9375 38.28125 72.703125 38.28125 
z
M 22.3125 68.015625 
Q 18.109375 68.015625 15.6875 64.375 
Q 13.28125 60.75 13.28125 54.390625 
Q 13.28125 47.953125 15.671875 44.328125 
Q 18.0625 40.71875 22.3125 40.71875 
Q 26.5625 40.71875 28.96875 44.328125 
Q 31.390625 47.953125 31.390625 54.390625 
Q 31.390625 60.6875 28.953125 64.34375 
Q 26.515625 68.015625 22.3125 68.015625 
z
M 66.40625 74.21875 
L 74.21875 74.21875 
L 28.609375 -1.421875 
L 20.796875 -1.421875 
z
M 22.3125 74.21875 
Q 30.03125 74.21875 34.609375 68.875 
Q 39.203125 63.53125 39.203125 54.390625 
Q 39.203125 45.171875 34.640625 39.84375 
Q 30.078125 34.515625 22.3125 34.515625 
Q 14.546875 34.515625 10.03125 39.859375 
Q 5.515625 45.21875 5.515625 54.390625 
Q 5.515625 63.484375 10.046875 68.84375 
Q 14.59375 74.21875 22.3125 74.21875 
z
" id="DejaVuSans-37"/>
     <path d="M 56.203125 29.59375 
L 56.203125 25.203125 
L 14.890625 25.203125 
Q 15.484375 15.921875 20.484375 11.0625 
Q 25.484375 6.203125 34.421875 6.203125 
Q 39.59375 6.203125 44.453125 7.46875 
Q 49.3125 8.734375 54.109375 11.28125 
L 54.109375 2.78125 
Q 49.265625 0.734375 44.1875 -0.34375 
Q 39.109375 -1.421875 33.890625 -1.421875 
Q 20.796875 -1.421875 13.15625 6.1875 
Q 5.515625 13.8125 5.515625 26.8125 
Q 5.515625 40.234375 12.765625 48.109375 
Q 20.015625 56 32.328125 56 
Q 43.359375 56 49.78125 48.890625 
Q 56.203125 41.796875 56.203125 29.59375 
z
M 47.21875 32.234375 
Q 47.125 39.59375 43.09375 43.984375 
Q 39.0625 48.390625 32.421875 48.390625 
Q 24.90625 48.390625 20.390625 44.140625 
Q 15.875 39.890625 15.1875 32.171875 
z
" id="DejaVuSans-101"/>
     <path d="M 41.109375 46.296875 
Q 39.59375 47.171875 37.8125 47.578125 
Q 36.03125 48 33.890625 48 
Q 26.265625 48 22.1875 43.046875 
Q 18.109375 38.09375 18.109375 28.8125 
L 18.109375 0 
L 9.078125 0 
L 9.078125 54.6875 
L 18.109375 54.6875 
L 18.109375 46.1875 
Q 20.953125 51.171875 25.484375 53.578125 
Q 30.03125 56 36.53125 56 
Q 37.453125 56 38.578125 55.875 
Q 39.703125 55.765625 41.0625 55.515625 
z
" id="DejaVuSans-114"/>
    </defs>
    <g transform="translate(48.823171 23.5296)scale(0.2016 -0.2016)">
     <use xlink:href="#DejaVuSans-75"/>
     <use x="65.576172" xlink:href="#DejaVuSans-104"/>
     <use x="128.955078" xlink:href="#DejaVuSans-111"/>
     <use x="190.136719" xlink:href="#DejaVuSans-7843"/>
     <use x="251.416016" xlink:href="#DejaVuSans-110"/>
     <use x="314.794922" xlink:href="#DejaVuSans-103"/>
     <use x="378.271484" xlink:href="#DejaVuSans-32"/>
     <use x="410.058594" xlink:href="#DejaVuSans-116"/>
     <use x="449.267578" xlink:href="#DejaVuSans-105"/>
     <use x="477.050781" xlink:href="#DejaVuSans-110"/>
     <use x="540.429688" xlink:href="#DejaVuSans-32"/>
     <use x="572.216797" xlink:href="#DejaVuSans-99"/>
     <use x="627.197266" xlink:href="#DejaVuSans-7853"/>
     <use x="688.476562" xlink:href="#DejaVuSans-121"/>
     <use x="747.65625" xlink:href="#DejaVuSans-32"/>
     <use x="779.443359" xlink:href="#DejaVuSans-53"/>
     <use x="843.066406" xlink:href="#DejaVuSans-48"/>
     <use x="906.689453" xlink:href="#DejaVuSans-37"/>
     <use x="1001.708984" xlink:href="#DejaVuSans-32"/>
     <use x="1033.496094" xlink:href="#DejaVuSans-112"/>
     <use x="1096.972656" xlink:href="#DejaVuSans-101"/>
     <use x="1158.496094" xlink:href="#DejaVuSans-114"/>
     <use x="1197.359375" xlink:href="#DejaVuSans-99"/>
     <use x="1252.339844" xlink:href="#DejaVuSans-101"/>
     <use x="1313.863281" xlink:href="#DejaVuSans-110"/>
     <use x="1377.242188" xlink:href="#DejaVuSans-116"/>
     <use x="1416.451172" xlink:href="#DejaVuSans-105"/>
     <use x="1444.234375" xlink:href="#DejaVuSans-108"/>
     <use x="1472.017578" xlink:href="#DejaVuSans-101"/>
    </g>
   </g>
  </g>
  <g id="axes_2">
   <g id="patch_7">
    <path d="M 428.710006 224.211475 
L 692.932899 224.211475 
L 692.932899 29.5296 
L 428.710006 29.5296 
z
" style="fill:#f0f0f0;"/>
   </g>
   <g id="matplotlib.axis_3">
    <g id="xtick_6">
     <g id="line2d_22">
      <path clip-path="url(#pf7c67eddec)" d="M 440.720138 224.211475 
L 440.720138 29.5296 
" style="fill:none;stroke:#cbcbcb;"/>
     </g>
     <g id="line2d_23"/>
     <g id="text_14">
      <!-- 0.00 -->
      <g transform="translate(425.1342 238.349288)scale(0.14 -0.14)">
       <use xlink:href="#DejaVuSans-48"/>
       <use x="63.623047" xlink:href="#DejaVuSans-46"/>
       <use x="95.410156" xlink:href="#DejaVuSans-48"/>
       <use x="159.033203" xlink:href="#DejaVuSans-48"/>
      </g>
     </g>
    </g>
    <g id="xtick_7">
     <g id="line2d_24">
      <path clip-path="url(#pf7c67eddec)" d="M 500.770795 224.211475 
L 500.770795 29.5296 
" style="fill:none;stroke:#cbcbcb;"/>
     </g>
     <g id="line2d_25"/>
     <g id="text_15">
      <!-- 0.25 -->
      <g transform="translate(485.184858 238.349288)scale(0.14 -0.14)">
       <use xlink:href="#DejaVuSans-48"/>
       <use x="63.623047" xlink:href="#DejaVuSans-46"/>
       <use x="95.410156" xlink:href="#DejaVuSans-50"/>
       <use x="159.033203" xlink:href="#DejaVuSans-53"/>
      </g>
     </g>
    </g>
    <g id="xtick_8">
     <g id="line2d_26">
      <path clip-path="url(#pf7c67eddec)" d="M 560.821452 224.211475 
L 560.821452 29.5296 
" style="fill:none;stroke:#cbcbcb;"/>
     </g>
     <g id="line2d_27"/>
     <g id="text_16">
      <!-- 0.50 -->
      <g transform="translate(545.235515 238.349288)scale(0.14 -0.14)">
       <use xlink:href="#DejaVuSans-48"/>
       <use x="63.623047" xlink:href="#DejaVuSans-46"/>
       <use x="95.410156" xlink:href="#DejaVuSans-53"/>
       <use x="159.033203" xlink:href="#DejaVuSans-48"/>
      </g>
     </g>
    </g>
    <g id="xtick_9">
     <g id="line2d_28">
      <path clip-path="url(#pf7c67eddec)" d="M 620.87211 224.211475 
L 620.87211 29.5296 
" style="fill:none;stroke:#cbcbcb;"/>
     </g>
     <g id="line2d_29"/>
     <g id="text_17">
      <!-- 0.75 -->
      <g transform="translate(605.286172 238.349288)scale(0.14 -0.14)">
       <use xlink:href="#DejaVuSans-48"/>
       <use x="63.623047" xlink:href="#DejaVuSans-46"/>
       <use x="95.410156" xlink:href="#DejaVuSans-55"/>
       <use x="159.033203" xlink:href="#DejaVuSans-53"/>
      </g>
     </g>
    </g>
    <g id="xtick_10">
     <g id="line2d_30">
      <path clip-path="url(#pf7c67eddec)" d="M 680.922767 224.211475 
L 680.922767 29.5296 
" style="fill:none;stroke:#cbcbcb;"/>
     </g>
     <g id="line2d_31"/>
     <g id="text_18">
      <!-- 1.00 -->
      <g transform="translate(665.33683 238.349288)scale(0.14 -0.14)">
       <use xlink:href="#DejaVuSans-49"/>
       <use x="63.623047" xlink:href="#DejaVuSans-46"/>
       <use x="95.410156" xlink:href="#DejaVuSans-48"/>
       <use x="159.033203" xlink:href="#DejaVuSans-48"/>
      </g>
     </g>
    </g>
    <g id="text_19">
     <!-- tỉ lệ nước (p) -->
     <g transform="translate(507.39089 258.876725)scale(0.168 -0.168)">
      <use xlink:href="#DejaVuSans-116"/>
      <use x="39.208984" xlink:href="#DejaVuSans-7881"/>
      <use x="66.992188" xlink:href="#DejaVuSans-32"/>
      <use x="98.779297" xlink:href="#DejaVuSans-108"/>
      <use x="126.5625" xlink:href="#DejaVuSans-7879"/>
      <use x="188.085938" xlink:href="#DejaVuSans-32"/>
      <use x="219.873047" xlink:href="#DejaVuSans-110"/>
      <use x="283.251953" xlink:href="#DejaVuSans-432"/>
      <use x="346.630859" xlink:href="#DejaVuSans-7899"/>
      <use x="407.8125" xlink:href="#DejaVuSans-99"/>
      <use x="462.792969" xlink:href="#DejaVuSans-32"/>
      <use x="494.580078" xlink:href="#DejaVuSans-40"/>
      <use x="533.59375" xlink:href="#DejaVuSans-112"/>
      <use x="597.070312" xlink:href="#DejaVuSans-41"/>
     </g>
    </g>
   </g>
   <g id="matplotlib.axis_4">
    <g id="ytick_6">
     <g id="line2d_32">
      <path clip-path="url(#pf7c67eddec)" d="M 428.710006 215.362299 
L 692.932899 215.362299 
" style="fill:none;stroke:#cbcbcb;"/>
     </g>
     <g id="line2d_33"/>
     <g id="text_20">
      <!-- 0.000 -->
      <g transform="translate(385.130631 220.681205)scale(0.14 -0.14)">
       <use xlink:href="#DejaVuSans-48"/>
       <use x="63.623047" xlink:href="#DejaVuSans-46"/>
       <use x="95.410156" xlink:href="#DejaVuSans-48"/>
       <use x="159.033203" xlink:href="#DejaVuSans-48"/>
       <use x="222.65625" xlink:href="#DejaVuSans-48"/>
      </g>
     </g>
    </g>
    <g id="ytick_7">
     <g id="line2d_34">
      <path clip-path="url(#pf7c67eddec)" d="M 428.710006 171.072125 
L 692.932899 171.072125 
" style="fill:none;stroke:#cbcbcb;"/>
     </g>
     <g id="line2d_35"/>
     <g id="text_21">
      <!-- 0.001 -->
      <g transform="translate(385.130631 176.391031)scale(0.14 -0.14)">
       <use xlink:href="#DejaVuSans-48"/>
       <use x="63.623047" xlink:href="#DejaVuSans-46"/>
       <use x="95.410156" xlink:href="#DejaVuSans-48"/>
       <use x="159.033203" xlink:href="#DejaVuSans-48"/>
       <use x="222.65625" xlink:href="#DejaVuSans-49"/>
      </g>
     </g>
    </g>
    <g id="ytick_8">
     <g id="line2d_36">
      <path clip-path="url(#pf7c67eddec)" d="M 428.710006 126.78195 
L 692.932899 126.78195 
" style="fill:none;stroke:#cbcbcb;"/>
     </g>
     <g id="line2d_37"/>
     <g id="text_22">
      <!-- 0.002 -->
      <g transform="translate(385.130631 132.100857)scale(0.14 -0.14)">
       <use xlink:href="#DejaVuSans-48"/>
       <use x="63.623047" xlink:href="#DejaVuSans-46"/>
       <use x="95.410156" xlink:href="#DejaVuSans-48"/>
       <use x="159.033203" xlink:href="#DejaVuSans-48"/>
       <use x="222.65625" xlink:href="#DejaVuSans-50"/>
      </g>
     </g>
    </g>
    <g id="ytick_9">
     <g id="line2d_38">
      <path clip-path="url(#pf7c67eddec)" d="M 428.710006 82.491776 
L 692.932899 82.491776 
" style="fill:none;stroke:#cbcbcb;"/>
     </g>
     <g id="line2d_39"/>
     <g id="text_23">
      <!-- 0.003 -->
      <g transform="translate(385.130631 87.810682)scale(0.14 -0.14)">
       <use xlink:href="#DejaVuSans-48"/>
       <use x="63.623047" xlink:href="#DejaVuSans-46"/>
       <use x="95.410156" xlink:href="#DejaVuSans-48"/>
       <use x="159.033203" xlink:href="#DejaVuSans-48"/>
       <use x="222.65625" xlink:href="#DejaVuSans-51"/>
      </g>
     </g>
    </g>
    <g id="ytick_10">
     <g id="line2d_40">
      <path clip-path="url(#pf7c67eddec)" d="M 428.710006 38.201602 
L 692.932899 38.201602 
" style="fill:none;stroke:#cbcbcb;"/>
     </g>
     <g id="line2d_41"/>
     <g id="text_24">
      <!-- 0.004 -->
      <g transform="translate(385.130631 43.520508)scale(0.14 -0.14)">
       <use xlink:href="#DejaVuSans-48"/>
       <use x="63.623047" xlink:href="#DejaVuSans-46"/>
       <use x="95.410156" xlink:href="#DejaVuSans-48"/>
       <use x="159.033203" xlink:href="#DejaVuSans-48"/>
       <use x="222.65625" xlink:href="#DejaVuSans-52"/>
      </g>
     </g>
    </g>
    <g id="text_25">
     <!-- mật độ -->
     <g transform="translate(377.636756 156.635413)rotate(-90)scale(0.168 -0.168)">
      <use xlink:href="#DejaVuSans-109"/>
      <use x="97.412109" xlink:href="#DejaVuSans-7853"/>
      <use x="158.691406" xlink:href="#DejaVuSans-116"/>
      <use x="197.900391" xlink:href="#DejaVuSans-32"/>
      <use x="229.6875" xlink:href="#DejaVuSans-273"/>
      <use x="293.164062" xlink:href="#DejaVuSans-7897"/>
     </g>
    </g>
   </g>
   <g id="PolyCollection_2">
    <path clip-path="url(#pf7c67eddec)" d="M 643.413642 215.362299 
L 643.413642 109.016811 
L 643.654085 108.637902 
L 643.894528 108.258107 
L 644.13497 107.877405 
L 644.375413 107.495805 
L 644.615856 107.113309 
L 644.856299 106.729894 
L 645.096756 106.345562 
L 645.337199 105.960343 
L 645.577642 105.574226 
L 645.818085 105.187192 
L 646.058528 104.799251 
L 646.298971 104.410401 
L 646.539414 104.020635 
L 646.779857 103.629971 
L 647.0203 103.238379 
L 647.260743 102.845889 
L 647.501186 102.452472 
L 647.741629 102.058137 
L 647.982072 101.662884 
L 648.222515 101.266734 
L 648.462957 100.869646 
L 648.7034 100.47164 
L 648.943843 100.072716 
L 649.184286 99.672864 
L 649.424729 99.272094 
L 649.665172 98.870406 
L 649.905615 98.46778 
L 650.146058 98.064226 
L 650.386501 97.659744 
L 650.626944 97.254344 
L 650.867387 96.848016 
L 651.10783 96.440749 
L 651.348273 96.032555 
L 651.588716 95.623422 
L 651.829159 95.213361 
L 652.069601 94.802372 
L 652.310044 94.390434 
L 652.550487 93.977558 
L 652.79093 93.563743 
L 653.031373 93.149 
L 653.271816 92.733298 
L 653.512259 92.316679 
L 653.752702 91.89909 
L 653.993145 91.480583 
L 654.233588 91.061107 
L 654.474031 90.640713 
L 654.714474 90.21935 
L 654.954917 89.797039 
L 655.19536 89.373788 
L 655.435802 88.949589 
L 655.676245 88.524431 
L 655.916688 88.098325 
L 656.157131 87.671269 
L 656.397574 87.243255 
L 656.638017 86.814281 
L 656.87846 86.384359 
L 657.118903 85.953468 
L 657.359346 85.521638 
L 657.599789 85.088828 
L 657.840232 84.65507 
L 658.080675 84.220353 
L 658.321118 83.784656 
L 658.561561 83.34801 
L 658.802003 82.910385 
L 659.042446 82.4718 
L 659.282889 82.032267 
L 659.523332 81.591734 
L 659.763775 81.150252 
L 660.004218 80.707801 
L 660.244661 80.26437 
L 660.485104 79.819969 
L 660.725547 79.374589 
L 660.96599 78.92825 
L 661.206433 78.480921 
L 661.446876 78.032612 
L 661.687319 77.583345 
L 661.927762 77.133087 
L 662.168204 76.68185 
L 662.408647 76.229633 
L 662.64909 75.776426 
L 662.889533 75.32225 
L 663.129976 74.867083 
L 663.370419 74.410927 
L 663.610862 73.953781 
L 663.851305 73.495666 
L 664.091748 73.03655 
L 664.332191 72.576444 
L 664.572634 72.115349 
L 664.813077 71.653263 
L 665.05352 71.190187 
L 665.293963 70.726111 
L 665.534405 70.261056 
L 665.774848 69.794979 
L 666.015291 69.327923 
L 666.255734 68.859867 
L 666.496177 68.3908 
L 666.73662 67.920743 
L 666.977063 67.449686 
L 667.217506 66.977629 
L 667.457949 66.504561 
L 667.698392 66.030492 
L 667.938835 65.555413 
L 668.179278 65.079334 
L 668.419721 64.602244 
L 668.660164 64.124154 
L 668.900606 63.645043 
L 669.141064 63.164901 
L 669.381507 62.68378 
L 669.62195 62.201637 
L 669.862393 61.718473 
L 670.102835 61.234309 
L 670.343278 60.749125 
L 670.583721 60.262909 
L 670.824164 59.775692 
L 671.064607 59.287445 
L 671.30505 58.798187 
L 671.545493 58.307908 
L 671.785936 57.816598 
L 672.026379 57.324267 
L 672.266822 56.830915 
L 672.507265 56.336532 
L 672.747708 55.841128 
L 672.988151 55.344692 
L 673.228594 54.847226 
L 673.469036 54.348738 
L 673.709479 53.84922 
L 673.949922 53.348649 
L 674.190365 52.847068 
L 674.430808 52.344435 
L 674.671251 51.840782 
L 674.911694 51.336086 
L 675.152137 50.83035 
L 675.39258 50.323592 
L 675.633023 49.815772 
L 675.873466 49.306921 
L 676.113909 48.797028 
L 676.354352 48.286094 
L 676.594795 47.774119 
L 676.835237 47.261081 
L 677.07568 46.747022 
L 677.316123 46.231901 
L 677.556566 45.715729 
L 677.797009 45.198525 
L 678.037452 44.680259 
L 678.277895 44.160941 
L 678.518338 43.640571 
L 678.758781 43.11915 
L 678.999224 42.596677 
L 679.239667 42.073131 
L 679.48011 41.548554 
L 679.720553 41.022904 
L 679.960996 40.496203 
L 680.201438 39.968429 
L 680.441881 39.439603 
L 680.682324 38.909726 
L 680.922767 38.378776 
L 680.922767 215.362299 
L 680.922767 215.362299 
L 680.682324 215.362299 
L 680.441881 215.362299 
L 680.201438 215.362299 
L 679.960996 215.362299 
L 679.720553 215.362299 
L 679.48011 215.362299 
L 679.239667 215.362299 
L 678.999224 215.362299 
L 678.758781 215.362299 
L 678.518338 215.362299 
L 678.277895 215.362299 
L 678.037452 215.362299 
L 677.797009 215.362299 
L 677.556566 215.362299 
L 677.316123 215.362299 
L 677.07568 215.362299 
L 676.835237 215.362299 
L 676.594795 215.362299 
L 676.354352 215.362299 
L 676.113909 215.362299 
L 675.873466 215.362299 
L 675.633023 215.362299 
L 675.39258 215.362299 
L 675.152137 215.362299 
L 674.911694 215.362299 
L 674.671251 215.362299 
L 674.430808 215.362299 
L 674.190365 215.362299 
L 673.949922 215.362299 
L 673.709479 215.362299 
L 673.469036 215.362299 
L 673.228594 215.362299 
L 672.988151 215.362299 
L 672.747708 215.362299 
L 672.507265 215.362299 
L 672.266822 215.362299 
L 672.026379 215.362299 
L 671.785936 215.362299 
L 671.545493 215.362299 
L 671.30505 215.362299 
L 671.064607 215.362299 
L 670.824164 215.362299 
L 670.583721 215.362299 
L 670.343278 215.362299 
L 670.102835 215.362299 
L 669.862393 215.362299 
L 669.62195 215.362299 
L 669.381507 215.362299 
L 669.141064 215.362299 
L 668.900606 215.362299 
L 668.660164 215.362299 
L 668.419721 215.362299 
L 668.179278 215.362299 
L 667.938835 215.362299 
L 667.698392 215.362299 
L 667.457949 215.362299 
L 667.217506 215.362299 
L 666.977063 215.362299 
L 666.73662 215.362299 
L 666.496177 215.362299 
L 666.255734 215.362299 
L 666.015291 215.362299 
L 665.774848 215.362299 
L 665.534405 215.362299 
L 665.293963 215.362299 
L 665.05352 215.362299 
L 664.813077 215.362299 
L 664.572634 215.362299 
L 664.332191 215.362299 
L 664.091748 215.362299 
L 663.851305 215.362299 
L 663.610862 215.362299 
L 663.370419 215.362299 
L 663.129976 215.362299 
L 662.889533 215.362299 
L 662.64909 215.362299 
L 662.408647 215.362299 
L 662.168204 215.362299 
L 661.927762 215.362299 
L 661.687319 215.362299 
L 661.446876 215.362299 
L 661.206433 215.362299 
L 660.96599 215.362299 
L 660.725547 215.362299 
L 660.485104 215.362299 
L 660.244661 215.362299 
L 660.004218 215.362299 
L 659.763775 215.362299 
L 659.523332 215.362299 
L 659.282889 215.362299 
L 659.042446 215.362299 
L 658.802003 215.362299 
L 658.561561 215.362299 
L 658.321118 215.362299 
L 658.080675 215.362299 
L 657.840232 215.362299 
L 657.599789 215.362299 
L 657.359346 215.362299 
L 657.118903 215.362299 
L 656.87846 215.362299 
L 656.638017 215.362299 
L 656.397574 215.362299 
L 656.157131 215.362299 
L 655.916688 215.362299 
L 655.676245 215.362299 
L 655.435802 215.362299 
L 655.19536 215.362299 
L 654.954917 215.362299 
L 654.714474 215.362299 
L 654.474031 215.362299 
L 654.233588 215.362299 
L 653.993145 215.362299 
L 653.752702 215.362299 
L 653.512259 215.362299 
L 653.271816 215.362299 
L 653.031373 215.362299 
L 652.79093 215.362299 
L 652.550487 215.362299 
L 652.310044 215.362299 
L 652.069601 215.362299 
L 651.829159 215.362299 
L 651.588716 215.362299 
L 651.348273 215.362299 
L 651.10783 215.362299 
L 650.867387 215.362299 
L 650.626944 215.362299 
L 650.386501 215.362299 
L 650.146058 215.362299 
L 649.905615 215.362299 
L 649.665172 215.362299 
L 649.424729 215.362299 
L 649.184286 215.362299 
L 648.943843 215.362299 
L 648.7034 215.362299 
L 648.462957 215.362299 
L 648.222515 215.362299 
L 647.982072 215.362299 
L 647.741629 215.362299 
L 647.501186 215.362299 
L 647.260743 215.362299 
L 647.0203 215.362299 
L 646.779857 215.362299 
L 646.539414 215.362299 
L 646.298971 215.362299 
L 646.058528 215.362299 
L 645.818085 215.362299 
L 645.577642 215.362299 
L 645.337199 215.362299 
L 645.096756 215.362299 
L 644.856299 215.362299 
L 644.615856 215.362299 
L 644.375413 215.362299 
L 644.13497 215.362299 
L 643.894528 215.362299 
L 643.654085 215.362299 
L 643.413642 215.362299 
z
" style="fill:#008fd5;"/>
   </g>
   <g id="line2d_42">
    <path clip-path="url(#pf7c67eddec)" d="M 440.720138 215.362299 
L 461.157799 215.253282 
L 472.218179 214.963228 
L 481.355018 214.505465 
L 489.530081 213.877306 
L 496.983815 213.087809 
L 503.956664 212.133035 
L 510.689073 210.98793 
L 517.181032 209.653855 
L 523.432555 208.136071 
L 529.443629 206.443314 
L 535.214266 204.587377 
L 540.744454 202.582727 
L 546.274648 200.343683 
L 551.804835 197.857294 
L 557.094587 195.235604 
L 562.384332 192.36441 
L 567.674076 189.232377 
L 572.723377 185.988961 
L 577.772693 182.487659 
L 582.821995 178.71864 
L 587.871296 174.672023 
L 592.920598 170.337952 
L 597.969914 165.706531 
L 603.019215 160.767948 
L 608.068517 155.512304 
L 613.117818 149.92975 
L 618.16712 144.010414 
L 623.216436 137.744425 
L 628.265737 131.121942 
L 633.315039 124.133085 
L 638.36434 116.768001 
L 643.413642 109.016811 
L 648.462957 100.869646 
L 653.752702 91.89909 
L 659.042446 82.4718 
L 664.332191 72.576444 
L 669.62195 62.201637 
L 674.911694 51.336086 
L 680.201438 39.968429 
L 680.922767 38.378776 
L 680.922767 38.378776 
" style="fill:none;stroke:#008fd5;stroke-width:4;"/>
   </g>
   <g id="patch_8">
    <path d="M 428.710006 224.211475 
L 428.710006 29.5296 
" style="fill:none;stroke:#f0f0f0;stroke-linecap:square;stroke-linejoin:miter;stroke-width:3;"/>
   </g>
   <g id="patch_9">
    <path d="M 692.932899 224.211475 
L 692.932899 29.5296 
" style="fill:none;stroke:#f0f0f0;stroke-linecap:square;stroke-linejoin:miter;stroke-width:3;"/>
   </g>
   <g id="patch_10">
    <path d="M 428.710006 224.211475 
L 692.932899 224.211475 
" style="fill:none;stroke:#f0f0f0;stroke-linecap:square;stroke-linejoin:miter;stroke-width:3;"/>
   </g>
   <g id="patch_11">
    <path d="M 428.710006 29.5296 
L 692.932899 29.5296 
" style="fill:none;stroke:#f0f0f0;stroke-linecap:square;stroke-linejoin:miter;stroke-width:3;"/>
   </g>
   <g id="text_26">
    <!-- HPDI 50% -->
    <defs>
     <path d="M 9.8125 72.90625 
L 19.671875 72.90625 
L 19.671875 43.015625 
L 55.515625 43.015625 
L 55.515625 72.90625 
L 65.375 72.90625 
L 65.375 0 
L 55.515625 0 
L 55.515625 34.71875 
L 19.671875 34.71875 
L 19.671875 0 
L 9.8125 0 
z
" id="DejaVuSans-72"/>
     <path d="M 19.671875 64.796875 
L 19.671875 37.40625 
L 32.078125 37.40625 
Q 38.96875 37.40625 42.71875 40.96875 
Q 46.484375 44.53125 46.484375 51.125 
Q 46.484375 57.671875 42.71875 61.234375 
Q 38.96875 64.796875 32.078125 64.796875 
z
M 9.8125 72.90625 
L 32.078125 72.90625 
Q 44.34375 72.90625 50.609375 67.359375 
Q 56.890625 61.8125 56.890625 51.125 
Q 56.890625 40.328125 50.609375 34.8125 
Q 44.34375 29.296875 32.078125 29.296875 
L 19.671875 29.296875 
L 19.671875 0 
L 9.8125 0 
z
" id="DejaVuSans-80"/>
     <path d="M 19.671875 64.796875 
L 19.671875 8.109375 
L 31.59375 8.109375 
Q 46.6875 8.109375 53.6875 14.9375 
Q 60.6875 21.78125 60.6875 36.53125 
Q 60.6875 51.171875 53.6875 57.984375 
Q 46.6875 64.796875 31.59375 64.796875 
z
M 9.8125 72.90625 
L 30.078125 72.90625 
Q 51.265625 72.90625 61.171875 64.09375 
Q 71.09375 55.28125 71.09375 36.53125 
Q 71.09375 17.671875 61.125 8.828125 
Q 51.171875 0 30.078125 0 
L 9.8125 0 
z
" id="DejaVuSans-68"/>
     <path d="M 9.8125 72.90625 
L 19.671875 72.90625 
L 19.671875 0 
L 9.8125 0 
z
" id="DejaVuSans-73"/>
    </defs>
    <g transform="translate(510.819927 23.5296)scale(0.2016 -0.2016)">
     <use xlink:href="#DejaVuSans-72"/>
     <use x="75.195312" xlink:href="#DejaVuSans-80"/>
     <use x="135.498047" xlink:href="#DejaVuSans-68"/>
     <use x="212.5" xlink:href="#DejaVuSans-73"/>
     <use x="241.992188" xlink:href="#DejaVuSans-32"/>
     <use x="273.779297" xlink:href="#DejaVuSans-53"/>
     <use x="337.402344" xlink:href="#DejaVuSans-48"/>
     <use x="401.025391" xlink:href="#DejaVuSans-37"/>
    </g>
   </g>
  </g>
 </g>
 <defs>
  <clipPath id="p5376c2e98a">
   <rect height="194.681875" width="264.222893" x="71.29325" y="29.5296"/>
  </clipPath>
  <clipPath id="pf7c67eddec">
   <rect height="194.681875" width="264.222893" x="428.710006" y="29.5296"/>
  </clipPath>
 </defs>
</svg>
