<?xml version="1.0" encoding="utf-8" standalone="no"?>
<!DOCTYPE svg PUBLIC "-//W3C//DTD SVG 1.1//EN"
  "http://www.w3.org/Graphics/SVG/1.1/DTD/svg11.dtd">
<!-- Created with matplotlib (https://matplotlib.org/) -->
<svg height="189.524178pt" version="1.1" viewBox="0 0 677.707087 189.524178" width="677.707087pt" xmlns="http://www.w3.org/2000/svg" xmlns:xlink="http://www.w3.org/1999/xlink">
 <metadata>
  <rdf:RDF xmlns:cc="http://creativecommons.org/ns#" xmlns:dc="http://purl.org/dc/elements/1.1/" xmlns:rdf="http://www.w3.org/1999/02/22-rdf-syntax-ns#">
   <cc:Work>
    <dc:type rdf:resource="http://purl.org/dc/dcmitype/StillImage"/>
    <dc:date>2021-02-20T19:23:12.412531</dc:date>
    <dc:format>image/svg+xml</dc:format>
    <dc:creator>
     <cc:Agent>
      <dc:title>Matplotlib v3.3.3, https://matplotlib.org/</dc:title>
     </cc:Agent>
    </dc:creator>
   </cc:Work>
  </rdf:RDF>
 </metadata>
 <defs>
  <style type="text/css">*{stroke-linecap:butt;stroke-linejoin:round;}</style>
 </defs>
 <g id="figure_1">
  <g id="patch_1">
   <path d="M 0 189.524178 
L 677.707087 189.524178 
L 677.707087 0 
L 0 0 
z
" style="fill:#f0f0f0;"/>
  </g>
  <g id="axes_1">
   <g id="matplotlib.axis_1"/>
   <g id="matplotlib.axis_2"/>
   <g id="patch_2">
    <path clip-path="url(#p4c2fce378e)" d="M 55.388976 20.749375 
L 55.388976 20.749375 
L 55.388976 20.749375 
L 55.388976 20.749375 
z
" style="fill:none;"/>
   </g>
   <g id="patch_3">
    <path clip-path="url(#p4c2fce378e)" d="M 225.467717 20.749375 
L 225.467717 20.749375 
L 225.467717 20.749375 
L 225.467717 20.749375 
z
" style="fill:none;"/>
   </g>
   <g id="patch_4">
    <path clip-path="url(#p4c2fce378e)" d="M 372.869291 20.749375 
L 372.869291 20.749375 
L 372.869291 20.749375 
L 372.869291 20.749375 
z
" style="fill:none;"/>
   </g>
   <g id="patch_5">
    <path clip-path="url(#p4c2fce378e)" d="M 531.609449 20.749375 
L 531.609449 20.749375 
L 531.609449 20.749375 
L 531.609449 20.749375 
z
" style="fill:none;"/>
   </g>
   <g id="patch_6">
    <path clip-path="url(#p4c2fce378e)" d="M 33.38098 61.772753 
L 35.282518 68.745059 
L 36.55021 68.111213 
L 77.396973 149.804738 
L 77.396973 149.804738 
L 36.55021 68.111213 
L 37.817902 67.477367 
z
" style="stroke:#000000;stroke-linejoin:miter;"/>
   </g>
   <g id="patch_7">
    <path clip-path="url(#p4c2fce378e)" d="M 134.089886 61.772753 
L 129.652964 67.477367 
L 130.920656 68.111213 
L 90.073893 149.804738 
L 90.073893 149.804738 
L 130.920656 68.111213 
L 132.188348 68.745059 
z
" style="stroke:#000000;stroke-linejoin:miter;"/>
   </g>
   <g id="patch_8">
    <path clip-path="url(#p4c2fce378e)" d="M 243.792187 95.766759 
L 239.783393 89.753568 
L 238.781194 90.755766 
L 207.143246 59.117818 
L 207.143246 59.117818 
L 238.781194 90.755766 
L 237.778996 91.757965 
z
" style="stroke:#000000;stroke-linejoin:miter;"/>
   </g>
   <g id="patch_9">
    <path clip-path="url(#p4c2fce378e)" d="M 300.485101 152.459673 
L 296.476306 146.446481 
L 295.474108 147.44868 
L 263.836159 115.810731 
L 263.836159 115.810731 
L 295.474108 147.44868 
L 294.471909 148.450878 
z
" style="stroke:#000000;stroke-linejoin:miter;"/>
   </g>
   <g id="patch_10">
    <path clip-path="url(#p4c2fce378e)" d="M 417.554453 61.772753 
L 413.117531 67.477367 
L 414.385223 68.111213 
L 373.53846 149.804738 
L 373.53846 149.804738 
L 414.385223 68.111213 
L 415.652915 68.745059 
z
" style="stroke:#000000;stroke-linejoin:miter;"/>
   </g>
   <g id="patch_11">
    <path clip-path="url(#p4c2fce378e)" d="M 430.231374 61.772753 
L 432.132912 68.745059 
L 433.400604 68.111213 
L 474.247366 149.804738 
L 474.247366 149.804738 
L 433.400604 68.111213 
L 434.668296 67.477367 
z
" style="stroke:#000000;stroke-linejoin:miter;"/>
   </g>
   <g id="patch_12">
    <path clip-path="url(#p4c2fce378e)" d="M 587.633193 61.772753 
L 583.196271 67.477367 
L 584.463963 68.111213 
L 543.617201 149.804738 
L 543.617201 149.804738 
L 584.463963 68.111213 
L 585.731655 68.745059 
z
" style="stroke:#000000;stroke-linejoin:miter;"/>
   </g>
   <g id="patch_13">
    <path clip-path="url(#p4c2fce378e)" d="M 593.971654 119.961973 
L 595.388976 112.875359 
L 593.971654 112.875359 
L 593.971654 63.26906 
L 593.971654 63.26906 
L 593.971654 112.875359 
L 592.554331 112.875359 
z
" style="stroke:#000000;stroke-linejoin:miter;"/>
   </g>
   <g id="patch_14">
    <path clip-path="url(#p4c2fce378e)" d="M 600.310114 61.772753 
L 602.211652 68.745059 
L 603.479344 68.111213 
L 644.326107 149.804738 
L 644.326107 149.804738 
L 603.479344 68.111213 
L 604.747036 67.477367 
z
" style="stroke:#000000;stroke-linejoin:miter;"/>
   </g>
   <g id="patch_15">
    <path clip-path="url(#p4c2fce378e)" d="M 27.04252 34.922603 
C 30.801304 34.922603 34.406644 36.415984 37.064506 39.073846 
C 39.722367 41.731708 41.215748 45.337048 41.215748 49.095832 
C 41.215748 52.854616 39.722367 56.459956 37.064506 59.117818 
C 34.406644 61.775679 30.801304 63.26906 27.04252 63.26906 
C 23.283736 63.26906 19.678396 61.775679 17.020534 59.117818 
C 14.362672 56.459956 12.869291 52.854616 12.869291 49.095832 
C 12.869291 45.337048 14.362672 41.731708 17.020534 39.073846 
C 19.678396 36.415984 23.283736 34.922603 27.04252 34.922603 
z
" style="fill:none;stroke:#000000;stroke-linejoin:miter;"/>
   </g>
   <g id="patch_16">
    <path clip-path="url(#p4c2fce378e)" d="M 140.428346 34.922603 
C 144.187131 34.922603 147.792471 36.415984 150.450332 39.073846 
C 153.108194 41.731708 154.601575 45.337048 154.601575 49.095832 
C 154.601575 52.854616 153.108194 56.459956 150.450332 59.117818 
C 147.792471 61.775679 144.187131 63.26906 140.428346 63.26906 
C 136.669562 63.26906 133.064222 61.775679 130.406361 59.117818 
C 127.748499 56.459956 126.255118 52.854616 126.255118 49.095832 
C 126.255118 45.337048 127.748499 41.731708 130.406361 39.073846 
C 133.064222 36.415984 136.669562 34.922603 140.428346 34.922603 
z
" style="fill:none;stroke:#000000;stroke-linejoin:miter;"/>
   </g>
   <g id="patch_17">
    <path clip-path="url(#p4c2fce378e)" d="M 83.735433 148.30843 
C 87.494217 148.30843 91.099557 149.801811 93.757419 152.459673 
C 96.415281 155.117534 97.908661 158.722874 97.908661 162.481658 
C 97.908661 166.240443 96.415281 169.845783 93.757419 172.503644 
C 91.099557 175.161506 87.494217 176.654887 83.735433 176.654887 
C 79.976649 176.654887 76.371309 175.161506 73.713447 172.503644 
C 71.055585 169.845783 69.562205 166.240443 69.562205 162.481658 
C 69.562205 158.722874 71.055585 155.117534 73.713447 152.459673 
C 76.371309 149.801811 79.976649 148.30843 83.735433 148.30843 
z
" style="fill:none;stroke:#000000;stroke-linejoin:miter;"/>
   </g>
   <g id="patch_18">
    <path clip-path="url(#p4c2fce378e)" d="M 197.12126 34.922603 
C 200.880044 34.922603 204.485384 36.415984 207.143246 39.073846 
C 209.801107 41.731708 211.294488 45.337048 211.294488 49.095832 
C 211.294488 52.854616 209.801107 56.459956 207.143246 59.117818 
C 204.485384 61.775679 200.880044 63.26906 197.12126 63.26906 
C 193.362476 63.26906 189.757136 61.775679 187.099274 59.117818 
C 184.441412 56.459956 182.948031 52.854616 182.948031 49.095832 
C 182.948031 45.337048 184.441412 41.731708 187.099274 39.073846 
C 189.757136 36.415984 193.362476 34.922603 197.12126 34.922603 
z
" style="fill:none;stroke:#000000;stroke-linejoin:miter;"/>
   </g>
   <g id="patch_19">
    <path clip-path="url(#p4c2fce378e)" d="M 253.814173 91.615517 
C 257.572957 91.615517 261.178297 93.108897 263.836159 95.766759 
C 266.494021 98.424621 267.987402 102.029961 267.987402 105.788745 
C 267.987402 109.547529 266.494021 113.152869 263.836159 115.810731 
C 261.178297 118.468593 257.572957 119.961973 253.814173 119.961973 
C 250.055389 119.961973 246.450049 118.468593 243.792187 115.810731 
C 241.134326 113.152869 239.640945 109.547529 239.640945 105.788745 
C 239.640945 102.029961 241.134326 98.424621 243.792187 95.766759 
C 246.450049 93.108897 250.055389 91.615517 253.814173 91.615517 
z
" style="fill:none;stroke:#000000;stroke-linejoin:miter;"/>
   </g>
   <g id="patch_20">
    <path clip-path="url(#p4c2fce378e)" d="M 310.507087 148.30843 
C 314.265871 148.30843 317.871211 149.801811 320.529072 152.459673 
C 323.186934 155.117534 324.680315 158.722874 324.680315 162.481658 
C 324.680315 166.240443 323.186934 169.845783 320.529072 172.503644 
C 317.871211 175.161506 314.265871 176.654887 310.507087 176.654887 
C 306.748303 176.654887 303.142962 175.161506 300.485101 172.503644 
C 297.827239 169.845783 296.333858 166.240443 296.333858 162.481658 
C 296.333858 158.722874 297.827239 155.117534 300.485101 152.459673 
C 303.142962 149.801811 306.748303 148.30843 310.507087 148.30843 
z
" style="fill:none;stroke:#000000;stroke-linejoin:miter;"/>
   </g>
   <g id="patch_21">
    <path clip-path="url(#p4c2fce378e)" d="M 367.2 148.30843 
C 370.958784 148.30843 374.564124 149.801811 377.221986 152.459673 
C 379.879848 155.117534 381.373228 158.722874 381.373228 162.481658 
C 381.373228 166.240443 379.879848 169.845783 377.221986 172.503644 
C 374.564124 175.161506 370.958784 176.654887 367.2 176.654887 
C 363.441216 176.654887 359.835876 175.161506 357.178014 172.503644 
C 354.520152 169.845783 353.026772 166.240443 353.026772 162.481658 
C 353.026772 158.722874 354.520152 155.117534 357.178014 152.459673 
C 359.835876 149.801811 363.441216 148.30843 367.2 148.30843 
z
" style="fill:none;stroke:#000000;stroke-linejoin:miter;"/>
   </g>
   <g id="patch_22">
    <path clip-path="url(#p4c2fce378e)" d="M 423.892913 34.922603 
C 427.651697 34.922603 431.257038 36.415984 433.914899 39.073846 
C 436.572761 41.731708 438.066142 45.337048 438.066142 49.095832 
C 438.066142 52.854616 436.572761 56.459956 433.914899 59.117818 
C 431.257038 61.775679 427.651697 63.26906 423.892913 63.26906 
C 420.134129 63.26906 416.528789 61.775679 413.870928 59.117818 
C 411.213066 56.459956 409.719685 52.854616 409.719685 49.095832 
C 409.719685 45.337048 411.213066 41.731708 413.870928 39.073846 
C 416.528789 36.415984 420.134129 34.922603 423.892913 34.922603 
z
" style="fill:none;stroke:#000000;stroke-linejoin:miter;"/>
   </g>
   <g id="patch_23">
    <path clip-path="url(#p4c2fce378e)" d="M 480.585827 148.30843 
C 484.344611 148.30843 487.949951 149.801811 490.607813 152.459673 
C 493.265674 155.117534 494.759055 158.722874 494.759055 162.481658 
C 494.759055 166.240443 493.265674 169.845783 490.607813 172.503644 
C 487.949951 175.161506 484.344611 176.654887 480.585827 176.654887 
C 476.827043 176.654887 473.221703 175.161506 470.563841 172.503644 
C 467.905979 169.845783 466.412598 166.240443 466.412598 162.481658 
C 466.412598 158.722874 467.905979 155.117534 470.563841 152.459673 
C 473.221703 149.801811 476.827043 148.30843 480.585827 148.30843 
z
" style="fill:none;stroke:#000000;stroke-linejoin:miter;"/>
   </g>
   <g id="patch_24">
    <path clip-path="url(#p4c2fce378e)" d="M 537.27874 148.30843 
C 541.037524 148.30843 544.642864 149.801811 547.300726 152.459673 
C 549.958588 155.117534 551.451969 158.722874 551.451969 162.481658 
C 551.451969 166.240443 549.958588 169.845783 547.300726 172.503644 
C 544.642864 175.161506 541.037524 176.654887 537.27874 176.654887 
C 533.519956 176.654887 529.914616 175.161506 527.256754 172.503644 
C 524.598893 169.845783 523.105512 166.240443 523.105512 162.481658 
C 523.105512 158.722874 524.598893 155.117534 527.256754 152.459673 
C 529.914616 149.801811 533.519956 148.30843 537.27874 148.30843 
z
" style="fill:none;stroke:#000000;stroke-linejoin:miter;"/>
   </g>
   <g id="patch_25">
    <path clip-path="url(#p4c2fce378e)" d="M 593.971654 34.922603 
C 597.730438 34.922603 601.335778 36.415984 603.993639 39.073846 
C 606.651501 41.731708 608.144882 45.337048 608.144882 49.095832 
C 608.144882 52.854616 606.651501 56.459956 603.993639 59.117818 
C 601.335778 61.775679 597.730438 63.26906 593.971654 63.26906 
C 590.212869 63.26906 586.607529 61.775679 583.949668 59.117818 
C 581.291806 56.459956 579.798425 52.854616 579.798425 49.095832 
C 579.798425 45.337048 581.291806 41.731708 583.949668 39.073846 
C 586.607529 36.415984 590.212869 34.922603 593.971654 34.922603 
z
" style="fill:none;stroke:#000000;stroke-linejoin:miter;"/>
   </g>
   <g id="patch_26">
    <path clip-path="url(#p4c2fce378e)" d="M 650.664567 148.30843 
C 654.423351 148.30843 658.028691 149.801811 660.686553 152.459673 
C 663.344415 155.117534 664.837795 158.722874 664.837795 162.481658 
C 664.837795 166.240443 663.344415 169.845783 660.686553 172.503644 
C 658.028691 175.161506 654.423351 176.654887 650.664567 176.654887 
C 646.905783 176.654887 643.300443 175.161506 640.642581 172.503644 
C 637.984719 169.845783 636.491339 166.240443 636.491339 162.481658 
C 636.491339 158.722874 637.984719 155.117534 640.642581 152.459673 
C 643.300443 149.801811 646.905783 148.30843 650.664567 148.30843 
z
" style="fill:none;stroke:#000000;stroke-linejoin:miter;"/>
   </g>
   <g id="patch_27">
    <path clip-path="url(#p4c2fce378e)" d="M 593.971654 119.961973 
C 597.730438 119.961973 601.335778 121.455354 603.993639 124.113216 
C 606.651501 126.771078 608.144882 130.376418 608.144882 134.135202 
C 608.144882 137.893986 606.651501 141.499326 603.993639 144.157188 
C 601.335778 146.815049 597.730438 148.30843 593.971654 148.30843 
C 590.212869 148.30843 586.607529 146.815049 583.949668 144.157188 
C 581.291806 141.499326 579.798425 137.893986 579.798425 134.135202 
C 579.798425 130.376418 581.291806 126.771078 583.949668 124.113216 
C 586.607529 121.455354 590.212869 119.961973 593.971654 119.961973 
z
" style="fill:none;stroke:#000000;stroke-linejoin:miter;"/>
   </g>
   <g id="text_1">
    <g id="patch_28">
     <path d="M 51.328976 24.809375 
L 119.909289 24.809375 
L 119.909289 3.14 
L 51.328976 3.14 
z
" style="fill:none;"/>
    </g>
    <!-- The Fork -->
    <g transform="translate(55.388976 17.837813)scale(0.14 -0.14)">
     <defs>
      <path d="M -0.296875 72.90625 
L 61.375 72.90625 
L 61.375 64.59375 
L 35.5 64.59375 
L 35.5 0 
L 25.59375 0 
L 25.59375 64.59375 
L -0.296875 64.59375 
z
" id="DejaVuSans-84"/>
      <path d="M 54.890625 33.015625 
L 54.890625 0 
L 45.90625 0 
L 45.90625 32.71875 
Q 45.90625 40.484375 42.875 44.328125 
Q 39.84375 48.1875 33.796875 48.1875 
Q 26.515625 48.1875 22.3125 43.546875 
Q 18.109375 38.921875 18.109375 30.90625 
L 18.109375 0 
L 9.078125 0 
L 9.078125 75.984375 
L 18.109375 75.984375 
L 18.109375 46.1875 
Q 21.34375 51.125 25.703125 53.5625 
Q 30.078125 56 35.796875 56 
Q 45.21875 56 50.046875 50.171875 
Q 54.890625 44.34375 54.890625 33.015625 
z
" id="DejaVuSans-104"/>
      <path d="M 56.203125 29.59375 
L 56.203125 25.203125 
L 14.890625 25.203125 
Q 15.484375 15.921875 20.484375 11.0625 
Q 25.484375 6.203125 34.421875 6.203125 
Q 39.59375 6.203125 44.453125 7.46875 
Q 49.3125 8.734375 54.109375 11.28125 
L 54.109375 2.78125 
Q 49.265625 0.734375 44.1875 -0.34375 
Q 39.109375 -1.421875 33.890625 -1.421875 
Q 20.796875 -1.421875 13.15625 6.1875 
Q 5.515625 13.8125 5.515625 26.8125 
Q 5.515625 40.234375 12.765625 48.109375 
Q 20.015625 56 32.328125 56 
Q 43.359375 56 49.78125 48.890625 
Q 56.203125 41.796875 56.203125 29.59375 
z
M 47.21875 32.234375 
Q 47.125 39.59375 43.09375 43.984375 
Q 39.0625 48.390625 32.421875 48.390625 
Q 24.90625 48.390625 20.390625 44.140625 
Q 15.875 39.890625 15.1875 32.171875 
z
" id="DejaVuSans-101"/>
      <path id="DejaVuSans-32"/>
      <path d="M 9.8125 72.90625 
L 51.703125 72.90625 
L 51.703125 64.59375 
L 19.671875 64.59375 
L 19.671875 43.109375 
L 48.578125 43.109375 
L 48.578125 34.8125 
L 19.671875 34.8125 
L 19.671875 0 
L 9.8125 0 
z
" id="DejaVuSans-70"/>
      <path d="M 30.609375 48.390625 
Q 23.390625 48.390625 19.1875 42.75 
Q 14.984375 37.109375 14.984375 27.296875 
Q 14.984375 17.484375 19.15625 11.84375 
Q 23.34375 6.203125 30.609375 6.203125 
Q 37.796875 6.203125 41.984375 11.859375 
Q 46.1875 17.53125 46.1875 27.296875 
Q 46.1875 37.015625 41.984375 42.703125 
Q 37.796875 48.390625 30.609375 48.390625 
z
M 30.609375 56 
Q 42.328125 56 49.015625 48.375 
Q 55.71875 40.765625 55.71875 27.296875 
Q 55.71875 13.875 49.015625 6.21875 
Q 42.328125 -1.421875 30.609375 -1.421875 
Q 18.84375 -1.421875 12.171875 6.21875 
Q 5.515625 13.875 5.515625 27.296875 
Q 5.515625 40.765625 12.171875 48.375 
Q 18.84375 56 30.609375 56 
z
" id="DejaVuSans-111"/>
      <path d="M 41.109375 46.296875 
Q 39.59375 47.171875 37.8125 47.578125 
Q 36.03125 48 33.890625 48 
Q 26.265625 48 22.1875 43.046875 
Q 18.109375 38.09375 18.109375 28.8125 
L 18.109375 0 
L 9.078125 0 
L 9.078125 54.6875 
L 18.109375 54.6875 
L 18.109375 46.1875 
Q 20.953125 51.171875 25.484375 53.578125 
Q 30.03125 56 36.53125 56 
Q 37.453125 56 38.578125 55.875 
Q 39.703125 55.765625 41.0625 55.515625 
z
" id="DejaVuSans-114"/>
      <path d="M 9.078125 75.984375 
L 18.109375 75.984375 
L 18.109375 31.109375 
L 44.921875 54.6875 
L 56.390625 54.6875 
L 27.390625 29.109375 
L 57.625 0 
L 45.90625 0 
L 18.109375 26.703125 
L 18.109375 0 
L 9.078125 0 
z
" id="DejaVuSans-107"/>
     </defs>
     <use xlink:href="#DejaVuSans-84"/>
     <use x="61.083984" xlink:href="#DejaVuSans-104"/>
     <use x="124.462891" xlink:href="#DejaVuSans-101"/>
     <use x="185.986328" xlink:href="#DejaVuSans-32"/>
     <use x="217.773438" xlink:href="#DejaVuSans-70"/>
     <use x="271.667969" xlink:href="#DejaVuSans-111"/>
     <use x="332.849609" xlink:href="#DejaVuSans-114"/>
     <use x="373.962891" xlink:href="#DejaVuSans-107"/>
    </g>
   </g>
   <g id="text_2">
    <g id="patch_29">
     <path d="M 221.407717 24.809375 
L 289.533029 24.809375 
L 289.533029 3.14 
L 221.407717 3.14 
z
" style="fill:none;"/>
    </g>
    <!-- The Pipe -->
    <g transform="translate(225.467717 17.837813)scale(0.14 -0.14)">
     <defs>
      <path d="M 19.671875 64.796875 
L 19.671875 37.40625 
L 32.078125 37.40625 
Q 38.96875 37.40625 42.71875 40.96875 
Q 46.484375 44.53125 46.484375 51.125 
Q 46.484375 57.671875 42.71875 61.234375 
Q 38.96875 64.796875 32.078125 64.796875 
z
M 9.8125 72.90625 
L 32.078125 72.90625 
Q 44.34375 72.90625 50.609375 67.359375 
Q 56.890625 61.8125 56.890625 51.125 
Q 56.890625 40.328125 50.609375 34.8125 
Q 44.34375 29.296875 32.078125 29.296875 
L 19.671875 29.296875 
L 19.671875 0 
L 9.8125 0 
z
" id="DejaVuSans-80"/>
      <path d="M 9.421875 54.6875 
L 18.40625 54.6875 
L 18.40625 0 
L 9.421875 0 
z
M 9.421875 75.984375 
L 18.40625 75.984375 
L 18.40625 64.59375 
L 9.421875 64.59375 
z
" id="DejaVuSans-105"/>
      <path d="M 18.109375 8.203125 
L 18.109375 -20.796875 
L 9.078125 -20.796875 
L 9.078125 54.6875 
L 18.109375 54.6875 
L 18.109375 46.390625 
Q 20.953125 51.265625 25.265625 53.625 
Q 29.59375 56 35.59375 56 
Q 45.5625 56 51.78125 48.09375 
Q 58.015625 40.1875 58.015625 27.296875 
Q 58.015625 14.40625 51.78125 6.484375 
Q 45.5625 -1.421875 35.59375 -1.421875 
Q 29.59375 -1.421875 25.265625 0.953125 
Q 20.953125 3.328125 18.109375 8.203125 
z
M 48.6875 27.296875 
Q 48.6875 37.203125 44.609375 42.84375 
Q 40.53125 48.484375 33.40625 48.484375 
Q 26.265625 48.484375 22.1875 42.84375 
Q 18.109375 37.203125 18.109375 27.296875 
Q 18.109375 17.390625 22.1875 11.75 
Q 26.265625 6.109375 33.40625 6.109375 
Q 40.53125 6.109375 44.609375 11.75 
Q 48.6875 17.390625 48.6875 27.296875 
z
" id="DejaVuSans-112"/>
     </defs>
     <use xlink:href="#DejaVuSans-84"/>
     <use x="61.083984" xlink:href="#DejaVuSans-104"/>
     <use x="124.462891" xlink:href="#DejaVuSans-101"/>
     <use x="185.986328" xlink:href="#DejaVuSans-32"/>
     <use x="217.773438" xlink:href="#DejaVuSans-80"/>
     <use x="275.826172" xlink:href="#DejaVuSans-105"/>
     <use x="303.609375" xlink:href="#DejaVuSans-112"/>
     <use x="367.085938" xlink:href="#DejaVuSans-101"/>
    </g>
   </g>
   <g id="text_3">
    <g id="patch_30">
     <path d="M 368.809291 24.809375 
L 460.684291 24.809375 
L 460.684291 3.14 
L 368.809291 3.14 
z
" style="fill:none;"/>
    </g>
    <!-- The Collider -->
    <g transform="translate(372.869291 17.837813)scale(0.14 -0.14)">
     <defs>
      <path d="M 64.40625 67.28125 
L 64.40625 56.890625 
Q 59.421875 61.53125 53.78125 63.8125 
Q 48.140625 66.109375 41.796875 66.109375 
Q 29.296875 66.109375 22.65625 58.46875 
Q 16.015625 50.828125 16.015625 36.375 
Q 16.015625 21.96875 22.65625 14.328125 
Q 29.296875 6.6875 41.796875 6.6875 
Q 48.140625 6.6875 53.78125 8.984375 
Q 59.421875 11.28125 64.40625 15.921875 
L 64.40625 5.609375 
Q 59.234375 2.09375 53.4375 0.328125 
Q 47.65625 -1.421875 41.21875 -1.421875 
Q 24.65625 -1.421875 15.125 8.703125 
Q 5.609375 18.84375 5.609375 36.375 
Q 5.609375 53.953125 15.125 64.078125 
Q 24.65625 74.21875 41.21875 74.21875 
Q 47.75 74.21875 53.53125 72.484375 
Q 59.328125 70.75 64.40625 67.28125 
z
" id="DejaVuSans-67"/>
      <path d="M 9.421875 75.984375 
L 18.40625 75.984375 
L 18.40625 0 
L 9.421875 0 
z
" id="DejaVuSans-108"/>
      <path d="M 45.40625 46.390625 
L 45.40625 75.984375 
L 54.390625 75.984375 
L 54.390625 0 
L 45.40625 0 
L 45.40625 8.203125 
Q 42.578125 3.328125 38.25 0.953125 
Q 33.9375 -1.421875 27.875 -1.421875 
Q 17.96875 -1.421875 11.734375 6.484375 
Q 5.515625 14.40625 5.515625 27.296875 
Q 5.515625 40.1875 11.734375 48.09375 
Q 17.96875 56 27.875 56 
Q 33.9375 56 38.25 53.625 
Q 42.578125 51.265625 45.40625 46.390625 
z
M 14.796875 27.296875 
Q 14.796875 17.390625 18.875 11.75 
Q 22.953125 6.109375 30.078125 6.109375 
Q 37.203125 6.109375 41.296875 11.75 
Q 45.40625 17.390625 45.40625 27.296875 
Q 45.40625 37.203125 41.296875 42.84375 
Q 37.203125 48.484375 30.078125 48.484375 
Q 22.953125 48.484375 18.875 42.84375 
Q 14.796875 37.203125 14.796875 27.296875 
z
" id="DejaVuSans-100"/>
     </defs>
     <use xlink:href="#DejaVuSans-84"/>
     <use x="61.083984" xlink:href="#DejaVuSans-104"/>
     <use x="124.462891" xlink:href="#DejaVuSans-101"/>
     <use x="185.986328" xlink:href="#DejaVuSans-32"/>
     <use x="217.773438" xlink:href="#DejaVuSans-67"/>
     <use x="287.597656" xlink:href="#DejaVuSans-111"/>
     <use x="348.779297" xlink:href="#DejaVuSans-108"/>
     <use x="376.5625" xlink:href="#DejaVuSans-108"/>
     <use x="404.345703" xlink:href="#DejaVuSans-105"/>
     <use x="432.128906" xlink:href="#DejaVuSans-100"/>
     <use x="495.605469" xlink:href="#DejaVuSans-101"/>
     <use x="557.128906" xlink:href="#DejaVuSans-114"/>
    </g>
   </g>
   <g id="text_4">
    <g id="patch_31">
     <path d="M 527.549449 24.809375 
L 649.856949 24.809375 
L 649.856949 3.14 
L 527.549449 3.14 
z
" style="fill:none;"/>
    </g>
    <!-- The Descendant -->
    <g transform="translate(531.609449 17.837813)scale(0.14 -0.14)">
     <defs>
      <path d="M 19.671875 64.796875 
L 19.671875 8.109375 
L 31.59375 8.109375 
Q 46.6875 8.109375 53.6875 14.9375 
Q 60.6875 21.78125 60.6875 36.53125 
Q 60.6875 51.171875 53.6875 57.984375 
Q 46.6875 64.796875 31.59375 64.796875 
z
M 9.8125 72.90625 
L 30.078125 72.90625 
Q 51.265625 72.90625 61.171875 64.09375 
Q 71.09375 55.28125 71.09375 36.53125 
Q 71.09375 17.671875 61.125 8.828125 
Q 51.171875 0 30.078125 0 
L 9.8125 0 
z
" id="DejaVuSans-68"/>
      <path d="M 44.28125 53.078125 
L 44.28125 44.578125 
Q 40.484375 46.53125 36.375 47.5 
Q 32.28125 48.484375 27.875 48.484375 
Q 21.1875 48.484375 17.84375 46.4375 
Q 14.5 44.390625 14.5 40.28125 
Q 14.5 37.15625 16.890625 35.375 
Q 19.28125 33.59375 26.515625 31.984375 
L 29.59375 31.296875 
Q 39.15625 29.25 43.1875 25.515625 
Q 47.21875 21.78125 47.21875 15.09375 
Q 47.21875 7.46875 41.1875 3.015625 
Q 35.15625 -1.421875 24.609375 -1.421875 
Q 20.21875 -1.421875 15.453125 -0.5625 
Q 10.6875 0.296875 5.421875 2 
L 5.421875 11.28125 
Q 10.40625 8.6875 15.234375 7.390625 
Q 20.0625 6.109375 24.8125 6.109375 
Q 31.15625 6.109375 34.5625 8.28125 
Q 37.984375 10.453125 37.984375 14.40625 
Q 37.984375 18.0625 35.515625 20.015625 
Q 33.0625 21.96875 24.703125 23.78125 
L 21.578125 24.515625 
Q 13.234375 26.265625 9.515625 29.90625 
Q 5.8125 33.546875 5.8125 39.890625 
Q 5.8125 47.609375 11.28125 51.796875 
Q 16.75 56 26.8125 56 
Q 31.78125 56 36.171875 55.265625 
Q 40.578125 54.546875 44.28125 53.078125 
z
" id="DejaVuSans-115"/>
      <path d="M 48.78125 52.59375 
L 48.78125 44.1875 
Q 44.96875 46.296875 41.140625 47.34375 
Q 37.3125 48.390625 33.40625 48.390625 
Q 24.65625 48.390625 19.8125 42.84375 
Q 14.984375 37.3125 14.984375 27.296875 
Q 14.984375 17.28125 19.8125 11.734375 
Q 24.65625 6.203125 33.40625 6.203125 
Q 37.3125 6.203125 41.140625 7.25 
Q 44.96875 8.296875 48.78125 10.40625 
L 48.78125 2.09375 
Q 45.015625 0.34375 40.984375 -0.53125 
Q 36.96875 -1.421875 32.421875 -1.421875 
Q 20.0625 -1.421875 12.78125 6.34375 
Q 5.515625 14.109375 5.515625 27.296875 
Q 5.515625 40.671875 12.859375 48.328125 
Q 20.21875 56 33.015625 56 
Q 37.15625 56 41.109375 55.140625 
Q 45.0625 54.296875 48.78125 52.59375 
z
" id="DejaVuSans-99"/>
      <path d="M 54.890625 33.015625 
L 54.890625 0 
L 45.90625 0 
L 45.90625 32.71875 
Q 45.90625 40.484375 42.875 44.328125 
Q 39.84375 48.1875 33.796875 48.1875 
Q 26.515625 48.1875 22.3125 43.546875 
Q 18.109375 38.921875 18.109375 30.90625 
L 18.109375 0 
L 9.078125 0 
L 9.078125 54.6875 
L 18.109375 54.6875 
L 18.109375 46.1875 
Q 21.34375 51.125 25.703125 53.5625 
Q 30.078125 56 35.796875 56 
Q 45.21875 56 50.046875 50.171875 
Q 54.890625 44.34375 54.890625 33.015625 
z
" id="DejaVuSans-110"/>
      <path d="M 34.28125 27.484375 
Q 23.390625 27.484375 19.1875 25 
Q 14.984375 22.515625 14.984375 16.5 
Q 14.984375 11.71875 18.140625 8.90625 
Q 21.296875 6.109375 26.703125 6.109375 
Q 34.1875 6.109375 38.703125 11.40625 
Q 43.21875 16.703125 43.21875 25.484375 
L 43.21875 27.484375 
z
M 52.203125 31.203125 
L 52.203125 0 
L 43.21875 0 
L 43.21875 8.296875 
Q 40.140625 3.328125 35.546875 0.953125 
Q 30.953125 -1.421875 24.3125 -1.421875 
Q 15.921875 -1.421875 10.953125 3.296875 
Q 6 8.015625 6 15.921875 
Q 6 25.140625 12.171875 29.828125 
Q 18.359375 34.515625 30.609375 34.515625 
L 43.21875 34.515625 
L 43.21875 35.40625 
Q 43.21875 41.609375 39.140625 45 
Q 35.0625 48.390625 27.6875 48.390625 
Q 23 48.390625 18.546875 47.265625 
Q 14.109375 46.140625 10.015625 43.890625 
L 10.015625 52.203125 
Q 14.9375 54.109375 19.578125 55.046875 
Q 24.21875 56 28.609375 56 
Q 40.484375 56 46.34375 49.84375 
Q 52.203125 43.703125 52.203125 31.203125 
z
" id="DejaVuSans-97"/>
      <path d="M 18.3125 70.21875 
L 18.3125 54.6875 
L 36.8125 54.6875 
L 36.8125 47.703125 
L 18.3125 47.703125 
L 18.3125 18.015625 
Q 18.3125 11.328125 20.140625 9.421875 
Q 21.96875 7.515625 27.59375 7.515625 
L 36.8125 7.515625 
L 36.8125 0 
L 27.59375 0 
Q 17.1875 0 13.234375 3.875 
Q 9.28125 7.765625 9.28125 18.015625 
L 9.28125 47.703125 
L 2.6875 47.703125 
L 2.6875 54.6875 
L 9.28125 54.6875 
L 9.28125 70.21875 
z
" id="DejaVuSans-116"/>
     </defs>
     <use xlink:href="#DejaVuSans-84"/>
     <use x="61.083984" xlink:href="#DejaVuSans-104"/>
     <use x="124.462891" xlink:href="#DejaVuSans-101"/>
     <use x="185.986328" xlink:href="#DejaVuSans-32"/>
     <use x="217.773438" xlink:href="#DejaVuSans-68"/>
     <use x="294.775391" xlink:href="#DejaVuSans-101"/>
     <use x="356.298828" xlink:href="#DejaVuSans-115"/>
     <use x="408.398438" xlink:href="#DejaVuSans-99"/>
     <use x="463.378906" xlink:href="#DejaVuSans-101"/>
     <use x="524.902344" xlink:href="#DejaVuSans-110"/>
     <use x="588.28125" xlink:href="#DejaVuSans-100"/>
     <use x="651.757812" xlink:href="#DejaVuSans-97"/>
     <use x="713.037109" xlink:href="#DejaVuSans-110"/>
     <use x="776.416016" xlink:href="#DejaVuSans-116"/>
    </g>
   </g>
   <g id="text_5">
    <!-- X -->
    <g transform="translate(22.24752 52.958957)scale(0.14 -0.14)">
     <defs>
      <path d="M 6.296875 72.90625 
L 16.890625 72.90625 
L 35.015625 45.796875 
L 53.21875 72.90625 
L 63.8125 72.90625 
L 40.375 37.890625 
L 65.375 0 
L 54.78125 0 
L 34.28125 31 
L 13.625 0 
L 2.984375 0 
L 29 38.921875 
z
" id="DejaVuSans-88"/>
     </defs>
     <use xlink:href="#DejaVuSans-88"/>
    </g>
   </g>
   <g id="text_6">
    <!-- Y -->
    <g transform="translate(136.152878 52.958957)scale(0.14 -0.14)">
     <defs>
      <path d="M -0.203125 72.90625 
L 10.40625 72.90625 
L 30.609375 42.921875 
L 50.6875 72.90625 
L 61.28125 72.90625 
L 35.5 34.71875 
L 35.5 0 
L 25.59375 0 
L 25.59375 34.71875 
z
" id="DejaVuSans-89"/>
     </defs>
     <use xlink:href="#DejaVuSans-89"/>
    </g>
   </g>
   <g id="text_7">
    <!-- Z -->
    <g transform="translate(78.940433 166.344783)scale(0.14 -0.14)">
     <defs>
      <path d="M 5.609375 72.90625 
L 62.890625 72.90625 
L 62.890625 65.375 
L 16.796875 8.296875 
L 64.015625 8.296875 
L 64.015625 0 
L 4.5 0 
L 4.5 7.515625 
L 50.59375 64.59375 
L 5.609375 64.59375 
z
" id="DejaVuSans-90"/>
     </defs>
     <use xlink:href="#DejaVuSans-90"/>
    </g>
   </g>
   <g id="text_8">
    <!-- X -->
    <g transform="translate(192.32626 52.958957)scale(0.14 -0.14)">
     <use xlink:href="#DejaVuSans-88"/>
    </g>
   </g>
   <g id="text_9">
    <!-- Z -->
    <g transform="translate(249.019173 109.65187)scale(0.14 -0.14)">
     <use xlink:href="#DejaVuSans-90"/>
    </g>
   </g>
   <g id="text_10">
    <!-- Y -->
    <g transform="translate(306.231618 166.344783)scale(0.14 -0.14)">
     <use xlink:href="#DejaVuSans-89"/>
    </g>
   </g>
   <g id="text_11">
    <!-- X -->
    <g transform="translate(362.405 166.344783)scale(0.14 -0.14)">
     <use xlink:href="#DejaVuSans-88"/>
    </g>
   </g>
   <g id="text_12">
    <!-- Z -->
    <g transform="translate(419.097913 52.958957)scale(0.14 -0.14)">
     <use xlink:href="#DejaVuSans-90"/>
    </g>
   </g>
   <g id="text_13">
    <!-- Y -->
    <g transform="translate(476.310358 166.344783)scale(0.14 -0.14)">
     <use xlink:href="#DejaVuSans-89"/>
    </g>
   </g>
   <g id="text_14">
    <!-- X -->
    <g transform="translate(532.48374 166.344783)scale(0.14 -0.14)">
     <use xlink:href="#DejaVuSans-88"/>
    </g>
   </g>
   <g id="text_15">
    <!-- Z -->
    <g transform="translate(589.176654 52.958957)scale(0.14 -0.14)">
     <use xlink:href="#DejaVuSans-90"/>
    </g>
   </g>
   <g id="text_16">
    <!-- Y -->
    <g transform="translate(646.389098 166.344783)scale(0.14 -0.14)">
     <use xlink:href="#DejaVuSans-89"/>
    </g>
   </g>
   <g id="text_17">
    <!-- D -->
    <g transform="translate(588.581654 137.998327)scale(0.14 -0.14)">
     <use xlink:href="#DejaVuSans-68"/>
    </g>
   </g>
  </g>
 </g>
 <defs>
  <clipPath id="p4c2fce378e">
   <rect height="167.244094" width="663.307087" x="7.2" y="15.080084"/>
  </clipPath>
 </defs>
</svg>
