<?xml version="1.0" encoding="utf-8" standalone="no"?>
<!DOCTYPE svg PUBLIC "-//W3C//DTD SVG 1.1//EN"
  "http://www.w3.org/Graphics/SVG/1.1/DTD/svg11.dtd">
<!-- Created with matplotlib (https://matplotlib.org/) -->
<svg height="307.6705pt" version="1.1" viewBox="0 0 444.120739 307.6705" width="444.120739pt" xmlns="http://www.w3.org/2000/svg" xmlns:xlink="http://www.w3.org/1999/xlink">
 <metadata>
  <rdf:RDF xmlns:cc="http://creativecommons.org/ns#" xmlns:dc="http://purl.org/dc/elements/1.1/" xmlns:rdf="http://www.w3.org/1999/02/22-rdf-syntax-ns#">
   <cc:Work>
    <dc:type rdf:resource="http://purl.org/dc/dcmitype/StillImage"/>
    <dc:date>2021-03-05T18:45:04.677038</dc:date>
    <dc:format>image/svg+xml</dc:format>
    <dc:creator>
     <cc:Agent>
      <dc:title>Matplotlib v3.3.4, https://matplotlib.org/</dc:title>
     </cc:Agent>
    </dc:creator>
   </cc:Work>
  </rdf:RDF>
 </metadata>
 <defs>
  <style type="text/css">*{stroke-linecap:butt;stroke-linejoin:round;}</style>
 </defs>
 <g id="figure_1">
  <g id="patch_1">
   <path d="M 0 307.6705 
L 444.120739 307.6705 
L 444.120739 0 
L 0 0 
z
" style="fill:#f0f0f0;"/>
  </g>
  <g id="axes_1">
   <g id="patch_2">
    <path d="M 54.074125 261.4425 
L 429.914125 261.4425 
L 429.914125 28.1625 
L 54.074125 28.1625 
z
" style="fill:#f0f0f0;"/>
   </g>
   <g id="matplotlib.axis_1">
    <g id="xtick_1">
     <g id="line2d_1">
      <path clip-path="url(#p485fb26177)" d="M 99.630488 261.4425 
L 99.630488 28.1625 
" style="fill:none;stroke:#cbcbcb;"/>
     </g>
     <g id="line2d_2"/>
     <g id="text_1">
      <!-- 0.0 -->
      <g transform="translate(88.498301 275.580312)scale(0.14 -0.14)">
       <defs>
        <path d="M 31.78125 66.40625 
Q 24.171875 66.40625 20.328125 58.90625 
Q 16.5 51.421875 16.5 36.375 
Q 16.5 21.390625 20.328125 13.890625 
Q 24.171875 6.390625 31.78125 6.390625 
Q 39.453125 6.390625 43.28125 13.890625 
Q 47.125 21.390625 47.125 36.375 
Q 47.125 51.421875 43.28125 58.90625 
Q 39.453125 66.40625 31.78125 66.40625 
z
M 31.78125 74.21875 
Q 44.046875 74.21875 50.515625 64.515625 
Q 56.984375 54.828125 56.984375 36.375 
Q 56.984375 17.96875 50.515625 8.265625 
Q 44.046875 -1.421875 31.78125 -1.421875 
Q 19.53125 -1.421875 13.0625 8.265625 
Q 6.59375 17.96875 6.59375 36.375 
Q 6.59375 54.828125 13.0625 64.515625 
Q 19.53125 74.21875 31.78125 74.21875 
z
" id="DejaVuSans-48"/>
        <path d="M 10.6875 12.40625 
L 21 12.40625 
L 21 0 
L 10.6875 0 
z
" id="DejaVuSans-46"/>
       </defs>
       <use xlink:href="#DejaVuSans-48"/>
       <use x="63.623047" xlink:href="#DejaVuSans-46"/>
       <use x="95.410156" xlink:href="#DejaVuSans-48"/>
      </g>
     </g>
    </g>
    <g id="xtick_2">
     <g id="line2d_3">
      <path clip-path="url(#p485fb26177)" d="M 156.575942 261.4425 
L 156.575942 28.1625 
" style="fill:none;stroke:#cbcbcb;"/>
     </g>
     <g id="line2d_4"/>
     <g id="text_2">
      <!-- 0.2 -->
      <g transform="translate(145.443754 275.580312)scale(0.14 -0.14)">
       <defs>
        <path d="M 19.1875 8.296875 
L 53.609375 8.296875 
L 53.609375 0 
L 7.328125 0 
L 7.328125 8.296875 
Q 12.9375 14.109375 22.625 23.890625 
Q 32.328125 33.6875 34.8125 36.53125 
Q 39.546875 41.84375 41.421875 45.53125 
Q 43.3125 49.21875 43.3125 52.78125 
Q 43.3125 58.59375 39.234375 62.25 
Q 35.15625 65.921875 28.609375 65.921875 
Q 23.96875 65.921875 18.8125 64.3125 
Q 13.671875 62.703125 7.8125 59.421875 
L 7.8125 69.390625 
Q 13.765625 71.78125 18.9375 73 
Q 24.125 74.21875 28.421875 74.21875 
Q 39.75 74.21875 46.484375 68.546875 
Q 53.21875 62.890625 53.21875 53.421875 
Q 53.21875 48.921875 51.53125 44.890625 
Q 49.859375 40.875 45.40625 35.40625 
Q 44.1875 33.984375 37.640625 27.21875 
Q 31.109375 20.453125 19.1875 8.296875 
z
" id="DejaVuSans-50"/>
       </defs>
       <use xlink:href="#DejaVuSans-48"/>
       <use x="63.623047" xlink:href="#DejaVuSans-46"/>
       <use x="95.410156" xlink:href="#DejaVuSans-50"/>
      </g>
     </g>
    </g>
    <g id="xtick_3">
     <g id="line2d_5">
      <path clip-path="url(#p485fb26177)" d="M 213.521395 261.4425 
L 213.521395 28.1625 
" style="fill:none;stroke:#cbcbcb;"/>
     </g>
     <g id="line2d_6"/>
     <g id="text_3">
      <!-- 0.4 -->
      <g transform="translate(202.389208 275.580312)scale(0.14 -0.14)">
       <defs>
        <path d="M 37.796875 64.3125 
L 12.890625 25.390625 
L 37.796875 25.390625 
z
M 35.203125 72.90625 
L 47.609375 72.90625 
L 47.609375 25.390625 
L 58.015625 25.390625 
L 58.015625 17.1875 
L 47.609375 17.1875 
L 47.609375 0 
L 37.796875 0 
L 37.796875 17.1875 
L 4.890625 17.1875 
L 4.890625 26.703125 
z
" id="DejaVuSans-52"/>
       </defs>
       <use xlink:href="#DejaVuSans-48"/>
       <use x="63.623047" xlink:href="#DejaVuSans-46"/>
       <use x="95.410156" xlink:href="#DejaVuSans-52"/>
      </g>
     </g>
    </g>
    <g id="xtick_4">
     <g id="line2d_7">
      <path clip-path="url(#p485fb26177)" d="M 270.466848 261.4425 
L 270.466848 28.1625 
" style="fill:none;stroke:#cbcbcb;"/>
     </g>
     <g id="line2d_8"/>
     <g id="text_4">
      <!-- 0.6 -->
      <g transform="translate(259.334661 275.580312)scale(0.14 -0.14)">
       <defs>
        <path d="M 33.015625 40.375 
Q 26.375 40.375 22.484375 35.828125 
Q 18.609375 31.296875 18.609375 23.390625 
Q 18.609375 15.53125 22.484375 10.953125 
Q 26.375 6.390625 33.015625 6.390625 
Q 39.65625 6.390625 43.53125 10.953125 
Q 47.40625 15.53125 47.40625 23.390625 
Q 47.40625 31.296875 43.53125 35.828125 
Q 39.65625 40.375 33.015625 40.375 
z
M 52.59375 71.296875 
L 52.59375 62.3125 
Q 48.875 64.0625 45.09375 64.984375 
Q 41.3125 65.921875 37.59375 65.921875 
Q 27.828125 65.921875 22.671875 59.328125 
Q 17.53125 52.734375 16.796875 39.40625 
Q 19.671875 43.65625 24.015625 45.921875 
Q 28.375 48.1875 33.59375 48.1875 
Q 44.578125 48.1875 50.953125 41.515625 
Q 57.328125 34.859375 57.328125 23.390625 
Q 57.328125 12.15625 50.6875 5.359375 
Q 44.046875 -1.421875 33.015625 -1.421875 
Q 20.359375 -1.421875 13.671875 8.265625 
Q 6.984375 17.96875 6.984375 36.375 
Q 6.984375 53.65625 15.1875 63.9375 
Q 23.390625 74.21875 37.203125 74.21875 
Q 40.921875 74.21875 44.703125 73.484375 
Q 48.484375 72.75 52.59375 71.296875 
z
" id="DejaVuSans-54"/>
       </defs>
       <use xlink:href="#DejaVuSans-48"/>
       <use x="63.623047" xlink:href="#DejaVuSans-46"/>
       <use x="95.410156" xlink:href="#DejaVuSans-54"/>
      </g>
     </g>
    </g>
    <g id="xtick_5">
     <g id="line2d_9">
      <path clip-path="url(#p485fb26177)" d="M 327.412302 261.4425 
L 327.412302 28.1625 
" style="fill:none;stroke:#cbcbcb;"/>
     </g>
     <g id="line2d_10"/>
     <g id="text_5">
      <!-- 0.8 -->
      <g transform="translate(316.280114 275.580312)scale(0.14 -0.14)">
       <defs>
        <path d="M 31.78125 34.625 
Q 24.75 34.625 20.71875 30.859375 
Q 16.703125 27.09375 16.703125 20.515625 
Q 16.703125 13.921875 20.71875 10.15625 
Q 24.75 6.390625 31.78125 6.390625 
Q 38.8125 6.390625 42.859375 10.171875 
Q 46.921875 13.96875 46.921875 20.515625 
Q 46.921875 27.09375 42.890625 30.859375 
Q 38.875 34.625 31.78125 34.625 
z
M 21.921875 38.8125 
Q 15.578125 40.375 12.03125 44.71875 
Q 8.5 49.078125 8.5 55.328125 
Q 8.5 64.0625 14.71875 69.140625 
Q 20.953125 74.21875 31.78125 74.21875 
Q 42.671875 74.21875 48.875 69.140625 
Q 55.078125 64.0625 55.078125 55.328125 
Q 55.078125 49.078125 51.53125 44.71875 
Q 48 40.375 41.703125 38.8125 
Q 48.828125 37.15625 52.796875 32.3125 
Q 56.78125 27.484375 56.78125 20.515625 
Q 56.78125 9.90625 50.3125 4.234375 
Q 43.84375 -1.421875 31.78125 -1.421875 
Q 19.734375 -1.421875 13.25 4.234375 
Q 6.78125 9.90625 6.78125 20.515625 
Q 6.78125 27.484375 10.78125 32.3125 
Q 14.796875 37.15625 21.921875 38.8125 
z
M 18.3125 54.390625 
Q 18.3125 48.734375 21.84375 45.5625 
Q 25.390625 42.390625 31.78125 42.390625 
Q 38.140625 42.390625 41.71875 45.5625 
Q 45.3125 48.734375 45.3125 54.390625 
Q 45.3125 60.0625 41.71875 63.234375 
Q 38.140625 66.40625 31.78125 66.40625 
Q 25.390625 66.40625 21.84375 63.234375 
Q 18.3125 60.0625 18.3125 54.390625 
z
" id="DejaVuSans-56"/>
       </defs>
       <use xlink:href="#DejaVuSans-48"/>
       <use x="63.623047" xlink:href="#DejaVuSans-46"/>
       <use x="95.410156" xlink:href="#DejaVuSans-56"/>
      </g>
     </g>
    </g>
    <g id="xtick_6">
     <g id="line2d_11">
      <path clip-path="url(#p485fb26177)" d="M 384.357755 261.4425 
L 384.357755 28.1625 
" style="fill:none;stroke:#cbcbcb;"/>
     </g>
     <g id="line2d_12"/>
     <g id="text_6">
      <!-- 1.0 -->
      <g transform="translate(373.225568 275.580312)scale(0.14 -0.14)">
       <defs>
        <path d="M 12.40625 8.296875 
L 28.515625 8.296875 
L 28.515625 63.921875 
L 10.984375 60.40625 
L 10.984375 69.390625 
L 28.421875 72.90625 
L 38.28125 72.90625 
L 38.28125 8.296875 
L 54.390625 8.296875 
L 54.390625 0 
L 12.40625 0 
z
" id="DejaVuSans-49"/>
       </defs>
       <use xlink:href="#DejaVuSans-49"/>
       <use x="63.623047" xlink:href="#DejaVuSans-46"/>
       <use x="95.410156" xlink:href="#DejaVuSans-48"/>
      </g>
     </g>
    </g>
    <g id="text_7">
     <!-- độ gồ ghề (chuẩn hoá) -->
     <g transform="translate(146.643625 296.976625)scale(0.168 -0.168)">
      <defs>
       <path d="M 45.40625 46.390625 
L 45.40625 62.703125 
L 29.5 62.703125 
L 29.5 68.796875 
L 45.40625 68.796875 
L 45.40625 75.984375 
L 54.390625 75.984375 
L 54.390625 68.796875 
L 61.921875 68.796875 
L 61.921875 62.703125 
L 54.390625 62.703125 
L 54.390625 0 
L 45.40625 0 
L 45.40625 8.203125 
Q 42.578125 3.328125 38.25 0.953125 
Q 33.9375 -1.421875 27.875 -1.421875 
Q 17.96875 -1.421875 11.734375 6.484375 
Q 5.515625 14.40625 5.515625 27.296875 
Q 5.515625 40.1875 11.734375 48.09375 
Q 17.96875 56 27.875 56 
Q 33.9375 56 38.25 53.625 
Q 42.578125 51.265625 45.40625 46.390625 
z
M 14.796875 27.296875 
Q 14.796875 17.390625 18.875 11.75 
Q 22.953125 6.109375 30.078125 6.109375 
Q 37.203125 6.109375 41.296875 11.75 
Q 45.40625 17.390625 45.40625 27.296875 
Q 45.40625 37.203125 41.296875 42.84375 
Q 37.203125 48.484375 30.078125 48.484375 
Q 22.953125 48.484375 18.875 42.84375 
Q 14.796875 37.203125 14.796875 27.296875 
z
" id="DejaVuSans-273"/>
       <path d="M 26.03125 -6.890625 
L 35.015625 -6.890625 
L 35.015625 -18.3125 
L 26.03125 -18.3125 
z
M 30.609375 48.390625 
Q 23.390625 48.390625 19.1875 42.75 
Q 14.984375 37.109375 14.984375 27.296875 
Q 14.984375 17.484375 19.15625 11.84375 
Q 23.34375 6.203125 30.609375 6.203125 
Q 37.796875 6.203125 41.984375 11.859375 
Q 46.1875 17.53125 46.1875 27.296875 
Q 46.1875 37.015625 41.984375 42.703125 
Q 37.796875 48.390625 30.609375 48.390625 
z
M 30.609375 56 
Q 42.328125 56 49.015625 48.375 
Q 55.71875 40.765625 55.71875 27.296875 
Q 55.71875 13.875 49.015625 6.21875 
Q 42.328125 -1.421875 30.609375 -1.421875 
Q 18.84375 -1.421875 12.171875 6.21875 
Q 5.515625 13.875 5.515625 27.296875 
Q 5.515625 40.765625 12.171875 48.375 
Q 18.84375 56 30.609375 56 
z
M 26.03125 -6.890625 
L 35.015625 -6.890625 
L 35.015625 -18.3125 
L 26.03125 -18.3125 
z
M 27 79.984375 
L 34.234375 79.984375 
L 46.1875 61.625 
L 39.40625 61.625 
L 30.609375 73.578125 
L 21.828125 61.625 
L 15.046875 61.625 
z
" id="DejaVuSans-7897"/>
       <path id="DejaVuSans-32"/>
       <path d="M 45.40625 27.984375 
Q 45.40625 37.75 41.375 43.109375 
Q 37.359375 48.484375 30.078125 48.484375 
Q 22.859375 48.484375 18.828125 43.109375 
Q 14.796875 37.75 14.796875 27.984375 
Q 14.796875 18.265625 18.828125 12.890625 
Q 22.859375 7.515625 30.078125 7.515625 
Q 37.359375 7.515625 41.375 12.890625 
Q 45.40625 18.265625 45.40625 27.984375 
z
M 54.390625 6.78125 
Q 54.390625 -7.171875 48.1875 -13.984375 
Q 42 -20.796875 29.203125 -20.796875 
Q 24.46875 -20.796875 20.265625 -20.09375 
Q 16.0625 -19.390625 12.109375 -17.921875 
L 12.109375 -9.1875 
Q 16.0625 -11.328125 19.921875 -12.34375 
Q 23.78125 -13.375 27.78125 -13.375 
Q 36.625 -13.375 41.015625 -8.765625 
Q 45.40625 -4.15625 45.40625 5.171875 
L 45.40625 9.625 
Q 42.625 4.78125 38.28125 2.390625 
Q 33.9375 0 27.875 0 
Q 17.828125 0 11.671875 7.65625 
Q 5.515625 15.328125 5.515625 27.984375 
Q 5.515625 40.671875 11.671875 48.328125 
Q 17.828125 56 27.875 56 
Q 33.9375 56 38.28125 53.609375 
Q 42.625 51.21875 45.40625 46.390625 
L 45.40625 54.6875 
L 54.390625 54.6875 
z
" id="DejaVuSans-103"/>
       <path d="M 42.09375 84.671875 
L 51.65625 71.78125 
L 44.1875 71.78125 
L 32.953125 84.671875 
z
M 25.921875 74.65625 
L 35.109375 74.65625 
L 45.40625 61.671875 
L 38.625 61.671875 
L 30.515625 70.359375 
L 22.40625 61.671875 
L 15.625 61.671875 
z
M 30.609375 48.390625 
Q 23.390625 48.390625 19.1875 42.75 
Q 14.984375 37.109375 14.984375 27.296875 
Q 14.984375 17.484375 19.15625 11.84375 
Q 23.34375 6.203125 30.609375 6.203125 
Q 37.796875 6.203125 41.984375 11.859375 
Q 46.1875 17.53125 46.1875 27.296875 
Q 46.1875 37.015625 41.984375 42.703125 
Q 37.796875 48.390625 30.609375 48.390625 
z
M 30.609375 56 
Q 42.328125 56 49.015625 48.375 
Q 55.71875 40.765625 55.71875 27.296875 
Q 55.71875 13.875 49.015625 6.21875 
Q 42.328125 -1.421875 30.609375 -1.421875 
Q 18.84375 -1.421875 12.171875 6.21875 
Q 5.515625 13.875 5.515625 27.296875 
Q 5.515625 40.765625 12.171875 48.375 
Q 18.84375 56 30.609375 56 
z
" id="DejaVuSans-7891"/>
       <path d="M 54.890625 33.015625 
L 54.890625 0 
L 45.90625 0 
L 45.90625 32.71875 
Q 45.90625 40.484375 42.875 44.328125 
Q 39.84375 48.1875 33.796875 48.1875 
Q 26.515625 48.1875 22.3125 43.546875 
Q 18.109375 38.921875 18.109375 30.90625 
L 18.109375 0 
L 9.078125 0 
L 9.078125 75.984375 
L 18.109375 75.984375 
L 18.109375 46.1875 
Q 21.34375 51.125 25.703125 53.5625 
Q 30.078125 56 35.796875 56 
Q 45.21875 56 50.046875 50.171875 
Q 54.890625 44.34375 54.890625 33.015625 
z
" id="DejaVuSans-104"/>
       <path d="M 43.40625 84.671875 
L 52.984375 71.78125 
L 45.515625 71.78125 
L 34.28125 84.671875 
z
M 27.25 74.65625 
L 36.421875 74.65625 
L 46.734375 61.671875 
L 39.9375 61.671875 
L 31.84375 70.359375 
L 23.734375 61.671875 
L 16.9375 61.671875 
z
M 56.203125 29.59375 
L 56.203125 25.203125 
L 14.890625 25.203125 
Q 15.484375 15.921875 20.484375 11.0625 
Q 25.484375 6.203125 34.421875 6.203125 
Q 39.59375 6.203125 44.453125 7.46875 
Q 49.3125 8.734375 54.109375 11.28125 
L 54.109375 2.78125 
Q 49.265625 0.734375 44.1875 -0.34375 
Q 39.109375 -1.421875 33.890625 -1.421875 
Q 20.796875 -1.421875 13.15625 6.1875 
Q 5.515625 13.8125 5.515625 26.8125 
Q 5.515625 40.234375 12.765625 48.109375 
Q 20.015625 56 32.328125 56 
Q 43.359375 56 49.78125 48.890625 
Q 56.203125 41.796875 56.203125 29.59375 
z
M 47.21875 32.234375 
Q 47.125 39.59375 43.09375 43.984375 
Q 39.0625 48.390625 32.421875 48.390625 
Q 24.90625 48.390625 20.390625 44.140625 
Q 15.875 39.890625 15.1875 32.171875 
z
" id="DejaVuSans-7873"/>
       <path d="M 31 75.875 
Q 24.46875 64.65625 21.28125 53.65625 
Q 18.109375 42.671875 18.109375 31.390625 
Q 18.109375 20.125 21.3125 9.0625 
Q 24.515625 -2 31 -13.1875 
L 23.1875 -13.1875 
Q 15.875 -1.703125 12.234375 9.375 
Q 8.59375 20.453125 8.59375 31.390625 
Q 8.59375 42.28125 12.203125 53.3125 
Q 15.828125 64.359375 23.1875 75.875 
z
" id="DejaVuSans-40"/>
       <path d="M 48.78125 52.59375 
L 48.78125 44.1875 
Q 44.96875 46.296875 41.140625 47.34375 
Q 37.3125 48.390625 33.40625 48.390625 
Q 24.65625 48.390625 19.8125 42.84375 
Q 14.984375 37.3125 14.984375 27.296875 
Q 14.984375 17.28125 19.8125 11.734375 
Q 24.65625 6.203125 33.40625 6.203125 
Q 37.3125 6.203125 41.140625 7.25 
Q 44.96875 8.296875 48.78125 10.40625 
L 48.78125 2.09375 
Q 45.015625 0.34375 40.984375 -0.53125 
Q 36.96875 -1.421875 32.421875 -1.421875 
Q 20.0625 -1.421875 12.78125 6.34375 
Q 5.515625 14.109375 5.515625 27.296875 
Q 5.515625 40.671875 12.859375 48.328125 
Q 20.21875 56 33.015625 56 
Q 37.15625 56 41.109375 55.140625 
Q 45.0625 54.296875 48.78125 52.59375 
z
" id="DejaVuSans-99"/>
       <path d="M 8.5 21.578125 
L 8.5 54.6875 
L 17.484375 54.6875 
L 17.484375 21.921875 
Q 17.484375 14.15625 20.5 10.265625 
Q 23.53125 6.390625 29.59375 6.390625 
Q 36.859375 6.390625 41.078125 11.03125 
Q 45.3125 15.671875 45.3125 23.6875 
L 45.3125 54.6875 
L 54.296875 54.6875 
L 54.296875 0 
L 45.3125 0 
L 45.3125 8.40625 
Q 42.046875 3.421875 37.71875 1 
Q 33.40625 -1.421875 27.6875 -1.421875 
Q 18.265625 -1.421875 13.375 4.4375 
Q 8.5 10.296875 8.5 21.578125 
z
M 31.109375 56 
z
" id="DejaVuSans-117"/>
       <path d="M 35.796875 83.734375 
Q 41.265625 86.21875 46.390625 86.21875 
Q 51.46875 86.21875 54.5625 84.140625 
Q 57.671875 82.078125 57.671875 78.796875 
Q 57.671875 75.828125 53.375 72.65625 
L 51.21875 71.09375 
Q 49.515625 69.8125 49.3125 69.375 
Q 48.96875 68.59375 48.96875 67.03125 
L 43.171875 67.03125 
L 43.171875 67.625 
Q 43.171875 69.578125 43.890625 70.890625 
Q 44.625 72.21875 47.125 74.015625 
L 49.3125 75.671875 
Q 51.5625 77.34375 51.5625 79.296875 
Q 51.5625 80.3125 50.046875 81.1875 
Q 48.53125 82.078125 45.0625 82.078125 
Q 40.671875 82.078125 35.796875 79.53125 
z
M 24.421875 74.609375 
L 33.59375 74.609375 
L 43.890625 61.625 
L 37.109375 61.625 
L 29 70.3125 
L 20.90625 61.625 
L 14.109375 61.625 
z
M 34.28125 27.484375 
Q 23.390625 27.484375 19.1875 25 
Q 14.984375 22.515625 14.984375 16.5 
Q 14.984375 11.71875 18.140625 8.90625 
Q 21.296875 6.109375 26.703125 6.109375 
Q 34.1875 6.109375 38.703125 11.40625 
Q 43.21875 16.703125 43.21875 25.484375 
L 43.21875 27.484375 
z
M 52.203125 31.203125 
L 52.203125 0 
L 43.21875 0 
L 43.21875 8.296875 
Q 40.140625 3.328125 35.546875 0.953125 
Q 30.953125 -1.421875 24.3125 -1.421875 
Q 15.921875 -1.421875 10.953125 3.296875 
Q 6 8.015625 6 15.921875 
Q 6 25.140625 12.171875 29.828125 
Q 18.359375 34.515625 30.609375 34.515625 
L 43.21875 34.515625 
L 43.21875 35.40625 
Q 43.21875 41.609375 39.140625 45 
Q 35.0625 48.390625 27.6875 48.390625 
Q 23 48.390625 18.546875 47.265625 
Q 14.109375 46.140625 10.015625 43.890625 
L 10.015625 52.203125 
Q 14.9375 54.109375 19.578125 55.046875 
Q 24.21875 56 28.609375 56 
Q 40.484375 56 46.34375 49.84375 
Q 52.203125 43.703125 52.203125 31.203125 
z
" id="DejaVuSans-7849"/>
       <path d="M 54.890625 33.015625 
L 54.890625 0 
L 45.90625 0 
L 45.90625 32.71875 
Q 45.90625 40.484375 42.875 44.328125 
Q 39.84375 48.1875 33.796875 48.1875 
Q 26.515625 48.1875 22.3125 43.546875 
Q 18.109375 38.921875 18.109375 30.90625 
L 18.109375 0 
L 9.078125 0 
L 9.078125 54.6875 
L 18.109375 54.6875 
L 18.109375 46.1875 
Q 21.34375 51.125 25.703125 53.5625 
Q 30.078125 56 35.796875 56 
Q 45.21875 56 50.046875 50.171875 
Q 54.890625 44.34375 54.890625 33.015625 
z
" id="DejaVuSans-110"/>
       <path d="M 30.609375 48.390625 
Q 23.390625 48.390625 19.1875 42.75 
Q 14.984375 37.109375 14.984375 27.296875 
Q 14.984375 17.484375 19.15625 11.84375 
Q 23.34375 6.203125 30.609375 6.203125 
Q 37.796875 6.203125 41.984375 11.859375 
Q 46.1875 17.53125 46.1875 27.296875 
Q 46.1875 37.015625 41.984375 42.703125 
Q 37.796875 48.390625 30.609375 48.390625 
z
M 30.609375 56 
Q 42.328125 56 49.015625 48.375 
Q 55.71875 40.765625 55.71875 27.296875 
Q 55.71875 13.875 49.015625 6.21875 
Q 42.328125 -1.421875 30.609375 -1.421875 
Q 18.84375 -1.421875 12.171875 6.21875 
Q 5.515625 13.875 5.515625 27.296875 
Q 5.515625 40.765625 12.171875 48.375 
Q 18.84375 56 30.609375 56 
z
" id="DejaVuSans-111"/>
       <path d="M 34.28125 27.484375 
Q 23.390625 27.484375 19.1875 25 
Q 14.984375 22.515625 14.984375 16.5 
Q 14.984375 11.71875 18.140625 8.90625 
Q 21.296875 6.109375 26.703125 6.109375 
Q 34.1875 6.109375 38.703125 11.40625 
Q 43.21875 16.703125 43.21875 25.484375 
L 43.21875 27.484375 
z
M 52.203125 31.203125 
L 52.203125 0 
L 43.21875 0 
L 43.21875 8.296875 
Q 40.140625 3.328125 35.546875 0.953125 
Q 30.953125 -1.421875 24.3125 -1.421875 
Q 15.921875 -1.421875 10.953125 3.296875 
Q 6 8.015625 6 15.921875 
Q 6 25.140625 12.171875 29.828125 
Q 18.359375 34.515625 30.609375 34.515625 
L 43.21875 34.515625 
L 43.21875 35.40625 
Q 43.21875 41.609375 39.140625 45 
Q 35.0625 48.390625 27.6875 48.390625 
Q 23 48.390625 18.546875 47.265625 
Q 14.109375 46.140625 10.015625 43.890625 
L 10.015625 52.203125 
Q 14.9375 54.109375 19.578125 55.046875 
Q 24.21875 56 28.609375 56 
Q 40.484375 56 46.34375 49.84375 
Q 52.203125 43.703125 52.203125 31.203125 
z
M 35.796875 79.984375 
L 45.515625 79.984375 
L 29.59375 61.625 
L 22.125 61.625 
z
" id="DejaVuSans-225"/>
       <path d="M 8.015625 75.875 
L 15.828125 75.875 
Q 23.140625 64.359375 26.78125 53.3125 
Q 30.421875 42.28125 30.421875 31.390625 
Q 30.421875 20.453125 26.78125 9.375 
Q 23.140625 -1.703125 15.828125 -13.1875 
L 8.015625 -13.1875 
Q 14.5 -2 17.703125 9.0625 
Q 20.90625 20.125 20.90625 31.390625 
Q 20.90625 42.671875 17.703125 53.65625 
Q 14.5 64.65625 8.015625 75.875 
z
" id="DejaVuSans-41"/>
      </defs>
      <use xlink:href="#DejaVuSans-273"/>
      <use x="63.476562" xlink:href="#DejaVuSans-7897"/>
      <use x="124.658203" xlink:href="#DejaVuSans-32"/>
      <use x="156.445312" xlink:href="#DejaVuSans-103"/>
      <use x="219.921875" xlink:href="#DejaVuSans-7891"/>
      <use x="281.103516" xlink:href="#DejaVuSans-32"/>
      <use x="312.890625" xlink:href="#DejaVuSans-103"/>
      <use x="376.367188" xlink:href="#DejaVuSans-104"/>
      <use x="439.746094" xlink:href="#DejaVuSans-7873"/>
      <use x="501.269531" xlink:href="#DejaVuSans-32"/>
      <use x="533.056641" xlink:href="#DejaVuSans-40"/>
      <use x="572.070312" xlink:href="#DejaVuSans-99"/>
      <use x="627.050781" xlink:href="#DejaVuSans-104"/>
      <use x="690.429688" xlink:href="#DejaVuSans-117"/>
      <use x="753.808594" xlink:href="#DejaVuSans-7849"/>
      <use x="815.087891" xlink:href="#DejaVuSans-110"/>
      <use x="878.466797" xlink:href="#DejaVuSans-32"/>
      <use x="910.253906" xlink:href="#DejaVuSans-104"/>
      <use x="973.632812" xlink:href="#DejaVuSans-111"/>
      <use x="1034.814453" xlink:href="#DejaVuSans-225"/>
      <use x="1096.09375" xlink:href="#DejaVuSans-41"/>
     </g>
    </g>
   </g>
   <g id="matplotlib.axis_2">
    <g id="ytick_1">
     <g id="line2d_13">
      <path clip-path="url(#p485fb26177)" d="M 54.074125 258.918203 
L 429.914125 258.918203 
" style="fill:none;stroke:#cbcbcb;"/>
     </g>
     <g id="line2d_14"/>
     <g id="text_8">
      <!-- 0.7 -->
      <g transform="translate(28.30975 264.237109)scale(0.14 -0.14)">
       <defs>
        <path d="M 8.203125 72.90625 
L 55.078125 72.90625 
L 55.078125 68.703125 
L 28.609375 0 
L 18.3125 0 
L 43.21875 64.59375 
L 8.203125 64.59375 
z
" id="DejaVuSans-55"/>
       </defs>
       <use xlink:href="#DejaVuSans-48"/>
       <use x="63.623047" xlink:href="#DejaVuSans-46"/>
       <use x="95.410156" xlink:href="#DejaVuSans-55"/>
      </g>
     </g>
    </g>
    <g id="ytick_2">
     <g id="line2d_15">
      <path clip-path="url(#p485fb26177)" d="M 54.074125 221.43666 
L 429.914125 221.43666 
" style="fill:none;stroke:#cbcbcb;"/>
     </g>
     <g id="line2d_16"/>
     <g id="text_9">
      <!-- 0.8 -->
      <g transform="translate(28.30975 226.755566)scale(0.14 -0.14)">
       <use xlink:href="#DejaVuSans-48"/>
       <use x="63.623047" xlink:href="#DejaVuSans-46"/>
       <use x="95.410156" xlink:href="#DejaVuSans-56"/>
      </g>
     </g>
    </g>
    <g id="ytick_3">
     <g id="line2d_17">
      <path clip-path="url(#p485fb26177)" d="M 54.074125 183.955117 
L 429.914125 183.955117 
" style="fill:none;stroke:#cbcbcb;"/>
     </g>
     <g id="line2d_18"/>
     <g id="text_10">
      <!-- 0.9 -->
      <g transform="translate(28.30975 189.274024)scale(0.14 -0.14)">
       <defs>
        <path d="M 10.984375 1.515625 
L 10.984375 10.5 
Q 14.703125 8.734375 18.5 7.8125 
Q 22.3125 6.890625 25.984375 6.890625 
Q 35.75 6.890625 40.890625 13.453125 
Q 46.046875 20.015625 46.78125 33.40625 
Q 43.953125 29.203125 39.59375 26.953125 
Q 35.25 24.703125 29.984375 24.703125 
Q 19.046875 24.703125 12.671875 31.3125 
Q 6.296875 37.9375 6.296875 49.421875 
Q 6.296875 60.640625 12.9375 67.421875 
Q 19.578125 74.21875 30.609375 74.21875 
Q 43.265625 74.21875 49.921875 64.515625 
Q 56.59375 54.828125 56.59375 36.375 
Q 56.59375 19.140625 48.40625 8.859375 
Q 40.234375 -1.421875 26.421875 -1.421875 
Q 22.703125 -1.421875 18.890625 -0.6875 
Q 15.09375 0.046875 10.984375 1.515625 
z
M 30.609375 32.421875 
Q 37.25 32.421875 41.125 36.953125 
Q 45.015625 41.5 45.015625 49.421875 
Q 45.015625 57.28125 41.125 61.84375 
Q 37.25 66.40625 30.609375 66.40625 
Q 23.96875 66.40625 20.09375 61.84375 
Q 16.21875 57.28125 16.21875 49.421875 
Q 16.21875 41.5 20.09375 36.953125 
Q 23.96875 32.421875 30.609375 32.421875 
z
" id="DejaVuSans-57"/>
       </defs>
       <use xlink:href="#DejaVuSans-48"/>
       <use x="63.623047" xlink:href="#DejaVuSans-46"/>
       <use x="95.410156" xlink:href="#DejaVuSans-57"/>
      </g>
     </g>
    </g>
    <g id="ytick_4">
     <g id="line2d_19">
      <path clip-path="url(#p485fb26177)" d="M 54.074125 146.473575 
L 429.914125 146.473575 
" style="fill:none;stroke:#cbcbcb;"/>
     </g>
     <g id="line2d_20"/>
     <g id="text_11">
      <!-- 1.0 -->
      <g transform="translate(28.30975 151.792481)scale(0.14 -0.14)">
       <use xlink:href="#DejaVuSans-49"/>
       <use x="63.623047" xlink:href="#DejaVuSans-46"/>
       <use x="95.410156" xlink:href="#DejaVuSans-48"/>
      </g>
     </g>
    </g>
    <g id="ytick_5">
     <g id="line2d_21">
      <path clip-path="url(#p485fb26177)" d="M 54.074125 108.992032 
L 429.914125 108.992032 
" style="fill:none;stroke:#cbcbcb;"/>
     </g>
     <g id="line2d_22"/>
     <g id="text_12">
      <!-- 1.1 -->
      <g transform="translate(28.30975 114.310938)scale(0.14 -0.14)">
       <use xlink:href="#DejaVuSans-49"/>
       <use x="63.623047" xlink:href="#DejaVuSans-46"/>
       <use x="95.410156" xlink:href="#DejaVuSans-49"/>
      </g>
     </g>
    </g>
    <g id="ytick_6">
     <g id="line2d_23">
      <path clip-path="url(#p485fb26177)" d="M 54.074125 71.510489 
L 429.914125 71.510489 
" style="fill:none;stroke:#cbcbcb;"/>
     </g>
     <g id="line2d_24"/>
     <g id="text_13">
      <!-- 1.2 -->
      <g transform="translate(28.30975 76.829395)scale(0.14 -0.14)">
       <use xlink:href="#DejaVuSans-49"/>
       <use x="63.623047" xlink:href="#DejaVuSans-46"/>
       <use x="95.410156" xlink:href="#DejaVuSans-50"/>
      </g>
     </g>
    </g>
    <g id="ytick_7">
     <g id="line2d_25">
      <path clip-path="url(#p485fb26177)" d="M 54.074125 34.028946 
L 429.914125 34.028946 
" style="fill:none;stroke:#cbcbcb;"/>
     </g>
     <g id="line2d_26"/>
     <g id="text_14">
      <!-- 1.3 -->
      <g transform="translate(28.30975 39.347853)scale(0.14 -0.14)">
       <defs>
        <path d="M 40.578125 39.3125 
Q 47.65625 37.796875 51.625 33 
Q 55.609375 28.21875 55.609375 21.1875 
Q 55.609375 10.40625 48.1875 4.484375 
Q 40.765625 -1.421875 27.09375 -1.421875 
Q 22.515625 -1.421875 17.65625 -0.515625 
Q 12.796875 0.390625 7.625 2.203125 
L 7.625 11.71875 
Q 11.71875 9.328125 16.59375 8.109375 
Q 21.484375 6.890625 26.8125 6.890625 
Q 36.078125 6.890625 40.9375 10.546875 
Q 45.796875 14.203125 45.796875 21.1875 
Q 45.796875 27.640625 41.28125 31.265625 
Q 36.765625 34.90625 28.71875 34.90625 
L 20.21875 34.90625 
L 20.21875 43.015625 
L 29.109375 43.015625 
Q 36.375 43.015625 40.234375 45.921875 
Q 44.09375 48.828125 44.09375 54.296875 
Q 44.09375 59.90625 40.109375 62.90625 
Q 36.140625 65.921875 28.71875 65.921875 
Q 24.65625 65.921875 20.015625 65.03125 
Q 15.375 64.15625 9.8125 62.3125 
L 9.8125 71.09375 
Q 15.4375 72.65625 20.34375 73.4375 
Q 25.25 74.21875 29.59375 74.21875 
Q 40.828125 74.21875 47.359375 69.109375 
Q 53.90625 64.015625 53.90625 55.328125 
Q 53.90625 49.265625 50.4375 45.09375 
Q 46.96875 40.921875 40.578125 39.3125 
z
" id="DejaVuSans-51"/>
       </defs>
       <use xlink:href="#DejaVuSans-49"/>
       <use x="63.623047" xlink:href="#DejaVuSans-46"/>
       <use x="95.410156" xlink:href="#DejaVuSans-51"/>
      </g>
     </g>
    </g>
    <g id="text_15">
     <!-- log GDP (tỉ lệ với trung bình) -->
     <g transform="translate(20.815875 264.835875)rotate(-90)scale(0.168 -0.168)">
      <defs>
       <path d="M 9.421875 75.984375 
L 18.40625 75.984375 
L 18.40625 0 
L 9.421875 0 
z
" id="DejaVuSans-108"/>
       <path d="M 59.515625 10.40625 
L 59.515625 29.984375 
L 43.40625 29.984375 
L 43.40625 38.09375 
L 69.28125 38.09375 
L 69.28125 6.78125 
Q 63.578125 2.734375 56.6875 0.65625 
Q 49.8125 -1.421875 42 -1.421875 
Q 24.90625 -1.421875 15.25 8.5625 
Q 5.609375 18.5625 5.609375 36.375 
Q 5.609375 54.25 15.25 64.234375 
Q 24.90625 74.21875 42 74.21875 
Q 49.125 74.21875 55.546875 72.453125 
Q 61.96875 70.703125 67.390625 67.28125 
L 67.390625 56.78125 
Q 61.921875 61.421875 55.765625 63.765625 
Q 49.609375 66.109375 42.828125 66.109375 
Q 29.4375 66.109375 22.71875 58.640625 
Q 16.015625 51.171875 16.015625 36.375 
Q 16.015625 21.625 22.71875 14.15625 
Q 29.4375 6.6875 42.828125 6.6875 
Q 48.046875 6.6875 52.140625 7.59375 
Q 56.25 8.5 59.515625 10.40625 
z
" id="DejaVuSans-71"/>
       <path d="M 19.671875 64.796875 
L 19.671875 8.109375 
L 31.59375 8.109375 
Q 46.6875 8.109375 53.6875 14.9375 
Q 60.6875 21.78125 60.6875 36.53125 
Q 60.6875 51.171875 53.6875 57.984375 
Q 46.6875 64.796875 31.59375 64.796875 
z
M 9.8125 72.90625 
L 30.078125 72.90625 
Q 51.265625 72.90625 61.171875 64.09375 
Q 71.09375 55.28125 71.09375 36.53125 
Q 71.09375 17.671875 61.125 8.828125 
Q 51.171875 0 30.078125 0 
L 9.8125 0 
z
" id="DejaVuSans-68"/>
       <path d="M 19.671875 64.796875 
L 19.671875 37.40625 
L 32.078125 37.40625 
Q 38.96875 37.40625 42.71875 40.96875 
Q 46.484375 44.53125 46.484375 51.125 
Q 46.484375 57.671875 42.71875 61.234375 
Q 38.96875 64.796875 32.078125 64.796875 
z
M 9.8125 72.90625 
L 32.078125 72.90625 
Q 44.34375 72.90625 50.609375 67.359375 
Q 56.890625 61.8125 56.890625 51.125 
Q 56.890625 40.328125 50.609375 34.8125 
Q 44.34375 29.296875 32.078125 29.296875 
L 19.671875 29.296875 
L 19.671875 0 
L 9.8125 0 
z
" id="DejaVuSans-80"/>
       <path d="M 18.3125 70.21875 
L 18.3125 54.6875 
L 36.8125 54.6875 
L 36.8125 47.703125 
L 18.3125 47.703125 
L 18.3125 18.015625 
Q 18.3125 11.328125 20.140625 9.421875 
Q 21.96875 7.515625 27.59375 7.515625 
L 36.8125 7.515625 
L 36.8125 0 
L 27.59375 0 
Q 17.1875 0 13.234375 3.875 
Q 9.28125 7.765625 9.28125 18.015625 
L 9.28125 47.703125 
L 2.6875 47.703125 
L 2.6875 54.6875 
L 9.28125 54.6875 
L 9.28125 70.21875 
z
" id="DejaVuSans-116"/>
       <path d="M 9.421875 54.6875 
L 18.40625 54.6875 
L 18.40625 0 
L 9.421875 0 
z
M 13.921875 56 
z
M 3.328125 78.5625 
Q 8.796875 81.046875 13.921875 81.046875 
Q 19 81.046875 22.09375 78.96875 
Q 25.203125 76.90625 25.203125 73.625 
Q 25.203125 70.65625 20.90625 67.484375 
L 18.75 65.921875 
Q 17.046875 64.640625 16.84375 64.203125 
Q 16.5 63.421875 16.5 61.859375 
L 10.6875 61.859375 
L 10.6875 62.453125 
Q 10.6875 64.40625 11.421875 65.71875 
Q 12.15625 67.046875 14.65625 68.84375 
L 16.84375 70.5 
Q 19.09375 72.171875 19.09375 74.125 
Q 19.09375 75.140625 17.578125 76.015625 
Q 16.0625 76.90625 12.59375 76.90625 
Q 8.203125 76.90625 3.328125 74.359375 
z
" id="DejaVuSans-7881"/>
       <path d="M 27.203125 -6.890625 
L 36.1875 -6.890625 
L 36.1875 -18.3125 
L 27.203125 -18.3125 
z
M 56.203125 29.59375 
L 56.203125 25.203125 
L 14.890625 25.203125 
Q 15.484375 15.921875 20.484375 11.0625 
Q 25.484375 6.203125 34.421875 6.203125 
Q 39.59375 6.203125 44.453125 7.46875 
Q 49.3125 8.734375 54.109375 11.28125 
L 54.109375 2.78125 
Q 49.265625 0.734375 44.1875 -0.34375 
Q 39.109375 -1.421875 33.890625 -1.421875 
Q 20.796875 -1.421875 13.15625 6.1875 
Q 5.515625 13.8125 5.515625 26.8125 
Q 5.515625 40.234375 12.765625 48.109375 
Q 20.015625 56 32.328125 56 
Q 43.359375 56 49.78125 48.890625 
Q 56.203125 41.796875 56.203125 29.59375 
z
M 47.21875 32.234375 
Q 47.125 39.59375 43.09375 43.984375 
Q 39.0625 48.390625 32.421875 48.390625 
Q 24.90625 48.390625 20.390625 44.140625 
Q 15.875 39.890625 15.1875 32.171875 
z
M 27.203125 -6.890625 
L 36.1875 -6.890625 
L 36.1875 -18.3125 
L 27.203125 -18.3125 
z
M 28.171875 79.984375 
L 35.40625 79.984375 
L 47.359375 61.625 
L 40.578125 61.625 
L 31.78125 73.578125 
L 23 61.625 
L 16.21875 61.625 
z
" id="DejaVuSans-7879"/>
       <path d="M 2.984375 54.6875 
L 12.5 54.6875 
L 29.59375 8.796875 
L 46.6875 54.6875 
L 56.203125 54.6875 
L 35.6875 0 
L 23.484375 0 
z
" id="DejaVuSans-118"/>
       <path d="M 37.40625 79.984375 
L 47.125 79.984375 
L 31.203125 61.625 
L 23.734375 61.625 
z
M 41.015625 48.53125 
L 41.015625 54.34375 
Q 44 52.140625 46.140625 51.09375 
Q 48.296875 50.046875 49.8125 50.046875 
Q 52.046875 50.046875 53.171875 51.390625 
Q 54.296875 52.734375 54.296875 55.359375 
Q 54.296875 56.921875 53.921875 58.4375 
Q 53.5625 59.953125 52.828125 61.46875 
L 59.328125 61.46875 
Q 59.8125 59.609375 60.046875 57.953125 
Q 60.296875 56.296875 60.296875 54.828125 
Q 60.296875 48.875 58.171875 46.0625 
Q 56.0625 43.25 51.515625 43.25 
Q 49.171875 43.25 46.609375 44.546875 
Q 44.046875 45.84375 41.015625 48.53125 
z
M 30.859375 48.390625 
Q 23.640625 48.390625 19.4375 42.75 
Q 15.234375 37.109375 15.234375 27.296875 
Q 15.234375 17.484375 19.40625 11.84375 
Q 23.578125 6.203125 30.859375 6.203125 
Q 38.03125 6.203125 42.234375 11.859375 
Q 46.4375 17.53125 46.4375 27.296875 
Q 46.4375 37.015625 42.234375 42.703125 
Q 38.03125 48.390625 30.859375 48.390625 
z
M 30.859375 56 
Q 42.578125 56 49.265625 48.375 
Q 55.953125 40.765625 55.953125 27.296875 
Q 55.953125 13.875 49.265625 6.21875 
Q 42.578125 -1.421875 30.859375 -1.421875 
Q 19.09375 -1.421875 12.421875 6.21875 
Q 5.765625 13.875 5.765625 27.296875 
Q 5.765625 40.765625 12.421875 48.375 
Q 19.09375 56 30.859375 56 
z
" id="DejaVuSans-7899"/>
       <path d="M 9.421875 54.6875 
L 18.40625 54.6875 
L 18.40625 0 
L 9.421875 0 
z
M 9.421875 75.984375 
L 18.40625 75.984375 
L 18.40625 64.59375 
L 9.421875 64.59375 
z
" id="DejaVuSans-105"/>
       <path d="M 41.109375 46.296875 
Q 39.59375 47.171875 37.8125 47.578125 
Q 36.03125 48 33.890625 48 
Q 26.265625 48 22.1875 43.046875 
Q 18.109375 38.09375 18.109375 28.8125 
L 18.109375 0 
L 9.078125 0 
L 9.078125 54.6875 
L 18.109375 54.6875 
L 18.109375 46.1875 
Q 20.953125 51.171875 25.484375 53.578125 
Q 30.03125 56 36.53125 56 
Q 37.453125 56 38.578125 55.875 
Q 39.703125 55.765625 41.0625 55.515625 
z
" id="DejaVuSans-114"/>
       <path d="M 48.6875 27.296875 
Q 48.6875 37.203125 44.609375 42.84375 
Q 40.53125 48.484375 33.40625 48.484375 
Q 26.265625 48.484375 22.1875 42.84375 
Q 18.109375 37.203125 18.109375 27.296875 
Q 18.109375 17.390625 22.1875 11.75 
Q 26.265625 6.109375 33.40625 6.109375 
Q 40.53125 6.109375 44.609375 11.75 
Q 48.6875 17.390625 48.6875 27.296875 
z
M 18.109375 46.390625 
Q 20.953125 51.265625 25.265625 53.625 
Q 29.59375 56 35.59375 56 
Q 45.5625 56 51.78125 48.09375 
Q 58.015625 40.1875 58.015625 27.296875 
Q 58.015625 14.40625 51.78125 6.484375 
Q 45.5625 -1.421875 35.59375 -1.421875 
Q 29.59375 -1.421875 25.265625 0.953125 
Q 20.953125 3.328125 18.109375 8.203125 
L 18.109375 0 
L 9.078125 0 
L 9.078125 75.984375 
L 18.109375 75.984375 
z
" id="DejaVuSans-98"/>
       <path d="M 6.84375 79.984375 
L 20.609375 61.71875 
L 13.140625 61.71875 
L -2.78125 79.984375 
z
M 9.421875 54.6875 
L 18.40625 54.6875 
L 18.40625 0 
L 9.421875 0 
z
M 13.921875 56 
z
" id="DejaVuSans-236"/>
      </defs>
      <use xlink:href="#DejaVuSans-108"/>
      <use x="27.783203" xlink:href="#DejaVuSans-111"/>
      <use x="88.964844" xlink:href="#DejaVuSans-103"/>
      <use x="152.441406" xlink:href="#DejaVuSans-32"/>
      <use x="184.228516" xlink:href="#DejaVuSans-71"/>
      <use x="261.71875" xlink:href="#DejaVuSans-68"/>
      <use x="338.720703" xlink:href="#DejaVuSans-80"/>
      <use x="399.023438" xlink:href="#DejaVuSans-32"/>
      <use x="430.810547" xlink:href="#DejaVuSans-40"/>
      <use x="469.824219" xlink:href="#DejaVuSans-116"/>
      <use x="509.033203" xlink:href="#DejaVuSans-7881"/>
      <use x="536.816406" xlink:href="#DejaVuSans-32"/>
      <use x="568.603516" xlink:href="#DejaVuSans-108"/>
      <use x="596.386719" xlink:href="#DejaVuSans-7879"/>
      <use x="657.910156" xlink:href="#DejaVuSans-32"/>
      <use x="689.697266" xlink:href="#DejaVuSans-118"/>
      <use x="748.876953" xlink:href="#DejaVuSans-7899"/>
      <use x="810.058594" xlink:href="#DejaVuSans-105"/>
      <use x="837.841797" xlink:href="#DejaVuSans-32"/>
      <use x="869.628906" xlink:href="#DejaVuSans-116"/>
      <use x="908.837891" xlink:href="#DejaVuSans-114"/>
      <use x="949.951172" xlink:href="#DejaVuSans-117"/>
      <use x="1013.330078" xlink:href="#DejaVuSans-110"/>
      <use x="1076.708984" xlink:href="#DejaVuSans-103"/>
      <use x="1140.185547" xlink:href="#DejaVuSans-32"/>
      <use x="1171.972656" xlink:href="#DejaVuSans-98"/>
      <use x="1235.449219" xlink:href="#DejaVuSans-236"/>
      <use x="1263.232422" xlink:href="#DejaVuSans-110"/>
      <use x="1326.611328" xlink:href="#DejaVuSans-104"/>
      <use x="1389.990234" xlink:href="#DejaVuSans-41"/>
     </g>
    </g>
   </g>
   <g id="PathCollection_1">
    <defs>
     <path d="M 0 3 
C 0.795609 3 1.55874 2.683901 2.12132 2.12132 
C 2.683901 1.55874 3 0.795609 3 0 
C 3 -0.795609 2.683901 -1.55874 2.12132 -2.12132 
C 1.55874 -2.683901 0.795609 -3 0 -3 
C -0.795609 -3 -1.55874 -2.683901 -2.12132 -2.12132 
C -2.683901 -1.55874 -3 -0.795609 -3 0 
C -3 0.795609 -2.683901 1.55874 -2.12132 2.12132 
C -1.55874 2.683901 -0.795609 3 0 3 
z
" id="md2da546405" style="stroke:#008fd5;stroke-width:0.5;"/>
    </defs>
    <g clip-path="url(#p485fb26177)">
     <use style="fill:#008fd5;stroke:#008fd5;stroke-width:0.5;" x="139.020362" xlink:href="#md2da546405" y="191.559423"/>
     <use style="fill:#008fd5;stroke:#008fd5;stroke-width:0.5;" x="181.348408" xlink:href="#md2da546405" y="238.217243"/>
     <use style="fill:#008fd5;stroke:#008fd5;stroke-width:0.5;" x="106.103649" xlink:href="#md2da546405" y="219.12942"/>
     <use style="fill:#008fd5;stroke:#008fd5;stroke-width:0.5;" x="110.464999" xlink:href="#md2da546405" y="217.367038"/>
     <use style="fill:#008fd5;stroke:#008fd5;stroke-width:0.5;" x="107.940007" xlink:href="#md2da546405" y="127.454329"/>
     <use style="fill:#008fd5;stroke:#008fd5;stroke-width:0.5;" x="108.67455" xlink:href="#md2da546405" y="211.221375"/>
     <use style="fill:#008fd5;stroke:#008fd5;stroke-width:0.5;" x="109.914092" xlink:href="#md2da546405" y="197.28918"/>
     <use style="fill:#008fd5;stroke:#008fd5;stroke-width:0.5;" x="123.273594" xlink:href="#md2da546405" y="189.45385"/>
     <use style="fill:#008fd5;stroke:#008fd5;stroke-width:0.5;" x="119.96815" xlink:href="#md2da546405" y="235.009121"/>
     <use style="fill:#008fd5;stroke:#008fd5;stroke-width:0.5;" x="106.608648" xlink:href="#md2da546405" y="219.212952"/>
     <use style="fill:#008fd5;stroke:#008fd5;stroke-width:0.5;" x="252.415452" xlink:href="#md2da546405" y="192.164582"/>
     <use style="fill:#008fd5;stroke:#008fd5;stroke-width:0.5;" x="208.296957" xlink:href="#md2da546405" y="147.728105"/>
     <use style="fill:#008fd5;stroke:#008fd5;stroke-width:0.5;" x="211.281039" xlink:href="#md2da546405" y="189.470683"/>
     <use style="fill:#008fd5;stroke:#008fd5;stroke-width:0.5;" x="123.04405" xlink:href="#md2da546405" y="142.937678"/>
     <use style="fill:#008fd5;stroke:#008fd5;stroke-width:0.5;" x="132.822655" xlink:href="#md2da546405" y="160.947254"/>
     <use style="fill:#008fd5;stroke:#008fd5;stroke-width:0.5;" x="213.530577" xlink:href="#md2da546405" y="221.356619"/>
     <use style="fill:#008fd5;stroke:#008fd5;stroke-width:0.5;" x="171.70753" xlink:href="#md2da546405" y="237.227335"/>
     <use style="fill:#008fd5;stroke:#008fd5;stroke-width:0.5;" x="109.638638" xlink:href="#md2da546405" y="137.584923"/>
     <use style="fill:#008fd5;stroke:#008fd5;stroke-width:0.5;" x="110.097728" xlink:href="#md2da546405" y="189.217908"/>
     <use style="fill:#008fd5;stroke:#008fd5;stroke-width:0.5;" x="133.603107" xlink:href="#md2da546405" y="187.329603"/>
     <use style="fill:#008fd5;stroke:#008fd5;stroke-width:0.5;" x="115.836345" xlink:href="#md2da546405" y="193.22179"/>
     <use style="fill:#008fd5;stroke:#008fd5;stroke-width:0.5;" x="122.17178" xlink:href="#md2da546405" y="228.091862"/>
     <use style="fill:#008fd5;stroke:#008fd5;stroke-width:0.5;" x="125.293588" xlink:href="#md2da546405" y="97.570679"/>
     <use style="fill:#008fd5;stroke:#008fd5;stroke-width:0.5;" x="130.343572" xlink:href="#md2da546405" y="216.4806"/>
     <use style="fill:#008fd5;stroke:#008fd5;stroke-width:0.5;" x="384.357755" xlink:href="#md2da546405" y="184.176698"/>
     <use style="fill:#008fd5;stroke:#008fd5;stroke-width:0.5;" x="210.408769" xlink:href="#md2da546405" y="161.992948"/>
     <use style="fill:#008fd5;stroke:#008fd5;stroke-width:0.5;" x="153.298043" xlink:href="#md2da546405" y="225.750032"/>
     <use style="fill:#008fd5;stroke:#008fd5;stroke-width:0.5;" x="106.379103" xlink:href="#md2da546405" y="228.254135"/>
     <use style="fill:#008fd5;stroke:#008fd5;stroke-width:0.5;" x="127.726762" xlink:href="#md2da546405" y="223.079784"/>
     <use style="fill:#008fd5;stroke:#008fd5;stroke-width:0.5;" x="104.910017" xlink:href="#md2da546405" y="193.196078"/>
     <use style="fill:#008fd5;stroke:#008fd5;stroke-width:0.5;" x="143.198076" xlink:href="#md2da546405" y="117.66009"/>
     <use style="fill:#008fd5;stroke:#008fd5;stroke-width:0.5;" x="146.778973" xlink:href="#md2da546405" y="240.797423"/>
     <use style="fill:#008fd5;stroke:#008fd5;stroke-width:0.5;" x="141.545354" xlink:href="#md2da546405" y="138.024447"/>
     <use style="fill:#008fd5;stroke:#008fd5;stroke-width:0.5;" x="107.80228" xlink:href="#md2da546405" y="232.796555"/>
     <use style="fill:#008fd5;stroke:#008fd5;stroke-width:0.5;" x="113.954079" xlink:href="#md2da546405" y="222.793547"/>
     <use style="fill:#008fd5;stroke:#008fd5;stroke-width:0.5;" x="251.543182" xlink:href="#md2da546405" y="215.606328"/>
     <use style="fill:#008fd5;stroke:#008fd5;stroke-width:0.5;" x="119.922241" xlink:href="#md2da546405" y="194.396567"/>
     <use style="fill:#008fd5;stroke:#008fd5;stroke-width:0.5;" x="110.832271" xlink:href="#md2da546405" y="201.400868"/>
     <use style="fill:#008fd5;stroke:#008fd5;stroke-width:0.5;" x="122.493142" xlink:href="#md2da546405" y="250.838864"/>
     <use style="fill:#008fd5;stroke:#008fd5;stroke-width:0.5;" x="240.249582" xlink:href="#md2da546405" y="149.367292"/>
     <use style="fill:#008fd5;stroke:#008fd5;stroke-width:0.5;" x="323.895677" xlink:href="#md2da546405" y="90.203893"/>
     <use style="fill:#008fd5;stroke:#008fd5;stroke-width:0.5;" x="118.866336" xlink:href="#md2da546405" y="225.968893"/>
     <use style="fill:#008fd5;stroke:#008fd5;stroke-width:0.5;" x="112.484993" xlink:href="#md2da546405" y="201.346531"/>
     <use style="fill:#008fd5;stroke:#008fd5;stroke-width:0.5;" x="132.960381" xlink:href="#md2da546405" y="136.639376"/>
     <use style="fill:#008fd5;stroke:#008fd5;stroke-width:0.5;" x="130.710843" xlink:href="#md2da546405" y="245.920473"/>
     <use style="fill:#008fd5;stroke:#008fd5;stroke-width:0.5;" x="141.545354" xlink:href="#md2da546405" y="207.706268"/>
     <use style="fill:#008fd5;stroke:#008fd5;stroke-width:0.5;" x="180.476138" xlink:href="#md2da546405" y="118.600239"/>
     <use style="fill:#008fd5;stroke:#008fd5;stroke-width:0.5;" x="124.099955" xlink:href="#md2da546405" y="228.57065"/>
     <use style="fill:#008fd5;stroke:#008fd5;stroke-width:0.5;" x="154.445767" xlink:href="#md2da546405" y="176.987606"/>
    </g>
   </g>
   <g id="PathCollection_2">
    <defs>
     <path d="M 0 3 
C 0.795609 3 1.55874 2.683901 2.12132 2.12132 
C 2.683901 1.55874 3 0.795609 3 0 
C 3 -0.795609 2.683901 -1.55874 2.12132 -2.12132 
C 1.55874 -2.683901 0.795609 -3 0 -3 
C -0.795609 -3 -1.55874 -2.683901 -2.12132 -2.12132 
C -2.683901 -1.55874 -3 -0.795609 -3 0 
C -3 0.795609 -2.683901 1.55874 -2.12132 2.12132 
C -1.55874 2.683901 -0.795609 3 0 3 
z
" id="m2411155b25" style="stroke:#fc4f30;stroke-width:0.5;"/>
    </defs>
    <g clip-path="url(#p485fb26177)">
     <use style="fill:#fc4f30;stroke:#fc4f30;stroke-width:0.5;" x="256.960437" xlink:href="#m2411155b25" y="159.684058"/>
     <use style="fill:#fc4f30;stroke:#fc4f30;stroke-width:0.5;" x="134.934466" xlink:href="#m2411155b25" y="84.152827"/>
     <use style="fill:#fc4f30;stroke:#fc4f30;stroke-width:0.5;" x="135.20992" xlink:href="#m2411155b25" y="107.310852"/>
     <use style="fill:#fc4f30;stroke:#fc4f30;stroke-width:0.5;" x="223.033728" xlink:href="#m2411155b25" y="178.368962"/>
     <use style="fill:#fc4f30;stroke:#fc4f30;stroke-width:0.5;" x="99.905942" xlink:href="#m2411155b25" y="115.869858"/>
     <use style="fill:#fc4f30;stroke:#fc4f30;stroke-width:0.5;" x="106.195467" xlink:href="#m2411155b25" y="74.914461"/>
     <use style="fill:#fc4f30;stroke:#fc4f30;stroke-width:0.5;" x="260.908606" xlink:href="#m2411155b25" y="69.130101"/>
     <use style="fill:#fc4f30;stroke:#fc4f30;stroke-width:0.5;" x="176.390242" xlink:href="#m2411155b25" y="175.742355"/>
     <use style="fill:#fc4f30;stroke:#fc4f30;stroke-width:0.5;" x="117.443158" xlink:href="#m2411155b25" y="71.765268"/>
     <use style="fill:#fc4f30;stroke:#fc4f30;stroke-width:0.5;" x="108.169552" xlink:href="#m2411155b25" y="200.071744"/>
     <use style="fill:#fc4f30;stroke:#fc4f30;stroke-width:0.5;" x="167.529816" xlink:href="#m2411155b25" y="138.599799"/>
     <use style="fill:#fc4f30;stroke:#fc4f30;stroke-width:0.5;" x="110.235454" xlink:href="#m2411155b25" y="95.481336"/>
     <use style="fill:#fc4f30;stroke:#fc4f30;stroke-width:0.5;" x="102.15548" xlink:href="#m2411155b25" y="92.674239"/>
     <use style="fill:#fc4f30;stroke:#fc4f30;stroke-width:0.5;" x="205.726057" xlink:href="#m2411155b25" y="143.947729"/>
     <use style="fill:#fc4f30;stroke:#fc4f30;stroke-width:0.5;" x="107.159555" xlink:href="#m2411155b25" y="148.247368"/>
     <use style="fill:#fc4f30;stroke:#fc4f30;stroke-width:0.5;" x="127.497217" xlink:href="#m2411155b25" y="139.416485"/>
     <use style="fill:#fc4f30;stroke:#fc4f30;stroke-width:0.5;" x="138.790817" xlink:href="#m2411155b25" y="178.791252"/>
     <use style="fill:#fc4f30;stroke:#fc4f30;stroke-width:0.5;" x="110.648635" xlink:href="#m2411155b25" y="129.811059"/>
     <use style="fill:#fc4f30;stroke:#fc4f30;stroke-width:0.5;" x="143.840801" xlink:href="#m2411155b25" y="97.278917"/>
     <use style="fill:#fc4f30;stroke:#fc4f30;stroke-width:0.5;" x="135.20992" xlink:href="#m2411155b25" y="71.787404"/>
     <use style="fill:#fc4f30;stroke:#fc4f30;stroke-width:0.5;" x="318.202968" xlink:href="#m2411155b25" y="67.383764"/>
     <use style="fill:#fc4f30;stroke:#fc4f30;stroke-width:0.5;" x="213.530577" xlink:href="#m2411155b25" y="120.042286"/>
     <use style="fill:#fc4f30;stroke:#fc4f30;stroke-width:0.5;" x="185.847484" xlink:href="#m2411155b25" y="157.086009"/>
     <use style="fill:#fc4f30;stroke:#fc4f30;stroke-width:0.5;" x="140.259903" xlink:href="#m2411155b25" y="136.694987"/>
     <use style="fill:#fc4f30;stroke:#fc4f30;stroke-width:0.5;" x="196.590177" xlink:href="#m2411155b25" y="122.495195"/>
     <use style="fill:#fc4f30;stroke:#fc4f30;stroke-width:0.5;" x="224.410997" xlink:href="#m2411155b25" y="84.768945"/>
     <use style="fill:#fc4f30;stroke:#fc4f30;stroke-width:0.5;" x="140.213994" xlink:href="#m2411155b25" y="97.041682"/>
     <use style="fill:#fc4f30;stroke:#fc4f30;stroke-width:0.5;" x="127.038128" xlink:href="#m2411155b25" y="74.803809"/>
     <use style="fill:#fc4f30;stroke:#fc4f30;stroke-width:0.5;" x="99.768215" xlink:href="#m2411155b25" y="138.950473"/>
     <use style="fill:#fc4f30;stroke:#fc4f30;stroke-width:0.5;" x="108.307279" xlink:href="#m2411155b25" y="69.491729"/>
     <use style="fill:#fc4f30;stroke:#fc4f30;stroke-width:0.5;" x="174.967065" xlink:href="#m2411155b25" y="135.532374"/>
     <use style="fill:#fc4f30;stroke:#fc4f30;stroke-width:0.5;" x="158.302118" xlink:href="#m2411155b25" y="163.787662"/>
     <use style="fill:#fc4f30;stroke:#fc4f30;stroke-width:0.5;" x="177.170694" xlink:href="#m2411155b25" y="81.741763"/>
     <use style="fill:#fc4f30;stroke:#fc4f30;stroke-width:0.5;" x="105.277288" xlink:href="#m2411155b25" y="117.023313"/>
     <use style="fill:#fc4f30;stroke:#fc4f30;stroke-width:0.5;" x="114.688622" xlink:href="#m2411155b25" y="74.678863"/>
     <use style="fill:#fc4f30;stroke:#fc4f30;stroke-width:0.5;" x="163.719373" xlink:href="#m2411155b25" y="146.913438"/>
     <use style="fill:#fc4f30;stroke:#fc4f30;stroke-width:0.5;" x="150.038508" xlink:href="#m2411155b25" y="74.431348"/>
     <use style="fill:#fc4f30;stroke:#fc4f30;stroke-width:0.5;" x="125.706768" xlink:href="#m2411155b25" y="73.358746"/>
     <use style="fill:#fc4f30;stroke:#fc4f30;stroke-width:0.5;" x="267.611312" xlink:href="#m2411155b25" y="189.506171"/>
     <use style="fill:#fc4f30;stroke:#fc4f30;stroke-width:0.5;" x="242.08594" xlink:href="#m2411155b25" y="91.612602"/>
     <use style="fill:#fc4f30;stroke:#fc4f30;stroke-width:0.5;" x="195.488362" xlink:href="#m2411155b25" y="128.413778"/>
     <use style="fill:#fc4f30;stroke:#fc4f30;stroke-width:0.5;" x="182.587949" xlink:href="#m2411155b25" y="156.572665"/>
     <use style="fill:#fc4f30;stroke:#fc4f30;stroke-width:0.5;" x="112.16363" xlink:href="#m2411155b25" y="155.503309"/>
     <use style="fill:#fc4f30;stroke:#fc4f30;stroke-width:0.5;" x="214.448756" xlink:href="#m2411155b25" y="74.264152"/>
     <use style="fill:#fc4f30;stroke:#fc4f30;stroke-width:0.5;" x="198.334717" xlink:href="#m2411155b25" y="176.864238"/>
     <use style="fill:#fc4f30;stroke:#fc4f30;stroke-width:0.5;" x="157.79712" xlink:href="#m2411155b25" y="118.013826"/>
     <use style="fill:#fc4f30;stroke:#fc4f30;stroke-width:0.5;" x="208.067413" xlink:href="#m2411155b25" y="191.469354"/>
     <use style="fill:#fc4f30;stroke:#fc4f30;stroke-width:0.5;" x="115.514983" xlink:href="#m2411155b25" y="103.670165"/>
     <use style="fill:#fc4f30;stroke:#fc4f30;stroke-width:0.5;" x="144.024437" xlink:href="#m2411155b25" y="168.537492"/>
     <use style="fill:#fc4f30;stroke:#fc4f30;stroke-width:0.5;" x="146.136248" xlink:href="#m2411155b25" y="178.494367"/>
     <use style="fill:#fc4f30;stroke:#fc4f30;stroke-width:0.5;" x="123.181776" xlink:href="#m2411155b25" y="66.845724"/>
     <use style="fill:#fc4f30;stroke:#fc4f30;stroke-width:0.5;" x="211.877855" xlink:href="#m2411155b25" y="139.736769"/>
     <use style="fill:#fc4f30;stroke:#fc4f30;stroke-width:0.5;" x="167.208453" xlink:href="#m2411155b25" y="69.218865"/>
     <use style="fill:#fc4f30;stroke:#fc4f30;stroke-width:0.5;" x="177.905237" xlink:href="#m2411155b25" y="77.700937"/>
     <use style="fill:#fc4f30;stroke:#fc4f30;stroke-width:0.5;" x="212.474671" xlink:href="#m2411155b25" y="75.652611"/>
     <use style="fill:#fc4f30;stroke:#fc4f30;stroke-width:0.5;" x="181.715679" xlink:href="#m2411155b25" y="160.315114"/>
     <use style="fill:#fc4f30;stroke:#fc4f30;stroke-width:0.5;" x="149.992599" xlink:href="#m2411155b25" y="158.010008"/>
     <use style="fill:#fc4f30;stroke:#fc4f30;stroke-width:0.5;" x="197.508356" xlink:href="#m2411155b25" y="73.546761"/>
     <use style="fill:#fc4f30;stroke:#fc4f30;stroke-width:0.5;" x="116.708615" xlink:href="#m2411155b25" y="150.192915"/>
     <use style="fill:#fc4f30;stroke:#fc4f30;stroke-width:0.5;" x="296.442129" xlink:href="#m2411155b25" y="197.727849"/>
     <use style="fill:#fc4f30;stroke:#fc4f30;stroke-width:0.5;" x="124.421318" xlink:href="#m2411155b25" y="190.009549"/>
     <use style="fill:#fc4f30;stroke:#fc4f30;stroke-width:0.5;" x="99.905942" xlink:href="#m2411155b25" y="110.882464"/>
     <use style="fill:#fc4f30;stroke:#fc4f30;stroke-width:0.5;" x="189.612017" xlink:href="#m2411155b25" y="94.811435"/>
     <use style="fill:#fc4f30;stroke:#fc4f30;stroke-width:0.5;" x="110.87818" xlink:href="#m2411155b25" y="95.396239"/>
     <use style="fill:#fc4f30;stroke:#fc4f30;stroke-width:0.5;" x="216.836021" xlink:href="#m2411155b25" y="197.449426"/>
     <use style="fill:#fc4f30;stroke:#fc4f30;stroke-width:0.5;" x="292.310324" xlink:href="#m2411155b25" y="153.972554"/>
     <use style="fill:#fc4f30;stroke:#fc4f30;stroke-width:0.5;" x="198.19699" xlink:href="#m2411155b25" y="141.320997"/>
     <use style="fill:#fc4f30;stroke:#fc4f30;stroke-width:0.5;" x="129.471302" xlink:href="#m2411155b25" y="160.615791"/>
     <use style="fill:#fc4f30;stroke:#fc4f30;stroke-width:0.5;" x="107.664554" xlink:href="#m2411155b25" y="121.756481"/>
     <use style="fill:#fc4f30;stroke:#fc4f30;stroke-width:0.5;" x="140.076268" xlink:href="#m2411155b25" y="38.766136"/>
     <use style="fill:#fc4f30;stroke:#fc4f30;stroke-width:0.5;" x="106.700466" xlink:href="#m2411155b25" y="126.319444"/>
     <use style="fill:#fc4f30;stroke:#fc4f30;stroke-width:0.5;" x="133.235835" xlink:href="#m2411155b25" y="88.699549"/>
     <use style="fill:#fc4f30;stroke:#fc4f30;stroke-width:0.5;" x="136.311734" xlink:href="#m2411155b25" y="204.699002"/>
     <use style="fill:#fc4f30;stroke:#fc4f30;stroke-width:0.5;" x="179.144778" xlink:href="#m2411155b25" y="120.377666"/>
     <use style="fill:#fc4f30;stroke:#fc4f30;stroke-width:0.5;" x="221.977823" xlink:href="#m2411155b25" y="138.011067"/>
     <use style="fill:#fc4f30;stroke:#fc4f30;stroke-width:0.5;" x="169.733445" xlink:href="#m2411155b25" y="89.478968"/>
     <use style="fill:#fc4f30;stroke:#fc4f30;stroke-width:0.5;" x="148.156242" xlink:href="#m2411155b25" y="196.055156"/>
     <use style="fill:#fc4f30;stroke:#fc4f30;stroke-width:0.5;" x="145.952612" xlink:href="#m2411155b25" y="120.964438"/>
     <use style="fill:#fc4f30;stroke:#fc4f30;stroke-width:0.5;" x="172.442073" xlink:href="#m2411155b25" y="80.989653"/>
     <use style="fill:#fc4f30;stroke:#fc4f30;stroke-width:0.5;" x="145.17216" xlink:href="#m2411155b25" y="165.055157"/>
     <use style="fill:#fc4f30;stroke:#fc4f30;stroke-width:0.5;" x="101.329119" xlink:href="#m2411155b25" y="69.707298"/>
     <use style="fill:#fc4f30;stroke:#fc4f30;stroke-width:0.5;" x="210.225133" xlink:href="#m2411155b25" y="61.843466"/>
     <use style="fill:#fc4f30;stroke:#fc4f30;stroke-width:0.5;" x="331.14929" xlink:href="#m2411155b25" y="204.983771"/>
     <use style="fill:#fc4f30;stroke:#fc4f30;stroke-width:0.5;" x="193.192915" xlink:href="#m2411155b25" y="86.318692"/>
     <use style="fill:#fc4f30;stroke:#fc4f30;stroke-width:0.5;" x="150.543507" xlink:href="#m2411155b25" y="105.34538"/>
     <use style="fill:#fc4f30;stroke:#fc4f30;stroke-width:0.5;" x="189.107019" xlink:href="#m2411155b25" y="188.466808"/>
     <use style="fill:#fc4f30;stroke:#fc4f30;stroke-width:0.5;" x="170.330261" xlink:href="#m2411155b25" y="137.257556"/>
     <use style="fill:#fc4f30;stroke:#fc4f30;stroke-width:0.5;" x="161.469835" xlink:href="#m2411155b25" y="148.982809"/>
     <use style="fill:#fc4f30;stroke:#fc4f30;stroke-width:0.5;" x="192.733826" xlink:href="#m2411155b25" y="155.988151"/>
     <use style="fill:#fc4f30;stroke:#fc4f30;stroke-width:0.5;" x="172.579799" xlink:href="#m2411155b25" y="180.15346"/>
     <use style="fill:#fc4f30;stroke:#fc4f30;stroke-width:0.5;" x="113.265445" xlink:href="#m2411155b25" y="114.234947"/>
     <use style="fill:#fc4f30;stroke:#fc4f30;stroke-width:0.5;" x="166.06073" xlink:href="#m2411155b25" y="80.78692"/>
     <use style="fill:#fc4f30;stroke:#fc4f30;stroke-width:0.5;" x="159.495751" xlink:href="#m2411155b25" y="89.480053"/>
     <use style="fill:#fc4f30;stroke:#fc4f30;stroke-width:0.5;" x="110.87818" xlink:href="#m2411155b25" y="150.590929"/>
     <use style="fill:#fc4f30;stroke:#fc4f30;stroke-width:0.5;" x="194.753819" xlink:href="#m2411155b25" y="76.463517"/>
     <use style="fill:#fc4f30;stroke:#fc4f30;stroke-width:0.5;" x="157.79712" xlink:href="#m2411155b25" y="139.266101"/>
     <use style="fill:#fc4f30;stroke:#fc4f30;stroke-width:0.5;" x="142.784895" xlink:href="#m2411155b25" y="131.065506"/>
     <use style="fill:#fc4f30;stroke:#fc4f30;stroke-width:0.5;" x="141.591263" xlink:href="#m2411155b25" y="106.592206"/>
     <use style="fill:#fc4f30;stroke:#fc4f30;stroke-width:0.5;" x="100.365032" xlink:href="#m2411155b25" y="78.157668"/>
     <use style="fill:#fc4f30;stroke:#fc4f30;stroke-width:0.5;" x="170.330261" xlink:href="#m2411155b25" y="189.928973"/>
     <use style="fill:#fc4f30;stroke:#fc4f30;stroke-width:0.5;" x="179.971139" xlink:href="#m2411155b25" y="150.194457"/>
     <use style="fill:#fc4f30;stroke:#fc4f30;stroke-width:0.5;" x="171.24844" xlink:href="#m2411155b25" y="110.573629"/>
     <use style="fill:#fc4f30;stroke:#fc4f30;stroke-width:0.5;" x="214.219211" xlink:href="#m2411155b25" y="92.944312"/>
     <use style="fill:#fc4f30;stroke:#fc4f30;stroke-width:0.5;" x="132.455383" xlink:href="#m2411155b25" y="74.087001"/>
     <use style="fill:#fc4f30;stroke:#fc4f30;stroke-width:0.5;" x="134.33765" xlink:href="#m2411155b25" y="165.533652"/>
     <use style="fill:#fc4f30;stroke:#fc4f30;stroke-width:0.5;" x="147.880788" xlink:href="#m2411155b25" y="136.442999"/>
     <use style="fill:#fc4f30;stroke:#fc4f30;stroke-width:0.5;" x="342.993797" xlink:href="#m2411155b25" y="227.923909"/>
     <use style="fill:#fc4f30;stroke:#fc4f30;stroke-width:0.5;" x="112.668628" xlink:href="#m2411155b25" y="160.108666"/>
     <use style="fill:#fc4f30;stroke:#fc4f30;stroke-width:0.5;" x="135.118102" xlink:href="#m2411155b25" y="134.461454"/>
     <use style="fill:#fc4f30;stroke:#fc4f30;stroke-width:0.5;" x="127.313581" xlink:href="#m2411155b25" y="120.751417"/>
     <use style="fill:#fc4f30;stroke:#fc4f30;stroke-width:0.5;" x="219.91192" xlink:href="#m2411155b25" y="134.854253"/>
     <use style="fill:#fc4f30;stroke:#fc4f30;stroke-width:0.5;" x="118.728609" xlink:href="#m2411155b25" y="155.110359"/>
     <use style="fill:#fc4f30;stroke:#fc4f30;stroke-width:0.5;" x="119.600879" xlink:href="#m2411155b25" y="121.684825"/>
     <use style="fill:#fc4f30;stroke:#fc4f30;stroke-width:0.5;" x="148.890785" xlink:href="#m2411155b25" y="62.150262"/>
     <use style="fill:#fc4f30;stroke:#fc4f30;stroke-width:0.5;" x="123.778593" xlink:href="#m2411155b25" y="198.995399"/>
     <use style="fill:#fc4f30;stroke:#fc4f30;stroke-width:0.5;" x="240.616854" xlink:href="#m2411155b25" y="143.620376"/>
     <use style="fill:#fc4f30;stroke:#fc4f30;stroke-width:0.5;" x="128.736759" xlink:href="#m2411155b25" y="140.819074"/>
     <use style="fill:#fc4f30;stroke:#fc4f30;stroke-width:0.5;" x="193.927458" xlink:href="#m2411155b25" y="186.5361"/>
     <use style="fill:#fc4f30;stroke:#fc4f30;stroke-width:0.5;" x="179.007052" xlink:href="#m2411155b25" y="166.494954"/>
     <use style="fill:#fc4f30;stroke:#fc4f30;stroke-width:0.5;" x="176.619786" xlink:href="#m2411155b25" y="147.717591"/>
     <use style="fill:#fc4f30;stroke:#fc4f30;stroke-width:0.5;" x="206.276964" xlink:href="#m2411155b25" y="227.796353"/>
    </g>
   </g>
   <g id="PolyCollection_1">
    <defs>
     <path d="M 71.157761 -138.398959 
L 71.157761 -105.253544 
L 82.93958 -105.821446 
L 94.721397 -106.06563 
L 106.503217 -106.016078 
L 118.285035 -105.963064 
L 130.066855 -105.61991 
L 141.848675 -104.943946 
L 153.630482 -104.462861 
L 165.412307 -103.430763 
L 177.194122 -102.832791 
L 188.975947 -101.607491 
L 200.757762 -100.439606 
L 212.539587 -98.835541 
L 224.321402 -97.40455 
L 236.10321 -95.52299 
L 247.885017 -93.49215 
L 259.666858 -91.525517 
L 271.448665 -89.624565 
L 283.23049 -87.671895 
L 295.012297 -85.719136 
L 306.794138 -83.449585 
L 318.575929 -81.123579 
L 330.35777 -78.74668 
L 342.139577 -76.660904 
L 353.921418 -74.395553 
L 365.703209 -72.291859 
L 377.48505 -70.083097 
L 389.266874 -67.752042 
L 401.048664 -65.500743 
L 412.830489 -63.449819 
L 412.830489 -138.056856 
L 412.830489 -138.056856 
L 401.048664 -137.534529 
L 389.266874 -136.654326 
L 377.48505 -135.952894 
L 365.703209 -135.174855 
L 353.921418 -134.172851 
L 342.139577 -133.284963 
L 330.35777 -132.702808 
L 318.575929 -132.256239 
L 306.794138 -131.54835 
L 295.012297 -130.9273 
L 283.23049 -130.06068 
L 271.448665 -129.822036 
L 259.666858 -129.118281 
L 247.885017 -128.67647 
L 236.10321 -128.729373 
L 224.321402 -128.916611 
L 212.539587 -128.018535 
L 200.757762 -128.424958 
L 188.975947 -128.972016 
L 177.194122 -128.947329 
L 165.412307 -129.355025 
L 153.630482 -130.196623 
L 141.848675 -131.042198 
L 130.066855 -131.767289 
L 118.285035 -132.670592 
L 106.503217 -133.76654 
L 94.721397 -135.513854 
L 82.93958 -136.935172 
L 71.157761 -138.398959 
z
" id="m733b8bd493" style="stroke:#008fd5;stroke-opacity:0.3;stroke-width:0.5;"/>
    </defs>
    <g clip-path="url(#p485fb26177)">
     <use style="fill:#008fd5;fill-opacity:0.3;stroke:#008fd5;stroke-opacity:0.3;stroke-width:0.5;" x="0" xlink:href="#m733b8bd493" y="307.6705"/>
    </g>
   </g>
   <g id="PolyCollection_2">
    <defs>
     <path d="M 71.157761 -198.998173 
L 71.157761 -170.085368 
L 82.93958 -170.624182 
L 94.721397 -171.362141 
L 106.503217 -171.553646 
L 118.285035 -171.602125 
L 130.066855 -172.328155 
L 141.848675 -171.915208 
L 153.630482 -171.554271 
L 165.412307 -171.242663 
L 177.194122 -170.40913 
L 188.975947 -169.147816 
L 200.757762 -167.538791 
L 212.539587 -166.266307 
L 224.321402 -164.367032 
L 236.10321 -161.865807 
L 247.885017 -159.626014 
L 259.666858 -157.604579 
L 271.448665 -155.682114 
L 283.23049 -153.754219 
L 295.012297 -151.572423 
L 306.794138 -149.469846 
L 318.575929 -147.492758 
L 330.35777 -145.515669 
L 342.139577 -143.538581 
L 353.921418 -141.571948 
L 365.703209 -139.499308 
L 377.48505 -137.305536 
L 389.266874 -135.304878 
L 401.048664 -132.965647 
L 412.830489 -130.793479 
L 412.830489 -196.124439 
L 412.830489 -196.124439 
L 401.048664 -195.192651 
L 389.266874 -194.291247 
L 377.48505 -193.605923 
L 365.703209 -193.019076 
L 353.921418 -192.464087 
L 342.139577 -191.841049 
L 330.35777 -191.109792 
L 318.575929 -190.617536 
L 306.794138 -190.230594 
L 295.012297 -189.656884 
L 283.23049 -189.194431 
L 271.448665 -188.731888 
L 259.666858 -188.26939 
L 247.885017 -188.00492 
L 236.10321 -187.646128 
L 224.321402 -187.118618 
L 212.539587 -186.667916 
L 200.757762 -186.630071 
L 188.975947 -186.930867 
L 177.194122 -187.073713 
L 165.412307 -187.532994 
L 153.630482 -188.4054 
L 141.848675 -189.423647 
L 130.066855 -190.497521 
L 118.285035 -191.628142 
L 106.503217 -193.251554 
L 94.721397 -195.365747 
L 82.93958 -197.452775 
L 71.157761 -198.998173 
z
" id="m0e26d38fb6" style="stroke:#fc4f30;stroke-opacity:0.3;stroke-width:0.5;"/>
    </defs>
    <g clip-path="url(#p485fb26177)">
     <use style="fill:#fc4f30;fill-opacity:0.3;stroke:#fc4f30;stroke-opacity:0.3;stroke-width:0.5;" x="0" xlink:href="#m0e26d38fb6" y="307.6705"/>
    </g>
   </g>
   <g id="line2d_27">
    <path clip-path="url(#p485fb26177)" d="M 71.157761 186.070996 
L 82.93958 186.754488 
L 94.721397 187.437914 
L 106.503217 188.121339 
L 118.285035 188.804787 
L 130.066855 189.488235 
L 141.848675 190.171683 
L 153.630482 190.855153 
L 165.412307 191.538601 
L 177.194122 192.222049 
L 188.975947 192.905497 
L 200.757762 193.588923 
L 212.539587 194.272371 
L 224.321402 194.955863 
L 236.10321 195.639311 
L 247.885017 196.322737 
L 259.666858 197.006252 
L 271.448665 197.6897 
L 283.23049 198.373125 
L 295.012297 199.056618 
L 306.794138 199.739999 
L 318.575929 200.423559 
L 330.35777 201.107006 
L 342.139577 201.790454 
L 353.921418 202.473902 
L 365.703209 203.157283 
L 377.48505 203.840753 
L 389.266874 204.524134 
L 401.048664 205.207649 
L 412.830489 205.891053 
" style="fill:none;stroke:#008fd5;stroke-width:4;"/>
   </g>
   <g id="line2d_28">
    <path clip-path="url(#p485fb26177)" d="M 71.157761 122.781979 
L 82.93958 123.465427 
L 94.721397 124.14892 
L 106.503217 124.832323 
L 118.285035 125.515815 
L 130.066855 126.199263 
L 141.848675 126.882711 
L 153.630482 127.566204 
L 165.412307 128.249652 
L 177.194122 128.933055 
L 188.975947 129.616503 
L 200.757762 130.30004 
L 212.539587 130.983399 
L 224.321402 131.666802 
L 236.10321 132.350295 
L 247.885017 133.033787 
L 259.666858 133.71728 
L 271.448665 134.400683 
L 283.23049 135.084176 
L 295.012297 135.767579 
L 306.794138 136.451072 
L 318.575929 137.13452 
L 330.35777 137.817968 
L 342.139577 138.501415 
L 353.921418 139.184908 
L 365.703209 139.868267 
L 377.48505 140.551759 
L 389.266874 141.235252 
L 401.048664 141.918655 
L 412.830489 142.602148 
" style="fill:none;stroke:#fc4f30;stroke-width:4;"/>
   </g>
   <g id="patch_3">
    <path d="M 54.074125 261.4425 
L 54.074125 28.1625 
" style="fill:none;stroke:#f0f0f0;stroke-linecap:square;stroke-linejoin:miter;stroke-width:3;"/>
   </g>
   <g id="patch_4">
    <path d="M 429.914125 261.4425 
L 429.914125 28.1625 
" style="fill:none;stroke:#f0f0f0;stroke-linecap:square;stroke-linejoin:miter;stroke-width:3;"/>
   </g>
   <g id="patch_5">
    <path d="M 54.074125 261.4425 
L 429.914125 261.4425 
" style="fill:none;stroke:#f0f0f0;stroke-linecap:square;stroke-linejoin:miter;stroke-width:3;"/>
   </g>
   <g id="patch_6">
    <path d="M 54.074125 28.1625 
L 429.914125 28.1625 
" style="fill:none;stroke:#f0f0f0;stroke-linecap:square;stroke-linejoin:miter;stroke-width:3;"/>
   </g>
   <g id="text_16">
    <!-- Châu Phi -->
    <g transform="translate(327.412302 221.43666)scale(0.14 -0.14)">
     <defs>
      <path d="M 64.40625 67.28125 
L 64.40625 56.890625 
Q 59.421875 61.53125 53.78125 63.8125 
Q 48.140625 66.109375 41.796875 66.109375 
Q 29.296875 66.109375 22.65625 58.46875 
Q 16.015625 50.828125 16.015625 36.375 
Q 16.015625 21.96875 22.65625 14.328125 
Q 29.296875 6.6875 41.796875 6.6875 
Q 48.140625 6.6875 53.78125 8.984375 
Q 59.421875 11.28125 64.40625 15.921875 
L 64.40625 5.609375 
Q 59.234375 2.09375 53.4375 0.328125 
Q 47.65625 -1.421875 41.21875 -1.421875 
Q 24.65625 -1.421875 15.125 8.703125 
Q 5.609375 18.84375 5.609375 36.375 
Q 5.609375 53.953125 15.125 64.078125 
Q 24.65625 74.21875 41.21875 74.21875 
Q 47.75 74.21875 53.53125 72.484375 
Q 59.328125 70.75 64.40625 67.28125 
z
" id="DejaVuSans-67"/>
      <path d="M 34.28125 27.484375 
Q 23.390625 27.484375 19.1875 25 
Q 14.984375 22.515625 14.984375 16.5 
Q 14.984375 11.71875 18.140625 8.90625 
Q 21.296875 6.109375 26.703125 6.109375 
Q 34.1875 6.109375 38.703125 11.40625 
Q 43.21875 16.703125 43.21875 25.484375 
L 43.21875 27.484375 
z
M 52.203125 31.203125 
L 52.203125 0 
L 43.21875 0 
L 43.21875 8.296875 
Q 40.140625 3.328125 35.546875 0.953125 
Q 30.953125 -1.421875 24.3125 -1.421875 
Q 15.921875 -1.421875 10.953125 3.296875 
Q 6 8.015625 6 15.921875 
Q 6 25.140625 12.171875 29.828125 
Q 18.359375 34.515625 30.609375 34.515625 
L 43.21875 34.515625 
L 43.21875 35.40625 
Q 43.21875 41.609375 39.140625 45 
Q 35.0625 48.390625 27.6875 48.390625 
Q 23 48.390625 18.546875 47.265625 
Q 14.109375 46.140625 10.015625 43.890625 
L 10.015625 52.203125 
Q 14.9375 54.109375 19.578125 55.046875 
Q 24.21875 56 28.609375 56 
Q 40.484375 56 46.34375 49.84375 
Q 52.203125 43.703125 52.203125 31.203125 
z
M 25.390625 79.984375 
L 32.625 79.984375 
L 44.578125 61.625 
L 37.796875 61.625 
L 29 73.578125 
L 20.21875 61.625 
L 13.421875 61.625 
z
" id="DejaVuSans-226"/>
     </defs>
     <use xlink:href="#DejaVuSans-67"/>
     <use x="69.824219" xlink:href="#DejaVuSans-104"/>
     <use x="133.203125" xlink:href="#DejaVuSans-226"/>
     <use x="194.482422" xlink:href="#DejaVuSans-117"/>
     <use x="257.861328" xlink:href="#DejaVuSans-32"/>
     <use x="289.648438" xlink:href="#DejaVuSans-80"/>
     <use x="349.951172" xlink:href="#DejaVuSans-104"/>
     <use x="413.330078" xlink:href="#DejaVuSans-105"/>
    </g>
   </g>
   <g id="text_17">
    <!-- không Châu Phi -->
    <g transform="translate(327.412302 153.969883)scale(0.14 -0.14)">
     <defs>
      <path d="M 9.078125 75.984375 
L 18.109375 75.984375 
L 18.109375 31.109375 
L 44.921875 54.6875 
L 56.390625 54.6875 
L 27.390625 29.109375 
L 57.625 0 
L 45.90625 0 
L 18.109375 26.703125 
L 18.109375 0 
L 9.078125 0 
z
" id="DejaVuSans-107"/>
      <path d="M 30.609375 48.390625 
Q 23.390625 48.390625 19.1875 42.75 
Q 14.984375 37.109375 14.984375 27.296875 
Q 14.984375 17.484375 19.15625 11.84375 
Q 23.34375 6.203125 30.609375 6.203125 
Q 37.796875 6.203125 41.984375 11.859375 
Q 46.1875 17.53125 46.1875 27.296875 
Q 46.1875 37.015625 41.984375 42.703125 
Q 37.796875 48.390625 30.609375 48.390625 
z
M 30.609375 56 
Q 42.328125 56 49.015625 48.375 
Q 55.71875 40.765625 55.71875 27.296875 
Q 55.71875 13.875 49.015625 6.21875 
Q 42.328125 -1.421875 30.609375 -1.421875 
Q 18.84375 -1.421875 12.171875 6.21875 
Q 5.515625 13.875 5.515625 27.296875 
Q 5.515625 40.765625 12.171875 48.375 
Q 18.84375 56 30.609375 56 
z
M 27 79.984375 
L 34.234375 79.984375 
L 46.1875 61.625 
L 39.40625 61.625 
L 30.609375 73.578125 
L 21.828125 61.625 
L 15.046875 61.625 
z
" id="DejaVuSans-244"/>
     </defs>
     <use xlink:href="#DejaVuSans-107"/>
     <use x="57.910156" xlink:href="#DejaVuSans-104"/>
     <use x="121.289062" xlink:href="#DejaVuSans-244"/>
     <use x="182.470703" xlink:href="#DejaVuSans-110"/>
     <use x="245.849609" xlink:href="#DejaVuSans-103"/>
     <use x="309.326172" xlink:href="#DejaVuSans-32"/>
     <use x="341.113281" xlink:href="#DejaVuSans-67"/>
     <use x="410.9375" xlink:href="#DejaVuSans-104"/>
     <use x="474.316406" xlink:href="#DejaVuSans-226"/>
     <use x="535.595703" xlink:href="#DejaVuSans-117"/>
     <use x="598.974609" xlink:href="#DejaVuSans-32"/>
     <use x="630.761719" xlink:href="#DejaVuSans-80"/>
     <use x="691.064453" xlink:href="#DejaVuSans-104"/>
     <use x="754.443359" xlink:href="#DejaVuSans-105"/>
    </g>
   </g>
   <g id="text_18">
    <!-- m8_4 -->
    <g transform="translate(214.308775 22.1625)scale(0.2016 -0.2016)">
     <defs>
      <path d="M 52 44.1875 
Q 55.375 50.25 60.0625 53.125 
Q 64.75 56 71.09375 56 
Q 79.640625 56 84.28125 50.015625 
Q 88.921875 44.046875 88.921875 33.015625 
L 88.921875 0 
L 79.890625 0 
L 79.890625 32.71875 
Q 79.890625 40.578125 77.09375 44.375 
Q 74.3125 48.1875 68.609375 48.1875 
Q 61.625 48.1875 57.5625 43.546875 
Q 53.515625 38.921875 53.515625 30.90625 
L 53.515625 0 
L 44.484375 0 
L 44.484375 32.71875 
Q 44.484375 40.625 41.703125 44.40625 
Q 38.921875 48.1875 33.109375 48.1875 
Q 26.21875 48.1875 22.15625 43.53125 
Q 18.109375 38.875 18.109375 30.90625 
L 18.109375 0 
L 9.078125 0 
L 9.078125 54.6875 
L 18.109375 54.6875 
L 18.109375 46.1875 
Q 21.1875 51.21875 25.484375 53.609375 
Q 29.78125 56 35.6875 56 
Q 41.65625 56 45.828125 52.96875 
Q 50 49.953125 52 44.1875 
z
" id="DejaVuSans-109"/>
      <path d="M 50.984375 -16.609375 
L 50.984375 -23.578125 
L -0.984375 -23.578125 
L -0.984375 -16.609375 
z
" id="DejaVuSans-95"/>
     </defs>
     <use xlink:href="#DejaVuSans-109"/>
     <use x="97.412109" xlink:href="#DejaVuSans-56"/>
     <use x="161.035156" xlink:href="#DejaVuSans-95"/>
     <use x="211.035156" xlink:href="#DejaVuSans-52"/>
    </g>
   </g>
  </g>
 </g>
 <defs>
  <clipPath id="p485fb26177">
   <rect height="233.28" width="375.84" x="54.074125" y="28.1625"/>
  </clipPath>
 </defs>
</svg>
