<?xml version="1.0" encoding="utf-8" standalone="no"?>
<!DOCTYPE svg PUBLIC "-//W3C//DTD SVG 1.1//EN"
  "http://www.w3.org/Graphics/SVG/1.1/DTD/svg11.dtd">
<!-- Created with matplotlib (https://matplotlib.org/) -->
<svg height="296.39952pt" version="1.1" viewBox="0 0 440.39952 296.39952" width="440.39952pt" xmlns="http://www.w3.org/2000/svg" xmlns:xlink="http://www.w3.org/1999/xlink">
 <defs>
  <style type="text/css">
*{stroke-linecap:butt;stroke-linejoin:round;}
  </style>
 </defs>
 <g id="figure_1">
  <g id="patch_1">
   <path d="M 0 296.39952 
L 440.39952 296.39952 
L 440.39952 0 
L 0 0 
z
" style="fill:#f0f0f0;"/>
  </g>
  <g id="axes_1">
   <g id="patch_2">
    <path d="M 7.2 272.150145 
L 433.19952 272.150145 
L 433.19952 25.3575 
L 7.2 25.3575 
z
" style="fill:#f0f0f0;"/>
   </g>
   <g id="matplotlib.axis_1">
    <g id="xtick_1">
     <g id="line2d_1">
      <path clip-path="url(#p16aa340a00)" d="M 26.563615 272.150145 
L 26.563615 25.3575 
" style="fill:none;stroke:#cbcbcb;"/>
     </g>
     <g id="line2d_2"/>
     <g id="text_1">
      <!-- 0.0 -->
      <defs>
       <path d="M 31.78125 66.40625 
Q 24.171875 66.40625 20.328125 58.90625 
Q 16.5 51.421875 16.5 36.375 
Q 16.5 21.390625 20.328125 13.890625 
Q 24.171875 6.390625 31.78125 6.390625 
Q 39.453125 6.390625 43.28125 13.890625 
Q 47.125 21.390625 47.125 36.375 
Q 47.125 51.421875 43.28125 58.90625 
Q 39.453125 66.40625 31.78125 66.40625 
z
M 31.78125 74.21875 
Q 44.046875 74.21875 50.515625 64.515625 
Q 56.984375 54.828125 56.984375 36.375 
Q 56.984375 17.96875 50.515625 8.265625 
Q 44.046875 -1.421875 31.78125 -1.421875 
Q 19.53125 -1.421875 13.0625 8.265625 
Q 6.59375 17.96875 6.59375 36.375 
Q 6.59375 54.828125 13.0625 64.515625 
Q 19.53125 74.21875 31.78125 74.21875 
z
" id="DejaVuSans-48"/>
       <path d="M 10.6875 12.40625 
L 21 12.40625 
L 21 0 
L 10.6875 0 
z
" id="DejaVuSans-46"/>
      </defs>
      <g transform="translate(15.431427 286.287957)scale(0.14 -0.14)">
       <use xlink:href="#DejaVuSans-48"/>
       <use x="63.623047" xlink:href="#DejaVuSans-46"/>
       <use x="95.410156" xlink:href="#DejaVuSans-48"/>
      </g>
     </g>
    </g>
    <g id="xtick_2">
     <g id="line2d_3">
      <path clip-path="url(#p16aa340a00)" d="M 104.018073 272.150145 
L 104.018073 25.3575 
" style="fill:none;stroke:#cbcbcb;"/>
     </g>
     <g id="line2d_4"/>
     <g id="text_2">
      <!-- 0.2 -->
      <defs>
       <path d="M 19.1875 8.296875 
L 53.609375 8.296875 
L 53.609375 0 
L 7.328125 0 
L 7.328125 8.296875 
Q 12.9375 14.109375 22.625 23.890625 
Q 32.328125 33.6875 34.8125 36.53125 
Q 39.546875 41.84375 41.421875 45.53125 
Q 43.3125 49.21875 43.3125 52.78125 
Q 43.3125 58.59375 39.234375 62.25 
Q 35.15625 65.921875 28.609375 65.921875 
Q 23.96875 65.921875 18.8125 64.3125 
Q 13.671875 62.703125 7.8125 59.421875 
L 7.8125 69.390625 
Q 13.765625 71.78125 18.9375 73 
Q 24.125 74.21875 28.421875 74.21875 
Q 39.75 74.21875 46.484375 68.546875 
Q 53.21875 62.890625 53.21875 53.421875 
Q 53.21875 48.921875 51.53125 44.890625 
Q 49.859375 40.875 45.40625 35.40625 
Q 44.1875 33.984375 37.640625 27.21875 
Q 31.109375 20.453125 19.1875 8.296875 
z
" id="DejaVuSans-50"/>
      </defs>
      <g transform="translate(92.885885 286.287957)scale(0.14 -0.14)">
       <use xlink:href="#DejaVuSans-48"/>
       <use x="63.623047" xlink:href="#DejaVuSans-46"/>
       <use x="95.410156" xlink:href="#DejaVuSans-50"/>
      </g>
     </g>
    </g>
    <g id="xtick_3">
     <g id="line2d_5">
      <path clip-path="url(#p16aa340a00)" d="M 181.472531 272.150145 
L 181.472531 25.3575 
" style="fill:none;stroke:#cbcbcb;"/>
     </g>
     <g id="line2d_6"/>
     <g id="text_3">
      <!-- 0.4 -->
      <defs>
       <path d="M 37.796875 64.3125 
L 12.890625 25.390625 
L 37.796875 25.390625 
z
M 35.203125 72.90625 
L 47.609375 72.90625 
L 47.609375 25.390625 
L 58.015625 25.390625 
L 58.015625 17.1875 
L 47.609375 17.1875 
L 47.609375 0 
L 37.796875 0 
L 37.796875 17.1875 
L 4.890625 17.1875 
L 4.890625 26.703125 
z
" id="DejaVuSans-52"/>
      </defs>
      <g transform="translate(170.340343 286.287957)scale(0.14 -0.14)">
       <use xlink:href="#DejaVuSans-48"/>
       <use x="63.623047" xlink:href="#DejaVuSans-46"/>
       <use x="95.410156" xlink:href="#DejaVuSans-52"/>
      </g>
     </g>
    </g>
    <g id="xtick_4">
     <g id="line2d_7">
      <path clip-path="url(#p16aa340a00)" d="M 258.926989 272.150145 
L 258.926989 25.3575 
" style="fill:none;stroke:#cbcbcb;"/>
     </g>
     <g id="line2d_8"/>
     <g id="text_4">
      <!-- 0.6 -->
      <defs>
       <path d="M 33.015625 40.375 
Q 26.375 40.375 22.484375 35.828125 
Q 18.609375 31.296875 18.609375 23.390625 
Q 18.609375 15.53125 22.484375 10.953125 
Q 26.375 6.390625 33.015625 6.390625 
Q 39.65625 6.390625 43.53125 10.953125 
Q 47.40625 15.53125 47.40625 23.390625 
Q 47.40625 31.296875 43.53125 35.828125 
Q 39.65625 40.375 33.015625 40.375 
z
M 52.59375 71.296875 
L 52.59375 62.3125 
Q 48.875 64.0625 45.09375 64.984375 
Q 41.3125 65.921875 37.59375 65.921875 
Q 27.828125 65.921875 22.671875 59.328125 
Q 17.53125 52.734375 16.796875 39.40625 
Q 19.671875 43.65625 24.015625 45.921875 
Q 28.375 48.1875 33.59375 48.1875 
Q 44.578125 48.1875 50.953125 41.515625 
Q 57.328125 34.859375 57.328125 23.390625 
Q 57.328125 12.15625 50.6875 5.359375 
Q 44.046875 -1.421875 33.015625 -1.421875 
Q 20.359375 -1.421875 13.671875 8.265625 
Q 6.984375 17.96875 6.984375 36.375 
Q 6.984375 53.65625 15.1875 63.9375 
Q 23.390625 74.21875 37.203125 74.21875 
Q 40.921875 74.21875 44.703125 73.484375 
Q 48.484375 72.75 52.59375 71.296875 
z
" id="DejaVuSans-54"/>
      </defs>
      <g transform="translate(247.794802 286.287957)scale(0.14 -0.14)">
       <use xlink:href="#DejaVuSans-48"/>
       <use x="63.623047" xlink:href="#DejaVuSans-46"/>
       <use x="95.410156" xlink:href="#DejaVuSans-54"/>
      </g>
     </g>
    </g>
    <g id="xtick_5">
     <g id="line2d_9">
      <path clip-path="url(#p16aa340a00)" d="M 336.381447 272.150145 
L 336.381447 25.3575 
" style="fill:none;stroke:#cbcbcb;"/>
     </g>
     <g id="line2d_10"/>
     <g id="text_5">
      <!-- 0.8 -->
      <defs>
       <path d="M 31.78125 34.625 
Q 24.75 34.625 20.71875 30.859375 
Q 16.703125 27.09375 16.703125 20.515625 
Q 16.703125 13.921875 20.71875 10.15625 
Q 24.75 6.390625 31.78125 6.390625 
Q 38.8125 6.390625 42.859375 10.171875 
Q 46.921875 13.96875 46.921875 20.515625 
Q 46.921875 27.09375 42.890625 30.859375 
Q 38.875 34.625 31.78125 34.625 
z
M 21.921875 38.8125 
Q 15.578125 40.375 12.03125 44.71875 
Q 8.5 49.078125 8.5 55.328125 
Q 8.5 64.0625 14.71875 69.140625 
Q 20.953125 74.21875 31.78125 74.21875 
Q 42.671875 74.21875 48.875 69.140625 
Q 55.078125 64.0625 55.078125 55.328125 
Q 55.078125 49.078125 51.53125 44.71875 
Q 48 40.375 41.703125 38.8125 
Q 48.828125 37.15625 52.796875 32.3125 
Q 56.78125 27.484375 56.78125 20.515625 
Q 56.78125 9.90625 50.3125 4.234375 
Q 43.84375 -1.421875 31.78125 -1.421875 
Q 19.734375 -1.421875 13.25 4.234375 
Q 6.78125 9.90625 6.78125 20.515625 
Q 6.78125 27.484375 10.78125 32.3125 
Q 14.796875 37.15625 21.921875 38.8125 
z
M 18.3125 54.390625 
Q 18.3125 48.734375 21.84375 45.5625 
Q 25.390625 42.390625 31.78125 42.390625 
Q 38.140625 42.390625 41.71875 45.5625 
Q 45.3125 48.734375 45.3125 54.390625 
Q 45.3125 60.0625 41.71875 63.234375 
Q 38.140625 66.40625 31.78125 66.40625 
Q 25.390625 66.40625 21.84375 63.234375 
Q 18.3125 60.0625 18.3125 54.390625 
z
" id="DejaVuSans-56"/>
      </defs>
      <g transform="translate(325.24926 286.287957)scale(0.14 -0.14)">
       <use xlink:href="#DejaVuSans-48"/>
       <use x="63.623047" xlink:href="#DejaVuSans-46"/>
       <use x="95.410156" xlink:href="#DejaVuSans-56"/>
      </g>
     </g>
    </g>
    <g id="xtick_6">
     <g id="line2d_11">
      <path clip-path="url(#p16aa340a00)" d="M 413.835905 272.150145 
L 413.835905 25.3575 
" style="fill:none;stroke:#cbcbcb;"/>
     </g>
     <g id="line2d_12"/>
     <g id="text_6">
      <!-- 1.0 -->
      <defs>
       <path d="M 12.40625 8.296875 
L 28.515625 8.296875 
L 28.515625 63.921875 
L 10.984375 60.40625 
L 10.984375 69.390625 
L 28.421875 72.90625 
L 38.28125 72.90625 
L 38.28125 8.296875 
L 54.390625 8.296875 
L 54.390625 0 
L 12.40625 0 
z
" id="DejaVuSans-49"/>
      </defs>
      <g transform="translate(402.703718 286.287957)scale(0.14 -0.14)">
       <use xlink:href="#DejaVuSans-49"/>
       <use x="63.623047" xlink:href="#DejaVuSans-46"/>
       <use x="95.410156" xlink:href="#DejaVuSans-48"/>
      </g>
     </g>
    </g>
   </g>
   <g id="matplotlib.axis_2"/>
   <g id="line2d_13">
    <path clip-path="url(#p16aa340a00)" d="M 118.874329 257.087912 
L 122.680727 256.976117 
L 126.487125 256.660364 
L 130.837294 255.995215 
L 135.731234 254.839543 
L 139.537632 253.704453 
L 143.34403 252.311202 
L 148.781742 250.055747 
L 152.58814 248.260388 
L 156.938309 245.968451 
L 161.832249 243.089573 
L 168.357502 238.885239 
L 180.864239 230.113948 
L 184.670637 227.096917 
L 187.933263 224.133645 
L 191.19589 220.724558 
L 193.370975 218.122084 
L 195.546059 215.247875 
L 197.721144 212.104913 
L 199.896228 208.63618 
L 203.158855 203.077395 
L 206.965253 196.032154 
L 222.190845 166.649978 
L 225.997243 158.701134 
L 229.803641 150.177266 
L 233.610039 141.164701 
L 240.679063 123.442918 
L 247.204317 107.149136 
L 250.466944 99.577735 
L 253.729571 92.569922 
L 255.904655 88.293731 
L 257.535969 85.390183 
L 259.711053 81.831432 
L 261.886138 78.676371 
L 264.061222 75.927458 
L 267.323849 72.208013 
L 270.042705 69.294254 
L 277.655501 60.849143 
L 279.830585 58.082363 
L 284.180754 52.413935 
L 288.530923 46.845231 
L 291.79355 43.09593 
L 293.424864 41.497267 
L 295.599948 39.596314 
L 297.231262 38.487526 
L 298.862575 37.566762 
L 300.493888 36.967487 
L 302.125202 36.611099 
L 303.756515 36.612076 
L 304.844057 36.830496 
L 306.475371 37.420515 
L 307.562913 38.040793 
L 308.650455 38.859241 
L 310.281769 40.410214 
L 311.913082 42.373841 
L 313.544396 44.794204 
L 315.71948 48.65947 
L 317.894565 53.258138 
L 320.61342 60.002145 
L 323.332276 67.539863 
L 326.051132 75.587027 
L 330.401301 89.175513 
L 333.663928 99.1527 
L 336.382783 106.872756 
L 338.557868 112.533196 
L 340.189181 116.338604 
L 342.364266 120.95584 
L 344.53935 124.979544 
L 346.170664 127.736804 
L 348.889519 131.902044 
L 356.502315 142.782985 
L 359.221171 147.577051 
L 361.396256 151.79278 
L 363.57134 156.535123 
L 366.290196 163.072732 
L 369.552823 171.602745 
L 378.796932 196.431195 
L 381.515788 203.099587 
L 383.690872 207.898599 
L 385.322185 211.25917 
L 387.49727 215.106497 
L 389.128583 217.577188 
L 390.759897 219.710216 
L 392.39121 221.376125 
L 394.022524 222.612629 
L 395.110066 223.085273 
L 396.197608 223.415519 
L 396.741379 223.493964 
L 396.741379 223.493964 
" style="fill:none;stroke:#008fd5;stroke-width:4;"/>
   </g>
   <g id="line2d_14">
    <path clip-path="url(#p16aa340a00)" d="M 118.874329 260.596358 
L 118.874329 257.087912 
" style="fill:none;stroke:#008fd5;stroke-width:4;"/>
   </g>
   <g id="line2d_15">
    <path clip-path="url(#p16aa340a00)" d="M 396.741379 260.932297 
L 396.741379 223.493964 
" style="fill:none;stroke:#008fd5;stroke-width:4;"/>
   </g>
   <g id="line2d_16">
    <defs>
     <path d="M 0 3 
C 0.795609 3 1.55874 2.683901 2.12132 2.12132 
C 2.683901 1.55874 3 0.795609 3 0 
C 3 -0.795609 2.683901 -1.55874 2.12132 -2.12132 
C 1.55874 -2.683901 0.795609 -3 0 -3 
C -0.795609 -3 -1.55874 -2.683901 -2.12132 -2.12132 
C -2.683901 -1.55874 -3 -0.795609 -3 0 
C -3 0.795609 -2.683901 1.55874 -2.12132 2.12132 
C -1.55874 2.683901 -0.795609 3 0 3 
z
" id="m424f44d3e0" style="stroke:#000000;"/>
    </defs>
    <g clip-path="url(#p16aa340a00)">
     <use style="fill:#008fd5;stroke:#000000;" x="288.636182" xlink:href="#m424f44d3e0" y="260.561621"/>
    </g>
   </g>
   <g id="line2d_17">
    <path clip-path="url(#p16aa340a00)" d="M 26.563615 260.561621 
L 30.436337 260.561621 
L 34.30906 260.561617 
L 38.181783 260.561578 
L 42.054506 260.561389 
L 45.927229 260.560765 
L 49.799951 260.559146 
L 53.672675 260.555576 
L 57.545397 260.548582 
L 61.418122 260.536039 
L 65.290844 260.515054 
L 69.163566 260.481843 
L 73.036288 260.431637 
L 76.909011 260.358585 
L 80.781736 260.255693 
L 84.65446 260.114774 
L 88.52718 259.926418 
L 92.399905 259.679998 
L 96.27263 259.363692 
L 100.145349 258.964523 
L 104.018074 258.468451 
L 107.890793 257.860449 
L 111.763518 257.12466 
L 115.636243 256.244502 
L 119.508962 255.20288 
L 123.381687 253.982341 
L 127.254406 252.565309 
L 131.127137 250.934286 
L 134.999856 249.07214 
L 138.872576 246.962278 
L 142.745306 244.588988 
L 146.618026 241.937644 
L 150.490745 238.995038 
L 154.363476 235.74956 
L 158.236195 232.191572 
L 162.108914 228.313598 
L 165.981645 224.110612 
L 169.854364 219.580235 
L 173.727083 214.722998 
L 177.599802 209.542653 
L 181.472533 204.045991 
L 185.345252 198.243536 
L 189.217972 192.149267 
L 193.090702 185.780848 
L 196.963422 179.159632 
L 200.836141 172.311008 
L 204.708872 165.263815 
L 208.581591 158.050872 
L 212.45431 150.708602 
L 216.327041 143.276785 
L 220.19976 135.798916 
L 224.072479 128.32121 
L 227.945198 120.893109 
L 231.817918 113.566305 
L 235.69066 106.394791 
L 239.563379 99.434553 
L 243.436098 92.742687 
L 247.308818 86.377264 
L 251.181537 80.396575 
L 255.054256 74.858874 
L 258.926998 69.821363 
L 262.799718 65.340175 
L 266.672437 61.468686 
L 270.545156 58.258208 
L 274.417875 55.755969 
L 278.290594 54.005122 
L 282.163337 53.043959 
L 286.036056 52.905186 
L 289.908775 53.615112 
L 293.781494 55.192884 
L 297.654214 57.65014 
L 301.526933 60.990036 
L 305.399675 65.207005 
L 309.272394 70.285926 
L 313.145114 76.202342 
L 317.017833 82.920951 
L 320.890552 90.396663 
L 324.763271 98.573671 
L 328.63599 107.385707 
L 332.508733 116.756224 
L 336.381452 126.598719 
L 340.254171 136.817155 
L 344.12689 147.307171 
L 347.99961 157.956248 
L 351.872329 168.645729 
L 355.745071 179.251999 
L 359.61779 189.648025 
L 363.490509 199.706054 
L 367.363229 209.299747 
L 371.235948 218.307137 
L 375.108667 226.613949 
L 378.981409 234.117435 
L 382.854129 240.730317 
L 386.726848 246.385853 
L 390.599567 251.042963 
L 394.472286 254.692047 
L 398.345006 257.361527 
L 402.217748 259.124982 
L 406.090467 260.108932 
L 409.963186 260.501481 
L 413.835905 260.561621 
" style="fill:none;stroke:#008fd5;stroke-dasharray:14.8,6.4;stroke-dashoffset:0;stroke-width:4;"/>
   </g>
   <g id="patch_3">
    <path d="M 7.2 272.150145 
L 433.19952 272.150145 
" style="fill:none;stroke:#f0f0f0;stroke-linecap:square;stroke-linejoin:miter;stroke-width:3;"/>
   </g>
   <g id="text_7">
    <!-- p -->
    <defs>
     <path d="M 18.109375 8.203125 
L 18.109375 -20.796875 
L 9.078125 -20.796875 
L 9.078125 54.6875 
L 18.109375 54.6875 
L 18.109375 46.390625 
Q 20.953125 51.265625 25.265625 53.625 
Q 29.59375 56 35.59375 56 
Q 45.5625 56 51.78125 48.09375 
Q 58.015625 40.1875 58.015625 27.296875 
Q 58.015625 14.40625 51.78125 6.484375 
Q 45.5625 -1.421875 35.59375 -1.421875 
Q 29.59375 -1.421875 25.265625 0.953125 
Q 20.953125 3.328125 18.109375 8.203125 
z
M 48.6875 27.296875 
Q 48.6875 37.203125 44.609375 42.84375 
Q 40.53125 48.484375 33.40625 48.484375 
Q 26.265625 48.484375 22.1875 42.84375 
Q 18.109375 37.203125 18.109375 27.296875 
Q 18.109375 17.390625 22.1875 11.75 
Q 26.265625 6.109375 33.40625 6.109375 
Q 40.53125 6.109375 44.609375 11.75 
Q 48.6875 17.390625 48.6875 27.296875 
z
" id="DejaVuSans-112"/>
    </defs>
    <g transform="translate(215.12101 19.3575)scale(0.16 -0.16)">
     <use xlink:href="#DejaVuSans-112"/>
    </g>
   </g>
  </g>
 </g>
 <defs>
  <clipPath id="p16aa340a00">
   <rect height="246.792645" width="425.99952" x="7.2" y="25.3575"/>
  </clipPath>
 </defs>
</svg>
