<?xml version="1.0" encoding="utf-8" standalone="no"?>
<!DOCTYPE svg PUBLIC "-//W3C//DTD SVG 1.1//EN"
  "http://www.w3.org/Graphics/SVG/1.1/DTD/svg11.dtd">
<!-- Created with matplotlib (https://matplotlib.org/) -->
<svg height="343.05449pt" version="1.1" viewBox="0 0 702.289812 343.05449" width="702.289812pt" xmlns="http://www.w3.org/2000/svg" xmlns:xlink="http://www.w3.org/1999/xlink">
 <metadata>
  <rdf:RDF xmlns:cc="http://creativecommons.org/ns#" xmlns:dc="http://purl.org/dc/elements/1.1/" xmlns:rdf="http://www.w3.org/1999/02/22-rdf-syntax-ns#">
   <cc:Work>
    <dc:type rdf:resource="http://purl.org/dc/dcmitype/StillImage"/>
    <dc:date>2021-02-15T10:27:37.644266</dc:date>
    <dc:format>image/svg+xml</dc:format>
    <dc:creator>
     <cc:Agent>
      <dc:title>Matplotlib v3.3.3, https://matplotlib.org/</dc:title>
     </cc:Agent>
    </dc:creator>
   </cc:Work>
  </rdf:RDF>
 </metadata>
 <defs>
  <style type="text/css">*{stroke-linecap:butt;stroke-linejoin:round;}</style>
 </defs>
 <g id="figure_1">
  <g id="patch_1">
   <path d="M 0 343.05449 
L 702.289812 343.05449 
L 702.289812 0 
L 0 0 
z
" style="fill:#f0f0f0;"/>
  </g>
  <g id="axes_1">
   <g id="patch_2">
    <path d="M 53.532938 297.243865 
L 366.751375 297.243865 
L 366.751375 51.09324 
L 53.532938 51.09324 
z
" style="fill:#f0f0f0;"/>
   </g>
   <g id="matplotlib.axis_1">
    <g id="xtick_1">
     <g id="line2d_1">
      <path clip-path="url(#p831d46894c)" d="M 67.770139 297.243865 
L 67.770139 51.09324 
" style="fill:none;stroke:#cbcbcb;"/>
     </g>
     <g id="line2d_2"/>
     <g id="text_1">
      <!-- −2 -->
      <g transform="translate(57.450608 311.381677)scale(0.14 -0.14)">
       <defs>
        <path d="M 10.59375 35.5 
L 73.1875 35.5 
L 73.1875 27.203125 
L 10.59375 27.203125 
z
" id="DejaVuSans-8722"/>
        <path d="M 19.1875 8.296875 
L 53.609375 8.296875 
L 53.609375 0 
L 7.328125 0 
L 7.328125 8.296875 
Q 12.9375 14.109375 22.625 23.890625 
Q 32.328125 33.6875 34.8125 36.53125 
Q 39.546875 41.84375 41.421875 45.53125 
Q 43.3125 49.21875 43.3125 52.78125 
Q 43.3125 58.59375 39.234375 62.25 
Q 35.15625 65.921875 28.609375 65.921875 
Q 23.96875 65.921875 18.8125 64.3125 
Q 13.671875 62.703125 7.8125 59.421875 
L 7.8125 69.390625 
Q 13.765625 71.78125 18.9375 73 
Q 24.125 74.21875 28.421875 74.21875 
Q 39.75 74.21875 46.484375 68.546875 
Q 53.21875 62.890625 53.21875 53.421875 
Q 53.21875 48.921875 51.53125 44.890625 
Q 49.859375 40.875 45.40625 35.40625 
Q 44.1875 33.984375 37.640625 27.21875 
Q 31.109375 20.453125 19.1875 8.296875 
z
" id="DejaVuSans-50"/>
       </defs>
       <use xlink:href="#DejaVuSans-8722"/>
       <use x="83.789062" xlink:href="#DejaVuSans-50"/>
      </g>
     </g>
    </g>
    <g id="xtick_2">
     <g id="line2d_3">
      <path clip-path="url(#p831d46894c)" d="M 138.956148 297.243865 
L 138.956148 51.09324 
" style="fill:none;stroke:#cbcbcb;"/>
     </g>
     <g id="line2d_4"/>
     <g id="text_2">
      <!-- −1 -->
      <g transform="translate(128.636616 311.381677)scale(0.14 -0.14)">
       <defs>
        <path d="M 12.40625 8.296875 
L 28.515625 8.296875 
L 28.515625 63.921875 
L 10.984375 60.40625 
L 10.984375 69.390625 
L 28.421875 72.90625 
L 38.28125 72.90625 
L 38.28125 8.296875 
L 54.390625 8.296875 
L 54.390625 0 
L 12.40625 0 
z
" id="DejaVuSans-49"/>
       </defs>
       <use xlink:href="#DejaVuSans-8722"/>
       <use x="83.789062" xlink:href="#DejaVuSans-49"/>
      </g>
     </g>
    </g>
    <g id="xtick_3">
     <g id="line2d_5">
      <path clip-path="url(#p831d46894c)" d="M 210.142156 297.243865 
L 210.142156 51.09324 
" style="fill:none;stroke:#cbcbcb;"/>
     </g>
     <g id="line2d_6"/>
     <g id="text_3">
      <!-- 0 -->
      <g transform="translate(205.688406 311.381677)scale(0.14 -0.14)">
       <defs>
        <path d="M 31.78125 66.40625 
Q 24.171875 66.40625 20.328125 58.90625 
Q 16.5 51.421875 16.5 36.375 
Q 16.5 21.390625 20.328125 13.890625 
Q 24.171875 6.390625 31.78125 6.390625 
Q 39.453125 6.390625 43.28125 13.890625 
Q 47.125 21.390625 47.125 36.375 
Q 47.125 51.421875 43.28125 58.90625 
Q 39.453125 66.40625 31.78125 66.40625 
z
M 31.78125 74.21875 
Q 44.046875 74.21875 50.515625 64.515625 
Q 56.984375 54.828125 56.984375 36.375 
Q 56.984375 17.96875 50.515625 8.265625 
Q 44.046875 -1.421875 31.78125 -1.421875 
Q 19.53125 -1.421875 13.0625 8.265625 
Q 6.59375 17.96875 6.59375 36.375 
Q 6.59375 54.828125 13.0625 64.515625 
Q 19.53125 74.21875 31.78125 74.21875 
z
" id="DejaVuSans-48"/>
       </defs>
       <use xlink:href="#DejaVuSans-48"/>
      </g>
     </g>
    </g>
    <g id="xtick_4">
     <g id="line2d_7">
      <path clip-path="url(#p831d46894c)" d="M 281.328165 297.243865 
L 281.328165 51.09324 
" style="fill:none;stroke:#cbcbcb;"/>
     </g>
     <g id="line2d_8"/>
     <g id="text_4">
      <!-- 1 -->
      <g transform="translate(276.874415 311.381677)scale(0.14 -0.14)">
       <use xlink:href="#DejaVuSans-49"/>
      </g>
     </g>
    </g>
    <g id="xtick_5">
     <g id="line2d_9">
      <path clip-path="url(#p831d46894c)" d="M 352.514173 297.243865 
L 352.514173 51.09324 
" style="fill:none;stroke:#cbcbcb;"/>
     </g>
     <g id="line2d_10"/>
     <g id="text_5">
      <!-- 2 -->
      <g transform="translate(348.060423 311.381677)scale(0.14 -0.14)">
       <use xlink:href="#DejaVuSans-50"/>
      </g>
     </g>
    </g>
    <g id="text_6">
     <!-- tỉ lệ vỏ não (chuẩn hoá) -->
     <g transform="translate(110.040406 332.360615)scale(0.168 -0.168)">
      <defs>
       <path d="M 18.3125 70.21875 
L 18.3125 54.6875 
L 36.8125 54.6875 
L 36.8125 47.703125 
L 18.3125 47.703125 
L 18.3125 18.015625 
Q 18.3125 11.328125 20.140625 9.421875 
Q 21.96875 7.515625 27.59375 7.515625 
L 36.8125 7.515625 
L 36.8125 0 
L 27.59375 0 
Q 17.1875 0 13.234375 3.875 
Q 9.28125 7.765625 9.28125 18.015625 
L 9.28125 47.703125 
L 2.6875 47.703125 
L 2.6875 54.6875 
L 9.28125 54.6875 
L 9.28125 70.21875 
z
" id="DejaVuSans-116"/>
       <path d="M 9.421875 54.6875 
L 18.40625 54.6875 
L 18.40625 0 
L 9.421875 0 
z
M 13.921875 56 
z
M 3.328125 78.5625 
Q 8.796875 81.046875 13.921875 81.046875 
Q 19 81.046875 22.09375 78.96875 
Q 25.203125 76.90625 25.203125 73.625 
Q 25.203125 70.65625 20.90625 67.484375 
L 18.75 65.921875 
Q 17.046875 64.640625 16.84375 64.203125 
Q 16.5 63.421875 16.5 61.859375 
L 10.6875 61.859375 
L 10.6875 62.453125 
Q 10.6875 64.40625 11.421875 65.71875 
Q 12.15625 67.046875 14.65625 68.84375 
L 16.84375 70.5 
Q 19.09375 72.171875 19.09375 74.125 
Q 19.09375 75.140625 17.578125 76.015625 
Q 16.0625 76.90625 12.59375 76.90625 
Q 8.203125 76.90625 3.328125 74.359375 
z
" id="DejaVuSans-7881"/>
       <path id="DejaVuSans-32"/>
       <path d="M 9.421875 75.984375 
L 18.40625 75.984375 
L 18.40625 0 
L 9.421875 0 
z
" id="DejaVuSans-108"/>
       <path d="M 27.203125 -6.890625 
L 36.1875 -6.890625 
L 36.1875 -18.3125 
L 27.203125 -18.3125 
z
M 56.203125 29.59375 
L 56.203125 25.203125 
L 14.890625 25.203125 
Q 15.484375 15.921875 20.484375 11.0625 
Q 25.484375 6.203125 34.421875 6.203125 
Q 39.59375 6.203125 44.453125 7.46875 
Q 49.3125 8.734375 54.109375 11.28125 
L 54.109375 2.78125 
Q 49.265625 0.734375 44.1875 -0.34375 
Q 39.109375 -1.421875 33.890625 -1.421875 
Q 20.796875 -1.421875 13.15625 6.1875 
Q 5.515625 13.8125 5.515625 26.8125 
Q 5.515625 40.234375 12.765625 48.109375 
Q 20.015625 56 32.328125 56 
Q 43.359375 56 49.78125 48.890625 
Q 56.203125 41.796875 56.203125 29.59375 
z
M 47.21875 32.234375 
Q 47.125 39.59375 43.09375 43.984375 
Q 39.0625 48.390625 32.421875 48.390625 
Q 24.90625 48.390625 20.390625 44.140625 
Q 15.875 39.890625 15.1875 32.171875 
z
M 27.203125 -6.890625 
L 36.1875 -6.890625 
L 36.1875 -18.3125 
L 27.203125 -18.3125 
z
M 28.171875 79.984375 
L 35.40625 79.984375 
L 47.359375 61.625 
L 40.578125 61.625 
L 31.78125 73.578125 
L 23 61.625 
L 16.21875 61.625 
z
" id="DejaVuSans-7879"/>
       <path d="M 2.984375 54.6875 
L 12.5 54.6875 
L 29.59375 8.796875 
L 46.6875 54.6875 
L 56.203125 54.6875 
L 35.6875 0 
L 23.484375 0 
z
" id="DejaVuSans-118"/>
       <path d="M 30.609375 48.390625 
Q 23.390625 48.390625 19.1875 42.75 
Q 14.984375 37.109375 14.984375 27.296875 
Q 14.984375 17.484375 19.15625 11.84375 
Q 23.34375 6.203125 30.609375 6.203125 
Q 37.796875 6.203125 41.984375 11.859375 
Q 46.1875 17.53125 46.1875 27.296875 
Q 46.1875 37.015625 41.984375 42.703125 
Q 37.796875 48.390625 30.609375 48.390625 
z
M 30.609375 56 
Q 42.328125 56 49.015625 48.375 
Q 55.71875 40.765625 55.71875 27.296875 
Q 55.71875 13.875 49.015625 6.21875 
Q 42.328125 -1.421875 30.609375 -1.421875 
Q 18.84375 -1.421875 12.171875 6.21875 
Q 5.515625 13.875 5.515625 27.296875 
Q 5.515625 40.765625 12.171875 48.375 
Q 18.84375 56 30.609375 56 
z
M 21.296875 78.515625 
Q 26.765625 81 31.890625 81 
Q 36.96875 81 40.0625 78.921875 
Q 43.171875 76.859375 43.171875 73.578125 
Q 43.171875 70.609375 38.875 67.4375 
L 36.71875 65.875 
Q 35.015625 64.59375 34.8125 64.15625 
Q 34.46875 63.375 34.46875 61.8125 
L 28.65625 61.8125 
L 28.65625 62.40625 
Q 28.65625 64.359375 29.390625 65.671875 
Q 30.125 67 32.625 68.796875 
L 34.8125 70.453125 
Q 37.0625 72.125 37.0625 74.078125 
Q 37.0625 75.09375 35.546875 75.96875 
Q 34.03125 76.859375 30.5625 76.859375 
Q 26.171875 76.859375 21.296875 74.3125 
z
" id="DejaVuSans-7887"/>
       <path d="M 54.890625 33.015625 
L 54.890625 0 
L 45.90625 0 
L 45.90625 32.71875 
Q 45.90625 40.484375 42.875 44.328125 
Q 39.84375 48.1875 33.796875 48.1875 
Q 26.515625 48.1875 22.3125 43.546875 
Q 18.109375 38.921875 18.109375 30.90625 
L 18.109375 0 
L 9.078125 0 
L 9.078125 54.6875 
L 18.109375 54.6875 
L 18.109375 46.1875 
Q 21.34375 51.125 25.703125 53.5625 
Q 30.078125 56 35.796875 56 
Q 45.21875 56 50.046875 50.171875 
Q 54.890625 44.34375 54.890625 33.015625 
z
" id="DejaVuSans-110"/>
       <path d="M 34.28125 27.484375 
Q 23.390625 27.484375 19.1875 25 
Q 14.984375 22.515625 14.984375 16.5 
Q 14.984375 11.71875 18.140625 8.90625 
Q 21.296875 6.109375 26.703125 6.109375 
Q 34.1875 6.109375 38.703125 11.40625 
Q 43.21875 16.703125 43.21875 25.484375 
L 43.21875 27.484375 
z
M 52.203125 31.203125 
L 52.203125 0 
L 43.21875 0 
L 43.21875 8.296875 
Q 40.140625 3.328125 35.546875 0.953125 
Q 30.953125 -1.421875 24.3125 -1.421875 
Q 15.921875 -1.421875 10.953125 3.296875 
Q 6 8.015625 6 15.921875 
Q 6 25.140625 12.171875 29.828125 
Q 18.359375 34.515625 30.609375 34.515625 
L 43.21875 34.515625 
L 43.21875 35.40625 
Q 43.21875 41.609375 39.140625 45 
Q 35.0625 48.390625 27.6875 48.390625 
Q 23 48.390625 18.546875 47.265625 
Q 14.109375 46.140625 10.015625 43.890625 
L 10.015625 52.203125 
Q 14.9375 54.109375 19.578125 55.046875 
Q 24.21875 56 28.609375 56 
Q 40.484375 56 46.34375 49.84375 
Q 52.203125 43.703125 52.203125 31.203125 
z
M 28.8125 66.890625 
L 26.03125 69.578125 
Q 24.953125 70.5625 24.140625 71.015625 
Q 23.34375 71.484375 22.703125 71.484375 
Q 20.84375 71.484375 19.96875 69.703125 
Q 19.09375 67.921875 19 63.921875 
L 12.890625 63.921875 
Q 12.984375 70.515625 15.46875 74.09375 
Q 17.96875 77.6875 22.40625 77.6875 
Q 24.265625 77.6875 25.828125 77 
Q 27.390625 76.3125 29.203125 74.703125 
L 31.984375 72.015625 
Q 33.0625 71.046875 33.859375 70.578125 
Q 34.671875 70.125 35.296875 70.125 
Q 37.15625 70.125 38.03125 71.90625 
Q 38.921875 73.6875 39.015625 77.6875 
L 45.125 77.6875 
Q 45.015625 71.09375 42.53125 67.5 
Q 40.046875 63.921875 35.59375 63.921875 
Q 33.734375 63.921875 32.171875 64.59375 
Q 30.609375 65.28125 28.8125 66.890625 
z
" id="DejaVuSans-227"/>
       <path d="M 30.609375 48.390625 
Q 23.390625 48.390625 19.1875 42.75 
Q 14.984375 37.109375 14.984375 27.296875 
Q 14.984375 17.484375 19.15625 11.84375 
Q 23.34375 6.203125 30.609375 6.203125 
Q 37.796875 6.203125 41.984375 11.859375 
Q 46.1875 17.53125 46.1875 27.296875 
Q 46.1875 37.015625 41.984375 42.703125 
Q 37.796875 48.390625 30.609375 48.390625 
z
M 30.609375 56 
Q 42.328125 56 49.015625 48.375 
Q 55.71875 40.765625 55.71875 27.296875 
Q 55.71875 13.875 49.015625 6.21875 
Q 42.328125 -1.421875 30.609375 -1.421875 
Q 18.84375 -1.421875 12.171875 6.21875 
Q 5.515625 13.875 5.515625 27.296875 
Q 5.515625 40.765625 12.171875 48.375 
Q 18.84375 56 30.609375 56 
z
" id="DejaVuSans-111"/>
       <path d="M 31 75.875 
Q 24.46875 64.65625 21.28125 53.65625 
Q 18.109375 42.671875 18.109375 31.390625 
Q 18.109375 20.125 21.3125 9.0625 
Q 24.515625 -2 31 -13.1875 
L 23.1875 -13.1875 
Q 15.875 -1.703125 12.234375 9.375 
Q 8.59375 20.453125 8.59375 31.390625 
Q 8.59375 42.28125 12.203125 53.3125 
Q 15.828125 64.359375 23.1875 75.875 
z
" id="DejaVuSans-40"/>
       <path d="M 48.78125 52.59375 
L 48.78125 44.1875 
Q 44.96875 46.296875 41.140625 47.34375 
Q 37.3125 48.390625 33.40625 48.390625 
Q 24.65625 48.390625 19.8125 42.84375 
Q 14.984375 37.3125 14.984375 27.296875 
Q 14.984375 17.28125 19.8125 11.734375 
Q 24.65625 6.203125 33.40625 6.203125 
Q 37.3125 6.203125 41.140625 7.25 
Q 44.96875 8.296875 48.78125 10.40625 
L 48.78125 2.09375 
Q 45.015625 0.34375 40.984375 -0.53125 
Q 36.96875 -1.421875 32.421875 -1.421875 
Q 20.0625 -1.421875 12.78125 6.34375 
Q 5.515625 14.109375 5.515625 27.296875 
Q 5.515625 40.671875 12.859375 48.328125 
Q 20.21875 56 33.015625 56 
Q 37.15625 56 41.109375 55.140625 
Q 45.0625 54.296875 48.78125 52.59375 
z
" id="DejaVuSans-99"/>
       <path d="M 54.890625 33.015625 
L 54.890625 0 
L 45.90625 0 
L 45.90625 32.71875 
Q 45.90625 40.484375 42.875 44.328125 
Q 39.84375 48.1875 33.796875 48.1875 
Q 26.515625 48.1875 22.3125 43.546875 
Q 18.109375 38.921875 18.109375 30.90625 
L 18.109375 0 
L 9.078125 0 
L 9.078125 75.984375 
L 18.109375 75.984375 
L 18.109375 46.1875 
Q 21.34375 51.125 25.703125 53.5625 
Q 30.078125 56 35.796875 56 
Q 45.21875 56 50.046875 50.171875 
Q 54.890625 44.34375 54.890625 33.015625 
z
" id="DejaVuSans-104"/>
       <path d="M 8.5 21.578125 
L 8.5 54.6875 
L 17.484375 54.6875 
L 17.484375 21.921875 
Q 17.484375 14.15625 20.5 10.265625 
Q 23.53125 6.390625 29.59375 6.390625 
Q 36.859375 6.390625 41.078125 11.03125 
Q 45.3125 15.671875 45.3125 23.6875 
L 45.3125 54.6875 
L 54.296875 54.6875 
L 54.296875 0 
L 45.3125 0 
L 45.3125 8.40625 
Q 42.046875 3.421875 37.71875 1 
Q 33.40625 -1.421875 27.6875 -1.421875 
Q 18.265625 -1.421875 13.375 4.4375 
Q 8.5 10.296875 8.5 21.578125 
z
M 31.109375 56 
z
" id="DejaVuSans-117"/>
       <path d="M 35.796875 83.734375 
Q 41.265625 86.21875 46.390625 86.21875 
Q 51.46875 86.21875 54.5625 84.140625 
Q 57.671875 82.078125 57.671875 78.796875 
Q 57.671875 75.828125 53.375 72.65625 
L 51.21875 71.09375 
Q 49.515625 69.8125 49.3125 69.375 
Q 48.96875 68.59375 48.96875 67.03125 
L 43.171875 67.03125 
L 43.171875 67.625 
Q 43.171875 69.578125 43.890625 70.890625 
Q 44.625 72.21875 47.125 74.015625 
L 49.3125 75.671875 
Q 51.5625 77.34375 51.5625 79.296875 
Q 51.5625 80.3125 50.046875 81.1875 
Q 48.53125 82.078125 45.0625 82.078125 
Q 40.671875 82.078125 35.796875 79.53125 
z
M 24.421875 74.609375 
L 33.59375 74.609375 
L 43.890625 61.625 
L 37.109375 61.625 
L 29 70.3125 
L 20.90625 61.625 
L 14.109375 61.625 
z
M 34.28125 27.484375 
Q 23.390625 27.484375 19.1875 25 
Q 14.984375 22.515625 14.984375 16.5 
Q 14.984375 11.71875 18.140625 8.90625 
Q 21.296875 6.109375 26.703125 6.109375 
Q 34.1875 6.109375 38.703125 11.40625 
Q 43.21875 16.703125 43.21875 25.484375 
L 43.21875 27.484375 
z
M 52.203125 31.203125 
L 52.203125 0 
L 43.21875 0 
L 43.21875 8.296875 
Q 40.140625 3.328125 35.546875 0.953125 
Q 30.953125 -1.421875 24.3125 -1.421875 
Q 15.921875 -1.421875 10.953125 3.296875 
Q 6 8.015625 6 15.921875 
Q 6 25.140625 12.171875 29.828125 
Q 18.359375 34.515625 30.609375 34.515625 
L 43.21875 34.515625 
L 43.21875 35.40625 
Q 43.21875 41.609375 39.140625 45 
Q 35.0625 48.390625 27.6875 48.390625 
Q 23 48.390625 18.546875 47.265625 
Q 14.109375 46.140625 10.015625 43.890625 
L 10.015625 52.203125 
Q 14.9375 54.109375 19.578125 55.046875 
Q 24.21875 56 28.609375 56 
Q 40.484375 56 46.34375 49.84375 
Q 52.203125 43.703125 52.203125 31.203125 
z
" id="DejaVuSans-7849"/>
       <path d="M 34.28125 27.484375 
Q 23.390625 27.484375 19.1875 25 
Q 14.984375 22.515625 14.984375 16.5 
Q 14.984375 11.71875 18.140625 8.90625 
Q 21.296875 6.109375 26.703125 6.109375 
Q 34.1875 6.109375 38.703125 11.40625 
Q 43.21875 16.703125 43.21875 25.484375 
L 43.21875 27.484375 
z
M 52.203125 31.203125 
L 52.203125 0 
L 43.21875 0 
L 43.21875 8.296875 
Q 40.140625 3.328125 35.546875 0.953125 
Q 30.953125 -1.421875 24.3125 -1.421875 
Q 15.921875 -1.421875 10.953125 3.296875 
Q 6 8.015625 6 15.921875 
Q 6 25.140625 12.171875 29.828125 
Q 18.359375 34.515625 30.609375 34.515625 
L 43.21875 34.515625 
L 43.21875 35.40625 
Q 43.21875 41.609375 39.140625 45 
Q 35.0625 48.390625 27.6875 48.390625 
Q 23 48.390625 18.546875 47.265625 
Q 14.109375 46.140625 10.015625 43.890625 
L 10.015625 52.203125 
Q 14.9375 54.109375 19.578125 55.046875 
Q 24.21875 56 28.609375 56 
Q 40.484375 56 46.34375 49.84375 
Q 52.203125 43.703125 52.203125 31.203125 
z
M 35.796875 79.984375 
L 45.515625 79.984375 
L 29.59375 61.625 
L 22.125 61.625 
z
" id="DejaVuSans-225"/>
       <path d="M 8.015625 75.875 
L 15.828125 75.875 
Q 23.140625 64.359375 26.78125 53.3125 
Q 30.421875 42.28125 30.421875 31.390625 
Q 30.421875 20.453125 26.78125 9.375 
Q 23.140625 -1.703125 15.828125 -13.1875 
L 8.015625 -13.1875 
Q 14.5 -2 17.703125 9.0625 
Q 20.90625 20.125 20.90625 31.390625 
Q 20.90625 42.671875 17.703125 53.65625 
Q 14.5 64.65625 8.015625 75.875 
z
" id="DejaVuSans-41"/>
      </defs>
      <use xlink:href="#DejaVuSans-116"/>
      <use x="39.208984" xlink:href="#DejaVuSans-7881"/>
      <use x="66.992188" xlink:href="#DejaVuSans-32"/>
      <use x="98.779297" xlink:href="#DejaVuSans-108"/>
      <use x="126.5625" xlink:href="#DejaVuSans-7879"/>
      <use x="188.085938" xlink:href="#DejaVuSans-32"/>
      <use x="219.873047" xlink:href="#DejaVuSans-118"/>
      <use x="279.052734" xlink:href="#DejaVuSans-7887"/>
      <use x="340.234375" xlink:href="#DejaVuSans-32"/>
      <use x="372.021484" xlink:href="#DejaVuSans-110"/>
      <use x="435.400391" xlink:href="#DejaVuSans-227"/>
      <use x="496.679688" xlink:href="#DejaVuSans-111"/>
      <use x="557.861328" xlink:href="#DejaVuSans-32"/>
      <use x="589.648438" xlink:href="#DejaVuSans-40"/>
      <use x="628.662109" xlink:href="#DejaVuSans-99"/>
      <use x="683.642578" xlink:href="#DejaVuSans-104"/>
      <use x="747.021484" xlink:href="#DejaVuSans-117"/>
      <use x="810.400391" xlink:href="#DejaVuSans-7849"/>
      <use x="871.679688" xlink:href="#DejaVuSans-110"/>
      <use x="935.058594" xlink:href="#DejaVuSans-32"/>
      <use x="966.845703" xlink:href="#DejaVuSans-104"/>
      <use x="1030.224609" xlink:href="#DejaVuSans-111"/>
      <use x="1091.40625" xlink:href="#DejaVuSans-225"/>
      <use x="1152.685547" xlink:href="#DejaVuSans-41"/>
     </g>
    </g>
   </g>
   <g id="matplotlib.axis_2">
    <g id="ytick_1">
     <g id="line2d_11">
      <path clip-path="url(#p831d46894c)" d="M 53.532938 297.243865 
L 366.751375 297.243865 
" style="fill:none;stroke:#cbcbcb;"/>
     </g>
     <g id="line2d_12"/>
     <g id="text_7">
      <!-- −2 -->
      <g transform="translate(29.393875 302.562771)scale(0.14 -0.14)">
       <use xlink:href="#DejaVuSans-8722"/>
       <use x="83.789062" xlink:href="#DejaVuSans-50"/>
      </g>
     </g>
    </g>
    <g id="ytick_2">
     <g id="line2d_13">
      <path clip-path="url(#p831d46894c)" d="M 53.532938 235.706209 
L 366.751375 235.706209 
" style="fill:none;stroke:#cbcbcb;"/>
     </g>
     <g id="line2d_14"/>
     <g id="text_8">
      <!-- −1 -->
      <g transform="translate(29.393875 241.025115)scale(0.14 -0.14)">
       <use xlink:href="#DejaVuSans-8722"/>
       <use x="83.789062" xlink:href="#DejaVuSans-49"/>
      </g>
     </g>
    </g>
    <g id="ytick_3">
     <g id="line2d_15">
      <path clip-path="url(#p831d46894c)" d="M 53.532938 174.168552 
L 366.751375 174.168552 
" style="fill:none;stroke:#cbcbcb;"/>
     </g>
     <g id="line2d_16"/>
     <g id="text_9">
      <!-- 0 -->
      <g transform="translate(41.125438 179.487459)scale(0.14 -0.14)">
       <use xlink:href="#DejaVuSans-48"/>
      </g>
     </g>
    </g>
    <g id="ytick_4">
     <g id="line2d_17">
      <path clip-path="url(#p831d46894c)" d="M 53.532938 112.630896 
L 366.751375 112.630896 
" style="fill:none;stroke:#cbcbcb;"/>
     </g>
     <g id="line2d_18"/>
     <g id="text_10">
      <!-- 1 -->
      <g transform="translate(41.125438 117.949802)scale(0.14 -0.14)">
       <use xlink:href="#DejaVuSans-49"/>
      </g>
     </g>
    </g>
    <g id="ytick_5">
     <g id="line2d_19">
      <path clip-path="url(#p831d46894c)" d="M 53.532938 51.09324 
L 366.751375 51.09324 
" style="fill:none;stroke:#cbcbcb;"/>
     </g>
     <g id="line2d_20"/>
     <g id="text_11">
      <!-- 2 -->
      <g transform="translate(41.125438 56.412146)scale(0.14 -0.14)">
       <use xlink:href="#DejaVuSans-50"/>
      </g>
     </g>
    </g>
    <g id="text_12">
     <!-- kilocal mỗi g (chuẩn hoá) -->
     <g transform="translate(21.9 280.508615)rotate(-90)scale(0.168 -0.168)">
      <defs>
       <path d="M 9.078125 75.984375 
L 18.109375 75.984375 
L 18.109375 31.109375 
L 44.921875 54.6875 
L 56.390625 54.6875 
L 27.390625 29.109375 
L 57.625 0 
L 45.90625 0 
L 18.109375 26.703125 
L 18.109375 0 
L 9.078125 0 
z
" id="DejaVuSans-107"/>
       <path d="M 9.421875 54.6875 
L 18.40625 54.6875 
L 18.40625 0 
L 9.421875 0 
z
M 9.421875 75.984375 
L 18.40625 75.984375 
L 18.40625 64.59375 
L 9.421875 64.59375 
z
" id="DejaVuSans-105"/>
       <path d="M 34.28125 27.484375 
Q 23.390625 27.484375 19.1875 25 
Q 14.984375 22.515625 14.984375 16.5 
Q 14.984375 11.71875 18.140625 8.90625 
Q 21.296875 6.109375 26.703125 6.109375 
Q 34.1875 6.109375 38.703125 11.40625 
Q 43.21875 16.703125 43.21875 25.484375 
L 43.21875 27.484375 
z
M 52.203125 31.203125 
L 52.203125 0 
L 43.21875 0 
L 43.21875 8.296875 
Q 40.140625 3.328125 35.546875 0.953125 
Q 30.953125 -1.421875 24.3125 -1.421875 
Q 15.921875 -1.421875 10.953125 3.296875 
Q 6 8.015625 6 15.921875 
Q 6 25.140625 12.171875 29.828125 
Q 18.359375 34.515625 30.609375 34.515625 
L 43.21875 34.515625 
L 43.21875 35.40625 
Q 43.21875 41.609375 39.140625 45 
Q 35.0625 48.390625 27.6875 48.390625 
Q 23 48.390625 18.546875 47.265625 
Q 14.109375 46.140625 10.015625 43.890625 
L 10.015625 52.203125 
Q 14.9375 54.109375 19.578125 55.046875 
Q 24.21875 56 28.609375 56 
Q 40.484375 56 46.34375 49.84375 
Q 52.203125 43.703125 52.203125 31.203125 
z
" id="DejaVuSans-97"/>
       <path d="M 52 44.1875 
Q 55.375 50.25 60.0625 53.125 
Q 64.75 56 71.09375 56 
Q 79.640625 56 84.28125 50.015625 
Q 88.921875 44.046875 88.921875 33.015625 
L 88.921875 0 
L 79.890625 0 
L 79.890625 32.71875 
Q 79.890625 40.578125 77.09375 44.375 
Q 74.3125 48.1875 68.609375 48.1875 
Q 61.625 48.1875 57.5625 43.546875 
Q 53.515625 38.921875 53.515625 30.90625 
L 53.515625 0 
L 44.484375 0 
L 44.484375 32.71875 
Q 44.484375 40.625 41.703125 44.40625 
Q 38.921875 48.1875 33.109375 48.1875 
Q 26.21875 48.1875 22.15625 43.53125 
Q 18.109375 38.875 18.109375 30.90625 
L 18.109375 0 
L 9.078125 0 
L 9.078125 54.6875 
L 18.109375 54.6875 
L 18.109375 46.1875 
Q 21.1875 51.21875 25.484375 53.609375 
Q 29.78125 56 35.6875 56 
Q 41.65625 56 45.828125 52.96875 
Q 50 49.953125 52 44.1875 
z
" id="DejaVuSans-109"/>
       <path d="M 25.984375 74.609375 
L 35.15625 74.609375 
L 45.453125 61.625 
L 38.671875 61.625 
L 30.5625 70.3125 
L 22.46875 61.625 
L 15.671875 61.625 
z
M 30.5625 78.90625 
L 27.78125 80.515625 
Q 26.5625 81.203125 25.796875 81.46875 
Q 25.046875 81.734375 24.46875 81.734375 
Q 22.703125 81.734375 21.71875 80.515625 
Q 20.75 79.296875 20.75 77.109375 
L 20.75 76.8125 
L 14.65625 76.8125 
Q 14.65625 81.734375 17.15625 84.609375 
Q 19.671875 87.5 23.875 87.5 
Q 25.640625 87.5 27.125 87.109375 
Q 28.609375 86.71875 30.953125 85.40625 
L 33.734375 83.9375 
Q 34.859375 83.296875 35.6875 83 
Q 36.53125 82.71875 37.25 82.71875 
Q 38.8125 82.71875 39.78125 83.953125 
Q 40.765625 85.203125 40.765625 87.203125 
L 40.765625 87.5 
L 46.875 87.5 
Q 46.78125 82.625 44.265625 79.71875 
Q 41.75 76.8125 37.640625 76.8125 
Q 35.984375 76.8125 34.546875 77.203125 
Q 33.109375 77.59375 30.5625 78.90625 
z
M 30.609375 48.390625 
Q 23.390625 48.390625 19.1875 42.75 
Q 14.984375 37.109375 14.984375 27.296875 
Q 14.984375 17.484375 19.15625 11.84375 
Q 23.34375 6.203125 30.609375 6.203125 
Q 37.796875 6.203125 41.984375 11.859375 
Q 46.1875 17.53125 46.1875 27.296875 
Q 46.1875 37.015625 41.984375 42.703125 
Q 37.796875 48.390625 30.609375 48.390625 
z
M 30.609375 56 
Q 42.328125 56 49.015625 48.375 
Q 55.71875 40.765625 55.71875 27.296875 
Q 55.71875 13.875 49.015625 6.21875 
Q 42.328125 -1.421875 30.609375 -1.421875 
Q 18.84375 -1.421875 12.171875 6.21875 
Q 5.515625 13.875 5.515625 27.296875 
Q 5.515625 40.765625 12.171875 48.375 
Q 18.84375 56 30.609375 56 
z
" id="DejaVuSans-7895"/>
       <path d="M 45.40625 27.984375 
Q 45.40625 37.75 41.375 43.109375 
Q 37.359375 48.484375 30.078125 48.484375 
Q 22.859375 48.484375 18.828125 43.109375 
Q 14.796875 37.75 14.796875 27.984375 
Q 14.796875 18.265625 18.828125 12.890625 
Q 22.859375 7.515625 30.078125 7.515625 
Q 37.359375 7.515625 41.375 12.890625 
Q 45.40625 18.265625 45.40625 27.984375 
z
M 54.390625 6.78125 
Q 54.390625 -7.171875 48.1875 -13.984375 
Q 42 -20.796875 29.203125 -20.796875 
Q 24.46875 -20.796875 20.265625 -20.09375 
Q 16.0625 -19.390625 12.109375 -17.921875 
L 12.109375 -9.1875 
Q 16.0625 -11.328125 19.921875 -12.34375 
Q 23.78125 -13.375 27.78125 -13.375 
Q 36.625 -13.375 41.015625 -8.765625 
Q 45.40625 -4.15625 45.40625 5.171875 
L 45.40625 9.625 
Q 42.625 4.78125 38.28125 2.390625 
Q 33.9375 0 27.875 0 
Q 17.828125 0 11.671875 7.65625 
Q 5.515625 15.328125 5.515625 27.984375 
Q 5.515625 40.671875 11.671875 48.328125 
Q 17.828125 56 27.875 56 
Q 33.9375 56 38.28125 53.609375 
Q 42.625 51.21875 45.40625 46.390625 
L 45.40625 54.6875 
L 54.390625 54.6875 
z
" id="DejaVuSans-103"/>
      </defs>
      <use xlink:href="#DejaVuSans-107"/>
      <use x="57.910156" xlink:href="#DejaVuSans-105"/>
      <use x="85.693359" xlink:href="#DejaVuSans-108"/>
      <use x="113.476562" xlink:href="#DejaVuSans-111"/>
      <use x="174.658203" xlink:href="#DejaVuSans-99"/>
      <use x="229.638672" xlink:href="#DejaVuSans-97"/>
      <use x="290.917969" xlink:href="#DejaVuSans-108"/>
      <use x="318.701172" xlink:href="#DejaVuSans-32"/>
      <use x="350.488281" xlink:href="#DejaVuSans-109"/>
      <use x="447.900391" xlink:href="#DejaVuSans-7895"/>
      <use x="509.082031" xlink:href="#DejaVuSans-105"/>
      <use x="536.865234" xlink:href="#DejaVuSans-32"/>
      <use x="568.652344" xlink:href="#DejaVuSans-103"/>
      <use x="632.128906" xlink:href="#DejaVuSans-32"/>
      <use x="663.916016" xlink:href="#DejaVuSans-40"/>
      <use x="702.929688" xlink:href="#DejaVuSans-99"/>
      <use x="757.910156" xlink:href="#DejaVuSans-104"/>
      <use x="821.289062" xlink:href="#DejaVuSans-117"/>
      <use x="884.667969" xlink:href="#DejaVuSans-7849"/>
      <use x="945.947266" xlink:href="#DejaVuSans-110"/>
      <use x="1009.326172" xlink:href="#DejaVuSans-32"/>
      <use x="1041.113281" xlink:href="#DejaVuSans-104"/>
      <use x="1104.492188" xlink:href="#DejaVuSans-111"/>
      <use x="1165.673828" xlink:href="#DejaVuSans-225"/>
      <use x="1226.953125" xlink:href="#DejaVuSans-41"/>
     </g>
    </g>
   </g>
   <g id="line2d_21">
    <path clip-path="url(#p831d46894c)" d="M 67.770139 51.89904 
L 352.514173 126.357608 
" style="fill:none;stroke:#008fd5;stroke-opacity:0.3;stroke-width:2;"/>
   </g>
   <g id="line2d_22">
    <path clip-path="url(#p831d46894c)" d="M 67.770139 261.976812 
L 352.514173 29.477937 
" style="fill:none;stroke:#008fd5;stroke-opacity:0.3;stroke-width:2;"/>
   </g>
   <g id="line2d_23">
    <path clip-path="url(#p831d46894c)" d="M 67.770139 234.827791 
L 352.514173 208.531167 
" style="fill:none;stroke:#008fd5;stroke-opacity:0.3;stroke-width:2;"/>
   </g>
   <g id="line2d_24">
    <path clip-path="url(#p831d46894c)" d="M 67.770139 197.542641 
L 352.514173 183.408859 
" style="fill:none;stroke:#008fd5;stroke-opacity:0.3;stroke-width:2;"/>
   </g>
   <g id="line2d_25">
    <path clip-path="url(#p831d46894c)" d="M 148.173026 344.05449 
L 352.514173 128.755645 
" style="fill:none;stroke:#008fd5;stroke-opacity:0.3;stroke-width:2;"/>
   </g>
   <g id="line2d_26">
    <path clip-path="url(#p831d46894c)" d="M 146.946727 -1 
L 352.514173 343.669532 
" style="fill:none;stroke:#008fd5;stroke-opacity:0.3;stroke-width:2;"/>
   </g>
   <g id="line2d_27">
    <path clip-path="url(#p831d46894c)" d="M 67.770139 285.711673 
L 352.514173 222.285293 
" style="fill:none;stroke:#008fd5;stroke-opacity:0.3;stroke-width:2;"/>
   </g>
   <g id="line2d_28">
    <path clip-path="url(#p831d46894c)" d="M 67.770139 158.026979 
L 352.514173 115.565112 
" style="fill:none;stroke:#008fd5;stroke-opacity:0.3;stroke-width:2;"/>
   </g>
   <g id="line2d_29">
    <path clip-path="url(#p831d46894c)" d="M 67.770139 325.068592 
L 352.514173 21.539568 
" style="fill:none;stroke:#008fd5;stroke-opacity:0.3;stroke-width:2;"/>
   </g>
   <g id="line2d_30">
    <path clip-path="url(#p831d46894c)" d="M 67.770139 199.36127 
L 352.514173 197.634596 
" style="fill:none;stroke:#008fd5;stroke-opacity:0.3;stroke-width:2;"/>
   </g>
   <g id="line2d_31">
    <path clip-path="url(#p831d46894c)" d="M 67.770139 182.982539 
L 352.514173 120.42348 
" style="fill:none;stroke:#008fd5;stroke-opacity:0.3;stroke-width:2;"/>
   </g>
   <g id="line2d_32">
    <path clip-path="url(#p831d46894c)" d="M 67.770139 89.336481 
L 352.514173 179.140945 
" style="fill:none;stroke:#008fd5;stroke-opacity:0.3;stroke-width:2;"/>
   </g>
   <g id="line2d_33">
    <path clip-path="url(#p831d46894c)" d="M 67.770139 186.560592 
L 352.514173 91.19874 
" style="fill:none;stroke:#008fd5;stroke-opacity:0.3;stroke-width:2;"/>
   </g>
   <g id="line2d_34">
    <path clip-path="url(#p831d46894c)" d="M 67.770139 245.394489 
L 241.697116 -1 
" style="fill:none;stroke:#008fd5;stroke-opacity:0.3;stroke-width:2;"/>
   </g>
   <g id="line2d_35">
    <path clip-path="url(#p831d46894c)" d="M 67.770139 176.332 
L 352.514173 320.952969 
" style="fill:none;stroke:#008fd5;stroke-opacity:0.3;stroke-width:2;"/>
   </g>
   <g id="line2d_36">
    <path clip-path="url(#p831d46894c)" d="M 67.770139 277.727043 
L 352.514173 135.956805 
" style="fill:none;stroke:#008fd5;stroke-opacity:0.3;stroke-width:2;"/>
   </g>
   <g id="line2d_37">
    <path clip-path="url(#p831d46894c)" d="M 67.770139 289.37482 
L 352.514173 330.678413 
" style="fill:none;stroke:#008fd5;stroke-opacity:0.3;stroke-width:2;"/>
   </g>
   <g id="line2d_38">
    <path clip-path="url(#p831d46894c)" d="M 112.300002 -1 
L 324.348319 344.05449 
" style="fill:none;stroke:#008fd5;stroke-opacity:0.3;stroke-width:2;"/>
   </g>
   <g id="line2d_39">
    <path clip-path="url(#p831d46894c)" d="M 67.770139 166.996065 
L 352.514173 46.029134 
" style="fill:none;stroke:#008fd5;stroke-opacity:0.3;stroke-width:2;"/>
   </g>
   <g id="line2d_40">
    <path clip-path="url(#p831d46894c)" d="M 67.770139 24.75354 
L 352.514173 54.690166 
" style="fill:none;stroke:#008fd5;stroke-opacity:0.3;stroke-width:2;"/>
   </g>
   <g id="line2d_41">
    <path clip-path="url(#p831d46894c)" d="M 67.770139 236.733442 
L 352.514173 122.74664 
" style="fill:none;stroke:#008fd5;stroke-opacity:0.3;stroke-width:2;"/>
   </g>
   <g id="line2d_42">
    <path clip-path="url(#p831d46894c)" d="M 67.770139 152.810911 
L 352.514173 257.868444 
" style="fill:none;stroke:#008fd5;stroke-opacity:0.3;stroke-width:2;"/>
   </g>
   <g id="line2d_43">
    <path clip-path="url(#p831d46894c)" d="M 67.770139 36.241013 
L 292.62244 344.05449 
" style="fill:none;stroke:#008fd5;stroke-opacity:0.3;stroke-width:2;"/>
   </g>
   <g id="line2d_44">
    <path clip-path="url(#p831d46894c)" d="M 67.770139 261.5379 
L 352.514173 62.264948 
" style="fill:none;stroke:#008fd5;stroke-opacity:0.3;stroke-width:2;"/>
   </g>
   <g id="line2d_45">
    <path clip-path="url(#p831d46894c)" d="M 132.180452 -1 
L 335.113316 344.05449 
" style="fill:none;stroke:#008fd5;stroke-opacity:0.3;stroke-width:2;"/>
   </g>
   <g id="line2d_46">
    <path clip-path="url(#p831d46894c)" d="M 67.770139 281.60004 
L 319.972048 -1 
" style="fill:none;stroke:#008fd5;stroke-opacity:0.3;stroke-width:2;"/>
   </g>
   <g id="line2d_47">
    <path clip-path="url(#p831d46894c)" d="M 139.570903 -1 
L 352.514173 228.035628 
" style="fill:none;stroke:#008fd5;stroke-opacity:0.3;stroke-width:2;"/>
   </g>
   <g id="line2d_48">
    <path clip-path="url(#p831d46894c)" d="M 67.770139 245.744512 
L 352.514173 296.079371 
" style="fill:none;stroke:#008fd5;stroke-opacity:0.3;stroke-width:2;"/>
   </g>
   <g id="line2d_49">
    <path clip-path="url(#p831d46894c)" d="M 67.770139 156.437709 
L 352.514173 58.46666 
" style="fill:none;stroke:#008fd5;stroke-opacity:0.3;stroke-width:2;"/>
   </g>
   <g id="line2d_50">
    <path clip-path="url(#p831d46894c)" d="M 67.770139 5.698599 
L 351.493207 344.05449 
" style="fill:none;stroke:#008fd5;stroke-opacity:0.3;stroke-width:2;"/>
   </g>
   <g id="line2d_51">
    <path clip-path="url(#p831d46894c)" d="M 67.770139 233.385597 
L 352.514173 107.725509 
" style="fill:none;stroke:#008fd5;stroke-opacity:0.3;stroke-width:2;"/>
   </g>
   <g id="line2d_52">
    <path clip-path="url(#p831d46894c)" d="M 67.770139 250.292408 
L 352.514173 142.682226 
" style="fill:none;stroke:#008fd5;stroke-opacity:0.3;stroke-width:2;"/>
   </g>
   <g id="line2d_53">
    <path clip-path="url(#p831d46894c)" d="M 164.937563 344.05449 
L 352.514173 252.543945 
" style="fill:none;stroke:#008fd5;stroke-opacity:0.3;stroke-width:2;"/>
   </g>
   <g id="line2d_54">
    <path clip-path="url(#p831d46894c)" d="M 67.770139 40.388811 
L 352.514173 152.863762 
" style="fill:none;stroke:#008fd5;stroke-opacity:0.3;stroke-width:2;"/>
   </g>
   <g id="line2d_55">
    <path clip-path="url(#p831d46894c)" d="M 67.770139 158.798605 
L 352.514173 271.480162 
" style="fill:none;stroke:#008fd5;stroke-opacity:0.3;stroke-width:2;"/>
   </g>
   <g id="line2d_56">
    <path clip-path="url(#p831d46894c)" d="M 67.770139 217.042049 
L 352.514173 204.536911 
" style="fill:none;stroke:#008fd5;stroke-opacity:0.3;stroke-width:2;"/>
   </g>
   <g id="line2d_57">
    <path clip-path="url(#p831d46894c)" d="M 67.770139 247.15522 
L 352.514173 64.939742 
" style="fill:none;stroke:#008fd5;stroke-opacity:0.3;stroke-width:2;"/>
   </g>
   <g id="line2d_58">
    <path clip-path="url(#p831d46894c)" d="M 67.770139 190.796067 
L 352.514173 130.760661 
" style="fill:none;stroke:#008fd5;stroke-opacity:0.3;stroke-width:2;"/>
   </g>
   <g id="line2d_59">
    <path clip-path="url(#p831d46894c)" d="M 67.770139 313.449 
L 352.514173 212.128006 
" style="fill:none;stroke:#008fd5;stroke-opacity:0.3;stroke-width:2;"/>
   </g>
   <g id="line2d_60">
    <path clip-path="url(#p831d46894c)" d="M 67.770139 87.634972 
L 352.514173 184.562821 
" style="fill:none;stroke:#008fd5;stroke-opacity:0.3;stroke-width:2;"/>
   </g>
   <g id="line2d_61">
    <path clip-path="url(#p831d46894c)" d="M 67.770139 138.086962 
L 352.514173 83.069037 
" style="fill:none;stroke:#008fd5;stroke-opacity:0.3;stroke-width:2;"/>
   </g>
   <g id="line2d_62">
    <path clip-path="url(#p831d46894c)" d="M 67.770139 205.235759 
L 292.630532 344.05449 
" style="fill:none;stroke:#008fd5;stroke-opacity:0.3;stroke-width:2;"/>
   </g>
   <g id="line2d_63">
    <path clip-path="url(#p831d46894c)" d="M 67.770139 164.874881 
L 352.514173 134.844065 
" style="fill:none;stroke:#008fd5;stroke-opacity:0.3;stroke-width:2;"/>
   </g>
   <g id="line2d_64">
    <path clip-path="url(#p831d46894c)" d="M 67.770139 134.015318 
L 352.514173 237.424619 
" style="fill:none;stroke:#008fd5;stroke-opacity:0.3;stroke-width:2;"/>
   </g>
   <g id="line2d_65">
    <path clip-path="url(#p831d46894c)" d="M 165.861781 -1 
L 333.033052 344.05449 
" style="fill:none;stroke:#008fd5;stroke-opacity:0.3;stroke-width:2;"/>
   </g>
   <g id="line2d_66">
    <path clip-path="url(#p831d46894c)" d="M 69.919577 344.05449 
L 352.514173 143.62952 
" style="fill:none;stroke:#008fd5;stroke-opacity:0.3;stroke-width:2;"/>
   </g>
   <g id="line2d_67">
    <path clip-path="url(#p831d46894c)" d="M 67.770139 184.357494 
L 352.514173 71.285298 
" style="fill:none;stroke:#008fd5;stroke-opacity:0.3;stroke-width:2;"/>
   </g>
   <g id="line2d_68">
    <path clip-path="url(#p831d46894c)" d="M 67.770139 235.21186 
L 352.514173 224.759249 
" style="fill:none;stroke:#008fd5;stroke-opacity:0.3;stroke-width:2;"/>
   </g>
   <g id="line2d_69">
    <path clip-path="url(#p831d46894c)" d="M 67.770139 278.515986 
L 352.514173 66.224332 
" style="fill:none;stroke:#008fd5;stroke-opacity:0.3;stroke-width:2;"/>
   </g>
   <g id="line2d_70">
    <path clip-path="url(#p831d46894c)" d="M 67.770139 317.543555 
L 329.575466 -1 
" style="fill:none;stroke:#008fd5;stroke-opacity:0.3;stroke-width:2;"/>
   </g>
   <g id="patch_3">
    <path d="M 53.532938 297.243865 
L 53.532938 51.09324 
" style="fill:none;stroke:#f0f0f0;stroke-linecap:square;stroke-linejoin:miter;stroke-width:3;"/>
   </g>
   <g id="patch_4">
    <path d="M 366.751375 297.243865 
L 366.751375 51.09324 
" style="fill:none;stroke:#f0f0f0;stroke-linecap:square;stroke-linejoin:miter;stroke-width:3;"/>
   </g>
   <g id="patch_5">
    <path d="M 53.532938 297.243865 
L 366.751375 297.243865 
" style="fill:none;stroke:#f0f0f0;stroke-linecap:square;stroke-linejoin:miter;stroke-width:3;"/>
   </g>
   <g id="patch_6">
    <path d="M 53.532938 51.09324 
L 366.751375 51.09324 
" style="fill:none;stroke:#f0f0f0;stroke-linecap:square;stroke-linejoin:miter;stroke-width:3;"/>
   </g>
   <g id="text_13">
    <!-- a ~ Normal(0,1) -->
    <g transform="translate(128.743006 22.51845)scale(0.2016 -0.2016)">
     <defs>
      <path d="M 73.1875 39.890625 
L 73.1875 31.203125 
Q 68.0625 27.34375 63.6875 25.6875 
Q 59.328125 24.03125 54.59375 24.03125 
Q 49.21875 24.03125 42.09375 26.90625 
Q 41.546875 27.09375 41.3125 27.203125 
Q 40.96875 27.34375 40.234375 27.59375 
Q 32.671875 30.609375 28.078125 30.609375 
Q 23.78125 30.609375 19.578125 28.734375 
Q 15.375 26.859375 10.59375 22.796875 
L 10.59375 31.5 
Q 15.71875 35.359375 20.09375 37.03125 
Q 24.46875 38.71875 29.203125 38.71875 
Q 34.578125 38.71875 41.75 35.796875 
Q 42.234375 35.59375 42.484375 35.5 
Q 42.875 35.359375 43.5625 35.109375 
Q 51.125 32.078125 55.71875 32.078125 
Q 59.90625 32.078125 64.03125 33.9375 
Q 68.171875 35.796875 73.1875 39.890625 
z
" id="DejaVuSans-126"/>
      <path d="M 9.8125 72.90625 
L 23.09375 72.90625 
L 55.421875 11.921875 
L 55.421875 72.90625 
L 64.984375 72.90625 
L 64.984375 0 
L 51.703125 0 
L 19.390625 60.984375 
L 19.390625 0 
L 9.8125 0 
z
" id="DejaVuSans-78"/>
      <path d="M 41.109375 46.296875 
Q 39.59375 47.171875 37.8125 47.578125 
Q 36.03125 48 33.890625 48 
Q 26.265625 48 22.1875 43.046875 
Q 18.109375 38.09375 18.109375 28.8125 
L 18.109375 0 
L 9.078125 0 
L 9.078125 54.6875 
L 18.109375 54.6875 
L 18.109375 46.1875 
Q 20.953125 51.171875 25.484375 53.578125 
Q 30.03125 56 36.53125 56 
Q 37.453125 56 38.578125 55.875 
Q 39.703125 55.765625 41.0625 55.515625 
z
" id="DejaVuSans-114"/>
      <path d="M 11.71875 12.40625 
L 22.015625 12.40625 
L 22.015625 4 
L 14.015625 -11.625 
L 7.71875 -11.625 
L 11.71875 4 
z
" id="DejaVuSans-44"/>
     </defs>
     <use xlink:href="#DejaVuSans-97"/>
     <use x="61.279297" xlink:href="#DejaVuSans-32"/>
     <use x="93.066406" xlink:href="#DejaVuSans-126"/>
     <use x="176.855469" xlink:href="#DejaVuSans-32"/>
     <use x="208.642578" xlink:href="#DejaVuSans-78"/>
     <use x="283.447266" xlink:href="#DejaVuSans-111"/>
     <use x="344.628906" xlink:href="#DejaVuSans-114"/>
     <use x="383.992188" xlink:href="#DejaVuSans-109"/>
     <use x="481.404297" xlink:href="#DejaVuSans-97"/>
     <use x="542.683594" xlink:href="#DejaVuSans-108"/>
     <use x="570.466797" xlink:href="#DejaVuSans-40"/>
     <use x="609.480469" xlink:href="#DejaVuSans-48"/>
     <use x="673.103516" xlink:href="#DejaVuSans-44"/>
     <use x="704.890625" xlink:href="#DejaVuSans-49"/>
     <use x="768.513672" xlink:href="#DejaVuSans-41"/>
    </g>
    <!-- bN ~ Normal(0,1) -->
    <g transform="translate(120.979831 45.09324)scale(0.2016 -0.2016)">
     <defs>
      <path d="M 48.6875 27.296875 
Q 48.6875 37.203125 44.609375 42.84375 
Q 40.53125 48.484375 33.40625 48.484375 
Q 26.265625 48.484375 22.1875 42.84375 
Q 18.109375 37.203125 18.109375 27.296875 
Q 18.109375 17.390625 22.1875 11.75 
Q 26.265625 6.109375 33.40625 6.109375 
Q 40.53125 6.109375 44.609375 11.75 
Q 48.6875 17.390625 48.6875 27.296875 
z
M 18.109375 46.390625 
Q 20.953125 51.265625 25.265625 53.625 
Q 29.59375 56 35.59375 56 
Q 45.5625 56 51.78125 48.09375 
Q 58.015625 40.1875 58.015625 27.296875 
Q 58.015625 14.40625 51.78125 6.484375 
Q 45.5625 -1.421875 35.59375 -1.421875 
Q 29.59375 -1.421875 25.265625 0.953125 
Q 20.953125 3.328125 18.109375 8.203125 
L 18.109375 0 
L 9.078125 0 
L 9.078125 75.984375 
L 18.109375 75.984375 
z
" id="DejaVuSans-98"/>
     </defs>
     <use xlink:href="#DejaVuSans-98"/>
     <use x="63.476562" xlink:href="#DejaVuSans-78"/>
     <use x="138.28125" xlink:href="#DejaVuSans-32"/>
     <use x="170.068359" xlink:href="#DejaVuSans-126"/>
     <use x="253.857422" xlink:href="#DejaVuSans-32"/>
     <use x="285.644531" xlink:href="#DejaVuSans-78"/>
     <use x="360.449219" xlink:href="#DejaVuSans-111"/>
     <use x="421.630859" xlink:href="#DejaVuSans-114"/>
     <use x="460.994141" xlink:href="#DejaVuSans-109"/>
     <use x="558.40625" xlink:href="#DejaVuSans-97"/>
     <use x="619.685547" xlink:href="#DejaVuSans-108"/>
     <use x="647.46875" xlink:href="#DejaVuSans-40"/>
     <use x="686.482422" xlink:href="#DejaVuSans-48"/>
     <use x="750.105469" xlink:href="#DejaVuSans-44"/>
     <use x="781.892578" xlink:href="#DejaVuSans-49"/>
     <use x="845.515625" xlink:href="#DejaVuSans-41"/>
    </g>
   </g>
  </g>
  <g id="axes_2">
   <g id="patch_7">
    <path d="M 381.871375 297.243865 
L 695.089812 297.243865 
L 695.089812 51.09324 
L 381.871375 51.09324 
z
" style="fill:#f0f0f0;"/>
   </g>
   <g id="matplotlib.axis_3">
    <g id="xtick_6">
     <g id="line2d_71">
      <path clip-path="url(#p3690db6328)" d="M 396.108577 297.243865 
L 396.108577 51.09324 
" style="fill:none;stroke:#cbcbcb;"/>
     </g>
     <g id="line2d_72"/>
     <g id="text_14">
      <!-- −2 -->
      <g transform="translate(385.789045 311.381677)scale(0.14 -0.14)">
       <use xlink:href="#DejaVuSans-8722"/>
       <use x="83.789062" xlink:href="#DejaVuSans-50"/>
      </g>
     </g>
    </g>
    <g id="xtick_7">
     <g id="line2d_73">
      <path clip-path="url(#p3690db6328)" d="M 467.294585 297.243865 
L 467.294585 51.09324 
" style="fill:none;stroke:#cbcbcb;"/>
     </g>
     <g id="line2d_74"/>
     <g id="text_15">
      <!-- −1 -->
      <g transform="translate(456.975054 311.381677)scale(0.14 -0.14)">
       <use xlink:href="#DejaVuSans-8722"/>
       <use x="83.789062" xlink:href="#DejaVuSans-49"/>
      </g>
     </g>
    </g>
    <g id="xtick_8">
     <g id="line2d_75">
      <path clip-path="url(#p3690db6328)" d="M 538.480594 297.243865 
L 538.480594 51.09324 
" style="fill:none;stroke:#cbcbcb;"/>
     </g>
     <g id="line2d_76"/>
     <g id="text_16">
      <!-- 0 -->
      <g transform="translate(534.026844 311.381677)scale(0.14 -0.14)">
       <use xlink:href="#DejaVuSans-48"/>
      </g>
     </g>
    </g>
    <g id="xtick_9">
     <g id="line2d_77">
      <path clip-path="url(#p3690db6328)" d="M 609.666602 297.243865 
L 609.666602 51.09324 
" style="fill:none;stroke:#cbcbcb;"/>
     </g>
     <g id="line2d_78"/>
     <g id="text_17">
      <!-- 1 -->
      <g transform="translate(605.212852 311.381677)scale(0.14 -0.14)">
       <use xlink:href="#DejaVuSans-49"/>
      </g>
     </g>
    </g>
    <g id="xtick_10">
     <g id="line2d_79">
      <path clip-path="url(#p3690db6328)" d="M 680.852611 297.243865 
L 680.852611 51.09324 
" style="fill:none;stroke:#cbcbcb;"/>
     </g>
     <g id="line2d_80"/>
     <g id="text_18">
      <!-- 2 -->
      <g transform="translate(676.398861 311.381677)scale(0.14 -0.14)">
       <use xlink:href="#DejaVuSans-50"/>
      </g>
     </g>
    </g>
    <g id="text_19">
     <!-- tỉ lệ vỏ não (chuẩn hoá) -->
     <g transform="translate(438.378844 332.360615)scale(0.168 -0.168)">
      <use xlink:href="#DejaVuSans-116"/>
      <use x="39.208984" xlink:href="#DejaVuSans-7881"/>
      <use x="66.992188" xlink:href="#DejaVuSans-32"/>
      <use x="98.779297" xlink:href="#DejaVuSans-108"/>
      <use x="126.5625" xlink:href="#DejaVuSans-7879"/>
      <use x="188.085938" xlink:href="#DejaVuSans-32"/>
      <use x="219.873047" xlink:href="#DejaVuSans-118"/>
      <use x="279.052734" xlink:href="#DejaVuSans-7887"/>
      <use x="340.234375" xlink:href="#DejaVuSans-32"/>
      <use x="372.021484" xlink:href="#DejaVuSans-110"/>
      <use x="435.400391" xlink:href="#DejaVuSans-227"/>
      <use x="496.679688" xlink:href="#DejaVuSans-111"/>
      <use x="557.861328" xlink:href="#DejaVuSans-32"/>
      <use x="589.648438" xlink:href="#DejaVuSans-40"/>
      <use x="628.662109" xlink:href="#DejaVuSans-99"/>
      <use x="683.642578" xlink:href="#DejaVuSans-104"/>
      <use x="747.021484" xlink:href="#DejaVuSans-117"/>
      <use x="810.400391" xlink:href="#DejaVuSans-7849"/>
      <use x="871.679688" xlink:href="#DejaVuSans-110"/>
      <use x="935.058594" xlink:href="#DejaVuSans-32"/>
      <use x="966.845703" xlink:href="#DejaVuSans-104"/>
      <use x="1030.224609" xlink:href="#DejaVuSans-111"/>
      <use x="1091.40625" xlink:href="#DejaVuSans-225"/>
      <use x="1152.685547" xlink:href="#DejaVuSans-41"/>
     </g>
    </g>
   </g>
   <g id="matplotlib.axis_4">
    <g id="ytick_6">
     <g id="line2d_81">
      <path clip-path="url(#p3690db6328)" d="M 381.871375 297.243865 
L 695.089812 297.243865 
" style="fill:none;stroke:#cbcbcb;"/>
     </g>
     <g id="line2d_82"/>
    </g>
    <g id="ytick_7">
     <g id="line2d_83">
      <path clip-path="url(#p3690db6328)" d="M 381.871375 235.706209 
L 695.089812 235.706209 
" style="fill:none;stroke:#cbcbcb;"/>
     </g>
     <g id="line2d_84"/>
    </g>
    <g id="ytick_8">
     <g id="line2d_85">
      <path clip-path="url(#p3690db6328)" d="M 381.871375 174.168552 
L 695.089812 174.168552 
" style="fill:none;stroke:#cbcbcb;"/>
     </g>
     <g id="line2d_86"/>
    </g>
    <g id="ytick_9">
     <g id="line2d_87">
      <path clip-path="url(#p3690db6328)" d="M 381.871375 112.630896 
L 695.089812 112.630896 
" style="fill:none;stroke:#cbcbcb;"/>
     </g>
     <g id="line2d_88"/>
    </g>
    <g id="ytick_10">
     <g id="line2d_89">
      <path clip-path="url(#p3690db6328)" d="M 381.871375 51.09324 
L 695.089812 51.09324 
" style="fill:none;stroke:#cbcbcb;"/>
     </g>
     <g id="line2d_90"/>
    </g>
   </g>
   <g id="line2d_91">
    <path clip-path="url(#p3690db6328)" d="M 396.108577 138.545864 
L 680.852611 175.775146 
" style="fill:none;stroke:#008fd5;stroke-opacity:0.3;stroke-width:2;"/>
   </g>
   <g id="line2d_92">
    <path clip-path="url(#p3690db6328)" d="M 396.108577 226.605036 
L 680.852611 110.355598 
" style="fill:none;stroke:#008fd5;stroke-opacity:0.3;stroke-width:2;"/>
   </g>
   <g id="line2d_93">
    <path clip-path="url(#p3690db6328)" d="M 396.108577 190.244892 
L 680.852611 177.096583 
" style="fill:none;stroke:#008fd5;stroke-opacity:0.3;stroke-width:2;"/>
   </g>
   <g id="line2d_94">
    <path clip-path="url(#p3690db6328)" d="M 396.108577 180.963437 
L 680.852611 173.896547 
" style="fill:none;stroke:#008fd5;stroke-opacity:0.3;stroke-width:2;"/>
   </g>
   <g id="line2d_95">
    <path clip-path="url(#p3690db6328)" d="M 396.108577 270.090626 
L 680.852611 120.083976 
" style="fill:none;stroke:#008fd5;stroke-opacity:0.3;stroke-width:2;"/>
   </g>
   <g id="line2d_96">
    <path clip-path="url(#p3690db6328)" d="M 396.108577 40.97075 
L 680.852611 279.682175 
" style="fill:none;stroke:#008fd5;stroke-opacity:0.3;stroke-width:2;"/>
   </g>
   <g id="line2d_97">
    <path clip-path="url(#p3690db6328)" d="M 396.108577 205.991133 
L 680.852611 174.277943 
" style="fill:none;stroke:#008fd5;stroke-opacity:0.3;stroke-width:2;"/>
   </g>
   <g id="line2d_98">
    <path clip-path="url(#p3690db6328)" d="M 396.108577 177.309517 
L 680.852611 156.078583 
" style="fill:none;stroke:#008fd5;stroke-opacity:0.3;stroke-width:2;"/>
   </g>
   <g id="line2d_99">
    <path clip-path="url(#p3690db6328)" d="M 396.108577 249.87791 
L 680.852611 98.113397 
" style="fill:none;stroke:#008fd5;stroke-opacity:0.3;stroke-width:2;"/>
   </g>
   <g id="line2d_100">
    <path clip-path="url(#p3690db6328)" d="M 396.108577 179.466097 
L 680.852611 178.602761 
" style="fill:none;stroke:#008fd5;stroke-opacity:0.3;stroke-width:2;"/>
   </g>
   <g id="line2d_101">
    <path clip-path="url(#p3690db6328)" d="M 396.108577 185.315208 
L 680.852611 154.03568 
" style="fill:none;stroke:#008fd5;stroke-opacity:0.3;stroke-width:2;"/>
   </g>
   <g id="line2d_102">
    <path clip-path="url(#p3690db6328)" d="M 396.108577 143.731467 
L 680.852611 188.6337 
" style="fill:none;stroke:#008fd5;stroke-opacity:0.3;stroke-width:2;"/>
   </g>
   <g id="line2d_103">
    <path clip-path="url(#p3690db6328)" d="M 396.108577 190.951238 
L 680.852611 143.270312 
" style="fill:none;stroke:#008fd5;stroke-opacity:0.3;stroke-width:2;"/>
   </g>
   <g id="line2d_104">
    <path clip-path="url(#p3690db6328)" d="M 396.108577 248.921336 
L 680.852611 47.22934 
" style="fill:none;stroke:#008fd5;stroke-opacity:0.3;stroke-width:2;"/>
   </g>
   <g id="line2d_105">
    <path clip-path="url(#p3690db6328)" d="M 396.108577 152.908098 
L 680.852611 225.218584 
" style="fill:none;stroke:#008fd5;stroke-opacity:0.3;stroke-width:2;"/>
   </g>
   <g id="line2d_106">
    <path clip-path="url(#p3690db6328)" d="M 396.108577 216.145787 
L 680.852611 145.260667 
" style="fill:none;stroke:#008fd5;stroke-opacity:0.3;stroke-width:2;"/>
   </g>
   <g id="line2d_107">
    <path clip-path="url(#p3690db6328)" d="M 396.108577 191.014266 
L 680.852611 211.666066 
" style="fill:none;stroke:#008fd5;stroke-opacity:0.3;stroke-width:2;"/>
   </g>
   <g id="line2d_108">
    <path clip-path="url(#p3690db6328)" d="M 396.108577 55.140419 
L 680.852611 286.814516 
" style="fill:none;stroke:#008fd5;stroke-opacity:0.3;stroke-width:2;"/>
   </g>
   <g id="line2d_109">
    <path clip-path="url(#p3690db6328)" d="M 396.108577 190.879096 
L 680.852611 130.395628 
" style="fill:none;stroke:#008fd5;stroke-opacity:0.3;stroke-width:2;"/>
   </g>
   <g id="line2d_110">
    <path clip-path="url(#p3690db6328)" d="M 396.108577 139.795051 
L 680.852611 154.763368 
" style="fill:none;stroke:#008fd5;stroke-opacity:0.3;stroke-width:2;"/>
   </g>
   <g id="line2d_111">
    <path clip-path="url(#p3690db6328)" d="M 396.108577 203.779551 
L 680.852611 146.786148 
" style="fill:none;stroke:#008fd5;stroke-opacity:0.3;stroke-width:2;"/>
   </g>
   <g id="line2d_112">
    <path clip-path="url(#p3690db6328)" d="M 396.108577 154.138393 
L 680.852611 206.667162 
" style="fill:none;stroke:#008fd5;stroke-opacity:0.3;stroke-width:2;"/>
   </g>
   <g id="line2d_113">
    <path clip-path="url(#p3690db6328)" d="M 396.108577 88.112632 
L 680.852611 283.014013 
" style="fill:none;stroke:#008fd5;stroke-opacity:0.3;stroke-width:2;"/>
   </g>
   <g id="line2d_114">
    <path clip-path="url(#p3690db6328)" d="M 396.108577 221.533363 
L 680.852611 121.896887 
" style="fill:none;stroke:#008fd5;stroke-opacity:0.3;stroke-width:2;"/>
   </g>
   <g id="line2d_115">
    <path clip-path="url(#p3690db6328)" d="M 396.108577 44.606799 
L 680.852611 286.687379 
" style="fill:none;stroke:#008fd5;stroke-opacity:0.3;stroke-width:2;"/>
   </g>
   <g id="line2d_116">
    <path clip-path="url(#p3690db6328)" d="M 396.108577 243.514528 
L 680.852611 83.982278 
" style="fill:none;stroke:#008fd5;stroke-opacity:0.3;stroke-width:2;"/>
   </g>
   <g id="line2d_117">
    <path clip-path="url(#p3690db6328)" d="M 396.108577 77.750106 
L 680.852611 230.881333 
" style="fill:none;stroke:#008fd5;stroke-opacity:0.3;stroke-width:2;"/>
   </g>
   <g id="line2d_118">
    <path clip-path="url(#p3690db6328)" d="M 396.108577 180.93352 
L 680.852611 206.100943 
" style="fill:none;stroke:#008fd5;stroke-opacity:0.3;stroke-width:2;"/>
   </g>
   <g id="line2d_119">
    <path clip-path="url(#p3690db6328)" d="M 396.108577 185.318041 
L 680.852611 136.332514 
" style="fill:none;stroke:#008fd5;stroke-opacity:0.3;stroke-width:2;"/>
   </g>
   <g id="line2d_120">
    <path clip-path="url(#p3690db6328)" d="M 396.108577 89.538547 
L 680.852611 259.325273 
" style="fill:none;stroke:#008fd5;stroke-opacity:0.3;stroke-width:2;"/>
   </g>
   <g id="line2d_121">
    <path clip-path="url(#p3690db6328)" d="M 396.108577 204.860974 
L 680.852611 142.03093 
" style="fill:none;stroke:#008fd5;stroke-opacity:0.3;stroke-width:2;"/>
   </g>
   <g id="line2d_122">
    <path clip-path="url(#p3690db6328)" d="M 396.108577 205.53485 
L 680.852611 151.729759 
" style="fill:none;stroke:#008fd5;stroke-opacity:0.3;stroke-width:2;"/>
   </g>
   <g id="line2d_123">
    <path clip-path="url(#p3690db6328)" d="M 396.108577 238.463656 
L 680.852611 169.006482 
" style="fill:none;stroke:#008fd5;stroke-opacity:0.3;stroke-width:2;"/>
   </g>
   <g id="line2d_124">
    <path clip-path="url(#p3690db6328)" d="M 396.108577 130.541362 
L 680.852611 186.778836 
" style="fill:none;stroke:#008fd5;stroke-opacity:0.3;stroke-width:2;"/>
   </g>
   <g id="line2d_125">
    <path clip-path="url(#p3690db6328)" d="M 396.108577 154.19233 
L 680.852611 210.533109 
" style="fill:none;stroke:#008fd5;stroke-opacity:0.3;stroke-width:2;"/>
   </g>
   <g id="line2d_126">
    <path clip-path="url(#p3690db6328)" d="M 396.108577 184.619023 
L 680.852611 178.366454 
" style="fill:none;stroke:#008fd5;stroke-opacity:0.3;stroke-width:2;"/>
   </g>
   <g id="line2d_127">
    <path clip-path="url(#p3690db6328)" d="M 396.108577 216.098206 
L 680.852611 124.990467 
" style="fill:none;stroke:#008fd5;stroke-opacity:0.3;stroke-width:2;"/>
   </g>
   <g id="line2d_128">
    <path clip-path="url(#p3690db6328)" d="M 396.108577 186.499365 
L 680.852611 156.481663 
" style="fill:none;stroke:#008fd5;stroke-opacity:0.3;stroke-width:2;"/>
   </g>
   <g id="line2d_129">
    <path clip-path="url(#p3690db6328)" d="M 396.108577 217.22279 
L 680.852611 166.562294 
" style="fill:none;stroke:#008fd5;stroke-opacity:0.3;stroke-width:2;"/>
   </g>
   <g id="line2d_130">
    <path clip-path="url(#p3690db6328)" d="M 396.108577 142.322659 
L 680.852611 190.786583 
" style="fill:none;stroke:#008fd5;stroke-opacity:0.3;stroke-width:2;"/>
   </g>
   <g id="line2d_131">
    <path clip-path="url(#p3690db6328)" d="M 396.108577 175.204922 
L 680.852611 147.695962 
" style="fill:none;stroke:#008fd5;stroke-opacity:0.3;stroke-width:2;"/>
   </g>
   <g id="line2d_132">
    <path clip-path="url(#p3690db6328)" d="M 396.108577 154.013764 
L 680.852611 241.907872 
" style="fill:none;stroke:#008fd5;stroke-opacity:0.3;stroke-width:2;"/>
   </g>
   <g id="line2d_133">
    <path clip-path="url(#p3690db6328)" d="M 396.108577 176.81444 
L 680.852611 161.799031 
" style="fill:none;stroke:#008fd5;stroke-opacity:0.3;stroke-width:2;"/>
   </g>
   <g id="line2d_134">
    <path clip-path="url(#p3690db6328)" d="M 396.108577 150.626511 
L 680.852611 202.331162 
" style="fill:none;stroke:#008fd5;stroke-opacity:0.3;stroke-width:2;"/>
   </g>
   <g id="line2d_135">
    <path clip-path="url(#p3690db6328)" d="M 396.108577 10.481023 
L 680.852611 304.347927 
" style="fill:none;stroke:#008fd5;stroke-opacity:0.3;stroke-width:2;"/>
   </g>
   <g id="line2d_136">
    <path clip-path="url(#p3690db6328)" d="M 396.108577 238.74305 
L 680.852611 137.768333 
" style="fill:none;stroke:#008fd5;stroke-opacity:0.3;stroke-width:2;"/>
   </g>
   <g id="line2d_137">
    <path clip-path="url(#p3690db6328)" d="M 396.108577 193.167169 
L 680.852611 136.631069 
" style="fill:none;stroke:#008fd5;stroke-opacity:0.3;stroke-width:2;"/>
   </g>
   <g id="line2d_138">
    <path clip-path="url(#p3690db6328)" d="M 396.108577 187.945106 
L 680.852611 182.718802 
" style="fill:none;stroke:#008fd5;stroke-opacity:0.3;stroke-width:2;"/>
   </g>
   <g id="line2d_139">
    <path clip-path="url(#p3690db6328)" d="M 396.108577 226.881789 
L 680.852611 120.735962 
" style="fill:none;stroke:#008fd5;stroke-opacity:0.3;stroke-width:2;"/>
   </g>
   <g id="line2d_140">
    <path clip-path="url(#p3690db6328)" d="M 396.108577 254.811584 
L 680.852611 81.584824 
" style="fill:none;stroke:#008fd5;stroke-opacity:0.3;stroke-width:2;"/>
   </g>
   <g id="patch_8">
    <path d="M 381.871375 297.243865 
L 381.871375 51.09324 
" style="fill:none;stroke:#f0f0f0;stroke-linecap:square;stroke-linejoin:miter;stroke-width:3;"/>
   </g>
   <g id="patch_9">
    <path d="M 695.089812 297.243865 
L 695.089812 51.09324 
" style="fill:none;stroke:#f0f0f0;stroke-linecap:square;stroke-linejoin:miter;stroke-width:3;"/>
   </g>
   <g id="patch_10">
    <path d="M 381.871375 297.243865 
L 695.089812 297.243865 
" style="fill:none;stroke:#f0f0f0;stroke-linecap:square;stroke-linejoin:miter;stroke-width:3;"/>
   </g>
   <g id="patch_11">
    <path d="M 381.871375 51.09324 
L 695.089812 51.09324 
" style="fill:none;stroke:#f0f0f0;stroke-linecap:square;stroke-linejoin:miter;stroke-width:3;"/>
   </g>
   <g id="text_20">
    <!-- a ~ Normal(0,0.2) -->
    <g transform="translate(447.464494 22.51845)scale(0.2016 -0.2016)">
     <defs>
      <path d="M 10.6875 12.40625 
L 21 12.40625 
L 21 0 
L 10.6875 0 
z
" id="DejaVuSans-46"/>
     </defs>
     <use xlink:href="#DejaVuSans-97"/>
     <use x="61.279297" xlink:href="#DejaVuSans-32"/>
     <use x="93.066406" xlink:href="#DejaVuSans-126"/>
     <use x="176.855469" xlink:href="#DejaVuSans-32"/>
     <use x="208.642578" xlink:href="#DejaVuSans-78"/>
     <use x="283.447266" xlink:href="#DejaVuSans-111"/>
     <use x="344.628906" xlink:href="#DejaVuSans-114"/>
     <use x="383.992188" xlink:href="#DejaVuSans-109"/>
     <use x="481.404297" xlink:href="#DejaVuSans-97"/>
     <use x="542.683594" xlink:href="#DejaVuSans-108"/>
     <use x="570.466797" xlink:href="#DejaVuSans-40"/>
     <use x="609.480469" xlink:href="#DejaVuSans-48"/>
     <use x="673.103516" xlink:href="#DejaVuSans-44"/>
     <use x="704.890625" xlink:href="#DejaVuSans-48"/>
     <use x="768.513672" xlink:href="#DejaVuSans-46"/>
     <use x="800.300781" xlink:href="#DejaVuSans-50"/>
     <use x="863.923828" xlink:href="#DejaVuSans-41"/>
    </g>
    <!-- bN ~ Normal(0,0.5) -->
    <g transform="translate(439.701319 45.09324)scale(0.2016 -0.2016)">
     <defs>
      <path d="M 10.796875 72.90625 
L 49.515625 72.90625 
L 49.515625 64.59375 
L 19.828125 64.59375 
L 19.828125 46.734375 
Q 21.96875 47.46875 24.109375 47.828125 
Q 26.265625 48.1875 28.421875 48.1875 
Q 40.625 48.1875 47.75 41.5 
Q 54.890625 34.8125 54.890625 23.390625 
Q 54.890625 11.625 47.5625 5.09375 
Q 40.234375 -1.421875 26.90625 -1.421875 
Q 22.3125 -1.421875 17.546875 -0.640625 
Q 12.796875 0.140625 7.71875 1.703125 
L 7.71875 11.625 
Q 12.109375 9.234375 16.796875 8.0625 
Q 21.484375 6.890625 26.703125 6.890625 
Q 35.15625 6.890625 40.078125 11.328125 
Q 45.015625 15.765625 45.015625 23.390625 
Q 45.015625 31 40.078125 35.4375 
Q 35.15625 39.890625 26.703125 39.890625 
Q 22.75 39.890625 18.8125 39.015625 
Q 14.890625 38.140625 10.796875 36.28125 
z
" id="DejaVuSans-53"/>
     </defs>
     <use xlink:href="#DejaVuSans-98"/>
     <use x="63.476562" xlink:href="#DejaVuSans-78"/>
     <use x="138.28125" xlink:href="#DejaVuSans-32"/>
     <use x="170.068359" xlink:href="#DejaVuSans-126"/>
     <use x="253.857422" xlink:href="#DejaVuSans-32"/>
     <use x="285.644531" xlink:href="#DejaVuSans-78"/>
     <use x="360.449219" xlink:href="#DejaVuSans-111"/>
     <use x="421.630859" xlink:href="#DejaVuSans-114"/>
     <use x="460.994141" xlink:href="#DejaVuSans-109"/>
     <use x="558.40625" xlink:href="#DejaVuSans-97"/>
     <use x="619.685547" xlink:href="#DejaVuSans-108"/>
     <use x="647.46875" xlink:href="#DejaVuSans-40"/>
     <use x="686.482422" xlink:href="#DejaVuSans-48"/>
     <use x="750.105469" xlink:href="#DejaVuSans-44"/>
     <use x="781.892578" xlink:href="#DejaVuSans-48"/>
     <use x="845.515625" xlink:href="#DejaVuSans-46"/>
     <use x="877.302734" xlink:href="#DejaVuSans-53"/>
     <use x="940.925781" xlink:href="#DejaVuSans-41"/>
    </g>
   </g>
  </g>
 </g>
 <defs>
  <clipPath id="p831d46894c">
   <rect height="246.150625" width="313.218437" x="53.532938" y="51.09324"/>
  </clipPath>
  <clipPath id="p3690db6328">
   <rect height="246.150625" width="313.218437" x="381.871375" y="51.09324"/>
  </clipPath>
 </defs>
</svg>
