<?xml version="1.0" encoding="utf-8" standalone="no"?>
<!DOCTYPE svg PUBLIC "-//W3C//DTD SVG 1.1//EN"
  "http://www.w3.org/Graphics/SVG/1.1/DTD/svg11.dtd">
<!-- Created with matplotlib (https://matplotlib.org/) -->
<svg height="341.670275pt" version="1.1" viewBox="0 0 702.206 341.670275" width="702.206pt" xmlns="http://www.w3.org/2000/svg" xmlns:xlink="http://www.w3.org/1999/xlink">
 <metadata>
  <rdf:RDF xmlns:cc="http://creativecommons.org/ns#" xmlns:dc="http://purl.org/dc/elements/1.1/" xmlns:rdf="http://www.w3.org/1999/02/22-rdf-syntax-ns#">
   <cc:Work>
    <dc:type rdf:resource="http://purl.org/dc/dcmitype/StillImage"/>
    <dc:date>2021-03-05T20:02:47.263020</dc:date>
    <dc:format>image/svg+xml</dc:format>
    <dc:creator>
     <cc:Agent>
      <dc:title>Matplotlib v3.3.4, https://matplotlib.org/</dc:title>
     </cc:Agent>
    </dc:creator>
   </cc:Work>
  </rdf:RDF>
 </metadata>
 <defs>
  <style type="text/css">*{stroke-linecap:butt;stroke-linejoin:round;}</style>
 </defs>
 <g id="figure_1">
  <g id="patch_1">
   <path d="M 0 341.670275 
L 702.206 341.670275 
L 702.206 0 
L 0 0 
z
" style="fill:#f0f0f0;"/>
  </g>
  <g id="axes_1">
   <g id="patch_2">
    <path d="M 54.074125 295.442275 
L 342.566 295.442275 
L 342.566 30.2604 
L 54.074125 30.2604 
z
" style="fill:#f0f0f0;"/>
   </g>
   <g id="matplotlib.axis_1">
    <g id="xtick_1">
     <g id="line2d_1">
      <path clip-path="url(#p399313844d)" d="M 89.042837 295.442275 
L 89.042837 30.2604 
" style="fill:none;stroke:#cbcbcb;"/>
     </g>
     <g id="line2d_2"/>
     <g id="text_1">
      <!-- 0.00 -->
      <g transform="translate(73.456899 309.580087)scale(0.14 -0.14)">
       <defs>
        <path d="M 31.78125 66.40625 
Q 24.171875 66.40625 20.328125 58.90625 
Q 16.5 51.421875 16.5 36.375 
Q 16.5 21.390625 20.328125 13.890625 
Q 24.171875 6.390625 31.78125 6.390625 
Q 39.453125 6.390625 43.28125 13.890625 
Q 47.125 21.390625 47.125 36.375 
Q 47.125 51.421875 43.28125 58.90625 
Q 39.453125 66.40625 31.78125 66.40625 
z
M 31.78125 74.21875 
Q 44.046875 74.21875 50.515625 64.515625 
Q 56.984375 54.828125 56.984375 36.375 
Q 56.984375 17.96875 50.515625 8.265625 
Q 44.046875 -1.421875 31.78125 -1.421875 
Q 19.53125 -1.421875 13.0625 8.265625 
Q 6.59375 17.96875 6.59375 36.375 
Q 6.59375 54.828125 13.0625 64.515625 
Q 19.53125 74.21875 31.78125 74.21875 
z
" id="DejaVuSans-48"/>
        <path d="M 10.6875 12.40625 
L 21 12.40625 
L 21 0 
L 10.6875 0 
z
" id="DejaVuSans-46"/>
       </defs>
       <use xlink:href="#DejaVuSans-48"/>
       <use x="63.623047" xlink:href="#DejaVuSans-46"/>
       <use x="95.410156" xlink:href="#DejaVuSans-48"/>
       <use x="159.033203" xlink:href="#DejaVuSans-48"/>
      </g>
     </g>
    </g>
    <g id="xtick_2">
     <g id="line2d_3">
      <path clip-path="url(#p399313844d)" d="M 143.681449 295.442275 
L 143.681449 30.2604 
" style="fill:none;stroke:#cbcbcb;"/>
     </g>
     <g id="line2d_4"/>
     <g id="text_2">
      <!-- 0.25 -->
      <g transform="translate(128.095511 309.580087)scale(0.14 -0.14)">
       <defs>
        <path d="M 19.1875 8.296875 
L 53.609375 8.296875 
L 53.609375 0 
L 7.328125 0 
L 7.328125 8.296875 
Q 12.9375 14.109375 22.625 23.890625 
Q 32.328125 33.6875 34.8125 36.53125 
Q 39.546875 41.84375 41.421875 45.53125 
Q 43.3125 49.21875 43.3125 52.78125 
Q 43.3125 58.59375 39.234375 62.25 
Q 35.15625 65.921875 28.609375 65.921875 
Q 23.96875 65.921875 18.8125 64.3125 
Q 13.671875 62.703125 7.8125 59.421875 
L 7.8125 69.390625 
Q 13.765625 71.78125 18.9375 73 
Q 24.125 74.21875 28.421875 74.21875 
Q 39.75 74.21875 46.484375 68.546875 
Q 53.21875 62.890625 53.21875 53.421875 
Q 53.21875 48.921875 51.53125 44.890625 
Q 49.859375 40.875 45.40625 35.40625 
Q 44.1875 33.984375 37.640625 27.21875 
Q 31.109375 20.453125 19.1875 8.296875 
z
" id="DejaVuSans-50"/>
        <path d="M 10.796875 72.90625 
L 49.515625 72.90625 
L 49.515625 64.59375 
L 19.828125 64.59375 
L 19.828125 46.734375 
Q 21.96875 47.46875 24.109375 47.828125 
Q 26.265625 48.1875 28.421875 48.1875 
Q 40.625 48.1875 47.75 41.5 
Q 54.890625 34.8125 54.890625 23.390625 
Q 54.890625 11.625 47.5625 5.09375 
Q 40.234375 -1.421875 26.90625 -1.421875 
Q 22.3125 -1.421875 17.546875 -0.640625 
Q 12.796875 0.140625 7.71875 1.703125 
L 7.71875 11.625 
Q 12.109375 9.234375 16.796875 8.0625 
Q 21.484375 6.890625 26.703125 6.890625 
Q 35.15625 6.890625 40.078125 11.328125 
Q 45.015625 15.765625 45.015625 23.390625 
Q 45.015625 31 40.078125 35.4375 
Q 35.15625 39.890625 26.703125 39.890625 
Q 22.75 39.890625 18.8125 39.015625 
Q 14.890625 38.140625 10.796875 36.28125 
z
" id="DejaVuSans-53"/>
       </defs>
       <use xlink:href="#DejaVuSans-48"/>
       <use x="63.623047" xlink:href="#DejaVuSans-46"/>
       <use x="95.410156" xlink:href="#DejaVuSans-50"/>
       <use x="159.033203" xlink:href="#DejaVuSans-53"/>
      </g>
     </g>
    </g>
    <g id="xtick_3">
     <g id="line2d_5">
      <path clip-path="url(#p399313844d)" d="M 198.32006 295.442275 
L 198.32006 30.2604 
" style="fill:none;stroke:#cbcbcb;"/>
     </g>
     <g id="line2d_6"/>
     <g id="text_3">
      <!-- 0.50 -->
      <g transform="translate(182.734123 309.580087)scale(0.14 -0.14)">
       <use xlink:href="#DejaVuSans-48"/>
       <use x="63.623047" xlink:href="#DejaVuSans-46"/>
       <use x="95.410156" xlink:href="#DejaVuSans-53"/>
       <use x="159.033203" xlink:href="#DejaVuSans-48"/>
      </g>
     </g>
    </g>
    <g id="xtick_4">
     <g id="line2d_7">
      <path clip-path="url(#p399313844d)" d="M 252.958672 295.442275 
L 252.958672 30.2604 
" style="fill:none;stroke:#cbcbcb;"/>
     </g>
     <g id="line2d_8"/>
     <g id="text_4">
      <!-- 0.75 -->
      <g transform="translate(237.372734 309.580087)scale(0.14 -0.14)">
       <defs>
        <path d="M 8.203125 72.90625 
L 55.078125 72.90625 
L 55.078125 68.703125 
L 28.609375 0 
L 18.3125 0 
L 43.21875 64.59375 
L 8.203125 64.59375 
z
" id="DejaVuSans-55"/>
       </defs>
       <use xlink:href="#DejaVuSans-48"/>
       <use x="63.623047" xlink:href="#DejaVuSans-46"/>
       <use x="95.410156" xlink:href="#DejaVuSans-55"/>
       <use x="159.033203" xlink:href="#DejaVuSans-53"/>
      </g>
     </g>
    </g>
    <g id="xtick_5">
     <g id="line2d_9">
      <path clip-path="url(#p399313844d)" d="M 307.597283 295.442275 
L 307.597283 30.2604 
" style="fill:none;stroke:#cbcbcb;"/>
     </g>
     <g id="line2d_10"/>
     <g id="text_5">
      <!-- 1.00 -->
      <g transform="translate(292.011346 309.580087)scale(0.14 -0.14)">
       <defs>
        <path d="M 12.40625 8.296875 
L 28.515625 8.296875 
L 28.515625 63.921875 
L 10.984375 60.40625 
L 10.984375 69.390625 
L 28.421875 72.90625 
L 38.28125 72.90625 
L 38.28125 8.296875 
L 54.390625 8.296875 
L 54.390625 0 
L 12.40625 0 
z
" id="DejaVuSans-49"/>
       </defs>
       <use xlink:href="#DejaVuSans-49"/>
       <use x="63.623047" xlink:href="#DejaVuSans-46"/>
       <use x="95.410156" xlink:href="#DejaVuSans-48"/>
       <use x="159.033203" xlink:href="#DejaVuSans-48"/>
      </g>
     </g>
    </g>
    <g id="text_6">
     <!-- độ gồ ghề (chuẩn hoá) -->
     <g transform="translate(102.969562 330.9764)scale(0.168 -0.168)">
      <defs>
       <path d="M 45.40625 46.390625 
L 45.40625 62.703125 
L 29.5 62.703125 
L 29.5 68.796875 
L 45.40625 68.796875 
L 45.40625 75.984375 
L 54.390625 75.984375 
L 54.390625 68.796875 
L 61.921875 68.796875 
L 61.921875 62.703125 
L 54.390625 62.703125 
L 54.390625 0 
L 45.40625 0 
L 45.40625 8.203125 
Q 42.578125 3.328125 38.25 0.953125 
Q 33.9375 -1.421875 27.875 -1.421875 
Q 17.96875 -1.421875 11.734375 6.484375 
Q 5.515625 14.40625 5.515625 27.296875 
Q 5.515625 40.1875 11.734375 48.09375 
Q 17.96875 56 27.875 56 
Q 33.9375 56 38.25 53.625 
Q 42.578125 51.265625 45.40625 46.390625 
z
M 14.796875 27.296875 
Q 14.796875 17.390625 18.875 11.75 
Q 22.953125 6.109375 30.078125 6.109375 
Q 37.203125 6.109375 41.296875 11.75 
Q 45.40625 17.390625 45.40625 27.296875 
Q 45.40625 37.203125 41.296875 42.84375 
Q 37.203125 48.484375 30.078125 48.484375 
Q 22.953125 48.484375 18.875 42.84375 
Q 14.796875 37.203125 14.796875 27.296875 
z
" id="DejaVuSans-273"/>
       <path d="M 26.03125 -6.890625 
L 35.015625 -6.890625 
L 35.015625 -18.3125 
L 26.03125 -18.3125 
z
M 30.609375 48.390625 
Q 23.390625 48.390625 19.1875 42.75 
Q 14.984375 37.109375 14.984375 27.296875 
Q 14.984375 17.484375 19.15625 11.84375 
Q 23.34375 6.203125 30.609375 6.203125 
Q 37.796875 6.203125 41.984375 11.859375 
Q 46.1875 17.53125 46.1875 27.296875 
Q 46.1875 37.015625 41.984375 42.703125 
Q 37.796875 48.390625 30.609375 48.390625 
z
M 30.609375 56 
Q 42.328125 56 49.015625 48.375 
Q 55.71875 40.765625 55.71875 27.296875 
Q 55.71875 13.875 49.015625 6.21875 
Q 42.328125 -1.421875 30.609375 -1.421875 
Q 18.84375 -1.421875 12.171875 6.21875 
Q 5.515625 13.875 5.515625 27.296875 
Q 5.515625 40.765625 12.171875 48.375 
Q 18.84375 56 30.609375 56 
z
M 26.03125 -6.890625 
L 35.015625 -6.890625 
L 35.015625 -18.3125 
L 26.03125 -18.3125 
z
M 27 79.984375 
L 34.234375 79.984375 
L 46.1875 61.625 
L 39.40625 61.625 
L 30.609375 73.578125 
L 21.828125 61.625 
L 15.046875 61.625 
z
" id="DejaVuSans-7897"/>
       <path id="DejaVuSans-32"/>
       <path d="M 45.40625 27.984375 
Q 45.40625 37.75 41.375 43.109375 
Q 37.359375 48.484375 30.078125 48.484375 
Q 22.859375 48.484375 18.828125 43.109375 
Q 14.796875 37.75 14.796875 27.984375 
Q 14.796875 18.265625 18.828125 12.890625 
Q 22.859375 7.515625 30.078125 7.515625 
Q 37.359375 7.515625 41.375 12.890625 
Q 45.40625 18.265625 45.40625 27.984375 
z
M 54.390625 6.78125 
Q 54.390625 -7.171875 48.1875 -13.984375 
Q 42 -20.796875 29.203125 -20.796875 
Q 24.46875 -20.796875 20.265625 -20.09375 
Q 16.0625 -19.390625 12.109375 -17.921875 
L 12.109375 -9.1875 
Q 16.0625 -11.328125 19.921875 -12.34375 
Q 23.78125 -13.375 27.78125 -13.375 
Q 36.625 -13.375 41.015625 -8.765625 
Q 45.40625 -4.15625 45.40625 5.171875 
L 45.40625 9.625 
Q 42.625 4.78125 38.28125 2.390625 
Q 33.9375 0 27.875 0 
Q 17.828125 0 11.671875 7.65625 
Q 5.515625 15.328125 5.515625 27.984375 
Q 5.515625 40.671875 11.671875 48.328125 
Q 17.828125 56 27.875 56 
Q 33.9375 56 38.28125 53.609375 
Q 42.625 51.21875 45.40625 46.390625 
L 45.40625 54.6875 
L 54.390625 54.6875 
z
" id="DejaVuSans-103"/>
       <path d="M 42.09375 84.671875 
L 51.65625 71.78125 
L 44.1875 71.78125 
L 32.953125 84.671875 
z
M 25.921875 74.65625 
L 35.109375 74.65625 
L 45.40625 61.671875 
L 38.625 61.671875 
L 30.515625 70.359375 
L 22.40625 61.671875 
L 15.625 61.671875 
z
M 30.609375 48.390625 
Q 23.390625 48.390625 19.1875 42.75 
Q 14.984375 37.109375 14.984375 27.296875 
Q 14.984375 17.484375 19.15625 11.84375 
Q 23.34375 6.203125 30.609375 6.203125 
Q 37.796875 6.203125 41.984375 11.859375 
Q 46.1875 17.53125 46.1875 27.296875 
Q 46.1875 37.015625 41.984375 42.703125 
Q 37.796875 48.390625 30.609375 48.390625 
z
M 30.609375 56 
Q 42.328125 56 49.015625 48.375 
Q 55.71875 40.765625 55.71875 27.296875 
Q 55.71875 13.875 49.015625 6.21875 
Q 42.328125 -1.421875 30.609375 -1.421875 
Q 18.84375 -1.421875 12.171875 6.21875 
Q 5.515625 13.875 5.515625 27.296875 
Q 5.515625 40.765625 12.171875 48.375 
Q 18.84375 56 30.609375 56 
z
" id="DejaVuSans-7891"/>
       <path d="M 54.890625 33.015625 
L 54.890625 0 
L 45.90625 0 
L 45.90625 32.71875 
Q 45.90625 40.484375 42.875 44.328125 
Q 39.84375 48.1875 33.796875 48.1875 
Q 26.515625 48.1875 22.3125 43.546875 
Q 18.109375 38.921875 18.109375 30.90625 
L 18.109375 0 
L 9.078125 0 
L 9.078125 75.984375 
L 18.109375 75.984375 
L 18.109375 46.1875 
Q 21.34375 51.125 25.703125 53.5625 
Q 30.078125 56 35.796875 56 
Q 45.21875 56 50.046875 50.171875 
Q 54.890625 44.34375 54.890625 33.015625 
z
" id="DejaVuSans-104"/>
       <path d="M 43.40625 84.671875 
L 52.984375 71.78125 
L 45.515625 71.78125 
L 34.28125 84.671875 
z
M 27.25 74.65625 
L 36.421875 74.65625 
L 46.734375 61.671875 
L 39.9375 61.671875 
L 31.84375 70.359375 
L 23.734375 61.671875 
L 16.9375 61.671875 
z
M 56.203125 29.59375 
L 56.203125 25.203125 
L 14.890625 25.203125 
Q 15.484375 15.921875 20.484375 11.0625 
Q 25.484375 6.203125 34.421875 6.203125 
Q 39.59375 6.203125 44.453125 7.46875 
Q 49.3125 8.734375 54.109375 11.28125 
L 54.109375 2.78125 
Q 49.265625 0.734375 44.1875 -0.34375 
Q 39.109375 -1.421875 33.890625 -1.421875 
Q 20.796875 -1.421875 13.15625 6.1875 
Q 5.515625 13.8125 5.515625 26.8125 
Q 5.515625 40.234375 12.765625 48.109375 
Q 20.015625 56 32.328125 56 
Q 43.359375 56 49.78125 48.890625 
Q 56.203125 41.796875 56.203125 29.59375 
z
M 47.21875 32.234375 
Q 47.125 39.59375 43.09375 43.984375 
Q 39.0625 48.390625 32.421875 48.390625 
Q 24.90625 48.390625 20.390625 44.140625 
Q 15.875 39.890625 15.1875 32.171875 
z
" id="DejaVuSans-7873"/>
       <path d="M 31 75.875 
Q 24.46875 64.65625 21.28125 53.65625 
Q 18.109375 42.671875 18.109375 31.390625 
Q 18.109375 20.125 21.3125 9.0625 
Q 24.515625 -2 31 -13.1875 
L 23.1875 -13.1875 
Q 15.875 -1.703125 12.234375 9.375 
Q 8.59375 20.453125 8.59375 31.390625 
Q 8.59375 42.28125 12.203125 53.3125 
Q 15.828125 64.359375 23.1875 75.875 
z
" id="DejaVuSans-40"/>
       <path d="M 48.78125 52.59375 
L 48.78125 44.1875 
Q 44.96875 46.296875 41.140625 47.34375 
Q 37.3125 48.390625 33.40625 48.390625 
Q 24.65625 48.390625 19.8125 42.84375 
Q 14.984375 37.3125 14.984375 27.296875 
Q 14.984375 17.28125 19.8125 11.734375 
Q 24.65625 6.203125 33.40625 6.203125 
Q 37.3125 6.203125 41.140625 7.25 
Q 44.96875 8.296875 48.78125 10.40625 
L 48.78125 2.09375 
Q 45.015625 0.34375 40.984375 -0.53125 
Q 36.96875 -1.421875 32.421875 -1.421875 
Q 20.0625 -1.421875 12.78125 6.34375 
Q 5.515625 14.109375 5.515625 27.296875 
Q 5.515625 40.671875 12.859375 48.328125 
Q 20.21875 56 33.015625 56 
Q 37.15625 56 41.109375 55.140625 
Q 45.0625 54.296875 48.78125 52.59375 
z
" id="DejaVuSans-99"/>
       <path d="M 8.5 21.578125 
L 8.5 54.6875 
L 17.484375 54.6875 
L 17.484375 21.921875 
Q 17.484375 14.15625 20.5 10.265625 
Q 23.53125 6.390625 29.59375 6.390625 
Q 36.859375 6.390625 41.078125 11.03125 
Q 45.3125 15.671875 45.3125 23.6875 
L 45.3125 54.6875 
L 54.296875 54.6875 
L 54.296875 0 
L 45.3125 0 
L 45.3125 8.40625 
Q 42.046875 3.421875 37.71875 1 
Q 33.40625 -1.421875 27.6875 -1.421875 
Q 18.265625 -1.421875 13.375 4.4375 
Q 8.5 10.296875 8.5 21.578125 
z
M 31.109375 56 
z
" id="DejaVuSans-117"/>
       <path d="M 35.796875 83.734375 
Q 41.265625 86.21875 46.390625 86.21875 
Q 51.46875 86.21875 54.5625 84.140625 
Q 57.671875 82.078125 57.671875 78.796875 
Q 57.671875 75.828125 53.375 72.65625 
L 51.21875 71.09375 
Q 49.515625 69.8125 49.3125 69.375 
Q 48.96875 68.59375 48.96875 67.03125 
L 43.171875 67.03125 
L 43.171875 67.625 
Q 43.171875 69.578125 43.890625 70.890625 
Q 44.625 72.21875 47.125 74.015625 
L 49.3125 75.671875 
Q 51.5625 77.34375 51.5625 79.296875 
Q 51.5625 80.3125 50.046875 81.1875 
Q 48.53125 82.078125 45.0625 82.078125 
Q 40.671875 82.078125 35.796875 79.53125 
z
M 24.421875 74.609375 
L 33.59375 74.609375 
L 43.890625 61.625 
L 37.109375 61.625 
L 29 70.3125 
L 20.90625 61.625 
L 14.109375 61.625 
z
M 34.28125 27.484375 
Q 23.390625 27.484375 19.1875 25 
Q 14.984375 22.515625 14.984375 16.5 
Q 14.984375 11.71875 18.140625 8.90625 
Q 21.296875 6.109375 26.703125 6.109375 
Q 34.1875 6.109375 38.703125 11.40625 
Q 43.21875 16.703125 43.21875 25.484375 
L 43.21875 27.484375 
z
M 52.203125 31.203125 
L 52.203125 0 
L 43.21875 0 
L 43.21875 8.296875 
Q 40.140625 3.328125 35.546875 0.953125 
Q 30.953125 -1.421875 24.3125 -1.421875 
Q 15.921875 -1.421875 10.953125 3.296875 
Q 6 8.015625 6 15.921875 
Q 6 25.140625 12.171875 29.828125 
Q 18.359375 34.515625 30.609375 34.515625 
L 43.21875 34.515625 
L 43.21875 35.40625 
Q 43.21875 41.609375 39.140625 45 
Q 35.0625 48.390625 27.6875 48.390625 
Q 23 48.390625 18.546875 47.265625 
Q 14.109375 46.140625 10.015625 43.890625 
L 10.015625 52.203125 
Q 14.9375 54.109375 19.578125 55.046875 
Q 24.21875 56 28.609375 56 
Q 40.484375 56 46.34375 49.84375 
Q 52.203125 43.703125 52.203125 31.203125 
z
" id="DejaVuSans-7849"/>
       <path d="M 54.890625 33.015625 
L 54.890625 0 
L 45.90625 0 
L 45.90625 32.71875 
Q 45.90625 40.484375 42.875 44.328125 
Q 39.84375 48.1875 33.796875 48.1875 
Q 26.515625 48.1875 22.3125 43.546875 
Q 18.109375 38.921875 18.109375 30.90625 
L 18.109375 0 
L 9.078125 0 
L 9.078125 54.6875 
L 18.109375 54.6875 
L 18.109375 46.1875 
Q 21.34375 51.125 25.703125 53.5625 
Q 30.078125 56 35.796875 56 
Q 45.21875 56 50.046875 50.171875 
Q 54.890625 44.34375 54.890625 33.015625 
z
" id="DejaVuSans-110"/>
       <path d="M 30.609375 48.390625 
Q 23.390625 48.390625 19.1875 42.75 
Q 14.984375 37.109375 14.984375 27.296875 
Q 14.984375 17.484375 19.15625 11.84375 
Q 23.34375 6.203125 30.609375 6.203125 
Q 37.796875 6.203125 41.984375 11.859375 
Q 46.1875 17.53125 46.1875 27.296875 
Q 46.1875 37.015625 41.984375 42.703125 
Q 37.796875 48.390625 30.609375 48.390625 
z
M 30.609375 56 
Q 42.328125 56 49.015625 48.375 
Q 55.71875 40.765625 55.71875 27.296875 
Q 55.71875 13.875 49.015625 6.21875 
Q 42.328125 -1.421875 30.609375 -1.421875 
Q 18.84375 -1.421875 12.171875 6.21875 
Q 5.515625 13.875 5.515625 27.296875 
Q 5.515625 40.765625 12.171875 48.375 
Q 18.84375 56 30.609375 56 
z
" id="DejaVuSans-111"/>
       <path d="M 34.28125 27.484375 
Q 23.390625 27.484375 19.1875 25 
Q 14.984375 22.515625 14.984375 16.5 
Q 14.984375 11.71875 18.140625 8.90625 
Q 21.296875 6.109375 26.703125 6.109375 
Q 34.1875 6.109375 38.703125 11.40625 
Q 43.21875 16.703125 43.21875 25.484375 
L 43.21875 27.484375 
z
M 52.203125 31.203125 
L 52.203125 0 
L 43.21875 0 
L 43.21875 8.296875 
Q 40.140625 3.328125 35.546875 0.953125 
Q 30.953125 -1.421875 24.3125 -1.421875 
Q 15.921875 -1.421875 10.953125 3.296875 
Q 6 8.015625 6 15.921875 
Q 6 25.140625 12.171875 29.828125 
Q 18.359375 34.515625 30.609375 34.515625 
L 43.21875 34.515625 
L 43.21875 35.40625 
Q 43.21875 41.609375 39.140625 45 
Q 35.0625 48.390625 27.6875 48.390625 
Q 23 48.390625 18.546875 47.265625 
Q 14.109375 46.140625 10.015625 43.890625 
L 10.015625 52.203125 
Q 14.9375 54.109375 19.578125 55.046875 
Q 24.21875 56 28.609375 56 
Q 40.484375 56 46.34375 49.84375 
Q 52.203125 43.703125 52.203125 31.203125 
z
M 35.796875 79.984375 
L 45.515625 79.984375 
L 29.59375 61.625 
L 22.125 61.625 
z
" id="DejaVuSans-225"/>
       <path d="M 8.015625 75.875 
L 15.828125 75.875 
Q 23.140625 64.359375 26.78125 53.3125 
Q 30.421875 42.28125 30.421875 31.390625 
Q 30.421875 20.453125 26.78125 9.375 
Q 23.140625 -1.703125 15.828125 -13.1875 
L 8.015625 -13.1875 
Q 14.5 -2 17.703125 9.0625 
Q 20.90625 20.125 20.90625 31.390625 
Q 20.90625 42.671875 17.703125 53.65625 
Q 14.5 64.65625 8.015625 75.875 
z
" id="DejaVuSans-41"/>
      </defs>
      <use xlink:href="#DejaVuSans-273"/>
      <use x="63.476562" xlink:href="#DejaVuSans-7897"/>
      <use x="124.658203" xlink:href="#DejaVuSans-32"/>
      <use x="156.445312" xlink:href="#DejaVuSans-103"/>
      <use x="219.921875" xlink:href="#DejaVuSans-7891"/>
      <use x="281.103516" xlink:href="#DejaVuSans-32"/>
      <use x="312.890625" xlink:href="#DejaVuSans-103"/>
      <use x="376.367188" xlink:href="#DejaVuSans-104"/>
      <use x="439.746094" xlink:href="#DejaVuSans-7873"/>
      <use x="501.269531" xlink:href="#DejaVuSans-32"/>
      <use x="533.056641" xlink:href="#DejaVuSans-40"/>
      <use x="572.070312" xlink:href="#DejaVuSans-99"/>
      <use x="627.050781" xlink:href="#DejaVuSans-104"/>
      <use x="690.429688" xlink:href="#DejaVuSans-117"/>
      <use x="753.808594" xlink:href="#DejaVuSans-7849"/>
      <use x="815.087891" xlink:href="#DejaVuSans-110"/>
      <use x="878.466797" xlink:href="#DejaVuSans-32"/>
      <use x="910.253906" xlink:href="#DejaVuSans-104"/>
      <use x="973.632812" xlink:href="#DejaVuSans-111"/>
      <use x="1034.814453" xlink:href="#DejaVuSans-225"/>
      <use x="1096.09375" xlink:href="#DejaVuSans-41"/>
     </g>
    </g>
   </g>
   <g id="matplotlib.axis_2">
    <g id="ytick_1">
     <g id="line2d_11">
      <path clip-path="url(#p399313844d)" d="M 54.074125 295.336044 
L 342.566 295.336044 
" style="fill:none;stroke:#cbcbcb;"/>
     </g>
     <g id="line2d_12"/>
     <g id="text_7">
      <!-- 0.7 -->
      <g transform="translate(28.30975 300.65495)scale(0.14 -0.14)">
       <use xlink:href="#DejaVuSans-48"/>
       <use x="63.623047" xlink:href="#DejaVuSans-46"/>
       <use x="95.410156" xlink:href="#DejaVuSans-55"/>
      </g>
     </g>
    </g>
    <g id="ytick_2">
     <g id="line2d_13">
      <path clip-path="url(#p399313844d)" d="M 54.074125 239.909437 
L 342.566 239.909437 
" style="fill:none;stroke:#cbcbcb;"/>
     </g>
     <g id="line2d_14"/>
     <g id="text_8">
      <!-- 0.8 -->
      <g transform="translate(28.30975 245.228343)scale(0.14 -0.14)">
       <defs>
        <path d="M 31.78125 34.625 
Q 24.75 34.625 20.71875 30.859375 
Q 16.703125 27.09375 16.703125 20.515625 
Q 16.703125 13.921875 20.71875 10.15625 
Q 24.75 6.390625 31.78125 6.390625 
Q 38.8125 6.390625 42.859375 10.171875 
Q 46.921875 13.96875 46.921875 20.515625 
Q 46.921875 27.09375 42.890625 30.859375 
Q 38.875 34.625 31.78125 34.625 
z
M 21.921875 38.8125 
Q 15.578125 40.375 12.03125 44.71875 
Q 8.5 49.078125 8.5 55.328125 
Q 8.5 64.0625 14.71875 69.140625 
Q 20.953125 74.21875 31.78125 74.21875 
Q 42.671875 74.21875 48.875 69.140625 
Q 55.078125 64.0625 55.078125 55.328125 
Q 55.078125 49.078125 51.53125 44.71875 
Q 48 40.375 41.703125 38.8125 
Q 48.828125 37.15625 52.796875 32.3125 
Q 56.78125 27.484375 56.78125 20.515625 
Q 56.78125 9.90625 50.3125 4.234375 
Q 43.84375 -1.421875 31.78125 -1.421875 
Q 19.734375 -1.421875 13.25 4.234375 
Q 6.78125 9.90625 6.78125 20.515625 
Q 6.78125 27.484375 10.78125 32.3125 
Q 14.796875 37.15625 21.921875 38.8125 
z
M 18.3125 54.390625 
Q 18.3125 48.734375 21.84375 45.5625 
Q 25.390625 42.390625 31.78125 42.390625 
Q 38.140625 42.390625 41.71875 45.5625 
Q 45.3125 48.734375 45.3125 54.390625 
Q 45.3125 60.0625 41.71875 63.234375 
Q 38.140625 66.40625 31.78125 66.40625 
Q 25.390625 66.40625 21.84375 63.234375 
Q 18.3125 60.0625 18.3125 54.390625 
z
" id="DejaVuSans-56"/>
       </defs>
       <use xlink:href="#DejaVuSans-48"/>
       <use x="63.623047" xlink:href="#DejaVuSans-46"/>
       <use x="95.410156" xlink:href="#DejaVuSans-56"/>
      </g>
     </g>
    </g>
    <g id="ytick_3">
     <g id="line2d_15">
      <path clip-path="url(#p399313844d)" d="M 54.074125 184.48283 
L 342.566 184.48283 
" style="fill:none;stroke:#cbcbcb;"/>
     </g>
     <g id="line2d_16"/>
     <g id="text_9">
      <!-- 0.9 -->
      <g transform="translate(28.30975 189.801736)scale(0.14 -0.14)">
       <defs>
        <path d="M 10.984375 1.515625 
L 10.984375 10.5 
Q 14.703125 8.734375 18.5 7.8125 
Q 22.3125 6.890625 25.984375 6.890625 
Q 35.75 6.890625 40.890625 13.453125 
Q 46.046875 20.015625 46.78125 33.40625 
Q 43.953125 29.203125 39.59375 26.953125 
Q 35.25 24.703125 29.984375 24.703125 
Q 19.046875 24.703125 12.671875 31.3125 
Q 6.296875 37.9375 6.296875 49.421875 
Q 6.296875 60.640625 12.9375 67.421875 
Q 19.578125 74.21875 30.609375 74.21875 
Q 43.265625 74.21875 49.921875 64.515625 
Q 56.59375 54.828125 56.59375 36.375 
Q 56.59375 19.140625 48.40625 8.859375 
Q 40.234375 -1.421875 26.421875 -1.421875 
Q 22.703125 -1.421875 18.890625 -0.6875 
Q 15.09375 0.046875 10.984375 1.515625 
z
M 30.609375 32.421875 
Q 37.25 32.421875 41.125 36.953125 
Q 45.015625 41.5 45.015625 49.421875 
Q 45.015625 57.28125 41.125 61.84375 
Q 37.25 66.40625 30.609375 66.40625 
Q 23.96875 66.40625 20.09375 61.84375 
Q 16.21875 57.28125 16.21875 49.421875 
Q 16.21875 41.5 20.09375 36.953125 
Q 23.96875 32.421875 30.609375 32.421875 
z
" id="DejaVuSans-57"/>
       </defs>
       <use xlink:href="#DejaVuSans-48"/>
       <use x="63.623047" xlink:href="#DejaVuSans-46"/>
       <use x="95.410156" xlink:href="#DejaVuSans-57"/>
      </g>
     </g>
    </g>
    <g id="ytick_4">
     <g id="line2d_17">
      <path clip-path="url(#p399313844d)" d="M 54.074125 129.056223 
L 342.566 129.056223 
" style="fill:none;stroke:#cbcbcb;"/>
     </g>
     <g id="line2d_18"/>
     <g id="text_10">
      <!-- 1.0 -->
      <g transform="translate(28.30975 134.375129)scale(0.14 -0.14)">
       <use xlink:href="#DejaVuSans-49"/>
       <use x="63.623047" xlink:href="#DejaVuSans-46"/>
       <use x="95.410156" xlink:href="#DejaVuSans-48"/>
      </g>
     </g>
    </g>
    <g id="ytick_5">
     <g id="line2d_19">
      <path clip-path="url(#p399313844d)" d="M 54.074125 73.629616 
L 342.566 73.629616 
" style="fill:none;stroke:#cbcbcb;"/>
     </g>
     <g id="line2d_20"/>
     <g id="text_11">
      <!-- 1.1 -->
      <g transform="translate(28.30975 78.948522)scale(0.14 -0.14)">
       <use xlink:href="#DejaVuSans-49"/>
       <use x="63.623047" xlink:href="#DejaVuSans-46"/>
       <use x="95.410156" xlink:href="#DejaVuSans-49"/>
      </g>
     </g>
    </g>
    <g id="text_12">
     <!-- log GDP (tỉ lệ với trung bình) -->
     <g transform="translate(20.815875 282.884712)rotate(-90)scale(0.168 -0.168)">
      <defs>
       <path d="M 9.421875 75.984375 
L 18.40625 75.984375 
L 18.40625 0 
L 9.421875 0 
z
" id="DejaVuSans-108"/>
       <path d="M 59.515625 10.40625 
L 59.515625 29.984375 
L 43.40625 29.984375 
L 43.40625 38.09375 
L 69.28125 38.09375 
L 69.28125 6.78125 
Q 63.578125 2.734375 56.6875 0.65625 
Q 49.8125 -1.421875 42 -1.421875 
Q 24.90625 -1.421875 15.25 8.5625 
Q 5.609375 18.5625 5.609375 36.375 
Q 5.609375 54.25 15.25 64.234375 
Q 24.90625 74.21875 42 74.21875 
Q 49.125 74.21875 55.546875 72.453125 
Q 61.96875 70.703125 67.390625 67.28125 
L 67.390625 56.78125 
Q 61.921875 61.421875 55.765625 63.765625 
Q 49.609375 66.109375 42.828125 66.109375 
Q 29.4375 66.109375 22.71875 58.640625 
Q 16.015625 51.171875 16.015625 36.375 
Q 16.015625 21.625 22.71875 14.15625 
Q 29.4375 6.6875 42.828125 6.6875 
Q 48.046875 6.6875 52.140625 7.59375 
Q 56.25 8.5 59.515625 10.40625 
z
" id="DejaVuSans-71"/>
       <path d="M 19.671875 64.796875 
L 19.671875 8.109375 
L 31.59375 8.109375 
Q 46.6875 8.109375 53.6875 14.9375 
Q 60.6875 21.78125 60.6875 36.53125 
Q 60.6875 51.171875 53.6875 57.984375 
Q 46.6875 64.796875 31.59375 64.796875 
z
M 9.8125 72.90625 
L 30.078125 72.90625 
Q 51.265625 72.90625 61.171875 64.09375 
Q 71.09375 55.28125 71.09375 36.53125 
Q 71.09375 17.671875 61.125 8.828125 
Q 51.171875 0 30.078125 0 
L 9.8125 0 
z
" id="DejaVuSans-68"/>
       <path d="M 19.671875 64.796875 
L 19.671875 37.40625 
L 32.078125 37.40625 
Q 38.96875 37.40625 42.71875 40.96875 
Q 46.484375 44.53125 46.484375 51.125 
Q 46.484375 57.671875 42.71875 61.234375 
Q 38.96875 64.796875 32.078125 64.796875 
z
M 9.8125 72.90625 
L 32.078125 72.90625 
Q 44.34375 72.90625 50.609375 67.359375 
Q 56.890625 61.8125 56.890625 51.125 
Q 56.890625 40.328125 50.609375 34.8125 
Q 44.34375 29.296875 32.078125 29.296875 
L 19.671875 29.296875 
L 19.671875 0 
L 9.8125 0 
z
" id="DejaVuSans-80"/>
       <path d="M 18.3125 70.21875 
L 18.3125 54.6875 
L 36.8125 54.6875 
L 36.8125 47.703125 
L 18.3125 47.703125 
L 18.3125 18.015625 
Q 18.3125 11.328125 20.140625 9.421875 
Q 21.96875 7.515625 27.59375 7.515625 
L 36.8125 7.515625 
L 36.8125 0 
L 27.59375 0 
Q 17.1875 0 13.234375 3.875 
Q 9.28125 7.765625 9.28125 18.015625 
L 9.28125 47.703125 
L 2.6875 47.703125 
L 2.6875 54.6875 
L 9.28125 54.6875 
L 9.28125 70.21875 
z
" id="DejaVuSans-116"/>
       <path d="M 9.421875 54.6875 
L 18.40625 54.6875 
L 18.40625 0 
L 9.421875 0 
z
M 13.921875 56 
z
M 3.328125 78.5625 
Q 8.796875 81.046875 13.921875 81.046875 
Q 19 81.046875 22.09375 78.96875 
Q 25.203125 76.90625 25.203125 73.625 
Q 25.203125 70.65625 20.90625 67.484375 
L 18.75 65.921875 
Q 17.046875 64.640625 16.84375 64.203125 
Q 16.5 63.421875 16.5 61.859375 
L 10.6875 61.859375 
L 10.6875 62.453125 
Q 10.6875 64.40625 11.421875 65.71875 
Q 12.15625 67.046875 14.65625 68.84375 
L 16.84375 70.5 
Q 19.09375 72.171875 19.09375 74.125 
Q 19.09375 75.140625 17.578125 76.015625 
Q 16.0625 76.90625 12.59375 76.90625 
Q 8.203125 76.90625 3.328125 74.359375 
z
" id="DejaVuSans-7881"/>
       <path d="M 27.203125 -6.890625 
L 36.1875 -6.890625 
L 36.1875 -18.3125 
L 27.203125 -18.3125 
z
M 56.203125 29.59375 
L 56.203125 25.203125 
L 14.890625 25.203125 
Q 15.484375 15.921875 20.484375 11.0625 
Q 25.484375 6.203125 34.421875 6.203125 
Q 39.59375 6.203125 44.453125 7.46875 
Q 49.3125 8.734375 54.109375 11.28125 
L 54.109375 2.78125 
Q 49.265625 0.734375 44.1875 -0.34375 
Q 39.109375 -1.421875 33.890625 -1.421875 
Q 20.796875 -1.421875 13.15625 6.1875 
Q 5.515625 13.8125 5.515625 26.8125 
Q 5.515625 40.234375 12.765625 48.109375 
Q 20.015625 56 32.328125 56 
Q 43.359375 56 49.78125 48.890625 
Q 56.203125 41.796875 56.203125 29.59375 
z
M 47.21875 32.234375 
Q 47.125 39.59375 43.09375 43.984375 
Q 39.0625 48.390625 32.421875 48.390625 
Q 24.90625 48.390625 20.390625 44.140625 
Q 15.875 39.890625 15.1875 32.171875 
z
M 27.203125 -6.890625 
L 36.1875 -6.890625 
L 36.1875 -18.3125 
L 27.203125 -18.3125 
z
M 28.171875 79.984375 
L 35.40625 79.984375 
L 47.359375 61.625 
L 40.578125 61.625 
L 31.78125 73.578125 
L 23 61.625 
L 16.21875 61.625 
z
" id="DejaVuSans-7879"/>
       <path d="M 2.984375 54.6875 
L 12.5 54.6875 
L 29.59375 8.796875 
L 46.6875 54.6875 
L 56.203125 54.6875 
L 35.6875 0 
L 23.484375 0 
z
" id="DejaVuSans-118"/>
       <path d="M 37.40625 79.984375 
L 47.125 79.984375 
L 31.203125 61.625 
L 23.734375 61.625 
z
M 41.015625 48.53125 
L 41.015625 54.34375 
Q 44 52.140625 46.140625 51.09375 
Q 48.296875 50.046875 49.8125 50.046875 
Q 52.046875 50.046875 53.171875 51.390625 
Q 54.296875 52.734375 54.296875 55.359375 
Q 54.296875 56.921875 53.921875 58.4375 
Q 53.5625 59.953125 52.828125 61.46875 
L 59.328125 61.46875 
Q 59.8125 59.609375 60.046875 57.953125 
Q 60.296875 56.296875 60.296875 54.828125 
Q 60.296875 48.875 58.171875 46.0625 
Q 56.0625 43.25 51.515625 43.25 
Q 49.171875 43.25 46.609375 44.546875 
Q 44.046875 45.84375 41.015625 48.53125 
z
M 30.859375 48.390625 
Q 23.640625 48.390625 19.4375 42.75 
Q 15.234375 37.109375 15.234375 27.296875 
Q 15.234375 17.484375 19.40625 11.84375 
Q 23.578125 6.203125 30.859375 6.203125 
Q 38.03125 6.203125 42.234375 11.859375 
Q 46.4375 17.53125 46.4375 27.296875 
Q 46.4375 37.015625 42.234375 42.703125 
Q 38.03125 48.390625 30.859375 48.390625 
z
M 30.859375 56 
Q 42.578125 56 49.265625 48.375 
Q 55.953125 40.765625 55.953125 27.296875 
Q 55.953125 13.875 49.265625 6.21875 
Q 42.578125 -1.421875 30.859375 -1.421875 
Q 19.09375 -1.421875 12.421875 6.21875 
Q 5.765625 13.875 5.765625 27.296875 
Q 5.765625 40.765625 12.421875 48.375 
Q 19.09375 56 30.859375 56 
z
" id="DejaVuSans-7899"/>
       <path d="M 9.421875 54.6875 
L 18.40625 54.6875 
L 18.40625 0 
L 9.421875 0 
z
M 9.421875 75.984375 
L 18.40625 75.984375 
L 18.40625 64.59375 
L 9.421875 64.59375 
z
" id="DejaVuSans-105"/>
       <path d="M 41.109375 46.296875 
Q 39.59375 47.171875 37.8125 47.578125 
Q 36.03125 48 33.890625 48 
Q 26.265625 48 22.1875 43.046875 
Q 18.109375 38.09375 18.109375 28.8125 
L 18.109375 0 
L 9.078125 0 
L 9.078125 54.6875 
L 18.109375 54.6875 
L 18.109375 46.1875 
Q 20.953125 51.171875 25.484375 53.578125 
Q 30.03125 56 36.53125 56 
Q 37.453125 56 38.578125 55.875 
Q 39.703125 55.765625 41.0625 55.515625 
z
" id="DejaVuSans-114"/>
       <path d="M 48.6875 27.296875 
Q 48.6875 37.203125 44.609375 42.84375 
Q 40.53125 48.484375 33.40625 48.484375 
Q 26.265625 48.484375 22.1875 42.84375 
Q 18.109375 37.203125 18.109375 27.296875 
Q 18.109375 17.390625 22.1875 11.75 
Q 26.265625 6.109375 33.40625 6.109375 
Q 40.53125 6.109375 44.609375 11.75 
Q 48.6875 17.390625 48.6875 27.296875 
z
M 18.109375 46.390625 
Q 20.953125 51.265625 25.265625 53.625 
Q 29.59375 56 35.59375 56 
Q 45.5625 56 51.78125 48.09375 
Q 58.015625 40.1875 58.015625 27.296875 
Q 58.015625 14.40625 51.78125 6.484375 
Q 45.5625 -1.421875 35.59375 -1.421875 
Q 29.59375 -1.421875 25.265625 0.953125 
Q 20.953125 3.328125 18.109375 8.203125 
L 18.109375 0 
L 9.078125 0 
L 9.078125 75.984375 
L 18.109375 75.984375 
z
" id="DejaVuSans-98"/>
       <path d="M 6.84375 79.984375 
L 20.609375 61.71875 
L 13.140625 61.71875 
L -2.78125 79.984375 
z
M 9.421875 54.6875 
L 18.40625 54.6875 
L 18.40625 0 
L 9.421875 0 
z
M 13.921875 56 
z
" id="DejaVuSans-236"/>
      </defs>
      <use xlink:href="#DejaVuSans-108"/>
      <use x="27.783203" xlink:href="#DejaVuSans-111"/>
      <use x="88.964844" xlink:href="#DejaVuSans-103"/>
      <use x="152.441406" xlink:href="#DejaVuSans-32"/>
      <use x="184.228516" xlink:href="#DejaVuSans-71"/>
      <use x="261.71875" xlink:href="#DejaVuSans-68"/>
      <use x="338.720703" xlink:href="#DejaVuSans-80"/>
      <use x="399.023438" xlink:href="#DejaVuSans-32"/>
      <use x="430.810547" xlink:href="#DejaVuSans-40"/>
      <use x="469.824219" xlink:href="#DejaVuSans-116"/>
      <use x="509.033203" xlink:href="#DejaVuSans-7881"/>
      <use x="536.816406" xlink:href="#DejaVuSans-32"/>
      <use x="568.603516" xlink:href="#DejaVuSans-108"/>
      <use x="596.386719" xlink:href="#DejaVuSans-7879"/>
      <use x="657.910156" xlink:href="#DejaVuSans-32"/>
      <use x="689.697266" xlink:href="#DejaVuSans-118"/>
      <use x="748.876953" xlink:href="#DejaVuSans-7899"/>
      <use x="810.058594" xlink:href="#DejaVuSans-105"/>
      <use x="837.841797" xlink:href="#DejaVuSans-32"/>
      <use x="869.628906" xlink:href="#DejaVuSans-116"/>
      <use x="908.837891" xlink:href="#DejaVuSans-114"/>
      <use x="949.951172" xlink:href="#DejaVuSans-117"/>
      <use x="1013.330078" xlink:href="#DejaVuSans-110"/>
      <use x="1076.708984" xlink:href="#DejaVuSans-103"/>
      <use x="1140.185547" xlink:href="#DejaVuSans-32"/>
      <use x="1171.972656" xlink:href="#DejaVuSans-98"/>
      <use x="1235.449219" xlink:href="#DejaVuSans-236"/>
      <use x="1263.232422" xlink:href="#DejaVuSans-110"/>
      <use x="1326.611328" xlink:href="#DejaVuSans-104"/>
      <use x="1389.990234" xlink:href="#DejaVuSans-41"/>
     </g>
    </g>
   </g>
   <g id="PathCollection_1">
    <defs>
     <path d="M 0 3 
C 0.795609 3 1.55874 2.683901 2.12132 2.12132 
C 2.683901 1.55874 3 0.795609 3 0 
C 3 -0.795609 2.683901 -1.55874 2.12132 -2.12132 
C 1.55874 -2.683901 0.795609 -3 0 -3 
C -0.795609 -3 -1.55874 -2.683901 -2.12132 -2.12132 
C -2.683901 -1.55874 -3 -0.795609 -3 0 
C -3 0.795609 -2.683901 1.55874 -2.12132 2.12132 
C -1.55874 2.683901 -0.795609 3 0 3 
z
" id="m826d941fbb" style="stroke:#008fd5;stroke-width:0.5;"/>
    </defs>
    <g clip-path="url(#p399313844d)">
     <use style="fill:#008fd5;stroke:#008fd5;stroke-width:0.5;" x="119.278199" xlink:href="#m826d941fbb" y="195.727854"/>
     <use style="fill:#008fd5;stroke:#008fd5;stroke-width:0.5;" x="151.768879" xlink:href="#m826d941fbb" y="264.724071"/>
     <use style="fill:#008fd5;stroke:#008fd5;stroke-width:0.5;" x="94.011585" xlink:href="#m826d941fbb" y="236.497558"/>
     <use style="fill:#008fd5;stroke:#008fd5;stroke-width:0.5;" x="97.359323" xlink:href="#m826d941fbb" y="233.891399"/>
     <use style="fill:#008fd5;stroke:#008fd5;stroke-width:0.5;" x="95.421159" xlink:href="#m826d941fbb" y="100.931119"/>
     <use style="fill:#008fd5;stroke:#008fd5;stroke-width:0.5;" x="95.984989" xlink:href="#m826d941fbb" y="224.803372"/>
     <use style="fill:#008fd5;stroke:#008fd5;stroke-width:0.5;" x="96.936451" xlink:href="#m826d941fbb" y="204.20085"/>
     <use style="fill:#008fd5;stroke:#008fd5;stroke-width:0.5;" x="107.191102" xlink:href="#m826d941fbb" y="192.614195"/>
     <use style="fill:#008fd5;stroke:#008fd5;stroke-width:0.5;" x="104.653869" xlink:href="#m826d941fbb" y="259.979994"/>
     <use style="fill:#008fd5;stroke:#008fd5;stroke-width:0.5;" x="94.399218" xlink:href="#m826d941fbb" y="236.621082"/>
     <use style="fill:#008fd5;stroke:#008fd5;stroke-width:0.5;" x="206.319392" xlink:href="#m826d941fbb" y="196.622745"/>
     <use style="fill:#008fd5;stroke:#008fd5;stroke-width:0.5;" x="172.454377" xlink:href="#m826d941fbb" y="130.911386"/>
     <use style="fill:#008fd5;stroke:#008fd5;stroke-width:0.5;" x="174.744935" xlink:href="#m826d941fbb" y="192.639087"/>
     <use style="fill:#008fd5;stroke:#008fd5;stroke-width:0.5;" x="107.014905" xlink:href="#m826d941fbb" y="123.827443"/>
     <use style="fill:#008fd5;stroke:#008fd5;stroke-width:0.5;" x="114.520887" xlink:href="#m826d941fbb" y="150.459476"/>
     <use style="fill:#008fd5;stroke:#008fd5;stroke-width:0.5;" x="176.471663" xlink:href="#m826d941fbb" y="239.791075"/>
     <use style="fill:#008fd5;stroke:#008fd5;stroke-width:0.5;" x="144.368616" xlink:href="#m826d941fbb" y="263.260224"/>
     <use style="fill:#008fd5;stroke:#008fd5;stroke-width:0.5;" x="96.725015" xlink:href="#m826d941fbb" y="115.911946"/>
     <use style="fill:#008fd5;stroke:#008fd5;stroke-width:0.5;" x="97.077409" xlink:href="#m826d941fbb" y="192.26529"/>
     <use style="fill:#008fd5;stroke:#008fd5;stroke-width:0.5;" x="115.119956" xlink:href="#m826d941fbb" y="189.47292"/>
     <use style="fill:#008fd5;stroke:#008fd5;stroke-width:0.5;" x="101.482327" xlink:href="#m826d941fbb" y="198.186113"/>
     <use style="fill:#008fd5;stroke:#008fd5;stroke-width:0.5;" x="106.345358" xlink:href="#m826d941fbb" y="249.750954"/>
     <use style="fill:#008fd5;stroke:#008fd5;stroke-width:0.5;" x="108.741633" xlink:href="#m826d941fbb" y="56.740054"/>
     <use style="fill:#008fd5;stroke:#008fd5;stroke-width:0.5;" x="112.617962" xlink:href="#m826d941fbb" y="232.58056"/>
     <use style="fill:#008fd5;stroke:#008fd5;stroke-width:0.5;" x="307.597283" xlink:href="#m826d941fbb" y="184.810496"/>
     <use style="fill:#008fd5;stroke:#008fd5;stroke-width:0.5;" x="174.075388" xlink:href="#m826d941fbb" y="152.005818"/>
     <use style="fill:#008fd5;stroke:#008fd5;stroke-width:0.5;" x="130.237637" xlink:href="#m826d941fbb" y="246.287924"/>
     <use style="fill:#008fd5;stroke:#008fd5;stroke-width:0.5;" x="94.223021" xlink:href="#m826d941fbb" y="249.990918"/>
     <use style="fill:#008fd5;stroke:#008fd5;stroke-width:0.5;" x="110.609319" xlink:href="#m826d941fbb" y="242.33924"/>
     <use style="fill:#008fd5;stroke:#008fd5;stroke-width:0.5;" x="93.095362" xlink:href="#m826d941fbb" y="198.148092"/>
     <use style="fill:#008fd5;stroke:#008fd5;stroke-width:0.5;" x="122.48498" xlink:href="#m826d941fbb" y="86.447686"/>
     <use style="fill:#008fd5;stroke:#008fd5;stroke-width:0.5;" x="125.233649" xlink:href="#m826d941fbb" y="268.539566"/>
     <use style="fill:#008fd5;stroke:#008fd5;stroke-width:0.5;" x="121.216363" xlink:href="#m826d941fbb" y="116.5619"/>
     <use style="fill:#008fd5;stroke:#008fd5;stroke-width:0.5;" x="95.315441" xlink:href="#m826d941fbb" y="256.708116"/>
     <use style="fill:#008fd5;stroke:#008fd5;stroke-width:0.5;" x="100.037514" xlink:href="#m826d941fbb" y="241.915961"/>
     <use style="fill:#008fd5;stroke:#008fd5;stroke-width:0.5;" x="205.649845" xlink:href="#m826d941fbb" y="231.287712"/>
     <use style="fill:#008fd5;stroke:#008fd5;stroke-width:0.5;" x="104.61863" xlink:href="#m826d941fbb" y="199.92334"/>
     <use style="fill:#008fd5;stroke:#008fd5;stroke-width:0.5;" x="97.641238" xlink:href="#m826d941fbb" y="210.281094"/>
     <use style="fill:#008fd5;stroke:#008fd5;stroke-width:0.5;" x="106.592033" xlink:href="#m826d941fbb" y="283.388553"/>
     <use style="fill:#008fd5;stroke:#008fd5;stroke-width:0.5;" x="196.980965" xlink:href="#m826d941fbb" y="133.335367"/>
     <use style="fill:#008fd5;stroke:#008fd5;stroke-width:0.5;" x="261.18706" xlink:href="#m826d941fbb" y="45.846266"/>
     <use style="fill:#008fd5;stroke:#008fd5;stroke-width:0.5;" x="103.808124" xlink:href="#m826d941fbb" y="246.61157"/>
     <use style="fill:#008fd5;stroke:#008fd5;stroke-width:0.5;" x="98.909855" xlink:href="#m826d941fbb" y="210.200743"/>
     <use style="fill:#008fd5;stroke:#008fd5;stroke-width:0.5;" x="114.626605" xlink:href="#m826d941fbb" y="114.513698"/>
     <use style="fill:#008fd5;stroke:#008fd5;stroke-width:0.5;" x="112.899877" xlink:href="#m826d941fbb" y="276.115382"/>
     <use style="fill:#008fd5;stroke:#008fd5;stroke-width:0.5;" x="121.216363" xlink:href="#m826d941fbb" y="219.605335"/>
     <use style="fill:#008fd5;stroke:#008fd5;stroke-width:0.5;" x="151.099332" xlink:href="#m826d941fbb" y="87.837951"/>
     <use style="fill:#008fd5;stroke:#008fd5;stroke-width:0.5;" x="107.82541" xlink:href="#m826d941fbb" y="250.458971"/>
     <use style="fill:#008fd5;stroke:#008fd5;stroke-width:0.5;" x="131.11862" xlink:href="#m826d941fbb" y="174.179478"/>
    </g>
   </g>
   <g id="PolyCollection_1">
    <defs>
     <path d="M 67.187392 -156.62161 
L 67.187392 -93.824803 
L 76.231025 -99.886434 
L 85.274656 -105.984802 
L 94.31829 -111.589302 
L 103.361923 -117.26764 
L 112.405556 -122.584687 
L 121.44919 -126.293864 
L 130.492814 -129.001266 
L 139.536451 -132.308484 
L 148.580082 -133.617899 
L 157.623719 -135.043636 
L 166.66735 -136.023046 
L 175.710987 -136.413046 
L 184.754617 -136.772685 
L 193.798242 -137.044347 
L 202.841866 -136.865419 
L 211.885516 -137.075831 
L 220.92914 -137.19298 
L 229.972777 -137.229155 
L 239.016401 -137.598408 
L 248.060051 -137.481094 
L 257.103662 -137.607228 
L 266.147312 -137.737129 
L 275.190936 -137.474387 
L 284.234587 -137.001928 
L 293.278198 -136.529402 
L 302.321848 -136.056942 
L 311.365485 -135.710485 
L 320.409096 -135.557359 
L 329.452733 -135.406116 
L 329.452733 -299.356153 
L 329.452733 -299.356153 
L 320.409096 -292.037174 
L 311.365485 -284.803627 
L 302.321848 -278.316779 
L 293.278198 -271.546145 
L 284.234587 -264.915322 
L 275.190936 -258.723757 
L 266.147312 -252.385905 
L 257.103662 -245.556069 
L 248.060051 -238.213236 
L 239.016401 -230.608224 
L 229.972777 -223.520832 
L 220.92914 -218.108077 
L 211.885516 -212.745208 
L 202.841866 -207.04543 
L 193.798242 -200.591883 
L 184.754617 -194.903931 
L 175.710987 -189.677901 
L 166.66735 -184.318831 
L 157.623719 -179.532752 
L 148.580082 -174.505736 
L 139.536451 -170.29615 
L 130.492814 -167.008688 
L 121.44919 -164.098572 
L 112.405556 -161.152083 
L 103.361923 -159.200366 
L 94.31829 -157.444591 
L 85.274656 -156.613021 
L 76.231025 -157.034703 
L 67.187392 -156.62161 
z
" id="m65c384b648" style="stroke:#008fd5;stroke-opacity:0.3;stroke-width:0.5;"/>
    </defs>
    <g clip-path="url(#p399313844d)">
     <use style="fill:#008fd5;fill-opacity:0.3;stroke:#008fd5;stroke-opacity:0.3;stroke-width:0.5;" x="0" xlink:href="#m65c384b648" y="341.670275"/>
    </g>
   </g>
   <g id="line2d_21">
    <path clip-path="url(#p399313844d)" d="M 67.187392 215.201943 
L 76.231025 212.159416 
L 85.274656 209.116757 
L 94.31829 206.074065 
L 103.361923 203.031438 
L 112.405556 199.988746 
L 121.44919 196.946219 
L 130.492814 193.903494 
L 139.536451 190.860835 
L 148.580082 187.818242 
L 157.623719 184.775516 
L 166.66735 181.732956 
L 175.710987 178.69033 
L 184.754617 175.647671 
L 193.798242 172.604979 
L 202.841866 169.562319 
L 211.885516 166.519792 
L 220.92914 163.4771 
L 229.972777 160.434441 
L 239.016401 157.391749 
L 248.060051 154.349122 
L 257.103662 151.306496 
L 266.147312 148.26387 
L 275.190936 145.221145 
L 284.234587 142.178519 
L 293.278198 139.135959 
L 302.321848 136.093266 
L 311.365485 133.050607 
L 320.409096 130.007948 
L 329.452733 126.965322 
" style="fill:none;stroke:#008fd5;stroke-width:4;"/>
   </g>
   <g id="patch_3">
    <path d="M 54.074125 295.442275 
L 54.074125 30.2604 
" style="fill:none;stroke:#f0f0f0;stroke-linecap:square;stroke-linejoin:miter;stroke-width:3;"/>
   </g>
   <g id="patch_4">
    <path d="M 342.566 295.442275 
L 342.566 30.2604 
" style="fill:none;stroke:#f0f0f0;stroke-linecap:square;stroke-linejoin:miter;stroke-width:3;"/>
   </g>
   <g id="patch_5">
    <path d="M 54.074125 295.442275 
L 342.566 295.442275 
" style="fill:none;stroke:#f0f0f0;stroke-linecap:square;stroke-linejoin:miter;stroke-width:3;"/>
   </g>
   <g id="patch_6">
    <path d="M 54.074125 30.2604 
L 342.566 30.2604 
" style="fill:none;stroke:#f0f0f0;stroke-linecap:square;stroke-linejoin:miter;stroke-width:3;"/>
   </g>
   <g id="text_13">
    <!-- Angola -->
    <g transform="translate(119.278199 195.727854)scale(0.14 -0.14)">
     <defs>
      <path d="M 34.1875 63.1875 
L 20.796875 26.90625 
L 47.609375 26.90625 
z
M 28.609375 72.90625 
L 39.796875 72.90625 
L 67.578125 0 
L 57.328125 0 
L 50.6875 18.703125 
L 17.828125 18.703125 
L 11.1875 0 
L 0.78125 0 
z
" id="DejaVuSans-65"/>
      <path d="M 34.28125 27.484375 
Q 23.390625 27.484375 19.1875 25 
Q 14.984375 22.515625 14.984375 16.5 
Q 14.984375 11.71875 18.140625 8.90625 
Q 21.296875 6.109375 26.703125 6.109375 
Q 34.1875 6.109375 38.703125 11.40625 
Q 43.21875 16.703125 43.21875 25.484375 
L 43.21875 27.484375 
z
M 52.203125 31.203125 
L 52.203125 0 
L 43.21875 0 
L 43.21875 8.296875 
Q 40.140625 3.328125 35.546875 0.953125 
Q 30.953125 -1.421875 24.3125 -1.421875 
Q 15.921875 -1.421875 10.953125 3.296875 
Q 6 8.015625 6 15.921875 
Q 6 25.140625 12.171875 29.828125 
Q 18.359375 34.515625 30.609375 34.515625 
L 43.21875 34.515625 
L 43.21875 35.40625 
Q 43.21875 41.609375 39.140625 45 
Q 35.0625 48.390625 27.6875 48.390625 
Q 23 48.390625 18.546875 47.265625 
Q 14.109375 46.140625 10.015625 43.890625 
L 10.015625 52.203125 
Q 14.9375 54.109375 19.578125 55.046875 
Q 24.21875 56 28.609375 56 
Q 40.484375 56 46.34375 49.84375 
Q 52.203125 43.703125 52.203125 31.203125 
z
" id="DejaVuSans-97"/>
     </defs>
     <use xlink:href="#DejaVuSans-65"/>
     <use x="68.408203" xlink:href="#DejaVuSans-110"/>
     <use x="131.787109" xlink:href="#DejaVuSans-103"/>
     <use x="195.263672" xlink:href="#DejaVuSans-111"/>
     <use x="256.445312" xlink:href="#DejaVuSans-108"/>
     <use x="284.228516" xlink:href="#DejaVuSans-97"/>
    </g>
   </g>
   <g id="text_14">
    <!-- Comoros -->
    <g transform="translate(206.319392 196.622745)scale(0.14 -0.14)">
     <defs>
      <path d="M 64.40625 67.28125 
L 64.40625 56.890625 
Q 59.421875 61.53125 53.78125 63.8125 
Q 48.140625 66.109375 41.796875 66.109375 
Q 29.296875 66.109375 22.65625 58.46875 
Q 16.015625 50.828125 16.015625 36.375 
Q 16.015625 21.96875 22.65625 14.328125 
Q 29.296875 6.6875 41.796875 6.6875 
Q 48.140625 6.6875 53.78125 8.984375 
Q 59.421875 11.28125 64.40625 15.921875 
L 64.40625 5.609375 
Q 59.234375 2.09375 53.4375 0.328125 
Q 47.65625 -1.421875 41.21875 -1.421875 
Q 24.65625 -1.421875 15.125 8.703125 
Q 5.609375 18.84375 5.609375 36.375 
Q 5.609375 53.953125 15.125 64.078125 
Q 24.65625 74.21875 41.21875 74.21875 
Q 47.75 74.21875 53.53125 72.484375 
Q 59.328125 70.75 64.40625 67.28125 
z
" id="DejaVuSans-67"/>
      <path d="M 52 44.1875 
Q 55.375 50.25 60.0625 53.125 
Q 64.75 56 71.09375 56 
Q 79.640625 56 84.28125 50.015625 
Q 88.921875 44.046875 88.921875 33.015625 
L 88.921875 0 
L 79.890625 0 
L 79.890625 32.71875 
Q 79.890625 40.578125 77.09375 44.375 
Q 74.3125 48.1875 68.609375 48.1875 
Q 61.625 48.1875 57.5625 43.546875 
Q 53.515625 38.921875 53.515625 30.90625 
L 53.515625 0 
L 44.484375 0 
L 44.484375 32.71875 
Q 44.484375 40.625 41.703125 44.40625 
Q 38.921875 48.1875 33.109375 48.1875 
Q 26.21875 48.1875 22.15625 43.53125 
Q 18.109375 38.875 18.109375 30.90625 
L 18.109375 0 
L 9.078125 0 
L 9.078125 54.6875 
L 18.109375 54.6875 
L 18.109375 46.1875 
Q 21.1875 51.21875 25.484375 53.609375 
Q 29.78125 56 35.6875 56 
Q 41.65625 56 45.828125 52.96875 
Q 50 49.953125 52 44.1875 
z
" id="DejaVuSans-109"/>
      <path d="M 44.28125 53.078125 
L 44.28125 44.578125 
Q 40.484375 46.53125 36.375 47.5 
Q 32.28125 48.484375 27.875 48.484375 
Q 21.1875 48.484375 17.84375 46.4375 
Q 14.5 44.390625 14.5 40.28125 
Q 14.5 37.15625 16.890625 35.375 
Q 19.28125 33.59375 26.515625 31.984375 
L 29.59375 31.296875 
Q 39.15625 29.25 43.1875 25.515625 
Q 47.21875 21.78125 47.21875 15.09375 
Q 47.21875 7.46875 41.1875 3.015625 
Q 35.15625 -1.421875 24.609375 -1.421875 
Q 20.21875 -1.421875 15.453125 -0.5625 
Q 10.6875 0.296875 5.421875 2 
L 5.421875 11.28125 
Q 10.40625 8.6875 15.234375 7.390625 
Q 20.0625 6.109375 24.8125 6.109375 
Q 31.15625 6.109375 34.5625 8.28125 
Q 37.984375 10.453125 37.984375 14.40625 
Q 37.984375 18.0625 35.515625 20.015625 
Q 33.0625 21.96875 24.703125 23.78125 
L 21.578125 24.515625 
Q 13.234375 26.265625 9.515625 29.90625 
Q 5.8125 33.546875 5.8125 39.890625 
Q 5.8125 47.609375 11.28125 51.796875 
Q 16.75 56 26.8125 56 
Q 31.78125 56 36.171875 55.265625 
Q 40.578125 54.546875 44.28125 53.078125 
z
" id="DejaVuSans-115"/>
     </defs>
     <use xlink:href="#DejaVuSans-67"/>
     <use x="69.824219" xlink:href="#DejaVuSans-111"/>
     <use x="131.005859" xlink:href="#DejaVuSans-109"/>
     <use x="228.417969" xlink:href="#DejaVuSans-111"/>
     <use x="289.599609" xlink:href="#DejaVuSans-114"/>
     <use x="328.462891" xlink:href="#DejaVuSans-111"/>
     <use x="389.644531" xlink:href="#DejaVuSans-115"/>
    </g>
   </g>
   <g id="text_15">
    <!-- Gambia -->
    <g transform="translate(101.482327 198.186113)scale(0.14 -0.14)">
     <use xlink:href="#DejaVuSans-71"/>
     <use x="77.490234" xlink:href="#DejaVuSans-97"/>
     <use x="138.769531" xlink:href="#DejaVuSans-109"/>
     <use x="236.181641" xlink:href="#DejaVuSans-98"/>
     <use x="299.658203" xlink:href="#DejaVuSans-105"/>
     <use x="327.441406" xlink:href="#DejaVuSans-97"/>
    </g>
   </g>
   <g id="text_16">
    <!-- Mauritius -->
    <g transform="translate(122.48498 86.447686)scale(0.14 -0.14)">
     <defs>
      <path d="M 9.8125 72.90625 
L 24.515625 72.90625 
L 43.109375 23.296875 
L 61.8125 72.90625 
L 76.515625 72.90625 
L 76.515625 0 
L 66.890625 0 
L 66.890625 64.015625 
L 48.09375 14.015625 
L 38.1875 14.015625 
L 19.390625 64.015625 
L 19.390625 0 
L 9.8125 0 
z
" id="DejaVuSans-77"/>
     </defs>
     <use xlink:href="#DejaVuSans-77"/>
     <use x="86.279297" xlink:href="#DejaVuSans-97"/>
     <use x="147.558594" xlink:href="#DejaVuSans-117"/>
     <use x="210.9375" xlink:href="#DejaVuSans-114"/>
     <use x="252.050781" xlink:href="#DejaVuSans-105"/>
     <use x="279.833984" xlink:href="#DejaVuSans-116"/>
     <use x="319.042969" xlink:href="#DejaVuSans-105"/>
     <use x="346.826172" xlink:href="#DejaVuSans-117"/>
     <use x="410.205078" xlink:href="#DejaVuSans-115"/>
    </g>
   </g>
   <g id="text_17">
    <!-- Seychelles -->
    <g transform="translate(261.18706 45.846266)scale(0.14 -0.14)">
     <defs>
      <path d="M 53.515625 70.515625 
L 53.515625 60.890625 
Q 47.90625 63.578125 42.921875 64.890625 
Q 37.9375 66.21875 33.296875 66.21875 
Q 25.25 66.21875 20.875 63.09375 
Q 16.5 59.96875 16.5 54.203125 
Q 16.5 49.359375 19.40625 46.890625 
Q 22.3125 44.4375 30.421875 42.921875 
L 36.375 41.703125 
Q 47.40625 39.59375 52.65625 34.296875 
Q 57.90625 29 57.90625 20.125 
Q 57.90625 9.515625 50.796875 4.046875 
Q 43.703125 -1.421875 29.984375 -1.421875 
Q 24.8125 -1.421875 18.96875 -0.25 
Q 13.140625 0.921875 6.890625 3.21875 
L 6.890625 13.375 
Q 12.890625 10.015625 18.65625 8.296875 
Q 24.421875 6.59375 29.984375 6.59375 
Q 38.421875 6.59375 43.015625 9.90625 
Q 47.609375 13.234375 47.609375 19.390625 
Q 47.609375 24.75 44.3125 27.78125 
Q 41.015625 30.8125 33.5 32.328125 
L 27.484375 33.5 
Q 16.453125 35.6875 11.515625 40.375 
Q 6.59375 45.0625 6.59375 53.421875 
Q 6.59375 63.09375 13.40625 68.65625 
Q 20.21875 74.21875 32.171875 74.21875 
Q 37.3125 74.21875 42.625 73.28125 
Q 47.953125 72.359375 53.515625 70.515625 
z
" id="DejaVuSans-83"/>
      <path d="M 56.203125 29.59375 
L 56.203125 25.203125 
L 14.890625 25.203125 
Q 15.484375 15.921875 20.484375 11.0625 
Q 25.484375 6.203125 34.421875 6.203125 
Q 39.59375 6.203125 44.453125 7.46875 
Q 49.3125 8.734375 54.109375 11.28125 
L 54.109375 2.78125 
Q 49.265625 0.734375 44.1875 -0.34375 
Q 39.109375 -1.421875 33.890625 -1.421875 
Q 20.796875 -1.421875 13.15625 6.1875 
Q 5.515625 13.8125 5.515625 26.8125 
Q 5.515625 40.234375 12.765625 48.109375 
Q 20.015625 56 32.328125 56 
Q 43.359375 56 49.78125 48.890625 
Q 56.203125 41.796875 56.203125 29.59375 
z
M 47.21875 32.234375 
Q 47.125 39.59375 43.09375 43.984375 
Q 39.0625 48.390625 32.421875 48.390625 
Q 24.90625 48.390625 20.390625 44.140625 
Q 15.875 39.890625 15.1875 32.171875 
z
" id="DejaVuSans-101"/>
      <path d="M 32.171875 -5.078125 
Q 28.375 -14.84375 24.75 -17.8125 
Q 21.140625 -20.796875 15.09375 -20.796875 
L 7.90625 -20.796875 
L 7.90625 -13.28125 
L 13.1875 -13.28125 
Q 16.890625 -13.28125 18.9375 -11.515625 
Q 21 -9.765625 23.484375 -3.21875 
L 25.09375 0.875 
L 2.984375 54.6875 
L 12.5 54.6875 
L 29.59375 11.921875 
L 46.6875 54.6875 
L 56.203125 54.6875 
z
" id="DejaVuSans-121"/>
     </defs>
     <use xlink:href="#DejaVuSans-83"/>
     <use x="63.476562" xlink:href="#DejaVuSans-101"/>
     <use x="125" xlink:href="#DejaVuSans-121"/>
     <use x="184.179688" xlink:href="#DejaVuSans-99"/>
     <use x="239.160156" xlink:href="#DejaVuSans-104"/>
     <use x="302.539062" xlink:href="#DejaVuSans-101"/>
     <use x="364.0625" xlink:href="#DejaVuSans-108"/>
     <use x="391.845703" xlink:href="#DejaVuSans-108"/>
     <use x="419.628906" xlink:href="#DejaVuSans-101"/>
     <use x="481.152344" xlink:href="#DejaVuSans-115"/>
    </g>
   </g>
   <g id="text_18">
    <!-- Quốc gia Châu Phi -->
    <g transform="translate(106.040812 24.2604)scale(0.2016 -0.2016)">
     <defs>
      <path d="M 39.40625 66.21875 
Q 28.65625 66.21875 22.328125 58.203125 
Q 16.015625 50.203125 16.015625 36.375 
Q 16.015625 22.609375 22.328125 14.59375 
Q 28.65625 6.59375 39.40625 6.59375 
Q 50.140625 6.59375 56.421875 14.59375 
Q 62.703125 22.609375 62.703125 36.375 
Q 62.703125 50.203125 56.421875 58.203125 
Q 50.140625 66.21875 39.40625 66.21875 
z
M 53.21875 1.3125 
L 66.21875 -12.890625 
L 54.296875 -12.890625 
L 43.5 -1.21875 
Q 41.890625 -1.3125 41.03125 -1.359375 
Q 40.1875 -1.421875 39.40625 -1.421875 
Q 24.03125 -1.421875 14.8125 8.859375 
Q 5.609375 19.140625 5.609375 36.375 
Q 5.609375 53.65625 14.8125 63.9375 
Q 24.03125 74.21875 39.40625 74.21875 
Q 54.734375 74.21875 63.90625 63.9375 
Q 73.09375 53.65625 73.09375 36.375 
Q 73.09375 23.6875 67.984375 14.640625 
Q 62.890625 5.609375 53.21875 1.3125 
z
" id="DejaVuSans-81"/>
      <path d="M 25.984375 74.609375 
L 35.15625 74.609375 
L 45.453125 61.625 
L 38.671875 61.625 
L 30.5625 70.3125 
L 22.46875 61.625 
L 15.671875 61.625 
z
M 51.03125 84.625 
L 60.0625 84.625 
L 48.921875 71.734375 
L 41.453125 71.734375 
z
M 30.609375 48.390625 
Q 23.390625 48.390625 19.1875 42.75 
Q 14.984375 37.109375 14.984375 27.296875 
Q 14.984375 17.484375 19.15625 11.84375 
Q 23.34375 6.203125 30.609375 6.203125 
Q 37.796875 6.203125 41.984375 11.859375 
Q 46.1875 17.53125 46.1875 27.296875 
Q 46.1875 37.015625 41.984375 42.703125 
Q 37.796875 48.390625 30.609375 48.390625 
z
M 30.609375 56 
Q 42.328125 56 49.015625 48.375 
Q 55.71875 40.765625 55.71875 27.296875 
Q 55.71875 13.875 49.015625 6.21875 
Q 42.328125 -1.421875 30.609375 -1.421875 
Q 18.84375 -1.421875 12.171875 6.21875 
Q 5.515625 13.875 5.515625 27.296875 
Q 5.515625 40.765625 12.171875 48.375 
Q 18.84375 56 30.609375 56 
z
" id="DejaVuSans-7889"/>
      <path d="M 34.28125 27.484375 
Q 23.390625 27.484375 19.1875 25 
Q 14.984375 22.515625 14.984375 16.5 
Q 14.984375 11.71875 18.140625 8.90625 
Q 21.296875 6.109375 26.703125 6.109375 
Q 34.1875 6.109375 38.703125 11.40625 
Q 43.21875 16.703125 43.21875 25.484375 
L 43.21875 27.484375 
z
M 52.203125 31.203125 
L 52.203125 0 
L 43.21875 0 
L 43.21875 8.296875 
Q 40.140625 3.328125 35.546875 0.953125 
Q 30.953125 -1.421875 24.3125 -1.421875 
Q 15.921875 -1.421875 10.953125 3.296875 
Q 6 8.015625 6 15.921875 
Q 6 25.140625 12.171875 29.828125 
Q 18.359375 34.515625 30.609375 34.515625 
L 43.21875 34.515625 
L 43.21875 35.40625 
Q 43.21875 41.609375 39.140625 45 
Q 35.0625 48.390625 27.6875 48.390625 
Q 23 48.390625 18.546875 47.265625 
Q 14.109375 46.140625 10.015625 43.890625 
L 10.015625 52.203125 
Q 14.9375 54.109375 19.578125 55.046875 
Q 24.21875 56 28.609375 56 
Q 40.484375 56 46.34375 49.84375 
Q 52.203125 43.703125 52.203125 31.203125 
z
M 25.390625 79.984375 
L 32.625 79.984375 
L 44.578125 61.625 
L 37.796875 61.625 
L 29 73.578125 
L 20.21875 61.625 
L 13.421875 61.625 
z
" id="DejaVuSans-226"/>
     </defs>
     <use xlink:href="#DejaVuSans-81"/>
     <use x="78.710938" xlink:href="#DejaVuSans-117"/>
     <use x="142.089844" xlink:href="#DejaVuSans-7889"/>
     <use x="203.271484" xlink:href="#DejaVuSans-99"/>
     <use x="258.251953" xlink:href="#DejaVuSans-32"/>
     <use x="290.039062" xlink:href="#DejaVuSans-103"/>
     <use x="353.515625" xlink:href="#DejaVuSans-105"/>
     <use x="381.298828" xlink:href="#DejaVuSans-97"/>
     <use x="442.578125" xlink:href="#DejaVuSans-32"/>
     <use x="474.365234" xlink:href="#DejaVuSans-67"/>
     <use x="544.189453" xlink:href="#DejaVuSans-104"/>
     <use x="607.568359" xlink:href="#DejaVuSans-226"/>
     <use x="668.847656" xlink:href="#DejaVuSans-117"/>
     <use x="732.226562" xlink:href="#DejaVuSans-32"/>
     <use x="764.013672" xlink:href="#DejaVuSans-80"/>
     <use x="824.316406" xlink:href="#DejaVuSans-104"/>
     <use x="887.695312" xlink:href="#DejaVuSans-105"/>
    </g>
   </g>
  </g>
  <g id="axes_2">
   <g id="patch_7">
    <path d="M 406.514125 295.442275 
L 695.006 295.442275 
L 695.006 30.2604 
L 406.514125 30.2604 
z
" style="fill:#f0f0f0;"/>
   </g>
   <g id="matplotlib.axis_3">
    <g id="xtick_6">
     <g id="line2d_22">
      <path clip-path="url(#pef0c81b402)" d="M 441.482837 295.442275 
L 441.482837 30.2604 
" style="fill:none;stroke:#cbcbcb;"/>
     </g>
     <g id="line2d_23"/>
     <g id="text_19">
      <!-- 0.00 -->
      <g transform="translate(425.896899 309.580087)scale(0.14 -0.14)">
       <use xlink:href="#DejaVuSans-48"/>
       <use x="63.623047" xlink:href="#DejaVuSans-46"/>
       <use x="95.410156" xlink:href="#DejaVuSans-48"/>
       <use x="159.033203" xlink:href="#DejaVuSans-48"/>
      </g>
     </g>
    </g>
    <g id="xtick_7">
     <g id="line2d_24">
      <path clip-path="url(#pef0c81b402)" d="M 496.121449 295.442275 
L 496.121449 30.2604 
" style="fill:none;stroke:#cbcbcb;"/>
     </g>
     <g id="line2d_25"/>
     <g id="text_20">
      <!-- 0.25 -->
      <g transform="translate(480.535511 309.580087)scale(0.14 -0.14)">
       <use xlink:href="#DejaVuSans-48"/>
       <use x="63.623047" xlink:href="#DejaVuSans-46"/>
       <use x="95.410156" xlink:href="#DejaVuSans-50"/>
       <use x="159.033203" xlink:href="#DejaVuSans-53"/>
      </g>
     </g>
    </g>
    <g id="xtick_8">
     <g id="line2d_26">
      <path clip-path="url(#pef0c81b402)" d="M 550.76006 295.442275 
L 550.76006 30.2604 
" style="fill:none;stroke:#cbcbcb;"/>
     </g>
     <g id="line2d_27"/>
     <g id="text_21">
      <!-- 0.50 -->
      <g transform="translate(535.174123 309.580087)scale(0.14 -0.14)">
       <use xlink:href="#DejaVuSans-48"/>
       <use x="63.623047" xlink:href="#DejaVuSans-46"/>
       <use x="95.410156" xlink:href="#DejaVuSans-53"/>
       <use x="159.033203" xlink:href="#DejaVuSans-48"/>
      </g>
     </g>
    </g>
    <g id="xtick_9">
     <g id="line2d_28">
      <path clip-path="url(#pef0c81b402)" d="M 605.398672 295.442275 
L 605.398672 30.2604 
" style="fill:none;stroke:#cbcbcb;"/>
     </g>
     <g id="line2d_29"/>
     <g id="text_22">
      <!-- 0.75 -->
      <g transform="translate(589.812734 309.580087)scale(0.14 -0.14)">
       <use xlink:href="#DejaVuSans-48"/>
       <use x="63.623047" xlink:href="#DejaVuSans-46"/>
       <use x="95.410156" xlink:href="#DejaVuSans-55"/>
       <use x="159.033203" xlink:href="#DejaVuSans-53"/>
      </g>
     </g>
    </g>
    <g id="xtick_10">
     <g id="line2d_30">
      <path clip-path="url(#pef0c81b402)" d="M 660.037283 295.442275 
L 660.037283 30.2604 
" style="fill:none;stroke:#cbcbcb;"/>
     </g>
     <g id="line2d_31"/>
     <g id="text_23">
      <!-- 1.00 -->
      <g transform="translate(644.451346 309.580087)scale(0.14 -0.14)">
       <use xlink:href="#DejaVuSans-49"/>
       <use x="63.623047" xlink:href="#DejaVuSans-46"/>
       <use x="95.410156" xlink:href="#DejaVuSans-48"/>
       <use x="159.033203" xlink:href="#DejaVuSans-48"/>
      </g>
     </g>
    </g>
    <g id="text_24">
     <!-- độ gồ ghề (chuẩn hoá) -->
     <g transform="translate(455.409562 330.9764)scale(0.168 -0.168)">
      <use xlink:href="#DejaVuSans-273"/>
      <use x="63.476562" xlink:href="#DejaVuSans-7897"/>
      <use x="124.658203" xlink:href="#DejaVuSans-32"/>
      <use x="156.445312" xlink:href="#DejaVuSans-103"/>
      <use x="219.921875" xlink:href="#DejaVuSans-7891"/>
      <use x="281.103516" xlink:href="#DejaVuSans-32"/>
      <use x="312.890625" xlink:href="#DejaVuSans-103"/>
      <use x="376.367188" xlink:href="#DejaVuSans-104"/>
      <use x="439.746094" xlink:href="#DejaVuSans-7873"/>
      <use x="501.269531" xlink:href="#DejaVuSans-32"/>
      <use x="533.056641" xlink:href="#DejaVuSans-40"/>
      <use x="572.070312" xlink:href="#DejaVuSans-99"/>
      <use x="627.050781" xlink:href="#DejaVuSans-104"/>
      <use x="690.429688" xlink:href="#DejaVuSans-117"/>
      <use x="753.808594" xlink:href="#DejaVuSans-7849"/>
      <use x="815.087891" xlink:href="#DejaVuSans-110"/>
      <use x="878.466797" xlink:href="#DejaVuSans-32"/>
      <use x="910.253906" xlink:href="#DejaVuSans-104"/>
      <use x="973.632812" xlink:href="#DejaVuSans-111"/>
      <use x="1034.814453" xlink:href="#DejaVuSans-225"/>
      <use x="1096.09375" xlink:href="#DejaVuSans-41"/>
     </g>
    </g>
   </g>
   <g id="matplotlib.axis_4">
    <g id="ytick_6">
     <g id="line2d_32">
      <path clip-path="url(#pef0c81b402)" d="M 406.514125 275.1208 
L 695.006 275.1208 
" style="fill:none;stroke:#cbcbcb;"/>
     </g>
     <g id="line2d_33"/>
     <g id="text_25">
      <!-- 0.8 -->
      <g transform="translate(380.74975 280.439706)scale(0.14 -0.14)">
       <use xlink:href="#DejaVuSans-48"/>
       <use x="63.623047" xlink:href="#DejaVuSans-46"/>
       <use x="95.410156" xlink:href="#DejaVuSans-56"/>
      </g>
     </g>
    </g>
    <g id="ytick_7">
     <g id="line2d_34">
      <path clip-path="url(#pef0c81b402)" d="M 406.514125 227.35199 
L 695.006 227.35199 
" style="fill:none;stroke:#cbcbcb;"/>
     </g>
     <g id="line2d_35"/>
     <g id="text_26">
      <!-- 0.9 -->
      <g transform="translate(380.74975 232.670896)scale(0.14 -0.14)">
       <use xlink:href="#DejaVuSans-48"/>
       <use x="63.623047" xlink:href="#DejaVuSans-46"/>
       <use x="95.410156" xlink:href="#DejaVuSans-57"/>
      </g>
     </g>
    </g>
    <g id="ytick_8">
     <g id="line2d_36">
      <path clip-path="url(#pef0c81b402)" d="M 406.514125 179.583181 
L 695.006 179.583181 
" style="fill:none;stroke:#cbcbcb;"/>
     </g>
     <g id="line2d_37"/>
     <g id="text_27">
      <!-- 1.0 -->
      <g transform="translate(380.74975 184.902087)scale(0.14 -0.14)">
       <use xlink:href="#DejaVuSans-49"/>
       <use x="63.623047" xlink:href="#DejaVuSans-46"/>
       <use x="95.410156" xlink:href="#DejaVuSans-48"/>
      </g>
     </g>
    </g>
    <g id="ytick_9">
     <g id="line2d_38">
      <path clip-path="url(#pef0c81b402)" d="M 406.514125 131.814371 
L 695.006 131.814371 
" style="fill:none;stroke:#cbcbcb;"/>
     </g>
     <g id="line2d_39"/>
     <g id="text_28">
      <!-- 1.1 -->
      <g transform="translate(380.74975 137.133277)scale(0.14 -0.14)">
       <use xlink:href="#DejaVuSans-49"/>
       <use x="63.623047" xlink:href="#DejaVuSans-46"/>
       <use x="95.410156" xlink:href="#DejaVuSans-49"/>
      </g>
     </g>
    </g>
    <g id="ytick_10">
     <g id="line2d_40">
      <path clip-path="url(#pef0c81b402)" d="M 406.514125 84.045561 
L 695.006 84.045561 
" style="fill:none;stroke:#cbcbcb;"/>
     </g>
     <g id="line2d_41"/>
     <g id="text_29">
      <!-- 1.2 -->
      <g transform="translate(380.74975 89.364468)scale(0.14 -0.14)">
       <use xlink:href="#DejaVuSans-49"/>
       <use x="63.623047" xlink:href="#DejaVuSans-46"/>
       <use x="95.410156" xlink:href="#DejaVuSans-50"/>
      </g>
     </g>
    </g>
    <g id="ytick_11">
     <g id="line2d_42">
      <path clip-path="url(#pef0c81b402)" d="M 406.514125 36.276752 
L 695.006 36.276752 
" style="fill:none;stroke:#cbcbcb;"/>
     </g>
     <g id="line2d_43"/>
     <g id="text_30">
      <!-- 1.3 -->
      <g transform="translate(380.74975 41.595658)scale(0.14 -0.14)">
       <defs>
        <path d="M 40.578125 39.3125 
Q 47.65625 37.796875 51.625 33 
Q 55.609375 28.21875 55.609375 21.1875 
Q 55.609375 10.40625 48.1875 4.484375 
Q 40.765625 -1.421875 27.09375 -1.421875 
Q 22.515625 -1.421875 17.65625 -0.515625 
Q 12.796875 0.390625 7.625 2.203125 
L 7.625 11.71875 
Q 11.71875 9.328125 16.59375 8.109375 
Q 21.484375 6.890625 26.8125 6.890625 
Q 36.078125 6.890625 40.9375 10.546875 
Q 45.796875 14.203125 45.796875 21.1875 
Q 45.796875 27.640625 41.28125 31.265625 
Q 36.765625 34.90625 28.71875 34.90625 
L 20.21875 34.90625 
L 20.21875 43.015625 
L 29.109375 43.015625 
Q 36.375 43.015625 40.234375 45.921875 
Q 44.09375 48.828125 44.09375 54.296875 
Q 44.09375 59.90625 40.109375 62.90625 
Q 36.140625 65.921875 28.71875 65.921875 
Q 24.65625 65.921875 20.015625 65.03125 
Q 15.375 64.15625 9.8125 62.3125 
L 9.8125 71.09375 
Q 15.4375 72.65625 20.34375 73.4375 
Q 25.25 74.21875 29.59375 74.21875 
Q 40.828125 74.21875 47.359375 69.109375 
Q 53.90625 64.015625 53.90625 55.328125 
Q 53.90625 49.265625 50.4375 45.09375 
Q 46.96875 40.921875 40.578125 39.3125 
z
" id="DejaVuSans-51"/>
       </defs>
       <use xlink:href="#DejaVuSans-49"/>
       <use x="63.623047" xlink:href="#DejaVuSans-46"/>
       <use x="95.410156" xlink:href="#DejaVuSans-51"/>
      </g>
     </g>
    </g>
    <g id="text_31">
     <!-- log GDP (tỉ lệ với trung bình) -->
     <g transform="translate(373.255875 282.884712)rotate(-90)scale(0.168 -0.168)">
      <use xlink:href="#DejaVuSans-108"/>
      <use x="27.783203" xlink:href="#DejaVuSans-111"/>
      <use x="88.964844" xlink:href="#DejaVuSans-103"/>
      <use x="152.441406" xlink:href="#DejaVuSans-32"/>
      <use x="184.228516" xlink:href="#DejaVuSans-71"/>
      <use x="261.71875" xlink:href="#DejaVuSans-68"/>
      <use x="338.720703" xlink:href="#DejaVuSans-80"/>
      <use x="399.023438" xlink:href="#DejaVuSans-32"/>
      <use x="430.810547" xlink:href="#DejaVuSans-40"/>
      <use x="469.824219" xlink:href="#DejaVuSans-116"/>
      <use x="509.033203" xlink:href="#DejaVuSans-7881"/>
      <use x="536.816406" xlink:href="#DejaVuSans-32"/>
      <use x="568.603516" xlink:href="#DejaVuSans-108"/>
      <use x="596.386719" xlink:href="#DejaVuSans-7879"/>
      <use x="657.910156" xlink:href="#DejaVuSans-32"/>
      <use x="689.697266" xlink:href="#DejaVuSans-118"/>
      <use x="748.876953" xlink:href="#DejaVuSans-7899"/>
      <use x="810.058594" xlink:href="#DejaVuSans-105"/>
      <use x="837.841797" xlink:href="#DejaVuSans-32"/>
      <use x="869.628906" xlink:href="#DejaVuSans-116"/>
      <use x="908.837891" xlink:href="#DejaVuSans-114"/>
      <use x="949.951172" xlink:href="#DejaVuSans-117"/>
      <use x="1013.330078" xlink:href="#DejaVuSans-110"/>
      <use x="1076.708984" xlink:href="#DejaVuSans-103"/>
      <use x="1140.185547" xlink:href="#DejaVuSans-32"/>
      <use x="1171.972656" xlink:href="#DejaVuSans-98"/>
      <use x="1235.449219" xlink:href="#DejaVuSans-236"/>
      <use x="1263.232422" xlink:href="#DejaVuSans-110"/>
      <use x="1326.611328" xlink:href="#DejaVuSans-104"/>
      <use x="1389.990234" xlink:href="#DejaVuSans-41"/>
     </g>
    </g>
   </g>
   <g id="PathCollection_2">
    <defs>
     <path d="M 0 3 
C 0.795609 3 1.55874 2.683901 2.12132 2.12132 
C 2.683901 1.55874 3 0.795609 3 0 
C 3 -0.795609 2.683901 -1.55874 2.12132 -2.12132 
C 1.55874 -2.683901 0.795609 -3 0 -3 
C -0.795609 -3 -1.55874 -2.683901 -2.12132 -2.12132 
C -2.683901 -1.55874 -3 -0.795609 -3 0 
C -3 0.795609 -2.683901 1.55874 -2.12132 2.12132 
C -1.55874 2.683901 -0.795609 3 0 3 
z
" id="maef82d8034" style="stroke:#fc4f30;stroke-width:0.5;"/>
    </defs>
    <g clip-path="url(#pef0c81b402)">
     <use style="fill:#fc4f30;stroke:#fc4f30;stroke-width:0.5;" x="562.248088" xlink:href="#maef82d8034" y="196.419442"/>
     <use style="fill:#fc4f30;stroke:#fc4f30;stroke-width:0.5;" x="468.581897" xlink:href="#maef82d8034" y="100.157743"/>
     <use style="fill:#fc4f30;stroke:#fc4f30;stroke-width:0.5;" x="468.793333" xlink:href="#maef82d8034" y="129.67177"/>
     <use style="fill:#fc4f30;stroke:#fc4f30;stroke-width:0.5;" x="536.206209" xlink:href="#maef82d8034" y="220.232645"/>
     <use style="fill:#fc4f30;stroke:#fc4f30;stroke-width:0.5;" x="441.694273" xlink:href="#maef82d8034" y="140.579901"/>
     <use style="fill:#fc4f30;stroke:#fc4f30;stroke-width:0.5;" x="446.522064" xlink:href="#maef82d8034" y="88.383795"/>
     <use style="fill:#fc4f30;stroke:#fc4f30;stroke-width:0.5;" x="565.278672" xlink:href="#maef82d8034" y="81.011847"/>
     <use style="fill:#fc4f30;stroke:#fc4f30;stroke-width:0.5;" x="500.403029" xlink:href="#maef82d8034" y="216.885134"/>
     <use style="fill:#fc4f30;stroke:#fc4f30;stroke-width:0.5;" x="455.155705" xlink:href="#maef82d8034" y="84.370268"/>
     <use style="fill:#fc4f30;stroke:#fc4f30;stroke-width:0.5;" x="448.037356" xlink:href="#maef82d8034" y="247.892021"/>
     <use style="fill:#fc4f30;stroke:#fc4f30;stroke-width:0.5;" x="493.601835" xlink:href="#maef82d8034" y="169.548351"/>
     <use style="fill:#fc4f30;stroke:#fc4f30;stroke-width:0.5;" x="449.623127" xlink:href="#maef82d8034" y="114.595499"/>
     <use style="fill:#fc4f30;stroke:#fc4f30;stroke-width:0.5;" x="443.421001" xlink:href="#maef82d8034" y="111.017961"/>
     <use style="fill:#fc4f30;stroke:#fc4f30;stroke-width:0.5;" x="522.920974" xlink:href="#maef82d8034" y="176.364085"/>
     <use style="fill:#fc4f30;stroke:#fc4f30;stroke-width:0.5;" x="447.26209" xlink:href="#maef82d8034" y="181.843813"/>
     <use style="fill:#fc4f30;stroke:#fc4f30;stroke-width:0.5;" x="462.873122" xlink:href="#maef82d8034" y="170.589186"/>
     <use style="fill:#fc4f30;stroke:#fc4f30;stroke-width:0.5;" x="471.542002" xlink:href="#maef82d8034" y="220.770838"/>
     <use style="fill:#fc4f30;stroke:#fc4f30;stroke-width:0.5;" x="449.940281" xlink:href="#maef82d8034" y="158.347434"/>
     <use style="fill:#fc4f30;stroke:#fc4f30;stroke-width:0.5;" x="475.418331" xlink:href="#maef82d8034" y="116.886449"/>
     <use style="fill:#fc4f30;stroke:#fc4f30;stroke-width:0.5;" x="468.793333" xlink:href="#maef82d8034" y="84.398479"/>
     <use style="fill:#fc4f30;stroke:#fc4f30;stroke-width:0.5;" x="609.25738" xlink:href="#maef82d8034" y="78.786207"/>
     <use style="fill:#fc4f30;stroke:#fc4f30;stroke-width:0.5;" x="528.911663" xlink:href="#maef82d8034" y="145.897502"/>
     <use style="fill:#fc4f30;stroke:#fc4f30;stroke-width:0.5;" x="507.662336" xlink:href="#maef82d8034" y="193.108326"/>
     <use style="fill:#fc4f30;stroke:#fc4f30;stroke-width:0.5;" x="472.669661" xlink:href="#maef82d8034" y="167.12074"/>
     <use style="fill:#fc4f30;stroke:#fc4f30;stroke-width:0.5;" x="515.908343" xlink:href="#maef82d8034" y="149.023643"/>
     <use style="fill:#fc4f30;stroke:#fc4f30;stroke-width:0.5;" x="537.263389" xlink:href="#maef82d8034" y="100.942963"/>
     <use style="fill:#fc4f30;stroke:#fc4f30;stroke-width:0.5;" x="472.634422" xlink:href="#maef82d8034" y="116.584102"/>
     <use style="fill:#fc4f30;stroke:#fc4f30;stroke-width:0.5;" x="462.520729" xlink:href="#maef82d8034" y="88.242773"/>
     <use style="fill:#fc4f30;stroke:#fc4f30;stroke-width:0.5;" x="441.588555" xlink:href="#maef82d8034" y="169.995272"/>
     <use style="fill:#fc4f30;stroke:#fc4f30;stroke-width:0.5;" x="448.143074" xlink:href="#maef82d8034" y="81.472728"/>
     <use style="fill:#fc4f30;stroke:#fc4f30;stroke-width:0.5;" x="499.31061" xlink:href="#maef82d8034" y="165.639034"/>
     <use style="fill:#fc4f30;stroke:#fc4f30;stroke-width:0.5;" x="486.518726" xlink:href="#maef82d8034" y="201.64933"/>
     <use style="fill:#fc4f30;stroke:#fc4f30;stroke-width:0.5;" x="501.002098" xlink:href="#maef82d8034" y="97.084933"/>
     <use style="fill:#fc4f30;stroke:#fc4f30;stroke-width:0.5;" x="445.817277" xlink:href="#maef82d8034" y="142.049935"/>
     <use style="fill:#fc4f30;stroke:#fc4f30;stroke-width:0.5;" x="453.041344" xlink:href="#maef82d8034" y="88.083534"/>
     <use style="fill:#fc4f30;stroke:#fc4f30;stroke-width:0.5;" x="490.676969" xlink:href="#maef82d8034" y="180.143769"/>
     <use style="fill:#fc4f30;stroke:#fc4f30;stroke-width:0.5;" x="480.175643" xlink:href="#maef82d8034" y="87.768086"/>
     <use style="fill:#fc4f30;stroke:#fc4f30;stroke-width:0.5;" x="461.498788" xlink:href="#maef82d8034" y="86.401095"/>
     <use style="fill:#fc4f30;stroke:#fc4f30;stroke-width:0.5;" x="570.423617" xlink:href="#maef82d8034" y="234.426597"/>
     <use style="fill:#fc4f30;stroke:#fc4f30;stroke-width:0.5;" x="550.830539" xlink:href="#maef82d8034" y="109.664944"/>
     <use style="fill:#fc4f30;stroke:#fc4f30;stroke-width:0.5;" x="515.062599" xlink:href="#maef82d8034" y="156.566652"/>
     <use style="fill:#fc4f30;stroke:#fc4f30;stroke-width:0.5;" x="505.160342" xlink:href="#maef82d8034" y="192.454089"/>
     <use style="fill:#fc4f30;stroke:#fc4f30;stroke-width:0.5;" x="451.103179" xlink:href="#maef82d8034" y="191.091236"/>
     <use style="fill:#fc4f30;stroke:#fc4f30;stroke-width:0.5;" x="529.61645" xlink:href="#maef82d8034" y="87.555"/>
     <use style="fill:#fc4f30;stroke:#fc4f30;stroke-width:0.5;" x="517.247439" xlink:href="#maef82d8034" y="218.314932"/>
     <use style="fill:#fc4f30;stroke:#fc4f30;stroke-width:0.5;" x="486.131093" xlink:href="#maef82d8034" y="143.312307"/>
     <use style="fill:#fc4f30;stroke:#fc4f30;stroke-width:0.5;" x="524.718181" xlink:href="#maef82d8034" y="236.9286"/>
     <use style="fill:#fc4f30;stroke:#fc4f30;stroke-width:0.5;" x="453.675652" xlink:href="#maef82d8034" y="125.031853"/>
     <use style="fill:#fc4f30;stroke:#fc4f30;stroke-width:0.5;" x="475.559288" xlink:href="#maef82d8034" y="207.702809"/>
     <use style="fill:#fc4f30;stroke:#fc4f30;stroke-width:0.5;" x="477.180298" xlink:href="#maef82d8034" y="220.39247"/>
     <use style="fill:#fc4f30;stroke:#fc4f30;stroke-width:0.5;" x="459.560623" xlink:href="#maef82d8034" y="78.100495"/>
     <use style="fill:#fc4f30;stroke:#fc4f30;stroke-width:0.5;" x="527.643047" xlink:href="#maef82d8034" y="170.997376"/>
     <use style="fill:#fc4f30;stroke:#fc4f30;stroke-width:0.5;" x="493.35516" xlink:href="#maef82d8034" y="81.124973"/>
     <use style="fill:#fc4f30;stroke:#fc4f30;stroke-width:0.5;" x="501.565928" xlink:href="#maef82d8034" y="91.935053"/>
     <use style="fill:#fc4f30;stroke:#fc4f30;stroke-width:0.5;" x="528.101158" xlink:href="#maef82d8034" y="89.324539"/>
     <use style="fill:#fc4f30;stroke:#fc4f30;stroke-width:0.5;" x="504.490794" xlink:href="#maef82d8034" y="197.223699"/>
     <use style="fill:#fc4f30;stroke:#fc4f30;stroke-width:0.5;" x="480.140403" xlink:href="#maef82d8034" y="194.285929"/>
     <use style="fill:#fc4f30;stroke:#fc4f30;stroke-width:0.5;" x="516.61313" xlink:href="#maef82d8034" y="86.640713"/>
     <use style="fill:#fc4f30;stroke:#fc4f30;stroke-width:0.5;" x="454.591875" xlink:href="#maef82d8034" y="184.323339"/>
     <use style="fill:#fc4f30;stroke:#fc4f30;stroke-width:0.5;" x="592.553929" xlink:href="#maef82d8034" y="244.904816"/>
     <use style="fill:#fc4f30;stroke:#fc4f30;stroke-width:0.5;" x="460.512086" xlink:href="#maef82d8034" y="235.068134"/>
     <use style="fill:#fc4f30;stroke:#fc4f30;stroke-width:0.5;" x="441.694273" xlink:href="#maef82d8034" y="134.223656"/>
     <use style="fill:#fc4f30;stroke:#fc4f30;stroke-width:0.5;" x="510.551962" xlink:href="#maef82d8034" y="113.741736"/>
     <use style="fill:#fc4f30;stroke:#fc4f30;stroke-width:0.5;" x="450.116478" xlink:href="#maef82d8034" y="114.487046"/>
     <use style="fill:#fc4f30;stroke:#fc4f30;stroke-width:0.5;" x="531.448896" xlink:href="#maef82d8034" y="244.549976"/>
     <use style="fill:#fc4f30;stroke:#fc4f30;stroke-width:0.5;" x="589.382387" xlink:href="#maef82d8034" y="189.140347"/>
     <use style="fill:#fc4f30;stroke:#fc4f30;stroke-width:0.5;" x="517.141721" xlink:href="#maef82d8034" y="173.016415"/>
     <use style="fill:#fc4f30;stroke:#fc4f30;stroke-width:0.5;" x="464.388414" xlink:href="#maef82d8034" y="197.6069"/>
     <use style="fill:#fc4f30;stroke:#fc4f30;stroke-width:0.5;" x="447.649723" xlink:href="#maef82d8034" y="148.082179"/>
     <use style="fill:#fc4f30;stroke:#fc4f30;stroke-width:0.5;" x="472.528704" xlink:href="#maef82d8034" y="42.314122"/>
     <use style="fill:#fc4f30;stroke:#fc4f30;stroke-width:0.5;" x="446.909697" xlink:href="#maef82d8034" y="153.897502"/>
     <use style="fill:#fc4f30;stroke:#fc4f30;stroke-width:0.5;" x="467.278041" xlink:href="#maef82d8034" y="105.952368"/>
     <use style="fill:#fc4f30;stroke:#fc4f30;stroke-width:0.5;" x="469.639077" xlink:href="#maef82d8034" y="253.789287"/>
     <use style="fill:#fc4f30;stroke:#fc4f30;stroke-width:0.5;" x="502.51739" xlink:href="#maef82d8034" y="146.324931"/>
     <use style="fill:#fc4f30;stroke:#fc4f30;stroke-width:0.5;" x="535.395704" xlink:href="#maef82d8034" y="168.798035"/>
     <use style="fill:#fc4f30;stroke:#fc4f30;stroke-width:0.5;" x="495.293324" xlink:href="#maef82d8034" y="106.945709"/>
     <use style="fill:#fc4f30;stroke:#fc4f30;stroke-width:0.5;" x="478.730829" xlink:href="#maef82d8034" y="242.773032"/>
     <use style="fill:#fc4f30;stroke:#fc4f30;stroke-width:0.5;" x="477.039341" xlink:href="#maef82d8034" y="147.07275"/>
     <use style="fill:#fc4f30;stroke:#fc4f30;stroke-width:0.5;" x="497.372445" xlink:href="#maef82d8034" y="96.126398"/>
     <use style="fill:#fc4f30;stroke:#fc4f30;stroke-width:0.5;" x="476.440272" xlink:href="#maef82d8034" y="203.264705"/>
     <use style="fill:#fc4f30;stroke:#fc4f30;stroke-width:0.5;" x="442.786693" xlink:href="#maef82d8034" y="81.747463"/>
     <use style="fill:#fc4f30;stroke:#fc4f30;stroke-width:0.5;" x="526.37443" xlink:href="#maef82d8034" y="71.725306"/>
     <use style="fill:#fc4f30;stroke:#fc4f30;stroke-width:0.5;" x="619.194877" xlink:href="#maef82d8034" y="254.152214"/>
     <use style="fill:#fc4f30;stroke:#fc4f30;stroke-width:0.5;" x="513.300631" xlink:href="#maef82d8034" y="102.918057"/>
     <use style="fill:#fc4f30;stroke:#fc4f30;stroke-width:0.5;" x="480.563276" xlink:href="#maef82d8034" y="127.166851"/>
     <use style="fill:#fc4f30;stroke:#fc4f30;stroke-width:0.5;" x="510.164329" xlink:href="#maef82d8034" y="233.101969"/>
     <use style="fill:#fc4f30;stroke:#fc4f30;stroke-width:0.5;" x="495.751435" xlink:href="#maef82d8034" y="167.837713"/>
     <use style="fill:#fc4f30;stroke:#fc4f30;stroke-width:0.5;" x="488.950241" xlink:href="#maef82d8034" y="182.781105"/>
     <use style="fill:#fc4f30;stroke:#fc4f30;stroke-width:0.5;" x="512.948238" xlink:href="#maef82d8034" y="191.709148"/>
     <use style="fill:#fc4f30;stroke:#fc4f30;stroke-width:0.5;" x="497.478163" xlink:href="#maef82d8034" y="222.506921"/>
     <use style="fill:#fc4f30;stroke:#fc4f30;stroke-width:0.5;" x="451.948924" xlink:href="#maef82d8034" y="138.496269"/>
     <use style="fill:#fc4f30;stroke:#fc4f30;stroke-width:0.5;" x="492.474176" xlink:href="#maef82d8034" y="95.868022"/>
     <use style="fill:#fc4f30;stroke:#fc4f30;stroke-width:0.5;" x="487.434949" xlink:href="#maef82d8034" y="106.947091"/>
     <use style="fill:#fc4f30;stroke:#fc4f30;stroke-width:0.5;" x="450.116478" xlink:href="#maef82d8034" y="184.830593"/>
     <use style="fill:#fc4f30;stroke:#fc4f30;stroke-width:0.5;" x="514.498769" xlink:href="#maef82d8034" y="90.358009"/>
     <use style="fill:#fc4f30;stroke:#fc4f30;stroke-width:0.5;" x="486.131093" xlink:href="#maef82d8034" y="170.397527"/>
     <use style="fill:#fc4f30;stroke:#fc4f30;stroke-width:0.5;" x="474.607826" xlink:href="#maef82d8034" y="159.946179"/>
     <use style="fill:#fc4f30;stroke:#fc4f30;stroke-width:0.5;" x="473.691603" xlink:href="#maef82d8034" y="128.755883"/>
     <use style="fill:#fc4f30;stroke:#fc4f30;stroke-width:0.5;" x="442.046667" xlink:href="#maef82d8034" y="92.51714"/>
     <use style="fill:#fc4f30;stroke:#fc4f30;stroke-width:0.5;" x="495.751435" xlink:href="#maef82d8034" y="234.965443"/>
     <use style="fill:#fc4f30;stroke:#fc4f30;stroke-width:0.5;" x="503.151699" xlink:href="#maef82d8034" y="184.325304"/>
     <use style="fill:#fc4f30;stroke:#fc4f30;stroke-width:0.5;" x="496.456222" xlink:href="#maef82d8034" y="133.830057"/>
     <use style="fill:#fc4f30;stroke:#fc4f30;stroke-width:0.5;" x="529.440254" xlink:href="#maef82d8034" y="111.362159"/>
     <use style="fill:#fc4f30;stroke:#fc4f30;stroke-width:0.5;" x="466.678972" xlink:href="#maef82d8034" y="87.329228"/>
     <use style="fill:#fc4f30;stroke:#fc4f30;stroke-width:0.5;" x="468.123785" xlink:href="#maef82d8034" y="203.874529"/>
     <use style="fill:#fc4f30;stroke:#fc4f30;stroke-width:0.5;" x="478.519393" xlink:href="#maef82d8034" y="166.799591"/>
     <use style="fill:#fc4f30;stroke:#fc4f30;stroke-width:0.5;" x="628.286629" xlink:href="#maef82d8034" y="283.388553"/>
     <use style="fill:#fc4f30;stroke:#fc4f30;stroke-width:0.5;" x="451.490812" xlink:href="#maef82d8034" y="196.960589"/>
     <use style="fill:#fc4f30;stroke:#fc4f30;stroke-width:0.5;" x="468.722854" xlink:href="#maef82d8034" y="164.274187"/>
     <use style="fill:#fc4f30;stroke:#fc4f30;stroke-width:0.5;" x="462.732165" xlink:href="#maef82d8034" y="146.801263"/>
     <use style="fill:#fc4f30;stroke:#fc4f30;stroke-width:0.5;" x="533.809933" xlink:href="#maef82d8034" y="164.774794"/>
     <use style="fill:#fc4f30;stroke:#fc4f30;stroke-width:0.5;" x="456.142406" xlink:href="#maef82d8034" y="190.590436"/>
     <use style="fill:#fc4f30;stroke:#fc4f30;stroke-width:0.5;" x="456.811954" xlink:href="#maef82d8034" y="147.990856"/>
     <use style="fill:#fc4f30;stroke:#fc4f30;stroke-width:0.5;" x="479.294659" xlink:href="#maef82d8034" y="72.116306"/>
     <use style="fill:#fc4f30;stroke:#fc4f30;stroke-width:0.5;" x="460.018735" xlink:href="#maef82d8034" y="246.52026"/>
     <use style="fill:#fc4f30;stroke:#fc4f30;stroke-width:0.5;" x="549.70288" xlink:href="#maef82d8034" y="175.946887"/>
     <use style="fill:#fc4f30;stroke:#fc4f30;stroke-width:0.5;" x="463.824585" xlink:href="#maef82d8034" y="172.376733"/>
     <use style="fill:#fc4f30;stroke:#fc4f30;stroke-width:0.5;" x="513.864461" xlink:href="#maef82d8034" y="230.641354"/>
     <use style="fill:#fc4f30;stroke:#fc4f30;stroke-width:0.5;" x="502.411672" xlink:href="#maef82d8034" y="205.099671"/>
     <use style="fill:#fc4f30;stroke:#fc4f30;stroke-width:0.5;" x="500.579226" xlink:href="#maef82d8034" y="181.168633"/>
     <use style="fill:#fc4f30;stroke:#fc4f30;stroke-width:0.5;" x="523.343846" xlink:href="#maef82d8034" y="283.225988"/>
    </g>
   </g>
   <g id="PolyCollection_2">
    <defs>
     <path d="M 419.627392 -229.486744 
L 419.627392 -186.965791 
L 428.671025 -186.413482 
L 437.714656 -185.486762 
L 446.75829 -184.26165 
L 455.801923 -182.940416 
L 464.845556 -181.76291 
L 473.88919 -179.727587 
L 482.932814 -177.626094 
L 491.976451 -174.911418 
L 501.020082 -171.529292 
L 510.063719 -167.35102 
L 519.10735 -163.004989 
L 528.150987 -158.649077 
L 537.194617 -154.151344 
L 546.238242 -148.755022 
L 555.281866 -143.555159 
L 564.325516 -138.62177 
L 573.36914 -133.625969 
L 582.412777 -127.661735 
L 591.456401 -122.029974 
L 600.500051 -116.649141 
L 609.543662 -111.267652 
L 618.587312 -106.063433 
L 627.630936 -100.986172 
L 636.674587 -95.908855 
L 645.718198 -90.831566 
L 654.761848 -85.395524 
L 663.805485 -79.788335 
L 672.849096 -74.209903 
L 681.892733 -69.028262 
L 681.892733 -177.945953 
L 681.892733 -177.945953 
L 672.849096 -178.397184 
L 663.805485 -178.867378 
L 654.761848 -179.388309 
L 645.718198 -179.871828 
L 636.674587 -180.355347 
L 627.630936 -181.093181 
L 618.587312 -181.921444 
L 609.543662 -182.748511 
L 600.500051 -182.790309 
L 591.456401 -183.418126 
L 582.412777 -183.672783 
L 573.36914 -184.559643 
L 564.325516 -185.445648 
L 555.281866 -185.626675 
L 546.238242 -185.821085 
L 537.194617 -186.606526 
L 528.150987 -187.731756 
L 519.10735 -188.712403 
L 510.063719 -190.318932 
L 501.020082 -192.391952 
L 491.976451 -195.010619 
L 482.932814 -198.029778 
L 473.88919 -201.592248 
L 464.845556 -206.026601 
L 455.801923 -210.403839 
L 446.75829 -214.78455 
L 437.714656 -219.685566 
L 428.671025 -224.628038 
L 419.627392 -229.486744 
z
" id="mea59e72649" style="stroke:#fc4f30;stroke-opacity:0.3;stroke-width:0.5;"/>
    </defs>
    <g clip-path="url(#pef0c81b402)">
     <use style="fill:#fc4f30;fill-opacity:0.3;stroke:#fc4f30;stroke-opacity:0.3;stroke-width:0.5;" x="0" xlink:href="#mea59e72649" y="341.670275"/>
    </g>
   </g>
   <g id="line2d_44">
    <path clip-path="url(#pef0c81b402)" d="M 419.627392 133.425671 
L 428.671025 136.29592 
L 437.714656 139.165884 
L 446.75829 142.036019 
L 455.801923 144.90621 
L 464.845556 147.776345 
L 473.88919 150.646252 
L 482.932814 153.516387 
L 491.976451 156.386579 
L 501.020082 159.256713 
L 510.063719 162.126848 
L 519.10735 164.996869 
L 528.150987 167.867061 
L 537.194617 170.737081 
L 546.238242 173.607159 
L 555.281866 176.477294 
L 564.325516 179.347429 
L 573.36914 182.217507 
L 582.412777 185.087613 
L 591.456401 187.957662 
L 600.500051 190.827825 
L 609.543662 193.697903 
L 618.587312 196.568038 
L 627.630936 199.438116 
L 636.674587 202.308222 
L 645.718198 205.178357 
L 654.761848 208.048406 
L 663.805485 210.918569 
L 672.849096 213.788619 
L 681.892733 216.658725 
" style="fill:none;stroke:#fc4f30;stroke-width:4;"/>
   </g>
   <g id="patch_8">
    <path d="M 406.514125 295.442275 
L 406.514125 30.2604 
" style="fill:none;stroke:#f0f0f0;stroke-linecap:square;stroke-linejoin:miter;stroke-width:3;"/>
   </g>
   <g id="patch_9">
    <path d="M 695.006 295.442275 
L 695.006 30.2604 
" style="fill:none;stroke:#f0f0f0;stroke-linecap:square;stroke-linejoin:miter;stroke-width:3;"/>
   </g>
   <g id="patch_10">
    <path d="M 406.514125 295.442275 
L 695.006 295.442275 
" style="fill:none;stroke:#f0f0f0;stroke-linecap:square;stroke-linejoin:miter;stroke-width:3;"/>
   </g>
   <g id="patch_11">
    <path d="M 406.514125 30.2604 
L 695.006 30.2604 
" style="fill:none;stroke:#f0f0f0;stroke-linecap:square;stroke-linejoin:miter;stroke-width:3;"/>
   </g>
   <g id="text_32">
    <!-- Albania -->
    <g transform="translate(562.248088 196.419442)scale(0.14 -0.14)">
     <use xlink:href="#DejaVuSans-65"/>
     <use x="68.408203" xlink:href="#DejaVuSans-108"/>
     <use x="96.191406" xlink:href="#DejaVuSans-98"/>
     <use x="159.667969" xlink:href="#DejaVuSans-97"/>
     <use x="220.947266" xlink:href="#DejaVuSans-110"/>
     <use x="284.326172" xlink:href="#DejaVuSans-105"/>
     <use x="312.109375" xlink:href="#DejaVuSans-97"/>
    </g>
   </g>
   <g id="text_33">
    <!-- Bulgaria -->
    <g transform="translate(493.601835 169.548351)scale(0.14 -0.14)">
     <defs>
      <path d="M 19.671875 34.8125 
L 19.671875 8.109375 
L 35.5 8.109375 
Q 43.453125 8.109375 47.28125 11.40625 
Q 51.125 14.703125 51.125 21.484375 
Q 51.125 28.328125 47.28125 31.5625 
Q 43.453125 34.8125 35.5 34.8125 
z
M 19.671875 64.796875 
L 19.671875 42.828125 
L 34.28125 42.828125 
Q 41.5 42.828125 45.03125 45.53125 
Q 48.578125 48.25 48.578125 53.8125 
Q 48.578125 59.328125 45.03125 62.0625 
Q 41.5 64.796875 34.28125 64.796875 
z
M 9.8125 72.90625 
L 35.015625 72.90625 
Q 46.296875 72.90625 52.390625 68.21875 
Q 58.5 63.53125 58.5 54.890625 
Q 58.5 48.1875 55.375 44.234375 
Q 52.25 40.28125 46.1875 39.3125 
Q 53.46875 37.75 57.5 32.78125 
Q 61.53125 27.828125 61.53125 20.40625 
Q 61.53125 10.640625 54.890625 5.3125 
Q 48.25 0 35.984375 0 
L 9.8125 0 
z
" id="DejaVuSans-66"/>
     </defs>
     <use xlink:href="#DejaVuSans-66"/>
     <use x="68.603516" xlink:href="#DejaVuSans-117"/>
     <use x="131.982422" xlink:href="#DejaVuSans-108"/>
     <use x="159.765625" xlink:href="#DejaVuSans-103"/>
     <use x="223.242188" xlink:href="#DejaVuSans-97"/>
     <use x="284.521484" xlink:href="#DejaVuSans-114"/>
     <use x="325.634766" xlink:href="#DejaVuSans-105"/>
     <use x="353.417969" xlink:href="#DejaVuSans-97"/>
    </g>
   </g>
   <g id="text_34">
    <!-- Switzerland -->
    <g transform="translate(609.25738 78.786207)scale(0.14 -0.14)">
     <defs>
      <path d="M 4.203125 54.6875 
L 13.1875 54.6875 
L 24.421875 12.015625 
L 35.59375 54.6875 
L 46.1875 54.6875 
L 57.421875 12.015625 
L 68.609375 54.6875 
L 77.59375 54.6875 
L 63.28125 0 
L 52.6875 0 
L 40.921875 44.828125 
L 29.109375 0 
L 18.5 0 
z
" id="DejaVuSans-119"/>
      <path d="M 5.515625 54.6875 
L 48.1875 54.6875 
L 48.1875 46.484375 
L 14.40625 7.171875 
L 48.1875 7.171875 
L 48.1875 0 
L 4.296875 0 
L 4.296875 8.203125 
L 38.09375 47.515625 
L 5.515625 47.515625 
z
" id="DejaVuSans-122"/>
      <path d="M 45.40625 46.390625 
L 45.40625 75.984375 
L 54.390625 75.984375 
L 54.390625 0 
L 45.40625 0 
L 45.40625 8.203125 
Q 42.578125 3.328125 38.25 0.953125 
Q 33.9375 -1.421875 27.875 -1.421875 
Q 17.96875 -1.421875 11.734375 6.484375 
Q 5.515625 14.40625 5.515625 27.296875 
Q 5.515625 40.1875 11.734375 48.09375 
Q 17.96875 56 27.875 56 
Q 33.9375 56 38.25 53.625 
Q 42.578125 51.265625 45.40625 46.390625 
z
M 14.796875 27.296875 
Q 14.796875 17.390625 18.875 11.75 
Q 22.953125 6.109375 30.078125 6.109375 
Q 37.203125 6.109375 41.296875 11.75 
Q 45.40625 17.390625 45.40625 27.296875 
Q 45.40625 37.203125 41.296875 42.84375 
Q 37.203125 48.484375 30.078125 48.484375 
Q 22.953125 48.484375 18.875 42.84375 
Q 14.796875 37.203125 14.796875 27.296875 
z
" id="DejaVuSans-100"/>
     </defs>
     <use xlink:href="#DejaVuSans-83"/>
     <use x="63.476562" xlink:href="#DejaVuSans-119"/>
     <use x="145.263672" xlink:href="#DejaVuSans-105"/>
     <use x="173.046875" xlink:href="#DejaVuSans-116"/>
     <use x="212.255859" xlink:href="#DejaVuSans-122"/>
     <use x="264.746094" xlink:href="#DejaVuSans-101"/>
     <use x="326.269531" xlink:href="#DejaVuSans-114"/>
     <use x="367.382812" xlink:href="#DejaVuSans-108"/>
     <use x="395.166016" xlink:href="#DejaVuSans-97"/>
     <use x="456.445312" xlink:href="#DejaVuSans-110"/>
     <use x="519.824219" xlink:href="#DejaVuSans-100"/>
    </g>
   </g>
   <g id="text_35">
    <!-- Dominican Republic -->
    <g transform="translate(499.31061 165.639034)scale(0.14 -0.14)">
     <defs>
      <path d="M 44.390625 34.1875 
Q 47.5625 33.109375 50.5625 29.59375 
Q 53.5625 26.078125 56.59375 19.921875 
L 66.609375 0 
L 56 0 
L 46.6875 18.703125 
Q 43.0625 26.03125 39.671875 28.421875 
Q 36.28125 30.8125 30.421875 30.8125 
L 19.671875 30.8125 
L 19.671875 0 
L 9.8125 0 
L 9.8125 72.90625 
L 32.078125 72.90625 
Q 44.578125 72.90625 50.734375 67.671875 
Q 56.890625 62.453125 56.890625 51.90625 
Q 56.890625 45.015625 53.6875 40.46875 
Q 50.484375 35.9375 44.390625 34.1875 
z
M 19.671875 64.796875 
L 19.671875 38.921875 
L 32.078125 38.921875 
Q 39.203125 38.921875 42.84375 42.21875 
Q 46.484375 45.515625 46.484375 51.90625 
Q 46.484375 58.296875 42.84375 61.546875 
Q 39.203125 64.796875 32.078125 64.796875 
z
" id="DejaVuSans-82"/>
      <path d="M 18.109375 8.203125 
L 18.109375 -20.796875 
L 9.078125 -20.796875 
L 9.078125 54.6875 
L 18.109375 54.6875 
L 18.109375 46.390625 
Q 20.953125 51.265625 25.265625 53.625 
Q 29.59375 56 35.59375 56 
Q 45.5625 56 51.78125 48.09375 
Q 58.015625 40.1875 58.015625 27.296875 
Q 58.015625 14.40625 51.78125 6.484375 
Q 45.5625 -1.421875 35.59375 -1.421875 
Q 29.59375 -1.421875 25.265625 0.953125 
Q 20.953125 3.328125 18.109375 8.203125 
z
M 48.6875 27.296875 
Q 48.6875 37.203125 44.609375 42.84375 
Q 40.53125 48.484375 33.40625 48.484375 
Q 26.265625 48.484375 22.1875 42.84375 
Q 18.109375 37.203125 18.109375 27.296875 
Q 18.109375 17.390625 22.1875 11.75 
Q 26.265625 6.109375 33.40625 6.109375 
Q 40.53125 6.109375 44.609375 11.75 
Q 48.6875 17.390625 48.6875 27.296875 
z
" id="DejaVuSans-112"/>
     </defs>
     <use xlink:href="#DejaVuSans-68"/>
     <use x="77.001953" xlink:href="#DejaVuSans-111"/>
     <use x="138.183594" xlink:href="#DejaVuSans-109"/>
     <use x="235.595703" xlink:href="#DejaVuSans-105"/>
     <use x="263.378906" xlink:href="#DejaVuSans-110"/>
     <use x="326.757812" xlink:href="#DejaVuSans-105"/>
     <use x="354.541016" xlink:href="#DejaVuSans-99"/>
     <use x="409.521484" xlink:href="#DejaVuSans-97"/>
     <use x="470.800781" xlink:href="#DejaVuSans-110"/>
     <use x="534.179688" xlink:href="#DejaVuSans-32"/>
     <use x="565.966797" xlink:href="#DejaVuSans-82"/>
     <use x="630.949219" xlink:href="#DejaVuSans-101"/>
     <use x="692.472656" xlink:href="#DejaVuSans-112"/>
     <use x="755.949219" xlink:href="#DejaVuSans-117"/>
     <use x="819.328125" xlink:href="#DejaVuSans-98"/>
     <use x="882.804688" xlink:href="#DejaVuSans-108"/>
     <use x="910.587891" xlink:href="#DejaVuSans-105"/>
     <use x="938.371094" xlink:href="#DejaVuSans-99"/>
    </g>
   </g>
   <g id="text_36">
    <!-- Grenada -->
    <g transform="translate(515.062599 156.566652)scale(0.14 -0.14)">
     <use xlink:href="#DejaVuSans-71"/>
     <use x="77.490234" xlink:href="#DejaVuSans-114"/>
     <use x="116.353516" xlink:href="#DejaVuSans-101"/>
     <use x="177.876953" xlink:href="#DejaVuSans-110"/>
     <use x="241.255859" xlink:href="#DejaVuSans-97"/>
     <use x="302.535156" xlink:href="#DejaVuSans-100"/>
     <use x="366.011719" xlink:href="#DejaVuSans-97"/>
    </g>
   </g>
   <g id="text_37">
    <!-- Quốc gia không Châu Phi -->
    <g transform="translate(424.096987 24.2604)scale(0.2016 -0.2016)">
     <defs>
      <path d="M 9.078125 75.984375 
L 18.109375 75.984375 
L 18.109375 31.109375 
L 44.921875 54.6875 
L 56.390625 54.6875 
L 27.390625 29.109375 
L 57.625 0 
L 45.90625 0 
L 18.109375 26.703125 
L 18.109375 0 
L 9.078125 0 
z
" id="DejaVuSans-107"/>
      <path d="M 30.609375 48.390625 
Q 23.390625 48.390625 19.1875 42.75 
Q 14.984375 37.109375 14.984375 27.296875 
Q 14.984375 17.484375 19.15625 11.84375 
Q 23.34375 6.203125 30.609375 6.203125 
Q 37.796875 6.203125 41.984375 11.859375 
Q 46.1875 17.53125 46.1875 27.296875 
Q 46.1875 37.015625 41.984375 42.703125 
Q 37.796875 48.390625 30.609375 48.390625 
z
M 30.609375 56 
Q 42.328125 56 49.015625 48.375 
Q 55.71875 40.765625 55.71875 27.296875 
Q 55.71875 13.875 49.015625 6.21875 
Q 42.328125 -1.421875 30.609375 -1.421875 
Q 18.84375 -1.421875 12.171875 6.21875 
Q 5.515625 13.875 5.515625 27.296875 
Q 5.515625 40.765625 12.171875 48.375 
Q 18.84375 56 30.609375 56 
z
M 27 79.984375 
L 34.234375 79.984375 
L 46.1875 61.625 
L 39.40625 61.625 
L 30.609375 73.578125 
L 21.828125 61.625 
L 15.046875 61.625 
z
" id="DejaVuSans-244"/>
     </defs>
     <use xlink:href="#DejaVuSans-81"/>
     <use x="78.710938" xlink:href="#DejaVuSans-117"/>
     <use x="142.089844" xlink:href="#DejaVuSans-7889"/>
     <use x="203.271484" xlink:href="#DejaVuSans-99"/>
     <use x="258.251953" xlink:href="#DejaVuSans-32"/>
     <use x="290.039062" xlink:href="#DejaVuSans-103"/>
     <use x="353.515625" xlink:href="#DejaVuSans-105"/>
     <use x="381.298828" xlink:href="#DejaVuSans-97"/>
     <use x="442.578125" xlink:href="#DejaVuSans-32"/>
     <use x="474.365234" xlink:href="#DejaVuSans-107"/>
     <use x="532.275391" xlink:href="#DejaVuSans-104"/>
     <use x="595.654297" xlink:href="#DejaVuSans-244"/>
     <use x="656.835938" xlink:href="#DejaVuSans-110"/>
     <use x="720.214844" xlink:href="#DejaVuSans-103"/>
     <use x="783.691406" xlink:href="#DejaVuSans-32"/>
     <use x="815.478516" xlink:href="#DejaVuSans-67"/>
     <use x="885.302734" xlink:href="#DejaVuSans-104"/>
     <use x="948.681641" xlink:href="#DejaVuSans-226"/>
     <use x="1009.960938" xlink:href="#DejaVuSans-117"/>
     <use x="1073.339844" xlink:href="#DejaVuSans-32"/>
     <use x="1105.126953" xlink:href="#DejaVuSans-80"/>
     <use x="1165.429688" xlink:href="#DejaVuSans-104"/>
     <use x="1228.808594" xlink:href="#DejaVuSans-105"/>
    </g>
   </g>
  </g>
 </g>
 <defs>
  <clipPath id="p399313844d">
   <rect height="265.181875" width="288.491875" x="54.074125" y="30.2604"/>
  </clipPath>
  <clipPath id="pef0c81b402">
   <rect height="265.181875" width="288.491875" x="406.514125" y="30.2604"/>
  </clipPath>
 </defs>
</svg>
